%TF.GenerationSoftware,KiCad,Pcbnew,9.0.0*%
%TF.CreationDate,2025-03-24T22:57:22+01:00*%
%TF.ProjectId,Motor_driver,4d6f746f-725f-4647-9269-7665722e6b69,rev?*%
%TF.SameCoordinates,Original*%
%TF.FileFunction,Legend,Top*%
%TF.FilePolarity,Positive*%
%FSLAX46Y46*%
G04 Gerber Fmt 4.6, Leading zero omitted, Abs format (unit mm)*
G04 Created by KiCad (PCBNEW 9.0.0) date 2025-03-24 22:57:22*
%MOMM*%
%LPD*%
G01*
G04 APERTURE LIST*
%ADD10C,0.150000*%
%ADD11C,0.200000*%
%ADD12C,0.254000*%
%ADD13C,0.120000*%
%ADD14C,0.100000*%
%ADD15C,0.550000*%
G04 APERTURE END LIST*
D10*
X107287142Y-121692438D02*
X107191904Y-121644819D01*
X107191904Y-121644819D02*
X107049047Y-121644819D01*
X107049047Y-121644819D02*
X106906190Y-121692438D01*
X106906190Y-121692438D02*
X106810952Y-121787676D01*
X106810952Y-121787676D02*
X106763333Y-121882914D01*
X106763333Y-121882914D02*
X106715714Y-122073390D01*
X106715714Y-122073390D02*
X106715714Y-122216247D01*
X106715714Y-122216247D02*
X106763333Y-122406723D01*
X106763333Y-122406723D02*
X106810952Y-122501961D01*
X106810952Y-122501961D02*
X106906190Y-122597200D01*
X106906190Y-122597200D02*
X107049047Y-122644819D01*
X107049047Y-122644819D02*
X107144285Y-122644819D01*
X107144285Y-122644819D02*
X107287142Y-122597200D01*
X107287142Y-122597200D02*
X107334761Y-122549580D01*
X107334761Y-122549580D02*
X107334761Y-122216247D01*
X107334761Y-122216247D02*
X107144285Y-122216247D01*
X108239523Y-122644819D02*
X107763333Y-122644819D01*
X107763333Y-122644819D02*
X107763333Y-121644819D01*
X109144285Y-122549580D02*
X109096666Y-122597200D01*
X109096666Y-122597200D02*
X108953809Y-122644819D01*
X108953809Y-122644819D02*
X108858571Y-122644819D01*
X108858571Y-122644819D02*
X108715714Y-122597200D01*
X108715714Y-122597200D02*
X108620476Y-122501961D01*
X108620476Y-122501961D02*
X108572857Y-122406723D01*
X108572857Y-122406723D02*
X108525238Y-122216247D01*
X108525238Y-122216247D02*
X108525238Y-122073390D01*
X108525238Y-122073390D02*
X108572857Y-121882914D01*
X108572857Y-121882914D02*
X108620476Y-121787676D01*
X108620476Y-121787676D02*
X108715714Y-121692438D01*
X108715714Y-121692438D02*
X108858571Y-121644819D01*
X108858571Y-121644819D02*
X108953809Y-121644819D01*
X108953809Y-121644819D02*
X109096666Y-121692438D01*
X109096666Y-121692438D02*
X109144285Y-121740057D01*
D11*
X74895863Y-67446028D02*
X75824435Y-67446028D01*
X75824435Y-67446028D02*
X75324435Y-68017457D01*
X75324435Y-68017457D02*
X75538720Y-68017457D01*
X75538720Y-68017457D02*
X75681578Y-68088885D01*
X75681578Y-68088885D02*
X75753006Y-68160314D01*
X75753006Y-68160314D02*
X75824435Y-68303171D01*
X75824435Y-68303171D02*
X75824435Y-68660314D01*
X75824435Y-68660314D02*
X75753006Y-68803171D01*
X75753006Y-68803171D02*
X75681578Y-68874600D01*
X75681578Y-68874600D02*
X75538720Y-68946028D01*
X75538720Y-68946028D02*
X75110149Y-68946028D01*
X75110149Y-68946028D02*
X74967292Y-68874600D01*
X74967292Y-68874600D02*
X74895863Y-68803171D01*
X76253006Y-67446028D02*
X76753006Y-68946028D01*
X76753006Y-68946028D02*
X77253006Y-67446028D01*
X77610148Y-67446028D02*
X78538720Y-67446028D01*
X78538720Y-67446028D02*
X78038720Y-68017457D01*
X78038720Y-68017457D02*
X78253005Y-68017457D01*
X78253005Y-68017457D02*
X78395863Y-68088885D01*
X78395863Y-68088885D02*
X78467291Y-68160314D01*
X78467291Y-68160314D02*
X78538720Y-68303171D01*
X78538720Y-68303171D02*
X78538720Y-68660314D01*
X78538720Y-68660314D02*
X78467291Y-68803171D01*
X78467291Y-68803171D02*
X78395863Y-68874600D01*
X78395863Y-68874600D02*
X78253005Y-68946028D01*
X78253005Y-68946028D02*
X77824434Y-68946028D01*
X77824434Y-68946028D02*
X77681577Y-68874600D01*
X77681577Y-68874600D02*
X77610148Y-68803171D01*
D10*
X114169523Y-121592438D02*
X114074285Y-121544819D01*
X114074285Y-121544819D02*
X113931428Y-121544819D01*
X113931428Y-121544819D02*
X113788571Y-121592438D01*
X113788571Y-121592438D02*
X113693333Y-121687676D01*
X113693333Y-121687676D02*
X113645714Y-121782914D01*
X113645714Y-121782914D02*
X113598095Y-121973390D01*
X113598095Y-121973390D02*
X113598095Y-122116247D01*
X113598095Y-122116247D02*
X113645714Y-122306723D01*
X113645714Y-122306723D02*
X113693333Y-122401961D01*
X113693333Y-122401961D02*
X113788571Y-122497200D01*
X113788571Y-122497200D02*
X113931428Y-122544819D01*
X113931428Y-122544819D02*
X114026666Y-122544819D01*
X114026666Y-122544819D02*
X114169523Y-122497200D01*
X114169523Y-122497200D02*
X114217142Y-122449580D01*
X114217142Y-122449580D02*
X114217142Y-122116247D01*
X114217142Y-122116247D02*
X114026666Y-122116247D01*
X114645714Y-122544819D02*
X114645714Y-121544819D01*
X114645714Y-122021009D02*
X115217142Y-122021009D01*
X115217142Y-122544819D02*
X115217142Y-121544819D01*
X115645714Y-122259104D02*
X116121904Y-122259104D01*
X115550476Y-122544819D02*
X115883809Y-121544819D01*
X115883809Y-121544819D02*
X116217142Y-122544819D01*
D11*
X74917292Y-74948885D02*
X74988720Y-74877457D01*
X74988720Y-74877457D02*
X75131578Y-74806028D01*
X75131578Y-74806028D02*
X75488720Y-74806028D01*
X75488720Y-74806028D02*
X75631578Y-74877457D01*
X75631578Y-74877457D02*
X75703006Y-74948885D01*
X75703006Y-74948885D02*
X75774435Y-75091742D01*
X75774435Y-75091742D02*
X75774435Y-75234600D01*
X75774435Y-75234600D02*
X75703006Y-75448885D01*
X75703006Y-75448885D02*
X74845863Y-76306028D01*
X74845863Y-76306028D02*
X75774435Y-76306028D01*
X77060149Y-75306028D02*
X77060149Y-76306028D01*
X76703006Y-74734600D02*
X76345863Y-75806028D01*
X76345863Y-75806028D02*
X77274434Y-75806028D01*
X77631577Y-74806028D02*
X78131577Y-76306028D01*
X78131577Y-76306028D02*
X78631577Y-74806028D01*
X78480400Y-121822054D02*
X78432780Y-121964911D01*
X78432780Y-121964911D02*
X78432780Y-122203006D01*
X78432780Y-122203006D02*
X78480400Y-122298244D01*
X78480400Y-122298244D02*
X78528019Y-122345863D01*
X78528019Y-122345863D02*
X78623257Y-122393482D01*
X78623257Y-122393482D02*
X78718495Y-122393482D01*
X78718495Y-122393482D02*
X78813733Y-122345863D01*
X78813733Y-122345863D02*
X78861352Y-122298244D01*
X78861352Y-122298244D02*
X78908971Y-122203006D01*
X78908971Y-122203006D02*
X78956590Y-122012530D01*
X78956590Y-122012530D02*
X79004209Y-121917292D01*
X79004209Y-121917292D02*
X79051828Y-121869673D01*
X79051828Y-121869673D02*
X79147066Y-121822054D01*
X79147066Y-121822054D02*
X79242304Y-121822054D01*
X79242304Y-121822054D02*
X79337542Y-121869673D01*
X79337542Y-121869673D02*
X79385161Y-121917292D01*
X79385161Y-121917292D02*
X79432780Y-122012530D01*
X79432780Y-122012530D02*
X79432780Y-122250625D01*
X79432780Y-122250625D02*
X79385161Y-122393482D01*
X79432780Y-122726816D02*
X78432780Y-122964911D01*
X78432780Y-122964911D02*
X79147066Y-123155387D01*
X79147066Y-123155387D02*
X78432780Y-123345863D01*
X78432780Y-123345863D02*
X79432780Y-123583959D01*
X101608887Y-101288720D02*
X103108887Y-101288720D01*
X103108887Y-101288720D02*
X102037458Y-101788720D01*
X102037458Y-101788720D02*
X103108887Y-102288720D01*
X103108887Y-102288720D02*
X101608887Y-102288720D01*
X101608887Y-103217292D02*
X101680316Y-103074435D01*
X101680316Y-103074435D02*
X101751744Y-103003006D01*
X101751744Y-103003006D02*
X101894601Y-102931578D01*
X101894601Y-102931578D02*
X102323173Y-102931578D01*
X102323173Y-102931578D02*
X102466030Y-103003006D01*
X102466030Y-103003006D02*
X102537458Y-103074435D01*
X102537458Y-103074435D02*
X102608887Y-103217292D01*
X102608887Y-103217292D02*
X102608887Y-103431578D01*
X102608887Y-103431578D02*
X102537458Y-103574435D01*
X102537458Y-103574435D02*
X102466030Y-103645864D01*
X102466030Y-103645864D02*
X102323173Y-103717292D01*
X102323173Y-103717292D02*
X101894601Y-103717292D01*
X101894601Y-103717292D02*
X101751744Y-103645864D01*
X101751744Y-103645864D02*
X101680316Y-103574435D01*
X101680316Y-103574435D02*
X101608887Y-103431578D01*
X101608887Y-103431578D02*
X101608887Y-103217292D01*
X102608887Y-104145864D02*
X102608887Y-104717292D01*
X103108887Y-104360149D02*
X101823173Y-104360149D01*
X101823173Y-104360149D02*
X101680316Y-104431578D01*
X101680316Y-104431578D02*
X101608887Y-104574435D01*
X101608887Y-104574435D02*
X101608887Y-104717292D01*
X101608887Y-105217292D02*
X102608887Y-105217292D01*
X103108887Y-105217292D02*
X103037458Y-105145864D01*
X103037458Y-105145864D02*
X102966030Y-105217292D01*
X102966030Y-105217292D02*
X103037458Y-105288721D01*
X103037458Y-105288721D02*
X103108887Y-105217292D01*
X103108887Y-105217292D02*
X102966030Y-105217292D01*
X101608887Y-106145864D02*
X101680316Y-106003007D01*
X101680316Y-106003007D02*
X101751744Y-105931578D01*
X101751744Y-105931578D02*
X101894601Y-105860150D01*
X101894601Y-105860150D02*
X102323173Y-105860150D01*
X102323173Y-105860150D02*
X102466030Y-105931578D01*
X102466030Y-105931578D02*
X102537458Y-106003007D01*
X102537458Y-106003007D02*
X102608887Y-106145864D01*
X102608887Y-106145864D02*
X102608887Y-106360150D01*
X102608887Y-106360150D02*
X102537458Y-106503007D01*
X102537458Y-106503007D02*
X102466030Y-106574436D01*
X102466030Y-106574436D02*
X102323173Y-106645864D01*
X102323173Y-106645864D02*
X101894601Y-106645864D01*
X101894601Y-106645864D02*
X101751744Y-106574436D01*
X101751744Y-106574436D02*
X101680316Y-106503007D01*
X101680316Y-106503007D02*
X101608887Y-106360150D01*
X101608887Y-106360150D02*
X101608887Y-106145864D01*
X102608887Y-107288721D02*
X101608887Y-107288721D01*
X102466030Y-107288721D02*
X102537458Y-107360150D01*
X102537458Y-107360150D02*
X102608887Y-107503007D01*
X102608887Y-107503007D02*
X102608887Y-107717293D01*
X102608887Y-107717293D02*
X102537458Y-107860150D01*
X102537458Y-107860150D02*
X102394601Y-107931579D01*
X102394601Y-107931579D02*
X101608887Y-107931579D01*
X101680316Y-109717293D02*
X101608887Y-109860150D01*
X101608887Y-109860150D02*
X101608887Y-110145864D01*
X101608887Y-110145864D02*
X101680316Y-110288721D01*
X101680316Y-110288721D02*
X101823173Y-110360150D01*
X101823173Y-110360150D02*
X101894601Y-110360150D01*
X101894601Y-110360150D02*
X102037458Y-110288721D01*
X102037458Y-110288721D02*
X102108887Y-110145864D01*
X102108887Y-110145864D02*
X102108887Y-109931579D01*
X102108887Y-109931579D02*
X102180316Y-109788721D01*
X102180316Y-109788721D02*
X102323173Y-109717293D01*
X102323173Y-109717293D02*
X102394601Y-109717293D01*
X102394601Y-109717293D02*
X102537458Y-109788721D01*
X102537458Y-109788721D02*
X102608887Y-109931579D01*
X102608887Y-109931579D02*
X102608887Y-110145864D01*
X102608887Y-110145864D02*
X102537458Y-110288721D01*
X101608887Y-111003007D02*
X102608887Y-111003007D01*
X103108887Y-111003007D02*
X103037458Y-110931579D01*
X103037458Y-110931579D02*
X102966030Y-111003007D01*
X102966030Y-111003007D02*
X103037458Y-111074436D01*
X103037458Y-111074436D02*
X103108887Y-111003007D01*
X103108887Y-111003007D02*
X102966030Y-111003007D01*
X101608887Y-111717293D02*
X102608887Y-111717293D01*
X102466030Y-111717293D02*
X102537458Y-111788722D01*
X102537458Y-111788722D02*
X102608887Y-111931579D01*
X102608887Y-111931579D02*
X102608887Y-112145865D01*
X102608887Y-112145865D02*
X102537458Y-112288722D01*
X102537458Y-112288722D02*
X102394601Y-112360151D01*
X102394601Y-112360151D02*
X101608887Y-112360151D01*
X102394601Y-112360151D02*
X102537458Y-112431579D01*
X102537458Y-112431579D02*
X102608887Y-112574436D01*
X102608887Y-112574436D02*
X102608887Y-112788722D01*
X102608887Y-112788722D02*
X102537458Y-112931579D01*
X102537458Y-112931579D02*
X102394601Y-113003008D01*
X102394601Y-113003008D02*
X101608887Y-113003008D01*
X101608887Y-115503008D02*
X102394601Y-115503008D01*
X102394601Y-115503008D02*
X102537458Y-115431579D01*
X102537458Y-115431579D02*
X102608887Y-115288722D01*
X102608887Y-115288722D02*
X102608887Y-115003008D01*
X102608887Y-115003008D02*
X102537458Y-114860150D01*
X101680316Y-115503008D02*
X101608887Y-115360150D01*
X101608887Y-115360150D02*
X101608887Y-115003008D01*
X101608887Y-115003008D02*
X101680316Y-114860150D01*
X101680316Y-114860150D02*
X101823173Y-114788722D01*
X101823173Y-114788722D02*
X101966030Y-114788722D01*
X101966030Y-114788722D02*
X102108887Y-114860150D01*
X102108887Y-114860150D02*
X102180316Y-115003008D01*
X102180316Y-115003008D02*
X102180316Y-115360150D01*
X102180316Y-115360150D02*
X102251744Y-115503008D01*
X101680316Y-116860151D02*
X101608887Y-116717293D01*
X101608887Y-116717293D02*
X101608887Y-116431579D01*
X101608887Y-116431579D02*
X101680316Y-116288722D01*
X101680316Y-116288722D02*
X101751744Y-116217293D01*
X101751744Y-116217293D02*
X101894601Y-116145865D01*
X101894601Y-116145865D02*
X102323173Y-116145865D01*
X102323173Y-116145865D02*
X102466030Y-116217293D01*
X102466030Y-116217293D02*
X102537458Y-116288722D01*
X102537458Y-116288722D02*
X102608887Y-116431579D01*
X102608887Y-116431579D02*
X102608887Y-116717293D01*
X102608887Y-116717293D02*
X102537458Y-116860151D01*
X102608887Y-117288722D02*
X102608887Y-117860150D01*
X103108887Y-117503007D02*
X101823173Y-117503007D01*
X101823173Y-117503007D02*
X101680316Y-117574436D01*
X101680316Y-117574436D02*
X101608887Y-117717293D01*
X101608887Y-117717293D02*
X101608887Y-117860150D01*
X102608887Y-119003008D02*
X101608887Y-119003008D01*
X102608887Y-118360150D02*
X101823173Y-118360150D01*
X101823173Y-118360150D02*
X101680316Y-118431579D01*
X101680316Y-118431579D02*
X101608887Y-118574436D01*
X101608887Y-118574436D02*
X101608887Y-118788722D01*
X101608887Y-118788722D02*
X101680316Y-118931579D01*
X101680316Y-118931579D02*
X101751744Y-119003008D01*
X101608887Y-120360151D02*
X102394601Y-120360151D01*
X102394601Y-120360151D02*
X102537458Y-120288722D01*
X102537458Y-120288722D02*
X102608887Y-120145865D01*
X102608887Y-120145865D02*
X102608887Y-119860151D01*
X102608887Y-119860151D02*
X102537458Y-119717293D01*
X101680316Y-120360151D02*
X101608887Y-120217293D01*
X101608887Y-120217293D02*
X101608887Y-119860151D01*
X101608887Y-119860151D02*
X101680316Y-119717293D01*
X101680316Y-119717293D02*
X101823173Y-119645865D01*
X101823173Y-119645865D02*
X101966030Y-119645865D01*
X101966030Y-119645865D02*
X102108887Y-119717293D01*
X102108887Y-119717293D02*
X102180316Y-119860151D01*
X102180316Y-119860151D02*
X102180316Y-120217293D01*
X102180316Y-120217293D02*
X102251744Y-120360151D01*
X102608887Y-120860151D02*
X102608887Y-121431579D01*
X103108887Y-121074436D02*
X101823173Y-121074436D01*
X101823173Y-121074436D02*
X101680316Y-121145865D01*
X101680316Y-121145865D02*
X101608887Y-121288722D01*
X101608887Y-121288722D02*
X101608887Y-121431579D01*
X101608887Y-122145865D02*
X101680316Y-122003008D01*
X101680316Y-122003008D02*
X101751744Y-121931579D01*
X101751744Y-121931579D02*
X101894601Y-121860151D01*
X101894601Y-121860151D02*
X102323173Y-121860151D01*
X102323173Y-121860151D02*
X102466030Y-121931579D01*
X102466030Y-121931579D02*
X102537458Y-122003008D01*
X102537458Y-122003008D02*
X102608887Y-122145865D01*
X102608887Y-122145865D02*
X102608887Y-122360151D01*
X102608887Y-122360151D02*
X102537458Y-122503008D01*
X102537458Y-122503008D02*
X102466030Y-122574437D01*
X102466030Y-122574437D02*
X102323173Y-122645865D01*
X102323173Y-122645865D02*
X101894601Y-122645865D01*
X101894601Y-122645865D02*
X101751744Y-122574437D01*
X101751744Y-122574437D02*
X101680316Y-122503008D01*
X101680316Y-122503008D02*
X101608887Y-122360151D01*
X101608887Y-122360151D02*
X101608887Y-122145865D01*
X101608887Y-123288722D02*
X102608887Y-123288722D01*
X102323173Y-123288722D02*
X102466030Y-123360151D01*
X102466030Y-123360151D02*
X102537458Y-123431580D01*
X102537458Y-123431580D02*
X102608887Y-123574437D01*
X102608887Y-123574437D02*
X102608887Y-123717294D01*
X99979685Y-101788720D02*
X99979685Y-101288720D01*
X99193971Y-101288720D02*
X100693971Y-101288720D01*
X100693971Y-101288720D02*
X100693971Y-102003006D01*
X100693971Y-102860149D02*
X100693971Y-103145863D01*
X100693971Y-103145863D02*
X100622542Y-103288720D01*
X100622542Y-103288720D02*
X100479685Y-103431577D01*
X100479685Y-103431577D02*
X100193971Y-103503006D01*
X100193971Y-103503006D02*
X99693971Y-103503006D01*
X99693971Y-103503006D02*
X99408257Y-103431577D01*
X99408257Y-103431577D02*
X99265400Y-103288720D01*
X99265400Y-103288720D02*
X99193971Y-103145863D01*
X99193971Y-103145863D02*
X99193971Y-102860149D01*
X99193971Y-102860149D02*
X99265400Y-102717292D01*
X99265400Y-102717292D02*
X99408257Y-102574434D01*
X99408257Y-102574434D02*
X99693971Y-102503006D01*
X99693971Y-102503006D02*
X100193971Y-102503006D01*
X100193971Y-102503006D02*
X100479685Y-102574434D01*
X100479685Y-102574434D02*
X100622542Y-102717292D01*
X100622542Y-102717292D02*
X100693971Y-102860149D01*
X99336828Y-105003006D02*
X99265400Y-104931578D01*
X99265400Y-104931578D02*
X99193971Y-104717292D01*
X99193971Y-104717292D02*
X99193971Y-104574435D01*
X99193971Y-104574435D02*
X99265400Y-104360149D01*
X99265400Y-104360149D02*
X99408257Y-104217292D01*
X99408257Y-104217292D02*
X99551114Y-104145863D01*
X99551114Y-104145863D02*
X99836828Y-104074435D01*
X99836828Y-104074435D02*
X100051114Y-104074435D01*
X100051114Y-104074435D02*
X100336828Y-104145863D01*
X100336828Y-104145863D02*
X100479685Y-104217292D01*
X100479685Y-104217292D02*
X100622542Y-104360149D01*
X100622542Y-104360149D02*
X100693971Y-104574435D01*
X100693971Y-104574435D02*
X100693971Y-104717292D01*
X100693971Y-104717292D02*
X100622542Y-104931578D01*
X100622542Y-104931578D02*
X100551114Y-105003006D01*
X99193971Y-106788720D02*
X100693971Y-106788720D01*
X100693971Y-106788720D02*
X99622542Y-107288720D01*
X99622542Y-107288720D02*
X100693971Y-107788720D01*
X100693971Y-107788720D02*
X99193971Y-107788720D01*
X99193971Y-108717292D02*
X99265400Y-108574435D01*
X99265400Y-108574435D02*
X99336828Y-108503006D01*
X99336828Y-108503006D02*
X99479685Y-108431578D01*
X99479685Y-108431578D02*
X99908257Y-108431578D01*
X99908257Y-108431578D02*
X100051114Y-108503006D01*
X100051114Y-108503006D02*
X100122542Y-108574435D01*
X100122542Y-108574435D02*
X100193971Y-108717292D01*
X100193971Y-108717292D02*
X100193971Y-108931578D01*
X100193971Y-108931578D02*
X100122542Y-109074435D01*
X100122542Y-109074435D02*
X100051114Y-109145864D01*
X100051114Y-109145864D02*
X99908257Y-109217292D01*
X99908257Y-109217292D02*
X99479685Y-109217292D01*
X99479685Y-109217292D02*
X99336828Y-109145864D01*
X99336828Y-109145864D02*
X99265400Y-109074435D01*
X99265400Y-109074435D02*
X99193971Y-108931578D01*
X99193971Y-108931578D02*
X99193971Y-108717292D01*
X100193971Y-109645864D02*
X100193971Y-110217292D01*
X100693971Y-109860149D02*
X99408257Y-109860149D01*
X99408257Y-109860149D02*
X99265400Y-109931578D01*
X99265400Y-109931578D02*
X99193971Y-110074435D01*
X99193971Y-110074435D02*
X99193971Y-110217292D01*
X99193971Y-110931578D02*
X99265400Y-110788721D01*
X99265400Y-110788721D02*
X99336828Y-110717292D01*
X99336828Y-110717292D02*
X99479685Y-110645864D01*
X99479685Y-110645864D02*
X99908257Y-110645864D01*
X99908257Y-110645864D02*
X100051114Y-110717292D01*
X100051114Y-110717292D02*
X100122542Y-110788721D01*
X100122542Y-110788721D02*
X100193971Y-110931578D01*
X100193971Y-110931578D02*
X100193971Y-111145864D01*
X100193971Y-111145864D02*
X100122542Y-111288721D01*
X100122542Y-111288721D02*
X100051114Y-111360150D01*
X100051114Y-111360150D02*
X99908257Y-111431578D01*
X99908257Y-111431578D02*
X99479685Y-111431578D01*
X99479685Y-111431578D02*
X99336828Y-111360150D01*
X99336828Y-111360150D02*
X99265400Y-111288721D01*
X99265400Y-111288721D02*
X99193971Y-111145864D01*
X99193971Y-111145864D02*
X99193971Y-110931578D01*
X99193971Y-112074435D02*
X100193971Y-112074435D01*
X99908257Y-112074435D02*
X100051114Y-112145864D01*
X100051114Y-112145864D02*
X100122542Y-112217293D01*
X100122542Y-112217293D02*
X100193971Y-112360150D01*
X100193971Y-112360150D02*
X100193971Y-112503007D01*
X99193971Y-114788721D02*
X100693971Y-114788721D01*
X99265400Y-114788721D02*
X99193971Y-114645863D01*
X99193971Y-114645863D02*
X99193971Y-114360149D01*
X99193971Y-114360149D02*
X99265400Y-114217292D01*
X99265400Y-114217292D02*
X99336828Y-114145863D01*
X99336828Y-114145863D02*
X99479685Y-114074435D01*
X99479685Y-114074435D02*
X99908257Y-114074435D01*
X99908257Y-114074435D02*
X100051114Y-114145863D01*
X100051114Y-114145863D02*
X100122542Y-114217292D01*
X100122542Y-114217292D02*
X100193971Y-114360149D01*
X100193971Y-114360149D02*
X100193971Y-114645863D01*
X100193971Y-114645863D02*
X100122542Y-114788721D01*
X99193971Y-115503006D02*
X100193971Y-115503006D01*
X99908257Y-115503006D02*
X100051114Y-115574435D01*
X100051114Y-115574435D02*
X100122542Y-115645864D01*
X100122542Y-115645864D02*
X100193971Y-115788721D01*
X100193971Y-115788721D02*
X100193971Y-115931578D01*
X99193971Y-116431577D02*
X100193971Y-116431577D01*
X100693971Y-116431577D02*
X100622542Y-116360149D01*
X100622542Y-116360149D02*
X100551114Y-116431577D01*
X100551114Y-116431577D02*
X100622542Y-116503006D01*
X100622542Y-116503006D02*
X100693971Y-116431577D01*
X100693971Y-116431577D02*
X100551114Y-116431577D01*
X100193971Y-117003006D02*
X99193971Y-117360149D01*
X99193971Y-117360149D02*
X100193971Y-117717292D01*
X99265400Y-118860149D02*
X99193971Y-118717292D01*
X99193971Y-118717292D02*
X99193971Y-118431578D01*
X99193971Y-118431578D02*
X99265400Y-118288720D01*
X99265400Y-118288720D02*
X99408257Y-118217292D01*
X99408257Y-118217292D02*
X99979685Y-118217292D01*
X99979685Y-118217292D02*
X100122542Y-118288720D01*
X100122542Y-118288720D02*
X100193971Y-118431578D01*
X100193971Y-118431578D02*
X100193971Y-118717292D01*
X100193971Y-118717292D02*
X100122542Y-118860149D01*
X100122542Y-118860149D02*
X99979685Y-118931578D01*
X99979685Y-118931578D02*
X99836828Y-118931578D01*
X99836828Y-118931578D02*
X99693971Y-118217292D01*
X99193971Y-119574434D02*
X100193971Y-119574434D01*
X99908257Y-119574434D02*
X100051114Y-119645863D01*
X100051114Y-119645863D02*
X100122542Y-119717292D01*
X100122542Y-119717292D02*
X100193971Y-119860149D01*
X100193971Y-119860149D02*
X100193971Y-120003006D01*
X100693971Y-121431577D02*
X99193971Y-121931577D01*
X99193971Y-121931577D02*
X100693971Y-122431577D01*
X99193971Y-123717291D02*
X99193971Y-122860148D01*
X99193971Y-123288719D02*
X100693971Y-123288719D01*
X100693971Y-123288719D02*
X100479685Y-123145862D01*
X100479685Y-123145862D02*
X100336828Y-123003005D01*
X100336828Y-123003005D02*
X100265400Y-122860148D01*
X99336828Y-124360147D02*
X99265400Y-124431576D01*
X99265400Y-124431576D02*
X99193971Y-124360147D01*
X99193971Y-124360147D02*
X99265400Y-124288719D01*
X99265400Y-124288719D02*
X99336828Y-124360147D01*
X99336828Y-124360147D02*
X99193971Y-124360147D01*
X100693971Y-125360148D02*
X100693971Y-125503005D01*
X100693971Y-125503005D02*
X100622542Y-125645862D01*
X100622542Y-125645862D02*
X100551114Y-125717291D01*
X100551114Y-125717291D02*
X100408257Y-125788719D01*
X100408257Y-125788719D02*
X100122542Y-125860148D01*
X100122542Y-125860148D02*
X99765400Y-125860148D01*
X99765400Y-125860148D02*
X99479685Y-125788719D01*
X99479685Y-125788719D02*
X99336828Y-125717291D01*
X99336828Y-125717291D02*
X99265400Y-125645862D01*
X99265400Y-125645862D02*
X99193971Y-125503005D01*
X99193971Y-125503005D02*
X99193971Y-125360148D01*
X99193971Y-125360148D02*
X99265400Y-125217291D01*
X99265400Y-125217291D02*
X99336828Y-125145862D01*
X99336828Y-125145862D02*
X99479685Y-125074433D01*
X99479685Y-125074433D02*
X99765400Y-125003005D01*
X99765400Y-125003005D02*
X100122542Y-125003005D01*
X100122542Y-125003005D02*
X100408257Y-125074433D01*
X100408257Y-125074433D02*
X100551114Y-125145862D01*
X100551114Y-125145862D02*
X100622542Y-125217291D01*
X100622542Y-125217291D02*
X100693971Y-125360148D01*
X75853006Y-69776028D02*
X75138720Y-69776028D01*
X75138720Y-69776028D02*
X75067292Y-70490314D01*
X75067292Y-70490314D02*
X75138720Y-70418885D01*
X75138720Y-70418885D02*
X75281578Y-70347457D01*
X75281578Y-70347457D02*
X75638720Y-70347457D01*
X75638720Y-70347457D02*
X75781578Y-70418885D01*
X75781578Y-70418885D02*
X75853006Y-70490314D01*
X75853006Y-70490314D02*
X75924435Y-70633171D01*
X75924435Y-70633171D02*
X75924435Y-70990314D01*
X75924435Y-70990314D02*
X75853006Y-71133171D01*
X75853006Y-71133171D02*
X75781578Y-71204600D01*
X75781578Y-71204600D02*
X75638720Y-71276028D01*
X75638720Y-71276028D02*
X75281578Y-71276028D01*
X75281578Y-71276028D02*
X75138720Y-71204600D01*
X75138720Y-71204600D02*
X75067292Y-71133171D01*
X76353006Y-69776028D02*
X76853006Y-71276028D01*
X76853006Y-71276028D02*
X77353006Y-69776028D01*
X78432780Y-130969673D02*
X79432780Y-130969673D01*
X79432780Y-130969673D02*
X78432780Y-131541101D01*
X78432780Y-131541101D02*
X79432780Y-131541101D01*
X78432780Y-132588720D02*
X78908971Y-132255387D01*
X78432780Y-132017292D02*
X79432780Y-132017292D01*
X79432780Y-132017292D02*
X79432780Y-132398244D01*
X79432780Y-132398244D02*
X79385161Y-132493482D01*
X79385161Y-132493482D02*
X79337542Y-132541101D01*
X79337542Y-132541101D02*
X79242304Y-132588720D01*
X79242304Y-132588720D02*
X79099447Y-132588720D01*
X79099447Y-132588720D02*
X79004209Y-132541101D01*
X79004209Y-132541101D02*
X78956590Y-132493482D01*
X78956590Y-132493482D02*
X78908971Y-132398244D01*
X78908971Y-132398244D02*
X78908971Y-132017292D01*
X78480400Y-132969673D02*
X78432780Y-133112530D01*
X78432780Y-133112530D02*
X78432780Y-133350625D01*
X78432780Y-133350625D02*
X78480400Y-133445863D01*
X78480400Y-133445863D02*
X78528019Y-133493482D01*
X78528019Y-133493482D02*
X78623257Y-133541101D01*
X78623257Y-133541101D02*
X78718495Y-133541101D01*
X78718495Y-133541101D02*
X78813733Y-133493482D01*
X78813733Y-133493482D02*
X78861352Y-133445863D01*
X78861352Y-133445863D02*
X78908971Y-133350625D01*
X78908971Y-133350625D02*
X78956590Y-133160149D01*
X78956590Y-133160149D02*
X79004209Y-133064911D01*
X79004209Y-133064911D02*
X79051828Y-133017292D01*
X79051828Y-133017292D02*
X79147066Y-132969673D01*
X79147066Y-132969673D02*
X79242304Y-132969673D01*
X79242304Y-132969673D02*
X79337542Y-133017292D01*
X79337542Y-133017292D02*
X79385161Y-133064911D01*
X79385161Y-133064911D02*
X79432780Y-133160149D01*
X79432780Y-133160149D02*
X79432780Y-133398244D01*
X79432780Y-133398244D02*
X79385161Y-133541101D01*
X79432780Y-133826816D02*
X79432780Y-134398244D01*
X78432780Y-134112530D02*
X79432780Y-134112530D01*
X84156590Y-59403006D02*
X84156590Y-59069673D01*
X83632780Y-59069673D02*
X84632780Y-59069673D01*
X84632780Y-59069673D02*
X84632780Y-59545863D01*
X83918495Y-59879197D02*
X83918495Y-60355387D01*
X83632780Y-59783959D02*
X84632780Y-60117292D01*
X84632780Y-60117292D02*
X83632780Y-60450625D01*
X84632780Y-60783959D02*
X83823257Y-60783959D01*
X83823257Y-60783959D02*
X83728019Y-60831578D01*
X83728019Y-60831578D02*
X83680400Y-60879197D01*
X83680400Y-60879197D02*
X83632780Y-60974435D01*
X83632780Y-60974435D02*
X83632780Y-61164911D01*
X83632780Y-61164911D02*
X83680400Y-61260149D01*
X83680400Y-61260149D02*
X83728019Y-61307768D01*
X83728019Y-61307768D02*
X83823257Y-61355387D01*
X83823257Y-61355387D02*
X84632780Y-61355387D01*
X83632780Y-62307768D02*
X83632780Y-61831578D01*
X83632780Y-61831578D02*
X84632780Y-61831578D01*
X84632780Y-62498245D02*
X84632780Y-63069673D01*
X83632780Y-62783959D02*
X84632780Y-62783959D01*
X78956590Y-112103006D02*
X78908971Y-112245863D01*
X78908971Y-112245863D02*
X78861352Y-112293482D01*
X78861352Y-112293482D02*
X78766114Y-112341101D01*
X78766114Y-112341101D02*
X78623257Y-112341101D01*
X78623257Y-112341101D02*
X78528019Y-112293482D01*
X78528019Y-112293482D02*
X78480400Y-112245863D01*
X78480400Y-112245863D02*
X78432780Y-112150625D01*
X78432780Y-112150625D02*
X78432780Y-111769673D01*
X78432780Y-111769673D02*
X79432780Y-111769673D01*
X79432780Y-111769673D02*
X79432780Y-112103006D01*
X79432780Y-112103006D02*
X79385161Y-112198244D01*
X79385161Y-112198244D02*
X79337542Y-112245863D01*
X79337542Y-112245863D02*
X79242304Y-112293482D01*
X79242304Y-112293482D02*
X79147066Y-112293482D01*
X79147066Y-112293482D02*
X79051828Y-112245863D01*
X79051828Y-112245863D02*
X79004209Y-112198244D01*
X79004209Y-112198244D02*
X78956590Y-112103006D01*
X78956590Y-112103006D02*
X78956590Y-111769673D01*
X79432780Y-112960149D02*
X79432780Y-113150625D01*
X79432780Y-113150625D02*
X79385161Y-113245863D01*
X79385161Y-113245863D02*
X79289923Y-113341101D01*
X79289923Y-113341101D02*
X79099447Y-113388720D01*
X79099447Y-113388720D02*
X78766114Y-113388720D01*
X78766114Y-113388720D02*
X78575638Y-113341101D01*
X78575638Y-113341101D02*
X78480400Y-113245863D01*
X78480400Y-113245863D02*
X78432780Y-113150625D01*
X78432780Y-113150625D02*
X78432780Y-112960149D01*
X78432780Y-112960149D02*
X78480400Y-112864911D01*
X78480400Y-112864911D02*
X78575638Y-112769673D01*
X78575638Y-112769673D02*
X78766114Y-112722054D01*
X78766114Y-112722054D02*
X79099447Y-112722054D01*
X79099447Y-112722054D02*
X79289923Y-112769673D01*
X79289923Y-112769673D02*
X79385161Y-112864911D01*
X79385161Y-112864911D02*
X79432780Y-112960149D01*
X79432780Y-114007768D02*
X79432780Y-114198244D01*
X79432780Y-114198244D02*
X79385161Y-114293482D01*
X79385161Y-114293482D02*
X79289923Y-114388720D01*
X79289923Y-114388720D02*
X79099447Y-114436339D01*
X79099447Y-114436339D02*
X78766114Y-114436339D01*
X78766114Y-114436339D02*
X78575638Y-114388720D01*
X78575638Y-114388720D02*
X78480400Y-114293482D01*
X78480400Y-114293482D02*
X78432780Y-114198244D01*
X78432780Y-114198244D02*
X78432780Y-114007768D01*
X78432780Y-114007768D02*
X78480400Y-113912530D01*
X78480400Y-113912530D02*
X78575638Y-113817292D01*
X78575638Y-113817292D02*
X78766114Y-113769673D01*
X78766114Y-113769673D02*
X79099447Y-113769673D01*
X79099447Y-113769673D02*
X79289923Y-113817292D01*
X79289923Y-113817292D02*
X79385161Y-113912530D01*
X79385161Y-113912530D02*
X79432780Y-114007768D01*
X79432780Y-114722054D02*
X79432780Y-115293482D01*
X78432780Y-115007768D02*
X79432780Y-115007768D01*
X75880400Y-100122054D02*
X75832780Y-100264911D01*
X75832780Y-100264911D02*
X75832780Y-100503006D01*
X75832780Y-100503006D02*
X75880400Y-100598244D01*
X75880400Y-100598244D02*
X75928019Y-100645863D01*
X75928019Y-100645863D02*
X76023257Y-100693482D01*
X76023257Y-100693482D02*
X76118495Y-100693482D01*
X76118495Y-100693482D02*
X76213733Y-100645863D01*
X76213733Y-100645863D02*
X76261352Y-100598244D01*
X76261352Y-100598244D02*
X76308971Y-100503006D01*
X76308971Y-100503006D02*
X76356590Y-100312530D01*
X76356590Y-100312530D02*
X76404209Y-100217292D01*
X76404209Y-100217292D02*
X76451828Y-100169673D01*
X76451828Y-100169673D02*
X76547066Y-100122054D01*
X76547066Y-100122054D02*
X76642304Y-100122054D01*
X76642304Y-100122054D02*
X76737542Y-100169673D01*
X76737542Y-100169673D02*
X76785161Y-100217292D01*
X76785161Y-100217292D02*
X76832780Y-100312530D01*
X76832780Y-100312530D02*
X76832780Y-100550625D01*
X76832780Y-100550625D02*
X76785161Y-100693482D01*
X76356590Y-101122054D02*
X76356590Y-101455387D01*
X75832780Y-101598244D02*
X75832780Y-101122054D01*
X75832780Y-101122054D02*
X76832780Y-101122054D01*
X76832780Y-101122054D02*
X76832780Y-101598244D01*
X75832780Y-102503006D02*
X75832780Y-102026816D01*
X75832780Y-102026816D02*
X76832780Y-102026816D01*
X76832780Y-103026816D02*
X76832780Y-103122054D01*
X76832780Y-103122054D02*
X76785161Y-103217292D01*
X76785161Y-103217292D02*
X76737542Y-103264911D01*
X76737542Y-103264911D02*
X76642304Y-103312530D01*
X76642304Y-103312530D02*
X76451828Y-103360149D01*
X76451828Y-103360149D02*
X76213733Y-103360149D01*
X76213733Y-103360149D02*
X76023257Y-103312530D01*
X76023257Y-103312530D02*
X75928019Y-103264911D01*
X75928019Y-103264911D02*
X75880400Y-103217292D01*
X75880400Y-103217292D02*
X75832780Y-103122054D01*
X75832780Y-103122054D02*
X75832780Y-103026816D01*
X75832780Y-103026816D02*
X75880400Y-102931578D01*
X75880400Y-102931578D02*
X75928019Y-102883959D01*
X75928019Y-102883959D02*
X76023257Y-102836340D01*
X76023257Y-102836340D02*
X76213733Y-102788721D01*
X76213733Y-102788721D02*
X76451828Y-102788721D01*
X76451828Y-102788721D02*
X76642304Y-102836340D01*
X76642304Y-102836340D02*
X76737542Y-102883959D01*
X76737542Y-102883959D02*
X76785161Y-102931578D01*
X76785161Y-102931578D02*
X76832780Y-103026816D01*
X75703006Y-72306028D02*
X74988720Y-72306028D01*
X74988720Y-72306028D02*
X74917292Y-73020314D01*
X74917292Y-73020314D02*
X74988720Y-72948885D01*
X74988720Y-72948885D02*
X75131578Y-72877457D01*
X75131578Y-72877457D02*
X75488720Y-72877457D01*
X75488720Y-72877457D02*
X75631578Y-72948885D01*
X75631578Y-72948885D02*
X75703006Y-73020314D01*
X75703006Y-73020314D02*
X75774435Y-73163171D01*
X75774435Y-73163171D02*
X75774435Y-73520314D01*
X75774435Y-73520314D02*
X75703006Y-73663171D01*
X75703006Y-73663171D02*
X75631578Y-73734600D01*
X75631578Y-73734600D02*
X75488720Y-73806028D01*
X75488720Y-73806028D02*
X75131578Y-73806028D01*
X75131578Y-73806028D02*
X74988720Y-73734600D01*
X74988720Y-73734600D02*
X74917292Y-73663171D01*
X76203006Y-72306028D02*
X76703006Y-73806028D01*
X76703006Y-73806028D02*
X77203006Y-72306028D01*
X77345863Y-73948885D02*
X78488720Y-73948885D01*
X79345862Y-73020314D02*
X79560148Y-73091742D01*
X79560148Y-73091742D02*
X79631577Y-73163171D01*
X79631577Y-73163171D02*
X79703005Y-73306028D01*
X79703005Y-73306028D02*
X79703005Y-73520314D01*
X79703005Y-73520314D02*
X79631577Y-73663171D01*
X79631577Y-73663171D02*
X79560148Y-73734600D01*
X79560148Y-73734600D02*
X79417291Y-73806028D01*
X79417291Y-73806028D02*
X78845862Y-73806028D01*
X78845862Y-73806028D02*
X78845862Y-72306028D01*
X78845862Y-72306028D02*
X79345862Y-72306028D01*
X79345862Y-72306028D02*
X79488720Y-72377457D01*
X79488720Y-72377457D02*
X79560148Y-72448885D01*
X79560148Y-72448885D02*
X79631577Y-72591742D01*
X79631577Y-72591742D02*
X79631577Y-72734600D01*
X79631577Y-72734600D02*
X79560148Y-72877457D01*
X79560148Y-72877457D02*
X79488720Y-72948885D01*
X79488720Y-72948885D02*
X79345862Y-73020314D01*
X79345862Y-73020314D02*
X78845862Y-73020314D01*
X80345862Y-72306028D02*
X80345862Y-73520314D01*
X80345862Y-73520314D02*
X80417291Y-73663171D01*
X80417291Y-73663171D02*
X80488720Y-73734600D01*
X80488720Y-73734600D02*
X80631577Y-73806028D01*
X80631577Y-73806028D02*
X80917291Y-73806028D01*
X80917291Y-73806028D02*
X81060148Y-73734600D01*
X81060148Y-73734600D02*
X81131577Y-73663171D01*
X81131577Y-73663171D02*
X81203005Y-73520314D01*
X81203005Y-73520314D02*
X81203005Y-72306028D01*
X82774434Y-73663171D02*
X82703006Y-73734600D01*
X82703006Y-73734600D02*
X82488720Y-73806028D01*
X82488720Y-73806028D02*
X82345863Y-73806028D01*
X82345863Y-73806028D02*
X82131577Y-73734600D01*
X82131577Y-73734600D02*
X81988720Y-73591742D01*
X81988720Y-73591742D02*
X81917291Y-73448885D01*
X81917291Y-73448885D02*
X81845863Y-73163171D01*
X81845863Y-73163171D02*
X81845863Y-72948885D01*
X81845863Y-72948885D02*
X81917291Y-72663171D01*
X81917291Y-72663171D02*
X81988720Y-72520314D01*
X81988720Y-72520314D02*
X82131577Y-72377457D01*
X82131577Y-72377457D02*
X82345863Y-72306028D01*
X82345863Y-72306028D02*
X82488720Y-72306028D01*
X82488720Y-72306028D02*
X82703006Y-72377457D01*
X82703006Y-72377457D02*
X82774434Y-72448885D01*
X83417291Y-73806028D02*
X83417291Y-72306028D01*
X84274434Y-73806028D02*
X83631577Y-72948885D01*
X84274434Y-72306028D02*
X83417291Y-73163171D01*
X67180400Y-99922054D02*
X67132780Y-100064911D01*
X67132780Y-100064911D02*
X67132780Y-100303006D01*
X67132780Y-100303006D02*
X67180400Y-100398244D01*
X67180400Y-100398244D02*
X67228019Y-100445863D01*
X67228019Y-100445863D02*
X67323257Y-100493482D01*
X67323257Y-100493482D02*
X67418495Y-100493482D01*
X67418495Y-100493482D02*
X67513733Y-100445863D01*
X67513733Y-100445863D02*
X67561352Y-100398244D01*
X67561352Y-100398244D02*
X67608971Y-100303006D01*
X67608971Y-100303006D02*
X67656590Y-100112530D01*
X67656590Y-100112530D02*
X67704209Y-100017292D01*
X67704209Y-100017292D02*
X67751828Y-99969673D01*
X67751828Y-99969673D02*
X67847066Y-99922054D01*
X67847066Y-99922054D02*
X67942304Y-99922054D01*
X67942304Y-99922054D02*
X68037542Y-99969673D01*
X68037542Y-99969673D02*
X68085161Y-100017292D01*
X68085161Y-100017292D02*
X68132780Y-100112530D01*
X68132780Y-100112530D02*
X68132780Y-100350625D01*
X68132780Y-100350625D02*
X68085161Y-100493482D01*
X67656590Y-100922054D02*
X67656590Y-101255387D01*
X67132780Y-101398244D02*
X67132780Y-100922054D01*
X67132780Y-100922054D02*
X68132780Y-100922054D01*
X68132780Y-100922054D02*
X68132780Y-101398244D01*
X67132780Y-102303006D02*
X67132780Y-101826816D01*
X67132780Y-101826816D02*
X68132780Y-101826816D01*
X67132780Y-103160149D02*
X67132780Y-102588721D01*
X67132780Y-102874435D02*
X68132780Y-102874435D01*
X68132780Y-102874435D02*
X67989923Y-102779197D01*
X67989923Y-102779197D02*
X67894685Y-102683959D01*
X67894685Y-102683959D02*
X67847066Y-102588721D01*
D10*
X106583333Y-119029819D02*
X106250000Y-118553628D01*
X106011905Y-119029819D02*
X106011905Y-118029819D01*
X106011905Y-118029819D02*
X106392857Y-118029819D01*
X106392857Y-118029819D02*
X106488095Y-118077438D01*
X106488095Y-118077438D02*
X106535714Y-118125057D01*
X106535714Y-118125057D02*
X106583333Y-118220295D01*
X106583333Y-118220295D02*
X106583333Y-118363152D01*
X106583333Y-118363152D02*
X106535714Y-118458390D01*
X106535714Y-118458390D02*
X106488095Y-118506009D01*
X106488095Y-118506009D02*
X106392857Y-118553628D01*
X106392857Y-118553628D02*
X106011905Y-118553628D01*
X106916667Y-118029819D02*
X107535714Y-118029819D01*
X107535714Y-118029819D02*
X107202381Y-118410771D01*
X107202381Y-118410771D02*
X107345238Y-118410771D01*
X107345238Y-118410771D02*
X107440476Y-118458390D01*
X107440476Y-118458390D02*
X107488095Y-118506009D01*
X107488095Y-118506009D02*
X107535714Y-118601247D01*
X107535714Y-118601247D02*
X107535714Y-118839342D01*
X107535714Y-118839342D02*
X107488095Y-118934580D01*
X107488095Y-118934580D02*
X107440476Y-118982200D01*
X107440476Y-118982200D02*
X107345238Y-119029819D01*
X107345238Y-119029819D02*
X107059524Y-119029819D01*
X107059524Y-119029819D02*
X106964286Y-118982200D01*
X106964286Y-118982200D02*
X106916667Y-118934580D01*
X128777142Y-127624819D02*
X128443809Y-127148628D01*
X128205714Y-127624819D02*
X128205714Y-126624819D01*
X128205714Y-126624819D02*
X128586666Y-126624819D01*
X128586666Y-126624819D02*
X128681904Y-126672438D01*
X128681904Y-126672438D02*
X128729523Y-126720057D01*
X128729523Y-126720057D02*
X128777142Y-126815295D01*
X128777142Y-126815295D02*
X128777142Y-126958152D01*
X128777142Y-126958152D02*
X128729523Y-127053390D01*
X128729523Y-127053390D02*
X128681904Y-127101009D01*
X128681904Y-127101009D02*
X128586666Y-127148628D01*
X128586666Y-127148628D02*
X128205714Y-127148628D01*
X129110476Y-126624819D02*
X129729523Y-126624819D01*
X129729523Y-126624819D02*
X129396190Y-127005771D01*
X129396190Y-127005771D02*
X129539047Y-127005771D01*
X129539047Y-127005771D02*
X129634285Y-127053390D01*
X129634285Y-127053390D02*
X129681904Y-127101009D01*
X129681904Y-127101009D02*
X129729523Y-127196247D01*
X129729523Y-127196247D02*
X129729523Y-127434342D01*
X129729523Y-127434342D02*
X129681904Y-127529580D01*
X129681904Y-127529580D02*
X129634285Y-127577200D01*
X129634285Y-127577200D02*
X129539047Y-127624819D01*
X129539047Y-127624819D02*
X129253333Y-127624819D01*
X129253333Y-127624819D02*
X129158095Y-127577200D01*
X129158095Y-127577200D02*
X129110476Y-127529580D01*
X130062857Y-126624819D02*
X130729523Y-126624819D01*
X130729523Y-126624819D02*
X130300952Y-127624819D01*
X128814286Y-136259200D02*
X128957143Y-136306819D01*
X128957143Y-136306819D02*
X129195238Y-136306819D01*
X129195238Y-136306819D02*
X129290476Y-136259200D01*
X129290476Y-136259200D02*
X129338095Y-136211580D01*
X129338095Y-136211580D02*
X129385714Y-136116342D01*
X129385714Y-136116342D02*
X129385714Y-136021104D01*
X129385714Y-136021104D02*
X129338095Y-135925866D01*
X129338095Y-135925866D02*
X129290476Y-135878247D01*
X129290476Y-135878247D02*
X129195238Y-135830628D01*
X129195238Y-135830628D02*
X129004762Y-135783009D01*
X129004762Y-135783009D02*
X128909524Y-135735390D01*
X128909524Y-135735390D02*
X128861905Y-135687771D01*
X128861905Y-135687771D02*
X128814286Y-135592533D01*
X128814286Y-135592533D02*
X128814286Y-135497295D01*
X128814286Y-135497295D02*
X128861905Y-135402057D01*
X128861905Y-135402057D02*
X128909524Y-135354438D01*
X128909524Y-135354438D02*
X129004762Y-135306819D01*
X129004762Y-135306819D02*
X129242857Y-135306819D01*
X129242857Y-135306819D02*
X129385714Y-135354438D01*
X130385714Y-136211580D02*
X130338095Y-136259200D01*
X130338095Y-136259200D02*
X130195238Y-136306819D01*
X130195238Y-136306819D02*
X130100000Y-136306819D01*
X130100000Y-136306819D02*
X129957143Y-136259200D01*
X129957143Y-136259200D02*
X129861905Y-136163961D01*
X129861905Y-136163961D02*
X129814286Y-136068723D01*
X129814286Y-136068723D02*
X129766667Y-135878247D01*
X129766667Y-135878247D02*
X129766667Y-135735390D01*
X129766667Y-135735390D02*
X129814286Y-135544914D01*
X129814286Y-135544914D02*
X129861905Y-135449676D01*
X129861905Y-135449676D02*
X129957143Y-135354438D01*
X129957143Y-135354438D02*
X130100000Y-135306819D01*
X130100000Y-135306819D02*
X130195238Y-135306819D01*
X130195238Y-135306819D02*
X130338095Y-135354438D01*
X130338095Y-135354438D02*
X130385714Y-135402057D01*
X131338571Y-121332438D02*
X131243333Y-121284819D01*
X131243333Y-121284819D02*
X131100476Y-121284819D01*
X131100476Y-121284819D02*
X130957619Y-121332438D01*
X130957619Y-121332438D02*
X130862381Y-121427676D01*
X130862381Y-121427676D02*
X130814762Y-121522914D01*
X130814762Y-121522914D02*
X130767143Y-121713390D01*
X130767143Y-121713390D02*
X130767143Y-121856247D01*
X130767143Y-121856247D02*
X130814762Y-122046723D01*
X130814762Y-122046723D02*
X130862381Y-122141961D01*
X130862381Y-122141961D02*
X130957619Y-122237200D01*
X130957619Y-122237200D02*
X131100476Y-122284819D01*
X131100476Y-122284819D02*
X131195714Y-122284819D01*
X131195714Y-122284819D02*
X131338571Y-122237200D01*
X131338571Y-122237200D02*
X131386190Y-122189580D01*
X131386190Y-122189580D02*
X131386190Y-121856247D01*
X131386190Y-121856247D02*
X131195714Y-121856247D01*
X132290952Y-122284819D02*
X131814762Y-122284819D01*
X131814762Y-122284819D02*
X131814762Y-121284819D01*
X132576667Y-121999104D02*
X133052857Y-121999104D01*
X132481429Y-122284819D02*
X132814762Y-121284819D01*
X132814762Y-121284819D02*
X133148095Y-122284819D01*
X139518095Y-121382438D02*
X139422857Y-121334819D01*
X139422857Y-121334819D02*
X139280000Y-121334819D01*
X139280000Y-121334819D02*
X139137143Y-121382438D01*
X139137143Y-121382438D02*
X139041905Y-121477676D01*
X139041905Y-121477676D02*
X138994286Y-121572914D01*
X138994286Y-121572914D02*
X138946667Y-121763390D01*
X138946667Y-121763390D02*
X138946667Y-121906247D01*
X138946667Y-121906247D02*
X138994286Y-122096723D01*
X138994286Y-122096723D02*
X139041905Y-122191961D01*
X139041905Y-122191961D02*
X139137143Y-122287200D01*
X139137143Y-122287200D02*
X139280000Y-122334819D01*
X139280000Y-122334819D02*
X139375238Y-122334819D01*
X139375238Y-122334819D02*
X139518095Y-122287200D01*
X139518095Y-122287200D02*
X139565714Y-122239580D01*
X139565714Y-122239580D02*
X139565714Y-121906247D01*
X139565714Y-121906247D02*
X139375238Y-121906247D01*
X139994286Y-122334819D02*
X139994286Y-121334819D01*
X139994286Y-121811009D02*
X140565714Y-121811009D01*
X140565714Y-122334819D02*
X140565714Y-121334819D01*
X141613333Y-122239580D02*
X141565714Y-122287200D01*
X141565714Y-122287200D02*
X141422857Y-122334819D01*
X141422857Y-122334819D02*
X141327619Y-122334819D01*
X141327619Y-122334819D02*
X141184762Y-122287200D01*
X141184762Y-122287200D02*
X141089524Y-122191961D01*
X141089524Y-122191961D02*
X141041905Y-122096723D01*
X141041905Y-122096723D02*
X140994286Y-121906247D01*
X140994286Y-121906247D02*
X140994286Y-121763390D01*
X140994286Y-121763390D02*
X141041905Y-121572914D01*
X141041905Y-121572914D02*
X141089524Y-121477676D01*
X141089524Y-121477676D02*
X141184762Y-121382438D01*
X141184762Y-121382438D02*
X141327619Y-121334819D01*
X141327619Y-121334819D02*
X141422857Y-121334819D01*
X141422857Y-121334819D02*
X141565714Y-121382438D01*
X141565714Y-121382438D02*
X141613333Y-121430057D01*
X105313333Y-68184581D02*
X105265714Y-68232201D01*
X105265714Y-68232201D02*
X105122857Y-68279820D01*
X105122857Y-68279820D02*
X105027619Y-68279820D01*
X105027619Y-68279820D02*
X104884762Y-68232201D01*
X104884762Y-68232201D02*
X104789524Y-68136962D01*
X104789524Y-68136962D02*
X104741905Y-68041724D01*
X104741905Y-68041724D02*
X104694286Y-67851248D01*
X104694286Y-67851248D02*
X104694286Y-67708391D01*
X104694286Y-67708391D02*
X104741905Y-67517915D01*
X104741905Y-67517915D02*
X104789524Y-67422677D01*
X104789524Y-67422677D02*
X104884762Y-67327439D01*
X104884762Y-67327439D02*
X105027619Y-67279820D01*
X105027619Y-67279820D02*
X105122857Y-67279820D01*
X105122857Y-67279820D02*
X105265714Y-67327439D01*
X105265714Y-67327439D02*
X105313333Y-67375058D01*
X106265714Y-68279820D02*
X105694286Y-68279820D01*
X105980000Y-68279820D02*
X105980000Y-67279820D01*
X105980000Y-67279820D02*
X105884762Y-67422677D01*
X105884762Y-67422677D02*
X105789524Y-67517915D01*
X105789524Y-67517915D02*
X105694286Y-67565534D01*
X102043333Y-68344579D02*
X101995714Y-68392199D01*
X101995714Y-68392199D02*
X101852857Y-68439818D01*
X101852857Y-68439818D02*
X101757619Y-68439818D01*
X101757619Y-68439818D02*
X101614762Y-68392199D01*
X101614762Y-68392199D02*
X101519524Y-68296960D01*
X101519524Y-68296960D02*
X101471905Y-68201722D01*
X101471905Y-68201722D02*
X101424286Y-68011246D01*
X101424286Y-68011246D02*
X101424286Y-67868389D01*
X101424286Y-67868389D02*
X101471905Y-67677913D01*
X101471905Y-67677913D02*
X101519524Y-67582675D01*
X101519524Y-67582675D02*
X101614762Y-67487437D01*
X101614762Y-67487437D02*
X101757619Y-67439818D01*
X101757619Y-67439818D02*
X101852857Y-67439818D01*
X101852857Y-67439818D02*
X101995714Y-67487437D01*
X101995714Y-67487437D02*
X102043333Y-67535056D01*
X102424286Y-67535056D02*
X102471905Y-67487437D01*
X102471905Y-67487437D02*
X102567143Y-67439818D01*
X102567143Y-67439818D02*
X102805238Y-67439818D01*
X102805238Y-67439818D02*
X102900476Y-67487437D01*
X102900476Y-67487437D02*
X102948095Y-67535056D01*
X102948095Y-67535056D02*
X102995714Y-67630294D01*
X102995714Y-67630294D02*
X102995714Y-67725532D01*
X102995714Y-67725532D02*
X102948095Y-67868389D01*
X102948095Y-67868389D02*
X102376667Y-68439818D01*
X102376667Y-68439818D02*
X102995714Y-68439818D01*
X102559523Y-80704819D02*
X102083333Y-80704819D01*
X102083333Y-80704819D02*
X102035714Y-81181009D01*
X102035714Y-81181009D02*
X102083333Y-81133390D01*
X102083333Y-81133390D02*
X102178571Y-81085771D01*
X102178571Y-81085771D02*
X102416666Y-81085771D01*
X102416666Y-81085771D02*
X102511904Y-81133390D01*
X102511904Y-81133390D02*
X102559523Y-81181009D01*
X102559523Y-81181009D02*
X102607142Y-81276247D01*
X102607142Y-81276247D02*
X102607142Y-81514342D01*
X102607142Y-81514342D02*
X102559523Y-81609580D01*
X102559523Y-81609580D02*
X102511904Y-81657200D01*
X102511904Y-81657200D02*
X102416666Y-81704819D01*
X102416666Y-81704819D02*
X102178571Y-81704819D01*
X102178571Y-81704819D02*
X102083333Y-81657200D01*
X102083333Y-81657200D02*
X102035714Y-81609580D01*
X102892857Y-80704819D02*
X103226190Y-81704819D01*
X103226190Y-81704819D02*
X103559523Y-80704819D01*
D12*
X70606665Y-115263842D02*
X70788094Y-115324318D01*
X70788094Y-115324318D02*
X71090475Y-115324318D01*
X71090475Y-115324318D02*
X71211427Y-115263842D01*
X71211427Y-115263842D02*
X71271903Y-115203365D01*
X71271903Y-115203365D02*
X71332380Y-115082413D01*
X71332380Y-115082413D02*
X71332380Y-114961461D01*
X71332380Y-114961461D02*
X71271903Y-114840508D01*
X71271903Y-114840508D02*
X71211427Y-114780032D01*
X71211427Y-114780032D02*
X71090475Y-114719556D01*
X71090475Y-114719556D02*
X70848570Y-114659080D01*
X70848570Y-114659080D02*
X70727618Y-114598603D01*
X70727618Y-114598603D02*
X70667141Y-114538127D01*
X70667141Y-114538127D02*
X70606665Y-114417175D01*
X70606665Y-114417175D02*
X70606665Y-114296222D01*
X70606665Y-114296222D02*
X70667141Y-114175270D01*
X70667141Y-114175270D02*
X70727618Y-114114794D01*
X70727618Y-114114794D02*
X70848570Y-114054318D01*
X70848570Y-114054318D02*
X71150951Y-114054318D01*
X71150951Y-114054318D02*
X71332380Y-114114794D01*
X71755713Y-114054318D02*
X72058094Y-115324318D01*
X72058094Y-115324318D02*
X72299999Y-114417175D01*
X72299999Y-114417175D02*
X72541904Y-115324318D01*
X72541904Y-115324318D02*
X72844285Y-114054318D01*
X73872380Y-114054318D02*
X73630475Y-114054318D01*
X73630475Y-114054318D02*
X73509523Y-114114794D01*
X73509523Y-114114794D02*
X73449047Y-114175270D01*
X73449047Y-114175270D02*
X73328094Y-114356699D01*
X73328094Y-114356699D02*
X73267618Y-114598603D01*
X73267618Y-114598603D02*
X73267618Y-115082413D01*
X73267618Y-115082413D02*
X73328094Y-115203365D01*
X73328094Y-115203365D02*
X73388571Y-115263842D01*
X73388571Y-115263842D02*
X73509523Y-115324318D01*
X73509523Y-115324318D02*
X73751428Y-115324318D01*
X73751428Y-115324318D02*
X73872380Y-115263842D01*
X73872380Y-115263842D02*
X73932856Y-115203365D01*
X73932856Y-115203365D02*
X73993333Y-115082413D01*
X73993333Y-115082413D02*
X73993333Y-114780032D01*
X73993333Y-114780032D02*
X73932856Y-114659080D01*
X73932856Y-114659080D02*
X73872380Y-114598603D01*
X73872380Y-114598603D02*
X73751428Y-114538127D01*
X73751428Y-114538127D02*
X73509523Y-114538127D01*
X73509523Y-114538127D02*
X73388571Y-114598603D01*
X73388571Y-114598603D02*
X73328094Y-114659080D01*
X73328094Y-114659080D02*
X73267618Y-114780032D01*
D10*
X88208469Y-134204819D02*
X87732279Y-134204819D01*
X87732279Y-134204819D02*
X87684660Y-134681009D01*
X87684660Y-134681009D02*
X87732279Y-134633390D01*
X87732279Y-134633390D02*
X87827517Y-134585771D01*
X87827517Y-134585771D02*
X88065612Y-134585771D01*
X88065612Y-134585771D02*
X88160850Y-134633390D01*
X88160850Y-134633390D02*
X88208469Y-134681009D01*
X88208469Y-134681009D02*
X88256088Y-134776247D01*
X88256088Y-134776247D02*
X88256088Y-135014342D01*
X88256088Y-135014342D02*
X88208469Y-135109580D01*
X88208469Y-135109580D02*
X88160850Y-135157200D01*
X88160850Y-135157200D02*
X88065612Y-135204819D01*
X88065612Y-135204819D02*
X87827517Y-135204819D01*
X87827517Y-135204819D02*
X87732279Y-135157200D01*
X87732279Y-135157200D02*
X87684660Y-135109580D01*
X88541803Y-134204819D02*
X88875136Y-135204819D01*
X88875136Y-135204819D02*
X89208469Y-134204819D01*
X89303708Y-135300057D02*
X90065612Y-135300057D01*
X90303708Y-134204819D02*
X90303708Y-135014342D01*
X90303708Y-135014342D02*
X90351327Y-135109580D01*
X90351327Y-135109580D02*
X90398946Y-135157200D01*
X90398946Y-135157200D02*
X90494184Y-135204819D01*
X90494184Y-135204819D02*
X90684660Y-135204819D01*
X90684660Y-135204819D02*
X90779898Y-135157200D01*
X90779898Y-135157200D02*
X90827517Y-135109580D01*
X90827517Y-135109580D02*
X90875136Y-135014342D01*
X90875136Y-135014342D02*
X90875136Y-134204819D01*
X91303708Y-135157200D02*
X91446565Y-135204819D01*
X91446565Y-135204819D02*
X91684660Y-135204819D01*
X91684660Y-135204819D02*
X91779898Y-135157200D01*
X91779898Y-135157200D02*
X91827517Y-135109580D01*
X91827517Y-135109580D02*
X91875136Y-135014342D01*
X91875136Y-135014342D02*
X91875136Y-134919104D01*
X91875136Y-134919104D02*
X91827517Y-134823866D01*
X91827517Y-134823866D02*
X91779898Y-134776247D01*
X91779898Y-134776247D02*
X91684660Y-134728628D01*
X91684660Y-134728628D02*
X91494184Y-134681009D01*
X91494184Y-134681009D02*
X91398946Y-134633390D01*
X91398946Y-134633390D02*
X91351327Y-134585771D01*
X91351327Y-134585771D02*
X91303708Y-134490533D01*
X91303708Y-134490533D02*
X91303708Y-134395295D01*
X91303708Y-134395295D02*
X91351327Y-134300057D01*
X91351327Y-134300057D02*
X91398946Y-134252438D01*
X91398946Y-134252438D02*
X91494184Y-134204819D01*
X91494184Y-134204819D02*
X91732279Y-134204819D01*
X91732279Y-134204819D02*
X91875136Y-134252438D01*
X92637041Y-134681009D02*
X92779898Y-134728628D01*
X92779898Y-134728628D02*
X92827517Y-134776247D01*
X92827517Y-134776247D02*
X92875136Y-134871485D01*
X92875136Y-134871485D02*
X92875136Y-135014342D01*
X92875136Y-135014342D02*
X92827517Y-135109580D01*
X92827517Y-135109580D02*
X92779898Y-135157200D01*
X92779898Y-135157200D02*
X92684660Y-135204819D01*
X92684660Y-135204819D02*
X92303708Y-135204819D01*
X92303708Y-135204819D02*
X92303708Y-134204819D01*
X92303708Y-134204819D02*
X92637041Y-134204819D01*
X92637041Y-134204819D02*
X92732279Y-134252438D01*
X92732279Y-134252438D02*
X92779898Y-134300057D01*
X92779898Y-134300057D02*
X92827517Y-134395295D01*
X92827517Y-134395295D02*
X92827517Y-134490533D01*
X92827517Y-134490533D02*
X92779898Y-134585771D01*
X92779898Y-134585771D02*
X92732279Y-134633390D01*
X92732279Y-134633390D02*
X92637041Y-134681009D01*
X92637041Y-134681009D02*
X92303708Y-134681009D01*
X97671905Y-65524819D02*
X97671905Y-64524819D01*
X97671905Y-64524819D02*
X97910000Y-64524819D01*
X97910000Y-64524819D02*
X98052857Y-64572438D01*
X98052857Y-64572438D02*
X98148095Y-64667676D01*
X98148095Y-64667676D02*
X98195714Y-64762914D01*
X98195714Y-64762914D02*
X98243333Y-64953390D01*
X98243333Y-64953390D02*
X98243333Y-65096247D01*
X98243333Y-65096247D02*
X98195714Y-65286723D01*
X98195714Y-65286723D02*
X98148095Y-65381961D01*
X98148095Y-65381961D02*
X98052857Y-65477200D01*
X98052857Y-65477200D02*
X97910000Y-65524819D01*
X97910000Y-65524819D02*
X97671905Y-65524819D01*
X99100476Y-64858152D02*
X99100476Y-65524819D01*
X98862381Y-64477200D02*
X98624286Y-65191485D01*
X98624286Y-65191485D02*
X99243333Y-65191485D01*
X119227142Y-121542438D02*
X119131904Y-121494819D01*
X119131904Y-121494819D02*
X118989047Y-121494819D01*
X118989047Y-121494819D02*
X118846190Y-121542438D01*
X118846190Y-121542438D02*
X118750952Y-121637676D01*
X118750952Y-121637676D02*
X118703333Y-121732914D01*
X118703333Y-121732914D02*
X118655714Y-121923390D01*
X118655714Y-121923390D02*
X118655714Y-122066247D01*
X118655714Y-122066247D02*
X118703333Y-122256723D01*
X118703333Y-122256723D02*
X118750952Y-122351961D01*
X118750952Y-122351961D02*
X118846190Y-122447200D01*
X118846190Y-122447200D02*
X118989047Y-122494819D01*
X118989047Y-122494819D02*
X119084285Y-122494819D01*
X119084285Y-122494819D02*
X119227142Y-122447200D01*
X119227142Y-122447200D02*
X119274761Y-122399580D01*
X119274761Y-122399580D02*
X119274761Y-122066247D01*
X119274761Y-122066247D02*
X119084285Y-122066247D01*
X120179523Y-122494819D02*
X119703333Y-122494819D01*
X119703333Y-122494819D02*
X119703333Y-121494819D01*
X120846190Y-121971009D02*
X120989047Y-122018628D01*
X120989047Y-122018628D02*
X121036666Y-122066247D01*
X121036666Y-122066247D02*
X121084285Y-122161485D01*
X121084285Y-122161485D02*
X121084285Y-122304342D01*
X121084285Y-122304342D02*
X121036666Y-122399580D01*
X121036666Y-122399580D02*
X120989047Y-122447200D01*
X120989047Y-122447200D02*
X120893809Y-122494819D01*
X120893809Y-122494819D02*
X120512857Y-122494819D01*
X120512857Y-122494819D02*
X120512857Y-121494819D01*
X120512857Y-121494819D02*
X120846190Y-121494819D01*
X120846190Y-121494819D02*
X120941428Y-121542438D01*
X120941428Y-121542438D02*
X120989047Y-121590057D01*
X120989047Y-121590057D02*
X121036666Y-121685295D01*
X121036666Y-121685295D02*
X121036666Y-121780533D01*
X121036666Y-121780533D02*
X120989047Y-121875771D01*
X120989047Y-121875771D02*
X120941428Y-121923390D01*
X120941428Y-121923390D02*
X120846190Y-121971009D01*
X120846190Y-121971009D02*
X120512857Y-121971009D01*
X110975238Y-98724819D02*
X110975238Y-97724819D01*
X110975238Y-97724819D02*
X111356190Y-97724819D01*
X111356190Y-97724819D02*
X111451428Y-97772438D01*
X111451428Y-97772438D02*
X111499047Y-97820057D01*
X111499047Y-97820057D02*
X111546666Y-97915295D01*
X111546666Y-97915295D02*
X111546666Y-98058152D01*
X111546666Y-98058152D02*
X111499047Y-98153390D01*
X111499047Y-98153390D02*
X111451428Y-98201009D01*
X111451428Y-98201009D02*
X111356190Y-98248628D01*
X111356190Y-98248628D02*
X110975238Y-98248628D01*
X111880000Y-97724819D02*
X112118095Y-98724819D01*
X112118095Y-98724819D02*
X112308571Y-98010533D01*
X112308571Y-98010533D02*
X112499047Y-98724819D01*
X112499047Y-98724819D02*
X112737143Y-97724819D01*
X113118095Y-98724819D02*
X113118095Y-97724819D01*
X113118095Y-97724819D02*
X113451428Y-98439104D01*
X113451428Y-98439104D02*
X113784761Y-97724819D01*
X113784761Y-97724819D02*
X113784761Y-98724819D01*
X101090000Y-95774819D02*
X101090000Y-94774819D01*
X101090000Y-94774819D02*
X101328095Y-94774819D01*
X101328095Y-94774819D02*
X101470952Y-94822438D01*
X101470952Y-94822438D02*
X101566190Y-94917676D01*
X101566190Y-94917676D02*
X101613809Y-95012914D01*
X101613809Y-95012914D02*
X101661428Y-95203390D01*
X101661428Y-95203390D02*
X101661428Y-95346247D01*
X101661428Y-95346247D02*
X101613809Y-95536723D01*
X101613809Y-95536723D02*
X101566190Y-95631961D01*
X101566190Y-95631961D02*
X101470952Y-95727200D01*
X101470952Y-95727200D02*
X101328095Y-95774819D01*
X101328095Y-95774819D02*
X101090000Y-95774819D01*
X102090000Y-95774819D02*
X102090000Y-94774819D01*
X103137618Y-95774819D02*
X102804285Y-95298628D01*
X102566190Y-95774819D02*
X102566190Y-94774819D01*
X102566190Y-94774819D02*
X102947142Y-94774819D01*
X102947142Y-94774819D02*
X103042380Y-94822438D01*
X103042380Y-94822438D02*
X103089999Y-94870057D01*
X103089999Y-94870057D02*
X103137618Y-94965295D01*
X103137618Y-94965295D02*
X103137618Y-95108152D01*
X103137618Y-95108152D02*
X103089999Y-95203390D01*
X103089999Y-95203390D02*
X103042380Y-95251009D01*
X103042380Y-95251009D02*
X102947142Y-95298628D01*
X102947142Y-95298628D02*
X102566190Y-95298628D01*
D12*
X111574318Y-65742143D02*
X110304318Y-65742143D01*
X110304318Y-65742143D02*
X110304318Y-65258333D01*
X110304318Y-65258333D02*
X110364794Y-65137381D01*
X110364794Y-65137381D02*
X110425270Y-65076904D01*
X110425270Y-65076904D02*
X110546222Y-65016428D01*
X110546222Y-65016428D02*
X110727651Y-65016428D01*
X110727651Y-65016428D02*
X110848603Y-65076904D01*
X110848603Y-65076904D02*
X110909080Y-65137381D01*
X110909080Y-65137381D02*
X110969556Y-65258333D01*
X110969556Y-65258333D02*
X110969556Y-65742143D01*
X111513842Y-64532619D02*
X111574318Y-64351190D01*
X111574318Y-64351190D02*
X111574318Y-64048809D01*
X111574318Y-64048809D02*
X111513842Y-63927857D01*
X111513842Y-63927857D02*
X111453365Y-63867381D01*
X111453365Y-63867381D02*
X111332413Y-63806904D01*
X111332413Y-63806904D02*
X111211461Y-63806904D01*
X111211461Y-63806904D02*
X111090508Y-63867381D01*
X111090508Y-63867381D02*
X111030032Y-63927857D01*
X111030032Y-63927857D02*
X110969556Y-64048809D01*
X110969556Y-64048809D02*
X110909080Y-64290714D01*
X110909080Y-64290714D02*
X110848603Y-64411666D01*
X110848603Y-64411666D02*
X110788127Y-64472143D01*
X110788127Y-64472143D02*
X110667175Y-64532619D01*
X110667175Y-64532619D02*
X110546222Y-64532619D01*
X110546222Y-64532619D02*
X110425270Y-64472143D01*
X110425270Y-64472143D02*
X110364794Y-64411666D01*
X110364794Y-64411666D02*
X110304318Y-64290714D01*
X110304318Y-64290714D02*
X110304318Y-63988333D01*
X110304318Y-63988333D02*
X110364794Y-63806904D01*
X111574318Y-62597380D02*
X111574318Y-63323095D01*
X111574318Y-62960238D02*
X110304318Y-62960238D01*
X110304318Y-62960238D02*
X110485746Y-63081190D01*
X110485746Y-63081190D02*
X110606699Y-63202142D01*
X110606699Y-63202142D02*
X110667175Y-63323095D01*
X70546666Y-132943842D02*
X70728095Y-133004318D01*
X70728095Y-133004318D02*
X71030476Y-133004318D01*
X71030476Y-133004318D02*
X71151428Y-132943842D01*
X71151428Y-132943842D02*
X71211904Y-132883365D01*
X71211904Y-132883365D02*
X71272381Y-132762413D01*
X71272381Y-132762413D02*
X71272381Y-132641461D01*
X71272381Y-132641461D02*
X71211904Y-132520508D01*
X71211904Y-132520508D02*
X71151428Y-132460032D01*
X71151428Y-132460032D02*
X71030476Y-132399556D01*
X71030476Y-132399556D02*
X70788571Y-132339080D01*
X70788571Y-132339080D02*
X70667619Y-132278603D01*
X70667619Y-132278603D02*
X70607142Y-132218127D01*
X70607142Y-132218127D02*
X70546666Y-132097175D01*
X70546666Y-132097175D02*
X70546666Y-131976222D01*
X70546666Y-131976222D02*
X70607142Y-131855270D01*
X70607142Y-131855270D02*
X70667619Y-131794794D01*
X70667619Y-131794794D02*
X70788571Y-131734318D01*
X70788571Y-131734318D02*
X71090952Y-131734318D01*
X71090952Y-131734318D02*
X71272381Y-131794794D01*
X71695714Y-131734318D02*
X71998095Y-133004318D01*
X71998095Y-133004318D02*
X72240000Y-132097175D01*
X72240000Y-132097175D02*
X72481905Y-133004318D01*
X72481905Y-133004318D02*
X72784286Y-131734318D01*
X73933334Y-133004318D02*
X73207619Y-133004318D01*
X73570476Y-133004318D02*
X73570476Y-131734318D01*
X73570476Y-131734318D02*
X73449524Y-131915746D01*
X73449524Y-131915746D02*
X73328572Y-132036699D01*
X73328572Y-132036699D02*
X73207619Y-132097175D01*
D10*
X115703333Y-103699580D02*
X115655714Y-103747200D01*
X115655714Y-103747200D02*
X115512857Y-103794819D01*
X115512857Y-103794819D02*
X115417619Y-103794819D01*
X115417619Y-103794819D02*
X115274762Y-103747200D01*
X115274762Y-103747200D02*
X115179524Y-103651961D01*
X115179524Y-103651961D02*
X115131905Y-103556723D01*
X115131905Y-103556723D02*
X115084286Y-103366247D01*
X115084286Y-103366247D02*
X115084286Y-103223390D01*
X115084286Y-103223390D02*
X115131905Y-103032914D01*
X115131905Y-103032914D02*
X115179524Y-102937676D01*
X115179524Y-102937676D02*
X115274762Y-102842438D01*
X115274762Y-102842438D02*
X115417619Y-102794819D01*
X115417619Y-102794819D02*
X115512857Y-102794819D01*
X115512857Y-102794819D02*
X115655714Y-102842438D01*
X115655714Y-102842438D02*
X115703333Y-102890057D01*
X116036667Y-102794819D02*
X116655714Y-102794819D01*
X116655714Y-102794819D02*
X116322381Y-103175771D01*
X116322381Y-103175771D02*
X116465238Y-103175771D01*
X116465238Y-103175771D02*
X116560476Y-103223390D01*
X116560476Y-103223390D02*
X116608095Y-103271009D01*
X116608095Y-103271009D02*
X116655714Y-103366247D01*
X116655714Y-103366247D02*
X116655714Y-103604342D01*
X116655714Y-103604342D02*
X116608095Y-103699580D01*
X116608095Y-103699580D02*
X116560476Y-103747200D01*
X116560476Y-103747200D02*
X116465238Y-103794819D01*
X116465238Y-103794819D02*
X116179524Y-103794819D01*
X116179524Y-103794819D02*
X116084286Y-103747200D01*
X116084286Y-103747200D02*
X116036667Y-103699580D01*
X126368095Y-121412438D02*
X126272857Y-121364819D01*
X126272857Y-121364819D02*
X126130000Y-121364819D01*
X126130000Y-121364819D02*
X125987143Y-121412438D01*
X125987143Y-121412438D02*
X125891905Y-121507676D01*
X125891905Y-121507676D02*
X125844286Y-121602914D01*
X125844286Y-121602914D02*
X125796667Y-121793390D01*
X125796667Y-121793390D02*
X125796667Y-121936247D01*
X125796667Y-121936247D02*
X125844286Y-122126723D01*
X125844286Y-122126723D02*
X125891905Y-122221961D01*
X125891905Y-122221961D02*
X125987143Y-122317200D01*
X125987143Y-122317200D02*
X126130000Y-122364819D01*
X126130000Y-122364819D02*
X126225238Y-122364819D01*
X126225238Y-122364819D02*
X126368095Y-122317200D01*
X126368095Y-122317200D02*
X126415714Y-122269580D01*
X126415714Y-122269580D02*
X126415714Y-121936247D01*
X126415714Y-121936247D02*
X126225238Y-121936247D01*
X126844286Y-122364819D02*
X126844286Y-121364819D01*
X126844286Y-121841009D02*
X127415714Y-121841009D01*
X127415714Y-122364819D02*
X127415714Y-121364819D01*
X128225238Y-121841009D02*
X128368095Y-121888628D01*
X128368095Y-121888628D02*
X128415714Y-121936247D01*
X128415714Y-121936247D02*
X128463333Y-122031485D01*
X128463333Y-122031485D02*
X128463333Y-122174342D01*
X128463333Y-122174342D02*
X128415714Y-122269580D01*
X128415714Y-122269580D02*
X128368095Y-122317200D01*
X128368095Y-122317200D02*
X128272857Y-122364819D01*
X128272857Y-122364819D02*
X127891905Y-122364819D01*
X127891905Y-122364819D02*
X127891905Y-121364819D01*
X127891905Y-121364819D02*
X128225238Y-121364819D01*
X128225238Y-121364819D02*
X128320476Y-121412438D01*
X128320476Y-121412438D02*
X128368095Y-121460057D01*
X128368095Y-121460057D02*
X128415714Y-121555295D01*
X128415714Y-121555295D02*
X128415714Y-121650533D01*
X128415714Y-121650533D02*
X128368095Y-121745771D01*
X128368095Y-121745771D02*
X128320476Y-121793390D01*
X128320476Y-121793390D02*
X128225238Y-121841009D01*
X128225238Y-121841009D02*
X127891905Y-121841009D01*
X105404762Y-80704819D02*
X105976190Y-80704819D01*
X105690476Y-81704819D02*
X105690476Y-80704819D01*
X106309524Y-81704819D02*
X106309524Y-80704819D01*
X106309524Y-80704819D02*
X106690476Y-80704819D01*
X106690476Y-80704819D02*
X106785714Y-80752438D01*
X106785714Y-80752438D02*
X106833333Y-80800057D01*
X106833333Y-80800057D02*
X106880952Y-80895295D01*
X106880952Y-80895295D02*
X106880952Y-81038152D01*
X106880952Y-81038152D02*
X106833333Y-81133390D01*
X106833333Y-81133390D02*
X106785714Y-81181009D01*
X106785714Y-81181009D02*
X106690476Y-81228628D01*
X106690476Y-81228628D02*
X106309524Y-81228628D01*
X107785714Y-80704819D02*
X107309524Y-80704819D01*
X107309524Y-80704819D02*
X107261905Y-81181009D01*
X107261905Y-81181009D02*
X107309524Y-81133390D01*
X107309524Y-81133390D02*
X107404762Y-81085771D01*
X107404762Y-81085771D02*
X107642857Y-81085771D01*
X107642857Y-81085771D02*
X107738095Y-81133390D01*
X107738095Y-81133390D02*
X107785714Y-81181009D01*
X107785714Y-81181009D02*
X107833333Y-81276247D01*
X107833333Y-81276247D02*
X107833333Y-81514342D01*
X107833333Y-81514342D02*
X107785714Y-81609580D01*
X107785714Y-81609580D02*
X107738095Y-81657200D01*
X107738095Y-81657200D02*
X107642857Y-81704819D01*
X107642857Y-81704819D02*
X107404762Y-81704819D01*
X107404762Y-81704819D02*
X107309524Y-81657200D01*
X107309524Y-81657200D02*
X107261905Y-81609580D01*
X108119048Y-80704819D02*
X108452381Y-81704819D01*
X108452381Y-81704819D02*
X108785714Y-80704819D01*
X108880953Y-81800057D02*
X109642857Y-81800057D01*
X110214286Y-81181009D02*
X110357143Y-81228628D01*
X110357143Y-81228628D02*
X110404762Y-81276247D01*
X110404762Y-81276247D02*
X110452381Y-81371485D01*
X110452381Y-81371485D02*
X110452381Y-81514342D01*
X110452381Y-81514342D02*
X110404762Y-81609580D01*
X110404762Y-81609580D02*
X110357143Y-81657200D01*
X110357143Y-81657200D02*
X110261905Y-81704819D01*
X110261905Y-81704819D02*
X109880953Y-81704819D01*
X109880953Y-81704819D02*
X109880953Y-80704819D01*
X109880953Y-80704819D02*
X110214286Y-80704819D01*
X110214286Y-80704819D02*
X110309524Y-80752438D01*
X110309524Y-80752438D02*
X110357143Y-80800057D01*
X110357143Y-80800057D02*
X110404762Y-80895295D01*
X110404762Y-80895295D02*
X110404762Y-80990533D01*
X110404762Y-80990533D02*
X110357143Y-81085771D01*
X110357143Y-81085771D02*
X110309524Y-81133390D01*
X110309524Y-81133390D02*
X110214286Y-81181009D01*
X110214286Y-81181009D02*
X109880953Y-81181009D01*
X110880953Y-80704819D02*
X110880953Y-81514342D01*
X110880953Y-81514342D02*
X110928572Y-81609580D01*
X110928572Y-81609580D02*
X110976191Y-81657200D01*
X110976191Y-81657200D02*
X111071429Y-81704819D01*
X111071429Y-81704819D02*
X111261905Y-81704819D01*
X111261905Y-81704819D02*
X111357143Y-81657200D01*
X111357143Y-81657200D02*
X111404762Y-81609580D01*
X111404762Y-81609580D02*
X111452381Y-81514342D01*
X111452381Y-81514342D02*
X111452381Y-80704819D01*
X112500000Y-81609580D02*
X112452381Y-81657200D01*
X112452381Y-81657200D02*
X112309524Y-81704819D01*
X112309524Y-81704819D02*
X112214286Y-81704819D01*
X112214286Y-81704819D02*
X112071429Y-81657200D01*
X112071429Y-81657200D02*
X111976191Y-81561961D01*
X111976191Y-81561961D02*
X111928572Y-81466723D01*
X111928572Y-81466723D02*
X111880953Y-81276247D01*
X111880953Y-81276247D02*
X111880953Y-81133390D01*
X111880953Y-81133390D02*
X111928572Y-80942914D01*
X111928572Y-80942914D02*
X111976191Y-80847676D01*
X111976191Y-80847676D02*
X112071429Y-80752438D01*
X112071429Y-80752438D02*
X112214286Y-80704819D01*
X112214286Y-80704819D02*
X112309524Y-80704819D01*
X112309524Y-80704819D02*
X112452381Y-80752438D01*
X112452381Y-80752438D02*
X112500000Y-80800057D01*
X112928572Y-81704819D02*
X112928572Y-80704819D01*
X113500000Y-81704819D02*
X113071429Y-81133390D01*
X113500000Y-80704819D02*
X112928572Y-81276247D01*
X98161905Y-80552820D02*
X98780952Y-80552820D01*
X98780952Y-80552820D02*
X98447619Y-80933772D01*
X98447619Y-80933772D02*
X98590476Y-80933772D01*
X98590476Y-80933772D02*
X98685714Y-80981391D01*
X98685714Y-80981391D02*
X98733333Y-81029010D01*
X98733333Y-81029010D02*
X98780952Y-81124248D01*
X98780952Y-81124248D02*
X98780952Y-81362343D01*
X98780952Y-81362343D02*
X98733333Y-81457581D01*
X98733333Y-81457581D02*
X98685714Y-81505201D01*
X98685714Y-81505201D02*
X98590476Y-81552820D01*
X98590476Y-81552820D02*
X98304762Y-81552820D01*
X98304762Y-81552820D02*
X98209524Y-81505201D01*
X98209524Y-81505201D02*
X98161905Y-81457581D01*
X99066667Y-80552820D02*
X99400000Y-81552820D01*
X99400000Y-81552820D02*
X99733333Y-80552820D01*
X99971429Y-80552820D02*
X100590476Y-80552820D01*
X100590476Y-80552820D02*
X100257143Y-80933772D01*
X100257143Y-80933772D02*
X100400000Y-80933772D01*
X100400000Y-80933772D02*
X100495238Y-80981391D01*
X100495238Y-80981391D02*
X100542857Y-81029010D01*
X100542857Y-81029010D02*
X100590476Y-81124248D01*
X100590476Y-81124248D02*
X100590476Y-81362343D01*
X100590476Y-81362343D02*
X100542857Y-81457581D01*
X100542857Y-81457581D02*
X100495238Y-81505201D01*
X100495238Y-81505201D02*
X100400000Y-81552820D01*
X100400000Y-81552820D02*
X100114286Y-81552820D01*
X100114286Y-81552820D02*
X100019048Y-81505201D01*
X100019048Y-81505201D02*
X99971429Y-81457581D01*
X118009524Y-93542057D02*
X118057143Y-93494438D01*
X118057143Y-93494438D02*
X118152381Y-93446819D01*
X118152381Y-93446819D02*
X118390476Y-93446819D01*
X118390476Y-93446819D02*
X118485714Y-93494438D01*
X118485714Y-93494438D02*
X118533333Y-93542057D01*
X118533333Y-93542057D02*
X118580952Y-93637295D01*
X118580952Y-93637295D02*
X118580952Y-93732533D01*
X118580952Y-93732533D02*
X118533333Y-93875390D01*
X118533333Y-93875390D02*
X117961905Y-94446819D01*
X117961905Y-94446819D02*
X118580952Y-94446819D01*
X119438095Y-93780152D02*
X119438095Y-94446819D01*
X119200000Y-93399200D02*
X118961905Y-94113485D01*
X118961905Y-94113485D02*
X119580952Y-94113485D01*
X119819048Y-93446819D02*
X120152381Y-94446819D01*
X120152381Y-94446819D02*
X120485714Y-93446819D01*
D12*
X70556666Y-124113842D02*
X70738095Y-124174318D01*
X70738095Y-124174318D02*
X71040476Y-124174318D01*
X71040476Y-124174318D02*
X71161428Y-124113842D01*
X71161428Y-124113842D02*
X71221904Y-124053365D01*
X71221904Y-124053365D02*
X71282381Y-123932413D01*
X71282381Y-123932413D02*
X71282381Y-123811461D01*
X71282381Y-123811461D02*
X71221904Y-123690508D01*
X71221904Y-123690508D02*
X71161428Y-123630032D01*
X71161428Y-123630032D02*
X71040476Y-123569556D01*
X71040476Y-123569556D02*
X70798571Y-123509080D01*
X70798571Y-123509080D02*
X70677619Y-123448603D01*
X70677619Y-123448603D02*
X70617142Y-123388127D01*
X70617142Y-123388127D02*
X70556666Y-123267175D01*
X70556666Y-123267175D02*
X70556666Y-123146222D01*
X70556666Y-123146222D02*
X70617142Y-123025270D01*
X70617142Y-123025270D02*
X70677619Y-122964794D01*
X70677619Y-122964794D02*
X70798571Y-122904318D01*
X70798571Y-122904318D02*
X71100952Y-122904318D01*
X71100952Y-122904318D02*
X71282381Y-122964794D01*
X71705714Y-122904318D02*
X72008095Y-124174318D01*
X72008095Y-124174318D02*
X72250000Y-123267175D01*
X72250000Y-123267175D02*
X72491905Y-124174318D01*
X72491905Y-124174318D02*
X72794286Y-122904318D01*
X73882857Y-122904318D02*
X73278095Y-122904318D01*
X73278095Y-122904318D02*
X73217619Y-123509080D01*
X73217619Y-123509080D02*
X73278095Y-123448603D01*
X73278095Y-123448603D02*
X73399048Y-123388127D01*
X73399048Y-123388127D02*
X73701429Y-123388127D01*
X73701429Y-123388127D02*
X73822381Y-123448603D01*
X73822381Y-123448603D02*
X73882857Y-123509080D01*
X73882857Y-123509080D02*
X73943334Y-123630032D01*
X73943334Y-123630032D02*
X73943334Y-123932413D01*
X73943334Y-123932413D02*
X73882857Y-124053365D01*
X73882857Y-124053365D02*
X73822381Y-124113842D01*
X73822381Y-124113842D02*
X73701429Y-124174318D01*
X73701429Y-124174318D02*
X73399048Y-124174318D01*
X73399048Y-124174318D02*
X73278095Y-124113842D01*
X73278095Y-124113842D02*
X73217619Y-124053365D01*
X121774318Y-107139762D02*
X120504318Y-107139762D01*
X121653365Y-105809285D02*
X121713842Y-105869761D01*
X121713842Y-105869761D02*
X121774318Y-106051190D01*
X121774318Y-106051190D02*
X121774318Y-106172142D01*
X121774318Y-106172142D02*
X121713842Y-106353571D01*
X121713842Y-106353571D02*
X121592889Y-106474523D01*
X121592889Y-106474523D02*
X121471937Y-106535000D01*
X121471937Y-106535000D02*
X121230032Y-106595476D01*
X121230032Y-106595476D02*
X121048603Y-106595476D01*
X121048603Y-106595476D02*
X120806699Y-106535000D01*
X120806699Y-106535000D02*
X120685746Y-106474523D01*
X120685746Y-106474523D02*
X120564794Y-106353571D01*
X120564794Y-106353571D02*
X120504318Y-106172142D01*
X120504318Y-106172142D02*
X120504318Y-106051190D01*
X120504318Y-106051190D02*
X120564794Y-105869761D01*
X120564794Y-105869761D02*
X120625270Y-105809285D01*
X121774318Y-104599761D02*
X121774318Y-105325476D01*
X121774318Y-104962619D02*
X120504318Y-104962619D01*
X120504318Y-104962619D02*
X120685746Y-105083571D01*
X120685746Y-105083571D02*
X120806699Y-105204523D01*
X120806699Y-105204523D02*
X120867175Y-105325476D01*
D10*
X116300476Y-88101009D02*
X116443333Y-88148628D01*
X116443333Y-88148628D02*
X116490952Y-88196247D01*
X116490952Y-88196247D02*
X116538571Y-88291485D01*
X116538571Y-88291485D02*
X116538571Y-88434342D01*
X116538571Y-88434342D02*
X116490952Y-88529580D01*
X116490952Y-88529580D02*
X116443333Y-88577200D01*
X116443333Y-88577200D02*
X116348095Y-88624819D01*
X116348095Y-88624819D02*
X115967143Y-88624819D01*
X115967143Y-88624819D02*
X115967143Y-87624819D01*
X115967143Y-87624819D02*
X116300476Y-87624819D01*
X116300476Y-87624819D02*
X116395714Y-87672438D01*
X116395714Y-87672438D02*
X116443333Y-87720057D01*
X116443333Y-87720057D02*
X116490952Y-87815295D01*
X116490952Y-87815295D02*
X116490952Y-87910533D01*
X116490952Y-87910533D02*
X116443333Y-88005771D01*
X116443333Y-88005771D02*
X116395714Y-88053390D01*
X116395714Y-88053390D02*
X116300476Y-88101009D01*
X116300476Y-88101009D02*
X115967143Y-88101009D01*
X117538571Y-88624819D02*
X117205238Y-88148628D01*
X116967143Y-88624819D02*
X116967143Y-87624819D01*
X116967143Y-87624819D02*
X117348095Y-87624819D01*
X117348095Y-87624819D02*
X117443333Y-87672438D01*
X117443333Y-87672438D02*
X117490952Y-87720057D01*
X117490952Y-87720057D02*
X117538571Y-87815295D01*
X117538571Y-87815295D02*
X117538571Y-87958152D01*
X117538571Y-87958152D02*
X117490952Y-88053390D01*
X117490952Y-88053390D02*
X117443333Y-88101009D01*
X117443333Y-88101009D02*
X117348095Y-88148628D01*
X117348095Y-88148628D02*
X116967143Y-88148628D01*
X117919524Y-88339104D02*
X118395714Y-88339104D01*
X117824286Y-88624819D02*
X118157619Y-87624819D01*
X118157619Y-87624819D02*
X118490952Y-88624819D01*
X118824286Y-88624819D02*
X118824286Y-87624819D01*
X119395714Y-88624819D02*
X118967143Y-88053390D01*
X119395714Y-87624819D02*
X118824286Y-88196247D01*
X119824286Y-88101009D02*
X120157619Y-88101009D01*
X120300476Y-88624819D02*
X119824286Y-88624819D01*
X119824286Y-88624819D02*
X119824286Y-87624819D01*
X119824286Y-87624819D02*
X120300476Y-87624819D01*
X84681905Y-127874819D02*
X84681905Y-126874819D01*
X84681905Y-126874819D02*
X84920000Y-126874819D01*
X84920000Y-126874819D02*
X85062857Y-126922438D01*
X85062857Y-126922438D02*
X85158095Y-127017676D01*
X85158095Y-127017676D02*
X85205714Y-127112914D01*
X85205714Y-127112914D02*
X85253333Y-127303390D01*
X85253333Y-127303390D02*
X85253333Y-127446247D01*
X85253333Y-127446247D02*
X85205714Y-127636723D01*
X85205714Y-127636723D02*
X85158095Y-127731961D01*
X85158095Y-127731961D02*
X85062857Y-127827200D01*
X85062857Y-127827200D02*
X84920000Y-127874819D01*
X84920000Y-127874819D02*
X84681905Y-127874819D01*
X85586667Y-126874819D02*
X86205714Y-126874819D01*
X86205714Y-126874819D02*
X85872381Y-127255771D01*
X85872381Y-127255771D02*
X86015238Y-127255771D01*
X86015238Y-127255771D02*
X86110476Y-127303390D01*
X86110476Y-127303390D02*
X86158095Y-127351009D01*
X86158095Y-127351009D02*
X86205714Y-127446247D01*
X86205714Y-127446247D02*
X86205714Y-127684342D01*
X86205714Y-127684342D02*
X86158095Y-127779580D01*
X86158095Y-127779580D02*
X86110476Y-127827200D01*
X86110476Y-127827200D02*
X86015238Y-127874819D01*
X86015238Y-127874819D02*
X85729524Y-127874819D01*
X85729524Y-127874819D02*
X85634286Y-127827200D01*
X85634286Y-127827200D02*
X85586667Y-127779580D01*
D12*
X70146666Y-100783842D02*
X70328095Y-100844318D01*
X70328095Y-100844318D02*
X70630476Y-100844318D01*
X70630476Y-100844318D02*
X70751428Y-100783842D01*
X70751428Y-100783842D02*
X70811904Y-100723365D01*
X70811904Y-100723365D02*
X70872381Y-100602413D01*
X70872381Y-100602413D02*
X70872381Y-100481461D01*
X70872381Y-100481461D02*
X70811904Y-100360508D01*
X70811904Y-100360508D02*
X70751428Y-100300032D01*
X70751428Y-100300032D02*
X70630476Y-100239556D01*
X70630476Y-100239556D02*
X70388571Y-100179080D01*
X70388571Y-100179080D02*
X70267619Y-100118603D01*
X70267619Y-100118603D02*
X70207142Y-100058127D01*
X70207142Y-100058127D02*
X70146666Y-99937175D01*
X70146666Y-99937175D02*
X70146666Y-99816222D01*
X70146666Y-99816222D02*
X70207142Y-99695270D01*
X70207142Y-99695270D02*
X70267619Y-99634794D01*
X70267619Y-99634794D02*
X70388571Y-99574318D01*
X70388571Y-99574318D02*
X70690952Y-99574318D01*
X70690952Y-99574318D02*
X70872381Y-99634794D01*
X71295714Y-99574318D02*
X71598095Y-100844318D01*
X71598095Y-100844318D02*
X71840000Y-99937175D01*
X71840000Y-99937175D02*
X72081905Y-100844318D01*
X72081905Y-100844318D02*
X72384286Y-99574318D01*
X72747143Y-99574318D02*
X73533334Y-99574318D01*
X73533334Y-99574318D02*
X73110000Y-100058127D01*
X73110000Y-100058127D02*
X73291429Y-100058127D01*
X73291429Y-100058127D02*
X73412381Y-100118603D01*
X73412381Y-100118603D02*
X73472857Y-100179080D01*
X73472857Y-100179080D02*
X73533334Y-100300032D01*
X73533334Y-100300032D02*
X73533334Y-100602413D01*
X73533334Y-100602413D02*
X73472857Y-100723365D01*
X73472857Y-100723365D02*
X73412381Y-100783842D01*
X73412381Y-100783842D02*
X73291429Y-100844318D01*
X73291429Y-100844318D02*
X72928572Y-100844318D01*
X72928572Y-100844318D02*
X72807619Y-100783842D01*
X72807619Y-100783842D02*
X72747143Y-100723365D01*
D10*
X94584719Y-118040978D02*
X95394242Y-118040978D01*
X95394242Y-118040978D02*
X95489480Y-117993359D01*
X95489480Y-117993359D02*
X95537100Y-117945740D01*
X95537100Y-117945740D02*
X95584719Y-117850502D01*
X95584719Y-117850502D02*
X95584719Y-117660026D01*
X95584719Y-117660026D02*
X95537100Y-117564788D01*
X95537100Y-117564788D02*
X95489480Y-117517169D01*
X95489480Y-117517169D02*
X95394242Y-117469550D01*
X95394242Y-117469550D02*
X94584719Y-117469550D01*
X94918052Y-116564788D02*
X95584719Y-116564788D01*
X94537100Y-116802883D02*
X95251385Y-117040978D01*
X95251385Y-117040978D02*
X95251385Y-116421931D01*
X103785714Y-134607200D02*
X103928571Y-134654819D01*
X103928571Y-134654819D02*
X104166666Y-134654819D01*
X104166666Y-134654819D02*
X104261904Y-134607200D01*
X104261904Y-134607200D02*
X104309523Y-134559580D01*
X104309523Y-134559580D02*
X104357142Y-134464342D01*
X104357142Y-134464342D02*
X104357142Y-134369104D01*
X104357142Y-134369104D02*
X104309523Y-134273866D01*
X104309523Y-134273866D02*
X104261904Y-134226247D01*
X104261904Y-134226247D02*
X104166666Y-134178628D01*
X104166666Y-134178628D02*
X103976190Y-134131009D01*
X103976190Y-134131009D02*
X103880952Y-134083390D01*
X103880952Y-134083390D02*
X103833333Y-134035771D01*
X103833333Y-134035771D02*
X103785714Y-133940533D01*
X103785714Y-133940533D02*
X103785714Y-133845295D01*
X103785714Y-133845295D02*
X103833333Y-133750057D01*
X103833333Y-133750057D02*
X103880952Y-133702438D01*
X103880952Y-133702438D02*
X103976190Y-133654819D01*
X103976190Y-133654819D02*
X104214285Y-133654819D01*
X104214285Y-133654819D02*
X104357142Y-133702438D01*
X104738095Y-134369104D02*
X105214285Y-134369104D01*
X104642857Y-134654819D02*
X104976190Y-133654819D01*
X104976190Y-133654819D02*
X105309523Y-134654819D01*
X120093334Y-100199580D02*
X120045715Y-100247200D01*
X120045715Y-100247200D02*
X119902858Y-100294819D01*
X119902858Y-100294819D02*
X119807620Y-100294819D01*
X119807620Y-100294819D02*
X119664763Y-100247200D01*
X119664763Y-100247200D02*
X119569525Y-100151961D01*
X119569525Y-100151961D02*
X119521906Y-100056723D01*
X119521906Y-100056723D02*
X119474287Y-99866247D01*
X119474287Y-99866247D02*
X119474287Y-99723390D01*
X119474287Y-99723390D02*
X119521906Y-99532914D01*
X119521906Y-99532914D02*
X119569525Y-99437676D01*
X119569525Y-99437676D02*
X119664763Y-99342438D01*
X119664763Y-99342438D02*
X119807620Y-99294819D01*
X119807620Y-99294819D02*
X119902858Y-99294819D01*
X119902858Y-99294819D02*
X120045715Y-99342438D01*
X120045715Y-99342438D02*
X120093334Y-99390057D01*
X120950477Y-99294819D02*
X120760001Y-99294819D01*
X120760001Y-99294819D02*
X120664763Y-99342438D01*
X120664763Y-99342438D02*
X120617144Y-99390057D01*
X120617144Y-99390057D02*
X120521906Y-99532914D01*
X120521906Y-99532914D02*
X120474287Y-99723390D01*
X120474287Y-99723390D02*
X120474287Y-100104342D01*
X120474287Y-100104342D02*
X120521906Y-100199580D01*
X120521906Y-100199580D02*
X120569525Y-100247200D01*
X120569525Y-100247200D02*
X120664763Y-100294819D01*
X120664763Y-100294819D02*
X120855239Y-100294819D01*
X120855239Y-100294819D02*
X120950477Y-100247200D01*
X120950477Y-100247200D02*
X120998096Y-100199580D01*
X120998096Y-100199580D02*
X121045715Y-100104342D01*
X121045715Y-100104342D02*
X121045715Y-99866247D01*
X121045715Y-99866247D02*
X120998096Y-99771009D01*
X120998096Y-99771009D02*
X120950477Y-99723390D01*
X120950477Y-99723390D02*
X120855239Y-99675771D01*
X120855239Y-99675771D02*
X120664763Y-99675771D01*
X120664763Y-99675771D02*
X120569525Y-99723390D01*
X120569525Y-99723390D02*
X120521906Y-99771009D01*
X120521906Y-99771009D02*
X120474287Y-99866247D01*
D12*
X131123571Y-84293365D02*
X131063095Y-84353842D01*
X131063095Y-84353842D02*
X130881666Y-84414318D01*
X130881666Y-84414318D02*
X130760714Y-84414318D01*
X130760714Y-84414318D02*
X130579285Y-84353842D01*
X130579285Y-84353842D02*
X130458333Y-84232889D01*
X130458333Y-84232889D02*
X130397856Y-84111937D01*
X130397856Y-84111937D02*
X130337380Y-83870032D01*
X130337380Y-83870032D02*
X130337380Y-83688603D01*
X130337380Y-83688603D02*
X130397856Y-83446699D01*
X130397856Y-83446699D02*
X130458333Y-83325746D01*
X130458333Y-83325746D02*
X130579285Y-83204794D01*
X130579285Y-83204794D02*
X130760714Y-83144318D01*
X130760714Y-83144318D02*
X130881666Y-83144318D01*
X130881666Y-83144318D02*
X131063095Y-83204794D01*
X131063095Y-83204794D02*
X131123571Y-83265270D01*
X132333095Y-84414318D02*
X131607380Y-84414318D01*
X131970237Y-84414318D02*
X131970237Y-83144318D01*
X131970237Y-83144318D02*
X131849285Y-83325746D01*
X131849285Y-83325746D02*
X131728333Y-83446699D01*
X131728333Y-83446699D02*
X131607380Y-83507175D01*
X133119285Y-83144318D02*
X133240238Y-83144318D01*
X133240238Y-83144318D02*
X133361190Y-83204794D01*
X133361190Y-83204794D02*
X133421666Y-83265270D01*
X133421666Y-83265270D02*
X133482142Y-83386222D01*
X133482142Y-83386222D02*
X133542619Y-83628127D01*
X133542619Y-83628127D02*
X133542619Y-83930508D01*
X133542619Y-83930508D02*
X133482142Y-84172413D01*
X133482142Y-84172413D02*
X133421666Y-84293365D01*
X133421666Y-84293365D02*
X133361190Y-84353842D01*
X133361190Y-84353842D02*
X133240238Y-84414318D01*
X133240238Y-84414318D02*
X133119285Y-84414318D01*
X133119285Y-84414318D02*
X132998333Y-84353842D01*
X132998333Y-84353842D02*
X132937857Y-84293365D01*
X132937857Y-84293365D02*
X132877380Y-84172413D01*
X132877380Y-84172413D02*
X132816904Y-83930508D01*
X132816904Y-83930508D02*
X132816904Y-83628127D01*
X132816904Y-83628127D02*
X132877380Y-83386222D01*
X132877380Y-83386222D02*
X132937857Y-83265270D01*
X132937857Y-83265270D02*
X132998333Y-83204794D01*
X132998333Y-83204794D02*
X133119285Y-83144318D01*
D10*
X122253333Y-102519580D02*
X122205714Y-102567200D01*
X122205714Y-102567200D02*
X122062857Y-102614819D01*
X122062857Y-102614819D02*
X121967619Y-102614819D01*
X121967619Y-102614819D02*
X121824762Y-102567200D01*
X121824762Y-102567200D02*
X121729524Y-102471961D01*
X121729524Y-102471961D02*
X121681905Y-102376723D01*
X121681905Y-102376723D02*
X121634286Y-102186247D01*
X121634286Y-102186247D02*
X121634286Y-102043390D01*
X121634286Y-102043390D02*
X121681905Y-101852914D01*
X121681905Y-101852914D02*
X121729524Y-101757676D01*
X121729524Y-101757676D02*
X121824762Y-101662438D01*
X121824762Y-101662438D02*
X121967619Y-101614819D01*
X121967619Y-101614819D02*
X122062857Y-101614819D01*
X122062857Y-101614819D02*
X122205714Y-101662438D01*
X122205714Y-101662438D02*
X122253333Y-101710057D01*
X122586667Y-101614819D02*
X123253333Y-101614819D01*
X123253333Y-101614819D02*
X122824762Y-102614819D01*
X104227142Y-127554819D02*
X103893809Y-127078628D01*
X103655714Y-127554819D02*
X103655714Y-126554819D01*
X103655714Y-126554819D02*
X104036666Y-126554819D01*
X104036666Y-126554819D02*
X104131904Y-126602438D01*
X104131904Y-126602438D02*
X104179523Y-126650057D01*
X104179523Y-126650057D02*
X104227142Y-126745295D01*
X104227142Y-126745295D02*
X104227142Y-126888152D01*
X104227142Y-126888152D02*
X104179523Y-126983390D01*
X104179523Y-126983390D02*
X104131904Y-127031009D01*
X104131904Y-127031009D02*
X104036666Y-127078628D01*
X104036666Y-127078628D02*
X103655714Y-127078628D01*
X104608095Y-126650057D02*
X104655714Y-126602438D01*
X104655714Y-126602438D02*
X104750952Y-126554819D01*
X104750952Y-126554819D02*
X104989047Y-126554819D01*
X104989047Y-126554819D02*
X105084285Y-126602438D01*
X105084285Y-126602438D02*
X105131904Y-126650057D01*
X105131904Y-126650057D02*
X105179523Y-126745295D01*
X105179523Y-126745295D02*
X105179523Y-126840533D01*
X105179523Y-126840533D02*
X105131904Y-126983390D01*
X105131904Y-126983390D02*
X104560476Y-127554819D01*
X104560476Y-127554819D02*
X105179523Y-127554819D01*
X105655714Y-127554819D02*
X105846190Y-127554819D01*
X105846190Y-127554819D02*
X105941428Y-127507200D01*
X105941428Y-127507200D02*
X105989047Y-127459580D01*
X105989047Y-127459580D02*
X106084285Y-127316723D01*
X106084285Y-127316723D02*
X106131904Y-127126247D01*
X106131904Y-127126247D02*
X106131904Y-126745295D01*
X106131904Y-126745295D02*
X106084285Y-126650057D01*
X106084285Y-126650057D02*
X106036666Y-126602438D01*
X106036666Y-126602438D02*
X105941428Y-126554819D01*
X105941428Y-126554819D02*
X105750952Y-126554819D01*
X105750952Y-126554819D02*
X105655714Y-126602438D01*
X105655714Y-126602438D02*
X105608095Y-126650057D01*
X105608095Y-126650057D02*
X105560476Y-126745295D01*
X105560476Y-126745295D02*
X105560476Y-126983390D01*
X105560476Y-126983390D02*
X105608095Y-127078628D01*
X105608095Y-127078628D02*
X105655714Y-127126247D01*
X105655714Y-127126247D02*
X105750952Y-127173866D01*
X105750952Y-127173866D02*
X105941428Y-127173866D01*
X105941428Y-127173866D02*
X106036666Y-127126247D01*
X106036666Y-127126247D02*
X106084285Y-127078628D01*
X106084285Y-127078628D02*
X106131904Y-126983390D01*
X117114286Y-134459200D02*
X117257143Y-134506819D01*
X117257143Y-134506819D02*
X117495238Y-134506819D01*
X117495238Y-134506819D02*
X117590476Y-134459200D01*
X117590476Y-134459200D02*
X117638095Y-134411580D01*
X117638095Y-134411580D02*
X117685714Y-134316342D01*
X117685714Y-134316342D02*
X117685714Y-134221104D01*
X117685714Y-134221104D02*
X117638095Y-134125866D01*
X117638095Y-134125866D02*
X117590476Y-134078247D01*
X117590476Y-134078247D02*
X117495238Y-134030628D01*
X117495238Y-134030628D02*
X117304762Y-133983009D01*
X117304762Y-133983009D02*
X117209524Y-133935390D01*
X117209524Y-133935390D02*
X117161905Y-133887771D01*
X117161905Y-133887771D02*
X117114286Y-133792533D01*
X117114286Y-133792533D02*
X117114286Y-133697295D01*
X117114286Y-133697295D02*
X117161905Y-133602057D01*
X117161905Y-133602057D02*
X117209524Y-133554438D01*
X117209524Y-133554438D02*
X117304762Y-133506819D01*
X117304762Y-133506819D02*
X117542857Y-133506819D01*
X117542857Y-133506819D02*
X117685714Y-133554438D01*
X118447619Y-133983009D02*
X118590476Y-134030628D01*
X118590476Y-134030628D02*
X118638095Y-134078247D01*
X118638095Y-134078247D02*
X118685714Y-134173485D01*
X118685714Y-134173485D02*
X118685714Y-134316342D01*
X118685714Y-134316342D02*
X118638095Y-134411580D01*
X118638095Y-134411580D02*
X118590476Y-134459200D01*
X118590476Y-134459200D02*
X118495238Y-134506819D01*
X118495238Y-134506819D02*
X118114286Y-134506819D01*
X118114286Y-134506819D02*
X118114286Y-133506819D01*
X118114286Y-133506819D02*
X118447619Y-133506819D01*
X118447619Y-133506819D02*
X118542857Y-133554438D01*
X118542857Y-133554438D02*
X118590476Y-133602057D01*
X118590476Y-133602057D02*
X118638095Y-133697295D01*
X118638095Y-133697295D02*
X118638095Y-133792533D01*
X118638095Y-133792533D02*
X118590476Y-133887771D01*
X118590476Y-133887771D02*
X118542857Y-133935390D01*
X118542857Y-133935390D02*
X118447619Y-133983009D01*
X118447619Y-133983009D02*
X118114286Y-133983009D01*
X116657142Y-127654819D02*
X116323809Y-127178628D01*
X116085714Y-127654819D02*
X116085714Y-126654819D01*
X116085714Y-126654819D02*
X116466666Y-126654819D01*
X116466666Y-126654819D02*
X116561904Y-126702438D01*
X116561904Y-126702438D02*
X116609523Y-126750057D01*
X116609523Y-126750057D02*
X116657142Y-126845295D01*
X116657142Y-126845295D02*
X116657142Y-126988152D01*
X116657142Y-126988152D02*
X116609523Y-127083390D01*
X116609523Y-127083390D02*
X116561904Y-127131009D01*
X116561904Y-127131009D02*
X116466666Y-127178628D01*
X116466666Y-127178628D02*
X116085714Y-127178628D01*
X116990476Y-126654819D02*
X117609523Y-126654819D01*
X117609523Y-126654819D02*
X117276190Y-127035771D01*
X117276190Y-127035771D02*
X117419047Y-127035771D01*
X117419047Y-127035771D02*
X117514285Y-127083390D01*
X117514285Y-127083390D02*
X117561904Y-127131009D01*
X117561904Y-127131009D02*
X117609523Y-127226247D01*
X117609523Y-127226247D02*
X117609523Y-127464342D01*
X117609523Y-127464342D02*
X117561904Y-127559580D01*
X117561904Y-127559580D02*
X117514285Y-127607200D01*
X117514285Y-127607200D02*
X117419047Y-127654819D01*
X117419047Y-127654819D02*
X117133333Y-127654819D01*
X117133333Y-127654819D02*
X117038095Y-127607200D01*
X117038095Y-127607200D02*
X116990476Y-127559580D01*
X117942857Y-126654819D02*
X118561904Y-126654819D01*
X118561904Y-126654819D02*
X118228571Y-127035771D01*
X118228571Y-127035771D02*
X118371428Y-127035771D01*
X118371428Y-127035771D02*
X118466666Y-127083390D01*
X118466666Y-127083390D02*
X118514285Y-127131009D01*
X118514285Y-127131009D02*
X118561904Y-127226247D01*
X118561904Y-127226247D02*
X118561904Y-127464342D01*
X118561904Y-127464342D02*
X118514285Y-127559580D01*
X118514285Y-127559580D02*
X118466666Y-127607200D01*
X118466666Y-127607200D02*
X118371428Y-127654819D01*
X118371428Y-127654819D02*
X118085714Y-127654819D01*
X118085714Y-127654819D02*
X117990476Y-127607200D01*
X117990476Y-127607200D02*
X117942857Y-127559580D01*
X109111904Y-75854819D02*
X109111904Y-74854819D01*
X109111904Y-74854819D02*
X109349999Y-74854819D01*
X109349999Y-74854819D02*
X109492856Y-74902438D01*
X109492856Y-74902438D02*
X109588094Y-74997676D01*
X109588094Y-74997676D02*
X109635713Y-75092914D01*
X109635713Y-75092914D02*
X109683332Y-75283390D01*
X109683332Y-75283390D02*
X109683332Y-75426247D01*
X109683332Y-75426247D02*
X109635713Y-75616723D01*
X109635713Y-75616723D02*
X109588094Y-75711961D01*
X109588094Y-75711961D02*
X109492856Y-75807200D01*
X109492856Y-75807200D02*
X109349999Y-75854819D01*
X109349999Y-75854819D02*
X109111904Y-75854819D01*
X110064285Y-74950057D02*
X110111904Y-74902438D01*
X110111904Y-74902438D02*
X110207142Y-74854819D01*
X110207142Y-74854819D02*
X110445237Y-74854819D01*
X110445237Y-74854819D02*
X110540475Y-74902438D01*
X110540475Y-74902438D02*
X110588094Y-74950057D01*
X110588094Y-74950057D02*
X110635713Y-75045295D01*
X110635713Y-75045295D02*
X110635713Y-75140533D01*
X110635713Y-75140533D02*
X110588094Y-75283390D01*
X110588094Y-75283390D02*
X110016666Y-75854819D01*
X110016666Y-75854819D02*
X110635713Y-75854819D01*
X124466666Y-52154819D02*
X124466666Y-52869104D01*
X124466666Y-52869104D02*
X124419047Y-53011961D01*
X124419047Y-53011961D02*
X124323809Y-53107200D01*
X124323809Y-53107200D02*
X124180952Y-53154819D01*
X124180952Y-53154819D02*
X124085714Y-53154819D01*
X125466666Y-53154819D02*
X124895238Y-53154819D01*
X125180952Y-53154819D02*
X125180952Y-52154819D01*
X125180952Y-52154819D02*
X125085714Y-52297676D01*
X125085714Y-52297676D02*
X124990476Y-52392914D01*
X124990476Y-52392914D02*
X124895238Y-52440533D01*
X130128571Y-72814700D02*
X131271429Y-72814700D01*
X130700000Y-73386128D02*
X130700000Y-72243271D01*
X117828571Y-72814700D02*
X118971429Y-72814700D01*
D13*
%TO.C,R3*%
X108500000Y-112475000D02*
X108500000Y-114275000D01*
X106550000Y-116725000D02*
X106950000Y-116725000D01*
X106550000Y-110025000D02*
X106950000Y-110025000D01*
X105000000Y-114275000D02*
X105000000Y-112475000D01*
%TO.C,R37*%
X130824999Y-127856237D02*
X130824999Y-126408763D01*
X128114999Y-127856237D02*
X128114999Y-126408763D01*
%TO.C,SQJ746ELP3*%
X135951891Y-129630000D02*
X135711891Y-129300000D01*
X136191890Y-129300000D01*
X135951891Y-129630000D01*
G36*
X135951891Y-129630000D02*
G01*
X135711891Y-129300000D01*
X136191890Y-129300000D01*
X135951891Y-129630000D01*
G37*
X136609999Y-130260000D02*
X136609999Y-136150000D01*
X131469999Y-130260000D02*
X131469999Y-136150000D01*
%TO.C,R38*%
X132726357Y-129175000D02*
X133033639Y-129175000D01*
X132726357Y-128415000D02*
X133033639Y-128415000D01*
%TO.C,SC*%
X130300000Y-137300000D02*
G75*
G02*
X128900000Y-137300000I-700000J0D01*
G01*
X128900000Y-137300000D02*
G75*
G02*
X130300000Y-137300000I700000J0D01*
G01*
%TO.C,GLA*%
X132650000Y-124050000D02*
G75*
G02*
X131250000Y-124050000I-700000J0D01*
G01*
X131250000Y-124050000D02*
G75*
G02*
X132650000Y-124050000I700000J0D01*
G01*
%TO.C,R36*%
X136861237Y-124655000D02*
X135413763Y-124655000D01*
X136861237Y-121945000D02*
X135413763Y-121945000D01*
%TO.C,R35*%
X136643641Y-129090000D02*
X136336359Y-129090000D01*
X136643641Y-128330000D02*
X136336359Y-128330000D01*
%TO.C,GHC*%
X140950000Y-123850000D02*
G75*
G02*
X139550000Y-123850000I-700000J0D01*
G01*
X139550000Y-123850000D02*
G75*
G02*
X140950000Y-123850000I700000J0D01*
G01*
%TO.C,C1*%
X103940000Y-67188748D02*
X103940000Y-68611252D01*
X106660000Y-67188748D02*
X106660000Y-68611252D01*
%TO.C,C2*%
X103360000Y-67188748D02*
X103360000Y-68611252D01*
X100640000Y-67188748D02*
X100640000Y-68611252D01*
%TO.C,5V*%
X103400000Y-79450000D02*
G75*
G02*
X102000000Y-79450000I-700000J0D01*
G01*
X102000000Y-79450000D02*
G75*
G02*
X103400000Y-79450000I700000J0D01*
G01*
%TO.C,C5*%
X101890000Y-75634419D02*
X101890000Y-75915581D01*
X102910000Y-75634419D02*
X102910000Y-75915581D01*
%TO.C,R2*%
X81430000Y-65486360D02*
X81430000Y-65793642D01*
X82190000Y-65486360D02*
X82190000Y-65793642D01*
D14*
%TO.C,SW6*%
X68974999Y-115750000D02*
X68974999Y-113750000D01*
X75174999Y-111650000D02*
X68974999Y-111650000D01*
X75174999Y-115750000D02*
X75174999Y-113750000D01*
X75174999Y-117850000D02*
X68974999Y-117850000D01*
D11*
X77174999Y-116850000D02*
X77174999Y-116850000D01*
X77174999Y-117050000D02*
X77174999Y-117050000D01*
X77174999Y-116850000D02*
G75*
G02*
X77174999Y-117050000I0J-100000D01*
G01*
X77174999Y-117050000D02*
G75*
G02*
X77174999Y-116850000I0J100000D01*
G01*
D13*
%TO.C,R31*%
X124503640Y-128260000D02*
X124196358Y-128260000D01*
X124503640Y-129020000D02*
X124196358Y-129020000D01*
%TO.C,5V_USB*%
X90979898Y-132871574D02*
G75*
G02*
X89579898Y-132871574I-700000J0D01*
G01*
X89579898Y-132871574D02*
G75*
G02*
X90979898Y-132871574I700000J0D01*
G01*
%TO.C,D4*%
X96750000Y-68509999D02*
X96750000Y-62999999D01*
X96750000Y-68509999D02*
X100050000Y-68509999D01*
X100050000Y-68509999D02*
X100050000Y-62999999D01*
%TO.C,GLB*%
X120600000Y-124100000D02*
G75*
G02*
X119200000Y-124100000I-700000J0D01*
G01*
X119200000Y-124100000D02*
G75*
G02*
X120600000Y-124100000I700000J0D01*
G01*
%TO.C,R14*%
X70320000Y-108356358D02*
X70320000Y-108663640D01*
X71080000Y-108356358D02*
X71080000Y-108663640D01*
%TO.C,R4*%
X106053641Y-59980000D02*
X105746359Y-59980000D01*
X106053641Y-59220000D02*
X105746359Y-59220000D01*
%TO.C,PWM*%
X112950000Y-96150000D02*
G75*
G02*
X111550000Y-96150000I-700000J0D01*
G01*
X111550000Y-96150000D02*
G75*
G02*
X112950000Y-96150000I700000J0D01*
G01*
%TO.C,R9*%
X84936258Y-133991575D02*
X85243540Y-133991575D01*
X84936258Y-134751575D02*
X85243540Y-134751575D01*
%TO.C,D9*%
X68917499Y-67355000D02*
X68917499Y-68825000D01*
X68917499Y-68825000D02*
X71202499Y-68825000D01*
X71202499Y-67355000D02*
X68917499Y-67355000D01*
%TO.C,SQJ746ELP1*%
X106969999Y-130160000D02*
X106969999Y-136050000D01*
X112109999Y-130160000D02*
X112109999Y-136050000D01*
X111451891Y-129530000D02*
X111211891Y-129200000D01*
X111691890Y-129200000D01*
X111451891Y-129530000D01*
G36*
X111451891Y-129530000D02*
G01*
X111211891Y-129200000D01*
X111691890Y-129200000D01*
X111451891Y-129530000D01*
G37*
%TO.C,DIR*%
X102400000Y-92900000D02*
G75*
G02*
X101000000Y-92900000I-700000J0D01*
G01*
X101000000Y-92900000D02*
G75*
G02*
X102400000Y-92900000I700000J0D01*
G01*
%TO.C,TP9*%
X115350000Y-124050000D02*
G75*
G02*
X113950000Y-124050000I-700000J0D01*
G01*
X113950000Y-124050000D02*
G75*
G02*
X115350000Y-124050000I700000J0D01*
G01*
D14*
%TO.C,PS1*%
X107400000Y-59550000D02*
X107400000Y-59550000D01*
X107500000Y-59550000D02*
X107500000Y-59550000D01*
D11*
X108000000Y-64200000D02*
X108000000Y-67200000D01*
X111800000Y-69199999D02*
X110000000Y-69200000D01*
X112800000Y-59200000D02*
X109200000Y-59200000D01*
X114000000Y-64200000D02*
X114000000Y-67000000D01*
D14*
X107400000Y-59550000D02*
G75*
G02*
X107500000Y-59550000I50000J0D01*
G01*
X107500000Y-59550000D02*
G75*
G02*
X107400000Y-59550000I-50000J0D01*
G01*
%TO.C,SW1*%
X68915000Y-133430000D02*
X68915000Y-131430000D01*
X75115000Y-129330000D02*
X68915000Y-129330000D01*
X75115000Y-133430000D02*
X75115000Y-131430000D01*
X75115000Y-135530000D02*
X68915000Y-135530000D01*
D11*
X77115000Y-134530000D02*
X77115000Y-134530000D01*
X77115000Y-134730000D02*
X77115000Y-134730000D01*
X77115000Y-134530000D02*
G75*
G02*
X77115000Y-134730000I0J-100000D01*
G01*
X77115000Y-134730000D02*
G75*
G02*
X77115000Y-134530000I0J100000D01*
G01*
D13*
%TO.C,J4*%
X68554999Y-80985000D02*
X68619999Y-80985000D01*
X68554999Y-84515000D02*
X68554999Y-80985000D01*
X68554999Y-84515000D02*
X68619999Y-84515000D01*
X68620000Y-85840000D02*
X68619999Y-84515000D01*
X77500001Y-80985000D02*
X77565001Y-80985000D01*
X77500001Y-84515000D02*
X77565001Y-84515000D01*
X77565001Y-84515000D02*
X77565001Y-80985000D01*
%TO.C,C3*%
X115762164Y-104140000D02*
X115977836Y-104140000D01*
X115762164Y-104860000D02*
X115977836Y-104860000D01*
%TO.C,R23*%
X101233642Y-82320000D02*
X100926360Y-82320000D01*
X101233642Y-83080000D02*
X100926360Y-83080000D01*
%TO.C,R18*%
X79670000Y-125936360D02*
X79670000Y-126243642D01*
X80430000Y-125936360D02*
X80430000Y-126243642D01*
%TO.C,J3*%
X110340000Y-147000000D02*
X113150000Y-147000000D01*
X110340000Y-147810000D02*
X133420000Y-147810000D01*
X110340001Y-138990000D02*
X110340000Y-147810000D01*
X111250000Y-140700000D02*
X112260000Y-140700000D01*
X111250000Y-146000000D02*
X111250000Y-140700000D01*
X113260000Y-146000000D02*
X115259999Y-146000000D01*
X113260000Y-147810000D02*
X113260000Y-146000000D01*
X115259999Y-146000000D02*
X115260000Y-147810000D01*
X115260000Y-147810000D02*
X113260000Y-147810000D01*
X119880000Y-140700000D02*
X116260000Y-140700000D01*
X120880000Y-147000000D02*
X115260000Y-147000000D01*
X120880000Y-147810000D02*
X120880001Y-146000000D01*
X120880001Y-146000000D02*
X122880000Y-146000000D01*
X122880000Y-146000000D02*
X122880000Y-147810000D01*
X122880000Y-147810000D02*
X120880000Y-147810000D01*
X127500000Y-140700001D02*
X123880000Y-140700000D01*
X128500000Y-146000000D02*
X130500000Y-146000000D01*
X128500000Y-147000000D02*
X122880000Y-147000000D01*
X128500000Y-147810000D02*
X128500000Y-146000000D01*
X129200000Y-148610000D02*
X129500000Y-148010000D01*
X129500000Y-148010000D02*
X129800000Y-148610000D01*
X129800000Y-148610000D02*
X129200000Y-148610000D01*
X130500000Y-146000000D02*
X130500000Y-147810000D01*
X130500000Y-147810000D02*
X128500000Y-147810000D01*
X131500000Y-140700001D02*
X132509999Y-140700000D01*
X132509999Y-140700000D02*
X132509999Y-146000000D01*
X132509999Y-146000000D02*
X111250000Y-146000000D01*
X133420000Y-138990000D02*
X110340001Y-138990000D01*
X133420000Y-147000000D02*
X130610000Y-147000000D01*
X133420000Y-147810000D02*
X133420000Y-138990000D01*
X112273158Y-140684179D02*
G75*
G02*
X116260000Y-140700000I1986842J-1665821D01*
G01*
X119893158Y-140684179D02*
G75*
G02*
X123880000Y-140700000I1986842J-1665821D01*
G01*
X127513158Y-140684178D02*
G75*
G02*
X131500000Y-140700001I1986841J-1665822D01*
G01*
%TO.C,J6*%
X88459900Y-124786573D02*
X88459900Y-125686572D01*
X88459900Y-124786573D02*
X89259900Y-124786573D01*
X88459900Y-128826573D02*
X88459900Y-127926574D01*
X88459900Y-128826573D02*
X89259900Y-128826573D01*
X96999900Y-124786573D02*
X96199900Y-124786573D01*
X96999900Y-124786573D02*
X96999900Y-125686572D01*
X96999900Y-128826573D02*
X96199900Y-128826573D01*
X96999900Y-128826573D02*
X96999900Y-127926574D01*
X97149900Y-128976573D02*
X96649900Y-128976573D01*
X97149900Y-128976573D02*
X97149900Y-128476573D01*
%TO.C,D11*%
X78584253Y-60836531D02*
X78584253Y-63121531D01*
X78584253Y-63121531D02*
X80054253Y-63121531D01*
X80054253Y-63121531D02*
X80054253Y-60836531D01*
%TO.C,R7*%
X67838638Y-75220000D02*
X67531356Y-75220000D01*
X67838638Y-75980000D02*
X67531356Y-75980000D01*
%TO.C,GHB*%
X127850000Y-123750000D02*
G75*
G02*
X126450000Y-123750000I-700000J0D01*
G01*
X126450000Y-123750000D02*
G75*
G02*
X127850000Y-123750000I700000J0D01*
G01*
%TO.C,R6*%
X106053641Y-60220000D02*
X105746359Y-60220000D01*
X106053641Y-60980000D02*
X105746359Y-60980000D01*
%TO.C,TP5V_BUCK*%
X106500000Y-79450000D02*
G75*
G02*
X105100000Y-79450000I-700000J0D01*
G01*
X105100000Y-79450000D02*
G75*
G02*
X106500000Y-79450000I700000J0D01*
G01*
%TO.C,TP11*%
X108650000Y-123950000D02*
G75*
G02*
X107250000Y-123950000I-700000J0D01*
G01*
X107250000Y-123950000D02*
G75*
G02*
X108650000Y-123950000I700000J0D01*
G01*
%TO.C,U3*%
X88126397Y-84587918D02*
X88426397Y-84587918D01*
X88126397Y-84887918D02*
X88126397Y-84587918D01*
X88126397Y-91507918D02*
X88126397Y-91807918D01*
X88126397Y-91807918D02*
X88426397Y-91807918D01*
X95346397Y-84587918D02*
X95046397Y-84587918D01*
X95346397Y-84887918D02*
X95346397Y-84587918D01*
X95346397Y-91507918D02*
X95346397Y-91807918D01*
X95346397Y-91807918D02*
X95046397Y-91807918D01*
X88426397Y-92410418D02*
X87956397Y-92750418D01*
X87956396Y-92070418D01*
X88426397Y-92410418D01*
G36*
X88426397Y-92410418D02*
G01*
X87956397Y-92750418D01*
X87956396Y-92070418D01*
X88426397Y-92410418D01*
G37*
%TO.C,R24*%
X101223642Y-83450000D02*
X100916360Y-83450000D01*
X101223642Y-84210000D02*
X100916360Y-84210000D01*
%TO.C,3V3*%
X100100000Y-79650000D02*
G75*
G02*
X98700000Y-79650000I-700000J0D01*
G01*
X98700000Y-79650000D02*
G75*
G02*
X100100000Y-79650000I700000J0D01*
G01*
%TO.C,J2*%
X80540000Y-141090000D02*
X80540000Y-147060000D01*
X80540000Y-147060000D02*
X95660000Y-147060000D01*
X80549999Y-146300000D02*
X80550000Y-147050001D01*
X80550000Y-144799999D02*
X81300000Y-144799999D01*
X80550000Y-147050001D02*
X82350000Y-147050001D01*
X81300000Y-141850000D02*
X88100000Y-141850000D01*
X81300000Y-144799999D02*
X81300000Y-141850000D01*
X82350000Y-147050001D02*
X82350001Y-146300000D01*
X82350001Y-146300000D02*
X80549999Y-146300000D01*
X83850000Y-146300000D02*
X83850000Y-147050000D01*
X83850000Y-147050000D02*
X92350000Y-147050001D01*
X92349999Y-146300000D02*
X83850000Y-146300000D01*
X92350000Y-147050001D02*
X92349999Y-146300000D01*
X93850000Y-147050001D02*
X95650000Y-147050000D01*
X93850001Y-146300000D02*
X93850000Y-147050001D01*
X94700000Y-147350000D02*
X95950000Y-147350000D01*
X94900000Y-141850000D02*
X88100000Y-141850000D01*
X94900000Y-144800000D02*
X94900000Y-141850000D01*
X95650000Y-144800000D02*
X94900000Y-144800000D01*
X95650000Y-146300000D02*
X93850001Y-146300000D01*
X95650000Y-147050000D02*
X95650000Y-146300000D01*
X95660000Y-141090000D02*
X80540000Y-141090000D01*
X95660000Y-147060000D02*
X95660000Y-141090000D01*
X95950000Y-147350000D02*
X95950000Y-146100000D01*
%TO.C,R10*%
X67843642Y-70210000D02*
X67536360Y-70210000D01*
X67843642Y-70970000D02*
X67536360Y-70970000D01*
%TO.C,C15*%
X86522165Y-93937207D02*
X86737837Y-93937207D01*
X86522165Y-94657207D02*
X86737837Y-94657207D01*
%TO.C,SQJ746ELP2*%
X119330000Y-130250000D02*
X119330000Y-136140000D01*
X124470000Y-130250000D02*
X124470000Y-136140000D01*
X123811892Y-129620000D02*
X123571892Y-129290000D01*
X124051891Y-129290000D01*
X123811892Y-129620000D01*
G36*
X123811892Y-129620000D02*
G01*
X123571892Y-129290000D01*
X124051891Y-129290000D01*
X123811892Y-129620000D01*
G37*
%TO.C,R32*%
X124486237Y-121945000D02*
X123038763Y-121945000D01*
X124486237Y-124655000D02*
X123038763Y-124655000D01*
%TO.C,D10*%
X75994254Y-60836532D02*
X75994254Y-63121532D01*
X75994254Y-63121532D02*
X77464254Y-63121532D01*
X77464254Y-63121532D02*
X77464254Y-60836532D01*
%TO.C,D6*%
X68917499Y-72355000D02*
X68917499Y-73825000D01*
X68917499Y-73825000D02*
X71202499Y-73825000D01*
X71202499Y-72355000D02*
X68917499Y-72355000D01*
%TO.C,C12*%
X91022841Y-95644689D02*
X91022841Y-95429017D01*
X91742841Y-95644689D02*
X91742841Y-95429017D01*
%TO.C,R30*%
X108106359Y-128315000D02*
X108413641Y-128315000D01*
X108106359Y-129075000D02*
X108413641Y-129075000D01*
%TO.C,D5*%
X68917499Y-74855000D02*
X68917499Y-76325000D01*
X68917499Y-76325000D02*
X71202499Y-76325000D01*
X71202499Y-74855000D02*
X68917499Y-74855000D01*
%TO.C,R34*%
X120506359Y-128415000D02*
X120813641Y-128415000D01*
X120506359Y-129175000D02*
X120813641Y-129175000D01*
%TO.C,J5*%
X86410000Y-61175000D02*
X86410000Y-59395000D01*
X93910000Y-64095000D02*
X94710000Y-64094999D01*
X95810000Y-61175000D02*
X95810000Y-59395000D01*
%TO.C,24V*%
X119900000Y-95440000D02*
G75*
G02*
X118500000Y-95440000I-700000J0D01*
G01*
X118500000Y-95440000D02*
G75*
G02*
X119900000Y-95440000I700000J0D01*
G01*
D14*
%TO.C,SW5*%
X68925000Y-124600000D02*
X68925000Y-122600000D01*
X75125000Y-120500000D02*
X68925000Y-120500000D01*
X75125000Y-124600000D02*
X75125000Y-122600000D01*
X75125000Y-126700000D02*
X68925000Y-126700000D01*
D11*
X77125000Y-125700000D02*
X77125000Y-125700000D01*
X77125000Y-125900000D02*
X77125000Y-125900000D01*
X77125000Y-125700000D02*
G75*
G02*
X77125000Y-125900000I0J-100000D01*
G01*
X77125000Y-125900000D02*
G75*
G02*
X77125000Y-125700000I0J100000D01*
G01*
%TO.C,IC1*%
X118700000Y-103400000D02*
X119300000Y-103400000D01*
X118700000Y-104000000D02*
X118700000Y-103400000D01*
X118700000Y-108400000D02*
X118700000Y-107800000D01*
X119300000Y-108400000D02*
X118700000Y-108400000D01*
D14*
X119700000Y-109200000D02*
X119700000Y-109200000D01*
X119700000Y-109300000D02*
X119700000Y-109300000D01*
D11*
X123100000Y-108400000D02*
X123700000Y-108400000D01*
X123700000Y-103400000D02*
X123100000Y-103400000D01*
X123700000Y-104000000D02*
X123700000Y-103400000D01*
X123700000Y-108400000D02*
X123700000Y-107800000D01*
D14*
X119700000Y-109200000D02*
G75*
G02*
X119700000Y-109300000I0J-50000D01*
G01*
X119700000Y-109300000D02*
G75*
G02*
X119700000Y-109200000I0J50000D01*
G01*
D13*
%TO.C,R8*%
X67838639Y-72710000D02*
X67531357Y-72710000D01*
X67838639Y-73470000D02*
X67531357Y-73470000D01*
%TO.C,BRAKE*%
X116750000Y-90250000D02*
G75*
G02*
X115350000Y-90250000I-700000J0D01*
G01*
X115350000Y-90250000D02*
G75*
G02*
X116750000Y-90250000I700000J0D01*
G01*
%TO.C,R20*%
X92736360Y-130220000D02*
X93043642Y-130220000D01*
X92736360Y-130980000D02*
X93043642Y-130980000D01*
%TO.C,R21*%
X90999899Y-122785216D02*
X90999899Y-122477934D01*
X91759899Y-122785216D02*
X91759899Y-122477934D01*
%TO.C,D3*%
X83729899Y-123861573D02*
X83729899Y-129371573D01*
X87029899Y-123861573D02*
X83729899Y-123861573D01*
X87029899Y-123861573D02*
X87029899Y-129371573D01*
D14*
%TO.C,SW3*%
X68830001Y-98020000D02*
X68830001Y-104220000D01*
X68830001Y-104220000D02*
X68840000Y-104220000D01*
X68840000Y-98020000D02*
X68830001Y-98020000D01*
X68840000Y-98020000D02*
X68840000Y-98020000D01*
X68840000Y-98020000D02*
X69590000Y-98020000D01*
X68840000Y-104220000D02*
X68840000Y-98020000D01*
X68840000Y-104220000D02*
X68840000Y-104220000D01*
X68840000Y-104220000D02*
X69590000Y-104220000D01*
X69590000Y-98020000D02*
X68840000Y-98020000D01*
X69590000Y-98020000D02*
X69590000Y-98020000D01*
X69590000Y-104220000D02*
X68840000Y-104220000D01*
X69590000Y-104220000D02*
X69590000Y-104220000D01*
D11*
X73240000Y-94120000D02*
X73240000Y-94120000D01*
X73240000Y-94120000D02*
X73240000Y-94120000D01*
X73240000Y-94220000D02*
X73240000Y-94220000D01*
D14*
X74090000Y-98020000D02*
X74090000Y-98020000D01*
X74090000Y-98020000D02*
X74840000Y-98020000D01*
X74090000Y-104220000D02*
X74090000Y-104220000D01*
X74090000Y-104220000D02*
X74840000Y-104220000D01*
X74840000Y-98020000D02*
X74090000Y-98020000D01*
X74840000Y-98020000D02*
X74840000Y-98020000D01*
X74840000Y-98020000D02*
X74849999Y-98020000D01*
X74840000Y-104220000D02*
X74090000Y-104220000D01*
X74840000Y-104220000D02*
X74840000Y-98020000D01*
X74840000Y-104220000D02*
X74840000Y-104220000D01*
X74849999Y-98020000D02*
X74849999Y-104220000D01*
X74849999Y-104220000D02*
X74840000Y-104220000D01*
D11*
X73240000Y-94120000D02*
G75*
G02*
X73240000Y-94220000I0J-50000D01*
G01*
X73240000Y-94220000D02*
G75*
G02*
X73240000Y-94120000I0J50000D01*
G01*
X73240000Y-94220000D02*
G75*
G02*
X73240000Y-94120000I0J50000D01*
G01*
D13*
%TO.C,U4*%
X91169899Y-117279074D02*
X91169900Y-116479074D01*
X91169899Y-117279074D02*
X91169900Y-118079074D01*
X94289901Y-117279074D02*
X94289900Y-116479074D01*
X94289901Y-117279074D02*
X94289900Y-118079074D01*
X94569900Y-116219074D02*
X94239900Y-115979074D01*
X94569900Y-115739074D01*
X94569900Y-116219074D01*
G36*
X94569900Y-116219074D02*
G01*
X94239900Y-115979074D01*
X94569900Y-115739074D01*
X94569900Y-116219074D01*
G37*
%TO.C,C4*%
X105465581Y-63410000D02*
X105184419Y-63410000D01*
X105465581Y-62390000D02*
X105184419Y-62390000D01*
%TO.C,D1*%
X81309254Y-61789614D02*
X81309254Y-61508452D01*
X82329254Y-61789614D02*
X82329254Y-61508452D01*
%TO.C,R19*%
X78470000Y-126243642D02*
X78470000Y-125936360D01*
X79230000Y-126243642D02*
X79230000Y-125936360D01*
%TO.C,SA*%
X105200000Y-135900000D02*
G75*
G02*
X103800000Y-135900000I-700000J0D01*
G01*
X103800000Y-135900000D02*
G75*
G02*
X105200000Y-135900000I700000J0D01*
G01*
%TO.C,R1*%
X81389253Y-58487675D02*
X81389253Y-58180393D01*
X82149253Y-58487675D02*
X82149253Y-58180393D01*
%TO.C,R22*%
X78520000Y-116336360D02*
X78520000Y-116643642D01*
X79280000Y-116336360D02*
X79280000Y-116643642D01*
%TO.C,C6*%
X120152165Y-100640000D02*
X120367837Y-100640000D01*
X120152165Y-101360000D02*
X120367837Y-101360000D01*
D11*
%TO.C,C10*%
X122565000Y-75290000D02*
X140490000Y-75290000D01*
X127665000Y-92389999D02*
X140490000Y-92390000D01*
D13*
%TO.C,R28*%
X111961237Y-121945000D02*
X110513763Y-121945000D01*
X111961237Y-124655000D02*
X110513763Y-124655000D01*
%TO.C,C16*%
X92012792Y-95429018D02*
X92012792Y-95644690D01*
X92732792Y-95429018D02*
X92732792Y-95644690D01*
%TO.C,D7*%
X83807397Y-132136575D02*
X83807397Y-133606575D01*
X83807397Y-133606575D02*
X86092397Y-133606575D01*
X86092397Y-132136575D02*
X83807397Y-132136575D01*
%TO.C,C18*%
X86475581Y-95060000D02*
X86194419Y-95060000D01*
X86475581Y-96080000D02*
X86194419Y-96080000D01*
%TO.C,R11*%
X67838639Y-67690000D02*
X67531357Y-67690000D01*
X67838639Y-68450000D02*
X67531357Y-68450000D01*
%TO.C,U1*%
X93640001Y-71190000D02*
X93640001Y-72449999D01*
X93640001Y-78010000D02*
X93640001Y-76750001D01*
X97400001Y-71189999D02*
X93640001Y-71190000D01*
X97400001Y-78010001D02*
X93640001Y-78010000D01*
X98920001Y-78240000D02*
X98440001Y-78240000D01*
X98680001Y-77910000D01*
X98920001Y-78240000D01*
G36*
X98920001Y-78240000D02*
G01*
X98440001Y-78240000D01*
X98680001Y-77910000D01*
X98920001Y-78240000D01*
G37*
%TO.C,C9*%
X113384419Y-71610000D02*
X113665581Y-71610000D01*
X113384419Y-70590000D02*
X113665581Y-70590000D01*
%TO.C,C8*%
X94915581Y-78790000D02*
X94634419Y-78790000D01*
X94915581Y-79810000D02*
X94634419Y-79810000D01*
%TO.C,C7*%
X122527836Y-100640000D02*
X122312164Y-100640000D01*
X122527836Y-101360000D02*
X122312164Y-101360000D01*
%TO.C,R5*%
X105746359Y-61220000D02*
X106053641Y-61220000D01*
X105746359Y-61980000D02*
X106053641Y-61980000D01*
%TO.C,D8*%
X68917499Y-69855000D02*
X68917499Y-71325000D01*
X68917499Y-71325000D02*
X71202499Y-71325000D01*
X71202499Y-69855000D02*
X68917499Y-69855000D01*
%TO.C,R29*%
X103514999Y-127756237D02*
X103514999Y-126308763D01*
X106224999Y-127756237D02*
X106224999Y-126308763D01*
%TO.C,SB*%
X118600000Y-135500000D02*
G75*
G02*
X117200000Y-135500000I-700000J0D01*
G01*
X117200000Y-135500000D02*
G75*
G02*
X118600000Y-135500000I700000J0D01*
G01*
%TO.C,R33*%
X115914999Y-127881237D02*
X115914999Y-126433763D01*
X118624999Y-127881237D02*
X118624999Y-126433763D01*
%TO.C,D2*%
X108250000Y-78910001D02*
X108250000Y-73400001D01*
X108250000Y-78910001D02*
X111550000Y-78910001D01*
X111550000Y-78910001D02*
X111550000Y-73400001D01*
%TO.C,C17*%
X97240000Y-84212164D02*
X97240000Y-84427836D01*
X97960000Y-84212164D02*
X97960000Y-84427836D01*
D14*
%TO.C,U2*%
X106300001Y-95400000D02*
X109800000Y-95400000D01*
X106550000Y-85400000D02*
X110050000Y-85400000D01*
D15*
X105575000Y-83900000D02*
G75*
G02*
X105025000Y-83900000I-275000J0D01*
G01*
X105025000Y-83900000D02*
G75*
G02*
X105575000Y-83900000I275000J0D01*
G01*
D13*
%TO.C,R27*%
X112173642Y-128230000D02*
X111866360Y-128230000D01*
X112173642Y-128990000D02*
X111866360Y-128990000D01*
%TO.C,R15*%
X72720000Y-108356358D02*
X72720000Y-108663640D01*
X73480000Y-108356358D02*
X73480000Y-108663640D01*
%TO.C,R25*%
X76349254Y-58492673D02*
X76349254Y-58185391D01*
X77109254Y-58492673D02*
X77109254Y-58185391D01*
%TO.C,R26*%
X78949253Y-58492673D02*
X78949253Y-58185391D01*
X79709253Y-58492673D02*
X79709253Y-58185391D01*
%TO.C,J1*%
X116940000Y-53740000D02*
X116940000Y-68050000D01*
X116940000Y-53740000D02*
X132660000Y-53740000D01*
X123510000Y-72160000D02*
X127250000Y-72160000D01*
X132660000Y-53740000D02*
X132660000Y-68050000D01*
X118933194Y-71572958D02*
G75*
G02*
X116940000Y-68050000I2116805J3522957D01*
G01*
X132660000Y-68050000D02*
G75*
G02*
X129751648Y-71980413I-4110000J0D01*
G01*
%TO.C,C14*%
X80890000Y-125972165D02*
X80890000Y-126187837D01*
X81610000Y-125972165D02*
X81610000Y-126187837D01*
%TD*%
M02*
