%TF.GenerationSoftware,KiCad,Pcbnew,9.0.0*%
%TF.CreationDate,2025-03-24T22:57:22+01:00*%
%TF.ProjectId,Motor_driver,4d6f746f-725f-4647-9269-7665722e6b69,rev?*%
%TF.SameCoordinates,Original*%
%TF.FileFunction,Soldermask,Bot*%
%TF.FilePolarity,Negative*%
%FSLAX46Y46*%
G04 Gerber Fmt 4.6, Leading zero omitted, Abs format (unit mm)*
G04 Created by KiCad (PCBNEW 9.0.0) date 2025-03-24 22:57:22*
%MOMM*%
%LPD*%
G01*
G04 APERTURE LIST*
G04 Aperture macros list*
%AMRoundRect*
0 Rectangle with rounded corners*
0 $1 Rounding radius*
0 $2 $3 $4 $5 $6 $7 $8 $9 X,Y pos of 4 corners*
0 Add a 4 corners polygon primitive as box body*
4,1,4,$2,$3,$4,$5,$6,$7,$8,$9,$2,$3,0*
0 Add four circle primitives for the rounded corners*
1,1,$1+$1,$2,$3*
1,1,$1+$1,$4,$5*
1,1,$1+$1,$6,$7*
1,1,$1+$1,$8,$9*
0 Add four rect primitives between the rounded corners*
20,1,$1+$1,$2,$3,$4,$5,0*
20,1,$1+$1,$4,$5,$6,$7,0*
20,1,$1+$1,$6,$7,$8,$9,0*
20,1,$1+$1,$8,$9,$2,$3,0*%
G04 Aperture macros list end*
%ADD10RoundRect,0.250000X-0.650000X-2.450000X0.650000X-2.450000X0.650000X2.450000X-0.650000X2.450000X0*%
%ADD11C,0.800000*%
%ADD12C,6.400000*%
%ADD13RoundRect,0.250001X0.799999X1.549999X-0.799999X1.549999X-0.799999X-1.549999X0.799999X-1.549999X0*%
%ADD14O,2.100000X3.600000*%
%ADD15C,0.660000*%
%ADD16O,1.000000X0.580000*%
%ADD17C,1.100000*%
%ADD18RoundRect,0.250000X0.600000X0.725000X-0.600000X0.725000X-0.600000X-0.725000X0.600000X-0.725000X0*%
%ADD19O,1.700000X1.950000*%
%ADD20C,0.650000*%
%ADD21O,1.000000X2.100000*%
%ADD22O,1.000000X1.600000*%
%ADD23R,0.900000X2.000000*%
%ADD24RoundRect,1.025000X-1.025000X-1.025000X1.025000X-1.025000X1.025000X1.025000X-1.025000X1.025000X0*%
%ADD25C,4.100000*%
G04 APERTURE END LIST*
D10*
%TO.C,C20*%
X135300000Y-134300000D03*
X140400000Y-134300000D03*
%TD*%
%TO.C,C21*%
X115800000Y-134000000D03*
X110700000Y-134000000D03*
%TD*%
D11*
%TO.C,H3*%
X67600000Y-61000000D03*
X68302944Y-59302944D03*
X68302944Y-62697056D03*
X70000000Y-58600000D03*
D12*
X70000000Y-61000000D03*
D11*
X70000000Y-63400000D03*
X71697056Y-59302944D03*
X71697056Y-62697056D03*
X72400000Y-61000000D03*
%TD*%
D13*
%TO.C,J3*%
X129500000Y-142900000D03*
D14*
X121880000Y-142900000D03*
X114260000Y-142900000D03*
%TD*%
D15*
%TO.C,J6*%
X96479899Y-126806573D03*
D16*
X88979901Y-126806573D03*
D17*
X95129900Y-128956573D03*
X95129900Y-124656573D03*
X90329900Y-128956573D03*
X90329900Y-124656573D03*
%TD*%
D18*
%TO.C,J2*%
X93100000Y-144600000D03*
D19*
X90600000Y-144600000D03*
X88100000Y-144600000D03*
X85600000Y-144600000D03*
X83100000Y-144600000D03*
%TD*%
D20*
%TO.C,J5*%
X94000000Y-62000000D03*
X88220000Y-62000000D03*
D21*
X95430000Y-62500000D03*
D22*
X95430000Y-58320000D03*
D21*
X86790000Y-62500000D03*
D22*
X86790000Y-58320000D03*
%TD*%
D10*
%TO.C,C19*%
X123100000Y-134200000D03*
X128200000Y-134200000D03*
%TD*%
D11*
%TO.C,H4*%
X67600000Y-143302944D03*
X68302944Y-141605888D03*
X68302944Y-145000000D03*
X70000000Y-140902944D03*
D12*
X70000000Y-143302944D03*
D11*
X70000000Y-145702944D03*
X71697056Y-141605888D03*
X71697056Y-145000000D03*
X72400000Y-143302944D03*
%TD*%
%TO.C,H1*%
X137600000Y-143302944D03*
X138302944Y-141605888D03*
X138302944Y-145000000D03*
X140000000Y-140902944D03*
D12*
X140000000Y-143302944D03*
D11*
X140000000Y-145702944D03*
X141697056Y-141605888D03*
X141697056Y-145000000D03*
X142400000Y-143302944D03*
%TD*%
%TO.C,H2*%
X137600000Y-61000000D03*
X138302944Y-59302944D03*
X138302944Y-62697056D03*
X140000000Y-58600000D03*
D12*
X140000000Y-61000000D03*
D11*
X140000000Y-63400000D03*
X141697056Y-59302944D03*
X141697056Y-62697056D03*
X142400000Y-61000000D03*
%TD*%
D23*
%TO.C,J1*%
X118050000Y-64200000D03*
X131550000Y-64200000D03*
D24*
X121200000Y-70200000D03*
D25*
X128400000Y-70200000D03*
%TD*%
M02*
