M48
; DRILL file {KiCad 9.0.0} date 2025-03-24T22:57:18+0100
; FORMAT={-:-/ absolute / inch / decimal}
; #@! TF.CreationDate,2025-03-24T22:57:18+01:00
; #@! TF.GenerationSoftware,Kicad,Pcbnew,9.0.0
; #@! TF.FileFunction,Plated,1,4,PTH
FMAT,2
INCH
; #@! TA.AperFunction,Plated,PTH,ViaDrill
T1C0.0079
; #@! TA.AperFunction,Plated,PTH,ViaDrill
T2C0.0118
; #@! TA.AperFunction,Plated,PTH,ComponentDrill
T3C0.0197
; #@! TA.AperFunction,Plated,PTH,ComponentDrill
T4C0.0236
; #@! TA.AperFunction,Plated,PTH,ComponentDrill
T5C0.0276
; #@! TA.AperFunction,Plated,PTH,ComponentDrill
T6C0.0374
; #@! TA.AperFunction,Plated,PTH,ComponentDrill
T7C0.0551
; #@! TA.AperFunction,Plated,PTH,ComponentDrill
T8C0.1063
; #@! TA.AperFunction,Plated,PTH,ComponentDrill
T9C0.1260
%
G90
G05
T1
X3.6606Y-4.9343
T2
X2.5984Y-2.5472
X2.5984Y-2.626
X2.5984Y-2.7047
X2.5984Y-2.7835
X2.5984Y-2.8622
X2.5984Y-2.9409
X2.5984Y-3.0197
X2.5984Y-3.0984
X2.5984Y-3.1772
X2.5984Y-3.2559
X2.5984Y-3.3346
X2.5984Y-3.4134
X2.5984Y-3.4921
X2.5984Y-3.5709
X2.5984Y-3.6496
X2.5984Y-3.7283
X2.5984Y-3.8071
X2.5984Y-3.8858
X2.5984Y-3.9646
X2.5984Y-4.0433
X2.5984Y-4.122
X2.5984Y-4.2008
X2.5984Y-4.2795
X2.5984Y-4.3583
X2.5984Y-4.437
X2.5984Y-4.5157
X2.5984Y-4.5945
X2.5984Y-4.6732
X2.5984Y-4.752
X2.5984Y-4.8307
X2.5984Y-4.9094
X2.5984Y-4.9882
X2.5984Y-5.0669
X2.5984Y-5.1457
X2.5984Y-5.2244
X2.5984Y-5.3031
X2.5984Y-5.3819
X2.5984Y-5.4606
X2.5984Y-5.5394
X2.7205Y-3.4272
X2.7559Y-2.2441
X2.7748Y-3.461
X2.8268Y-4.2921
X2.8272Y-3.7142
X2.8287Y-4.2244
X2.8346Y-2.2441
X2.8346Y-5.7874
X2.8382Y-4.0626
X2.872Y-2.9756
X2.8728Y-2.6791
X2.8728Y-2.8776
X2.8756Y-2.7799
X2.9059Y-3.502
X2.9122Y-4.4587
X2.9134Y-2.2441
X2.9134Y-5.7874
X2.9173Y-4.587
X2.9213Y-4.0114
X2.9614Y-3.2579
X2.9689Y-3.0484
X2.9803Y-2.922
X2.9843Y-2.3504
X2.9921Y-2.2441
X2.9921Y-5.7874
X2.9941Y-4.4291
X3.0445Y-4.5457
X3.0709Y-2.2441
X3.0709Y-5.7874
X3.089Y-3.2201
X3.0945Y-3.1488
X3.1039Y-4.8843
X3.1075Y-3.3512
X3.1496Y-2.2441
X3.1496Y-5.7874
X3.1551Y-3.563
X3.1555Y-3.8051
X3.1732Y-4.0661
X3.1772Y-3.948
X3.187Y-3.7134
X3.1882Y-3.6748
X3.1906Y-3.8602
X3.1988Y-3.6138
X3.2012Y-3.4429
X3.2098Y-3.8961
X3.2134Y-4.1512
X3.2134Y-4.2579
X3.2209Y-2.6587
X3.2283Y-5.7874
X3.2283Y-2.2441
X3.2638Y-2.2776
X3.2921Y-3.1504
X3.2941Y-3.9835
X3.2972Y-2.5236
X3.2992Y-3.7835
X3.3071Y-5.7874
X3.3071Y-2.2441
X3.3319Y-3.6036
X3.3346Y-3.7047
X3.335Y-3.1169
X3.3425Y-4.9016
X3.3425Y-4.9705
X3.3614Y-5.0934
X3.3622Y-3.3921
X3.378Y-3.5492
X3.3791Y-3.6315
X3.3799Y-4.9035
X3.3819Y-4.9685
X3.3858Y-2.2441
X3.3858Y-5.7874
X3.4331Y-3.6512
X3.4567Y-3.1906
X3.4626Y-3.2469
X3.4646Y-2.2441
X3.4646Y-4.0551
X3.4646Y-4.3701
X3.4646Y-4.685
X3.4646Y-5.0787
X3.4646Y-5.7874
X3.4846Y-3.7449
X3.4925Y-2.4858
X3.5014Y-3.6811
X3.5118Y-3.7756
X3.5201Y-3.4559
X3.5233Y-3.8177
X3.5276Y-3.8961
X3.5287Y-3.8594
X3.5362Y-3.7374
X3.5433Y-2.2441
X3.5433Y-5.7874
X3.563Y-3.572
X3.563Y-4.0472
X3.5957Y-3.5752
X3.6102Y-3.8268
X3.6134Y-4.6621
X3.6142Y-4.1693
X3.6181Y-4.0315
X3.622Y-2.2441
X3.622Y-5.7874
X3.6274Y-3.6811
X3.6398Y-3.4764
X3.6409Y-5.0504
X3.6441Y-4.7567
X3.6457Y-4.2205
X3.6646Y-4.8422
X3.6781Y-3.5711
X3.6815Y-2.4858
X3.6882Y-4.6621
X3.6882Y-4.7764
X3.6937Y-2.776
X3.7008Y-2.2441
X3.7008Y-5.7874
X3.7024Y-3.5063
X3.7146Y-3.1772
X3.7283Y-2.9213
X3.7283Y-2.9764
X3.7311Y-3.7594
X3.7429Y-5.1406
X3.7559Y-3.3008
X3.7795Y-5.7874
X3.7795Y-2.2441
X3.7953Y-2.9213
X3.7953Y-2.9764
X3.8071Y-3.2303
X3.822Y-3.8602
X3.8228Y-3.126
X3.8402Y-3.5799
X3.8406Y-3.3961
X3.8583Y-5.7874
X3.8583Y-2.2441
X3.8679Y-3.4305
X3.874Y-2.4803
X3.874Y-2.6378
X3.878Y-3.5799
X3.8858Y-2.7677
X3.8976Y-5.7874
X3.9059Y-3.3035
X3.9071Y-3.2512
X3.937Y-2.2441
X3.9449Y-3.5197
X3.9764Y-5.7874
X3.9803Y-2.6142
X3.998Y-3.4606
X4.0157Y-2.2441
X4.0157Y-2.6142
X4.0228Y-4.6929
X4.0315Y-2.9016
X4.0429Y-3.2559
X4.0433Y-3.128
X4.0449Y-3.5591
X4.0512Y-2.6142
X4.0551Y-4.2126
X4.0551Y-5.7874
X4.0614Y-3.8634
X4.075Y-3.3486
X4.0945Y-2.2441
X4.1102Y-2.6142
X4.1339Y-5.7874
X4.1457Y-2.6142
X4.1732Y-2.2441
X4.1811Y-2.6142
X4.2094Y-5.0748
X4.2126Y-2.7953
X4.2126Y-5.7874
X4.2283Y-4.5157
X4.2283Y-4.5433
X4.2283Y-4.5748
X4.2283Y-4.6024
X4.252Y-2.2441
X4.2559Y-4.5157
X4.2559Y-4.5433
X4.2559Y-4.5748
X4.2559Y-4.6024
X4.261Y-3.3996
X4.2756Y-3.9961
X4.2835Y-3.5433
X4.2874Y-4.9331
X4.2874Y-4.9646
X4.2874Y-4.9961
X4.2874Y-5.0276
X4.2913Y-5.7874
X4.2913Y-2.5591
X4.2913Y-4.2126
X4.311Y-2.4843
X4.3228Y-3.7205
X4.3268Y-3.0472
X4.3268Y-4.9331
X4.3268Y-4.9646
X4.3268Y-4.9961
X4.3268Y-5.0276
X4.3268Y-5.063
X4.3307Y-2.2441
X4.3386Y-5.2126
X4.3386Y-5.2402
X4.3386Y-5.2677
X4.3386Y-5.2953
X4.3386Y-5.3228
X4.3565Y-4.6278
X4.3622Y-3.5591
X4.3685Y-4.7701
X4.3701Y-2.4075
X4.3701Y-5.7874
X4.374Y-3.6102
X4.374Y-5.2126
X4.374Y-5.2402
X4.378Y-5.2677
X4.378Y-5.2953
X4.378Y-5.3228
X4.3803Y-4.1063
X4.3937Y-2.4803
X4.4094Y-2.2441
X4.4173Y-2.4173
X4.4331Y-4.1496
X4.4488Y-5.7874
X4.4701Y-4.0177
X4.4724Y-3.6083
X4.4882Y-2.2441
X4.4969Y-4.6717
X4.5039Y-3.5394
X4.5118Y-2.4764
X4.5157Y-2.3386
X4.5276Y-5.7874
X4.5433Y-5.189
X4.5433Y-5.2165
X4.5433Y-5.2441
X4.5433Y-5.2717
X4.5433Y-5.2992
X4.5433Y-5.3268
X4.5433Y-5.3543
X4.548Y-4.5083
X4.5669Y-2.2441
X4.5748Y-5.189
X4.5748Y-5.2165
X4.5748Y-5.2441
X4.5748Y-5.2717
X4.5748Y-5.2992
X4.5748Y-5.3268
X4.5748Y-5.3543
X4.6063Y-5.7874
X4.6142Y-4.874
X4.6339Y-4.2717
X4.6457Y-2.2441
X4.6457Y-5.5906
X4.6535Y-4.0315
X4.6717Y-4.4756
X4.6827Y-4.4063
X4.685Y-5.7874
X4.6925Y-5.0823
X4.6929Y-3.7575
X4.7244Y-2.2441
X4.7307Y-4.1295
X4.7307Y-4.1689
X4.7307Y-4.2083
X4.7335Y-4.402
X4.7638Y-4.7244
X4.7638Y-5.7874
X4.7701Y-4.1295
X4.7701Y-4.1689
X4.7701Y-4.2083
X4.7717Y-4.9449
X4.7717Y-4.9764
X4.7717Y-5.0079
X4.7717Y-5.0394
X4.7748Y-4.4008
X4.7913Y-3.189
X4.7913Y-3.2677
X4.7913Y-3.3465
X4.7913Y-3.4252
X4.8012Y-3.8937
X4.8031Y-2.2441
X4.8094Y-4.1295
X4.8094Y-4.165
X4.8094Y-4.2083
X4.811Y-4.9449
X4.811Y-4.9764
X4.811Y-5.0079
X4.811Y-5.0394
X4.811Y-5.0748
X4.8268Y-5.2126
X4.8268Y-5.2402
X4.8268Y-5.2677
X4.8268Y-5.2953
X4.8268Y-5.3228
X4.8425Y-5.7874
X4.8622Y-5.2126
X4.8622Y-5.2402
X4.8661Y-5.2677
X4.8661Y-5.2953
X4.8661Y-5.3228
X4.874Y-4.2953
X4.8819Y-2.2441
X4.8819Y-3.189
X4.8819Y-3.4252
X4.8945Y-3.0449
X4.9016Y-5.0197
X4.9055Y-4.626
X4.9161Y-3.5402
X4.9213Y-4.4488
X4.9213Y-5.7874
X4.9606Y-3.189
X4.9606Y-3.4252
X4.9606Y-5.5906
X4.9606Y-2.2441
X4.9705Y-4.5866
X5.0Y-5.7874
X5.0315Y-5.2008
X5.0315Y-5.2283
X5.0315Y-5.2559
X5.0315Y-5.2835
X5.0315Y-5.311
X5.0315Y-5.3386
X5.0315Y-5.3661
X5.0394Y-2.2441
X5.0394Y-3.189
X5.0394Y-3.4252
X5.063Y-5.2008
X5.063Y-5.2283
X5.063Y-5.2559
X5.063Y-5.2835
X5.063Y-5.311
X5.063Y-5.3386
X5.063Y-5.3661
X5.0787Y-5.7874
X5.0984Y-4.8386
X5.1178Y-4.2498
X5.1181Y-2.2441
X5.1181Y-3.189
X5.1181Y-3.4252
X5.1181Y-3.7795
X5.1181Y-3.937
X5.1181Y-4.0945
X5.1339Y-4.6102
X5.1378Y-5.1575
X5.1575Y-5.7874
X5.1673Y-3.189
X5.1673Y-3.2677
X5.1673Y-3.3465
X5.1673Y-3.4252
X5.1744Y-5.0811
X5.1969Y-2.2441
X5.2362Y-5.7874
X5.248Y-4.9409
X5.248Y-4.9724
X5.248Y-5.0039
X5.248Y-5.0354
X5.2756Y-2.2441
X5.2874Y-4.9409
X5.2874Y-4.9724
X5.2874Y-5.0039
X5.2874Y-5.0354
X5.2874Y-5.0709
X5.3031Y-5.2126
X5.3031Y-5.2402
X5.3031Y-5.2677
X5.3031Y-5.2953
X5.3031Y-5.3228
X5.315Y-5.7874
X5.3386Y-5.2126
X5.3386Y-5.2402
X5.3425Y-5.2677
X5.3425Y-5.2953
X5.3425Y-5.3228
X5.3543Y-2.2441
X5.3937Y-5.7874
X5.4154Y-3.0315
X5.4205Y-3.5587
X5.4331Y-2.2441
X5.5118Y-5.2047
X5.5118Y-5.2323
X5.5118Y-5.2598
X5.5118Y-5.2874
X5.5118Y-5.315
X5.5118Y-5.3425
X5.5118Y-5.3701
X5.5433Y-5.2047
X5.5433Y-5.2323
X5.5433Y-5.2598
X5.5433Y-5.2874
X5.5433Y-5.315
X5.5433Y-5.3425
X5.5433Y-5.3701
X5.6693Y-2.5197
X5.6693Y-2.5984
X5.6693Y-2.6772
X5.6693Y-2.7559
X5.6693Y-2.8346
X5.6693Y-2.9134
X5.6693Y-2.9921
X5.6693Y-3.0709
X5.6693Y-3.1496
X5.6693Y-3.2283
X5.6693Y-3.3071
X5.6693Y-3.3858
X5.6693Y-3.4646
X5.6693Y-3.5433
X5.6693Y-3.622
X5.6693Y-3.7008
X5.6693Y-3.7795
X5.6693Y-3.8583
X5.6693Y-3.937
X5.6693Y-4.0157
X5.6693Y-4.0945
X5.6693Y-4.1732
X5.6693Y-4.252
X5.6693Y-4.3307
X5.6693Y-4.4094
X5.6693Y-4.4882
X5.6693Y-4.5669
X5.6693Y-4.6457
X5.6693Y-4.7244
X5.6693Y-4.8031
X5.6693Y-4.8819
X5.6693Y-4.9606
X5.6693Y-5.0394
X5.6693Y-5.1181
X5.6693Y-5.1969
X5.6693Y-5.2756
X5.6693Y-5.3543
X5.6693Y-5.4331
X5.6693Y-5.5118
T3
X2.6614Y-2.4016
X2.6614Y-5.6418
X2.6891Y-2.3348
X2.6891Y-2.4684
X2.6891Y-5.575
X2.6891Y-5.7087
X2.7559Y-2.3071
X2.7559Y-2.4961
X2.7559Y-5.5474
X2.7559Y-5.7363
X2.8227Y-2.3348
X2.8227Y-2.4684
X2.8227Y-5.575
X2.8227Y-5.7087
X2.8504Y-2.4016
X2.8504Y-5.6418
X5.4173Y-2.4016
X5.4173Y-5.6418
X5.445Y-2.3348
X5.445Y-2.4684
X5.445Y-5.575
X5.445Y-5.7087
X5.5118Y-2.3071
X5.5118Y-2.4961
X5.5118Y-5.5474
X5.5118Y-5.7363
X5.5786Y-2.3348
X5.5786Y-2.4684
X5.5786Y-5.575
X5.5786Y-5.7087
X5.6063Y-2.4016
X5.6063Y-5.6418
T5
X3.5563Y-4.9077
X3.5563Y-5.077
X3.7453Y-4.9077
X3.7453Y-5.077
T6
X3.2717Y-5.6929
X3.3701Y-5.6929
X3.4685Y-5.6929
X3.5669Y-5.6929
X3.6654Y-5.6929
T7
X4.4984Y-5.626
X4.7984Y-5.626
X5.0984Y-5.626
T8
X4.7717Y-2.7638
X5.0551Y-2.7638
T9
X2.7559Y-2.4016
X2.7559Y-5.6418
X5.5118Y-2.4016
X5.5118Y-5.6418
T4
G00X3.4169Y-2.3079
M15
G01X3.4169Y-2.2843
M16
G05
G00X3.4169Y-2.4823
M15
G01X3.4169Y-2.439
M16
G05
G00X3.7571Y-2.3079
M15
G01X3.7571Y-2.2843
M16
G05
G00X3.7571Y-2.4823
M15
G01X3.7571Y-2.439
M16
G05
G00X4.6476Y-2.5059
M15
G01X4.6476Y-2.5492
M16
G05
G00X5.1791Y-2.5059
M15
G01X5.1791Y-2.5492
M16
G05
M30
