%TF.GenerationSoftware,KiCad,Pcbnew,9.0.0-9.0.0-2~ubuntu22.04.1*%
%TF.CreationDate,2025-03-27T09:55:15+01:00*%
%TF.ProjectId,Motor_driver,4d6f746f-725f-4647-9269-7665722e6b69,rev?*%
%TF.SameCoordinates,Original*%
%TF.FileFunction,Soldermask,Top*%
%TF.FilePolarity,Negative*%
%FSLAX46Y46*%
G04 Gerber Fmt 4.6, Leading zero omitted, Abs format (unit mm)*
G04 Created by KiCad (PCBNEW 9.0.0-9.0.0-2~ubuntu22.04.1) date 2025-03-27 09:55:15*
%MOMM*%
%LPD*%
G01*
G04 APERTURE LIST*
G04 Aperture macros list*
%AMRoundRect*
0 Rectangle with rounded corners*
0 $1 Rounding radius*
0 $2 $3 $4 $5 $6 $7 $8 $9 X,Y pos of 4 corners*
0 Add a 4 corners polygon primitive as box body*
4,1,4,$2,$3,$4,$5,$6,$7,$8,$9,$2,$3,0*
0 Add four circle primitives for the rounded corners*
1,1,$1+$1,$2,$3*
1,1,$1+$1,$4,$5*
1,1,$1+$1,$6,$7*
1,1,$1+$1,$8,$9*
0 Add four rect primitives between the rounded corners*
20,1,$1+$1,$2,$3,$4,$5,0*
20,1,$1+$1,$4,$5,$6,$7,0*
20,1,$1+$1,$6,$7,$8,$9,0*
20,1,$1+$1,$8,$9,$2,$3,0*%
G04 Aperture macros list end*
%ADD10RoundRect,0.250000X-1.100000X0.325000X-1.100000X-0.325000X1.100000X-0.325000X1.100000X0.325000X0*%
%ADD11C,1.000000*%
%ADD12RoundRect,0.225000X-0.250000X0.225000X-0.250000X-0.225000X0.250000X-0.225000X0.250000X0.225000X0*%
%ADD13C,0.800000*%
%ADD14C,6.400000*%
%ADD15RoundRect,0.135000X-0.185000X0.135000X-0.185000X-0.135000X0.185000X-0.135000X0.185000X0.135000X0*%
%ADD16R,1.550000X1.300000*%
%ADD17RoundRect,0.135000X0.135000X0.185000X-0.135000X0.185000X-0.135000X-0.185000X0.135000X-0.185000X0*%
%ADD18RoundRect,0.250000X0.650000X-1.000000X0.650000X1.000000X-0.650000X1.000000X-0.650000X-1.000000X0*%
%ADD19RoundRect,0.135000X-0.135000X-0.185000X0.135000X-0.185000X0.135000X0.185000X-0.135000X0.185000X0*%
%ADD20RoundRect,0.218750X-0.218750X-0.256250X0.218750X-0.256250X0.218750X0.256250X-0.218750X0.256250X0*%
%ADD21R,0.610000X1.270000*%
%ADD22R,1.650000X3.810000*%
%ADD23R,0.610000X1.020000*%
%ADD24R,0.500000X0.400000*%
%ADD25R,1.500000X1.500000*%
%ADD26R,0.740000X2.400000*%
%ADD27RoundRect,0.140000X-0.140000X-0.170000X0.140000X-0.170000X0.140000X0.170000X-0.140000X0.170000X0*%
%ADD28RoundRect,0.250001X0.799999X1.549999X-0.799999X1.549999X-0.799999X-1.549999X0.799999X-1.549999X0*%
%ADD29O,2.100000X3.600000*%
%ADD30C,0.660000*%
%ADD31O,1.000000X0.580000*%
%ADD32R,0.300000X0.850000*%
%ADD33C,1.100000*%
%ADD34RoundRect,0.218750X0.256250X-0.218750X0.256250X0.218750X-0.256250X0.218750X-0.256250X-0.218750X0*%
%ADD35RoundRect,0.125000X0.125000X-0.625000X0.125000X0.625000X-0.125000X0.625000X-0.125000X-0.625000X0*%
%ADD36RoundRect,0.125000X0.625000X-0.125000X0.625000X0.125000X-0.625000X0.125000X-0.625000X-0.125000X0*%
%ADD37RoundRect,0.250000X0.600000X0.725000X-0.600000X0.725000X-0.600000X-0.725000X0.600000X-0.725000X0*%
%ADD38O,1.700000X1.950000*%
%ADD39RoundRect,0.250000X0.312500X1.075000X-0.312500X1.075000X-0.312500X-1.075000X0.312500X-1.075000X0*%
%ADD40R,1.900000X3.250000*%
%ADD41RoundRect,0.140000X0.170000X-0.140000X0.170000X0.140000X-0.170000X0.140000X-0.170000X-0.140000X0*%
%ADD42RoundRect,0.250000X1.075000X-0.312500X1.075000X0.312500X-1.075000X0.312500X-1.075000X-0.312500X0*%
%ADD43C,0.650000*%
%ADD44RoundRect,0.150000X0.150000X0.500000X-0.150000X0.500000X-0.150000X-0.500000X0.150000X-0.500000X0*%
%ADD45RoundRect,0.075000X0.075000X0.575000X-0.075000X0.575000X-0.075000X-0.575000X0.075000X-0.575000X0*%
%ADD46O,1.000000X2.100000*%
%ADD47O,1.000000X1.600000*%
%ADD48R,0.300000X1.150000*%
%ADD49R,1.150000X0.300000*%
%ADD50R,3.150000X3.150000*%
%ADD51RoundRect,0.135000X0.185000X-0.135000X0.185000X0.135000X-0.185000X0.135000X-0.185000X-0.135000X0*%
%ADD52RoundRect,0.250000X-0.650000X1.000000X-0.650000X-1.000000X0.650000X-1.000000X0.650000X1.000000X0*%
%ADD53R,1.100000X2.200000*%
%ADD54RoundRect,0.150000X-0.150000X0.512500X-0.150000X-0.512500X0.150000X-0.512500X0.150000X0.512500X0*%
%ADD55RoundRect,0.225000X0.225000X0.250000X-0.225000X0.250000X-0.225000X-0.250000X0.225000X-0.250000X0*%
%ADD56RoundRect,0.225000X0.250000X-0.225000X0.250000X0.225000X-0.250000X0.225000X-0.250000X-0.225000X0*%
%ADD57R,7.350000X4.650000*%
%ADD58RoundRect,0.140000X-0.170000X0.140000X-0.170000X-0.140000X0.170000X-0.140000X0.170000X0.140000X0*%
%ADD59RoundRect,0.375000X0.625000X0.375000X-0.625000X0.375000X-0.625000X-0.375000X0.625000X-0.375000X0*%
%ADD60RoundRect,0.500000X0.500000X1.400000X-0.500000X1.400000X-0.500000X-1.400000X0.500000X-1.400000X0*%
%ADD61RoundRect,0.225000X-0.225000X-0.250000X0.225000X-0.250000X0.225000X0.250000X-0.225000X0.250000X0*%
%ADD62RoundRect,0.140000X0.140000X0.170000X-0.140000X0.170000X-0.140000X-0.170000X0.140000X-0.170000X0*%
%ADD63RoundRect,0.036364X1.213636X-0.563636X1.213636X0.563636X-1.213636X0.563636X-1.213636X-0.563636X0*%
%ADD64R,0.900000X2.000000*%
%ADD65RoundRect,1.025000X-1.025000X-1.025000X1.025000X-1.025000X1.025000X1.025000X-1.025000X1.025000X0*%
%ADD66C,4.100000*%
G04 APERTURE END LIST*
D10*
%TO.C,C2*%
X102000000Y-66424999D03*
X102000000Y-69375001D03*
%TD*%
D11*
%TO.C,5V*%
X102700000Y-79450000D03*
%TD*%
D12*
%TO.C,C5*%
X102400000Y-75000000D03*
X102400000Y-76550000D03*
%TD*%
D10*
%TO.C,C1*%
X105300000Y-66424999D03*
X105300000Y-69375001D03*
%TD*%
D13*
%TO.C,H3*%
X67600000Y-61000000D03*
X68302944Y-59302944D03*
X68302944Y-62697056D03*
X70000000Y-58600000D03*
D14*
X70000000Y-61000000D03*
D13*
X70000000Y-63400000D03*
X71697056Y-59302944D03*
X71697056Y-62697056D03*
X72400000Y-61000000D03*
%TD*%
D15*
%TO.C,R2*%
X81810000Y-65130002D03*
X81810000Y-66150000D03*
%TD*%
D16*
%TO.C,SW6*%
X76049999Y-117000000D03*
X76049999Y-112500000D03*
X68099999Y-117000000D03*
X68099999Y-112500000D03*
%TD*%
D17*
%TO.C,R31*%
X124859998Y-128640000D03*
X123840000Y-128640000D03*
%TD*%
D11*
%TO.C,5V_USB*%
X90279898Y-132871574D03*
%TD*%
D18*
%TO.C,D4*%
X98400000Y-67000000D03*
X98400000Y-62999998D03*
%TD*%
D11*
%TO.C,GLB*%
X119900000Y-124100000D03*
%TD*%
%TO.C,GHC*%
X140250000Y-123850000D03*
%TD*%
D15*
%TO.C,R14*%
X70700000Y-108000000D03*
X70700000Y-109019998D03*
%TD*%
D17*
%TO.C,R4*%
X106409999Y-59600000D03*
X105390001Y-59600000D03*
%TD*%
D11*
%TO.C,PWM*%
X112250000Y-96150000D03*
%TD*%
D19*
%TO.C,R9*%
X84579900Y-134371575D03*
X85599898Y-134371575D03*
%TD*%
D20*
%TO.C,D9*%
X69614998Y-68090000D03*
X71190000Y-68090000D03*
%TD*%
D21*
%TO.C,SQJ746ELP1*%
X111444999Y-130434999D03*
X110174999Y-130435000D03*
X108904999Y-130435000D03*
X107634999Y-130434999D03*
D22*
X110669999Y-133795000D03*
D23*
X111444999Y-135900000D03*
X110174999Y-135900000D03*
D22*
X108409999Y-133795000D03*
D23*
X108904999Y-135900000D03*
X107634999Y-135900000D03*
%TD*%
D11*
%TO.C,DIR*%
X101700000Y-92900000D03*
%TD*%
%TO.C,TP9*%
X114650000Y-124050000D03*
%TD*%
D24*
%TO.C,PS1*%
X108400000Y-59550000D03*
X108400000Y-60550000D03*
X108399999Y-61550000D03*
X108400000Y-62550000D03*
X108400000Y-63550000D03*
D25*
X108900000Y-68300000D03*
X113100000Y-68300000D03*
D24*
X113600000Y-63550000D03*
X113600000Y-62550000D03*
X113600001Y-61550000D03*
X113600000Y-60550000D03*
X113600000Y-59550000D03*
D25*
X111000000Y-61150000D03*
%TD*%
D16*
%TO.C,SW1*%
X75990000Y-134680000D03*
X75990000Y-130180000D03*
X68040000Y-134680000D03*
X68040000Y-130180000D03*
%TD*%
D26*
%TO.C,J4*%
X69250000Y-84700000D03*
X69250000Y-80800000D03*
X70520000Y-84700000D03*
X70520000Y-80800000D03*
X71790000Y-84700000D03*
X71790000Y-80800000D03*
X73060000Y-84700000D03*
X73060000Y-80800000D03*
X74330000Y-84700000D03*
X74330000Y-80800000D03*
X75600000Y-84700000D03*
X75600000Y-80800000D03*
X76870000Y-84700000D03*
X76870000Y-80800000D03*
%TD*%
D27*
%TO.C,C3*%
X115390000Y-104500000D03*
X116350000Y-104500000D03*
%TD*%
D17*
%TO.C,R23*%
X101590000Y-82700000D03*
X100570002Y-82700000D03*
%TD*%
D15*
%TO.C,R18*%
X80050000Y-125580002D03*
X80050000Y-126600000D03*
%TD*%
D28*
%TO.C,J3*%
X129500000Y-142900000D03*
D29*
X121880000Y-142900000D03*
X114260000Y-142900000D03*
%TD*%
D30*
%TO.C,J6*%
X96479899Y-126806573D03*
D31*
X88979901Y-126806573D03*
D32*
X95479900Y-127641573D03*
X94979900Y-127641573D03*
X94479900Y-127641573D03*
X93979900Y-127641573D03*
X93479900Y-127641573D03*
X92979900Y-127641573D03*
X92479900Y-127641573D03*
X91979900Y-127641573D03*
X91479900Y-127641573D03*
X90979900Y-127641573D03*
X90479900Y-127641573D03*
X89979900Y-127641573D03*
X89979900Y-125971573D03*
X90479900Y-125971573D03*
X90979900Y-125971573D03*
X91479900Y-125971573D03*
X91979900Y-125971573D03*
X92479900Y-125971573D03*
X92979900Y-125971573D03*
X93479900Y-125971573D03*
X93979900Y-125971573D03*
X94479900Y-125971573D03*
X94979900Y-125971573D03*
X95479900Y-125971573D03*
D33*
X95129900Y-128956573D03*
X95129900Y-124656573D03*
X90329900Y-128956573D03*
X90329900Y-124656573D03*
%TD*%
D34*
%TO.C,D11*%
X79319253Y-62424032D03*
X79319253Y-60849030D03*
%TD*%
D17*
%TO.C,R7*%
X68194996Y-75600000D03*
X67174998Y-75600000D03*
%TD*%
D11*
%TO.C,GHB*%
X127150000Y-123750000D03*
%TD*%
D17*
%TO.C,R6*%
X106409999Y-60600000D03*
X105390001Y-60600000D03*
%TD*%
D11*
%TO.C,TP5V_BUCK*%
X105800000Y-79450000D03*
%TD*%
%TO.C,TP11*%
X107950000Y-123950000D03*
%TD*%
D35*
%TO.C,U3*%
X88936397Y-92372918D03*
X89736397Y-92372918D03*
X90536397Y-92372918D03*
X91336397Y-92372918D03*
X92136397Y-92372918D03*
X92936397Y-92372918D03*
X93736397Y-92372918D03*
X94536397Y-92372918D03*
D36*
X95911397Y-90997918D03*
X95911397Y-90197918D03*
X95911397Y-89397918D03*
X95911397Y-88597918D03*
X95911397Y-87797918D03*
X95911397Y-86997918D03*
X95911397Y-86197918D03*
X95911397Y-85397918D03*
D35*
X94536397Y-84022918D03*
X93736397Y-84022918D03*
X92936397Y-84022918D03*
X92136397Y-84022918D03*
X91336397Y-84022918D03*
X90536397Y-84022918D03*
X89736397Y-84022918D03*
X88936397Y-84022918D03*
D36*
X87561397Y-85397918D03*
X87561397Y-86197918D03*
X87561397Y-86997918D03*
X87561397Y-87797918D03*
X87561397Y-88597918D03*
X87561397Y-89397918D03*
X87561397Y-90197918D03*
X87561397Y-90997918D03*
%TD*%
D17*
%TO.C,R24*%
X101580000Y-83830000D03*
X100560002Y-83830000D03*
%TD*%
D11*
%TO.C,3V3*%
X99400000Y-79650000D03*
%TD*%
D37*
%TO.C,J2*%
X93100000Y-144600000D03*
D38*
X90600000Y-144600000D03*
X88100000Y-144600000D03*
X85600000Y-144600000D03*
X83100000Y-144600000D03*
%TD*%
D17*
%TO.C,R10*%
X68200000Y-70590000D03*
X67180002Y-70590000D03*
%TD*%
D27*
%TO.C,C15*%
X86150001Y-94297207D03*
X87110001Y-94297207D03*
%TD*%
D21*
%TO.C,SQJ746ELP2*%
X123805000Y-130524999D03*
X122535000Y-130525000D03*
X121265000Y-130525000D03*
X119995000Y-130524999D03*
D22*
X123030000Y-133885000D03*
D23*
X123805000Y-135990000D03*
X122535000Y-135990000D03*
D22*
X120770000Y-133885000D03*
D23*
X121265000Y-135990000D03*
X119995000Y-135990000D03*
%TD*%
D39*
%TO.C,R32*%
X125225000Y-123300000D03*
X122300000Y-123300000D03*
%TD*%
D34*
%TO.C,D10*%
X76729254Y-62424033D03*
X76729254Y-60849031D03*
%TD*%
D40*
%TO.C,R3*%
X108000000Y-116000000D03*
X105500000Y-116000000D03*
X105500000Y-110750000D03*
X108000000Y-110750000D03*
%TD*%
D20*
%TO.C,D6*%
X69614998Y-73090000D03*
X71190000Y-73090000D03*
%TD*%
D41*
%TO.C,C12*%
X91382841Y-96016853D03*
X91382841Y-95056853D03*
%TD*%
D19*
%TO.C,R30*%
X107750001Y-128695000D03*
X108769999Y-128695000D03*
%TD*%
D42*
%TO.C,R37*%
X129469999Y-128595000D03*
X129469999Y-125670000D03*
%TD*%
D20*
%TO.C,D5*%
X69614998Y-75590000D03*
X71190000Y-75590000D03*
%TD*%
D19*
%TO.C,R34*%
X120150001Y-128795000D03*
X121169999Y-128795000D03*
%TD*%
D43*
%TO.C,J5*%
X94000000Y-62000000D03*
X88220000Y-62000000D03*
D44*
X94310000Y-63140000D03*
X93510000Y-63140000D03*
D45*
X92360000Y-63139999D03*
X91360000Y-63140000D03*
X90860000Y-63140000D03*
X89860000Y-63139999D03*
D44*
X88710000Y-63140000D03*
X87910000Y-63140000D03*
X87910000Y-63140000D03*
X88710000Y-63140000D03*
D45*
X89360000Y-63140000D03*
X90360000Y-63140000D03*
X91860000Y-63140000D03*
X92860000Y-63140000D03*
D44*
X93510000Y-63140000D03*
X94310000Y-63140000D03*
D46*
X95430000Y-62500000D03*
D47*
X95430000Y-58320000D03*
D46*
X86790000Y-62500000D03*
D47*
X86790000Y-58320000D03*
%TD*%
D11*
%TO.C,24V*%
X119200000Y-95440000D03*
%TD*%
D16*
%TO.C,SW5*%
X76000000Y-125850000D03*
X76000000Y-121350000D03*
X68050000Y-125850000D03*
X68050000Y-121350000D03*
%TD*%
D48*
%TO.C,IC1*%
X119700000Y-108300000D03*
X120200000Y-108300000D03*
X120700000Y-108300000D03*
X121200000Y-108300000D03*
X121700000Y-108300000D03*
X122200000Y-108300000D03*
X122700000Y-108300000D03*
D49*
X123600000Y-107400000D03*
X123600000Y-106900000D03*
X123600000Y-106400000D03*
X123600000Y-105900000D03*
X123600000Y-105400000D03*
X123600000Y-104900000D03*
X123600000Y-104400000D03*
D48*
X122700000Y-103500000D03*
X122200000Y-103500000D03*
X121700000Y-103500000D03*
X121200000Y-103500000D03*
X120700000Y-103500000D03*
X120200000Y-103500000D03*
X119700000Y-103500000D03*
D49*
X118800000Y-104400000D03*
X118800000Y-104900000D03*
X118800000Y-105400000D03*
X118800000Y-105900000D03*
X118800000Y-106400000D03*
X118800000Y-106900000D03*
X118800000Y-107400000D03*
D50*
X121200000Y-105900000D03*
%TD*%
D21*
%TO.C,SQJ746ELP3*%
X135944999Y-130534999D03*
X134674999Y-130535000D03*
X133404999Y-130535000D03*
X132134999Y-130534999D03*
D22*
X135169999Y-133895000D03*
D23*
X135944999Y-136000000D03*
X134674999Y-136000000D03*
D22*
X132909999Y-133895000D03*
D23*
X133404999Y-136000000D03*
X132134999Y-136000000D03*
%TD*%
D17*
%TO.C,R8*%
X68194997Y-73090000D03*
X67174999Y-73090000D03*
%TD*%
D11*
%TO.C,BRAKE*%
X116050000Y-90250000D03*
%TD*%
D19*
%TO.C,R38*%
X132369999Y-128795000D03*
X133389997Y-128795000D03*
%TD*%
%TO.C,R20*%
X92380002Y-130600000D03*
X93400000Y-130600000D03*
%TD*%
D51*
%TO.C,R21*%
X91379899Y-123141574D03*
X91379899Y-122121576D03*
%TD*%
D52*
%TO.C,D3*%
X85379899Y-125371572D03*
X85379899Y-129371574D03*
%TD*%
D53*
%TO.C,SW3*%
X73110000Y-96720000D03*
X70570000Y-96720000D03*
X70570000Y-105520000D03*
X73110000Y-105520000D03*
%TD*%
D54*
%TO.C,U4*%
X93679899Y-116141574D03*
X92729900Y-116141574D03*
X91779901Y-116141574D03*
X91779901Y-118416574D03*
X92729900Y-118416574D03*
X93679899Y-118416574D03*
%TD*%
D55*
%TO.C,C4*%
X106100000Y-62900000D03*
X104550000Y-62900000D03*
%TD*%
D11*
%TO.C,SC*%
X129600000Y-137300000D03*
%TD*%
D56*
%TO.C,D1*%
X81819254Y-62424033D03*
X81819254Y-60874033D03*
%TD*%
D51*
%TO.C,R19*%
X78850000Y-126600000D03*
X78850000Y-125580002D03*
%TD*%
D11*
%TO.C,GLA*%
X131950000Y-124050000D03*
%TD*%
%TO.C,SA*%
X104500000Y-135900000D03*
%TD*%
D51*
%TO.C,R1*%
X81769253Y-58844033D03*
X81769253Y-57824035D03*
%TD*%
D15*
%TO.C,R22*%
X78900000Y-115980002D03*
X78900000Y-117000000D03*
%TD*%
D27*
%TO.C,C6*%
X119780001Y-101000000D03*
X120740001Y-101000000D03*
%TD*%
D39*
%TO.C,R36*%
X137600000Y-123300000D03*
X134675000Y-123300000D03*
%TD*%
D57*
%TO.C,C10*%
X126240000Y-83840000D03*
X137640000Y-83840000D03*
%TD*%
D39*
%TO.C,R28*%
X112700000Y-123300000D03*
X109775000Y-123300000D03*
%TD*%
D58*
%TO.C,C16*%
X92372792Y-95056854D03*
X92372792Y-96016854D03*
%TD*%
D20*
%TO.C,D7*%
X84504896Y-132871575D03*
X86079898Y-132871575D03*
%TD*%
D55*
%TO.C,C18*%
X87110000Y-95570000D03*
X85560000Y-95570000D03*
%TD*%
D17*
%TO.C,R11*%
X68194997Y-68070000D03*
X67174999Y-68070000D03*
%TD*%
D59*
%TO.C,U1*%
X98700001Y-76900000D03*
X98700000Y-74600000D03*
X98700001Y-72300000D03*
D60*
X92400002Y-74600000D03*
%TD*%
D61*
%TO.C,C9*%
X112750000Y-71100000D03*
X114300000Y-71100000D03*
%TD*%
D13*
%TO.C,H4*%
X67600000Y-143302944D03*
X68302944Y-141605888D03*
X68302944Y-145000000D03*
X70000000Y-140902944D03*
D14*
X70000000Y-143302944D03*
D13*
X70000000Y-145702944D03*
X71697056Y-141605888D03*
X71697056Y-145000000D03*
X72400000Y-143302944D03*
%TD*%
D55*
%TO.C,C8*%
X95550000Y-79300000D03*
X94000000Y-79300000D03*
%TD*%
D62*
%TO.C,C7*%
X122900000Y-101000000D03*
X121940000Y-101000000D03*
%TD*%
D19*
%TO.C,R5*%
X105390001Y-61600000D03*
X106409999Y-61600000D03*
%TD*%
D20*
%TO.C,D8*%
X69614998Y-70590000D03*
X71190000Y-70590000D03*
%TD*%
D42*
%TO.C,R29*%
X104869999Y-128495000D03*
X104869999Y-125570000D03*
%TD*%
D17*
%TO.C,R35*%
X136999999Y-128710000D03*
X135980001Y-128710000D03*
%TD*%
D11*
%TO.C,SB*%
X117900000Y-135500000D03*
%TD*%
D42*
%TO.C,R33*%
X117269999Y-128620000D03*
X117269999Y-125695000D03*
%TD*%
D13*
%TO.C,H1*%
X137600000Y-143302944D03*
X138302944Y-141605888D03*
X138302944Y-145000000D03*
X140000000Y-140902944D03*
D14*
X140000000Y-143302944D03*
D13*
X140000000Y-145702944D03*
X141697056Y-141605888D03*
X141697056Y-145000000D03*
X142400000Y-143302944D03*
%TD*%
D18*
%TO.C,D2*%
X109900000Y-77400002D03*
X109900000Y-73400000D03*
%TD*%
D58*
%TO.C,C17*%
X97600000Y-83840000D03*
X97600000Y-84800000D03*
%TD*%
D63*
%TO.C,U2*%
X105300000Y-87900000D03*
X105300000Y-90400000D03*
X105300000Y-92900000D03*
X110800000Y-87900000D03*
X110800000Y-90400000D03*
X110800000Y-92900000D03*
%TD*%
D17*
%TO.C,R27*%
X112530000Y-128610000D03*
X111510002Y-128610000D03*
%TD*%
D13*
%TO.C,H2*%
X137600000Y-61000000D03*
X138302944Y-59302944D03*
X138302944Y-62697056D03*
X140000000Y-58600000D03*
D14*
X140000000Y-61000000D03*
D13*
X140000000Y-63400000D03*
X141697056Y-59302944D03*
X141697056Y-62697056D03*
X142400000Y-61000000D03*
%TD*%
D15*
%TO.C,R15*%
X73100000Y-108000000D03*
X73100000Y-109019998D03*
%TD*%
D51*
%TO.C,R25*%
X76729254Y-58849031D03*
X76729254Y-57829033D03*
%TD*%
%TO.C,R26*%
X79329253Y-58849031D03*
X79329253Y-57829033D03*
%TD*%
D64*
%TO.C,J1*%
X118050000Y-64200000D03*
X131550000Y-64200000D03*
D65*
X121200000Y-70200000D03*
D66*
X128400000Y-70200000D03*
%TD*%
D58*
%TO.C,C14*%
X81250000Y-125600001D03*
X81250000Y-126560001D03*
%TD*%
M02*
