M48
; DRILL file {KiCad 9.0.0-9.0.0-2~ubuntu22.04.1} date 2025-03-27T09:55:17+0100
; FORMAT={-:-/ absolute / metric / decimal}
; #@! TF.CreationDate,2025-03-27T09:55:17+01:00
; #@! TF.GenerationSoftware,Kicad,Pcbnew,9.0.0-9.0.0-2~ubuntu22.04.1
; #@! TF.FileFunction,Plated,1,4,PTH
FMAT,2
METRIC
; #@! TA.AperFunction,Plated,PTH,ViaDrill
T1C0.300
; #@! TA.AperFunction,Plated,PTH,ComponentDrill
T2C0.500
; #@! TA.AperFunction,Plated,PTH,ComponentDrill
T3C0.600
; #@! TA.AperFunction,Plated,PTH,ComponentDrill
T4C0.700
; #@! TA.AperFunction,Plated,PTH,ComponentDrill
T5C0.950
; #@! TA.AperFunction,Plated,PTH,ComponentDrill
T6C1.400
; #@! TA.AperFunction,Plated,PTH,ComponentDrill
T7C2.700
; #@! TA.AperFunction,Plated,PTH,ComponentDrill
T8C3.200
%
G90
G05
T1
X66.0Y-64.7
X66.0Y-66.7
X66.0Y-68.7
X66.0Y-70.7
X66.0Y-72.7
X66.0Y-74.7
X66.0Y-76.7
X66.0Y-78.7
X66.0Y-80.7
X66.0Y-82.7
X66.0Y-84.7
X66.0Y-86.7
X66.0Y-88.7
X66.0Y-90.7
X66.0Y-92.7
X66.0Y-94.7
X66.0Y-96.7
X66.0Y-98.7
X66.0Y-100.7
X66.0Y-102.7
X66.0Y-104.7
X66.0Y-106.7
X66.0Y-108.7
X66.0Y-110.7
X66.0Y-112.7
X66.0Y-114.7
X66.0Y-116.7
X66.0Y-118.7
X66.0Y-120.7
X66.0Y-122.7
X66.0Y-124.7
X66.0Y-126.7
X66.0Y-128.7
X66.0Y-130.7
X66.0Y-132.7
X66.0Y-134.7
X66.0Y-136.7
X66.0Y-138.7
X66.0Y-140.7
X69.1Y-87.05
X70.0Y-57.0
X70.48Y-87.91
X71.8Y-109.02
X71.81Y-94.34
X71.85Y-107.3
X72.0Y-57.0
X72.0Y-147.0
X72.09Y-103.19
X72.95Y-75.58
X72.97Y-68.05
X72.97Y-73.09
X73.04Y-70.61
X73.81Y-88.95
X73.97Y-113.25
X74.0Y-57.0
X74.0Y-147.0
X74.1Y-116.51
X74.2Y-101.89
X75.22Y-82.75
X75.41Y-77.43
X75.7Y-74.22
X75.8Y-59.7
X76.0Y-57.0
X76.0Y-147.0
X76.05Y-112.5
X77.33Y-115.46
X78.0Y-57.0
X78.0Y-147.0
X78.46Y-81.79
X78.6Y-79.98
X78.84Y-124.06
X78.93Y-85.12
X80.0Y-57.0
X80.0Y-147.0
X80.14Y-90.5
X80.15Y-96.65
X80.6Y-103.28
X80.7Y-100.28
X80.95Y-94.32
X80.98Y-93.34
X81.04Y-98.05
X81.25Y-91.79
X81.31Y-87.45
X81.53Y-98.96
X81.62Y-105.44
X81.62Y-108.15
X81.81Y-67.53
X82.0Y-147.0
X82.0Y-57.0
X82.9Y-57.85
X83.62Y-80.02
X83.67Y-101.18
X83.75Y-64.1
X83.8Y-96.1
X84.0Y-147.0
X84.0Y-57.0
X84.63Y-91.53
X84.7Y-94.1
X84.71Y-79.17
X84.9Y-124.5
X84.9Y-126.25
X85.38Y-129.372
X85.4Y-86.16
X85.8Y-90.15
X85.83Y-92.24
X85.85Y-124.55
X85.9Y-126.2
X86.0Y-57.0
X86.0Y-147.0
X87.201Y-92.74
X87.8Y-81.04
X87.95Y-82.47
X88.0Y-57.0
X88.0Y-103.0
X88.0Y-111.0
X88.0Y-119.0
X88.0Y-129.0
X88.0Y-147.0
X88.51Y-95.12
X88.71Y-63.14
X88.936Y-93.5
X89.2Y-95.9
X89.41Y-87.78
X89.492Y-96.97
X89.6Y-98.96
X89.63Y-98.03
X89.819Y-94.929
X90.0Y-57.0
X90.0Y-147.0
X90.5Y-90.73
X90.5Y-102.8
X91.33Y-90.81
X91.7Y-97.2
X91.78Y-118.417
X91.8Y-105.9
X91.9Y-102.4
X92.0Y-57.0
X92.0Y-147.0
X92.136Y-93.5
X92.45Y-88.3
X92.48Y-128.28
X92.56Y-120.82
X92.6Y-107.2
X92.98Y-125.1
X93.08Y-122.992
X93.425Y-90.705
X93.51Y-63.14
X93.68Y-118.417
X93.68Y-121.32
X93.82Y-70.51
X94.0Y-57.0
X94.0Y-147.0
X94.04Y-89.06
X94.35Y-80.7
X94.7Y-74.2
X94.7Y-75.6
X94.77Y-95.49
X95.07Y-130.57
X95.4Y-83.84
X96.0Y-147.0
X96.0Y-57.0
X96.4Y-74.2
X96.4Y-75.6
X96.7Y-82.05
X97.08Y-98.05
X97.1Y-79.4
X97.54Y-90.93
X97.55Y-86.26
X98.0Y-147.0
X98.0Y-57.0
X98.245Y-87.135
X98.4Y-63.0
X98.4Y-67.0
X98.5Y-90.93
X98.7Y-70.3
X99.0Y-147.0
X99.21Y-83.91
X99.24Y-82.58
X100.0Y-57.0
X100.2Y-89.4
X101.0Y-147.0
X101.1Y-66.4
X101.55Y-87.9
X102.0Y-57.0
X102.0Y-66.4
X102.18Y-119.2
X102.4Y-73.7
X102.69Y-82.7
X102.7Y-79.45
X102.74Y-90.4
X102.9Y-66.4
X103.0Y-107.0
X103.0Y-147.0
X103.16Y-98.13
X103.505Y-85.055
X104.0Y-57.0
X104.4Y-66.4
X105.0Y-147.0
X105.3Y-66.4
X106.0Y-57.0
X106.2Y-66.4
X106.92Y-128.9
X107.0Y-71.0
X107.0Y-147.0
X107.4Y-114.7
X107.4Y-115.4
X107.4Y-116.2
X107.4Y-116.9
X108.0Y-57.0
X108.1Y-114.7
X108.1Y-115.4
X108.1Y-116.2
X108.1Y-116.9
X108.23Y-86.35
X108.6Y-101.5
X108.8Y-90.0
X108.9Y-125.3
X108.9Y-126.1
X108.9Y-126.9
X108.9Y-127.7
X109.0Y-147.0
X109.0Y-65.0
X109.0Y-107.0
X109.5Y-63.1
X109.8Y-94.5
X109.9Y-77.4
X109.9Y-125.3
X109.9Y-126.1
X109.9Y-126.9
X109.9Y-127.7
X109.9Y-128.6
X110.0Y-57.0
X110.2Y-132.4
X110.2Y-133.1
X110.2Y-133.8
X110.2Y-134.5
X110.2Y-135.2
X110.655Y-117.545
X110.8Y-90.4
X110.96Y-121.16
X111.0Y-61.15
X111.0Y-147.0
X111.1Y-91.7
X111.1Y-132.4
X111.1Y-133.1
X111.2Y-133.8
X111.2Y-134.5
X111.2Y-135.2
X111.26Y-104.3
X111.6Y-63.0
X112.0Y-57.0
X112.2Y-61.4
X112.6Y-105.4
X113.0Y-147.0
X113.54Y-102.05
X113.6Y-91.65
X114.0Y-57.0
X114.22Y-118.66
X114.4Y-89.9
X114.6Y-62.9
X114.7Y-59.4
X115.0Y-147.0
X115.4Y-131.8
X115.4Y-132.5
X115.4Y-133.2
X115.4Y-133.9
X115.4Y-134.6
X115.4Y-135.3
X115.4Y-136.0
X115.52Y-114.51
X116.0Y-57.0
X116.2Y-131.8
X116.2Y-132.5
X116.2Y-133.2
X116.2Y-133.9
X116.2Y-134.6
X116.2Y-135.3
X116.2Y-136.0
X117.0Y-147.0
X117.2Y-123.8
X117.7Y-108.5
X118.0Y-57.0
X118.0Y-142.0
X118.2Y-102.4
X118.66Y-113.68
X118.94Y-111.92
X119.0Y-147.0
X119.19Y-129.09
X119.2Y-95.44
X120.0Y-57.0
X120.16Y-104.89
X120.16Y-105.89
X120.16Y-106.89
X120.23Y-111.81
X121.0Y-120.0
X121.0Y-147.0
X121.16Y-104.89
X121.16Y-105.89
X121.16Y-106.89
X121.2Y-125.6
X121.2Y-126.4
X121.2Y-127.2
X121.2Y-128.0
X121.28Y-111.78
X121.7Y-81.0
X121.7Y-83.0
X121.7Y-85.0
X121.7Y-87.0
X121.95Y-98.9
X122.0Y-57.0
X122.16Y-104.89
X122.16Y-105.79
X122.16Y-106.89
X122.2Y-125.6
X122.2Y-126.4
X122.2Y-127.2
X122.2Y-128.0
X122.2Y-128.9
X122.6Y-132.4
X122.6Y-133.1
X122.6Y-133.8
X122.6Y-134.5
X122.6Y-135.2
X123.0Y-147.0
X123.5Y-132.4
X123.5Y-133.1
X123.6Y-133.8
X123.6Y-134.5
X123.6Y-135.2
X123.8Y-109.1
X124.0Y-57.0
X124.0Y-81.0
X124.0Y-87.0
X124.32Y-77.34
X124.5Y-127.5
X124.6Y-117.5
X124.87Y-89.92
X125.0Y-113.0
X125.0Y-147.0
X126.0Y-81.0
X126.0Y-87.0
X126.0Y-142.0
X126.0Y-57.0
X126.25Y-116.5
X127.0Y-147.0
X127.8Y-132.1
X127.8Y-132.8
X127.8Y-133.5
X127.8Y-134.2
X127.8Y-134.9
X127.8Y-135.6
X127.8Y-136.3
X128.0Y-57.0
X128.0Y-81.0
X128.0Y-87.0
X128.6Y-132.1
X128.6Y-132.8
X128.6Y-133.5
X128.6Y-134.2
X128.6Y-134.9
X128.6Y-135.6
X128.6Y-136.3
X129.0Y-147.0
X129.5Y-122.9
X129.992Y-107.944
X130.0Y-57.0
X130.0Y-81.0
X130.0Y-87.0
X130.0Y-96.0
X130.0Y-100.0
X130.0Y-104.0
X130.4Y-117.1
X130.5Y-131.0
X131.0Y-147.0
X131.25Y-81.0
X131.25Y-83.0
X131.25Y-85.0
X131.25Y-87.0
X131.43Y-129.06
X132.0Y-57.0
X133.0Y-147.0
X133.3Y-125.5
X133.3Y-126.3
X133.3Y-127.1
X133.3Y-127.9
X134.0Y-57.0
X134.3Y-125.5
X134.3Y-126.3
X134.3Y-127.1
X134.3Y-127.9
X134.3Y-128.8
X134.7Y-132.4
X134.7Y-133.1
X134.7Y-133.8
X134.7Y-134.5
X134.7Y-135.2
X135.0Y-147.0
X135.6Y-132.4
X135.6Y-133.1
X135.7Y-133.8
X135.7Y-134.5
X135.7Y-135.2
X136.0Y-57.0
X137.0Y-147.0
X137.55Y-77.0
X137.68Y-90.39
X138.0Y-57.0
X140.0Y-132.2
X140.0Y-132.9
X140.0Y-133.6
X140.0Y-134.3
X140.0Y-135.0
X140.0Y-135.7
X140.0Y-136.4
X140.8Y-132.2
X140.8Y-132.9
X140.8Y-133.6
X140.8Y-134.3
X140.8Y-135.0
X140.8Y-135.7
X140.8Y-136.4
X144.0Y-64.0
X144.0Y-66.0
X144.0Y-68.0
X144.0Y-70.0
X144.0Y-72.0
X144.0Y-74.0
X144.0Y-76.0
X144.0Y-78.0
X144.0Y-80.0
X144.0Y-82.0
X144.0Y-84.0
X144.0Y-86.0
X144.0Y-88.0
X144.0Y-90.0
X144.0Y-92.0
X144.0Y-94.0
X144.0Y-96.0
X144.0Y-98.0
X144.0Y-100.0
X144.0Y-102.0
X144.0Y-104.0
X144.0Y-106.0
X144.0Y-108.0
X144.0Y-110.0
X144.0Y-112.0
X144.0Y-114.0
X144.0Y-116.0
X144.0Y-118.0
X144.0Y-120.0
X144.0Y-122.0
X144.0Y-124.0
X144.0Y-126.0
X144.0Y-128.0
X144.0Y-130.0
X144.0Y-132.0
X144.0Y-134.0
X144.0Y-136.0
X144.0Y-138.0
X144.0Y-140.0
T2
X67.6Y-61.0
X67.6Y-143.303
X68.303Y-59.303
X68.303Y-62.697
X68.303Y-141.606
X68.303Y-145.0
X70.0Y-58.6
X70.0Y-63.4
X70.0Y-140.903
X70.0Y-145.703
X71.697Y-59.303
X71.697Y-62.697
X71.697Y-141.606
X71.697Y-145.0
X72.4Y-61.0
X72.4Y-143.303
X137.6Y-61.0
X137.6Y-143.303
X138.303Y-59.303
X138.303Y-62.697
X138.303Y-141.606
X138.303Y-145.0
X140.0Y-58.6
X140.0Y-63.4
X140.0Y-140.903
X140.0Y-145.703
X141.697Y-59.303
X141.697Y-62.697
X141.697Y-141.606
X141.697Y-145.0
X142.4Y-61.0
X142.4Y-143.303
T4
X90.33Y-124.657
X90.33Y-128.957
X95.13Y-124.657
X95.13Y-128.957
T5
X83.1Y-144.6
X85.6Y-144.6
X88.1Y-144.6
X90.6Y-144.6
X93.1Y-144.6
T6
X114.26Y-142.9
X121.88Y-142.9
X129.5Y-142.9
T7
X121.2Y-70.2
X128.4Y-70.2
T8
X70.0Y-61.0
X70.0Y-143.303
X140.0Y-61.0
X140.0Y-143.303
T3
G00X86.79Y-58.62
M15
G01X86.79Y-58.02
M16
G05
G00X86.79Y-63.05
M15
G01X86.79Y-61.95
M16
G05
G00X95.43Y-58.62
M15
G01X95.43Y-58.02
M16
G05
G00X95.43Y-63.05
M15
G01X95.43Y-61.95
M16
G05
G00X118.05Y-63.65
M15
G01X118.05Y-64.75
M16
G05
G00X131.55Y-63.65
M15
G01X131.55Y-64.75
M16
G05
M30
