M48
; DRILL file {KiCad 9.0.1} date 2025-04-07T20:19:48+0200
; FORMAT={-:-/ absolute / inch / decimal}
; #@! TF.CreationDate,2025-04-07T20:19:48+02:00
; #@! TF.GenerationSoftware,Kicad,Pcbnew,9.0.1
; #@! TF.FileFunction,Plated,1,4,PTH
FMAT,2
INCH
; #@! TA.AperFunction,Plated,PTH,ViaDrill
T1C0.0157
; #@! TA.AperFunction,Plated,PTH,ComponentDrill
T2C0.0197
; #@! TA.AperFunction,Plated,PTH,ComponentDrill
T3C0.0236
; #@! TA.AperFunction,Plated,PTH,ComponentDrill
T4C0.1260
%
G90
G05
T1
X4.9168Y-3.4567
X4.9247Y-3.5748
X5.0079Y-3.8465
X5.0118Y-4.0276
X5.0157Y-3.9183
X5.0336Y-3.9948
X5.1024Y-3.6929
X5.2165Y-3.1142
X5.3031Y-4.0433
X5.311Y-3.7441
X5.3135Y-4.0053
X5.3228Y-3.1181
X5.3693Y-3.6811
X5.3898Y-3.1457
X5.4084Y-3.6854
X5.4252Y-4.1378
X5.4449Y-3.2126
X5.4449Y-4.2165
X5.4528Y-3.685
X5.4606Y-3.1693
X5.4724Y-4.752
X5.4921Y-4.2205
X5.5039Y-3.122
X5.5197Y-4.7756
X5.5279Y-3.5878
X5.5315Y-4.7402
X5.5984Y-4.874
X5.6102Y-4.748
X5.6614Y-4.7441
X5.7135Y-4.1903
X5.7598Y-4.7126
X5.7669Y-3.622
X5.7677Y-4.6417
X5.7913Y-4.4488
X5.7953Y-4.2441
X5.811Y-4.5276
X5.815Y-4.1378
X5.8346Y-3.6811
X5.8583Y-3.7323
X5.9055Y-3.1654
X5.9094Y-3.1142
X5.9252Y-4.1339
X5.9843Y-3.7402
X6.0669Y-3.1339
X6.0748Y-4.0394
X6.0984Y-3.1102
X6.1575Y-4.8031
X6.626Y-3.5512
X6.6299Y-3.4567
X6.6457Y-3.3976
X6.6457Y-3.5866
T2
X4.748Y-2.9528
X4.748Y-4.9213
X4.7757Y-2.8859
X4.7757Y-3.0196
X4.7757Y-4.8544
X4.7757Y-4.9881
X4.8425Y-2.8583
X4.8425Y-3.0472
X4.8425Y-4.8268
X4.8425Y-5.0157
X4.9093Y-2.8859
X4.9093Y-3.0196
X4.9093Y-4.8544
X4.9093Y-4.9881
X4.937Y-2.9528
X4.937Y-4.9213
X6.7165Y-2.9528
X6.7165Y-4.9213
X6.7442Y-2.8859
X6.7442Y-3.0196
X6.7442Y-4.8544
X6.7442Y-4.9881
X6.811Y-2.8583
X6.811Y-3.0472
X6.811Y-4.8268
X6.811Y-5.0157
X6.8778Y-2.8859
X6.8778Y-3.0196
X6.8778Y-4.8544
X6.8778Y-4.9881
X6.9055Y-2.9528
X6.9055Y-4.9213
T4
X4.8425Y-2.9528
X4.8425Y-4.9213
X6.811Y-2.9528
X6.811Y-4.9213
T3
G00X4.7608Y-3.7669
M15
G01X4.7372Y-3.7669
M16
G05
G00X4.7608Y-4.1071
M15
G01X4.7372Y-4.1071
M16
G05
G00X4.9352Y-3.7669
M15
G01X4.8919Y-3.7669
M16
G05
G00X4.9352Y-4.1071
M15
G01X4.8919Y-4.1071
M16
G05
G00X5.2394Y-2.8726
M15
G01X5.2394Y-2.849
M16
G05
G00X5.2394Y-3.047
M15
G01X5.2394Y-3.0037
M16
G05
G00X5.3969Y-4.8285
M15
G01X5.3969Y-4.8719
M16
G05
G00X5.3969Y-5.003
M15
G01X5.3969Y-5.0266
M16
G05
G00X5.5795Y-2.8726
M15
G01X5.5795Y-2.849
M16
G05
G00X5.5795Y-3.047
M15
G01X5.5795Y-3.0037
M16
G05
G00X5.737Y-4.8285
M15
G01X5.737Y-4.8719
M16
G05
G00X5.737Y-5.003
M15
G01X5.737Y-5.0266
M16
G05
G00X5.8339Y-2.8671
M15
G01X5.8339Y-2.8435
M16
G05
G00X5.8339Y-3.0415
M15
G01X5.8339Y-2.9982
M16
G05
G00X6.174Y-2.8671
M15
G01X6.174Y-2.8435
M16
G05
G00X6.174Y-3.0415
M15
G01X6.174Y-2.9982
M16
G05
G00X6.7144Y-3.322
M15
G01X6.7577Y-3.322
M16
G05
G00X6.7144Y-3.6622
M15
G01X6.7577Y-3.6622
M16
G05
G00X6.8888Y-3.322
M15
G01X6.9124Y-3.322
M16
G05
G00X6.8888Y-3.6622
M15
G01X6.9124Y-3.6622
M16
G05
M30
