%TF.GenerationSoftware,KiCad,Pcbnew,9.0.1*%
%TF.CreationDate,2025-04-07T20:20:11+02:00*%
%TF.ProjectId,PCB_COM,5043425f-434f-44d2-9e6b-696361645f70,rev?*%
%TF.SameCoordinates,Original*%
%TF.FileFunction,Copper,L1,Top*%
%TF.FilePolarity,Positive*%
%FSLAX46Y46*%
G04 Gerber Fmt 4.6, Leading zero omitted, Abs format (unit mm)*
G04 Created by KiCad (PCBNEW 9.0.1) date 2025-04-07 20:20:11*
%MOMM*%
%LPD*%
G01*
G04 APERTURE LIST*
G04 Aperture macros list*
%AMRoundRect*
0 Rectangle with rounded corners*
0 $1 Rounding radius*
0 $2 $3 $4 $5 $6 $7 $8 $9 X,Y pos of 4 corners*
0 Add a 4 corners polygon primitive as box body*
4,1,4,$2,$3,$4,$5,$6,$7,$8,$9,$2,$3,0*
0 Add four circle primitives for the rounded corners*
1,1,$1+$1,$2,$3*
1,1,$1+$1,$4,$5*
1,1,$1+$1,$6,$7*
1,1,$1+$1,$8,$9*
0 Add four rect primitives between the rounded corners*
20,1,$1+$1,$2,$3,$4,$5,0*
20,1,$1+$1,$4,$5,$6,$7,0*
20,1,$1+$1,$6,$7,$8,$9,0*
20,1,$1+$1,$8,$9,$2,$3,0*%
G04 Aperture macros list end*
%TA.AperFunction,SMDPad,CuDef*%
%ADD10RoundRect,0.140000X-0.140000X-0.170000X0.140000X-0.170000X0.140000X0.170000X-0.140000X0.170000X0*%
%TD*%
%TA.AperFunction,SMDPad,CuDef*%
%ADD11RoundRect,0.140000X-0.170000X0.140000X-0.170000X-0.140000X0.170000X-0.140000X0.170000X0.140000X0*%
%TD*%
%TA.AperFunction,SMDPad,CuDef*%
%ADD12RoundRect,0.140000X0.170000X-0.140000X0.170000X0.140000X-0.170000X0.140000X-0.170000X-0.140000X0*%
%TD*%
%TA.AperFunction,SMDPad,CuDef*%
%ADD13RoundRect,0.140000X0.140000X0.170000X-0.140000X0.170000X-0.140000X-0.170000X0.140000X-0.170000X0*%
%TD*%
%TA.AperFunction,SMDPad,CuDef*%
%ADD14RoundRect,0.225000X-0.250000X0.225000X-0.250000X-0.225000X0.250000X-0.225000X0.250000X0.225000X0*%
%TD*%
%TA.AperFunction,SMDPad,CuDef*%
%ADD15RoundRect,0.225000X-0.225000X-0.250000X0.225000X-0.250000X0.225000X0.250000X-0.225000X0.250000X0*%
%TD*%
%TA.AperFunction,SMDPad,CuDef*%
%ADD16R,1.550000X1.300000*%
%TD*%
%TA.AperFunction,HeatsinkPad*%
%ADD17O,1.600000X1.000000*%
%TD*%
%TA.AperFunction,HeatsinkPad*%
%ADD18O,2.100000X1.000000*%
%TD*%
%TA.AperFunction,SMDPad,CuDef*%
%ADD19RoundRect,0.150000X-0.500000X0.150000X-0.500000X-0.150000X0.500000X-0.150000X0.500000X0.150000X0*%
%TD*%
%TA.AperFunction,SMDPad,CuDef*%
%ADD20RoundRect,0.075000X-0.575000X0.075000X-0.575000X-0.075000X0.575000X-0.075000X0.575000X0.075000X0*%
%TD*%
%TA.AperFunction,HeatsinkPad*%
%ADD21O,1.000000X1.600000*%
%TD*%
%TA.AperFunction,HeatsinkPad*%
%ADD22O,1.000000X2.100000*%
%TD*%
%TA.AperFunction,SMDPad,CuDef*%
%ADD23RoundRect,0.150000X-0.150000X-0.500000X0.150000X-0.500000X0.150000X0.500000X-0.150000X0.500000X0*%
%TD*%
%TA.AperFunction,SMDPad,CuDef*%
%ADD24RoundRect,0.075000X-0.075000X-0.575000X0.075000X-0.575000X0.075000X0.575000X-0.075000X0.575000X0*%
%TD*%
%TA.AperFunction,SMDPad,CuDef*%
%ADD25RoundRect,0.150000X0.500000X-0.150000X0.500000X0.150000X-0.500000X0.150000X-0.500000X-0.150000X0*%
%TD*%
%TA.AperFunction,SMDPad,CuDef*%
%ADD26RoundRect,0.075000X0.575000X-0.075000X0.575000X0.075000X-0.575000X0.075000X-0.575000X-0.075000X0*%
%TD*%
%TA.AperFunction,SMDPad,CuDef*%
%ADD27RoundRect,0.150000X0.150000X0.500000X-0.150000X0.500000X-0.150000X-0.500000X0.150000X-0.500000X0*%
%TD*%
%TA.AperFunction,SMDPad,CuDef*%
%ADD28RoundRect,0.075000X0.075000X0.575000X-0.075000X0.575000X-0.075000X-0.575000X0.075000X-0.575000X0*%
%TD*%
%TA.AperFunction,ComponentPad*%
%ADD29C,0.800000*%
%TD*%
%TA.AperFunction,ComponentPad*%
%ADD30C,6.400000*%
%TD*%
%TA.AperFunction,SMDPad,CuDef*%
%ADD31RoundRect,0.135000X0.135000X0.185000X-0.135000X0.185000X-0.135000X-0.185000X0.135000X-0.185000X0*%
%TD*%
%TA.AperFunction,SMDPad,CuDef*%
%ADD32RoundRect,0.218750X-0.218750X-0.256250X0.218750X-0.256250X0.218750X0.256250X-0.218750X0.256250X0*%
%TD*%
%TA.AperFunction,SMDPad,CuDef*%
%ADD33RoundRect,0.075000X0.700000X0.075000X-0.700000X0.075000X-0.700000X-0.075000X0.700000X-0.075000X0*%
%TD*%
%TA.AperFunction,SMDPad,CuDef*%
%ADD34RoundRect,0.075000X0.075000X0.700000X-0.075000X0.700000X-0.075000X-0.700000X0.075000X-0.700000X0*%
%TD*%
%TA.AperFunction,SMDPad,CuDef*%
%ADD35RoundRect,0.135000X-0.135000X-0.185000X0.135000X-0.185000X0.135000X0.185000X-0.135000X0.185000X0*%
%TD*%
%TA.AperFunction,SMDPad,CuDef*%
%ADD36RoundRect,0.218750X0.256250X-0.218750X0.256250X0.218750X-0.256250X0.218750X-0.256250X-0.218750X0*%
%TD*%
%TA.AperFunction,SMDPad,CuDef*%
%ADD37RoundRect,0.135000X-0.185000X0.135000X-0.185000X-0.135000X0.185000X-0.135000X0.185000X0.135000X0*%
%TD*%
%TA.AperFunction,SMDPad,CuDef*%
%ADD38R,2.400000X0.740000*%
%TD*%
%TA.AperFunction,SMDPad,CuDef*%
%ADD39R,3.250000X1.350000*%
%TD*%
%TA.AperFunction,SMDPad,CuDef*%
%ADD40R,0.950000X1.350000*%
%TD*%
%TA.AperFunction,ViaPad*%
%ADD41C,0.800000*%
%TD*%
%TA.AperFunction,Conductor*%
%ADD42C,0.250000*%
%TD*%
G04 APERTURE END LIST*
D10*
%TO.P,C10,2*%
%TO.N,GND*%
X148380000Y-92000000D03*
%TO.P,C10,1*%
%TO.N,+3.3V*%
X147420000Y-92000000D03*
%TD*%
D11*
%TO.P,C5,2*%
%TO.N,GND*%
X149100000Y-105180000D03*
%TO.P,C5,1*%
%TO.N,+3.3V*%
X149100000Y-104220000D03*
%TD*%
D10*
%TO.P,C7,1*%
%TO.N,+3.3V*%
X138320000Y-92000000D03*
%TO.P,C7,2*%
%TO.N,GND*%
X139280000Y-92000000D03*
%TD*%
D12*
%TO.P,C8,1*%
%TO.N,+3.3V*%
X135800000Y-103480000D03*
%TO.P,C8,2*%
%TO.N,GND*%
X135800000Y-102520000D03*
%TD*%
D13*
%TO.P,C6,1*%
%TO.N,+3.3V*%
X147180000Y-106700000D03*
%TO.P,C6,2*%
%TO.N,GND*%
X146220000Y-106700000D03*
%TD*%
D14*
%TO.P,C4,2*%
%TO.N,GND*%
X150800000Y-96575000D03*
%TO.P,C4,1*%
%TO.N,+3.3V*%
X150800000Y-95025000D03*
%TD*%
D15*
%TO.P,C9,2*%
%TO.N,GND*%
X142950000Y-91800000D03*
%TO.P,C9,1*%
%TO.N,+3.3V*%
X141400000Y-91800000D03*
%TD*%
D10*
%TO.P,C11,2*%
%TO.N,GND*%
X136980000Y-104700000D03*
%TO.P,C11,1*%
%TO.N,+3.3V*%
X136020000Y-104700000D03*
%TD*%
D15*
%TO.P,C3,2*%
%TO.N,+5V*%
X124937500Y-89100000D03*
%TO.P,C3,1*%
%TO.N,GND*%
X123387500Y-89100000D03*
%TD*%
D10*
%TO.P,C2,2*%
%TO.N,GND*%
X137380000Y-92600000D03*
%TO.P,C2,1*%
%TO.N,+3.3V*%
X136420000Y-92600000D03*
%TD*%
D16*
%TO.P,SW2,4*%
%TO.N,N/C*%
X167375000Y-108550000D03*
%TO.P,SW2,2,2*%
%TO.N,Net-(R1-Pad2)*%
X159425000Y-108550000D03*
%TO.P,SW2,3*%
%TO.N,N/C*%
X167375000Y-104050000D03*
%TO.P,SW2,1,1*%
%TO.N,GND*%
X159425000Y-104050000D03*
%TD*%
D17*
%TO.P,J2,S1,SHIELD*%
%TO.N,GND*%
X120625000Y-104320000D03*
D18*
X124805000Y-104320000D03*
D17*
X120625000Y-95680000D03*
D18*
X124805000Y-95680000D03*
D19*
%TO.P,J2,B12,GND*%
X125445000Y-96800000D03*
%TO.P,J2,B9,VBUS*%
%TO.N,+5V*%
X125445000Y-97600000D03*
D20*
%TO.P,J2,B8*%
%TO.N,N/C*%
X125445000Y-98250000D03*
%TO.P,J2,B7,D-*%
%TO.N,USB_DM*%
X125445000Y-99250000D03*
%TO.P,J2,B6,D+*%
%TO.N,USB_DP*%
X125445000Y-100750000D03*
%TO.P,J2,B5,CC2*%
%TO.N,unconnected-(J2-CC2-PadB5)*%
X125445000Y-101750000D03*
D19*
%TO.P,J2,B4,VBUS*%
%TO.N,+5V*%
X125445000Y-102400000D03*
%TO.P,J2,B1,GND*%
%TO.N,GND*%
X125445000Y-103200000D03*
%TO.P,J2,A12,GND*%
X125445000Y-103200000D03*
%TO.P,J2,A9,VBUS*%
%TO.N,+5V*%
X125445000Y-102400000D03*
D20*
%TO.P,J2,A8*%
%TO.N,N/C*%
X125445000Y-101250000D03*
%TO.P,J2,A7,D-*%
%TO.N,USB_DM*%
X125445000Y-100250000D03*
%TO.P,J2,A6,D+*%
%TO.N,USB_DP*%
X125445000Y-99750000D03*
%TO.P,J2,A5,CC1*%
%TO.N,unconnected-(J2-CC1-PadA5)*%
X125445000Y-98750000D03*
D19*
%TO.P,J2,A4,VBUS*%
%TO.N,+5V*%
X125445000Y-97600000D03*
%TO.P,J2,A1,GND*%
%TO.N,GND*%
X125445000Y-96800000D03*
%TD*%
D21*
%TO.P,J6,S1,SHIELD*%
%TO.N,GND*%
X145720000Y-127375000D03*
D22*
X145720000Y-123195000D03*
D21*
X137080000Y-127375000D03*
D22*
X137080000Y-123195000D03*
D23*
%TO.P,J6,B12,GND*%
X138200000Y-122555000D03*
%TO.P,J6,B9,VBUS*%
%TO.N,+5V*%
X139000000Y-122555000D03*
D24*
%TO.P,J6,B8*%
%TO.N,N/C*%
X139650000Y-122555000D03*
%TO.P,J6,B7,D-*%
%TO.N,USART4_RX*%
X140650000Y-122555000D03*
%TO.P,J6,B6,D+*%
%TO.N,USART4_TX*%
X142150000Y-122555000D03*
%TO.P,J6,B5,CC2*%
%TO.N,unconnected-(J6-CC2-PadB5)*%
X143150000Y-122555000D03*
D23*
%TO.P,J6,B4,VBUS*%
%TO.N,+5V*%
X143800000Y-122555000D03*
%TO.P,J6,B1,GND*%
%TO.N,GND*%
X144600000Y-122555000D03*
%TO.P,J6,A12,GND*%
X144600000Y-122555000D03*
%TO.P,J6,A9,VBUS*%
%TO.N,+5V*%
X143800000Y-122555000D03*
D24*
%TO.P,J6,A8*%
%TO.N,N/C*%
X142650000Y-122555000D03*
%TO.P,J6,A7,D-*%
%TO.N,USART4_RX*%
X141650000Y-122555000D03*
%TO.P,J6,A6,D+*%
%TO.N,USART4_TX*%
X141150000Y-122555000D03*
%TO.P,J6,A5,CC1*%
%TO.N,unconnected-(J6-CC1-PadA5)*%
X140150000Y-122555000D03*
D23*
%TO.P,J6,A4,VBUS*%
%TO.N,+5V*%
X139000000Y-122555000D03*
%TO.P,J6,A1,GND*%
%TO.N,GND*%
X138200000Y-122555000D03*
%TD*%
D17*
%TO.P,J4,S1,SHIELD*%
%TO.N,GND*%
X175275000Y-84380000D03*
D18*
X171095000Y-84380000D03*
D17*
X175275000Y-93020000D03*
D18*
X171095000Y-93020000D03*
D25*
%TO.P,J4,B12,GND*%
X170455000Y-91900000D03*
%TO.P,J4,B9,VBUS*%
%TO.N,+5V*%
X170455000Y-91100000D03*
D26*
%TO.P,J4,B8*%
%TO.N,N/C*%
X170455000Y-90450000D03*
%TO.P,J4,B7,D-*%
%TO.N,USART2_RX*%
X170455000Y-89450000D03*
%TO.P,J4,B6,D+*%
%TO.N,USART2_TX*%
X170455000Y-87950000D03*
%TO.P,J4,B5,CC2*%
%TO.N,unconnected-(J4-CC2-PadB5)*%
X170455000Y-86950000D03*
D25*
%TO.P,J4,B4,VBUS*%
%TO.N,+5V*%
X170455000Y-86300000D03*
%TO.P,J4,B1,GND*%
%TO.N,GND*%
X170455000Y-85500000D03*
%TO.P,J4,A12,GND*%
X170455000Y-85500000D03*
%TO.P,J4,A9,VBUS*%
%TO.N,+5V*%
X170455000Y-86300000D03*
D26*
%TO.P,J4,A8*%
%TO.N,N/C*%
X170455000Y-87450000D03*
%TO.P,J4,A7,D-*%
%TO.N,USART2_RX*%
X170455000Y-88450000D03*
%TO.P,J4,A6,D+*%
%TO.N,USART2_TX*%
X170455000Y-88950000D03*
%TO.P,J4,A5,CC1*%
%TO.N,unconnected-(J4-CC1-PadA5)*%
X170455000Y-89950000D03*
D25*
%TO.P,J4,A4,VBUS*%
%TO.N,+5V*%
X170455000Y-91100000D03*
%TO.P,J4,A1,GND*%
%TO.N,GND*%
X170455000Y-91900000D03*
%TD*%
D21*
%TO.P,J5,S1,SHIELD*%
%TO.N,GND*%
X133080000Y-72665000D03*
D22*
X133080000Y-76845000D03*
D21*
X141720000Y-72665000D03*
D22*
X141720000Y-76845000D03*
D27*
%TO.P,J5,B12,GND*%
X140600000Y-77485000D03*
%TO.P,J5,B9,VBUS*%
%TO.N,+5V*%
X139800000Y-77485000D03*
D28*
%TO.P,J5,B8*%
%TO.N,N/C*%
X139150000Y-77485000D03*
%TO.P,J5,B7,D-*%
%TO.N,USART3_RX*%
X138150000Y-77485000D03*
%TO.P,J5,B6,D+*%
%TO.N,USART3_TX*%
X136650000Y-77485000D03*
%TO.P,J5,B5,CC2*%
%TO.N,unconnected-(J5-CC2-PadB5)*%
X135650000Y-77485000D03*
D27*
%TO.P,J5,B4,VBUS*%
%TO.N,+5V*%
X135000000Y-77485000D03*
%TO.P,J5,B1,GND*%
%TO.N,GND*%
X134200000Y-77485000D03*
%TO.P,J5,A12,GND*%
X134200000Y-77485000D03*
%TO.P,J5,A9,VBUS*%
%TO.N,+5V*%
X135000000Y-77485000D03*
D28*
%TO.P,J5,A8*%
%TO.N,N/C*%
X136150000Y-77485000D03*
%TO.P,J5,A7,D-*%
%TO.N,USART3_RX*%
X137150000Y-77485000D03*
%TO.P,J5,A6,D+*%
%TO.N,USART3_TX*%
X137650000Y-77485000D03*
%TO.P,J5,A5,CC1*%
%TO.N,unconnected-(J5-CC1-PadA5)*%
X138650000Y-77485000D03*
D27*
%TO.P,J5,A4,VBUS*%
%TO.N,+5V*%
X139800000Y-77485000D03*
%TO.P,J5,A1,GND*%
%TO.N,GND*%
X140600000Y-77485000D03*
%TD*%
D21*
%TO.P,J3,S1,SHIELD*%
%TO.N,GND*%
X148180000Y-72525000D03*
D22*
X148180000Y-76705000D03*
D21*
X156820000Y-72525000D03*
D22*
X156820000Y-76705000D03*
D27*
%TO.P,J3,B12,GND*%
X155700000Y-77345000D03*
%TO.P,J3,B9,VBUS*%
%TO.N,+5V*%
X154900000Y-77345000D03*
D28*
%TO.P,J3,B8*%
%TO.N,N/C*%
X154250000Y-77345000D03*
%TO.P,J3,B7,D-*%
%TO.N,USART1_RX*%
X153250000Y-77345000D03*
%TO.P,J3,B6,D+*%
%TO.N,USART1_TX*%
X151750000Y-77345000D03*
%TO.P,J3,B5,CC2*%
%TO.N,unconnected-(J3-CC2-PadB5)*%
X150750000Y-77345000D03*
D27*
%TO.P,J3,B4,VBUS*%
%TO.N,+5V*%
X150100000Y-77345000D03*
%TO.P,J3,B1,GND*%
%TO.N,GND*%
X149300000Y-77345000D03*
%TO.P,J3,A12,GND*%
X149300000Y-77345000D03*
%TO.P,J3,A9,VBUS*%
%TO.N,+5V*%
X150100000Y-77345000D03*
D28*
%TO.P,J3,A8*%
%TO.N,N/C*%
X151250000Y-77345000D03*
%TO.P,J3,A7,D-*%
%TO.N,USART1_RX*%
X152250000Y-77345000D03*
%TO.P,J3,A6,D+*%
%TO.N,USART1_TX*%
X152750000Y-77345000D03*
%TO.P,J3,A5,CC1*%
%TO.N,unconnected-(J3-CC1-PadA5)*%
X153750000Y-77345000D03*
D27*
%TO.P,J3,A4,VBUS*%
%TO.N,+5V*%
X154900000Y-77345000D03*
%TO.P,J3,A1,GND*%
%TO.N,GND*%
X155700000Y-77345000D03*
%TD*%
D16*
%TO.P,SW1,4*%
%TO.N,N/C*%
X167475000Y-100450000D03*
%TO.P,SW1,2,2*%
%TO.N,NRST*%
X159525000Y-100450000D03*
%TO.P,SW1,3*%
%TO.N,N/C*%
X167475000Y-95950000D03*
%TO.P,SW1,1,1*%
%TO.N,GND*%
X159525000Y-95950000D03*
%TD*%
D29*
%TO.P,H4,1,1*%
%TO.N,GND*%
X175400000Y-125000000D03*
X174697056Y-126697056D03*
X174697056Y-123302944D03*
X173000000Y-127400000D03*
D30*
X173000000Y-125000000D03*
D29*
X173000000Y-122600000D03*
X171302944Y-126697056D03*
X171302944Y-123302944D03*
X170600000Y-125000000D03*
%TD*%
%TO.P,H2,1,1*%
%TO.N,GND*%
X175400000Y-75000000D03*
X174697056Y-76697056D03*
X174697056Y-73302944D03*
X173000000Y-77400000D03*
D30*
X173000000Y-75000000D03*
D29*
X173000000Y-72600000D03*
X171302944Y-76697056D03*
X171302944Y-73302944D03*
X170600000Y-75000000D03*
%TD*%
%TO.P,H1,1,1*%
%TO.N,GND*%
X125400000Y-75000000D03*
X124697056Y-76697056D03*
X124697056Y-73302944D03*
X123000000Y-77400000D03*
D30*
X123000000Y-75000000D03*
D29*
X123000000Y-72600000D03*
X121302944Y-76697056D03*
X121302944Y-73302944D03*
X120600000Y-75000000D03*
%TD*%
%TO.P,H3,1,1*%
%TO.N,GND*%
X125400000Y-125000000D03*
X124697056Y-126697056D03*
X124697056Y-123302944D03*
X123000000Y-127400000D03*
D30*
X123000000Y-125000000D03*
D29*
X123000000Y-122600000D03*
X121302944Y-126697056D03*
X121302944Y-123302944D03*
X120600000Y-125000000D03*
%TD*%
D31*
%TO.P,R2,1*%
%TO.N,Net-(D1-K)*%
X122097500Y-92000000D03*
%TO.P,R2,2*%
%TO.N,GND*%
X121077500Y-92000000D03*
%TD*%
D32*
%TO.P,D1,1,K*%
%TO.N,Net-(D1-K)*%
X123500000Y-92000000D03*
%TO.P,D1,2,A*%
%TO.N,+5V*%
X125075000Y-92000000D03*
%TD*%
D33*
%TO.P,U1,1,VBAT*%
%TO.N,+3.3V*%
X148775000Y-103150000D03*
%TO.P,U1,2,PC13*%
%TO.N,Net-(U1-PC13)*%
X148775000Y-102650000D03*
%TO.P,U1,3,PC14*%
%TO.N,unconnected-(U1-PC14-Pad3)*%
X148775000Y-102150000D03*
%TO.P,U1,4,PC15*%
%TO.N,unconnected-(U1-PC15-Pad4)*%
X148775000Y-101650000D03*
%TO.P,U1,5,PF0*%
%TO.N,unconnected-(U1-PF0-Pad5)*%
X148775000Y-101150000D03*
%TO.P,U1,6,PF1*%
%TO.N,unconnected-(U1-PF1-Pad6)*%
X148775000Y-100650000D03*
%TO.P,U1,7,PG10*%
%TO.N,NRST*%
X148775000Y-100150000D03*
%TO.P,U1,8,PC0*%
%TO.N,unconnected-(U1-PC0-Pad8)*%
X148775000Y-99650000D03*
%TO.P,U1,9,PC1*%
%TO.N,unconnected-(U1-PC1-Pad9)*%
X148775000Y-99150000D03*
%TO.P,U1,10,PC2*%
%TO.N,unconnected-(U1-PC2-Pad10)*%
X148775000Y-98650000D03*
%TO.P,U1,11,PC3*%
%TO.N,unconnected-(U1-PC3-Pad11)*%
X148775000Y-98150000D03*
%TO.P,U1,12,PA0*%
%TO.N,unconnected-(U1-PA0-Pad12)*%
X148775000Y-97650000D03*
%TO.P,U1,13,PA1*%
%TO.N,unconnected-(U1-PA1-Pad13)*%
X148775000Y-97150000D03*
%TO.P,U1,14,PA2*%
%TO.N,USART2_TX*%
X148775000Y-96650000D03*
%TO.P,U1,15,VSS*%
%TO.N,GND*%
X148775000Y-96150000D03*
%TO.P,U1,16,VDD*%
%TO.N,+3.3V*%
X148775000Y-95650000D03*
D34*
%TO.P,U1,17,PA3*%
%TO.N,USART2_RX*%
X146850000Y-93725000D03*
%TO.P,U1,18,PA4*%
%TO.N,unconnected-(U1-PA4-Pad18)*%
X146350000Y-93725000D03*
%TO.P,U1,19,PA5*%
%TO.N,unconnected-(U1-PA5-Pad19)*%
X145850000Y-93725000D03*
%TO.P,U1,20,PA6*%
%TO.N,unconnected-(U1-PA6-Pad20)*%
X145350000Y-93725000D03*
%TO.P,U1,21,PA7*%
%TO.N,unconnected-(U1-PA7-Pad21)*%
X144850000Y-93725000D03*
%TO.P,U1,22,PC4*%
%TO.N,USART1_TX*%
X144350000Y-93725000D03*
%TO.P,U1,23,PC5*%
%TO.N,USART1_RX*%
X143850000Y-93725000D03*
%TO.P,U1,24,PB0*%
%TO.N,unconnected-(U1-PB0-Pad24)*%
X143350000Y-93725000D03*
%TO.P,U1,25,PB1*%
%TO.N,unconnected-(U1-PB1-Pad25)*%
X142850000Y-93725000D03*
%TO.P,U1,26,PB2*%
%TO.N,unconnected-(U1-PB2-Pad26)*%
X142350000Y-93725000D03*
%TO.P,U1,27,VSSA*%
%TO.N,GND*%
X141850000Y-93725000D03*
%TO.P,U1,28,VREF+*%
%TO.N,unconnected-(U1-VREF+-Pad28)*%
X141350000Y-93725000D03*
%TO.P,U1,29,VDDA*%
%TO.N,+3.3V*%
X140850000Y-93725000D03*
%TO.P,U1,30,PB10*%
%TO.N,USART3_TX*%
X140350000Y-93725000D03*
%TO.P,U1,31,VSS*%
%TO.N,GND*%
X139850000Y-93725000D03*
%TO.P,U1,32,VDD*%
%TO.N,+3.3V*%
X139350000Y-93725000D03*
D33*
%TO.P,U1,33,PB11*%
%TO.N,USART3_RX*%
X137425000Y-95650000D03*
%TO.P,U1,34,PB12*%
%TO.N,unconnected-(U1-PB12-Pad34)*%
X137425000Y-96150000D03*
%TO.P,U1,35,PB13*%
%TO.N,unconnected-(U1-PB13-Pad35)*%
X137425000Y-96650000D03*
%TO.P,U1,36,PB14*%
%TO.N,unconnected-(U1-PB14-Pad36)*%
X137425000Y-97150000D03*
%TO.P,U1,37,PB15*%
%TO.N,unconnected-(U1-PB15-Pad37)*%
X137425000Y-97650000D03*
%TO.P,U1,38,PC6*%
%TO.N,unconnected-(U1-PC6-Pad38)*%
X137425000Y-98150000D03*
%TO.P,U1,39,PC7*%
%TO.N,unconnected-(U1-PC7-Pad39)*%
X137425000Y-98650000D03*
%TO.P,U1,40,PC8*%
%TO.N,unconnected-(U1-PC8-Pad40)*%
X137425000Y-99150000D03*
%TO.P,U1,41,PC9*%
%TO.N,unconnected-(U1-PC9-Pad41)*%
X137425000Y-99650000D03*
%TO.P,U1,42,PA8*%
%TO.N,unconnected-(U1-PA8-Pad42)*%
X137425000Y-100150000D03*
%TO.P,U1,43,PA9*%
%TO.N,unconnected-(U1-PA9-Pad43)*%
X137425000Y-100650000D03*
%TO.P,U1,44,PA10*%
%TO.N,unconnected-(U1-PA10-Pad44)*%
X137425000Y-101150000D03*
%TO.P,U1,45,PA11*%
%TO.N,USB_DM*%
X137425000Y-101650000D03*
%TO.P,U1,46,PA12*%
%TO.N,USB_DP*%
X137425000Y-102150000D03*
%TO.P,U1,47,VSS*%
%TO.N,GND*%
X137425000Y-102650000D03*
%TO.P,U1,48,VDD*%
%TO.N,+3.3V*%
X137425000Y-103150000D03*
D34*
%TO.P,U1,49,PA13*%
%TO.N,SWDIO*%
X139350000Y-105075000D03*
%TO.P,U1,50,PA14*%
%TO.N,SWCLK*%
X139850000Y-105075000D03*
%TO.P,U1,51,PA15*%
%TO.N,unconnected-(U1-PA15-Pad51)*%
X140350000Y-105075000D03*
%TO.P,U1,52,PC10*%
%TO.N,USART4_TX*%
X140850000Y-105075000D03*
%TO.P,U1,53,PC11*%
%TO.N,USART4_RX*%
X141350000Y-105075000D03*
%TO.P,U1,54,PC12*%
%TO.N,UART5_TX*%
X141850000Y-105075000D03*
%TO.P,U1,55,PD2*%
%TO.N,UART5_RX*%
X142350000Y-105075000D03*
%TO.P,U1,56,PB3*%
%TO.N,SWO*%
X142850000Y-105075000D03*
%TO.P,U1,57,PB4*%
%TO.N,unconnected-(U1-PB4-Pad57)*%
X143350000Y-105075000D03*
%TO.P,U1,58,PB5*%
%TO.N,unconnected-(U1-PB5-Pad58)*%
X143850000Y-105075000D03*
%TO.P,U1,59,PB6*%
%TO.N,unconnected-(U1-PB6-Pad59)*%
X144350000Y-105075000D03*
%TO.P,U1,60,PB7*%
%TO.N,unconnected-(U1-PB7-Pad60)*%
X144850000Y-105075000D03*
%TO.P,U1,61,PB8*%
%TO.N,unconnected-(U1-PB8-Pad61)*%
X145350000Y-105075000D03*
%TO.P,U1,62,PB9*%
%TO.N,unconnected-(U1-PB9-Pad62)*%
X145850000Y-105075000D03*
%TO.P,U1,63,VSS*%
%TO.N,GND*%
X146350000Y-105075000D03*
%TO.P,U1,64,VDD*%
%TO.N,+3.3V*%
X146850000Y-105075000D03*
%TD*%
D35*
%TO.P,R1,1*%
%TO.N,Net-(U1-PC13)*%
X150590000Y-102700000D03*
%TO.P,R1,2*%
%TO.N,Net-(R1-Pad2)*%
X151610000Y-102700000D03*
%TD*%
D36*
%TO.P,D2,1,K*%
%TO.N,Net-(D2-K)*%
X131900000Y-95500000D03*
%TO.P,D2,2,A*%
%TO.N,+3.3V*%
X131900000Y-93925000D03*
%TD*%
D37*
%TO.P,R3,1*%
%TO.N,Net-(D2-K)*%
X131900000Y-96892500D03*
%TO.P,R3,2*%
%TO.N,GND*%
X131900000Y-97912500D03*
%TD*%
D38*
%TO.P,J7,1,NC*%
%TO.N,unconnected-(J7-NC-Pad1)*%
X154900000Y-120110000D03*
%TO.P,J7,2,NC*%
%TO.N,unconnected-(J7-NC-Pad2)*%
X151000000Y-120110000D03*
%TO.P,J7,3,VCC*%
%TO.N,+3.3V*%
X154900000Y-118840000D03*
%TO.P,J7,4,JTMS/SWDIO*%
%TO.N,SWDIO*%
X151000000Y-118840000D03*
%TO.P,J7,5,GND*%
%TO.N,GND*%
X154900000Y-117570000D03*
%TO.P,J7,6,JCLK/SWCLK*%
%TO.N,SWCLK*%
X151000000Y-117570000D03*
%TO.P,J7,7,GND*%
%TO.N,GND*%
X154900000Y-116300000D03*
%TO.P,J7,8,JTDO/SWO*%
%TO.N,SWO*%
X151000000Y-116300000D03*
%TO.P,J7,9,JRCLK/NC*%
%TO.N,unconnected-(J7-JRCLK{slash}NC-Pad9)*%
X154900000Y-115030000D03*
%TO.P,J7,10,JTDI/NC*%
%TO.N,unconnected-(J7-JTDI{slash}NC-Pad10)*%
X151000000Y-115030000D03*
%TO.P,J7,11,GNDDetect*%
%TO.N,GND*%
X154900000Y-113760000D03*
%TO.P,J7,12,~{RST}*%
%TO.N,NRST*%
X151000000Y-113760000D03*
%TO.P,J7,13,VCP_RX*%
%TO.N,UART5_RX*%
X154900000Y-112490000D03*
%TO.P,J7,14,VCP_TX*%
%TO.N,UART5_TX*%
X151000000Y-112490000D03*
%TD*%
D39*
%TO.P,U2,4,ADJ/GND_2*%
%TO.N,GND*%
X129700000Y-85300000D03*
D40*
%TO.P,U2,3,OUTPUT*%
%TO.N,+3.3V*%
X132000000Y-92000000D03*
%TO.P,U2,2,ADJ/GND_1*%
%TO.N,GND*%
X129700000Y-92000000D03*
%TO.P,U2,1,INPUT*%
%TO.N,+5V*%
X127400000Y-92000000D03*
%TD*%
D10*
%TO.P,C12,1*%
%TO.N,Net-(U1-PC13)*%
X150620000Y-101500000D03*
%TO.P,C12,2*%
%TO.N,GND*%
X151580000Y-101500000D03*
%TD*%
D35*
%TO.P,R4,1*%
%TO.N,+3.3V*%
X150490000Y-104100000D03*
%TO.P,R4,2*%
%TO.N,Net-(R1-Pad2)*%
X151510000Y-104100000D03*
%TD*%
D10*
%TO.P,C1,1*%
%TO.N,NRST*%
X150500000Y-100200000D03*
%TO.P,C1,2*%
%TO.N,GND*%
X151460000Y-100200000D03*
%TD*%
D41*
%TO.N,USART4_TX*%
X140200000Y-121300000D03*
X142200000Y-123800000D03*
%TO.N,USART3_TX*%
X135200000Y-79200000D03*
%TO.N,+5V*%
X132500000Y-79100000D03*
%TO.N,+3.3V*%
X134900000Y-95100000D03*
%TO.N,USART3_RX*%
X136900000Y-79900000D03*
X138700000Y-80500000D03*
%TO.N,USART3_TX*%
X138300000Y-81600000D03*
%TO.N,+3.3V*%
X140408677Y-91130468D03*
%TO.N,GND*%
X129600000Y-93800000D03*
X137374147Y-93608059D03*
%TO.N,USART1_TX*%
X154100000Y-79600000D03*
X150000000Y-80400000D03*
%TO.N,NRST*%
X154300000Y-102600000D03*
X147100000Y-113000000D03*
%TO.N,SWO*%
X145123754Y-106433118D03*
X147600000Y-115000000D03*
%TO.N,SWCLK*%
X139500000Y-107200000D03*
X146500000Y-117900000D03*
%TO.N,SWDIO*%
X138300000Y-107100000D03*
X146300000Y-119700000D03*
%TO.N,USART4_TX*%
X140500000Y-120400000D03*
X142500000Y-120600000D03*
%TO.N,USART2_RX*%
X148200000Y-93500000D03*
X168300000Y-90200000D03*
X168400000Y-87800000D03*
%TO.N,GND*%
X134962729Y-101735131D03*
X137800000Y-105100000D03*
%TO.N,USB_DP*%
X127854701Y-101467947D03*
X127400000Y-99525000D03*
%TO.N,+3.3V*%
X156400000Y-122000000D03*
X134700000Y-102700000D03*
X136380000Y-93500000D03*
X138500000Y-93600000D03*
X146480000Y-92000000D03*
X152000000Y-95000000D03*
X148800000Y-94800000D03*
X150500000Y-105000000D03*
X147700000Y-105100000D03*
X147200000Y-107800000D03*
%TO.N,+5V*%
X143800000Y-120500000D03*
X139000000Y-120700000D03*
X127300000Y-102300000D03*
X127200000Y-97700000D03*
X125087500Y-90800000D03*
X124887500Y-87800000D03*
X168800000Y-91100000D03*
X168800000Y-86300000D03*
X150100000Y-79100000D03*
X154900000Y-79000000D03*
X139800000Y-79300000D03*
%TD*%
D42*
%TO.N,USART1_RX*%
X152250000Y-76625822D02*
X152250000Y-77345000D01*
X152506822Y-76369000D02*
X152250000Y-76625822D01*
X152993178Y-76369000D02*
X152506822Y-76369000D01*
X153250000Y-76625822D02*
X152993178Y-76369000D01*
X153250000Y-77345000D02*
X153250000Y-76625822D01*
%TO.N,USART4_TX*%
X140614178Y-121300000D02*
X140200000Y-121300000D01*
X141150000Y-121835822D02*
X140614178Y-121300000D01*
X141150000Y-122555000D02*
X141150000Y-121835822D01*
X142150000Y-123750000D02*
X142200000Y-123800000D01*
X142150000Y-122555000D02*
X142150000Y-123750000D01*
%TO.N,USART4_RX*%
X141650000Y-123322178D02*
X141650000Y-122555000D01*
X140650000Y-123274178D02*
X140906822Y-123531000D01*
X141441178Y-123531000D02*
X141650000Y-123322178D01*
X140650000Y-122555000D02*
X140650000Y-123274178D01*
X140906822Y-123531000D02*
X141441178Y-123531000D01*
%TO.N,USART3_TX*%
X135654178Y-79200000D02*
X135200000Y-79200000D01*
X136650000Y-78204178D02*
X135654178Y-79200000D01*
X136650000Y-77485000D02*
X136650000Y-78204178D01*
%TO.N,+5V*%
X133912322Y-79100000D02*
X132500000Y-79100000D01*
X132500000Y-79100000D02*
X132600000Y-79100000D01*
X135000000Y-78012322D02*
X133912322Y-79100000D01*
X135000000Y-77485000D02*
X135000000Y-78012322D01*
%TO.N,+3.3V*%
X133725000Y-93925000D02*
X134900000Y-95100000D01*
X131900000Y-93925000D02*
X133725000Y-93925000D01*
%TO.N,USART3_RX*%
X137150000Y-79650000D02*
X136900000Y-79900000D01*
X137150000Y-77485000D02*
X137150000Y-79650000D01*
X137150000Y-78350000D02*
X137150000Y-77485000D01*
X135654000Y-79846000D02*
X137150000Y-78350000D01*
X135654000Y-93879000D02*
X135654000Y-79846000D01*
X137425000Y-95650000D02*
X135654000Y-93879000D01*
X138150000Y-79950000D02*
X138700000Y-80500000D01*
X138150000Y-77485000D02*
X138150000Y-79950000D01*
%TO.N,USART3_TX*%
X137650000Y-80950000D02*
X138300000Y-81600000D01*
X137650000Y-77485000D02*
X137650000Y-80950000D01*
%TO.N,GND*%
X137380000Y-91967096D02*
X137380000Y-92600000D01*
X137983096Y-91364000D02*
X137380000Y-91967096D01*
X138656904Y-91364000D02*
X137983096Y-91364000D01*
X139280000Y-91987096D02*
X138656904Y-91364000D01*
X139280000Y-92000000D02*
X139280000Y-91987096D01*
X142930822Y-91800000D02*
X142950000Y-91800000D01*
X141850000Y-92880822D02*
X142930822Y-91800000D01*
X141850000Y-93725000D02*
X141850000Y-92880822D01*
%TO.N,+3.3V*%
X141078209Y-91800000D02*
X140408677Y-91130468D01*
X141400000Y-91800000D02*
X141078209Y-91800000D01*
X138320000Y-93420000D02*
X138500000Y-93600000D01*
X138320000Y-92000000D02*
X138320000Y-93420000D01*
X140850000Y-93725000D02*
X140850000Y-92350000D01*
X140850000Y-92350000D02*
X141400000Y-91800000D01*
%TO.N,+5V*%
X127400000Y-92000000D02*
X125075000Y-92000000D01*
%TO.N,GND*%
X129700000Y-93700000D02*
X129600000Y-93800000D01*
X129700000Y-92000000D02*
X129700000Y-93700000D01*
%TO.N,+3.3V*%
X132000000Y-93825000D02*
X131900000Y-93925000D01*
X132000000Y-92000000D02*
X132000000Y-93825000D01*
%TO.N,GND*%
X137380000Y-93602206D02*
X137374147Y-93608059D01*
X137380000Y-92600000D02*
X137380000Y-93602206D01*
X139850000Y-92570000D02*
X139280000Y-92000000D01*
X139850000Y-93725000D02*
X139850000Y-92570000D01*
%TO.N,USART3_TX*%
X140374000Y-92121096D02*
X140374000Y-93900000D01*
X137650000Y-89397096D02*
X140374000Y-92121096D01*
X137650000Y-77485000D02*
X137650000Y-89397096D01*
%TO.N,+3.3V*%
X138200000Y-92000000D02*
X138320000Y-92000000D01*
%TO.N,GND*%
X146350000Y-106570000D02*
X146220000Y-106700000D01*
X146350000Y-105075000D02*
X146350000Y-106570000D01*
%TO.N,USART1_TX*%
X144350000Y-87714530D02*
X152750000Y-79314530D01*
X144350000Y-93725000D02*
X144350000Y-87714530D01*
X152750000Y-79314530D02*
X152750000Y-77345000D01*
%TO.N,USART1_RX*%
X152250000Y-79176720D02*
X152250000Y-77345000D01*
X143850000Y-87576720D02*
X152250000Y-79176720D01*
X143850000Y-93725000D02*
X143850000Y-87576720D01*
%TO.N,USART1_TX*%
X152750000Y-78250000D02*
X154100000Y-79600000D01*
X152750000Y-77345000D02*
X152750000Y-78250000D01*
X151750000Y-78650000D02*
X150000000Y-80400000D01*
X151750000Y-77345000D02*
X151750000Y-78650000D01*
%TO.N,USART2_TX*%
X165297280Y-88100720D02*
X167674000Y-88100720D01*
X156047000Y-97351000D02*
X165297280Y-88100720D01*
X149999000Y-97034466D02*
X150315534Y-97351000D01*
X149999000Y-97029822D02*
X149999000Y-97034466D01*
X150315534Y-97351000D02*
X156047000Y-97351000D01*
X149619178Y-96650000D02*
X149999000Y-97029822D01*
X148775000Y-96650000D02*
X149619178Y-96650000D01*
%TO.N,GND*%
X150375000Y-96150000D02*
X150800000Y-96575000D01*
X148775000Y-96150000D02*
X150375000Y-96150000D01*
%TO.N,NRST*%
X154800000Y-102100000D02*
X154300000Y-102600000D01*
X154800000Y-100836000D02*
X154800000Y-102100000D01*
X154800000Y-100836000D02*
X150826001Y-100836000D01*
X147860000Y-113760000D02*
X147100000Y-113000000D01*
X151000000Y-113760000D02*
X147860000Y-113760000D01*
%TO.N,UART5_RX*%
X148087012Y-111794000D02*
X142350000Y-106056988D01*
X154204000Y-111794000D02*
X148087012Y-111794000D01*
X142350000Y-106056988D02*
X142350000Y-105075000D01*
X154900000Y-112490000D02*
X154204000Y-111794000D01*
%TO.N,SWO*%
X143363940Y-106433118D02*
X145123754Y-106433118D01*
X142850000Y-105919178D02*
X143363940Y-106433118D01*
X142850000Y-105075000D02*
X142850000Y-105919178D01*
X148900000Y-116300000D02*
X147600000Y-115000000D01*
X151000000Y-116300000D02*
X148900000Y-116300000D01*
%TO.N,USART4_TX*%
X140850000Y-120100000D02*
X140850000Y-105075000D01*
X141150000Y-120400000D02*
X140850000Y-120100000D01*
%TO.N,USART4_RX*%
X141350000Y-106387810D02*
X141350000Y-105075000D01*
X141650000Y-106687810D02*
X141350000Y-106387810D01*
X141650000Y-122555000D02*
X141650000Y-106687810D01*
%TO.N,UART5_TX*%
X148090000Y-112490000D02*
X141850000Y-106250000D01*
X141850000Y-106250000D02*
X141850000Y-105075000D01*
X151000000Y-112490000D02*
X148090000Y-112490000D01*
%TO.N,SWCLK*%
X139850000Y-106850000D02*
X139500000Y-107200000D01*
X139850000Y-105075000D02*
X139850000Y-106850000D01*
X146830000Y-117570000D02*
X146500000Y-117900000D01*
X151000000Y-117570000D02*
X146830000Y-117570000D01*
%TO.N,SWDIO*%
X139350000Y-106050000D02*
X138300000Y-107100000D01*
X139350000Y-105075000D02*
X139350000Y-106050000D01*
X147160000Y-118840000D02*
X146300000Y-119700000D01*
X151000000Y-118840000D02*
X147160000Y-118840000D01*
%TO.N,USART4_TX*%
X141150000Y-120400000D02*
X140500000Y-120400000D01*
X142500000Y-120600000D02*
X142500000Y-120868794D01*
X142300000Y-120600000D02*
X142500000Y-120600000D01*
X142150000Y-120750000D02*
X142300000Y-120600000D01*
X142150000Y-122555000D02*
X142150000Y-120750000D01*
X141150000Y-122555000D02*
X141150000Y-120400000D01*
%TO.N,USART2_RX*%
X147975000Y-93725000D02*
X148200000Y-93500000D01*
X146850000Y-93725000D02*
X147975000Y-93725000D01*
%TO.N,USART2_TX*%
X169735822Y-87950000D02*
X170455000Y-87950000D01*
X168811822Y-87026000D02*
X169735822Y-87950000D01*
X168147280Y-87026000D02*
X168811822Y-87026000D01*
X167674000Y-87499280D02*
X168147280Y-87026000D01*
X168523280Y-88950000D02*
X167674000Y-88100720D01*
X167674000Y-88100720D02*
X167674000Y-87499280D01*
X170455000Y-88950000D02*
X168523280Y-88950000D01*
%TO.N,USART2_RX*%
X169050000Y-89450000D02*
X168300000Y-90200000D01*
X170455000Y-89450000D02*
X169050000Y-89450000D01*
X169050000Y-88450000D02*
X168400000Y-87800000D01*
X170455000Y-88450000D02*
X169050000Y-88450000D01*
%TO.N,Net-(D1-K)*%
X122097500Y-92000000D02*
X123500000Y-92000000D01*
%TO.N,GND*%
X135747598Y-102520000D02*
X134962729Y-101735131D01*
X135800000Y-102520000D02*
X135747598Y-102520000D01*
X137400000Y-104700000D02*
X137800000Y-105100000D01*
X136980000Y-104700000D02*
X137400000Y-104700000D01*
X135930000Y-102650000D02*
X135800000Y-102520000D01*
X137425000Y-102650000D02*
X135930000Y-102650000D01*
%TO.N,USB_DM*%
X128900000Y-99998280D02*
X128900000Y-100250000D01*
X127099280Y-98799000D02*
X127700720Y-98799000D01*
X126648280Y-99250000D02*
X127099280Y-98799000D01*
X125445000Y-99250000D02*
X126648280Y-99250000D01*
X128900000Y-100250000D02*
X125445000Y-100250000D01*
X127700720Y-98799000D02*
X128900000Y-99998280D01*
%TO.N,USB_DP*%
X127500000Y-101113246D02*
X127854701Y-101467947D01*
X127500000Y-100750000D02*
X127500000Y-101113246D01*
X127500000Y-100750000D02*
X125445000Y-100750000D01*
X127175000Y-99750000D02*
X127400000Y-99525000D01*
X125445000Y-99750000D02*
X127175000Y-99750000D01*
%TO.N,USB_DM*%
X135180822Y-100250000D02*
X128900000Y-100250000D01*
X136580822Y-101650000D02*
X135180822Y-100250000D01*
X137425000Y-101650000D02*
X136580822Y-101650000D01*
%TO.N,USB_DP*%
X136402904Y-102150000D02*
X135002904Y-100750000D01*
X135002904Y-100750000D02*
X127500000Y-100750000D01*
X137425000Y-102150000D02*
X136402904Y-102150000D01*
%TO.N,NRST*%
X150450000Y-100150000D02*
X148775000Y-100150000D01*
X150500000Y-100200000D02*
X150450000Y-100150000D01*
X150500000Y-100509999D02*
X150500000Y-100200000D01*
X150826001Y-100836000D02*
X150500000Y-100509999D01*
X159525000Y-100450000D02*
X159139000Y-100836000D01*
X159139000Y-100836000D02*
X154800000Y-100836000D01*
%TO.N,Net-(R1-Pad2)*%
X155960000Y-108550000D02*
X151510000Y-104100000D01*
X159425000Y-108550000D02*
X155960000Y-108550000D01*
%TO.N,+3.3V*%
X156426000Y-121974000D02*
X156400000Y-122000000D01*
X156426000Y-119414000D02*
X156426000Y-121974000D01*
X155852000Y-118840000D02*
X156426000Y-119414000D01*
X154900000Y-118840000D02*
X155852000Y-118840000D01*
X154900000Y-119000000D02*
X155000000Y-119100000D01*
X154900000Y-118840000D02*
X154900000Y-119000000D01*
%TO.N,GND*%
X142900000Y-91800000D02*
X142950000Y-91800000D01*
%TO.N,+3.3V*%
X135480000Y-103480000D02*
X134700000Y-102700000D01*
X135800000Y-103480000D02*
X135480000Y-103480000D01*
X135800000Y-104480000D02*
X136020000Y-104700000D01*
X135800000Y-103480000D02*
X135800000Y-104480000D01*
X136130000Y-103150000D02*
X135800000Y-103480000D01*
X137425000Y-103150000D02*
X136130000Y-103150000D01*
%TO.N,Net-(D2-K)*%
X131900000Y-96892500D02*
X131900000Y-95500000D01*
%TO.N,+3.3V*%
X136420000Y-93460000D02*
X136380000Y-93500000D01*
X136420000Y-92600000D02*
X136420000Y-93460000D01*
X138625000Y-93725000D02*
X138500000Y-93600000D01*
X139350000Y-93725000D02*
X138625000Y-93725000D01*
X147420000Y-92000000D02*
X146480000Y-92000000D01*
X151975000Y-95025000D02*
X152000000Y-95000000D01*
X150800000Y-95025000D02*
X151975000Y-95025000D01*
X148775000Y-94825000D02*
X148800000Y-94800000D01*
X148775000Y-95650000D02*
X148775000Y-94825000D01*
%TO.N,Net-(R1-Pad2)*%
X151610000Y-104000000D02*
X151510000Y-104100000D01*
X151610000Y-102700000D02*
X151610000Y-104000000D01*
%TO.N,Net-(U1-PC13)*%
X150590000Y-101530000D02*
X150620000Y-101500000D01*
X150590000Y-102700000D02*
X150590000Y-101530000D01*
X150540000Y-102650000D02*
X150590000Y-102700000D01*
X148775000Y-102650000D02*
X150540000Y-102650000D01*
%TO.N,+3.3V*%
X148775000Y-103895000D02*
X149100000Y-104220000D01*
X148775000Y-103150000D02*
X148775000Y-103895000D01*
X150490000Y-104990000D02*
X150500000Y-105000000D01*
X150490000Y-104100000D02*
X150490000Y-104990000D01*
X150370000Y-104220000D02*
X150490000Y-104100000D01*
X149100000Y-104220000D02*
X150370000Y-104220000D01*
X147675000Y-105075000D02*
X147700000Y-105100000D01*
X146850000Y-105075000D02*
X147675000Y-105075000D01*
X147180000Y-107780000D02*
X147200000Y-107800000D01*
X147180000Y-106700000D02*
X147180000Y-107780000D01*
%TO.N,+5V*%
X143800000Y-122555000D02*
X143800000Y-120500000D01*
X139000000Y-122555000D02*
X139000000Y-120700000D01*
X127200000Y-102400000D02*
X127300000Y-102300000D01*
X125445000Y-102400000D02*
X127200000Y-102400000D01*
X127100000Y-97600000D02*
X127200000Y-97700000D01*
X125445000Y-97600000D02*
X127100000Y-97600000D01*
X125075000Y-90812500D02*
X125087500Y-90800000D01*
X125075000Y-92000000D02*
X125075000Y-90812500D01*
X124937500Y-87850000D02*
X124887500Y-87800000D01*
X124937500Y-89100000D02*
X124937500Y-87850000D01*
X170455000Y-91100000D02*
X168800000Y-91100000D01*
X170455000Y-86300000D02*
X168800000Y-86300000D01*
X150100000Y-77345000D02*
X150100000Y-79100000D01*
X154900000Y-77345000D02*
X154900000Y-79000000D01*
X139800000Y-77485000D02*
X139800000Y-79300000D01*
%TD*%
%TA.AperFunction,Conductor*%
%TO.N,GND*%
G36*
X139305703Y-91937835D02*
G01*
X139312181Y-91943867D01*
X139613350Y-92245036D01*
X139646835Y-92306359D01*
X139641851Y-92376051D01*
X139599979Y-92431984D01*
X139534515Y-92456401D01*
X139509485Y-92455656D01*
X139462732Y-92449501D01*
X139462724Y-92449500D01*
X139462720Y-92449500D01*
X139237280Y-92449500D01*
X139237275Y-92449500D01*
X139237267Y-92449501D01*
X139226387Y-92450933D01*
X139157352Y-92440163D01*
X139105099Y-92393780D01*
X139086218Y-92326510D01*
X139091133Y-92293399D01*
X139097643Y-92270993D01*
X139100500Y-92234690D01*
X139100500Y-92031548D01*
X139120185Y-91964509D01*
X139172989Y-91918754D01*
X139242147Y-91908810D01*
X139305703Y-91937835D01*
G37*
%TD.AperFunction*%
%TA.AperFunction,Conductor*%
G36*
X173002702Y-70500617D02*
G01*
X173386771Y-70517386D01*
X173397506Y-70518326D01*
X173775971Y-70568152D01*
X173786597Y-70570025D01*
X174159284Y-70652648D01*
X174169710Y-70655442D01*
X174533765Y-70770227D01*
X174543911Y-70773920D01*
X174896578Y-70920000D01*
X174906369Y-70924566D01*
X175244942Y-71100816D01*
X175254310Y-71106224D01*
X175576244Y-71311318D01*
X175585105Y-71317523D01*
X175887930Y-71549889D01*
X175896217Y-71556843D01*
X176177635Y-71814715D01*
X176185284Y-71822364D01*
X176443156Y-72103782D01*
X176450110Y-72112069D01*
X176682476Y-72414894D01*
X176688681Y-72423755D01*
X176893775Y-72745689D01*
X176899183Y-72755057D01*
X177075430Y-73093623D01*
X177080002Y-73103427D01*
X177226075Y-73456078D01*
X177229775Y-73466244D01*
X177344554Y-73830278D01*
X177347354Y-73840727D01*
X177429971Y-74213389D01*
X177431849Y-74224042D01*
X177481671Y-74602473D01*
X177482614Y-74613249D01*
X177499382Y-74997297D01*
X177499500Y-75002706D01*
X177499500Y-124997293D01*
X177499382Y-125002702D01*
X177482614Y-125386750D01*
X177481671Y-125397526D01*
X177431849Y-125775957D01*
X177429971Y-125786610D01*
X177347354Y-126159272D01*
X177344554Y-126169721D01*
X177229775Y-126533755D01*
X177226075Y-126543921D01*
X177080002Y-126896572D01*
X177075430Y-126906376D01*
X176899183Y-127244942D01*
X176893775Y-127254310D01*
X176688681Y-127576244D01*
X176682476Y-127585105D01*
X176450110Y-127887930D01*
X176443156Y-127896217D01*
X176185284Y-128177635D01*
X176177635Y-128185284D01*
X175896217Y-128443156D01*
X175887930Y-128450110D01*
X175585105Y-128682476D01*
X175576244Y-128688681D01*
X175254310Y-128893775D01*
X175244942Y-128899183D01*
X174906376Y-129075430D01*
X174896572Y-129080002D01*
X174543921Y-129226075D01*
X174533755Y-129229775D01*
X174169721Y-129344554D01*
X174159272Y-129347354D01*
X173786610Y-129429971D01*
X173775957Y-129431849D01*
X173397526Y-129481671D01*
X173386750Y-129482614D01*
X173002703Y-129499382D01*
X172997294Y-129499500D01*
X123002706Y-129499500D01*
X122997297Y-129499382D01*
X122613249Y-129482614D01*
X122602473Y-129481671D01*
X122224042Y-129431849D01*
X122213389Y-129429971D01*
X121840727Y-129347354D01*
X121830278Y-129344554D01*
X121466244Y-129229775D01*
X121456078Y-129226075D01*
X121103427Y-129080002D01*
X121093623Y-129075430D01*
X120755057Y-128899183D01*
X120745689Y-128893775D01*
X120423755Y-128688681D01*
X120414894Y-128682476D01*
X120112069Y-128450110D01*
X120103782Y-128443156D01*
X119822364Y-128185284D01*
X119814715Y-128177635D01*
X119556843Y-127896217D01*
X119549889Y-127887930D01*
X119317523Y-127585105D01*
X119311318Y-127576244D01*
X119106224Y-127254310D01*
X119100816Y-127244942D01*
X118924569Y-126906376D01*
X118919997Y-126896572D01*
X118773924Y-126543921D01*
X118770224Y-126533755D01*
X118655442Y-126169710D01*
X118652648Y-126159284D01*
X118570025Y-125786597D01*
X118568152Y-125775971D01*
X118518326Y-125397506D01*
X118517386Y-125386771D01*
X118500618Y-125002702D01*
X118500500Y-124997293D01*
X118500500Y-97034234D01*
X123729500Y-97034234D01*
X123729500Y-97185765D01*
X123768719Y-97332136D01*
X123793603Y-97375236D01*
X123844485Y-97463365D01*
X123951635Y-97570515D01*
X124082865Y-97646281D01*
X124202594Y-97678362D01*
X124262254Y-97714726D01*
X124292509Y-97776002D01*
X124294500Y-97786977D01*
X124294500Y-97815694D01*
X124297402Y-97852569D01*
X124321357Y-97935023D01*
X124322500Y-97941322D01*
X124319449Y-97969950D01*
X124319368Y-97998730D01*
X124315100Y-98010773D01*
X124315098Y-98010797D01*
X124315096Y-98010800D01*
X124315086Y-98010813D01*
X124315056Y-98010897D01*
X124314778Y-98011571D01*
X124309312Y-98024766D01*
X124294500Y-98137272D01*
X124294500Y-98362727D01*
X124310374Y-98483292D01*
X124307399Y-98483683D01*
X124307399Y-98516316D01*
X124310374Y-98516708D01*
X124309313Y-98524762D01*
X124309313Y-98524764D01*
X124305938Y-98550393D01*
X124294500Y-98637272D01*
X124294500Y-98862727D01*
X124310374Y-98983292D01*
X124307399Y-98983683D01*
X124307399Y-99016316D01*
X124310374Y-99016708D01*
X124309313Y-99024762D01*
X124309313Y-99024764D01*
X124305938Y-99050393D01*
X124294500Y-99137272D01*
X124294500Y-99362727D01*
X124310374Y-99483292D01*
X124307399Y-99483683D01*
X124307399Y-99516316D01*
X124310374Y-99516708D01*
X124309313Y-99524762D01*
X124309313Y-99524764D01*
X124305938Y-99550393D01*
X124294500Y-99637272D01*
X124294500Y-99862727D01*
X124310374Y-99983292D01*
X124307399Y-99983683D01*
X124307399Y-100016316D01*
X124310374Y-100016708D01*
X124309313Y-100024762D01*
X124309313Y-100024764D01*
X124305949Y-100050316D01*
X124294500Y-100137272D01*
X124294500Y-100362727D01*
X124310374Y-100483292D01*
X124307399Y-100483683D01*
X124307399Y-100516316D01*
X124310374Y-100516708D01*
X124309313Y-100524762D01*
X124309313Y-100524764D01*
X124305938Y-100550393D01*
X124294500Y-100637272D01*
X124294500Y-100862727D01*
X124310374Y-100983292D01*
X124307399Y-100983683D01*
X124307399Y-101016316D01*
X124310374Y-101016708D01*
X124309313Y-101024762D01*
X124309313Y-101024764D01*
X124305938Y-101050393D01*
X124294500Y-101137272D01*
X124294500Y-101362727D01*
X124305499Y-101446271D01*
X124308431Y-101468540D01*
X124310374Y-101483292D01*
X124307399Y-101483683D01*
X124307399Y-101516316D01*
X124310374Y-101516708D01*
X124309313Y-101524762D01*
X124309313Y-101524764D01*
X124306808Y-101543793D01*
X124294500Y-101637272D01*
X124294500Y-101862727D01*
X124309313Y-101975235D01*
X124315053Y-101989094D01*
X124316964Y-102006877D01*
X124323792Y-102023406D01*
X124321510Y-102049180D01*
X124322519Y-102058564D01*
X124322499Y-102058676D01*
X124321354Y-102064986D01*
X124297402Y-102147431D01*
X124294500Y-102184306D01*
X124294500Y-102213020D01*
X124292509Y-102223996D01*
X124281641Y-102245655D01*
X124274815Y-102268902D01*
X124266254Y-102276319D01*
X124261174Y-102286445D01*
X124240322Y-102298789D01*
X124222011Y-102314657D01*
X124202593Y-102321638D01*
X124082865Y-102353719D01*
X124082863Y-102353719D01*
X124082863Y-102353720D01*
X123951635Y-102429485D01*
X123951632Y-102429487D01*
X123844487Y-102536632D01*
X123844485Y-102536635D01*
X123768719Y-102667863D01*
X123737395Y-102784769D01*
X123729500Y-102814234D01*
X123729500Y-102965766D01*
X123745784Y-103026540D01*
X123768719Y-103112136D01*
X123784456Y-103139393D01*
X123844485Y-103243365D01*
X123951635Y-103350515D01*
X124082865Y-103426281D01*
X124229234Y-103465500D01*
X124229236Y-103465500D01*
X124380764Y-103465500D01*
X124380766Y-103465500D01*
X124527135Y-103426281D01*
X124658365Y-103350515D01*
X124765515Y-103243365D01*
X124765515Y-103243364D01*
X124771262Y-103237618D01*
X124773314Y-103239670D01*
X124818446Y-103206710D01*
X124870131Y-103199778D01*
X124871352Y-103199874D01*
X124879306Y-103200500D01*
X124879314Y-103200500D01*
X126010686Y-103200500D01*
X126010694Y-103200500D01*
X126047569Y-103197598D01*
X126047571Y-103197597D01*
X126047573Y-103197597D01*
X126128662Y-103174038D01*
X126205398Y-103151744D01*
X126346865Y-103068081D01*
X126346870Y-103068076D01*
X126353128Y-103061819D01*
X126414451Y-103028334D01*
X126440809Y-103025500D01*
X126727315Y-103025500D01*
X126794354Y-103045185D01*
X126796203Y-103046396D01*
X126873453Y-103098013D01*
X127037334Y-103165894D01*
X127037336Y-103165894D01*
X127037341Y-103165896D01*
X127211304Y-103200499D01*
X127211307Y-103200500D01*
X127211309Y-103200500D01*
X127388693Y-103200500D01*
X127388694Y-103200499D01*
X127446682Y-103188964D01*
X127562658Y-103165896D01*
X127562661Y-103165894D01*
X127562666Y-103165894D01*
X127726547Y-103098013D01*
X127874035Y-102999464D01*
X127999464Y-102874035D01*
X128098013Y-102726547D01*
X128165894Y-102562666D01*
X128166829Y-102557968D01*
X128192385Y-102429487D01*
X128200500Y-102388691D01*
X128200500Y-102382260D01*
X128220185Y-102315221D01*
X128272989Y-102269466D01*
X128276993Y-102267722D01*
X128281248Y-102265960D01*
X128428736Y-102167411D01*
X128554165Y-102041982D01*
X128652714Y-101894494D01*
X128720595Y-101730613D01*
X128755201Y-101556638D01*
X128755201Y-101499500D01*
X128774886Y-101432461D01*
X128827690Y-101386706D01*
X128879201Y-101375500D01*
X134692452Y-101375500D01*
X134759491Y-101395185D01*
X134780133Y-101411819D01*
X134972905Y-101604591D01*
X135006390Y-101665914D01*
X135001406Y-101735606D01*
X134959534Y-101791539D01*
X134894070Y-101815956D01*
X134861033Y-101813889D01*
X134788695Y-101799500D01*
X134788691Y-101799500D01*
X134611309Y-101799500D01*
X134611306Y-101799500D01*
X134437341Y-101834103D01*
X134437332Y-101834106D01*
X134273459Y-101901983D01*
X134273446Y-101901990D01*
X134125965Y-102000535D01*
X134125961Y-102000538D01*
X134000538Y-102125961D01*
X134000535Y-102125965D01*
X133901990Y-102273446D01*
X133901983Y-102273459D01*
X133834106Y-102437332D01*
X133834103Y-102437341D01*
X133799500Y-102611304D01*
X133799500Y-102788695D01*
X133834103Y-102962658D01*
X133834106Y-102962667D01*
X133901983Y-103126540D01*
X133901990Y-103126553D01*
X134000535Y-103274034D01*
X134000538Y-103274038D01*
X134125961Y-103399461D01*
X134125965Y-103399464D01*
X134273446Y-103498009D01*
X134273459Y-103498016D01*
X134396363Y-103548923D01*
X134437334Y-103565894D01*
X134437336Y-103565894D01*
X134437341Y-103565896D01*
X134611304Y-103600499D01*
X134611307Y-103600500D01*
X134611309Y-103600500D01*
X134664547Y-103600500D01*
X134731586Y-103620185D01*
X134752228Y-103636819D01*
X135081264Y-103965856D01*
X135082112Y-103966552D01*
X135100564Y-103985303D01*
X135105854Y-103991966D01*
X135119883Y-104015687D01*
X135143204Y-104039008D01*
X135147613Y-104044561D01*
X135158186Y-104070621D01*
X135171666Y-104095305D01*
X135172914Y-104106921D01*
X135173882Y-104109305D01*
X135173429Y-104111711D01*
X135174500Y-104121666D01*
X135174500Y-104418393D01*
X135174500Y-104541607D01*
X135174500Y-104541609D01*
X135174499Y-104541609D01*
X135182730Y-104582987D01*
X135182735Y-104583009D01*
X135183302Y-104585857D01*
X135198537Y-104662452D01*
X135204811Y-104677598D01*
X135208356Y-104686158D01*
X135208358Y-104686163D01*
X135218515Y-104710683D01*
X135230061Y-104738559D01*
X135239500Y-104786009D01*
X135239500Y-104934697D01*
X135242356Y-104970991D01*
X135242357Y-104970997D01*
X135287504Y-105126390D01*
X135287505Y-105126393D01*
X135287506Y-105126395D01*
X135297795Y-105143793D01*
X135369881Y-105265684D01*
X135369887Y-105265692D01*
X135484307Y-105380112D01*
X135484311Y-105380115D01*
X135484313Y-105380117D01*
X135623605Y-105462494D01*
X135664587Y-105474400D01*
X135779002Y-105507642D01*
X135779005Y-105507642D01*
X135779007Y-105507643D01*
X135815310Y-105510500D01*
X135815318Y-105510500D01*
X136224682Y-105510500D01*
X136224690Y-105510500D01*
X136260993Y-105507643D01*
X136260995Y-105507642D01*
X136260997Y-105507642D01*
X136301975Y-105495736D01*
X136416395Y-105462494D01*
X136555687Y-105380117D01*
X136670117Y-105265687D01*
X136752494Y-105126395D01*
X136797643Y-104970993D01*
X136800500Y-104934690D01*
X136800500Y-104465310D01*
X136797643Y-104429007D01*
X136794559Y-104418393D01*
X136752495Y-104273609D01*
X136752494Y-104273606D01*
X136752494Y-104273605D01*
X136670117Y-104134313D01*
X136670115Y-104134311D01*
X136670112Y-104134307D01*
X136574653Y-104038848D01*
X136562114Y-104015885D01*
X136546343Y-103995008D01*
X136545637Y-103985709D01*
X136541168Y-103977525D01*
X136543034Y-103951425D01*
X136541054Y-103925338D01*
X136545763Y-103913266D01*
X136546152Y-103907833D01*
X136553243Y-103892216D01*
X136554361Y-103890146D01*
X136562494Y-103876395D01*
X136563309Y-103873587D01*
X136567875Y-103865139D01*
X136588823Y-103844006D01*
X136607849Y-103821139D01*
X136613149Y-103819466D01*
X136617064Y-103815518D01*
X136646111Y-103809066D01*
X136674480Y-103800115D01*
X136685078Y-103800356D01*
X136685269Y-103800368D01*
X136685274Y-103800368D01*
X136687275Y-103800500D01*
X136687280Y-103800500D01*
X138162713Y-103800500D01*
X138162720Y-103800500D01*
X138275236Y-103785687D01*
X138415233Y-103727698D01*
X138535451Y-103635451D01*
X138627698Y-103515233D01*
X138685687Y-103375236D01*
X138700500Y-103262720D01*
X138700500Y-103037280D01*
X138685687Y-102924764D01*
X138629325Y-102788695D01*
X138627699Y-102784769D01*
X138627698Y-102784768D01*
X138627698Y-102784767D01*
X138582209Y-102725485D01*
X138557016Y-102660317D01*
X138571054Y-102591873D01*
X138582206Y-102574517D01*
X138627698Y-102515233D01*
X138685687Y-102375236D01*
X138700500Y-102262720D01*
X138700500Y-102037280D01*
X138685687Y-101924764D01*
X138685686Y-101924763D01*
X138684626Y-101916705D01*
X138687689Y-101916301D01*
X138687689Y-101883698D01*
X138684626Y-101883295D01*
X138685687Y-101875236D01*
X138700500Y-101762720D01*
X138700500Y-101537280D01*
X138685687Y-101424764D01*
X138685686Y-101424763D01*
X138684626Y-101416705D01*
X138687689Y-101416301D01*
X138687689Y-101383698D01*
X138684626Y-101383295D01*
X138690019Y-101342328D01*
X138700500Y-101262720D01*
X138700500Y-101037280D01*
X138685687Y-100924764D01*
X138685686Y-100924763D01*
X138684626Y-100916705D01*
X138687689Y-100916301D01*
X138687689Y-100883698D01*
X138684626Y-100883295D01*
X138687335Y-100862720D01*
X138700500Y-100762720D01*
X138700500Y-100537280D01*
X138685687Y-100424764D01*
X138685686Y-100424763D01*
X138684626Y-100416705D01*
X138687689Y-100416301D01*
X138687689Y-100383698D01*
X138684626Y-100383295D01*
X138687335Y-100362720D01*
X138700500Y-100262720D01*
X138700500Y-100037280D01*
X138685687Y-99924764D01*
X138685686Y-99924763D01*
X138684626Y-99916705D01*
X138687689Y-99916301D01*
X138687689Y-99883698D01*
X138684626Y-99883295D01*
X138688842Y-99851270D01*
X138700500Y-99762720D01*
X138700500Y-99537280D01*
X138685687Y-99424764D01*
X138685686Y-99424763D01*
X138684626Y-99416705D01*
X138687689Y-99416301D01*
X138687689Y-99383698D01*
X138684626Y-99383295D01*
X138688192Y-99356206D01*
X138700500Y-99262720D01*
X138700500Y-99037280D01*
X138685687Y-98924764D01*
X138685686Y-98924763D01*
X138684626Y-98916705D01*
X138687689Y-98916301D01*
X138687689Y-98883698D01*
X138684626Y-98883295D01*
X138687335Y-98862720D01*
X138700500Y-98762720D01*
X138700500Y-98537280D01*
X138685687Y-98424764D01*
X138685686Y-98424763D01*
X138684626Y-98416705D01*
X138687689Y-98416301D01*
X138687689Y-98383698D01*
X138684626Y-98383295D01*
X138687335Y-98362720D01*
X138700500Y-98262720D01*
X138700500Y-98037280D01*
X138685687Y-97924764D01*
X138685686Y-97924763D01*
X138684626Y-97916705D01*
X138687689Y-97916301D01*
X138687689Y-97883698D01*
X138684626Y-97883295D01*
X138688671Y-97852569D01*
X138700500Y-97762720D01*
X138700500Y-97537280D01*
X138685687Y-97424764D01*
X138685686Y-97424763D01*
X138684626Y-97416705D01*
X138687689Y-97416301D01*
X138687689Y-97383698D01*
X138684626Y-97383295D01*
X138691361Y-97332135D01*
X138700500Y-97262720D01*
X138700500Y-97037280D01*
X138685687Y-96924764D01*
X138685686Y-96924763D01*
X138684626Y-96916705D01*
X138687689Y-96916301D01*
X138687689Y-96883698D01*
X138684626Y-96883295D01*
X138691102Y-96834103D01*
X138700500Y-96762720D01*
X138700500Y-96537280D01*
X138685687Y-96424764D01*
X138685686Y-96424763D01*
X138684626Y-96416705D01*
X138687689Y-96416301D01*
X138687689Y-96383698D01*
X138684626Y-96383295D01*
X138690347Y-96339837D01*
X138700500Y-96262720D01*
X138700500Y-96037280D01*
X138685687Y-95924764D01*
X138685686Y-95924763D01*
X138684626Y-95916705D01*
X138687689Y-95916301D01*
X138687689Y-95883698D01*
X138684626Y-95883295D01*
X138687010Y-95865185D01*
X138700500Y-95762720D01*
X138700500Y-95537280D01*
X138685687Y-95424764D01*
X138627698Y-95284767D01*
X138535451Y-95164549D01*
X138415233Y-95072302D01*
X138415229Y-95072300D01*
X138335750Y-95039379D01*
X138275236Y-95014313D01*
X138261171Y-95012461D01*
X138162727Y-94999500D01*
X138162720Y-94999500D01*
X137710452Y-94999500D01*
X137643413Y-94979815D01*
X137622771Y-94963181D01*
X136994226Y-94334636D01*
X136960741Y-94273313D01*
X136965725Y-94203621D01*
X136994226Y-94159274D01*
X137079461Y-94074038D01*
X137079464Y-94074035D01*
X137178013Y-93926547D01*
X137245894Y-93762666D01*
X137280500Y-93588691D01*
X137280500Y-93411309D01*
X137280500Y-93411306D01*
X137280499Y-93411304D01*
X137245896Y-93237341D01*
X137245893Y-93237332D01*
X137178015Y-93073457D01*
X137176438Y-93070507D01*
X137176078Y-93068781D01*
X137175682Y-93067824D01*
X137175863Y-93067748D01*
X137162189Y-93002106D01*
X137166712Y-92977455D01*
X137197643Y-92870993D01*
X137200500Y-92834690D01*
X137200500Y-92365310D01*
X137197643Y-92329007D01*
X137187296Y-92293394D01*
X137152495Y-92173609D01*
X137152494Y-92173606D01*
X137152494Y-92173605D01*
X137070117Y-92034313D01*
X137070115Y-92034311D01*
X137070112Y-92034307D01*
X136955692Y-91919887D01*
X136955684Y-91919881D01*
X136816393Y-91837505D01*
X136816390Y-91837504D01*
X136660997Y-91792357D01*
X136660991Y-91792356D01*
X136624697Y-91789500D01*
X136624690Y-91789500D01*
X136403500Y-91789500D01*
X136336461Y-91769815D01*
X136290706Y-91717011D01*
X136279500Y-91665500D01*
X136279500Y-80800406D01*
X136299185Y-80733367D01*
X136351989Y-80687612D01*
X136421147Y-80677668D01*
X136467851Y-80695564D01*
X136468078Y-80695140D01*
X136471455Y-80696945D01*
X136472391Y-80697303D01*
X136473453Y-80698013D01*
X136473455Y-80698014D01*
X136473459Y-80698016D01*
X136558806Y-80733367D01*
X136637334Y-80765894D01*
X136637336Y-80765894D01*
X136637341Y-80765896D01*
X136811304Y-80800499D01*
X136811307Y-80800500D01*
X136900500Y-80800500D01*
X136967539Y-80820185D01*
X137013294Y-80872989D01*
X137024500Y-80924500D01*
X137024500Y-89458707D01*
X137048535Y-89579540D01*
X137048540Y-89579557D01*
X137095685Y-89693376D01*
X137095687Y-89693379D01*
X137095688Y-89693382D01*
X137129915Y-89744605D01*
X137164142Y-89795829D01*
X137251267Y-89882954D01*
X137251270Y-89882956D01*
X137258554Y-89890240D01*
X138346133Y-90977819D01*
X138379618Y-91039142D01*
X138374634Y-91108834D01*
X138332762Y-91164767D01*
X138267298Y-91189184D01*
X138258452Y-91189500D01*
X138115302Y-91189500D01*
X138079008Y-91192356D01*
X138079002Y-91192357D01*
X137923609Y-91237504D01*
X137923606Y-91237505D01*
X137784315Y-91319881D01*
X137784307Y-91319887D01*
X137669887Y-91434307D01*
X137669881Y-91434315D01*
X137587505Y-91573606D01*
X137587504Y-91573609D01*
X137542357Y-91729002D01*
X137542356Y-91729008D01*
X137539500Y-91765302D01*
X137539500Y-92234697D01*
X137542356Y-92270991D01*
X137542357Y-92270997D01*
X137587504Y-92426390D01*
X137587505Y-92426393D01*
X137587506Y-92426395D01*
X137611247Y-92466539D01*
X137673854Y-92572402D01*
X137672208Y-92573375D01*
X137694014Y-92628915D01*
X137694500Y-92639878D01*
X137694500Y-93166864D01*
X137685061Y-93214316D01*
X137634106Y-93337332D01*
X137634103Y-93337341D01*
X137599500Y-93511304D01*
X137599500Y-93688695D01*
X137634103Y-93862658D01*
X137634106Y-93862667D01*
X137701983Y-94026540D01*
X137701990Y-94026553D01*
X137800535Y-94174034D01*
X137800538Y-94174038D01*
X137925961Y-94299461D01*
X137925965Y-94299464D01*
X138073446Y-94398009D01*
X138073459Y-94398016D01*
X138196363Y-94448923D01*
X138237334Y-94465894D01*
X138237336Y-94465894D01*
X138237341Y-94465896D01*
X138411304Y-94500499D01*
X138411307Y-94500500D01*
X138594783Y-94500500D01*
X138594783Y-94501822D01*
X138656754Y-94513566D01*
X138707471Y-94561624D01*
X138714836Y-94576500D01*
X138721626Y-94592891D01*
X138771467Y-94713219D01*
X138772302Y-94715233D01*
X138864549Y-94835451D01*
X138984767Y-94927698D01*
X139124764Y-94985687D01*
X139229684Y-94999500D01*
X139237264Y-95000498D01*
X139237280Y-95000500D01*
X139237287Y-95000500D01*
X139462713Y-95000500D01*
X139462720Y-95000500D01*
X139575236Y-94985687D01*
X139715233Y-94927698D01*
X139774514Y-94882209D01*
X139839683Y-94857016D01*
X139908127Y-94871054D01*
X139925482Y-94882206D01*
X139984767Y-94927698D01*
X140124764Y-94985687D01*
X140229684Y-94999500D01*
X140237264Y-95000498D01*
X140237280Y-95000500D01*
X140237287Y-95000500D01*
X140462713Y-95000500D01*
X140462720Y-95000500D01*
X140575236Y-94985687D01*
X140575236Y-94985686D01*
X140583295Y-94984626D01*
X140583698Y-94987689D01*
X140616302Y-94987689D01*
X140616705Y-94984626D01*
X140624763Y-94985686D01*
X140624764Y-94985687D01*
X140737280Y-95000500D01*
X140737287Y-95000500D01*
X140962713Y-95000500D01*
X140962720Y-95000500D01*
X141075236Y-94985687D01*
X141075236Y-94985686D01*
X141083295Y-94984626D01*
X141083698Y-94987689D01*
X141116302Y-94987689D01*
X141116705Y-94984626D01*
X141124763Y-94985686D01*
X141124764Y-94985687D01*
X141237280Y-95000500D01*
X141237287Y-95000500D01*
X141462713Y-95000500D01*
X141462720Y-95000500D01*
X141575236Y-94985687D01*
X141715233Y-94927698D01*
X141774514Y-94882209D01*
X141839683Y-94857016D01*
X141908127Y-94871054D01*
X141925482Y-94882206D01*
X141984767Y-94927698D01*
X142124764Y-94985687D01*
X142229684Y-94999500D01*
X142237264Y-95000498D01*
X142237280Y-95000500D01*
X142237287Y-95000500D01*
X142462713Y-95000500D01*
X142462720Y-95000500D01*
X142575236Y-94985687D01*
X142575236Y-94985686D01*
X142583295Y-94984626D01*
X142583698Y-94987689D01*
X142616302Y-94987689D01*
X142616705Y-94984626D01*
X142624763Y-94985686D01*
X142624764Y-94985687D01*
X142737280Y-95000500D01*
X142737287Y-95000500D01*
X142962713Y-95000500D01*
X142962720Y-95000500D01*
X143075236Y-94985687D01*
X143075236Y-94985686D01*
X143083295Y-94984626D01*
X143083698Y-94987689D01*
X143116302Y-94987689D01*
X143116705Y-94984626D01*
X143124763Y-94985686D01*
X143124764Y-94985687D01*
X143237280Y-95000500D01*
X143237287Y-95000500D01*
X143462713Y-95000500D01*
X143462720Y-95000500D01*
X143575236Y-94985687D01*
X143575236Y-94985686D01*
X143583295Y-94984626D01*
X143583698Y-94987689D01*
X143616302Y-94987689D01*
X143616705Y-94984626D01*
X143624763Y-94985686D01*
X143624764Y-94985687D01*
X143737280Y-95000500D01*
X143737287Y-95000500D01*
X143962713Y-95000500D01*
X143962720Y-95000500D01*
X144075236Y-94985687D01*
X144075236Y-94985686D01*
X144083295Y-94984626D01*
X144083698Y-94987689D01*
X144116302Y-94987689D01*
X144116705Y-94984626D01*
X144124763Y-94985686D01*
X144124764Y-94985687D01*
X144237280Y-95000500D01*
X144237287Y-95000500D01*
X144462713Y-95000500D01*
X144462720Y-95000500D01*
X144575236Y-94985687D01*
X144575236Y-94985686D01*
X144583295Y-94984626D01*
X144583698Y-94987689D01*
X144616302Y-94987689D01*
X144616705Y-94984626D01*
X144624763Y-94985686D01*
X144624764Y-94985687D01*
X144737280Y-95000500D01*
X144737287Y-95000500D01*
X144962713Y-95000500D01*
X144962720Y-95000500D01*
X145075236Y-94985687D01*
X145075236Y-94985686D01*
X145083295Y-94984626D01*
X145083698Y-94987689D01*
X145116302Y-94987689D01*
X145116705Y-94984626D01*
X145124763Y-94985686D01*
X145124764Y-94985687D01*
X145237280Y-95000500D01*
X145237287Y-95000500D01*
X145462713Y-95000500D01*
X145462720Y-95000500D01*
X145575236Y-94985687D01*
X145575236Y-94985686D01*
X145583295Y-94984626D01*
X145583698Y-94987689D01*
X145616302Y-94987689D01*
X145616705Y-94984626D01*
X145624763Y-94985686D01*
X145624764Y-94985687D01*
X145737280Y-95000500D01*
X145737287Y-95000500D01*
X145962713Y-95000500D01*
X145962720Y-95000500D01*
X146075236Y-94985687D01*
X146075236Y-94985686D01*
X146083295Y-94984626D01*
X146083698Y-94987689D01*
X146116302Y-94987689D01*
X146116705Y-94984626D01*
X146124763Y-94985686D01*
X146124764Y-94985687D01*
X146237280Y-95000500D01*
X146237287Y-95000500D01*
X146462713Y-95000500D01*
X146462720Y-95000500D01*
X146575236Y-94985687D01*
X146575236Y-94985686D01*
X146583295Y-94984626D01*
X146583698Y-94987689D01*
X146616302Y-94987689D01*
X146616705Y-94984626D01*
X146624763Y-94985686D01*
X146624764Y-94985687D01*
X146737280Y-95000500D01*
X146737287Y-95000500D01*
X146962713Y-95000500D01*
X146962720Y-95000500D01*
X147075236Y-94985687D01*
X147215233Y-94927698D01*
X147335451Y-94835451D01*
X147427698Y-94715233D01*
X147485687Y-94575236D01*
X147500500Y-94462720D01*
X147501030Y-94458695D01*
X147501530Y-94458760D01*
X147501256Y-94456853D01*
X147513858Y-94429257D01*
X147524292Y-94400774D01*
X147528228Y-94397790D01*
X147530281Y-94393297D01*
X147555800Y-94376896D01*
X147579978Y-94358575D01*
X147586040Y-94357462D01*
X147589059Y-94355523D01*
X147623994Y-94350500D01*
X147825916Y-94350500D01*
X147892955Y-94370185D01*
X147938710Y-94422989D01*
X147948654Y-94492147D01*
X147940478Y-94521950D01*
X147934106Y-94537332D01*
X147934103Y-94537341D01*
X147899500Y-94711304D01*
X147899500Y-94888695D01*
X147904655Y-94914610D01*
X147898428Y-94984202D01*
X147855564Y-95039379D01*
X147830493Y-95053361D01*
X147784768Y-95072301D01*
X147702469Y-95135452D01*
X147664549Y-95164549D01*
X147611771Y-95233331D01*
X147572300Y-95284770D01*
X147514313Y-95424763D01*
X147514313Y-95424764D01*
X147499500Y-95537272D01*
X147499500Y-95762727D01*
X147512461Y-95861171D01*
X147512989Y-95865183D01*
X147514313Y-95875235D01*
X147514313Y-95875236D01*
X147572300Y-96015230D01*
X147572301Y-96015232D01*
X147572302Y-96015233D01*
X147617790Y-96074514D01*
X147642984Y-96139683D01*
X147628946Y-96208127D01*
X147617793Y-96225482D01*
X147598008Y-96251267D01*
X147572300Y-96284769D01*
X147514313Y-96424763D01*
X147514313Y-96424764D01*
X147499500Y-96537272D01*
X147499500Y-96762727D01*
X147515374Y-96883292D01*
X147512399Y-96883683D01*
X147512399Y-96916316D01*
X147515374Y-96916708D01*
X147514313Y-96924762D01*
X147514313Y-96924764D01*
X147513371Y-96931919D01*
X147499500Y-97037272D01*
X147499500Y-97262727D01*
X147515374Y-97383292D01*
X147512399Y-97383683D01*
X147512399Y-97416316D01*
X147515374Y-97416708D01*
X147514313Y-97424762D01*
X147514313Y-97424764D01*
X147512658Y-97437334D01*
X147499500Y-97537272D01*
X147499500Y-97762727D01*
X147506474Y-97815694D01*
X147513766Y-97871084D01*
X147515374Y-97883292D01*
X147512399Y-97883683D01*
X147512399Y-97916316D01*
X147515374Y-97916708D01*
X147499500Y-98037272D01*
X147499500Y-98262727D01*
X147515374Y-98383292D01*
X147512399Y-98383683D01*
X147512399Y-98416316D01*
X147515374Y-98416708D01*
X147514313Y-98424762D01*
X147514313Y-98424764D01*
X147510938Y-98450393D01*
X147499500Y-98537272D01*
X147499500Y-98762727D01*
X147515374Y-98883292D01*
X147512399Y-98883683D01*
X147512399Y-98916316D01*
X147515374Y-98916708D01*
X147499500Y-99037272D01*
X147499500Y-99262727D01*
X147510499Y-99346271D01*
X147513543Y-99369390D01*
X147515374Y-99383292D01*
X147512399Y-99383683D01*
X147512399Y-99416316D01*
X147515374Y-99416708D01*
X147514313Y-99424762D01*
X147514313Y-99424764D01*
X147511984Y-99442452D01*
X147499500Y-99537272D01*
X147499500Y-99762727D01*
X147515374Y-99883292D01*
X147512399Y-99883683D01*
X147512399Y-99916316D01*
X147515374Y-99916708D01*
X147514313Y-99924762D01*
X147514313Y-99924764D01*
X147510938Y-99950393D01*
X147499500Y-100037272D01*
X147499500Y-100262727D01*
X147515374Y-100383292D01*
X147512399Y-100383683D01*
X147512399Y-100416316D01*
X147515374Y-100416708D01*
X147499500Y-100537272D01*
X147499500Y-100762727D01*
X147515374Y-100883292D01*
X147512399Y-100883683D01*
X147512399Y-100916316D01*
X147515374Y-100916708D01*
X147499500Y-101037272D01*
X147499500Y-101262727D01*
X147515374Y-101383292D01*
X147512399Y-101383683D01*
X147512399Y-101416316D01*
X147515374Y-101416708D01*
X147499500Y-101537272D01*
X147499500Y-101762727D01*
X147507916Y-101826645D01*
X147513246Y-101867135D01*
X147515374Y-101883292D01*
X147512399Y-101883683D01*
X147512399Y-101916316D01*
X147515374Y-101916708D01*
X147514313Y-101924762D01*
X147514313Y-101924764D01*
X147510938Y-101950393D01*
X147499500Y-102037272D01*
X147499500Y-102262727D01*
X147515374Y-102383292D01*
X147512399Y-102383683D01*
X147512399Y-102416316D01*
X147515374Y-102416708D01*
X147514313Y-102424762D01*
X147514313Y-102424764D01*
X147512658Y-102437334D01*
X147499500Y-102537272D01*
X147499500Y-102762727D01*
X147506282Y-102814234D01*
X147514155Y-102874038D01*
X147515374Y-102883292D01*
X147512399Y-102883683D01*
X147512399Y-102916316D01*
X147515374Y-102916708D01*
X147499500Y-103037272D01*
X147499500Y-103262727D01*
X147514313Y-103375235D01*
X147514313Y-103375236D01*
X147565167Y-103498009D01*
X147572302Y-103515233D01*
X147664549Y-103635451D01*
X147784767Y-103727698D01*
X147924764Y-103785687D01*
X148029684Y-103799500D01*
X148034355Y-103800115D01*
X148037280Y-103800500D01*
X148041305Y-103801030D01*
X148041038Y-103803051D01*
X148098965Y-103824099D01*
X148141310Y-103879675D01*
X148147389Y-103901207D01*
X148149500Y-103912499D01*
X148149500Y-103956606D01*
X148173537Y-104077452D01*
X148176567Y-104084767D01*
X148185927Y-104107366D01*
X148188304Y-104120077D01*
X148186037Y-104142483D01*
X148188446Y-104164874D01*
X148182589Y-104176574D01*
X148181273Y-104189593D01*
X148167251Y-104207218D01*
X148157173Y-104227355D01*
X148145921Y-104234031D01*
X148137776Y-104244271D01*
X148116453Y-104251517D01*
X148097086Y-104263010D01*
X148084010Y-104262543D01*
X148071622Y-104266754D01*
X148049764Y-104261321D01*
X148027261Y-104260519D01*
X148018964Y-104257425D01*
X148004700Y-104251517D01*
X147962666Y-104234106D01*
X147962662Y-104234105D01*
X147962658Y-104234103D01*
X147788694Y-104199500D01*
X147788691Y-104199500D01*
X147611309Y-104199500D01*
X147611302Y-104199500D01*
X147585384Y-104204655D01*
X147515793Y-104198425D01*
X147460617Y-104155560D01*
X147446637Y-104130489D01*
X147427700Y-104084771D01*
X147427699Y-104084769D01*
X147427698Y-104084768D01*
X147427698Y-104084767D01*
X147335451Y-103964549D01*
X147215233Y-103872302D01*
X147215229Y-103872300D01*
X147087676Y-103819466D01*
X147075236Y-103814313D01*
X147060698Y-103812399D01*
X146962727Y-103799500D01*
X146962720Y-103799500D01*
X146737280Y-103799500D01*
X146737272Y-103799500D01*
X146624764Y-103814313D01*
X146624763Y-103814313D01*
X146484769Y-103872300D01*
X146475158Y-103879675D01*
X146425485Y-103917790D01*
X146360317Y-103942984D01*
X146291873Y-103928946D01*
X146274517Y-103917793D01*
X146215233Y-103872302D01*
X146215232Y-103872301D01*
X146215230Y-103872300D01*
X146087676Y-103819466D01*
X146075236Y-103814313D01*
X146060698Y-103812399D01*
X145962727Y-103799500D01*
X145962720Y-103799500D01*
X145737280Y-103799500D01*
X145737272Y-103799500D01*
X145650393Y-103810938D01*
X145624764Y-103814313D01*
X145624762Y-103814313D01*
X145616708Y-103815374D01*
X145616316Y-103812399D01*
X145583684Y-103812399D01*
X145583292Y-103815374D01*
X145575237Y-103814313D01*
X145575236Y-103814313D01*
X145546271Y-103810499D01*
X145462727Y-103799500D01*
X145462720Y-103799500D01*
X145237280Y-103799500D01*
X145237272Y-103799500D01*
X145150393Y-103810938D01*
X145124764Y-103814313D01*
X145124762Y-103814313D01*
X145116708Y-103815374D01*
X145116316Y-103812399D01*
X145083684Y-103812399D01*
X145083292Y-103815374D01*
X145075237Y-103814313D01*
X145075236Y-103814313D01*
X145046271Y-103810499D01*
X144962727Y-103799500D01*
X144962720Y-103799500D01*
X144737280Y-103799500D01*
X144737272Y-103799500D01*
X144650393Y-103810938D01*
X144624764Y-103814313D01*
X144624762Y-103814313D01*
X144616708Y-103815374D01*
X144616316Y-103812399D01*
X144583684Y-103812399D01*
X144583292Y-103815374D01*
X144575237Y-103814313D01*
X144575236Y-103814313D01*
X144546271Y-103810499D01*
X144462727Y-103799500D01*
X144462720Y-103799500D01*
X144237280Y-103799500D01*
X144237272Y-103799500D01*
X144150393Y-103810938D01*
X144124764Y-103814313D01*
X144124762Y-103814313D01*
X144116708Y-103815374D01*
X144116316Y-103812399D01*
X144083684Y-103812399D01*
X144083292Y-103815374D01*
X144075237Y-103814313D01*
X144075236Y-103814313D01*
X144046271Y-103810499D01*
X143962727Y-103799500D01*
X143962720Y-103799500D01*
X143737280Y-103799500D01*
X143737272Y-103799500D01*
X143650393Y-103810938D01*
X143624764Y-103814313D01*
X143624762Y-103814313D01*
X143616708Y-103815374D01*
X143616316Y-103812399D01*
X143583684Y-103812399D01*
X143583292Y-103815374D01*
X143575237Y-103814313D01*
X143575236Y-103814313D01*
X143546271Y-103810499D01*
X143462727Y-103799500D01*
X143462720Y-103799500D01*
X143237280Y-103799500D01*
X143237272Y-103799500D01*
X143150393Y-103810938D01*
X143124764Y-103814313D01*
X143124762Y-103814313D01*
X143116708Y-103815374D01*
X143116316Y-103812399D01*
X143083684Y-103812399D01*
X143083292Y-103815374D01*
X143075237Y-103814313D01*
X143075236Y-103814313D01*
X143046271Y-103810499D01*
X142962727Y-103799500D01*
X142962720Y-103799500D01*
X142737280Y-103799500D01*
X142737272Y-103799500D01*
X142650393Y-103810938D01*
X142624764Y-103814313D01*
X142624762Y-103814313D01*
X142616708Y-103815374D01*
X142616316Y-103812399D01*
X142583684Y-103812399D01*
X142583292Y-103815374D01*
X142575237Y-103814313D01*
X142575236Y-103814313D01*
X142546271Y-103810499D01*
X142462727Y-103799500D01*
X142462720Y-103799500D01*
X142237280Y-103799500D01*
X142237272Y-103799500D01*
X142150393Y-103810938D01*
X142124764Y-103814313D01*
X142124762Y-103814313D01*
X142116708Y-103815374D01*
X142116316Y-103812399D01*
X142083684Y-103812399D01*
X142083292Y-103815374D01*
X142075237Y-103814313D01*
X142075236Y-103814313D01*
X142046271Y-103810499D01*
X141962727Y-103799500D01*
X141962720Y-103799500D01*
X141737280Y-103799500D01*
X141737272Y-103799500D01*
X141650393Y-103810938D01*
X141624764Y-103814313D01*
X141624762Y-103814313D01*
X141616708Y-103815374D01*
X141616316Y-103812399D01*
X141583684Y-103812399D01*
X141583292Y-103815374D01*
X141575237Y-103814313D01*
X141575236Y-103814313D01*
X141546271Y-103810499D01*
X141462727Y-103799500D01*
X141462720Y-103799500D01*
X141237280Y-103799500D01*
X141237272Y-103799500D01*
X141150393Y-103810938D01*
X141124764Y-103814313D01*
X141124762Y-103814313D01*
X141116708Y-103815374D01*
X141116316Y-103812399D01*
X141083684Y-103812399D01*
X141083292Y-103815374D01*
X141075237Y-103814313D01*
X141075236Y-103814313D01*
X141046271Y-103810499D01*
X140962727Y-103799500D01*
X140962720Y-103799500D01*
X140737280Y-103799500D01*
X140737272Y-103799500D01*
X140650393Y-103810938D01*
X140624764Y-103814313D01*
X140624762Y-103814313D01*
X140616708Y-103815374D01*
X140616316Y-103812399D01*
X140583684Y-103812399D01*
X140583292Y-103815374D01*
X140575237Y-103814313D01*
X140575236Y-103814313D01*
X140546271Y-103810499D01*
X140462727Y-103799500D01*
X140462720Y-103799500D01*
X140237280Y-103799500D01*
X140237272Y-103799500D01*
X140150393Y-103810938D01*
X140124764Y-103814313D01*
X140124762Y-103814313D01*
X140116708Y-103815374D01*
X140116316Y-103812399D01*
X140083684Y-103812399D01*
X140083292Y-103815374D01*
X140075237Y-103814313D01*
X140075236Y-103814313D01*
X140046271Y-103810499D01*
X139962727Y-103799500D01*
X139962720Y-103799500D01*
X139737280Y-103799500D01*
X139737272Y-103799500D01*
X139650393Y-103810938D01*
X139624764Y-103814313D01*
X139624762Y-103814313D01*
X139616708Y-103815374D01*
X139616316Y-103812399D01*
X139583684Y-103812399D01*
X139583292Y-103815374D01*
X139575237Y-103814313D01*
X139575236Y-103814313D01*
X139546271Y-103810499D01*
X139462727Y-103799500D01*
X139462720Y-103799500D01*
X139237280Y-103799500D01*
X139237272Y-103799500D01*
X139124764Y-103814313D01*
X139124763Y-103814313D01*
X138984770Y-103872300D01*
X138984767Y-103872301D01*
X138984767Y-103872302D01*
X138864549Y-103964549D01*
X138772302Y-104084767D01*
X138772301Y-104084769D01*
X138772300Y-104084769D01*
X138714313Y-104224763D01*
X138714313Y-104224764D01*
X138699500Y-104337272D01*
X138699500Y-105764547D01*
X138679815Y-105831586D01*
X138663181Y-105852228D01*
X138352229Y-106163181D01*
X138290906Y-106196666D01*
X138264548Y-106199500D01*
X138211306Y-106199500D01*
X138037341Y-106234103D01*
X138037332Y-106234106D01*
X137873459Y-106301983D01*
X137873446Y-106301990D01*
X137725965Y-106400535D01*
X137725961Y-106400538D01*
X137600538Y-106525961D01*
X137600535Y-106525965D01*
X137501990Y-106673446D01*
X137501983Y-106673459D01*
X137434106Y-106837332D01*
X137434103Y-106837341D01*
X137399500Y-107011304D01*
X137399500Y-107188695D01*
X137434103Y-107362658D01*
X137434106Y-107362667D01*
X137501983Y-107526540D01*
X137501990Y-107526553D01*
X137600535Y-107674034D01*
X137600538Y-107674038D01*
X137725961Y-107799461D01*
X137725965Y-107799464D01*
X137873446Y-107898009D01*
X137873459Y-107898016D01*
X137996363Y-107948923D01*
X138037334Y-107965894D01*
X138037336Y-107965894D01*
X138037341Y-107965896D01*
X138211304Y-108000499D01*
X138211307Y-108000500D01*
X138211309Y-108000500D01*
X138388693Y-108000500D01*
X138388694Y-108000499D01*
X138446682Y-107988964D01*
X138562658Y-107965896D01*
X138562661Y-107965894D01*
X138562666Y-107965894D01*
X138726547Y-107898013D01*
X138760604Y-107875256D01*
X138827278Y-107854377D01*
X138894659Y-107872860D01*
X138917176Y-107890676D01*
X138925961Y-107899461D01*
X138925965Y-107899464D01*
X139073446Y-107998009D01*
X139073459Y-107998016D01*
X139196363Y-108048923D01*
X139237334Y-108065894D01*
X139237336Y-108065894D01*
X139237341Y-108065896D01*
X139411304Y-108100499D01*
X139411307Y-108100500D01*
X139411309Y-108100500D01*
X139588693Y-108100500D01*
X139588694Y-108100499D01*
X139646682Y-108088964D01*
X139762658Y-108065896D01*
X139762661Y-108065894D01*
X139762666Y-108065894D01*
X139926547Y-107998013D01*
X140031610Y-107927811D01*
X140098286Y-107906934D01*
X140165666Y-107925418D01*
X140212356Y-107977396D01*
X140224500Y-108030914D01*
X140224500Y-119456566D01*
X140204815Y-119523605D01*
X140152011Y-119569360D01*
X140147954Y-119571127D01*
X140073453Y-119601986D01*
X139925965Y-119700535D01*
X139925961Y-119700538D01*
X139800538Y-119825961D01*
X139800535Y-119825965D01*
X139718873Y-119948180D01*
X139665260Y-119992985D01*
X139595935Y-120001692D01*
X139546880Y-119982391D01*
X139426553Y-119901990D01*
X139426540Y-119901983D01*
X139262667Y-119834106D01*
X139262658Y-119834103D01*
X139088694Y-119799500D01*
X139088691Y-119799500D01*
X138911309Y-119799500D01*
X138911306Y-119799500D01*
X138737341Y-119834103D01*
X138737332Y-119834106D01*
X138573459Y-119901983D01*
X138573446Y-119901990D01*
X138425965Y-120000535D01*
X138425961Y-120000538D01*
X138300538Y-120125961D01*
X138300535Y-120125965D01*
X138201990Y-120273446D01*
X138201983Y-120273459D01*
X138134106Y-120437332D01*
X138134103Y-120437341D01*
X138099500Y-120611304D01*
X138099500Y-120788695D01*
X138134103Y-120962658D01*
X138134106Y-120962667D01*
X138201983Y-121126540D01*
X138201990Y-121126553D01*
X138300535Y-121274034D01*
X138300538Y-121274038D01*
X138338180Y-121311679D01*
X138352885Y-121338609D01*
X138369477Y-121364426D01*
X138370368Y-121370624D01*
X138371666Y-121373001D01*
X138374500Y-121399361D01*
X138374500Y-121559191D01*
X138354815Y-121626230D01*
X138338181Y-121646872D01*
X138331923Y-121653129D01*
X138331917Y-121653137D01*
X138248255Y-121794603D01*
X138248254Y-121794606D01*
X138202402Y-121952426D01*
X138202401Y-121952432D01*
X138199500Y-121989298D01*
X138199500Y-123120701D01*
X138200222Y-123129878D01*
X138185852Y-123198254D01*
X138161064Y-123227420D01*
X138162382Y-123228738D01*
X138049485Y-123341635D01*
X137973719Y-123472863D01*
X137934500Y-123619234D01*
X137934500Y-123770766D01*
X137950238Y-123829500D01*
X137973719Y-123917136D01*
X137980990Y-123929729D01*
X138049485Y-124048365D01*
X138156635Y-124155515D01*
X138270281Y-124221129D01*
X138279677Y-124226554D01*
X138287865Y-124231281D01*
X138434234Y-124270500D01*
X138434236Y-124270500D01*
X138585764Y-124270500D01*
X138585766Y-124270500D01*
X138732135Y-124231281D01*
X138863365Y-124155515D01*
X138970515Y-124048365D01*
X139046281Y-123917135D01*
X139078362Y-123797405D01*
X139114726Y-123737746D01*
X139176001Y-123707492D01*
X139186981Y-123705500D01*
X139215694Y-123705500D01*
X139252569Y-123702598D01*
X139335018Y-123678643D01*
X139341321Y-123677500D01*
X139369943Y-123680549D01*
X139398728Y-123680631D01*
X139410770Y-123684898D01*
X139410795Y-123684900D01*
X139410800Y-123684902D01*
X139410813Y-123684913D01*
X139410897Y-123684943D01*
X139424764Y-123690687D01*
X139537280Y-123705500D01*
X139537287Y-123705500D01*
X139762713Y-123705500D01*
X139762720Y-123705500D01*
X139875236Y-123690687D01*
X139875236Y-123690686D01*
X139883295Y-123689626D01*
X139883497Y-123691161D01*
X139908608Y-123688724D01*
X139922330Y-123689678D01*
X139924764Y-123690687D01*
X140037280Y-123705500D01*
X140149679Y-123705500D01*
X140153976Y-123705799D01*
X140182859Y-123716508D01*
X140212407Y-123725185D01*
X140217647Y-123729407D01*
X140219487Y-123730090D01*
X140221012Y-123732119D01*
X140233049Y-123741819D01*
X140255586Y-123764356D01*
X140255608Y-123764376D01*
X140420961Y-123929729D01*
X140420964Y-123929733D01*
X140508089Y-124016858D01*
X140559312Y-124051084D01*
X140610536Y-124085312D01*
X140610537Y-124085312D01*
X140610538Y-124085313D01*
X140684212Y-124115829D01*
X140684216Y-124115830D01*
X140691029Y-124118652D01*
X140724370Y-124132463D01*
X140784793Y-124144481D01*
X140845215Y-124156500D01*
X140845216Y-124156500D01*
X141290224Y-124156500D01*
X141357263Y-124176185D01*
X141399588Y-124222057D01*
X141401991Y-124226554D01*
X141500535Y-124374034D01*
X141500538Y-124374038D01*
X141625961Y-124499461D01*
X141625965Y-124499464D01*
X141773446Y-124598009D01*
X141773459Y-124598016D01*
X141896363Y-124648923D01*
X141937334Y-124665894D01*
X141937336Y-124665894D01*
X141937341Y-124665896D01*
X142111304Y-124700499D01*
X142111307Y-124700500D01*
X142111309Y-124700500D01*
X142288693Y-124700500D01*
X142288694Y-124700499D01*
X142346682Y-124688964D01*
X142462658Y-124665896D01*
X142462661Y-124665894D01*
X142462666Y-124665894D01*
X142626547Y-124598013D01*
X142774035Y-124499464D01*
X142899464Y-124374035D01*
X142998013Y-124226547D01*
X143065894Y-124062666D01*
X143068739Y-124048367D01*
X143092337Y-123929729D01*
X143100500Y-123888691D01*
X143100500Y-123829500D01*
X143100541Y-123829358D01*
X143100500Y-123829216D01*
X143110453Y-123795603D01*
X143120185Y-123762461D01*
X143120295Y-123762365D01*
X143120338Y-123762222D01*
X143146900Y-123739311D01*
X143172989Y-123716706D01*
X143173172Y-123716652D01*
X143173247Y-123716588D01*
X143173806Y-123716466D01*
X143207134Y-123706722D01*
X143215774Y-123705500D01*
X143262720Y-123705500D01*
X143375236Y-123690687D01*
X143403615Y-123678931D01*
X143419178Y-123676730D01*
X143438818Y-123679599D01*
X143458553Y-123677477D01*
X143471120Y-123680427D01*
X143547431Y-123702598D01*
X143584306Y-123705500D01*
X143601864Y-123705500D01*
X143668903Y-123725185D01*
X143714658Y-123777989D01*
X143721636Y-123797399D01*
X143730238Y-123829500D01*
X143753719Y-123917136D01*
X143760990Y-123929729D01*
X143829485Y-124048365D01*
X143936635Y-124155515D01*
X144050281Y-124221129D01*
X144059677Y-124226554D01*
X144067865Y-124231281D01*
X144214234Y-124270500D01*
X144214236Y-124270500D01*
X144365764Y-124270500D01*
X144365766Y-124270500D01*
X144512135Y-124231281D01*
X144643365Y-124155515D01*
X144750515Y-124048365D01*
X144826281Y-123917135D01*
X144865500Y-123770766D01*
X144865500Y-123619234D01*
X144826281Y-123472865D01*
X144750515Y-123341635D01*
X144643365Y-123234485D01*
X144637618Y-123228738D01*
X144639665Y-123226690D01*
X144606696Y-123181514D01*
X144599778Y-123129867D01*
X144600499Y-123120701D01*
X144600500Y-123120694D01*
X144600500Y-121989306D01*
X144597598Y-121952431D01*
X144585649Y-121911304D01*
X144551745Y-121794606D01*
X144551744Y-121794603D01*
X144551744Y-121794602D01*
X144468081Y-121653135D01*
X144468079Y-121653133D01*
X144468076Y-121653129D01*
X144461819Y-121646872D01*
X144428334Y-121585549D01*
X144425500Y-121559191D01*
X144425500Y-121199361D01*
X144445185Y-121132322D01*
X144461820Y-121111679D01*
X144499461Y-121074038D01*
X144499464Y-121074035D01*
X144598013Y-120926547D01*
X144599153Y-120923796D01*
X144607958Y-120902535D01*
X144665894Y-120762666D01*
X144673917Y-120722335D01*
X144700499Y-120588695D01*
X144700500Y-120588693D01*
X144700500Y-120411306D01*
X144700499Y-120411304D01*
X144665896Y-120237341D01*
X144665893Y-120237332D01*
X144598016Y-120073459D01*
X144598009Y-120073446D01*
X144499464Y-119925965D01*
X144499461Y-119925961D01*
X144374038Y-119800538D01*
X144374034Y-119800535D01*
X144226553Y-119701990D01*
X144226540Y-119701983D01*
X144062667Y-119634106D01*
X144062658Y-119634103D01*
X143888694Y-119599500D01*
X143888691Y-119599500D01*
X143711309Y-119599500D01*
X143711306Y-119599500D01*
X143537341Y-119634103D01*
X143537332Y-119634106D01*
X143373459Y-119701983D01*
X143373446Y-119701990D01*
X143225965Y-119800535D01*
X143225960Y-119800539D01*
X143177121Y-119849378D01*
X143115798Y-119882862D01*
X143046106Y-119877877D01*
X143020550Y-119864798D01*
X142926552Y-119801990D01*
X142926540Y-119801983D01*
X142762667Y-119734106D01*
X142762658Y-119734103D01*
X142588694Y-119699500D01*
X142588691Y-119699500D01*
X142411309Y-119699500D01*
X142405217Y-119699500D01*
X142405217Y-119698245D01*
X142343007Y-119686446D01*
X142292297Y-119638381D01*
X142275500Y-119576063D01*
X142275500Y-107859452D01*
X142295185Y-107792413D01*
X142347989Y-107746658D01*
X142417147Y-107736714D01*
X142480703Y-107765739D01*
X142487181Y-107771771D01*
X146714722Y-111999313D01*
X146748207Y-112060636D01*
X146743223Y-112130328D01*
X146701351Y-112186261D01*
X146678812Y-112199096D01*
X146678823Y-112199117D01*
X146678073Y-112199517D01*
X146674503Y-112201551D01*
X146673462Y-112201982D01*
X146673446Y-112201990D01*
X146525965Y-112300535D01*
X146525961Y-112300538D01*
X146400538Y-112425961D01*
X146400535Y-112425965D01*
X146301990Y-112573446D01*
X146301983Y-112573459D01*
X146234106Y-112737332D01*
X146234103Y-112737341D01*
X146199500Y-112911304D01*
X146199500Y-113088695D01*
X146234103Y-113262658D01*
X146234106Y-113262667D01*
X146301983Y-113426540D01*
X146301990Y-113426553D01*
X146400535Y-113574034D01*
X146400538Y-113574038D01*
X146525961Y-113699461D01*
X146525965Y-113699464D01*
X146673446Y-113798009D01*
X146673459Y-113798016D01*
X146796363Y-113848923D01*
X146837334Y-113865894D01*
X146837336Y-113865894D01*
X146837341Y-113865896D01*
X147011304Y-113900499D01*
X147011307Y-113900500D01*
X147011309Y-113900500D01*
X147064548Y-113900500D01*
X147093988Y-113909144D01*
X147123975Y-113915668D01*
X147128990Y-113919422D01*
X147131587Y-113920185D01*
X147152229Y-113936819D01*
X147214723Y-113999313D01*
X147248208Y-114060636D01*
X147243224Y-114130328D01*
X147201352Y-114186261D01*
X147178812Y-114199097D01*
X147178823Y-114199117D01*
X147178079Y-114199514D01*
X147174498Y-114201554D01*
X147173455Y-114201985D01*
X147173446Y-114201990D01*
X147025965Y-114300535D01*
X147025961Y-114300538D01*
X146900538Y-114425961D01*
X146900535Y-114425965D01*
X146801990Y-114573446D01*
X146801983Y-114573459D01*
X146734106Y-114737332D01*
X146734103Y-114737341D01*
X146699500Y-114911304D01*
X146699500Y-115088695D01*
X146734103Y-115262658D01*
X146734106Y-115262667D01*
X146801983Y-115426540D01*
X146801990Y-115426553D01*
X146900535Y-115574034D01*
X146900538Y-115574038D01*
X147025961Y-115699461D01*
X147025965Y-115699464D01*
X147173446Y-115798009D01*
X147173459Y-115798016D01*
X147296363Y-115848923D01*
X147337334Y-115865894D01*
X147337336Y-115865894D01*
X147337341Y-115865896D01*
X147511304Y-115900499D01*
X147511307Y-115900500D01*
X147511309Y-115900500D01*
X147564548Y-115900500D01*
X147631587Y-115920185D01*
X147652229Y-115936819D01*
X148448227Y-116732819D01*
X148481712Y-116794142D01*
X148476728Y-116863834D01*
X148434856Y-116919767D01*
X148369392Y-116944184D01*
X148360546Y-116944500D01*
X146768388Y-116944500D01*
X146647555Y-116968535D01*
X146647547Y-116968537D01*
X146595585Y-116990061D01*
X146548132Y-116999500D01*
X146411306Y-116999500D01*
X146237341Y-117034103D01*
X146237332Y-117034106D01*
X146073459Y-117101983D01*
X146073446Y-117101990D01*
X145925965Y-117200535D01*
X145925961Y-117200538D01*
X145800538Y-117325961D01*
X145800535Y-117325965D01*
X145701990Y-117473446D01*
X145701983Y-117473459D01*
X145634106Y-117637332D01*
X145634103Y-117637341D01*
X145599500Y-117811304D01*
X145599500Y-117988695D01*
X145634103Y-118162658D01*
X145634106Y-118162667D01*
X145701983Y-118326540D01*
X145701990Y-118326553D01*
X145800535Y-118474034D01*
X145800538Y-118474038D01*
X145925961Y-118599461D01*
X145925965Y-118599464D01*
X145992473Y-118643904D01*
X146037278Y-118697517D01*
X146045985Y-118766842D01*
X146015830Y-118829869D01*
X145971035Y-118861567D01*
X145873455Y-118901985D01*
X145873446Y-118901990D01*
X145725965Y-119000535D01*
X145725961Y-119000538D01*
X145600538Y-119125961D01*
X145600535Y-119125965D01*
X145501990Y-119273446D01*
X145501983Y-119273459D01*
X145434106Y-119437332D01*
X145434103Y-119437341D01*
X145399500Y-119611304D01*
X145399500Y-119788695D01*
X145434103Y-119962658D01*
X145434106Y-119962667D01*
X145501983Y-120126540D01*
X145501990Y-120126553D01*
X145600535Y-120274034D01*
X145600538Y-120274038D01*
X145725961Y-120399461D01*
X145725965Y-120399464D01*
X145873446Y-120498009D01*
X145873459Y-120498016D01*
X145945542Y-120527873D01*
X146037334Y-120565894D01*
X146037336Y-120565894D01*
X146037341Y-120565896D01*
X146211304Y-120600499D01*
X146211307Y-120600500D01*
X146211309Y-120600500D01*
X146388693Y-120600500D01*
X146388694Y-120600499D01*
X146448058Y-120588691D01*
X146562658Y-120565896D01*
X146562661Y-120565894D01*
X146562666Y-120565894D01*
X146726547Y-120498013D01*
X146874035Y-120399464D01*
X146999464Y-120274035D01*
X147098013Y-120126547D01*
X147165894Y-119962666D01*
X147168776Y-119948180D01*
X147193086Y-119825961D01*
X147200500Y-119788691D01*
X147200500Y-119735452D01*
X147209144Y-119706011D01*
X147215668Y-119676025D01*
X147219422Y-119671009D01*
X147220185Y-119668413D01*
X147236814Y-119647776D01*
X147382773Y-119501816D01*
X147444095Y-119468334D01*
X147470453Y-119465500D01*
X149189609Y-119465500D01*
X149256648Y-119485185D01*
X149302403Y-119537989D01*
X149312347Y-119607147D01*
X149306366Y-119630577D01*
X149305908Y-119632516D01*
X149301231Y-119676025D01*
X149299501Y-119692123D01*
X149299500Y-119692135D01*
X149299500Y-120527870D01*
X149299501Y-120527876D01*
X149305908Y-120587483D01*
X149356202Y-120722328D01*
X149356206Y-120722335D01*
X149442452Y-120837544D01*
X149442455Y-120837547D01*
X149557664Y-120923793D01*
X149557671Y-120923797D01*
X149692517Y-120974091D01*
X149692516Y-120974091D01*
X149699444Y-120974835D01*
X149752127Y-120980500D01*
X152247872Y-120980499D01*
X152307483Y-120974091D01*
X152442331Y-120923796D01*
X152557546Y-120837546D01*
X152643796Y-120722331D01*
X152694091Y-120587483D01*
X152700500Y-120527873D01*
X152700499Y-119692128D01*
X152694262Y-119634106D01*
X152694091Y-119632516D01*
X152651503Y-119518333D01*
X152646519Y-119448642D01*
X152651503Y-119431667D01*
X152694091Y-119317482D01*
X152698824Y-119273459D01*
X152700500Y-119257873D01*
X152700499Y-118422135D01*
X153199500Y-118422135D01*
X153199500Y-119257870D01*
X153199501Y-119257876D01*
X153205908Y-119317483D01*
X153248496Y-119431667D01*
X153253480Y-119501359D01*
X153248496Y-119518333D01*
X153205908Y-119632516D01*
X153201231Y-119676025D01*
X153199501Y-119692123D01*
X153199500Y-119692135D01*
X153199500Y-120527870D01*
X153199501Y-120527876D01*
X153205908Y-120587483D01*
X153256202Y-120722328D01*
X153256206Y-120722335D01*
X153342452Y-120837544D01*
X153342455Y-120837547D01*
X153457664Y-120923793D01*
X153457671Y-120923797D01*
X153592517Y-120974091D01*
X153592516Y-120974091D01*
X153599444Y-120974835D01*
X153652127Y-120980500D01*
X155676500Y-120980499D01*
X155685185Y-120983049D01*
X155694147Y-120981761D01*
X155718187Y-120992739D01*
X155743539Y-121000184D01*
X155749466Y-121007024D01*
X155757703Y-121010786D01*
X155771990Y-121033018D01*
X155789294Y-121052987D01*
X155791581Y-121063502D01*
X155795477Y-121069564D01*
X155800500Y-121104499D01*
X155800500Y-121274638D01*
X155780815Y-121341677D01*
X155764181Y-121362319D01*
X155700538Y-121425961D01*
X155700535Y-121425965D01*
X155601990Y-121573446D01*
X155601983Y-121573459D01*
X155534106Y-121737332D01*
X155534103Y-121737341D01*
X155499500Y-121911304D01*
X155499500Y-122088695D01*
X155534103Y-122262658D01*
X155534106Y-122262667D01*
X155601983Y-122426540D01*
X155601990Y-122426553D01*
X155700535Y-122574034D01*
X155700538Y-122574038D01*
X155825961Y-122699461D01*
X155825965Y-122699464D01*
X155973446Y-122798009D01*
X155973459Y-122798016D01*
X156096363Y-122848923D01*
X156137334Y-122865894D01*
X156137336Y-122865894D01*
X156137341Y-122865896D01*
X156311304Y-122900499D01*
X156311307Y-122900500D01*
X156311309Y-122900500D01*
X156488693Y-122900500D01*
X156488694Y-122900499D01*
X156546682Y-122888964D01*
X156662658Y-122865896D01*
X156662661Y-122865894D01*
X156662666Y-122865894D01*
X156826547Y-122798013D01*
X156974035Y-122699464D01*
X157099464Y-122574035D01*
X157198013Y-122426547D01*
X157265894Y-122262666D01*
X157300500Y-122088691D01*
X157300500Y-121911309D01*
X157300500Y-121911306D01*
X157300499Y-121911304D01*
X157265896Y-121737341D01*
X157265893Y-121737332D01*
X157198016Y-121573459D01*
X157198009Y-121573446D01*
X157099464Y-121425965D01*
X157099461Y-121425961D01*
X157087819Y-121414319D01*
X157054334Y-121352996D01*
X157051500Y-121326638D01*
X157051500Y-119481741D01*
X157051501Y-119481720D01*
X157051501Y-119352391D01*
X157027464Y-119231555D01*
X157027463Y-119231549D01*
X156980312Y-119117715D01*
X156911858Y-119015267D01*
X156911855Y-119015263D01*
X156636818Y-118740226D01*
X156603333Y-118678903D01*
X156600499Y-118652545D01*
X156600499Y-118422129D01*
X156600498Y-118422123D01*
X156600497Y-118422116D01*
X156594091Y-118362517D01*
X156580677Y-118326553D01*
X156543797Y-118227671D01*
X156543793Y-118227664D01*
X156457547Y-118112455D01*
X156457544Y-118112452D01*
X156342335Y-118026206D01*
X156342328Y-118026202D01*
X156207482Y-117975908D01*
X156207483Y-117975908D01*
X156147883Y-117969501D01*
X156147881Y-117969500D01*
X156147873Y-117969500D01*
X156147864Y-117969500D01*
X153652129Y-117969500D01*
X153652123Y-117969501D01*
X153592516Y-117975908D01*
X153457671Y-118026202D01*
X153457664Y-118026206D01*
X153342455Y-118112452D01*
X153342452Y-118112455D01*
X153256206Y-118227664D01*
X153256202Y-118227671D01*
X153205908Y-118362517D01*
X153199501Y-118422116D01*
X153199501Y-118422123D01*
X153199500Y-118422135D01*
X152700499Y-118422135D01*
X152700499Y-118422128D01*
X152694091Y-118362517D01*
X152680677Y-118326553D01*
X152651503Y-118248333D01*
X152646519Y-118178642D01*
X152651503Y-118161667D01*
X152694091Y-118047482D01*
X152700500Y-117987873D01*
X152700499Y-117152128D01*
X152694091Y-117092517D01*
X152651502Y-116978332D01*
X152646519Y-116908642D01*
X152651503Y-116891667D01*
X152661884Y-116863834D01*
X152694091Y-116777483D01*
X152700500Y-116717873D01*
X152700499Y-115882128D01*
X152694091Y-115822517D01*
X152651502Y-115708332D01*
X152646519Y-115638642D01*
X152651503Y-115621667D01*
X152667639Y-115578405D01*
X152694091Y-115507483D01*
X152700500Y-115447873D01*
X152700499Y-114612135D01*
X153199500Y-114612135D01*
X153199500Y-115447870D01*
X153199501Y-115447876D01*
X153205908Y-115507483D01*
X153256202Y-115642328D01*
X153256206Y-115642335D01*
X153342452Y-115757544D01*
X153342455Y-115757547D01*
X153457664Y-115843793D01*
X153457671Y-115843797D01*
X153592517Y-115894091D01*
X153592516Y-115894091D01*
X153599444Y-115894835D01*
X153652127Y-115900500D01*
X156147872Y-115900499D01*
X156207483Y-115894091D01*
X156342331Y-115843796D01*
X156457546Y-115757546D01*
X156543796Y-115642331D01*
X156594091Y-115507483D01*
X156600500Y-115447873D01*
X156600499Y-114612128D01*
X156594091Y-114552517D01*
X156593367Y-114550577D01*
X156543797Y-114417671D01*
X156543793Y-114417664D01*
X156457547Y-114302455D01*
X156457544Y-114302452D01*
X156342335Y-114216206D01*
X156342328Y-114216202D01*
X156207482Y-114165908D01*
X156207483Y-114165908D01*
X156147883Y-114159501D01*
X156147881Y-114159500D01*
X156147873Y-114159500D01*
X156147864Y-114159500D01*
X153652129Y-114159500D01*
X153652123Y-114159501D01*
X153592516Y-114165908D01*
X153457671Y-114216202D01*
X153457664Y-114216206D01*
X153342455Y-114302452D01*
X153342452Y-114302455D01*
X153256206Y-114417664D01*
X153256202Y-114417671D01*
X153205908Y-114552517D01*
X153203657Y-114573459D01*
X153199501Y-114612123D01*
X153199500Y-114612135D01*
X152700499Y-114612135D01*
X152700499Y-114612128D01*
X152694091Y-114552517D01*
X152693367Y-114550577D01*
X152651503Y-114438333D01*
X152646519Y-114368642D01*
X152651503Y-114351667D01*
X152694091Y-114237482D01*
X152700500Y-114177873D01*
X152700499Y-113342128D01*
X152694091Y-113282517D01*
X152686687Y-113262667D01*
X152651503Y-113168333D01*
X152646519Y-113098642D01*
X152651503Y-113081667D01*
X152694091Y-112967483D01*
X152700500Y-112907873D01*
X152700499Y-112543499D01*
X152720183Y-112476461D01*
X152772987Y-112430706D01*
X152824499Y-112419500D01*
X153075500Y-112419500D01*
X153142539Y-112439185D01*
X153188294Y-112491989D01*
X153199500Y-112543500D01*
X153199500Y-112907869D01*
X153199501Y-112907876D01*
X153205908Y-112967483D01*
X153256202Y-113102328D01*
X153256206Y-113102335D01*
X153342452Y-113217544D01*
X153342455Y-113217547D01*
X153457664Y-113303793D01*
X153457671Y-113303797D01*
X153592517Y-113354091D01*
X153592516Y-113354091D01*
X153599444Y-113354835D01*
X153652127Y-113360500D01*
X156147872Y-113360499D01*
X156207483Y-113354091D01*
X156342331Y-113303796D01*
X156457546Y-113217546D01*
X156543796Y-113102331D01*
X156594091Y-112967483D01*
X156600500Y-112907873D01*
X156600499Y-112072128D01*
X156594091Y-112012517D01*
X156589166Y-111999313D01*
X156543797Y-111877671D01*
X156543793Y-111877664D01*
X156457547Y-111762455D01*
X156457544Y-111762452D01*
X156342335Y-111676206D01*
X156342328Y-111676202D01*
X156207482Y-111625908D01*
X156207483Y-111625908D01*
X156147883Y-111619501D01*
X156147881Y-111619500D01*
X156147873Y-111619500D01*
X156147865Y-111619500D01*
X154965452Y-111619500D01*
X154898413Y-111599815D01*
X154877771Y-111583181D01*
X154699822Y-111405232D01*
X154689859Y-111395269D01*
X154689858Y-111395267D01*
X154602733Y-111308142D01*
X154551509Y-111273915D01*
X154500286Y-111239688D01*
X154500283Y-111239686D01*
X154500280Y-111239685D01*
X154426603Y-111209168D01*
X154426601Y-111209167D01*
X154419792Y-111206347D01*
X154386452Y-111192537D01*
X154326029Y-111180518D01*
X154321306Y-111179578D01*
X154321304Y-111179578D01*
X154265610Y-111168500D01*
X154265607Y-111168500D01*
X154265606Y-111168500D01*
X148397464Y-111168500D01*
X148330425Y-111148815D01*
X148309783Y-111132181D01*
X144645552Y-107467950D01*
X144612067Y-107406627D01*
X144617051Y-107336935D01*
X144658923Y-107281002D01*
X144724387Y-107256585D01*
X144780682Y-107265707D01*
X144861088Y-107299012D01*
X144861091Y-107299012D01*
X144861095Y-107299014D01*
X145035058Y-107333617D01*
X145035061Y-107333618D01*
X145035063Y-107333618D01*
X145212447Y-107333618D01*
X145212448Y-107333617D01*
X145270436Y-107322082D01*
X145386412Y-107299014D01*
X145386415Y-107299012D01*
X145386420Y-107299012D01*
X145550301Y-107231131D01*
X145697789Y-107132582D01*
X145823218Y-107007153D01*
X145921767Y-106859665D01*
X145989648Y-106695784D01*
X145994092Y-106673446D01*
X146024253Y-106521813D01*
X146024254Y-106521811D01*
X146024254Y-106439658D01*
X146029512Y-106421748D01*
X146029771Y-106403081D01*
X146039153Y-106388916D01*
X146043939Y-106372619D01*
X146058044Y-106360396D01*
X146068355Y-106344831D01*
X146094026Y-106329217D01*
X146096743Y-106326864D01*
X146098307Y-106326162D01*
X146099520Y-106325628D01*
X146215233Y-106277698D01*
X146224377Y-106270681D01*
X146238055Y-106264662D01*
X146258467Y-106262014D01*
X146277667Y-106254589D01*
X146292416Y-106257611D01*
X146307344Y-106255676D01*
X146325947Y-106264484D01*
X146346114Y-106268618D01*
X146356886Y-106279134D01*
X146370493Y-106285577D01*
X146381380Y-106303045D01*
X146396110Y-106317424D01*
X146399487Y-106332095D01*
X146407451Y-106344872D01*
X146407166Y-106365453D01*
X146411784Y-106385513D01*
X146407080Y-106412749D01*
X146402356Y-106429008D01*
X146399500Y-106465302D01*
X146399500Y-106934697D01*
X146402356Y-106970991D01*
X146402357Y-106970997D01*
X146447504Y-107126390D01*
X146447504Y-107126391D01*
X146447505Y-107126393D01*
X146447506Y-107126395D01*
X146451165Y-107132582D01*
X146463931Y-107154168D01*
X146481112Y-107221892D01*
X146460301Y-107286178D01*
X146401989Y-107373448D01*
X146401983Y-107373459D01*
X146334106Y-107537332D01*
X146334103Y-107537341D01*
X146299500Y-107711304D01*
X146299500Y-107888695D01*
X146334103Y-108062658D01*
X146334106Y-108062667D01*
X146401983Y-108226540D01*
X146401990Y-108226553D01*
X146500535Y-108374034D01*
X146500538Y-108374038D01*
X146625961Y-108499461D01*
X146625965Y-108499464D01*
X146773446Y-108598009D01*
X146773459Y-108598016D01*
X146896363Y-108648923D01*
X146937334Y-108665894D01*
X146937336Y-108665894D01*
X146937341Y-108665896D01*
X147111304Y-108700499D01*
X147111307Y-108700500D01*
X147111309Y-108700500D01*
X147288693Y-108700500D01*
X147288694Y-108700499D01*
X147346682Y-108688964D01*
X147462658Y-108665896D01*
X147462661Y-108665894D01*
X147462666Y-108665894D01*
X147626547Y-108598013D01*
X147774035Y-108499464D01*
X147899464Y-108374035D01*
X147998013Y-108226547D01*
X148065894Y-108062666D01*
X148078755Y-107998013D01*
X148098646Y-107898012D01*
X148100500Y-107888691D01*
X148100500Y-107711309D01*
X148100500Y-107711306D01*
X148100499Y-107711304D01*
X148065896Y-107537341D01*
X148065893Y-107537332D01*
X147998016Y-107373459D01*
X147998009Y-107373446D01*
X147918480Y-107254423D01*
X147897602Y-107187746D01*
X147911653Y-107134531D01*
X147909396Y-107133554D01*
X147912489Y-107126402D01*
X147912494Y-107126395D01*
X147957643Y-106970993D01*
X147960500Y-106934690D01*
X147960500Y-106465310D01*
X147957643Y-106429007D01*
X147949371Y-106400536D01*
X147912495Y-106273609D01*
X147912494Y-106273606D01*
X147912494Y-106273605D01*
X147844015Y-106157814D01*
X147826833Y-106090091D01*
X147848993Y-106023828D01*
X147903459Y-105980065D01*
X147926557Y-105973077D01*
X147962658Y-105965896D01*
X147962661Y-105965894D01*
X147962666Y-105965894D01*
X148126547Y-105898013D01*
X148274035Y-105799464D01*
X148399464Y-105674035D01*
X148498013Y-105526547D01*
X148565894Y-105362666D01*
X148585184Y-105265692D01*
X148600499Y-105188695D01*
X148600500Y-105188693D01*
X148600500Y-105096407D01*
X148620185Y-105029368D01*
X148672989Y-104983613D01*
X148742147Y-104973669D01*
X148759083Y-104977328D01*
X148829007Y-104997643D01*
X148865310Y-105000500D01*
X148865318Y-105000500D01*
X149334682Y-105000500D01*
X149334690Y-105000500D01*
X149370993Y-104997643D01*
X149441061Y-104977286D01*
X149510928Y-104977485D01*
X149569598Y-105015426D01*
X149598443Y-105079064D01*
X149599058Y-105084204D01*
X149599500Y-105088698D01*
X149634103Y-105262658D01*
X149634106Y-105262667D01*
X149701983Y-105426540D01*
X149701990Y-105426553D01*
X149800535Y-105574034D01*
X149800538Y-105574038D01*
X149925961Y-105699461D01*
X149925965Y-105699464D01*
X150073446Y-105798009D01*
X150073459Y-105798016D01*
X150154506Y-105831586D01*
X150237334Y-105865894D01*
X150237336Y-105865894D01*
X150237341Y-105865896D01*
X150411304Y-105900499D01*
X150411307Y-105900500D01*
X150411309Y-105900500D01*
X150588693Y-105900500D01*
X150588694Y-105900499D01*
X150646682Y-105888964D01*
X150762658Y-105865896D01*
X150762661Y-105865894D01*
X150762666Y-105865894D01*
X150926547Y-105798013D01*
X151074035Y-105699464D01*
X151199464Y-105574035D01*
X151298013Y-105426547D01*
X151365894Y-105262666D01*
X151390680Y-105138057D01*
X151423064Y-105076147D01*
X151483780Y-105041573D01*
X151553549Y-105045312D01*
X151599977Y-105074567D01*
X155474141Y-108948732D01*
X155474142Y-108948733D01*
X155561267Y-109035858D01*
X155561268Y-109035859D01*
X155663707Y-109104307D01*
X155663713Y-109104310D01*
X155663714Y-109104311D01*
X155777548Y-109151463D01*
X155837971Y-109163481D01*
X155898393Y-109175500D01*
X155898394Y-109175500D01*
X158030336Y-109175500D01*
X158097375Y-109195185D01*
X158143130Y-109247989D01*
X158153626Y-109286246D01*
X158155909Y-109307483D01*
X158206202Y-109442328D01*
X158206206Y-109442335D01*
X158292452Y-109557544D01*
X158292455Y-109557547D01*
X158407664Y-109643793D01*
X158407671Y-109643797D01*
X158542517Y-109694091D01*
X158542516Y-109694091D01*
X158549444Y-109694835D01*
X158602127Y-109700500D01*
X160247872Y-109700499D01*
X160307483Y-109694091D01*
X160442331Y-109643796D01*
X160557546Y-109557546D01*
X160643796Y-109442331D01*
X160694091Y-109307483D01*
X160700500Y-109247873D01*
X160700499Y-107852135D01*
X166099500Y-107852135D01*
X166099500Y-109247870D01*
X166099501Y-109247876D01*
X166105908Y-109307483D01*
X166156202Y-109442328D01*
X166156206Y-109442335D01*
X166242452Y-109557544D01*
X166242455Y-109557547D01*
X166357664Y-109643793D01*
X166357671Y-109643797D01*
X166492517Y-109694091D01*
X166492516Y-109694091D01*
X166499444Y-109694835D01*
X166552127Y-109700500D01*
X168197872Y-109700499D01*
X168257483Y-109694091D01*
X168392331Y-109643796D01*
X168507546Y-109557546D01*
X168593796Y-109442331D01*
X168644091Y-109307483D01*
X168650500Y-109247873D01*
X168650499Y-107852128D01*
X168644091Y-107792517D01*
X168644052Y-107792413D01*
X168593797Y-107657671D01*
X168593793Y-107657664D01*
X168507547Y-107542455D01*
X168507544Y-107542452D01*
X168392335Y-107456206D01*
X168392328Y-107456202D01*
X168257482Y-107405908D01*
X168257483Y-107405908D01*
X168197883Y-107399501D01*
X168197881Y-107399500D01*
X168197873Y-107399500D01*
X168197864Y-107399500D01*
X166552129Y-107399500D01*
X166552123Y-107399501D01*
X166492516Y-107405908D01*
X166357671Y-107456202D01*
X166357664Y-107456206D01*
X166242455Y-107542452D01*
X166242452Y-107542455D01*
X166156206Y-107657664D01*
X166156202Y-107657671D01*
X166105908Y-107792517D01*
X166099501Y-107852116D01*
X166099501Y-107852123D01*
X166099500Y-107852135D01*
X160700499Y-107852135D01*
X160700499Y-107852128D01*
X160694838Y-107799464D01*
X160694091Y-107792516D01*
X160643797Y-107657671D01*
X160643793Y-107657664D01*
X160557547Y-107542455D01*
X160557544Y-107542452D01*
X160442335Y-107456206D01*
X160442328Y-107456202D01*
X160307482Y-107405908D01*
X160307483Y-107405908D01*
X160247883Y-107399501D01*
X160247881Y-107399500D01*
X160247873Y-107399500D01*
X160247864Y-107399500D01*
X158602129Y-107399500D01*
X158602123Y-107399501D01*
X158542516Y-107405908D01*
X158407671Y-107456202D01*
X158407664Y-107456206D01*
X158292455Y-107542452D01*
X158292452Y-107542455D01*
X158206206Y-107657664D01*
X158206202Y-107657671D01*
X158155908Y-107792516D01*
X158153625Y-107813757D01*
X158126886Y-107878308D01*
X158069493Y-107918155D01*
X158030336Y-107924500D01*
X156270453Y-107924500D01*
X156203414Y-107904815D01*
X156182772Y-107888181D01*
X152316818Y-104022227D01*
X152283333Y-103960904D01*
X152280499Y-103934546D01*
X152280499Y-103850831D01*
X152280498Y-103850806D01*
X152279963Y-103844006D01*
X152277665Y-103814796D01*
X152240424Y-103686610D01*
X152235500Y-103652015D01*
X152235500Y-103337958D01*
X152252768Y-103274837D01*
X152293058Y-103206710D01*
X152332869Y-103139393D01*
X152377665Y-102985204D01*
X152380500Y-102949181D01*
X152380499Y-102450820D01*
X152377665Y-102414796D01*
X152332869Y-102260607D01*
X152251135Y-102122402D01*
X152251133Y-102122400D01*
X152251130Y-102122396D01*
X152137603Y-102008869D01*
X152137595Y-102008863D01*
X151999393Y-101927131D01*
X151999388Y-101927129D01*
X151845208Y-101882335D01*
X151845202Y-101882334D01*
X151809188Y-101879500D01*
X151523245Y-101879500D01*
X151514117Y-101876819D01*
X151504692Y-101878104D01*
X151481135Y-101867135D01*
X151456206Y-101859815D01*
X151449977Y-101852626D01*
X151441353Y-101848611D01*
X151427464Y-101826645D01*
X151410451Y-101807011D01*
X151408103Y-101796025D01*
X151404013Y-101789556D01*
X151401625Y-101765709D01*
X151399248Y-101754585D01*
X151399280Y-101750186D01*
X151400500Y-101734690D01*
X151400500Y-101584991D01*
X151400503Y-101584585D01*
X151410500Y-101551444D01*
X151420185Y-101518461D01*
X151420543Y-101518150D01*
X151420682Y-101517692D01*
X151447006Y-101495219D01*
X151472989Y-101472706D01*
X151473513Y-101472591D01*
X151473823Y-101472328D01*
X151476240Y-101471998D01*
X151524500Y-101461500D01*
X154050500Y-101461500D01*
X154117539Y-101481185D01*
X154163294Y-101533989D01*
X154174500Y-101585500D01*
X154174500Y-101605057D01*
X154154815Y-101672096D01*
X154102011Y-101717851D01*
X154074693Y-101726674D01*
X154037338Y-101734104D01*
X154037329Y-101734107D01*
X153873459Y-101801983D01*
X153873446Y-101801990D01*
X153725965Y-101900535D01*
X153725961Y-101900538D01*
X153600538Y-102025961D01*
X153600535Y-102025965D01*
X153501990Y-102173446D01*
X153501983Y-102173459D01*
X153434106Y-102337332D01*
X153434103Y-102337341D01*
X153399500Y-102511304D01*
X153399500Y-102688695D01*
X153434103Y-102862658D01*
X153434106Y-102862667D01*
X153501983Y-103026540D01*
X153501990Y-103026553D01*
X153600535Y-103174034D01*
X153600538Y-103174038D01*
X153725961Y-103299461D01*
X153725965Y-103299464D01*
X153873446Y-103398009D01*
X153873459Y-103398016D01*
X153996363Y-103448923D01*
X154037334Y-103465894D01*
X154037336Y-103465894D01*
X154037341Y-103465896D01*
X154211304Y-103500499D01*
X154211307Y-103500500D01*
X154211309Y-103500500D01*
X154388693Y-103500500D01*
X154388694Y-103500499D01*
X154446682Y-103488964D01*
X154562658Y-103465896D01*
X154562661Y-103465894D01*
X154562666Y-103465894D01*
X154726547Y-103398013D01*
X154795208Y-103352135D01*
X166099500Y-103352135D01*
X166099500Y-104747870D01*
X166099501Y-104747876D01*
X166105908Y-104807483D01*
X166156202Y-104942328D01*
X166156206Y-104942335D01*
X166242452Y-105057544D01*
X166242455Y-105057547D01*
X166357664Y-105143793D01*
X166357671Y-105143797D01*
X166492517Y-105194091D01*
X166492516Y-105194091D01*
X166499444Y-105194835D01*
X166552127Y-105200500D01*
X168197872Y-105200499D01*
X168257483Y-105194091D01*
X168392331Y-105143796D01*
X168507546Y-105057546D01*
X168593796Y-104942331D01*
X168644091Y-104807483D01*
X168650500Y-104747873D01*
X168650499Y-103352128D01*
X168644091Y-103292517D01*
X168637197Y-103274034D01*
X168593797Y-103157671D01*
X168593793Y-103157664D01*
X168507547Y-103042455D01*
X168507544Y-103042452D01*
X168392335Y-102956206D01*
X168392328Y-102956202D01*
X168257482Y-102905908D01*
X168257483Y-102905908D01*
X168197883Y-102899501D01*
X168197881Y-102899500D01*
X168197873Y-102899500D01*
X168197864Y-102899500D01*
X166552129Y-102899500D01*
X166552123Y-102899501D01*
X166492516Y-102905908D01*
X166357671Y-102956202D01*
X166357664Y-102956206D01*
X166242455Y-103042452D01*
X166242452Y-103042455D01*
X166156206Y-103157664D01*
X166156202Y-103157671D01*
X166105908Y-103292517D01*
X166099673Y-103350514D01*
X166099501Y-103352123D01*
X166099500Y-103352135D01*
X154795208Y-103352135D01*
X154874035Y-103299464D01*
X154880983Y-103292516D01*
X154912375Y-103261125D01*
X154999461Y-103174038D01*
X154999464Y-103174035D01*
X155098013Y-103026547D01*
X155165894Y-102862666D01*
X155200500Y-102688691D01*
X155200500Y-102635453D01*
X155207286Y-102612341D01*
X155209782Y-102588381D01*
X155217904Y-102576182D01*
X155220185Y-102568414D01*
X155227691Y-102557968D01*
X155231973Y-102552617D01*
X155285858Y-102498733D01*
X155337256Y-102421809D01*
X155354312Y-102396285D01*
X155392656Y-102303714D01*
X155401463Y-102282452D01*
X155413090Y-102223996D01*
X155415050Y-102214145D01*
X155415050Y-102214142D01*
X155425500Y-102161607D01*
X155425500Y-102038393D01*
X155425500Y-101585500D01*
X155445185Y-101518461D01*
X155497989Y-101472706D01*
X155549500Y-101461500D01*
X158356464Y-101461500D01*
X158423503Y-101481185D01*
X158430775Y-101486233D01*
X158507669Y-101543796D01*
X158507671Y-101543797D01*
X158642517Y-101594091D01*
X158642516Y-101594091D01*
X158649444Y-101594835D01*
X158702127Y-101600500D01*
X160347872Y-101600499D01*
X160407483Y-101594091D01*
X160542331Y-101543796D01*
X160657546Y-101457546D01*
X160743796Y-101342331D01*
X160794091Y-101207483D01*
X160800500Y-101147873D01*
X160800499Y-99752135D01*
X166199500Y-99752135D01*
X166199500Y-101147870D01*
X166199501Y-101147876D01*
X166205908Y-101207483D01*
X166256202Y-101342328D01*
X166256206Y-101342335D01*
X166342452Y-101457544D01*
X166342455Y-101457547D01*
X166457664Y-101543793D01*
X166457671Y-101543797D01*
X166592517Y-101594091D01*
X166592516Y-101594091D01*
X166599444Y-101594835D01*
X166652127Y-101600500D01*
X168297872Y-101600499D01*
X168357483Y-101594091D01*
X168492331Y-101543796D01*
X168607546Y-101457546D01*
X168693796Y-101342331D01*
X168744091Y-101207483D01*
X168750500Y-101147873D01*
X168750499Y-99752128D01*
X168744091Y-99692517D01*
X168732838Y-99662347D01*
X168693797Y-99557671D01*
X168693793Y-99557664D01*
X168607547Y-99442455D01*
X168607544Y-99442452D01*
X168492335Y-99356206D01*
X168492328Y-99356202D01*
X168357482Y-99305908D01*
X168357483Y-99305908D01*
X168297883Y-99299501D01*
X168297881Y-99299500D01*
X168297873Y-99299500D01*
X168297864Y-99299500D01*
X166652129Y-99299500D01*
X166652123Y-99299501D01*
X166592516Y-99305908D01*
X166457671Y-99356202D01*
X166457664Y-99356206D01*
X166342455Y-99442452D01*
X166342452Y-99442455D01*
X166256206Y-99557664D01*
X166256202Y-99557671D01*
X166205908Y-99692517D01*
X166199501Y-99752116D01*
X166199501Y-99752123D01*
X166199500Y-99752135D01*
X160800499Y-99752135D01*
X160800499Y-99752128D01*
X160794091Y-99692517D01*
X160782838Y-99662347D01*
X160743797Y-99557671D01*
X160743793Y-99557664D01*
X160657547Y-99442455D01*
X160657544Y-99442452D01*
X160542335Y-99356206D01*
X160542328Y-99356202D01*
X160407482Y-99305908D01*
X160407483Y-99305908D01*
X160347883Y-99299501D01*
X160347881Y-99299500D01*
X160347873Y-99299500D01*
X160347864Y-99299500D01*
X158702129Y-99299500D01*
X158702123Y-99299501D01*
X158642516Y-99305908D01*
X158507671Y-99356202D01*
X158507664Y-99356206D01*
X158392455Y-99442452D01*
X158392452Y-99442455D01*
X158306206Y-99557664D01*
X158306202Y-99557671D01*
X158255908Y-99692517D01*
X158249501Y-99752116D01*
X158249501Y-99752123D01*
X158249500Y-99752135D01*
X158249500Y-100086500D01*
X158229815Y-100153539D01*
X158177011Y-100199294D01*
X158125500Y-100210500D01*
X151404500Y-100210500D01*
X151337461Y-100190815D01*
X151291706Y-100138011D01*
X151280500Y-100086500D01*
X151280500Y-99965317D01*
X151280499Y-99965302D01*
X151277643Y-99929008D01*
X151277642Y-99929002D01*
X151232495Y-99773609D01*
X151232494Y-99773606D01*
X151232494Y-99773605D01*
X151150117Y-99634313D01*
X151150112Y-99634307D01*
X151035692Y-99519887D01*
X151035684Y-99519881D01*
X150904763Y-99442455D01*
X150896395Y-99437506D01*
X150896394Y-99437505D01*
X150896393Y-99437505D01*
X150896390Y-99437504D01*
X150740997Y-99392357D01*
X150740991Y-99392356D01*
X150704697Y-99389500D01*
X150704690Y-99389500D01*
X150295310Y-99389500D01*
X150295302Y-99389500D01*
X150259008Y-99392356D01*
X150259002Y-99392357D01*
X150206776Y-99407531D01*
X150136906Y-99407332D01*
X150078236Y-99369390D01*
X150049393Y-99305751D01*
X150049243Y-99272267D01*
X150050500Y-99262720D01*
X150050500Y-99037280D01*
X150035687Y-98924764D01*
X150035686Y-98924763D01*
X150034626Y-98916705D01*
X150037689Y-98916301D01*
X150037689Y-98883698D01*
X150034626Y-98883295D01*
X150037335Y-98862720D01*
X150050500Y-98762720D01*
X150050500Y-98537280D01*
X150035687Y-98424764D01*
X150035686Y-98424763D01*
X150034626Y-98416705D01*
X150037689Y-98416301D01*
X150037689Y-98383698D01*
X150034626Y-98383295D01*
X150037335Y-98362720D01*
X150050500Y-98262720D01*
X150050500Y-98087130D01*
X150054165Y-98074645D01*
X150053141Y-98061675D01*
X150063820Y-98041765D01*
X150070185Y-98020091D01*
X150080016Y-98011571D01*
X150086168Y-98000104D01*
X150105918Y-97989127D01*
X150122989Y-97974336D01*
X150137268Y-97971704D01*
X150147240Y-97966163D01*
X150168818Y-97965890D01*
X150182425Y-97963383D01*
X150190617Y-97963907D01*
X150253928Y-97976501D01*
X150377141Y-97976501D01*
X150377146Y-97976500D01*
X155985393Y-97976500D01*
X156108607Y-97976500D01*
X156108608Y-97976500D01*
X156108608Y-97976499D01*
X156178156Y-97962666D01*
X156229452Y-97952463D01*
X156262792Y-97938652D01*
X156343286Y-97905312D01*
X156394509Y-97871084D01*
X156445733Y-97836858D01*
X156532858Y-97749733D01*
X156532858Y-97749731D01*
X156543066Y-97739524D01*
X156543067Y-97739521D01*
X159030454Y-95252135D01*
X166199500Y-95252135D01*
X166199500Y-96647870D01*
X166199501Y-96647876D01*
X166205908Y-96707483D01*
X166256202Y-96842328D01*
X166256206Y-96842335D01*
X166342452Y-96957544D01*
X166342455Y-96957547D01*
X166457664Y-97043793D01*
X166457671Y-97043797D01*
X166592517Y-97094091D01*
X166592516Y-97094091D01*
X166599444Y-97094835D01*
X166652127Y-97100500D01*
X168297872Y-97100499D01*
X168357483Y-97094091D01*
X168492331Y-97043796D01*
X168607546Y-96957546D01*
X168693796Y-96842331D01*
X168744091Y-96707483D01*
X168750500Y-96647873D01*
X168750499Y-95252128D01*
X168744091Y-95192517D01*
X168742665Y-95188695D01*
X168693797Y-95057671D01*
X168693793Y-95057664D01*
X168607547Y-94942455D01*
X168607544Y-94942452D01*
X168492335Y-94856206D01*
X168492328Y-94856202D01*
X168357482Y-94805908D01*
X168357483Y-94805908D01*
X168297883Y-94799501D01*
X168297881Y-94799500D01*
X168297873Y-94799500D01*
X168297864Y-94799500D01*
X166652129Y-94799500D01*
X166652123Y-94799501D01*
X166592516Y-94805908D01*
X166457671Y-94856202D01*
X166457664Y-94856206D01*
X166342455Y-94942452D01*
X166342452Y-94942455D01*
X166256206Y-95057664D01*
X166256202Y-95057671D01*
X166205908Y-95192517D01*
X166199501Y-95252116D01*
X166199501Y-95252123D01*
X166199500Y-95252135D01*
X159030454Y-95252135D01*
X165520052Y-88762539D01*
X165581375Y-88729054D01*
X165607733Y-88726220D01*
X167363548Y-88726220D01*
X167430587Y-88745905D01*
X167451229Y-88762539D01*
X167896829Y-89208139D01*
X167930314Y-89269462D01*
X167925330Y-89339154D01*
X167883458Y-89395087D01*
X167878039Y-89398922D01*
X167725965Y-89500535D01*
X167725961Y-89500538D01*
X167600538Y-89625961D01*
X167600535Y-89625965D01*
X167501990Y-89773446D01*
X167501983Y-89773459D01*
X167434106Y-89937332D01*
X167434103Y-89937341D01*
X167399500Y-90111304D01*
X167399500Y-90288695D01*
X167434103Y-90462658D01*
X167434106Y-90462667D01*
X167501983Y-90626540D01*
X167501990Y-90626553D01*
X167600535Y-90774034D01*
X167600538Y-90774038D01*
X167725961Y-90899461D01*
X167725965Y-90899464D01*
X167842048Y-90977029D01*
X167844391Y-90978594D01*
X167889196Y-91032206D01*
X167899500Y-91081696D01*
X167899500Y-91188695D01*
X167934103Y-91362658D01*
X167934106Y-91362667D01*
X168001983Y-91526540D01*
X168001990Y-91526553D01*
X168100535Y-91674034D01*
X168100538Y-91674038D01*
X168225961Y-91799461D01*
X168225965Y-91799464D01*
X168373446Y-91898009D01*
X168373459Y-91898016D01*
X168496363Y-91948923D01*
X168537334Y-91965894D01*
X168537336Y-91965894D01*
X168537341Y-91965896D01*
X168711304Y-92000499D01*
X168711307Y-92000500D01*
X168711309Y-92000500D01*
X168888693Y-92000500D01*
X168888694Y-92000499D01*
X168946682Y-91988964D01*
X169062658Y-91965896D01*
X169062661Y-91965894D01*
X169062666Y-91965894D01*
X169226547Y-91898013D01*
X169374035Y-91799464D01*
X169392642Y-91780856D01*
X169453962Y-91747370D01*
X169523653Y-91752351D01*
X169546007Y-91764807D01*
X169546420Y-91764110D01*
X169553135Y-91768081D01*
X169694602Y-91851744D01*
X169736224Y-91863836D01*
X169852426Y-91897597D01*
X169852429Y-91897597D01*
X169852431Y-91897598D01*
X169889306Y-91900500D01*
X169889314Y-91900500D01*
X171020686Y-91900500D01*
X171020694Y-91900500D01*
X171029867Y-91899778D01*
X171098244Y-91914142D01*
X171127420Y-91938935D01*
X171128738Y-91937618D01*
X171134484Y-91943364D01*
X171134485Y-91943365D01*
X171241635Y-92050515D01*
X171372865Y-92126281D01*
X171519234Y-92165500D01*
X171519236Y-92165500D01*
X171670764Y-92165500D01*
X171670766Y-92165500D01*
X171817135Y-92126281D01*
X171948365Y-92050515D01*
X172055515Y-91943365D01*
X172131281Y-91812135D01*
X172170500Y-91665766D01*
X172170500Y-91514234D01*
X172131281Y-91367865D01*
X172055515Y-91236635D01*
X171948365Y-91129485D01*
X171817135Y-91053719D01*
X171697406Y-91021638D01*
X171637746Y-90985273D01*
X171607492Y-90923998D01*
X171605500Y-90913017D01*
X171605500Y-90884306D01*
X171602598Y-90847431D01*
X171578643Y-90764979D01*
X171577500Y-90758679D01*
X171580549Y-90730056D01*
X171580631Y-90701272D01*
X171584897Y-90689230D01*
X171584900Y-90689204D01*
X171584902Y-90689199D01*
X171584913Y-90689186D01*
X171584945Y-90689096D01*
X171590687Y-90675236D01*
X171605500Y-90562720D01*
X171605500Y-90337280D01*
X171590687Y-90224764D01*
X171590686Y-90224763D01*
X171589626Y-90216705D01*
X171592689Y-90216301D01*
X171592689Y-90183698D01*
X171589626Y-90183295D01*
X171599103Y-90111309D01*
X171605500Y-90062720D01*
X171605500Y-89837280D01*
X171590687Y-89724764D01*
X171590686Y-89724763D01*
X171589626Y-89716705D01*
X171592689Y-89716301D01*
X171592689Y-89683698D01*
X171589626Y-89683295D01*
X171592865Y-89658694D01*
X171605500Y-89562720D01*
X171605500Y-89337280D01*
X171590687Y-89224764D01*
X171590686Y-89224763D01*
X171589626Y-89216705D01*
X171592689Y-89216301D01*
X171592689Y-89183698D01*
X171589626Y-89183295D01*
X171602350Y-89086644D01*
X171605500Y-89062720D01*
X171605500Y-88837280D01*
X171590687Y-88724764D01*
X171590686Y-88724763D01*
X171589626Y-88716705D01*
X171592689Y-88716301D01*
X171592689Y-88683698D01*
X171589626Y-88683295D01*
X171590687Y-88675236D01*
X171605500Y-88562720D01*
X171605500Y-88337280D01*
X171590687Y-88224764D01*
X171590686Y-88224763D01*
X171589626Y-88216705D01*
X171592689Y-88216301D01*
X171592689Y-88183698D01*
X171589626Y-88183295D01*
X171590687Y-88175236D01*
X171605500Y-88062720D01*
X171605500Y-87837280D01*
X171590687Y-87724764D01*
X171590686Y-87724763D01*
X171589626Y-87716705D01*
X171592689Y-87716301D01*
X171592689Y-87683698D01*
X171589626Y-87683295D01*
X171590687Y-87675236D01*
X171605500Y-87562720D01*
X171605500Y-87337280D01*
X171590687Y-87224764D01*
X171590686Y-87224763D01*
X171589626Y-87216705D01*
X171592689Y-87216301D01*
X171592689Y-87183698D01*
X171589626Y-87183295D01*
X171600519Y-87100552D01*
X171605500Y-87062720D01*
X171605500Y-86837280D01*
X171590687Y-86724764D01*
X171584948Y-86710910D01*
X171583035Y-86693125D01*
X171576206Y-86676592D01*
X171578486Y-86650831D01*
X171577477Y-86641445D01*
X171577500Y-86641321D01*
X171578643Y-86635018D01*
X171602598Y-86552569D01*
X171605500Y-86515694D01*
X171605500Y-86486981D01*
X171607492Y-86476001D01*
X171618358Y-86454344D01*
X171625185Y-86431097D01*
X171633746Y-86423678D01*
X171638827Y-86413553D01*
X171659678Y-86401208D01*
X171677989Y-86385342D01*
X171697399Y-86378363D01*
X171817135Y-86346281D01*
X171948365Y-86270515D01*
X172055515Y-86163365D01*
X172131281Y-86032135D01*
X172170500Y-85885766D01*
X172170500Y-85734234D01*
X172131281Y-85587865D01*
X172055515Y-85456635D01*
X171948365Y-85349485D01*
X171882750Y-85311602D01*
X171817136Y-85273719D01*
X171743950Y-85254109D01*
X171670766Y-85234500D01*
X171519234Y-85234500D01*
X171372863Y-85273719D01*
X171241635Y-85349485D01*
X171128738Y-85462382D01*
X171126689Y-85460333D01*
X171081514Y-85493303D01*
X171029878Y-85500222D01*
X171020701Y-85499500D01*
X171020694Y-85499500D01*
X169889306Y-85499500D01*
X169889298Y-85499500D01*
X169852432Y-85502401D01*
X169852426Y-85502402D01*
X169694606Y-85548254D01*
X169694603Y-85548255D01*
X169546420Y-85635890D01*
X169545194Y-85633818D01*
X169491267Y-85654980D01*
X169422752Y-85641288D01*
X169392642Y-85619143D01*
X169374037Y-85600537D01*
X169374034Y-85600535D01*
X169226553Y-85501990D01*
X169226540Y-85501983D01*
X169062667Y-85434106D01*
X169062658Y-85434103D01*
X168888694Y-85399500D01*
X168888691Y-85399500D01*
X168711309Y-85399500D01*
X168711306Y-85399500D01*
X168537341Y-85434103D01*
X168537332Y-85434106D01*
X168373459Y-85501983D01*
X168373446Y-85501990D01*
X168225965Y-85600535D01*
X168225961Y-85600538D01*
X168100538Y-85725961D01*
X168100535Y-85725965D01*
X168001990Y-85873446D01*
X168001983Y-85873459D01*
X167934106Y-86037332D01*
X167934103Y-86037341D01*
X167899500Y-86211304D01*
X167899500Y-86372998D01*
X167897263Y-86380615D01*
X167898533Y-86388450D01*
X167887560Y-86413657D01*
X167879815Y-86440037D01*
X167873105Y-86446867D01*
X167870648Y-86452514D01*
X167844392Y-86476099D01*
X167802147Y-86504327D01*
X167802146Y-86504328D01*
X167748548Y-86540140D01*
X167704985Y-86583703D01*
X167661422Y-86627267D01*
X167188144Y-87100544D01*
X167188138Y-87100552D01*
X167119690Y-87202988D01*
X167119688Y-87202993D01*
X167102004Y-87245687D01*
X167072538Y-87316824D01*
X167072536Y-87316830D01*
X167071010Y-87324499D01*
X167071011Y-87324500D01*
X167060885Y-87375410D01*
X167028500Y-87437321D01*
X166967785Y-87471896D01*
X166939267Y-87475220D01*
X165235668Y-87475220D01*
X165114835Y-87499255D01*
X165114827Y-87499257D01*
X165000996Y-87546407D01*
X164920043Y-87600499D01*
X164898546Y-87614862D01*
X164898540Y-87614867D01*
X155824229Y-96689181D01*
X155762906Y-96722666D01*
X155736548Y-96725500D01*
X150625987Y-96725500D01*
X150596542Y-96716854D01*
X150566559Y-96710331D01*
X150561545Y-96706577D01*
X150558948Y-96705815D01*
X150538305Y-96689180D01*
X150502844Y-96653718D01*
X150487427Y-96634933D01*
X150484862Y-96631095D01*
X150484858Y-96631089D01*
X150397733Y-96543964D01*
X150397732Y-96543963D01*
X150105037Y-96251269D01*
X150105036Y-96251267D01*
X150017911Y-96164142D01*
X150012997Y-96160859D01*
X150004656Y-96152654D01*
X149993099Y-96131900D01*
X149977877Y-96113657D01*
X149976413Y-96101931D01*
X149970666Y-96091610D01*
X149972164Y-96067899D01*
X149969222Y-96044326D01*
X149974922Y-96024278D01*
X149975074Y-96021879D01*
X149975938Y-96020703D01*
X149977049Y-96016799D01*
X149977699Y-96015230D01*
X150009675Y-95938031D01*
X150053516Y-95883630D01*
X150119810Y-95861565D01*
X150187510Y-95878844D01*
X150189310Y-95879933D01*
X150241303Y-95912003D01*
X150402292Y-95965349D01*
X150501655Y-95975500D01*
X151098344Y-95975499D01*
X151098352Y-95975498D01*
X151098355Y-95975498D01*
X151152760Y-95969940D01*
X151197708Y-95965349D01*
X151358697Y-95912003D01*
X151501567Y-95823878D01*
X151568959Y-95805438D01*
X151614116Y-95814856D01*
X151737334Y-95865894D01*
X151737336Y-95865894D01*
X151737341Y-95865896D01*
X151911304Y-95900499D01*
X151911307Y-95900500D01*
X151911309Y-95900500D01*
X152088693Y-95900500D01*
X152088694Y-95900499D01*
X152173160Y-95883698D01*
X152262658Y-95865896D01*
X152262661Y-95865894D01*
X152262666Y-95865894D01*
X152426547Y-95798013D01*
X152574035Y-95699464D01*
X152699464Y-95574035D01*
X152798013Y-95426547D01*
X152865894Y-95262666D01*
X152866524Y-95259502D01*
X152894888Y-95116902D01*
X152900500Y-95088691D01*
X152900500Y-94911309D01*
X152900500Y-94911306D01*
X152900499Y-94911304D01*
X152865896Y-94737341D01*
X152865893Y-94737332D01*
X152856739Y-94715233D01*
X152833965Y-94660250D01*
X152798016Y-94573459D01*
X152798009Y-94573446D01*
X152699464Y-94425965D01*
X152699461Y-94425961D01*
X152574038Y-94300538D01*
X152574034Y-94300535D01*
X152426553Y-94201990D01*
X152426540Y-94201983D01*
X152262667Y-94134106D01*
X152262658Y-94134103D01*
X152088694Y-94099500D01*
X152088691Y-94099500D01*
X151911309Y-94099500D01*
X151911306Y-94099500D01*
X151737341Y-94134103D01*
X151737332Y-94134106D01*
X151567825Y-94204318D01*
X151566960Y-94202230D01*
X151508443Y-94214412D01*
X151453302Y-94196350D01*
X151358705Y-94138001D01*
X151358699Y-94137998D01*
X151358697Y-94137997D01*
X151346946Y-94134103D01*
X151197709Y-94084651D01*
X151098346Y-94074500D01*
X150501662Y-94074500D01*
X150501644Y-94074501D01*
X150402292Y-94084650D01*
X150402289Y-94084651D01*
X150241305Y-94137996D01*
X150241294Y-94138001D01*
X150096959Y-94227029D01*
X150096955Y-94227032D01*
X149977032Y-94346955D01*
X149977029Y-94346959D01*
X149888001Y-94491294D01*
X149887993Y-94491312D01*
X149885592Y-94498558D01*
X149845816Y-94556000D01*
X149781298Y-94582819D01*
X149712523Y-94570499D01*
X149661327Y-94522953D01*
X149653335Y-94507015D01*
X149598013Y-94373453D01*
X149598011Y-94373450D01*
X149598009Y-94373446D01*
X149499464Y-94225965D01*
X149499461Y-94225961D01*
X149374038Y-94100538D01*
X149374034Y-94100535D01*
X149226553Y-94001990D01*
X149226541Y-94001983D01*
X149119369Y-93957593D01*
X149064965Y-93913753D01*
X149042900Y-93847459D01*
X149052260Y-93795580D01*
X149065894Y-93762666D01*
X149100500Y-93588691D01*
X149100500Y-93411309D01*
X149100500Y-93411306D01*
X149100499Y-93411304D01*
X149065896Y-93237341D01*
X149065893Y-93237332D01*
X148998016Y-93073459D01*
X148998009Y-93073446D01*
X148899464Y-92925965D01*
X148899461Y-92925961D01*
X148774038Y-92800538D01*
X148774034Y-92800535D01*
X148626553Y-92701990D01*
X148626540Y-92701983D01*
X148462667Y-92634106D01*
X148462658Y-92634103D01*
X148288694Y-92599500D01*
X148288691Y-92599500D01*
X148266357Y-92599500D01*
X148199318Y-92579815D01*
X148153563Y-92527011D01*
X148143619Y-92457853D01*
X148150390Y-92433908D01*
X148150318Y-92433887D01*
X148197642Y-92270997D01*
X148197643Y-92270991D01*
X148198299Y-92262658D01*
X148200500Y-92234690D01*
X148200500Y-91765310D01*
X148197643Y-91729007D01*
X148196624Y-91725500D01*
X148152495Y-91573609D01*
X148152494Y-91573606D01*
X148152494Y-91573605D01*
X148070117Y-91434313D01*
X148070115Y-91434311D01*
X148070112Y-91434307D01*
X147955692Y-91319887D01*
X147955684Y-91319881D01*
X147850293Y-91257553D01*
X147816395Y-91237506D01*
X147816394Y-91237505D01*
X147816393Y-91237505D01*
X147816390Y-91237504D01*
X147660997Y-91192357D01*
X147660991Y-91192356D01*
X147624697Y-91189500D01*
X147624690Y-91189500D01*
X147215310Y-91189500D01*
X147215302Y-91189500D01*
X147179010Y-91192356D01*
X147034532Y-91234331D01*
X146964662Y-91234131D01*
X146931046Y-91218356D01*
X146906553Y-91201990D01*
X146906540Y-91201983D01*
X146742667Y-91134106D01*
X146742658Y-91134103D01*
X146568694Y-91099500D01*
X146568691Y-91099500D01*
X146391309Y-91099500D01*
X146391306Y-91099500D01*
X146217341Y-91134103D01*
X146217332Y-91134106D01*
X146053459Y-91201983D01*
X146053446Y-91201990D01*
X145905965Y-91300535D01*
X145905961Y-91300538D01*
X145780538Y-91425961D01*
X145780535Y-91425965D01*
X145681990Y-91573446D01*
X145681983Y-91573459D01*
X145614106Y-91737332D01*
X145614103Y-91737341D01*
X145579500Y-91911304D01*
X145579500Y-92088695D01*
X145614103Y-92262658D01*
X145614106Y-92262667D01*
X145622500Y-92282931D01*
X145629969Y-92352401D01*
X145598693Y-92414880D01*
X145538604Y-92450531D01*
X145491754Y-92453322D01*
X145462730Y-92449501D01*
X145462725Y-92449500D01*
X145462720Y-92449500D01*
X145237280Y-92449500D01*
X145237272Y-92449500D01*
X145150393Y-92460938D01*
X145124764Y-92464313D01*
X145124762Y-92464313D01*
X145116708Y-92465374D01*
X145116314Y-92462386D01*
X145115938Y-92462386D01*
X145102945Y-92466539D01*
X145067901Y-92462347D01*
X145067401Y-92462213D01*
X145007742Y-92425846D01*
X144977216Y-92362997D01*
X144975500Y-92342440D01*
X144975500Y-88024981D01*
X144995185Y-87957942D01*
X145011814Y-87937305D01*
X153059637Y-79889481D01*
X153120958Y-79855998D01*
X153190650Y-79860982D01*
X153246583Y-79902854D01*
X153261877Y-79929712D01*
X153301983Y-80026541D01*
X153301990Y-80026553D01*
X153400535Y-80174034D01*
X153400538Y-80174038D01*
X153525961Y-80299461D01*
X153525965Y-80299464D01*
X153673446Y-80398009D01*
X153673459Y-80398016D01*
X153796363Y-80448923D01*
X153837334Y-80465894D01*
X153837336Y-80465894D01*
X153837341Y-80465896D01*
X154011304Y-80500499D01*
X154011307Y-80500500D01*
X154011309Y-80500500D01*
X154188693Y-80500500D01*
X154188694Y-80500499D01*
X154248058Y-80488691D01*
X154362658Y-80465896D01*
X154362661Y-80465894D01*
X154362666Y-80465894D01*
X154526547Y-80398013D01*
X154674035Y-80299464D01*
X154799464Y-80174035D01*
X154898013Y-80026547D01*
X154921405Y-79970072D01*
X154965245Y-79915670D01*
X155011773Y-79895908D01*
X155072806Y-79883768D01*
X155162658Y-79865896D01*
X155162661Y-79865894D01*
X155162666Y-79865894D01*
X155302535Y-79807958D01*
X155326540Y-79798016D01*
X155326540Y-79798015D01*
X155326547Y-79798013D01*
X155474035Y-79699464D01*
X155599464Y-79574035D01*
X155698013Y-79426547D01*
X155765894Y-79262666D01*
X155800500Y-79088691D01*
X155800500Y-78911309D01*
X155800500Y-78911306D01*
X155800499Y-78911304D01*
X155765896Y-78737341D01*
X155765893Y-78737332D01*
X155698016Y-78573459D01*
X155698009Y-78573446D01*
X155599464Y-78425965D01*
X155599462Y-78425962D01*
X155580856Y-78407357D01*
X155547369Y-78346035D01*
X155552352Y-78276343D01*
X155564808Y-78253992D01*
X155564110Y-78253580D01*
X155596092Y-78199500D01*
X155651744Y-78105398D01*
X155697598Y-77947569D01*
X155700500Y-77910694D01*
X155700500Y-76779306D01*
X155699778Y-76770131D01*
X155714143Y-76701754D01*
X155738939Y-76672583D01*
X155737618Y-76671262D01*
X155743365Y-76665515D01*
X155850515Y-76558365D01*
X155926281Y-76427135D01*
X155965500Y-76280766D01*
X155965500Y-76129234D01*
X155926281Y-75982865D01*
X155850515Y-75851635D01*
X155743365Y-75744485D01*
X155677750Y-75706602D01*
X155612136Y-75668719D01*
X155538950Y-75649109D01*
X155465766Y-75629500D01*
X155314234Y-75629500D01*
X155167863Y-75668719D01*
X155036635Y-75744485D01*
X155036632Y-75744487D01*
X154929487Y-75851632D01*
X154929485Y-75851635D01*
X154853719Y-75982863D01*
X154851369Y-75991635D01*
X154821637Y-76102594D01*
X154785274Y-76162254D01*
X154723997Y-76192509D01*
X154713022Y-76194500D01*
X154684306Y-76194500D01*
X154647431Y-76197402D01*
X154564986Y-76221354D01*
X154558676Y-76222499D01*
X154530050Y-76219448D01*
X154501267Y-76219366D01*
X154489221Y-76215098D01*
X154489200Y-76215096D01*
X154489187Y-76215086D01*
X154489094Y-76215053D01*
X154484036Y-76212958D01*
X154475236Y-76209313D01*
X154460698Y-76207399D01*
X154362727Y-76194500D01*
X154362720Y-76194500D01*
X154137280Y-76194500D01*
X154137272Y-76194500D01*
X154050393Y-76205938D01*
X154024764Y-76209313D01*
X154024762Y-76209313D01*
X154016708Y-76210374D01*
X154016510Y-76208871D01*
X153991392Y-76211275D01*
X153977667Y-76210319D01*
X153975236Y-76209313D01*
X153862720Y-76194500D01*
X153750321Y-76194500D01*
X153746024Y-76194201D01*
X153717140Y-76183491D01*
X153687593Y-76174815D01*
X153682352Y-76170592D01*
X153680513Y-76169910D01*
X153678987Y-76167880D01*
X153666951Y-76158181D01*
X153645637Y-76136867D01*
X153645606Y-76136838D01*
X153486328Y-75977560D01*
X153479038Y-75970270D01*
X153479036Y-75970267D01*
X153391911Y-75883142D01*
X153340687Y-75848915D01*
X153289464Y-75814688D01*
X153289461Y-75814686D01*
X153289458Y-75814685D01*
X153215781Y-75784168D01*
X153215779Y-75784167D01*
X153208970Y-75781347D01*
X153175630Y-75767537D01*
X153115207Y-75755518D01*
X153110484Y-75754578D01*
X153110482Y-75754578D01*
X153054788Y-75743500D01*
X153054785Y-75743500D01*
X153054784Y-75743500D01*
X152568429Y-75743500D01*
X152445215Y-75743500D01*
X152445211Y-75743500D01*
X152389519Y-75754578D01*
X152384793Y-75755518D01*
X152347081Y-75763019D01*
X152324372Y-75767536D01*
X152324370Y-75767537D01*
X152291029Y-75781347D01*
X152210541Y-75814684D01*
X152210527Y-75814692D01*
X152108094Y-75883138D01*
X152108086Y-75883144D01*
X151833050Y-76158181D01*
X151809759Y-76170898D01*
X151788479Y-76186765D01*
X151776896Y-76188843D01*
X151771727Y-76191666D01*
X151753977Y-76194201D01*
X151749680Y-76194500D01*
X151637280Y-76194500D01*
X151524764Y-76209313D01*
X151522332Y-76210319D01*
X151508608Y-76211275D01*
X151490955Y-76207399D01*
X151483684Y-76207399D01*
X151483292Y-76210374D01*
X151475237Y-76209313D01*
X151475236Y-76209313D01*
X151446271Y-76205499D01*
X151362727Y-76194500D01*
X151362720Y-76194500D01*
X151137280Y-76194500D01*
X151137272Y-76194500D01*
X151050393Y-76205938D01*
X151024764Y-76209313D01*
X151024762Y-76209313D01*
X151016708Y-76210374D01*
X151016316Y-76207399D01*
X150983684Y-76207399D01*
X150983292Y-76210374D01*
X150975237Y-76209313D01*
X150975236Y-76209313D01*
X150946271Y-76205499D01*
X150862727Y-76194500D01*
X150862720Y-76194500D01*
X150637280Y-76194500D01*
X150637272Y-76194500D01*
X150524766Y-76209312D01*
X150522026Y-76210446D01*
X150510905Y-76215053D01*
X150493121Y-76216964D01*
X150476593Y-76223793D01*
X150450826Y-76221511D01*
X150441438Y-76222521D01*
X150441322Y-76222500D01*
X150435023Y-76221357D01*
X150352569Y-76197402D01*
X150315694Y-76194500D01*
X150286977Y-76194500D01*
X150276002Y-76192509D01*
X150254341Y-76181640D01*
X150231097Y-76174815D01*
X150223680Y-76166255D01*
X150213553Y-76161174D01*
X150201206Y-76140319D01*
X150185342Y-76122011D01*
X150178363Y-76102600D01*
X150146281Y-75982865D01*
X150070515Y-75851635D01*
X149963365Y-75744485D01*
X149897750Y-75706602D01*
X149832136Y-75668719D01*
X149758950Y-75649109D01*
X149685766Y-75629500D01*
X149534234Y-75629500D01*
X149387863Y-75668719D01*
X149256635Y-75744485D01*
X149256632Y-75744487D01*
X149149487Y-75851632D01*
X149149485Y-75851635D01*
X149073719Y-75982863D01*
X149034500Y-76129234D01*
X149034500Y-76280765D01*
X149073719Y-76427136D01*
X149111602Y-76492750D01*
X149149485Y-76558365D01*
X149149487Y-76558367D01*
X149262382Y-76671262D01*
X149260333Y-76673310D01*
X149293300Y-76718476D01*
X149300222Y-76770120D01*
X149299500Y-76779296D01*
X149299500Y-77910701D01*
X149302401Y-77947567D01*
X149302402Y-77947573D01*
X149348254Y-78105393D01*
X149348255Y-78105396D01*
X149424371Y-78234103D01*
X149431919Y-78246865D01*
X149438179Y-78253125D01*
X149452886Y-78280057D01*
X149469477Y-78305873D01*
X149470367Y-78312069D01*
X149471665Y-78314445D01*
X149474500Y-78340808D01*
X149474500Y-78400638D01*
X149454815Y-78467677D01*
X149438181Y-78488319D01*
X149400538Y-78525961D01*
X149400535Y-78525965D01*
X149301990Y-78673446D01*
X149301983Y-78673459D01*
X149234106Y-78837332D01*
X149234103Y-78837341D01*
X149199500Y-79011304D01*
X149199500Y-79188695D01*
X149234103Y-79362658D01*
X149234106Y-79362667D01*
X149301983Y-79526540D01*
X149301990Y-79526552D01*
X149364798Y-79620550D01*
X149385676Y-79687227D01*
X149367192Y-79754607D01*
X149349378Y-79777121D01*
X149300539Y-79825960D01*
X149300535Y-79825965D01*
X149201990Y-79973446D01*
X149201983Y-79973459D01*
X149134106Y-80137332D01*
X149134103Y-80137341D01*
X149099500Y-80311304D01*
X149099500Y-80488695D01*
X149134103Y-80662658D01*
X149134106Y-80662667D01*
X149201983Y-80826540D01*
X149201990Y-80826553D01*
X149300535Y-80974034D01*
X149300538Y-80974038D01*
X149346633Y-81020133D01*
X149380118Y-81081456D01*
X149375134Y-81151148D01*
X149346633Y-81195495D01*
X145307629Y-85234500D01*
X143451270Y-87090859D01*
X143451267Y-87090862D01*
X143407703Y-87134426D01*
X143364139Y-87177989D01*
X143364138Y-87177991D01*
X143347432Y-87202994D01*
X143347432Y-87202995D01*
X143295686Y-87280437D01*
X143295685Y-87280438D01*
X143268714Y-87345552D01*
X143268711Y-87345563D01*
X143265441Y-87353458D01*
X143248537Y-87394268D01*
X143239903Y-87437674D01*
X143225148Y-87511858D01*
X143224500Y-87515114D01*
X143224500Y-87515186D01*
X143224500Y-92342440D01*
X143216647Y-92369182D01*
X143212012Y-92396672D01*
X143206938Y-92402248D01*
X143204815Y-92409479D01*
X143183752Y-92427730D01*
X143164990Y-92448350D01*
X143155048Y-92452601D01*
X143152011Y-92455234D01*
X143132539Y-92462229D01*
X143132038Y-92462363D01*
X143083686Y-92462378D01*
X143083292Y-92465374D01*
X143075237Y-92464313D01*
X143075236Y-92464313D01*
X143046271Y-92460499D01*
X142962727Y-92449500D01*
X142962720Y-92449500D01*
X142737280Y-92449500D01*
X142737272Y-92449500D01*
X142650393Y-92460938D01*
X142624764Y-92464313D01*
X142624762Y-92464313D01*
X142616708Y-92465374D01*
X142616480Y-92463642D01*
X142587706Y-92465963D01*
X142576531Y-92464849D01*
X142575236Y-92464313D01*
X142462720Y-92449500D01*
X142422472Y-92449500D01*
X142416340Y-92448889D01*
X142389438Y-92437990D01*
X142361595Y-92429815D01*
X142357450Y-92425032D01*
X142351583Y-92422655D01*
X142334841Y-92398940D01*
X142315840Y-92377011D01*
X142314939Y-92370747D01*
X142311288Y-92365575D01*
X142310025Y-92336575D01*
X142305896Y-92307853D01*
X142308326Y-92297536D01*
X142308250Y-92295771D01*
X142309076Y-92294352D01*
X142310928Y-92286496D01*
X142323293Y-92249180D01*
X142340349Y-92197708D01*
X142350500Y-92098345D01*
X142350499Y-91501656D01*
X142340349Y-91402292D01*
X142287003Y-91241303D01*
X142286999Y-91241297D01*
X142286998Y-91241294D01*
X142197970Y-91096959D01*
X142197967Y-91096955D01*
X142078044Y-90977032D01*
X142078040Y-90977029D01*
X141933705Y-90888001D01*
X141933699Y-90887998D01*
X141933697Y-90887997D01*
X141913191Y-90881202D01*
X141772709Y-90834651D01*
X141673352Y-90824500D01*
X141673345Y-90824500D01*
X141339489Y-90824500D01*
X141272450Y-90804815D01*
X141226695Y-90752011D01*
X141224940Y-90747981D01*
X141206690Y-90703921D01*
X141206686Y-90703914D01*
X141108141Y-90556433D01*
X141108138Y-90556429D01*
X140982715Y-90431006D01*
X140982711Y-90431003D01*
X140835230Y-90332458D01*
X140835217Y-90332451D01*
X140671344Y-90264574D01*
X140671335Y-90264571D01*
X140497371Y-90229968D01*
X140497368Y-90229968D01*
X140319986Y-90229968D01*
X140319983Y-90229968D01*
X140146018Y-90264571D01*
X140146009Y-90264574D01*
X139982136Y-90332451D01*
X139982123Y-90332458D01*
X139834642Y-90431003D01*
X139834637Y-90431007D01*
X139789249Y-90476395D01*
X139727926Y-90509879D01*
X139658234Y-90504894D01*
X139613888Y-90476394D01*
X138311819Y-89174325D01*
X138278334Y-89113002D01*
X138275500Y-89086644D01*
X138275500Y-82624035D01*
X138295185Y-82556996D01*
X138347989Y-82511241D01*
X138382753Y-82501871D01*
X138382717Y-82501689D01*
X138385440Y-82501147D01*
X138387356Y-82500631D01*
X138388681Y-82500500D01*
X138388691Y-82500500D01*
X138393205Y-82499602D01*
X138562658Y-82465896D01*
X138562661Y-82465894D01*
X138562666Y-82465894D01*
X138726547Y-82398013D01*
X138874035Y-82299464D01*
X138999464Y-82174035D01*
X139098013Y-82026547D01*
X139165894Y-81862666D01*
X139200500Y-81688691D01*
X139200500Y-81511309D01*
X139200500Y-81511306D01*
X139170538Y-81360681D01*
X139176765Y-81291089D01*
X139219628Y-81235912D01*
X139223242Y-81233402D01*
X139274035Y-81199464D01*
X139399464Y-81074035D01*
X139498013Y-80926547D01*
X139565894Y-80762666D01*
X139578755Y-80698013D01*
X139600499Y-80588695D01*
X139600500Y-80588693D01*
X139600500Y-80411306D01*
X139588045Y-80348692D01*
X139594272Y-80279100D01*
X139637135Y-80223923D01*
X139703025Y-80200678D01*
X139709662Y-80200500D01*
X139888693Y-80200500D01*
X139888694Y-80200499D01*
X139946682Y-80188964D01*
X140062658Y-80165896D01*
X140062661Y-80165894D01*
X140062666Y-80165894D01*
X140226547Y-80098013D01*
X140374035Y-79999464D01*
X140499464Y-79874035D01*
X140598013Y-79726547D01*
X140665894Y-79562666D01*
X140671701Y-79533476D01*
X140700499Y-79388695D01*
X140700500Y-79388693D01*
X140700500Y-79211306D01*
X140700499Y-79211304D01*
X140665896Y-79037341D01*
X140665893Y-79037332D01*
X140598016Y-78873459D01*
X140598009Y-78873446D01*
X140499464Y-78725965D01*
X140499461Y-78725961D01*
X140461819Y-78688319D01*
X140447115Y-78661391D01*
X140430523Y-78635573D01*
X140429631Y-78629372D01*
X140428334Y-78626996D01*
X140425500Y-78600638D01*
X140425500Y-78480808D01*
X140445185Y-78413769D01*
X140461817Y-78393128D01*
X140468081Y-78386865D01*
X140551744Y-78245398D01*
X140597598Y-78087569D01*
X140600500Y-78050694D01*
X140600500Y-76919306D01*
X140599778Y-76910131D01*
X140614143Y-76841754D01*
X140638939Y-76812583D01*
X140637618Y-76811262D01*
X140678760Y-76770120D01*
X140750515Y-76698365D01*
X140826281Y-76567135D01*
X140865500Y-76420766D01*
X140865500Y-76269234D01*
X140826281Y-76122865D01*
X140750515Y-75991635D01*
X140643365Y-75884485D01*
X140574038Y-75844459D01*
X140512136Y-75808719D01*
X140420508Y-75784168D01*
X140365766Y-75769500D01*
X140214234Y-75769500D01*
X140067863Y-75808719D01*
X139936635Y-75884485D01*
X139936632Y-75884487D01*
X139829487Y-75991632D01*
X139829485Y-75991635D01*
X139753719Y-76122863D01*
X139749975Y-76136838D01*
X139721637Y-76242594D01*
X139685274Y-76302254D01*
X139623997Y-76332509D01*
X139613022Y-76334500D01*
X139584306Y-76334500D01*
X139547431Y-76337402D01*
X139464986Y-76361354D01*
X139458676Y-76362499D01*
X139430050Y-76359448D01*
X139401267Y-76359366D01*
X139389221Y-76355098D01*
X139389200Y-76355096D01*
X139389187Y-76355086D01*
X139389094Y-76355053D01*
X139377797Y-76350374D01*
X139375236Y-76349313D01*
X139360698Y-76347399D01*
X139262727Y-76334500D01*
X139262720Y-76334500D01*
X139037280Y-76334500D01*
X139037272Y-76334500D01*
X138950393Y-76345938D01*
X138924764Y-76349313D01*
X138924762Y-76349313D01*
X138916708Y-76350374D01*
X138916316Y-76347399D01*
X138883684Y-76347399D01*
X138883292Y-76350374D01*
X138875237Y-76349313D01*
X138875236Y-76349313D01*
X138846271Y-76345499D01*
X138762727Y-76334500D01*
X138762720Y-76334500D01*
X138537280Y-76334500D01*
X138537272Y-76334500D01*
X138450393Y-76345938D01*
X138424764Y-76349313D01*
X138424762Y-76349313D01*
X138416708Y-76350374D01*
X138416316Y-76347399D01*
X138383684Y-76347399D01*
X138383292Y-76350374D01*
X138375237Y-76349313D01*
X138375236Y-76349313D01*
X138346271Y-76345499D01*
X138262727Y-76334500D01*
X138262720Y-76334500D01*
X138037280Y-76334500D01*
X138037272Y-76334500D01*
X137950393Y-76345938D01*
X137924764Y-76349313D01*
X137924762Y-76349313D01*
X137916708Y-76350374D01*
X137916316Y-76347399D01*
X137883684Y-76347399D01*
X137883292Y-76350374D01*
X137875237Y-76349313D01*
X137875236Y-76349313D01*
X137846271Y-76345499D01*
X137762727Y-76334500D01*
X137762720Y-76334500D01*
X137537280Y-76334500D01*
X137537272Y-76334500D01*
X137450393Y-76345938D01*
X137424764Y-76349313D01*
X137424762Y-76349313D01*
X137416708Y-76350374D01*
X137416316Y-76347399D01*
X137383684Y-76347399D01*
X137383292Y-76350374D01*
X137375237Y-76349313D01*
X137375236Y-76349313D01*
X137346271Y-76345499D01*
X137262727Y-76334500D01*
X137262720Y-76334500D01*
X137037280Y-76334500D01*
X137037272Y-76334500D01*
X136950393Y-76345938D01*
X136924764Y-76349313D01*
X136924762Y-76349313D01*
X136916708Y-76350374D01*
X136916316Y-76347399D01*
X136883684Y-76347399D01*
X136883292Y-76350374D01*
X136875237Y-76349313D01*
X136875236Y-76349313D01*
X136846271Y-76345499D01*
X136762727Y-76334500D01*
X136762720Y-76334500D01*
X136537280Y-76334500D01*
X136537272Y-76334500D01*
X136450393Y-76345938D01*
X136424764Y-76349313D01*
X136424762Y-76349313D01*
X136416708Y-76350374D01*
X136416316Y-76347399D01*
X136383684Y-76347399D01*
X136383292Y-76350374D01*
X136375237Y-76349313D01*
X136375236Y-76349313D01*
X136346271Y-76345499D01*
X136262727Y-76334500D01*
X136262720Y-76334500D01*
X136037280Y-76334500D01*
X136037272Y-76334500D01*
X135950393Y-76345938D01*
X135924764Y-76349313D01*
X135924762Y-76349313D01*
X135916708Y-76350374D01*
X135916316Y-76347399D01*
X135883684Y-76347399D01*
X135883292Y-76350374D01*
X135875237Y-76349313D01*
X135875236Y-76349313D01*
X135846271Y-76345499D01*
X135762727Y-76334500D01*
X135762720Y-76334500D01*
X135537280Y-76334500D01*
X135537272Y-76334500D01*
X135424766Y-76349312D01*
X135422026Y-76350446D01*
X135410905Y-76355053D01*
X135393121Y-76356964D01*
X135376593Y-76363793D01*
X135350826Y-76361511D01*
X135341438Y-76362521D01*
X135341322Y-76362500D01*
X135335023Y-76361357D01*
X135252569Y-76337402D01*
X135215694Y-76334500D01*
X135186977Y-76334500D01*
X135176002Y-76332509D01*
X135154341Y-76321640D01*
X135131097Y-76314815D01*
X135123680Y-76306255D01*
X135113553Y-76301174D01*
X135101206Y-76280319D01*
X135085342Y-76262011D01*
X135078363Y-76242600D01*
X135046281Y-76122865D01*
X134970515Y-75991635D01*
X134863365Y-75884485D01*
X134794038Y-75844459D01*
X134732136Y-75808719D01*
X134640508Y-75784168D01*
X134585766Y-75769500D01*
X134434234Y-75769500D01*
X134287863Y-75808719D01*
X134156635Y-75884485D01*
X134156632Y-75884487D01*
X134049487Y-75991632D01*
X134049485Y-75991635D01*
X133973719Y-76122863D01*
X133934500Y-76269234D01*
X133934500Y-76420765D01*
X133973719Y-76567136D01*
X134011602Y-76632750D01*
X134049485Y-76698365D01*
X134049487Y-76698367D01*
X134162382Y-76811262D01*
X134160333Y-76813310D01*
X134193300Y-76858476D01*
X134200222Y-76910120D01*
X134199500Y-76919296D01*
X134199500Y-77876870D01*
X134179815Y-77943909D01*
X134163181Y-77964551D01*
X133689551Y-78438181D01*
X133628228Y-78471666D01*
X133601870Y-78474500D01*
X133199361Y-78474500D01*
X133132322Y-78454815D01*
X133111679Y-78438180D01*
X133074038Y-78400538D01*
X133074034Y-78400535D01*
X132926553Y-78301990D01*
X132926540Y-78301983D01*
X132762667Y-78234106D01*
X132762658Y-78234103D01*
X132588694Y-78199500D01*
X132588691Y-78199500D01*
X132411309Y-78199500D01*
X132411306Y-78199500D01*
X132237341Y-78234103D01*
X132237332Y-78234106D01*
X132073459Y-78301983D01*
X132073446Y-78301990D01*
X131925965Y-78400535D01*
X131925961Y-78400538D01*
X131800538Y-78525961D01*
X131800535Y-78525965D01*
X131701990Y-78673446D01*
X131701983Y-78673459D01*
X131634106Y-78837332D01*
X131634103Y-78837341D01*
X131599500Y-79011304D01*
X131599500Y-79188695D01*
X131634103Y-79362658D01*
X131634106Y-79362667D01*
X131701983Y-79526540D01*
X131701990Y-79526553D01*
X131800535Y-79674034D01*
X131800538Y-79674038D01*
X131925961Y-79799461D01*
X131925965Y-79799464D01*
X132073446Y-79898009D01*
X132073459Y-79898016D01*
X132149982Y-79929712D01*
X132237334Y-79965894D01*
X132237336Y-79965894D01*
X132237341Y-79965896D01*
X132411304Y-80000499D01*
X132411307Y-80000500D01*
X132411309Y-80000500D01*
X132588693Y-80000500D01*
X132588694Y-80000499D01*
X132646682Y-79988964D01*
X132762658Y-79965896D01*
X132762661Y-79965894D01*
X132762666Y-79965894D01*
X132926547Y-79898013D01*
X133074035Y-79799464D01*
X133111679Y-79761820D01*
X133173001Y-79728334D01*
X133199361Y-79725500D01*
X133973929Y-79725500D01*
X134034351Y-79713481D01*
X134094774Y-79701463D01*
X134128114Y-79687652D01*
X134208608Y-79654312D01*
X134252019Y-79625303D01*
X134318692Y-79604424D01*
X134386073Y-79622905D01*
X134424013Y-79659512D01*
X134500538Y-79774038D01*
X134625961Y-79899461D01*
X134625965Y-79899464D01*
X134773446Y-79998009D01*
X134773459Y-79998016D01*
X134842326Y-80026541D01*
X134937334Y-80065894D01*
X134937341Y-80065895D01*
X134940494Y-80066852D01*
X134941948Y-80067805D01*
X134942962Y-80068225D01*
X134942882Y-80068417D01*
X134998933Y-80105149D01*
X135027390Y-80168961D01*
X135028500Y-80185513D01*
X135028500Y-93940610D01*
X135029679Y-93946532D01*
X135029681Y-93946541D01*
X135042014Y-94008547D01*
X135048893Y-94043133D01*
X135042664Y-94112725D01*
X135007952Y-94157409D01*
X134999800Y-94167902D01*
X134957154Y-94182945D01*
X134933911Y-94191145D01*
X134933910Y-94191144D01*
X134933910Y-94191145D01*
X134865914Y-94175076D01*
X134839594Y-94155004D01*
X134215198Y-93530608D01*
X134215178Y-93530586D01*
X134123736Y-93439144D01*
X134123728Y-93439138D01*
X134061529Y-93397578D01*
X134061526Y-93397576D01*
X134054891Y-93393143D01*
X134021286Y-93370688D01*
X133940761Y-93337334D01*
X133936862Y-93335719D01*
X133936854Y-93335715D01*
X133907455Y-93323538D01*
X133907453Y-93323537D01*
X133907452Y-93323537D01*
X133847029Y-93311518D01*
X133786610Y-93299500D01*
X133786607Y-93299500D01*
X133786606Y-93299500D01*
X132848498Y-93299500D01*
X132781459Y-93279815D01*
X132735704Y-93227011D01*
X132725760Y-93157853D01*
X132754785Y-93094297D01*
X132774183Y-93076235D01*
X132832546Y-93032546D01*
X132918796Y-92917331D01*
X132969091Y-92782483D01*
X132975500Y-92722873D01*
X132975499Y-91277128D01*
X132969091Y-91217517D01*
X132963694Y-91203048D01*
X132918797Y-91082671D01*
X132918793Y-91082664D01*
X132832547Y-90967455D01*
X132832544Y-90967452D01*
X132717335Y-90881206D01*
X132717328Y-90881202D01*
X132582482Y-90830908D01*
X132582483Y-90830908D01*
X132522883Y-90824501D01*
X132522881Y-90824500D01*
X132522873Y-90824500D01*
X132522864Y-90824500D01*
X131477129Y-90824500D01*
X131477123Y-90824501D01*
X131417516Y-90830908D01*
X131282671Y-90881202D01*
X131282664Y-90881206D01*
X131167455Y-90967452D01*
X131167452Y-90967455D01*
X131081206Y-91082664D01*
X131081202Y-91082671D01*
X131030908Y-91217517D01*
X131025633Y-91266586D01*
X131024501Y-91277123D01*
X131024500Y-91277135D01*
X131024500Y-92722870D01*
X131024501Y-92722876D01*
X131030908Y-92782483D01*
X131081202Y-92917328D01*
X131081206Y-92917335D01*
X131159927Y-93022492D01*
X131184345Y-93087956D01*
X131169494Y-93156229D01*
X131148343Y-93184483D01*
X131075719Y-93257107D01*
X131075716Y-93257112D01*
X130987455Y-93400204D01*
X130987450Y-93400215D01*
X130960773Y-93480719D01*
X130934564Y-93559815D01*
X130934564Y-93559816D01*
X130934563Y-93559816D01*
X130924500Y-93658318D01*
X130924500Y-94191681D01*
X130934563Y-94290183D01*
X130987450Y-94449784D01*
X130987455Y-94449795D01*
X131075716Y-94592887D01*
X131075719Y-94592891D01*
X131107647Y-94624819D01*
X131141132Y-94686142D01*
X131136148Y-94755834D01*
X131107647Y-94800181D01*
X131075719Y-94832108D01*
X131075716Y-94832112D01*
X130987455Y-94975204D01*
X130987450Y-94975215D01*
X130974460Y-95014418D01*
X130934564Y-95134815D01*
X130934564Y-95134816D01*
X130934563Y-95134816D01*
X130924500Y-95233318D01*
X130924500Y-95766681D01*
X130934563Y-95865183D01*
X130987450Y-96024784D01*
X130987455Y-96024795D01*
X131075716Y-96167887D01*
X131075719Y-96167891D01*
X131164586Y-96256758D01*
X131198071Y-96318081D01*
X131193087Y-96387773D01*
X131183637Y-96407560D01*
X131127131Y-96503105D01*
X131127129Y-96503111D01*
X131082335Y-96657291D01*
X131082334Y-96657297D01*
X131079500Y-96693311D01*
X131079500Y-97091669D01*
X131079501Y-97091691D01*
X131082335Y-97127705D01*
X131127129Y-97281888D01*
X131127131Y-97281893D01*
X131208863Y-97420095D01*
X131208869Y-97420103D01*
X131322396Y-97533630D01*
X131322400Y-97533633D01*
X131322402Y-97533635D01*
X131460607Y-97615369D01*
X131501268Y-97627182D01*
X131614791Y-97660164D01*
X131614794Y-97660164D01*
X131614796Y-97660165D01*
X131650819Y-97663000D01*
X132149180Y-97662999D01*
X132185204Y-97660165D01*
X132339393Y-97615369D01*
X132477598Y-97533635D01*
X132591135Y-97420098D01*
X132672869Y-97281893D01*
X132717665Y-97127704D01*
X132720500Y-97091681D01*
X132720499Y-96693320D01*
X132717665Y-96657296D01*
X132672869Y-96503107D01*
X132616361Y-96407557D01*
X132599179Y-96339837D01*
X132621339Y-96273574D01*
X132635402Y-96256769D01*
X132724281Y-96167891D01*
X132812549Y-96024787D01*
X132865436Y-95865185D01*
X132875500Y-95766674D01*
X132875500Y-95233326D01*
X132865436Y-95134815D01*
X132812549Y-94975213D01*
X132812545Y-94975207D01*
X132812544Y-94975204D01*
X132724283Y-94832112D01*
X132724280Y-94832108D01*
X132692353Y-94800181D01*
X132688094Y-94792382D01*
X132680965Y-94787075D01*
X132671606Y-94762187D01*
X132658868Y-94738858D01*
X132659501Y-94729994D01*
X132656374Y-94721676D01*
X132661955Y-94695684D01*
X132663852Y-94669166D01*
X132669564Y-94660250D01*
X132671044Y-94653363D01*
X132691759Y-94625613D01*
X132692119Y-94625053D01*
X132724281Y-94592891D01*
X132724560Y-94592438D01*
X132729917Y-94587053D01*
X132754601Y-94573488D01*
X132777584Y-94557214D01*
X132787109Y-94555625D01*
X132791151Y-94553404D01*
X132797714Y-94553855D01*
X132817832Y-94550500D01*
X133414548Y-94550500D01*
X133481587Y-94570185D01*
X133502229Y-94586819D01*
X133963181Y-95047771D01*
X133996666Y-95109094D01*
X133999500Y-95135452D01*
X133999500Y-95188695D01*
X134034103Y-95362658D01*
X134034106Y-95362667D01*
X134101983Y-95526540D01*
X134101990Y-95526553D01*
X134200535Y-95674034D01*
X134200538Y-95674038D01*
X134325961Y-95799461D01*
X134325965Y-95799464D01*
X134473446Y-95898009D01*
X134473459Y-95898016D01*
X134538036Y-95924764D01*
X134637334Y-95965894D01*
X134637336Y-95965894D01*
X134637341Y-95965896D01*
X134811304Y-96000499D01*
X134811307Y-96000500D01*
X134811309Y-96000500D01*
X134988693Y-96000500D01*
X134988694Y-96000499D01*
X135046682Y-95988964D01*
X135162658Y-95965896D01*
X135162661Y-95965894D01*
X135162666Y-95965894D01*
X135326547Y-95898013D01*
X135474035Y-95799464D01*
X135599464Y-95674035D01*
X135698013Y-95526547D01*
X135765894Y-95362666D01*
X135781389Y-95284770D01*
X135801465Y-95183843D01*
X135806174Y-95174838D01*
X135806900Y-95164700D01*
X135822098Y-95144398D01*
X135833850Y-95121932D01*
X135842681Y-95116902D01*
X135848772Y-95108767D01*
X135872529Y-95099905D01*
X135894566Y-95087357D01*
X135904715Y-95087901D01*
X135914236Y-95084350D01*
X135939010Y-95089739D01*
X135964335Y-95091097D01*
X135974396Y-95097437D01*
X135982509Y-95099202D01*
X136010763Y-95120353D01*
X136149912Y-95259502D01*
X136183397Y-95320825D01*
X136178413Y-95390517D01*
X136176793Y-95394634D01*
X136164313Y-95424763D01*
X136164313Y-95424764D01*
X136149500Y-95537272D01*
X136149500Y-95762727D01*
X136160499Y-95846271D01*
X136163083Y-95865896D01*
X136165374Y-95883292D01*
X136162399Y-95883683D01*
X136162399Y-95916316D01*
X136165374Y-95916708D01*
X136149500Y-96037272D01*
X136149500Y-96262727D01*
X136165374Y-96383292D01*
X136162399Y-96383683D01*
X136162399Y-96416316D01*
X136165374Y-96416708D01*
X136149500Y-96537272D01*
X136149500Y-96762727D01*
X136165374Y-96883292D01*
X136162399Y-96883683D01*
X136162399Y-96916316D01*
X136165374Y-96916708D01*
X136164313Y-96924762D01*
X136164313Y-96924764D01*
X136163371Y-96931919D01*
X136149500Y-97037272D01*
X136149500Y-97262727D01*
X136165374Y-97383292D01*
X136162399Y-97383683D01*
X136162399Y-97416316D01*
X136165374Y-97416708D01*
X136164313Y-97424762D01*
X136164313Y-97424764D01*
X136162658Y-97437334D01*
X136149500Y-97537272D01*
X136149500Y-97762727D01*
X136156474Y-97815694D01*
X136163766Y-97871084D01*
X136165374Y-97883292D01*
X136162399Y-97883683D01*
X136162399Y-97916316D01*
X136165374Y-97916708D01*
X136149500Y-98037272D01*
X136149500Y-98262727D01*
X136165374Y-98383292D01*
X136162399Y-98383683D01*
X136162399Y-98416316D01*
X136165374Y-98416708D01*
X136164313Y-98424762D01*
X136164313Y-98424764D01*
X136160938Y-98450393D01*
X136149500Y-98537272D01*
X136149500Y-98762727D01*
X136165374Y-98883292D01*
X136162399Y-98883683D01*
X136162399Y-98916316D01*
X136165374Y-98916708D01*
X136149500Y-99037272D01*
X136149500Y-99262727D01*
X136160499Y-99346271D01*
X136163543Y-99369390D01*
X136165374Y-99383292D01*
X136162399Y-99383683D01*
X136162399Y-99416316D01*
X136165374Y-99416708D01*
X136164313Y-99424762D01*
X136164313Y-99424764D01*
X136161984Y-99442452D01*
X136149500Y-99537272D01*
X136149500Y-99762727D01*
X136160116Y-99843362D01*
X136161157Y-99851267D01*
X136164973Y-99880246D01*
X136164999Y-99880301D01*
X136164993Y-99880404D01*
X136165374Y-99883292D01*
X136164844Y-99883361D01*
X136164236Y-99895440D01*
X136165590Y-99915590D01*
X136164477Y-99924366D01*
X136164313Y-99924764D01*
X136149500Y-100037280D01*
X136149500Y-100042551D01*
X136148516Y-100050316D01*
X136137541Y-100075452D01*
X136129815Y-100101765D01*
X136123764Y-100107008D01*
X136120559Y-100114349D01*
X136097732Y-100129564D01*
X136077011Y-100147520D01*
X136069086Y-100148659D01*
X136062422Y-100153102D01*
X136034998Y-100153560D01*
X136007853Y-100157464D01*
X136000567Y-100154137D01*
X135992562Y-100154271D01*
X135969246Y-100139833D01*
X135944297Y-100128439D01*
X135937819Y-100122407D01*
X135671020Y-99855608D01*
X135671000Y-99855586D01*
X135579555Y-99764141D01*
X135530965Y-99731675D01*
X135530964Y-99731674D01*
X135525013Y-99727698D01*
X135477108Y-99695688D01*
X135396614Y-99662347D01*
X135363274Y-99648537D01*
X135363272Y-99648536D01*
X135363268Y-99648535D01*
X135291770Y-99634313D01*
X135291763Y-99634313D01*
X135242429Y-99624500D01*
X135242428Y-99624500D01*
X129462174Y-99624500D01*
X129432734Y-99615855D01*
X129402749Y-99609333D01*
X129397732Y-99605577D01*
X129395135Y-99604815D01*
X129374494Y-99588182D01*
X129323581Y-99537270D01*
X129298733Y-99512422D01*
X129298729Y-99512419D01*
X128190918Y-98404608D01*
X128190898Y-98404586D01*
X128099453Y-98313141D01*
X128048229Y-98278915D01*
X128048229Y-98278914D01*
X128044085Y-98276146D01*
X127999277Y-98222536D01*
X127990567Y-98153212D01*
X127998410Y-98125589D01*
X128065894Y-97962666D01*
X128065896Y-97962658D01*
X128100499Y-97788695D01*
X128100500Y-97788693D01*
X128100500Y-97611306D01*
X128100499Y-97611304D01*
X128065896Y-97437341D01*
X128065893Y-97437332D01*
X128057350Y-97416708D01*
X128048923Y-97396363D01*
X127998016Y-97273459D01*
X127998009Y-97273446D01*
X127899464Y-97125965D01*
X127899461Y-97125961D01*
X127774038Y-97000538D01*
X127774034Y-97000535D01*
X127626553Y-96901990D01*
X127626540Y-96901983D01*
X127462667Y-96834106D01*
X127462658Y-96834103D01*
X127288694Y-96799500D01*
X127288691Y-96799500D01*
X127111309Y-96799500D01*
X127111306Y-96799500D01*
X126937341Y-96834103D01*
X126937332Y-96834106D01*
X126773452Y-96901987D01*
X126773450Y-96901988D01*
X126696206Y-96953602D01*
X126678159Y-96959252D01*
X126662250Y-96969477D01*
X126631290Y-96973928D01*
X126629529Y-96974480D01*
X126627315Y-96974500D01*
X126440809Y-96974500D01*
X126373770Y-96954815D01*
X126353128Y-96938181D01*
X126346870Y-96931923D01*
X126346862Y-96931917D01*
X126205396Y-96848255D01*
X126205393Y-96848254D01*
X126047573Y-96802402D01*
X126047567Y-96802401D01*
X126010701Y-96799500D01*
X126010694Y-96799500D01*
X124879306Y-96799500D01*
X124879296Y-96799500D01*
X124870120Y-96800222D01*
X124801744Y-96785851D01*
X124772579Y-96761064D01*
X124771262Y-96762382D01*
X124658367Y-96649487D01*
X124658365Y-96649485D01*
X124592750Y-96611602D01*
X124527136Y-96573719D01*
X124453950Y-96554109D01*
X124380766Y-96534500D01*
X124229234Y-96534500D01*
X124082863Y-96573719D01*
X123951635Y-96649485D01*
X123951632Y-96649487D01*
X123844487Y-96756632D01*
X123844485Y-96756635D01*
X123768719Y-96887863D01*
X123729500Y-97034234D01*
X118500500Y-97034234D01*
X118500500Y-91750811D01*
X121327000Y-91750811D01*
X121327000Y-92249169D01*
X121327001Y-92249191D01*
X121329835Y-92285205D01*
X121374629Y-92439388D01*
X121374631Y-92439393D01*
X121456363Y-92577595D01*
X121456369Y-92577603D01*
X121569896Y-92691130D01*
X121569900Y-92691133D01*
X121569902Y-92691135D01*
X121708107Y-92772869D01*
X121741195Y-92782482D01*
X121862291Y-92817664D01*
X121862294Y-92817664D01*
X121862296Y-92817665D01*
X121898319Y-92820500D01*
X122296680Y-92820499D01*
X122332704Y-92817665D01*
X122486893Y-92772869D01*
X122588726Y-92712644D01*
X122656446Y-92695463D01*
X122722709Y-92717623D01*
X122739525Y-92731697D01*
X122832108Y-92824280D01*
X122832112Y-92824283D01*
X122975204Y-92912544D01*
X122975207Y-92912545D01*
X122975213Y-92912549D01*
X123134815Y-92965436D01*
X123233326Y-92975500D01*
X123233331Y-92975500D01*
X123766669Y-92975500D01*
X123766674Y-92975500D01*
X123865185Y-92965436D01*
X124024787Y-92912549D01*
X124167891Y-92824281D01*
X124199819Y-92792353D01*
X124261142Y-92758868D01*
X124330834Y-92763852D01*
X124375181Y-92792353D01*
X124407108Y-92824280D01*
X124407112Y-92824283D01*
X124550204Y-92912544D01*
X124550207Y-92912545D01*
X124550213Y-92912549D01*
X124709815Y-92965436D01*
X124808326Y-92975500D01*
X124808331Y-92975500D01*
X125341669Y-92975500D01*
X125341674Y-92975500D01*
X125440185Y-92965436D01*
X125599787Y-92912549D01*
X125742891Y-92824281D01*
X125861781Y-92705391D01*
X125874727Y-92684401D01*
X125926674Y-92637679D01*
X125980265Y-92625500D01*
X126302649Y-92625500D01*
X126369688Y-92645185D01*
X126415443Y-92697989D01*
X126425939Y-92736248D01*
X126430908Y-92782483D01*
X126481202Y-92917328D01*
X126481206Y-92917335D01*
X126567452Y-93032544D01*
X126567455Y-93032547D01*
X126682664Y-93118793D01*
X126682671Y-93118797D01*
X126817517Y-93169091D01*
X126817516Y-93169091D01*
X126824444Y-93169835D01*
X126877127Y-93175500D01*
X127922872Y-93175499D01*
X127982483Y-93169091D01*
X128117331Y-93118796D01*
X128232546Y-93032546D01*
X128318796Y-92917331D01*
X128369091Y-92782483D01*
X128375500Y-92722873D01*
X128375499Y-91277128D01*
X128369091Y-91217517D01*
X128363694Y-91203048D01*
X128318797Y-91082671D01*
X128318793Y-91082664D01*
X128232547Y-90967455D01*
X128232544Y-90967452D01*
X128117335Y-90881206D01*
X128117328Y-90881202D01*
X127982482Y-90830908D01*
X127982483Y-90830908D01*
X127922883Y-90824501D01*
X127922881Y-90824500D01*
X127922873Y-90824500D01*
X127922864Y-90824500D01*
X126877129Y-90824500D01*
X126877123Y-90824501D01*
X126817516Y-90830908D01*
X126682671Y-90881202D01*
X126682664Y-90881206D01*
X126567455Y-90967452D01*
X126567452Y-90967455D01*
X126481206Y-91082664D01*
X126481202Y-91082671D01*
X126430910Y-91217513D01*
X126430909Y-91217517D01*
X126425937Y-91263757D01*
X126399201Y-91328306D01*
X126341809Y-91368154D01*
X126302649Y-91374500D01*
X126009808Y-91374500D01*
X125942769Y-91354815D01*
X125897014Y-91302011D01*
X125887070Y-91232853D01*
X125895247Y-91203048D01*
X125938270Y-91099179D01*
X125953394Y-91062666D01*
X125955174Y-91053720D01*
X125987999Y-90888695D01*
X125988000Y-90888693D01*
X125988000Y-90711306D01*
X125987999Y-90711304D01*
X125953396Y-90537341D01*
X125953393Y-90537332D01*
X125885516Y-90373459D01*
X125885509Y-90373446D01*
X125786964Y-90225965D01*
X125786961Y-90225961D01*
X125661538Y-90100538D01*
X125661533Y-90100534D01*
X125653148Y-90094931D01*
X125608344Y-90041317D01*
X125599639Y-89971992D01*
X125629796Y-89908965D01*
X125634324Y-89904187D01*
X125735468Y-89803044D01*
X125824503Y-89658697D01*
X125877849Y-89497708D01*
X125888000Y-89398345D01*
X125887999Y-88801656D01*
X125877849Y-88702292D01*
X125824503Y-88541303D01*
X125824499Y-88541297D01*
X125824498Y-88541294D01*
X125735470Y-88396959D01*
X125735467Y-88396955D01*
X125708584Y-88370072D01*
X125675099Y-88308749D01*
X125680083Y-88239057D01*
X125683188Y-88232178D01*
X125683182Y-88232176D01*
X125718202Y-88147625D01*
X125753394Y-88062666D01*
X125771107Y-87973620D01*
X125787999Y-87888695D01*
X125788000Y-87888693D01*
X125788000Y-87711306D01*
X125787999Y-87711304D01*
X125753396Y-87537341D01*
X125753393Y-87537332D01*
X125685516Y-87373459D01*
X125685509Y-87373446D01*
X125586964Y-87225965D01*
X125586961Y-87225961D01*
X125461538Y-87100538D01*
X125461534Y-87100535D01*
X125314053Y-87001990D01*
X125314040Y-87001983D01*
X125150167Y-86934106D01*
X125150158Y-86934103D01*
X124976194Y-86899500D01*
X124976191Y-86899500D01*
X124798809Y-86899500D01*
X124798806Y-86899500D01*
X124624841Y-86934103D01*
X124624832Y-86934106D01*
X124460959Y-87001983D01*
X124460946Y-87001990D01*
X124313465Y-87100535D01*
X124313461Y-87100538D01*
X124188038Y-87225961D01*
X124188035Y-87225965D01*
X124089490Y-87373446D01*
X124089483Y-87373459D01*
X124021606Y-87537332D01*
X124021603Y-87537341D01*
X123987000Y-87711304D01*
X123987000Y-87888695D01*
X124021603Y-88062658D01*
X124021606Y-88062667D01*
X124089483Y-88226539D01*
X124089490Y-88226552D01*
X124125924Y-88281079D01*
X124146802Y-88347757D01*
X124128360Y-88415067D01*
X124050501Y-88541294D01*
X124050496Y-88541305D01*
X123997151Y-88702290D01*
X123987000Y-88801647D01*
X123987000Y-89398337D01*
X123987001Y-89398355D01*
X123997150Y-89497707D01*
X123997151Y-89497710D01*
X124050496Y-89658694D01*
X124050501Y-89658705D01*
X124139529Y-89803040D01*
X124139532Y-89803044D01*
X124259455Y-89922967D01*
X124259459Y-89922970D01*
X124392911Y-90005285D01*
X124439636Y-90057233D01*
X124450857Y-90126195D01*
X124423014Y-90190277D01*
X124415497Y-90198503D01*
X124388035Y-90225965D01*
X124289490Y-90373446D01*
X124289483Y-90373459D01*
X124221606Y-90537332D01*
X124221603Y-90537341D01*
X124187000Y-90711304D01*
X124187000Y-90888695D01*
X124199426Y-90951166D01*
X124193199Y-91020758D01*
X124150335Y-91075935D01*
X124084445Y-91099179D01*
X124031883Y-91088994D01*
X124031642Y-91089723D01*
X124026012Y-91087857D01*
X124025406Y-91087740D01*
X124024787Y-91087451D01*
X124010341Y-91082664D01*
X123865185Y-91034564D01*
X123865183Y-91034563D01*
X123766681Y-91024500D01*
X123766674Y-91024500D01*
X123233326Y-91024500D01*
X123233318Y-91024500D01*
X123134816Y-91034563D01*
X123134815Y-91034564D01*
X123121000Y-91039142D01*
X122975215Y-91087450D01*
X122975204Y-91087455D01*
X122832112Y-91175716D01*
X122832108Y-91175719D01*
X122739524Y-91268302D01*
X122678201Y-91301786D01*
X122608509Y-91296801D01*
X122588724Y-91287353D01*
X122504436Y-91237506D01*
X122486893Y-91227131D01*
X122486892Y-91227130D01*
X122486891Y-91227130D01*
X122486888Y-91227129D01*
X122332708Y-91182335D01*
X122332702Y-91182334D01*
X122296681Y-91179500D01*
X121898330Y-91179500D01*
X121898308Y-91179501D01*
X121862294Y-91182335D01*
X121708111Y-91227129D01*
X121708106Y-91227131D01*
X121569904Y-91308863D01*
X121569896Y-91308869D01*
X121456369Y-91422396D01*
X121456363Y-91422404D01*
X121374631Y-91560606D01*
X121374629Y-91560611D01*
X121329835Y-91714791D01*
X121329834Y-91714797D01*
X121327000Y-91750811D01*
X118500500Y-91750811D01*
X118500500Y-75002706D01*
X118500618Y-74997297D01*
X118503377Y-74934108D01*
X118517386Y-74613226D01*
X118518326Y-74602495D01*
X118568152Y-74224025D01*
X118570025Y-74213405D01*
X118652649Y-73840709D01*
X118655440Y-73830295D01*
X118770230Y-73466227D01*
X118773917Y-73456095D01*
X118920003Y-73103412D01*
X118924561Y-73093638D01*
X119100822Y-72755045D01*
X119106217Y-72745700D01*
X119311325Y-72423744D01*
X119317515Y-72414905D01*
X119549896Y-72112060D01*
X119556834Y-72103791D01*
X119814726Y-71822352D01*
X119822352Y-71814726D01*
X120103791Y-71556834D01*
X120112060Y-71549896D01*
X120414905Y-71317515D01*
X120423744Y-71311325D01*
X120745700Y-71106217D01*
X120755045Y-71100822D01*
X121093638Y-70924561D01*
X121103412Y-70920003D01*
X121456095Y-70773917D01*
X121466227Y-70770230D01*
X121830295Y-70655440D01*
X121840709Y-70652649D01*
X122213405Y-70570025D01*
X122224025Y-70568152D01*
X122602495Y-70518326D01*
X122613226Y-70517386D01*
X122997297Y-70500617D01*
X123002706Y-70500500D01*
X123065892Y-70500500D01*
X172934108Y-70500500D01*
X172997294Y-70500500D01*
X173002702Y-70500617D01*
G37*
%TD.AperFunction*%
%TD*%
M02*
