%TF.GenerationSoftware,KiCad,Pcbnew,9.0.1*%
%TF.CreationDate,2025-04-07T20:17:48+02:00*%
%TF.ProjectId,PCB_COM,5043425f-434f-44d2-9e6b-696361645f70,rev?*%
%TF.SameCoordinates,Original*%
%TF.FileFunction,Soldermask,Top*%
%TF.FilePolarity,Negative*%
%FSLAX46Y46*%
G04 Gerber Fmt 4.6, Leading zero omitted, Abs format (unit mm)*
G04 Created by KiCad (PCBNEW 9.0.1) date 2025-04-07 20:17:48*
%MOMM*%
%LPD*%
G01*
G04 APERTURE LIST*
G04 Aperture macros list*
%AMRoundRect*
0 Rectangle with rounded corners*
0 $1 Rounding radius*
0 $2 $3 $4 $5 $6 $7 $8 $9 X,Y pos of 4 corners*
0 Add a 4 corners polygon primitive as box body*
4,1,4,$2,$3,$4,$5,$6,$7,$8,$9,$2,$3,0*
0 Add four circle primitives for the rounded corners*
1,1,$1+$1,$2,$3*
1,1,$1+$1,$4,$5*
1,1,$1+$1,$6,$7*
1,1,$1+$1,$8,$9*
0 Add four rect primitives between the rounded corners*
20,1,$1+$1,$2,$3,$4,$5,0*
20,1,$1+$1,$4,$5,$6,$7,0*
20,1,$1+$1,$6,$7,$8,$9,0*
20,1,$1+$1,$8,$9,$2,$3,0*%
G04 Aperture macros list end*
%ADD10RoundRect,0.140000X-0.140000X-0.170000X0.140000X-0.170000X0.140000X0.170000X-0.140000X0.170000X0*%
%ADD11RoundRect,0.140000X-0.170000X0.140000X-0.170000X-0.140000X0.170000X-0.140000X0.170000X0.140000X0*%
%ADD12RoundRect,0.140000X0.170000X-0.140000X0.170000X0.140000X-0.170000X0.140000X-0.170000X-0.140000X0*%
%ADD13RoundRect,0.140000X0.140000X0.170000X-0.140000X0.170000X-0.140000X-0.170000X0.140000X-0.170000X0*%
%ADD14RoundRect,0.225000X-0.250000X0.225000X-0.250000X-0.225000X0.250000X-0.225000X0.250000X0.225000X0*%
%ADD15RoundRect,0.225000X-0.225000X-0.250000X0.225000X-0.250000X0.225000X0.250000X-0.225000X0.250000X0*%
%ADD16RoundRect,0.102000X-0.775000X-0.650000X0.775000X-0.650000X0.775000X0.650000X-0.775000X0.650000X0*%
%ADD17O,1.600000X1.000000*%
%ADD18O,2.100000X1.000000*%
%ADD19RoundRect,0.150000X-0.500000X0.150000X-0.500000X-0.150000X0.500000X-0.150000X0.500000X0.150000X0*%
%ADD20RoundRect,0.075000X-0.575000X0.075000X-0.575000X-0.075000X0.575000X-0.075000X0.575000X0.075000X0*%
%ADD21C,0.650000*%
%ADD22O,1.000000X1.600000*%
%ADD23O,1.000000X2.100000*%
%ADD24RoundRect,0.150000X-0.150000X-0.500000X0.150000X-0.500000X0.150000X0.500000X-0.150000X0.500000X0*%
%ADD25RoundRect,0.075000X-0.075000X-0.575000X0.075000X-0.575000X0.075000X0.575000X-0.075000X0.575000X0*%
%ADD26RoundRect,0.150000X0.500000X-0.150000X0.500000X0.150000X-0.500000X0.150000X-0.500000X-0.150000X0*%
%ADD27RoundRect,0.075000X0.575000X-0.075000X0.575000X0.075000X-0.575000X0.075000X-0.575000X-0.075000X0*%
%ADD28RoundRect,0.150000X0.150000X0.500000X-0.150000X0.500000X-0.150000X-0.500000X0.150000X-0.500000X0*%
%ADD29RoundRect,0.075000X0.075000X0.575000X-0.075000X0.575000X-0.075000X-0.575000X0.075000X-0.575000X0*%
%ADD30C,0.800000*%
%ADD31C,6.400000*%
%ADD32RoundRect,0.135000X0.135000X0.185000X-0.135000X0.185000X-0.135000X-0.185000X0.135000X-0.185000X0*%
%ADD33RoundRect,0.218750X-0.218750X-0.256250X0.218750X-0.256250X0.218750X0.256250X-0.218750X0.256250X0*%
%ADD34RoundRect,0.075000X0.700000X0.075000X-0.700000X0.075000X-0.700000X-0.075000X0.700000X-0.075000X0*%
%ADD35RoundRect,0.075000X0.075000X0.700000X-0.075000X0.700000X-0.075000X-0.700000X0.075000X-0.700000X0*%
%ADD36RoundRect,0.135000X-0.135000X-0.185000X0.135000X-0.185000X0.135000X0.185000X-0.135000X0.185000X0*%
%ADD37RoundRect,0.218750X0.256250X-0.218750X0.256250X0.218750X-0.256250X0.218750X-0.256250X-0.218750X0*%
%ADD38RoundRect,0.135000X-0.185000X0.135000X-0.185000X-0.135000X0.185000X-0.135000X0.185000X0.135000X0*%
%ADD39R,2.400000X0.740000*%
%ADD40RoundRect,0.102000X1.625000X-0.675000X1.625000X0.675000X-1.625000X0.675000X-1.625000X-0.675000X0*%
%ADD41RoundRect,0.102000X0.475000X-0.675000X0.475000X0.675000X-0.475000X0.675000X-0.475000X-0.675000X0*%
G04 APERTURE END LIST*
D10*
%TO.C,C10*%
X148380000Y-92000000D03*
X147420000Y-92000000D03*
%TD*%
D11*
%TO.C,C5*%
X149100000Y-105180000D03*
X149100000Y-104220000D03*
%TD*%
D10*
%TO.C,C7*%
X138320000Y-92000000D03*
X139280000Y-92000000D03*
%TD*%
D12*
%TO.C,C8*%
X135800000Y-103480000D03*
X135800000Y-102520000D03*
%TD*%
D13*
%TO.C,C6*%
X147180000Y-106700000D03*
X146220000Y-106700000D03*
%TD*%
D14*
%TO.C,C4*%
X150800000Y-96575000D03*
X150800000Y-95025000D03*
%TD*%
D15*
%TO.C,C9*%
X142950000Y-91800000D03*
X141400000Y-91800000D03*
%TD*%
D10*
%TO.C,C11*%
X136980000Y-104700000D03*
X136020000Y-104700000D03*
%TD*%
D15*
%TO.C,C3*%
X124937500Y-89100000D03*
X123387500Y-89100000D03*
%TD*%
D10*
%TO.C,C2*%
X137380000Y-92600000D03*
X136420000Y-92600000D03*
%TD*%
D16*
%TO.C,SW2*%
X167375000Y-108550000D03*
X159425000Y-108550000D03*
X167375000Y-104050000D03*
X159425000Y-104050000D03*
%TD*%
D17*
%TO.C,J2*%
X120625000Y-104320000D03*
D18*
X124805000Y-104320000D03*
D17*
X120625000Y-95680000D03*
D18*
X124805000Y-95680000D03*
D19*
X125445000Y-96800000D03*
X125445000Y-97600000D03*
D20*
X125445000Y-98250000D03*
X125445000Y-99250000D03*
X125445000Y-100750000D03*
X125445000Y-101750000D03*
D19*
X125445000Y-102400000D03*
X125445000Y-103200000D03*
X125445000Y-103200000D03*
X125445000Y-102400000D03*
D20*
X125445000Y-101250000D03*
X125445000Y-100250000D03*
X125445000Y-99750000D03*
X125445000Y-98750000D03*
D19*
X125445000Y-97600000D03*
X125445000Y-96800000D03*
D21*
X124305000Y-102890000D03*
X124305000Y-97110000D03*
%TD*%
D22*
%TO.C,J6*%
X145720000Y-127375000D03*
D23*
X145720000Y-123195000D03*
D22*
X137080000Y-127375000D03*
D23*
X137080000Y-123195000D03*
D24*
X138200000Y-122555000D03*
X139000000Y-122555000D03*
D25*
X139650000Y-122555000D03*
X140650000Y-122555000D03*
X142150000Y-122555000D03*
X143150000Y-122555000D03*
D24*
X143800000Y-122555000D03*
X144600000Y-122555000D03*
X144600000Y-122555000D03*
X143800000Y-122555000D03*
D25*
X142650000Y-122555000D03*
X141650000Y-122555000D03*
X141150000Y-122555000D03*
X140150000Y-122555000D03*
D24*
X139000000Y-122555000D03*
X138200000Y-122555000D03*
D21*
X144290000Y-123695000D03*
X138510000Y-123695000D03*
%TD*%
D17*
%TO.C,J4*%
X175275000Y-84380000D03*
D18*
X171095000Y-84380000D03*
D17*
X175275000Y-93020000D03*
D18*
X171095000Y-93020000D03*
D26*
X170455000Y-91900000D03*
X170455000Y-91100000D03*
D27*
X170455000Y-90450000D03*
X170455000Y-89450000D03*
X170455000Y-87950000D03*
X170455000Y-86950000D03*
D26*
X170455000Y-86300000D03*
X170455000Y-85500000D03*
X170455000Y-85500000D03*
X170455000Y-86300000D03*
D27*
X170455000Y-87450000D03*
X170455000Y-88450000D03*
X170455000Y-88950000D03*
X170455000Y-89950000D03*
D26*
X170455000Y-91100000D03*
X170455000Y-91900000D03*
D21*
X171595000Y-85810000D03*
X171595000Y-91590000D03*
%TD*%
D22*
%TO.C,J5*%
X133080000Y-72665000D03*
D23*
X133080000Y-76845000D03*
D22*
X141720000Y-72665000D03*
D23*
X141720000Y-76845000D03*
D28*
X140600000Y-77485000D03*
X139800000Y-77485000D03*
D29*
X139150000Y-77485000D03*
X138150000Y-77485000D03*
X136650000Y-77485000D03*
X135650000Y-77485000D03*
D28*
X135000000Y-77485000D03*
X134200000Y-77485000D03*
X134200000Y-77485000D03*
X135000000Y-77485000D03*
D29*
X136150000Y-77485000D03*
X137150000Y-77485000D03*
X137650000Y-77485000D03*
X138650000Y-77485000D03*
D28*
X139800000Y-77485000D03*
X140600000Y-77485000D03*
D21*
X134510000Y-76345000D03*
X140290000Y-76345000D03*
%TD*%
D22*
%TO.C,J3*%
X148180000Y-72525000D03*
D23*
X148180000Y-76705000D03*
D22*
X156820000Y-72525000D03*
D23*
X156820000Y-76705000D03*
D28*
X155700000Y-77345000D03*
X154900000Y-77345000D03*
D29*
X154250000Y-77345000D03*
X153250000Y-77345000D03*
X151750000Y-77345000D03*
X150750000Y-77345000D03*
D28*
X150100000Y-77345000D03*
X149300000Y-77345000D03*
X149300000Y-77345000D03*
X150100000Y-77345000D03*
D29*
X151250000Y-77345000D03*
X152250000Y-77345000D03*
X152750000Y-77345000D03*
X153750000Y-77345000D03*
D28*
X154900000Y-77345000D03*
X155700000Y-77345000D03*
D21*
X149610000Y-76205000D03*
X155390000Y-76205000D03*
%TD*%
D16*
%TO.C,SW1*%
X167475000Y-100450000D03*
X159525000Y-100450000D03*
X167475000Y-95950000D03*
X159525000Y-95950000D03*
%TD*%
D30*
%TO.C,H4*%
X175400000Y-125000000D03*
X174697056Y-126697056D03*
X174697056Y-123302944D03*
X173000000Y-127400000D03*
D31*
X173000000Y-125000000D03*
D30*
X173000000Y-122600000D03*
X171302944Y-126697056D03*
X171302944Y-123302944D03*
X170600000Y-125000000D03*
%TD*%
%TO.C,H2*%
X175400000Y-75000000D03*
X174697056Y-76697056D03*
X174697056Y-73302944D03*
X173000000Y-77400000D03*
D31*
X173000000Y-75000000D03*
D30*
X173000000Y-72600000D03*
X171302944Y-76697056D03*
X171302944Y-73302944D03*
X170600000Y-75000000D03*
%TD*%
%TO.C,H1*%
X125400000Y-75000000D03*
X124697056Y-76697056D03*
X124697056Y-73302944D03*
X123000000Y-77400000D03*
D31*
X123000000Y-75000000D03*
D30*
X123000000Y-72600000D03*
X121302944Y-76697056D03*
X121302944Y-73302944D03*
X120600000Y-75000000D03*
%TD*%
%TO.C,H3*%
X125400000Y-125000000D03*
X124697056Y-126697056D03*
X124697056Y-123302944D03*
X123000000Y-127400000D03*
D31*
X123000000Y-125000000D03*
D30*
X123000000Y-122600000D03*
X121302944Y-126697056D03*
X121302944Y-123302944D03*
X120600000Y-125000000D03*
%TD*%
D32*
%TO.C,R2*%
X122097500Y-92000000D03*
X121077500Y-92000000D03*
%TD*%
D33*
%TO.C,D1*%
X123500000Y-92000000D03*
X125075000Y-92000000D03*
%TD*%
D34*
%TO.C,U1*%
X148775000Y-103150000D03*
X148775000Y-102650000D03*
X148775000Y-102150000D03*
X148775000Y-101650000D03*
X148775000Y-101150000D03*
X148775000Y-100650000D03*
X148775000Y-100150000D03*
X148775000Y-99650000D03*
X148775000Y-99150000D03*
X148775000Y-98650000D03*
X148775000Y-98150000D03*
X148775000Y-97650000D03*
X148775000Y-97150000D03*
X148775000Y-96650000D03*
X148775000Y-96150000D03*
X148775000Y-95650000D03*
D35*
X146850000Y-93725000D03*
X146350000Y-93725000D03*
X145850000Y-93725000D03*
X145350000Y-93725000D03*
X144850000Y-93725000D03*
X144350000Y-93725000D03*
X143850000Y-93725000D03*
X143350000Y-93725000D03*
X142850000Y-93725000D03*
X142350000Y-93725000D03*
X141850000Y-93725000D03*
X141350000Y-93725000D03*
X140850000Y-93725000D03*
X140350000Y-93725000D03*
X139850000Y-93725000D03*
X139350000Y-93725000D03*
D34*
X137425000Y-95650000D03*
X137425000Y-96150000D03*
X137425000Y-96650000D03*
X137425000Y-97150000D03*
X137425000Y-97650000D03*
X137425000Y-98150000D03*
X137425000Y-98650000D03*
X137425000Y-99150000D03*
X137425000Y-99650000D03*
X137425000Y-100150000D03*
X137425000Y-100650000D03*
X137425000Y-101150000D03*
X137425000Y-101650000D03*
X137425000Y-102150000D03*
X137425000Y-102650000D03*
X137425000Y-103150000D03*
D35*
X139350000Y-105075000D03*
X139850000Y-105075000D03*
X140350000Y-105075000D03*
X140850000Y-105075000D03*
X141350000Y-105075000D03*
X141850000Y-105075000D03*
X142350000Y-105075000D03*
X142850000Y-105075000D03*
X143350000Y-105075000D03*
X143850000Y-105075000D03*
X144350000Y-105075000D03*
X144850000Y-105075000D03*
X145350000Y-105075000D03*
X145850000Y-105075000D03*
X146350000Y-105075000D03*
X146850000Y-105075000D03*
%TD*%
D36*
%TO.C,R1*%
X150590000Y-102700000D03*
X151610000Y-102700000D03*
%TD*%
D37*
%TO.C,D2*%
X131900000Y-95500000D03*
X131900000Y-93925000D03*
%TD*%
D38*
%TO.C,R3*%
X131900000Y-96892500D03*
X131900000Y-97912500D03*
%TD*%
D39*
%TO.C,J7*%
X154900000Y-120110000D03*
X151000000Y-120110000D03*
X154900000Y-118840000D03*
X151000000Y-118840000D03*
X154900000Y-117570000D03*
X151000000Y-117570000D03*
X154900000Y-116300000D03*
X151000000Y-116300000D03*
X154900000Y-115030000D03*
X151000000Y-115030000D03*
X154900000Y-113760000D03*
X151000000Y-113760000D03*
X154900000Y-112490000D03*
X151000000Y-112490000D03*
%TD*%
D40*
%TO.C,U2*%
X129700000Y-85300000D03*
D41*
X132000000Y-92000000D03*
X129700000Y-92000000D03*
X127400000Y-92000000D03*
%TD*%
D10*
%TO.C,C12*%
X150620000Y-101500000D03*
X151580000Y-101500000D03*
%TD*%
D36*
%TO.C,R4*%
X150490000Y-104100000D03*
X151510000Y-104100000D03*
%TD*%
D10*
%TO.C,C1*%
X150500000Y-100200000D03*
X151460000Y-100200000D03*
%TD*%
M02*
