%TF.GenerationSoftware,KiCad,Pcbnew,9.0.1*%
%TF.CreationDate,2025-04-07T20:17:48+02:00*%
%TF.ProjectId,PCB_COM,5043425f-434f-44d2-9e6b-696361645f70,rev?*%
%TF.SameCoordinates,Original*%
%TF.FileFunction,Copper,L3,Inr*%
%TF.FilePolarity,Positive*%
%FSLAX46Y46*%
G04 Gerber Fmt 4.6, Leading zero omitted, Abs format (unit mm)*
G04 Created by KiCad (PCBNEW 9.0.1) date 2025-04-07 20:17:48*
%MOMM*%
%LPD*%
G01*
G04 APERTURE LIST*
%TA.AperFunction,HeatsinkPad*%
%ADD10O,1.600000X1.000000*%
%TD*%
%TA.AperFunction,HeatsinkPad*%
%ADD11O,2.100000X1.000000*%
%TD*%
%TA.AperFunction,HeatsinkPad*%
%ADD12O,1.000000X1.600000*%
%TD*%
%TA.AperFunction,HeatsinkPad*%
%ADD13O,1.000000X2.100000*%
%TD*%
%TA.AperFunction,ComponentPad*%
%ADD14C,0.800000*%
%TD*%
%TA.AperFunction,ComponentPad*%
%ADD15C,6.400000*%
%TD*%
%TA.AperFunction,ViaPad*%
%ADD16C,0.800000*%
%TD*%
G04 APERTURE END LIST*
D10*
%TO.N,GND*%
%TO.C,J2*%
X120625000Y-104320000D03*
D11*
X124805000Y-104320000D03*
D10*
X120625000Y-95680000D03*
D11*
X124805000Y-95680000D03*
%TD*%
D12*
%TO.N,GND*%
%TO.C,J6*%
X145720000Y-127375000D03*
D13*
X145720000Y-123195000D03*
D12*
X137080000Y-127375000D03*
D13*
X137080000Y-123195000D03*
%TD*%
D10*
%TO.N,GND*%
%TO.C,J4*%
X175275000Y-84380000D03*
D11*
X171095000Y-84380000D03*
D10*
X175275000Y-93020000D03*
D11*
X171095000Y-93020000D03*
%TD*%
D12*
%TO.N,GND*%
%TO.C,J5*%
X133080000Y-72665000D03*
D13*
X133080000Y-76845000D03*
D12*
X141720000Y-72665000D03*
D13*
X141720000Y-76845000D03*
%TD*%
D12*
%TO.N,GND*%
%TO.C,J3*%
X148180000Y-72525000D03*
D13*
X148180000Y-76705000D03*
D12*
X156820000Y-72525000D03*
D13*
X156820000Y-76705000D03*
%TD*%
D14*
%TO.N,GND*%
%TO.C,H4*%
X175400000Y-125000000D03*
X174697056Y-126697056D03*
X174697056Y-123302944D03*
X173000000Y-127400000D03*
D15*
X173000000Y-125000000D03*
D14*
X173000000Y-122600000D03*
X171302944Y-126697056D03*
X171302944Y-123302944D03*
X170600000Y-125000000D03*
%TD*%
%TO.N,GND*%
%TO.C,H2*%
X175400000Y-75000000D03*
X174697056Y-76697056D03*
X174697056Y-73302944D03*
X173000000Y-77400000D03*
D15*
X173000000Y-75000000D03*
D14*
X173000000Y-72600000D03*
X171302944Y-76697056D03*
X171302944Y-73302944D03*
X170600000Y-75000000D03*
%TD*%
%TO.N,GND*%
%TO.C,H1*%
X125400000Y-75000000D03*
X124697056Y-76697056D03*
X124697056Y-73302944D03*
X123000000Y-77400000D03*
D15*
X123000000Y-75000000D03*
D14*
X123000000Y-72600000D03*
X121302944Y-76697056D03*
X121302944Y-73302944D03*
X120600000Y-75000000D03*
%TD*%
%TO.N,GND*%
%TO.C,H3*%
X125400000Y-125000000D03*
X124697056Y-126697056D03*
X124697056Y-123302944D03*
X123000000Y-127400000D03*
D15*
X123000000Y-125000000D03*
D14*
X123000000Y-122600000D03*
X121302944Y-126697056D03*
X121302944Y-123302944D03*
X120600000Y-125000000D03*
%TD*%
D16*
%TO.N,USART4_TX*%
X140200000Y-121300000D03*
X142200000Y-123800000D03*
%TO.N,USART3_TX*%
X135200000Y-79200000D03*
%TO.N,+5V*%
X132500000Y-79100000D03*
%TO.N,+3.3V*%
X134900000Y-95100000D03*
%TO.N,USART3_RX*%
X136900000Y-79900000D03*
X138700000Y-80500000D03*
%TO.N,USART3_TX*%
X138300000Y-81600000D03*
%TO.N,+3.3V*%
X140408677Y-91130468D03*
%TO.N,GND*%
X129600000Y-93800000D03*
X137374147Y-93608059D03*
%TO.N,USART1_TX*%
X154100000Y-79600000D03*
X150000000Y-80400000D03*
%TO.N,NRST*%
X154300000Y-102600000D03*
X147100000Y-113000000D03*
%TO.N,SWO*%
X145123754Y-106433118D03*
X147600000Y-115000000D03*
%TO.N,SWCLK*%
X139500000Y-107200000D03*
X146500000Y-117900000D03*
%TO.N,SWDIO*%
X138300000Y-107100000D03*
X146300000Y-119700000D03*
%TO.N,USART4_TX*%
X140500000Y-120400000D03*
X142500000Y-120600000D03*
%TO.N,USART2_RX*%
X148200000Y-93500000D03*
X168300000Y-90200000D03*
X168400000Y-87800000D03*
%TO.N,GND*%
X134962729Y-101735131D03*
X137800000Y-105100000D03*
%TO.N,USB_DP*%
X127854701Y-101467947D03*
X127400000Y-99525000D03*
%TO.N,+3.3V*%
X156400000Y-122000000D03*
X134700000Y-102700000D03*
X136380000Y-93500000D03*
X138500000Y-93600000D03*
X146480000Y-92000000D03*
X152000000Y-95000000D03*
X148800000Y-94800000D03*
X150500000Y-105000000D03*
X147700000Y-105100000D03*
X147200000Y-107800000D03*
%TO.N,+5V*%
X143800000Y-120500000D03*
X139000000Y-120700000D03*
X127300000Y-102300000D03*
X127200000Y-97700000D03*
X125087500Y-90800000D03*
X124887500Y-87800000D03*
X168800000Y-91100000D03*
X168800000Y-86300000D03*
X150100000Y-79100000D03*
X154900000Y-79000000D03*
X139800000Y-79300000D03*
%TD*%
%TA.AperFunction,Conductor*%
%TO.N,+5V*%
G36*
X173002702Y-70500617D02*
G01*
X173386771Y-70517386D01*
X173397506Y-70518326D01*
X173775971Y-70568152D01*
X173786597Y-70570025D01*
X174159284Y-70652648D01*
X174169710Y-70655442D01*
X174533765Y-70770227D01*
X174543911Y-70773920D01*
X174896578Y-70920000D01*
X174906369Y-70924566D01*
X175244942Y-71100816D01*
X175254309Y-71106223D01*
X175500316Y-71262947D01*
X175576244Y-71311318D01*
X175585105Y-71317523D01*
X175887930Y-71549889D01*
X175896217Y-71556843D01*
X176177635Y-71814715D01*
X176185284Y-71822364D01*
X176443156Y-72103782D01*
X176450110Y-72112069D01*
X176682476Y-72414894D01*
X176688681Y-72423755D01*
X176893775Y-72745689D01*
X176899183Y-72755057D01*
X177075430Y-73093623D01*
X177080002Y-73103427D01*
X177226075Y-73456078D01*
X177229775Y-73466244D01*
X177344554Y-73830278D01*
X177347354Y-73840727D01*
X177429971Y-74213389D01*
X177431849Y-74224042D01*
X177481671Y-74602473D01*
X177482614Y-74613249D01*
X177499382Y-74997297D01*
X177499500Y-75002706D01*
X177499500Y-96476782D01*
X177479815Y-96543821D01*
X177427011Y-96589576D01*
X177379848Y-96600706D01*
X171762961Y-96797790D01*
X171695273Y-96780468D01*
X171661089Y-96750449D01*
X168809040Y-93118543D01*
X169544499Y-93118543D01*
X169582947Y-93311829D01*
X169582950Y-93311839D01*
X169658364Y-93493907D01*
X169658371Y-93493920D01*
X169767860Y-93657781D01*
X169767863Y-93657785D01*
X169907214Y-93797136D01*
X169907218Y-93797139D01*
X170071079Y-93906628D01*
X170071092Y-93906635D01*
X170253160Y-93982049D01*
X170253165Y-93982051D01*
X170253169Y-93982051D01*
X170253170Y-93982052D01*
X170446456Y-94020500D01*
X170446459Y-94020500D01*
X171743543Y-94020500D01*
X171873582Y-93994632D01*
X171936835Y-93982051D01*
X172077655Y-93923721D01*
X172118907Y-93906635D01*
X172118907Y-93906634D01*
X172118914Y-93906632D01*
X172282782Y-93797139D01*
X172422139Y-93657782D01*
X172531632Y-93493914D01*
X172607051Y-93311835D01*
X172645500Y-93118543D01*
X173974499Y-93118543D01*
X174012947Y-93311829D01*
X174012950Y-93311839D01*
X174088364Y-93493907D01*
X174088371Y-93493920D01*
X174197860Y-93657781D01*
X174197863Y-93657785D01*
X174337214Y-93797136D01*
X174337218Y-93797139D01*
X174501079Y-93906628D01*
X174501092Y-93906635D01*
X174683160Y-93982049D01*
X174683165Y-93982051D01*
X174683169Y-93982051D01*
X174683170Y-93982052D01*
X174876456Y-94020500D01*
X174876459Y-94020500D01*
X175673543Y-94020500D01*
X175803582Y-93994632D01*
X175866835Y-93982051D01*
X176007655Y-93923721D01*
X176048907Y-93906635D01*
X176048907Y-93906634D01*
X176048914Y-93906632D01*
X176212782Y-93797139D01*
X176352139Y-93657782D01*
X176461632Y-93493914D01*
X176537051Y-93311835D01*
X176575500Y-93118541D01*
X176575500Y-92921459D01*
X176575500Y-92921456D01*
X176537052Y-92728170D01*
X176537051Y-92728169D01*
X176537051Y-92728165D01*
X176473209Y-92574035D01*
X176461635Y-92546092D01*
X176461628Y-92546079D01*
X176352139Y-92382218D01*
X176352136Y-92382214D01*
X176212785Y-92242863D01*
X176212781Y-92242860D01*
X176048920Y-92133371D01*
X176048907Y-92133364D01*
X175866839Y-92057950D01*
X175866829Y-92057947D01*
X175673543Y-92019500D01*
X175673541Y-92019500D01*
X174876459Y-92019500D01*
X174876457Y-92019500D01*
X174683170Y-92057947D01*
X174683160Y-92057950D01*
X174501092Y-92133364D01*
X174501079Y-92133371D01*
X174337218Y-92242860D01*
X174337214Y-92242863D01*
X174197863Y-92382214D01*
X174197860Y-92382218D01*
X174088371Y-92546079D01*
X174088364Y-92546092D01*
X174012950Y-92728160D01*
X174012947Y-92728170D01*
X173974500Y-92921456D01*
X173974500Y-92921459D01*
X173974500Y-93118541D01*
X173974500Y-93118543D01*
X173974499Y-93118543D01*
X172645500Y-93118543D01*
X172645500Y-93118541D01*
X172645500Y-92921459D01*
X172645500Y-92921456D01*
X172607052Y-92728170D01*
X172607051Y-92728169D01*
X172607051Y-92728165D01*
X172543209Y-92574035D01*
X172531635Y-92546092D01*
X172531628Y-92546079D01*
X172422139Y-92382218D01*
X172422136Y-92382214D01*
X172282785Y-92242863D01*
X172282781Y-92242860D01*
X172118920Y-92133371D01*
X172118913Y-92133367D01*
X172109474Y-92129458D01*
X172055070Y-92085617D01*
X172033004Y-92019323D01*
X172050283Y-91951624D01*
X172053431Y-91946972D01*
X172055511Y-91943368D01*
X172055515Y-91943365D01*
X172131281Y-91812135D01*
X172170500Y-91665766D01*
X172170500Y-91514234D01*
X172131281Y-91367865D01*
X172055515Y-91236635D01*
X171948365Y-91129485D01*
X171882750Y-91091602D01*
X171817136Y-91053719D01*
X171743950Y-91034109D01*
X171670766Y-91014500D01*
X171519234Y-91014500D01*
X171372863Y-91053719D01*
X171241635Y-91129485D01*
X171241632Y-91129487D01*
X171134487Y-91236632D01*
X171134485Y-91236635D01*
X171058719Y-91367863D01*
X171051948Y-91393134D01*
X171019500Y-91514234D01*
X171019500Y-91665766D01*
X171038676Y-91737334D01*
X171058720Y-91812137D01*
X171058721Y-91812140D01*
X171071053Y-91833499D01*
X171087527Y-91901398D01*
X171064675Y-91967426D01*
X171009755Y-92010617D01*
X170963667Y-92019500D01*
X170446457Y-92019500D01*
X170253170Y-92057947D01*
X170253160Y-92057950D01*
X170071092Y-92133364D01*
X170071079Y-92133371D01*
X169907218Y-92242860D01*
X169907214Y-92242863D01*
X169767863Y-92382214D01*
X169767860Y-92382218D01*
X169658371Y-92546079D01*
X169658364Y-92546092D01*
X169582950Y-92728160D01*
X169582947Y-92728170D01*
X169544500Y-92921456D01*
X169544500Y-92921459D01*
X169544500Y-93118541D01*
X169544500Y-93118543D01*
X169544499Y-93118543D01*
X168809040Y-93118543D01*
X168709630Y-92991950D01*
X166502886Y-90181800D01*
X166447527Y-90111304D01*
X167399500Y-90111304D01*
X167399500Y-90288695D01*
X167434103Y-90462658D01*
X167434106Y-90462667D01*
X167501983Y-90626540D01*
X167501990Y-90626553D01*
X167600535Y-90774034D01*
X167600538Y-90774038D01*
X167725961Y-90899461D01*
X167725965Y-90899464D01*
X167873446Y-90998009D01*
X167873459Y-90998016D01*
X167979110Y-91041777D01*
X168037334Y-91065894D01*
X168037336Y-91065894D01*
X168037341Y-91065896D01*
X168211304Y-91100499D01*
X168211307Y-91100500D01*
X168211309Y-91100500D01*
X168388693Y-91100500D01*
X168388694Y-91100499D01*
X168446682Y-91088964D01*
X168562658Y-91065896D01*
X168562661Y-91065894D01*
X168562666Y-91065894D01*
X168726547Y-90998013D01*
X168874035Y-90899464D01*
X168999464Y-90774035D01*
X169098013Y-90626547D01*
X169165894Y-90462666D01*
X169200500Y-90288691D01*
X169200500Y-90111309D01*
X169200500Y-90111306D01*
X169200499Y-90111304D01*
X169165896Y-89937341D01*
X169165893Y-89937332D01*
X169098016Y-89773459D01*
X169098009Y-89773446D01*
X168999464Y-89625965D01*
X168999461Y-89625961D01*
X168874038Y-89500538D01*
X168874034Y-89500535D01*
X168726553Y-89401990D01*
X168726540Y-89401983D01*
X168562667Y-89334106D01*
X168562658Y-89334103D01*
X168388694Y-89299500D01*
X168388691Y-89299500D01*
X168211309Y-89299500D01*
X168211306Y-89299500D01*
X168037341Y-89334103D01*
X168037332Y-89334106D01*
X167873459Y-89401983D01*
X167873446Y-89401990D01*
X167725965Y-89500535D01*
X167725961Y-89500538D01*
X167600538Y-89625961D01*
X167600535Y-89625965D01*
X167501990Y-89773446D01*
X167501983Y-89773459D01*
X167434106Y-89937332D01*
X167434103Y-89937341D01*
X167399500Y-90111304D01*
X166447527Y-90111304D01*
X164618224Y-87781800D01*
X164562865Y-87711304D01*
X167499500Y-87711304D01*
X167499500Y-87888695D01*
X167534103Y-88062658D01*
X167534106Y-88062667D01*
X167601983Y-88226540D01*
X167601990Y-88226553D01*
X167700535Y-88374034D01*
X167700538Y-88374038D01*
X167825961Y-88499461D01*
X167825965Y-88499464D01*
X167973446Y-88598009D01*
X167973459Y-88598016D01*
X168096363Y-88648923D01*
X168137334Y-88665894D01*
X168137336Y-88665894D01*
X168137341Y-88665896D01*
X168311304Y-88700499D01*
X168311307Y-88700500D01*
X168311309Y-88700500D01*
X168488693Y-88700500D01*
X168488694Y-88700499D01*
X168546682Y-88688964D01*
X168662658Y-88665896D01*
X168662661Y-88665894D01*
X168662666Y-88665894D01*
X168826547Y-88598013D01*
X168974035Y-88499464D01*
X169099464Y-88374035D01*
X169198013Y-88226547D01*
X169265894Y-88062666D01*
X169300500Y-87888691D01*
X169300500Y-87711309D01*
X169300500Y-87711306D01*
X169300499Y-87711304D01*
X169265896Y-87537341D01*
X169265893Y-87537332D01*
X169198016Y-87373459D01*
X169198009Y-87373446D01*
X169099464Y-87225965D01*
X169099461Y-87225961D01*
X168974038Y-87100538D01*
X168974034Y-87100535D01*
X168826553Y-87001990D01*
X168826540Y-87001983D01*
X168662667Y-86934106D01*
X168662658Y-86934103D01*
X168488694Y-86899500D01*
X168488691Y-86899500D01*
X168311309Y-86899500D01*
X168311306Y-86899500D01*
X168137341Y-86934103D01*
X168137332Y-86934106D01*
X167973459Y-87001983D01*
X167973446Y-87001990D01*
X167825965Y-87100535D01*
X167825961Y-87100538D01*
X167700538Y-87225961D01*
X167700535Y-87225965D01*
X167601990Y-87373446D01*
X167601983Y-87373459D01*
X167534106Y-87537332D01*
X167534103Y-87537341D01*
X167499500Y-87711304D01*
X164562865Y-87711304D01*
X162024255Y-84478543D01*
X169544499Y-84478543D01*
X169582947Y-84671829D01*
X169582950Y-84671839D01*
X169658364Y-84853907D01*
X169658371Y-84853920D01*
X169767860Y-85017781D01*
X169767863Y-85017785D01*
X169907214Y-85157136D01*
X169907218Y-85157139D01*
X170071079Y-85266628D01*
X170071092Y-85266635D01*
X170253160Y-85342049D01*
X170253165Y-85342051D01*
X170253169Y-85342051D01*
X170253170Y-85342052D01*
X170446456Y-85380500D01*
X170446459Y-85380500D01*
X170963667Y-85380500D01*
X171030706Y-85400185D01*
X171076461Y-85452989D01*
X171086405Y-85522147D01*
X171071053Y-85566501D01*
X171058721Y-85587859D01*
X171058720Y-85587862D01*
X171019500Y-85734234D01*
X171019500Y-85885765D01*
X171058719Y-86032136D01*
X171096602Y-86097750D01*
X171134485Y-86163365D01*
X171241635Y-86270515D01*
X171372865Y-86346281D01*
X171519234Y-86385500D01*
X171519236Y-86385500D01*
X171670764Y-86385500D01*
X171670766Y-86385500D01*
X171817135Y-86346281D01*
X171948365Y-86270515D01*
X172055515Y-86163365D01*
X172131281Y-86032135D01*
X172170500Y-85885766D01*
X172170500Y-85734234D01*
X172131281Y-85587865D01*
X172055515Y-85456635D01*
X172055513Y-85456633D01*
X172051451Y-85449597D01*
X172053779Y-85448252D01*
X172033355Y-85395422D01*
X172047393Y-85326977D01*
X172096206Y-85276986D01*
X172109470Y-85270543D01*
X172118914Y-85266632D01*
X172282782Y-85157139D01*
X172422139Y-85017782D01*
X172531632Y-84853914D01*
X172607051Y-84671835D01*
X172645500Y-84478543D01*
X173974499Y-84478543D01*
X174012947Y-84671829D01*
X174012950Y-84671839D01*
X174088364Y-84853907D01*
X174088371Y-84853920D01*
X174197860Y-85017781D01*
X174197863Y-85017785D01*
X174337214Y-85157136D01*
X174337218Y-85157139D01*
X174501079Y-85266628D01*
X174501092Y-85266635D01*
X174683160Y-85342049D01*
X174683165Y-85342051D01*
X174683169Y-85342051D01*
X174683170Y-85342052D01*
X174876456Y-85380500D01*
X174876459Y-85380500D01*
X175673543Y-85380500D01*
X175829462Y-85349485D01*
X175866835Y-85342051D01*
X176048914Y-85266632D01*
X176212782Y-85157139D01*
X176352139Y-85017782D01*
X176461632Y-84853914D01*
X176537051Y-84671835D01*
X176575500Y-84478541D01*
X176575500Y-84281459D01*
X176575500Y-84281456D01*
X176537052Y-84088170D01*
X176537051Y-84088169D01*
X176537051Y-84088165D01*
X176537049Y-84088160D01*
X176461635Y-83906092D01*
X176461628Y-83906079D01*
X176352139Y-83742218D01*
X176352136Y-83742214D01*
X176212785Y-83602863D01*
X176212781Y-83602860D01*
X176048920Y-83493371D01*
X176048907Y-83493364D01*
X175866839Y-83417950D01*
X175866829Y-83417947D01*
X175673543Y-83379500D01*
X175673541Y-83379500D01*
X174876459Y-83379500D01*
X174876457Y-83379500D01*
X174683170Y-83417947D01*
X174683160Y-83417950D01*
X174501092Y-83493364D01*
X174501079Y-83493371D01*
X174337218Y-83602860D01*
X174337214Y-83602863D01*
X174197863Y-83742214D01*
X174197860Y-83742218D01*
X174088371Y-83906079D01*
X174088364Y-83906092D01*
X174012950Y-84088160D01*
X174012947Y-84088170D01*
X173974500Y-84281456D01*
X173974500Y-84281459D01*
X173974500Y-84478541D01*
X173974500Y-84478543D01*
X173974499Y-84478543D01*
X172645500Y-84478543D01*
X172645500Y-84478541D01*
X172645500Y-84281459D01*
X172645500Y-84281456D01*
X172607052Y-84088170D01*
X172607051Y-84088169D01*
X172607051Y-84088165D01*
X172607049Y-84088160D01*
X172531635Y-83906092D01*
X172531628Y-83906079D01*
X172422139Y-83742218D01*
X172422136Y-83742214D01*
X172282785Y-83602863D01*
X172282781Y-83602860D01*
X172118920Y-83493371D01*
X172118907Y-83493364D01*
X171936839Y-83417950D01*
X171936829Y-83417947D01*
X171743543Y-83379500D01*
X171743541Y-83379500D01*
X170446459Y-83379500D01*
X170446457Y-83379500D01*
X170253170Y-83417947D01*
X170253160Y-83417950D01*
X170071092Y-83493364D01*
X170071079Y-83493371D01*
X169907218Y-83602860D01*
X169907214Y-83602863D01*
X169767863Y-83742214D01*
X169767860Y-83742218D01*
X169658371Y-83906079D01*
X169658364Y-83906092D01*
X169582950Y-84088160D01*
X169582947Y-84088170D01*
X169544500Y-84281456D01*
X169544500Y-84281459D01*
X169544500Y-84478541D01*
X169544500Y-84478543D01*
X169544499Y-84478543D01*
X162024255Y-84478543D01*
X161924845Y-84351950D01*
X158900000Y-80500000D01*
X154659181Y-80584142D01*
X154591764Y-80565791D01*
X154544971Y-80513905D01*
X154533657Y-80444957D01*
X154561416Y-80380838D01*
X154587826Y-80357067D01*
X154674035Y-80299464D01*
X154799464Y-80174035D01*
X154898013Y-80026547D01*
X154965894Y-79862666D01*
X154966986Y-79857180D01*
X154988964Y-79746682D01*
X155000500Y-79688691D01*
X155000500Y-79511309D01*
X155000500Y-79511306D01*
X155000499Y-79511304D01*
X154965896Y-79337341D01*
X154965893Y-79337332D01*
X154898016Y-79173459D01*
X154898009Y-79173446D01*
X154799464Y-79025965D01*
X154799461Y-79025961D01*
X154674038Y-78900538D01*
X154674034Y-78900535D01*
X154526553Y-78801990D01*
X154526540Y-78801983D01*
X154362667Y-78734106D01*
X154362658Y-78734103D01*
X154188694Y-78699500D01*
X154188691Y-78699500D01*
X154011309Y-78699500D01*
X154011306Y-78699500D01*
X153837341Y-78734103D01*
X153837332Y-78734106D01*
X153673459Y-78801983D01*
X153673446Y-78801990D01*
X153525965Y-78900535D01*
X153525961Y-78900538D01*
X153400538Y-79025961D01*
X153400535Y-79025965D01*
X153301990Y-79173446D01*
X153301983Y-79173459D01*
X153234106Y-79337332D01*
X153234103Y-79337341D01*
X153199500Y-79511304D01*
X153199500Y-79688695D01*
X153234103Y-79862658D01*
X153234106Y-79862667D01*
X153301983Y-80026540D01*
X153301990Y-80026553D01*
X153400535Y-80174034D01*
X153400538Y-80174038D01*
X153525961Y-80299461D01*
X153525965Y-80299464D01*
X153644278Y-80378519D01*
X153689083Y-80432131D01*
X153697790Y-80501456D01*
X153667635Y-80564484D01*
X153608192Y-80601203D01*
X153577847Y-80605597D01*
X151020703Y-80656334D01*
X150953286Y-80637983D01*
X150906493Y-80586097D01*
X150895179Y-80517149D01*
X150896623Y-80508178D01*
X150900500Y-80488691D01*
X150900500Y-80311309D01*
X150900500Y-80311306D01*
X150900499Y-80311304D01*
X150865896Y-80137341D01*
X150865893Y-80137332D01*
X150798016Y-79973459D01*
X150798009Y-79973446D01*
X150699464Y-79825965D01*
X150699461Y-79825961D01*
X150574038Y-79700538D01*
X150574034Y-79700535D01*
X150426553Y-79601990D01*
X150426540Y-79601983D01*
X150262667Y-79534106D01*
X150262658Y-79534103D01*
X150088694Y-79499500D01*
X150088691Y-79499500D01*
X149911309Y-79499500D01*
X149911306Y-79499500D01*
X149737341Y-79534103D01*
X149737332Y-79534106D01*
X149573459Y-79601983D01*
X149573446Y-79601990D01*
X149425965Y-79700535D01*
X149425961Y-79700538D01*
X149300538Y-79825961D01*
X149300535Y-79825965D01*
X149201990Y-79973446D01*
X149201983Y-79973459D01*
X149134106Y-80137332D01*
X149134103Y-80137341D01*
X149099500Y-80311304D01*
X149099500Y-80488695D01*
X149111379Y-80548415D01*
X149105152Y-80618007D01*
X149062289Y-80673184D01*
X148996399Y-80696428D01*
X148992222Y-80696582D01*
X139695899Y-80881033D01*
X139628482Y-80862682D01*
X139581689Y-80810796D01*
X139570375Y-80741848D01*
X139571822Y-80732865D01*
X139600500Y-80588693D01*
X139600500Y-80411306D01*
X139600499Y-80411304D01*
X139565896Y-80237341D01*
X139565893Y-80237332D01*
X139498016Y-80073459D01*
X139498009Y-80073446D01*
X139399464Y-79925965D01*
X139399461Y-79925961D01*
X139274038Y-79800538D01*
X139274034Y-79800535D01*
X139126553Y-79701990D01*
X139126540Y-79701983D01*
X138962667Y-79634106D01*
X138962658Y-79634103D01*
X138788694Y-79599500D01*
X138788691Y-79599500D01*
X138611309Y-79599500D01*
X138611306Y-79599500D01*
X138437341Y-79634103D01*
X138437332Y-79634106D01*
X138273459Y-79701983D01*
X138273446Y-79701990D01*
X138125965Y-79800535D01*
X138125961Y-79800538D01*
X138012181Y-79914319D01*
X137950858Y-79947804D01*
X137881166Y-79942820D01*
X137825233Y-79900948D01*
X137800816Y-79835484D01*
X137800500Y-79826638D01*
X137800500Y-79811306D01*
X137800499Y-79811304D01*
X137765896Y-79637341D01*
X137765893Y-79637332D01*
X137698016Y-79473459D01*
X137698009Y-79473446D01*
X137599464Y-79325965D01*
X137599461Y-79325961D01*
X137474038Y-79200538D01*
X137474034Y-79200535D01*
X137326553Y-79101990D01*
X137326540Y-79101983D01*
X137162667Y-79034106D01*
X137162658Y-79034103D01*
X136988694Y-78999500D01*
X136988691Y-78999500D01*
X136811309Y-78999500D01*
X136811306Y-78999500D01*
X136637341Y-79034103D01*
X136637332Y-79034106D01*
X136473459Y-79101983D01*
X136473446Y-79101990D01*
X136325965Y-79200535D01*
X136325961Y-79200538D01*
X136312181Y-79214319D01*
X136250858Y-79247804D01*
X136181166Y-79242820D01*
X136125233Y-79200948D01*
X136100816Y-79135484D01*
X136100500Y-79126638D01*
X136100500Y-79111306D01*
X136100499Y-79111304D01*
X136065896Y-78937341D01*
X136065893Y-78937332D01*
X135998016Y-78773459D01*
X135998009Y-78773446D01*
X135899464Y-78625965D01*
X135899461Y-78625961D01*
X135774038Y-78500538D01*
X135774034Y-78500535D01*
X135626553Y-78401990D01*
X135626540Y-78401983D01*
X135462667Y-78334106D01*
X135462658Y-78334103D01*
X135288694Y-78299500D01*
X135288691Y-78299500D01*
X135111309Y-78299500D01*
X135111306Y-78299500D01*
X134937341Y-78334103D01*
X134937332Y-78334106D01*
X134773459Y-78401983D01*
X134773446Y-78401990D01*
X134625965Y-78500535D01*
X134625961Y-78500538D01*
X134500538Y-78625961D01*
X134500535Y-78625965D01*
X134401990Y-78773446D01*
X134401983Y-78773459D01*
X134334106Y-78937332D01*
X134334103Y-78937341D01*
X134299500Y-79111304D01*
X134299500Y-79288695D01*
X134334103Y-79462658D01*
X134334106Y-79462667D01*
X134401983Y-79626540D01*
X134401990Y-79626553D01*
X134500535Y-79774034D01*
X134500538Y-79774038D01*
X134625961Y-79899461D01*
X134625965Y-79899464D01*
X134773446Y-79998009D01*
X134773459Y-79998016D01*
X134842355Y-80026553D01*
X134937334Y-80065894D01*
X134937336Y-80065894D01*
X134937341Y-80065896D01*
X135111304Y-80100499D01*
X135111307Y-80100500D01*
X135111309Y-80100500D01*
X135288693Y-80100500D01*
X135288694Y-80100499D01*
X135346682Y-80088964D01*
X135462658Y-80065896D01*
X135462661Y-80065894D01*
X135462666Y-80065894D01*
X135626547Y-79998013D01*
X135774035Y-79899464D01*
X135774447Y-79899052D01*
X135787819Y-79885681D01*
X135849142Y-79852196D01*
X135918834Y-79857180D01*
X135974767Y-79899052D01*
X135999184Y-79964516D01*
X135999500Y-79973362D01*
X135999500Y-79988695D01*
X136034103Y-80162658D01*
X136034106Y-80162667D01*
X136101983Y-80326540D01*
X136101990Y-80326553D01*
X136200535Y-80474034D01*
X136200538Y-80474038D01*
X136325961Y-80599461D01*
X136325965Y-80599464D01*
X136473446Y-80698009D01*
X136473453Y-80698013D01*
X136494909Y-80706900D01*
X136549313Y-80750741D01*
X136571379Y-80817035D01*
X136554101Y-80884734D01*
X136502964Y-80932345D01*
X136449918Y-80945438D01*
X133700000Y-81000000D01*
X129700000Y-101900000D01*
X131222684Y-103112137D01*
X144875155Y-113980222D01*
X144912279Y-114029282D01*
X146133853Y-116942268D01*
X146141626Y-117011704D01*
X146110625Y-117074319D01*
X146077965Y-117099575D01*
X146073453Y-117101987D01*
X145925965Y-117200535D01*
X145925961Y-117200538D01*
X145800538Y-117325961D01*
X145800535Y-117325965D01*
X145701990Y-117473446D01*
X145701983Y-117473459D01*
X145634106Y-117637332D01*
X145634103Y-117637341D01*
X145599500Y-117811304D01*
X145599500Y-117988695D01*
X145634103Y-118162658D01*
X145634106Y-118162667D01*
X145701983Y-118326540D01*
X145701990Y-118326553D01*
X145800535Y-118474034D01*
X145800538Y-118474038D01*
X145925961Y-118599461D01*
X145925965Y-118599464D01*
X145992473Y-118643904D01*
X146037278Y-118697517D01*
X146045985Y-118766842D01*
X146015830Y-118829869D01*
X145971035Y-118861567D01*
X145873455Y-118901985D01*
X145873446Y-118901990D01*
X145725965Y-119000535D01*
X145725961Y-119000538D01*
X145600538Y-119125961D01*
X145600535Y-119125965D01*
X145501990Y-119273446D01*
X145501983Y-119273459D01*
X145434106Y-119437332D01*
X145434103Y-119437341D01*
X145399500Y-119611304D01*
X145399500Y-119788695D01*
X145434103Y-119962658D01*
X145434106Y-119962667D01*
X145501983Y-120126540D01*
X145501990Y-120126553D01*
X145600535Y-120274034D01*
X145600538Y-120274038D01*
X145725961Y-120399461D01*
X145725965Y-120399464D01*
X145873446Y-120498009D01*
X145873459Y-120498016D01*
X145972516Y-120539046D01*
X146037334Y-120565894D01*
X146037336Y-120565894D01*
X146037341Y-120565896D01*
X146211304Y-120600499D01*
X146211307Y-120600500D01*
X146211309Y-120600500D01*
X146388693Y-120600500D01*
X146388694Y-120600499D01*
X146446682Y-120588964D01*
X146562658Y-120565896D01*
X146562661Y-120565894D01*
X146562666Y-120565894D01*
X146726547Y-120498013D01*
X146874035Y-120399464D01*
X146999464Y-120274035D01*
X147098013Y-120126547D01*
X147165894Y-119962666D01*
X147165894Y-119962665D01*
X147168225Y-119957038D01*
X147170630Y-119958034D01*
X147202666Y-119909064D01*
X147266455Y-119880555D01*
X147335531Y-119891059D01*
X147387962Y-119937241D01*
X147397458Y-119955478D01*
X151327680Y-129327546D01*
X151335453Y-129396982D01*
X151304452Y-129459597D01*
X151244520Y-129495513D01*
X151213328Y-129499500D01*
X123002706Y-129499500D01*
X122997297Y-129499382D01*
X122613249Y-129482614D01*
X122602473Y-129481671D01*
X122224042Y-129431849D01*
X122213389Y-129429971D01*
X121840727Y-129347354D01*
X121830278Y-129344554D01*
X121466244Y-129229775D01*
X121456078Y-129226075D01*
X121103427Y-129080002D01*
X121093623Y-129075430D01*
X120755057Y-128899183D01*
X120745689Y-128893775D01*
X120423755Y-128688681D01*
X120414894Y-128682476D01*
X120112069Y-128450110D01*
X120103782Y-128443156D01*
X119822364Y-128185284D01*
X119814715Y-128177635D01*
X119556843Y-127896217D01*
X119549889Y-127887930D01*
X119317523Y-127585105D01*
X119311318Y-127576244D01*
X119106224Y-127254310D01*
X119100816Y-127244942D01*
X119081090Y-127207049D01*
X118924566Y-126906369D01*
X118919997Y-126896572D01*
X118773920Y-126543911D01*
X118770224Y-126533755D01*
X118655442Y-126169710D01*
X118652648Y-126159284D01*
X118570025Y-125786597D01*
X118568152Y-125775971D01*
X118518326Y-125397506D01*
X118517386Y-125386771D01*
X118500618Y-125002702D01*
X118500500Y-124997293D01*
X118500500Y-124818209D01*
X119299500Y-124818209D01*
X119299500Y-125181790D01*
X119335137Y-125543630D01*
X119406064Y-125900212D01*
X119406067Y-125900223D01*
X119511614Y-126248165D01*
X119650754Y-126584078D01*
X119650756Y-126584083D01*
X119822140Y-126904720D01*
X119822151Y-126904738D01*
X120024140Y-127207035D01*
X120024150Y-127207049D01*
X120254807Y-127488106D01*
X120511893Y-127745192D01*
X120511898Y-127745196D01*
X120511899Y-127745197D01*
X120792956Y-127975854D01*
X121095268Y-128177853D01*
X121095277Y-128177858D01*
X121095279Y-128177859D01*
X121415916Y-128349243D01*
X121415918Y-128349243D01*
X121415924Y-128349247D01*
X121751836Y-128488386D01*
X122099767Y-128593930D01*
X122099773Y-128593931D01*
X122099776Y-128593932D01*
X122099787Y-128593935D01*
X122456369Y-128664862D01*
X122818206Y-128700500D01*
X122818209Y-128700500D01*
X123181791Y-128700500D01*
X123181794Y-128700500D01*
X123543631Y-128664862D01*
X123613045Y-128651054D01*
X123900212Y-128593935D01*
X123900223Y-128593932D01*
X123900223Y-128593931D01*
X123900233Y-128593930D01*
X124248164Y-128488386D01*
X124584076Y-128349247D01*
X124904732Y-128177853D01*
X125207044Y-127975854D01*
X125453561Y-127773543D01*
X136079499Y-127773543D01*
X136117947Y-127966829D01*
X136117950Y-127966839D01*
X136193364Y-128148907D01*
X136193371Y-128148920D01*
X136302860Y-128312781D01*
X136302863Y-128312785D01*
X136442214Y-128452136D01*
X136442218Y-128452139D01*
X136606079Y-128561628D01*
X136606092Y-128561635D01*
X136788160Y-128637049D01*
X136788165Y-128637051D01*
X136788169Y-128637051D01*
X136788170Y-128637052D01*
X136981456Y-128675500D01*
X136981459Y-128675500D01*
X137178543Y-128675500D01*
X137308582Y-128649632D01*
X137371835Y-128637051D01*
X137553914Y-128561632D01*
X137717782Y-128452139D01*
X137857139Y-128312782D01*
X137966632Y-128148914D01*
X138042051Y-127966835D01*
X138057746Y-127887930D01*
X138080500Y-127773543D01*
X144719499Y-127773543D01*
X144757947Y-127966829D01*
X144757950Y-127966839D01*
X144833364Y-128148907D01*
X144833371Y-128148920D01*
X144942860Y-128312781D01*
X144942863Y-128312785D01*
X145082214Y-128452136D01*
X145082218Y-128452139D01*
X145246079Y-128561628D01*
X145246092Y-128561635D01*
X145428160Y-128637049D01*
X145428165Y-128637051D01*
X145428169Y-128637051D01*
X145428170Y-128637052D01*
X145621456Y-128675500D01*
X145621459Y-128675500D01*
X145818543Y-128675500D01*
X145948582Y-128649632D01*
X146011835Y-128637051D01*
X146193914Y-128561632D01*
X146357782Y-128452139D01*
X146497139Y-128312782D01*
X146606632Y-128148914D01*
X146682051Y-127966835D01*
X146697746Y-127887930D01*
X146720500Y-127773543D01*
X146720500Y-126976456D01*
X146682052Y-126783170D01*
X146682051Y-126783169D01*
X146682051Y-126783165D01*
X146682049Y-126783160D01*
X146606635Y-126601092D01*
X146606628Y-126601079D01*
X146497139Y-126437218D01*
X146497136Y-126437214D01*
X146357785Y-126297863D01*
X146357781Y-126297860D01*
X146193920Y-126188371D01*
X146193907Y-126188364D01*
X146011839Y-126112950D01*
X146011829Y-126112947D01*
X145818543Y-126074500D01*
X145818541Y-126074500D01*
X145621459Y-126074500D01*
X145621457Y-126074500D01*
X145428170Y-126112947D01*
X145428160Y-126112950D01*
X145246092Y-126188364D01*
X145246079Y-126188371D01*
X145082218Y-126297860D01*
X145082214Y-126297863D01*
X144942863Y-126437214D01*
X144942860Y-126437218D01*
X144833371Y-126601079D01*
X144833364Y-126601092D01*
X144757950Y-126783160D01*
X144757947Y-126783170D01*
X144719500Y-126976456D01*
X144719500Y-126976459D01*
X144719500Y-127773541D01*
X144719500Y-127773543D01*
X144719499Y-127773543D01*
X138080500Y-127773543D01*
X138080500Y-126976456D01*
X138042052Y-126783170D01*
X138042051Y-126783169D01*
X138042051Y-126783165D01*
X138042049Y-126783160D01*
X137966635Y-126601092D01*
X137966628Y-126601079D01*
X137857139Y-126437218D01*
X137857136Y-126437214D01*
X137717785Y-126297863D01*
X137717781Y-126297860D01*
X137553920Y-126188371D01*
X137553907Y-126188364D01*
X137371839Y-126112950D01*
X137371829Y-126112947D01*
X137178543Y-126074500D01*
X137178541Y-126074500D01*
X136981459Y-126074500D01*
X136981457Y-126074500D01*
X136788170Y-126112947D01*
X136788160Y-126112950D01*
X136606092Y-126188364D01*
X136606079Y-126188371D01*
X136442218Y-126297860D01*
X136442214Y-126297863D01*
X136302863Y-126437214D01*
X136302860Y-126437218D01*
X136193371Y-126601079D01*
X136193364Y-126601092D01*
X136117950Y-126783160D01*
X136117947Y-126783170D01*
X136079500Y-126976456D01*
X136079500Y-126976459D01*
X136079500Y-127773541D01*
X136079500Y-127773543D01*
X136079499Y-127773543D01*
X125453561Y-127773543D01*
X125488101Y-127745197D01*
X125745197Y-127488101D01*
X125975854Y-127207044D01*
X126177853Y-126904732D01*
X126349247Y-126584076D01*
X126488386Y-126248164D01*
X126593930Y-125900233D01*
X126593932Y-125900223D01*
X126593935Y-125900212D01*
X126664862Y-125543630D01*
X126679781Y-125392157D01*
X126700500Y-125181794D01*
X126700500Y-124818206D01*
X126664862Y-124456369D01*
X126593935Y-124099787D01*
X126593932Y-124099776D01*
X126593931Y-124099773D01*
X126593930Y-124099767D01*
X126516205Y-123843543D01*
X136079499Y-123843543D01*
X136117947Y-124036829D01*
X136117950Y-124036839D01*
X136193364Y-124218907D01*
X136193371Y-124218920D01*
X136302860Y-124382781D01*
X136302863Y-124382785D01*
X136442214Y-124522136D01*
X136442218Y-124522139D01*
X136606079Y-124631628D01*
X136606092Y-124631635D01*
X136688802Y-124665894D01*
X136788165Y-124707051D01*
X136788169Y-124707051D01*
X136788170Y-124707052D01*
X136981456Y-124745500D01*
X136981459Y-124745500D01*
X137178543Y-124745500D01*
X137308582Y-124719632D01*
X137371835Y-124707051D01*
X137553914Y-124631632D01*
X137717782Y-124522139D01*
X137857139Y-124382782D01*
X137966632Y-124218914D01*
X137970540Y-124209478D01*
X138014376Y-124155074D01*
X138080669Y-124133004D01*
X138148369Y-124150279D01*
X138153028Y-124153432D01*
X138156633Y-124155513D01*
X138156635Y-124155515D01*
X138227077Y-124196185D01*
X138279665Y-124226547D01*
X138287865Y-124231281D01*
X138434234Y-124270500D01*
X138434236Y-124270500D01*
X138585764Y-124270500D01*
X138585766Y-124270500D01*
X138732135Y-124231281D01*
X138863365Y-124155515D01*
X138970515Y-124048365D01*
X139046281Y-123917135D01*
X139085500Y-123770766D01*
X139085500Y-123711304D01*
X141299500Y-123711304D01*
X141299500Y-123888695D01*
X141334103Y-124062658D01*
X141334106Y-124062667D01*
X141401983Y-124226540D01*
X141401990Y-124226553D01*
X141500535Y-124374034D01*
X141500538Y-124374038D01*
X141625961Y-124499461D01*
X141625965Y-124499464D01*
X141773446Y-124598009D01*
X141773459Y-124598016D01*
X141896363Y-124648923D01*
X141937334Y-124665894D01*
X141937336Y-124665894D01*
X141937341Y-124665896D01*
X142111304Y-124700499D01*
X142111307Y-124700500D01*
X142111309Y-124700500D01*
X142288693Y-124700500D01*
X142288694Y-124700499D01*
X142346682Y-124688964D01*
X142462658Y-124665896D01*
X142462661Y-124665894D01*
X142462666Y-124665894D01*
X142626547Y-124598013D01*
X142774035Y-124499464D01*
X142899464Y-124374035D01*
X142998013Y-124226547D01*
X143001176Y-124218912D01*
X143027435Y-124155515D01*
X143065894Y-124062666D01*
X143068739Y-124048367D01*
X143100499Y-123888695D01*
X143100500Y-123888693D01*
X143100500Y-123711306D01*
X143100499Y-123711304D01*
X143085381Y-123635298D01*
X143082186Y-123619234D01*
X143714500Y-123619234D01*
X143714500Y-123770765D01*
X143753719Y-123917136D01*
X143791602Y-123982750D01*
X143829485Y-124048365D01*
X143936635Y-124155515D01*
X144030105Y-124209480D01*
X144059665Y-124226547D01*
X144067865Y-124231281D01*
X144214234Y-124270500D01*
X144214236Y-124270500D01*
X144365764Y-124270500D01*
X144365766Y-124270500D01*
X144512135Y-124231281D01*
X144643365Y-124155515D01*
X144643366Y-124155513D01*
X144650403Y-124151451D01*
X144651749Y-124153783D01*
X144704553Y-124133357D01*
X144773001Y-124147381D01*
X144823001Y-124196185D01*
X144829458Y-124209474D01*
X144833367Y-124218913D01*
X144833371Y-124218920D01*
X144942860Y-124382781D01*
X144942863Y-124382785D01*
X145082214Y-124522136D01*
X145082218Y-124522139D01*
X145246079Y-124631628D01*
X145246092Y-124631635D01*
X145328802Y-124665894D01*
X145428165Y-124707051D01*
X145428169Y-124707051D01*
X145428170Y-124707052D01*
X145621456Y-124745500D01*
X145621459Y-124745500D01*
X145818543Y-124745500D01*
X145948582Y-124719632D01*
X146011835Y-124707051D01*
X146193914Y-124631632D01*
X146357782Y-124522139D01*
X146497139Y-124382782D01*
X146606632Y-124218914D01*
X146682051Y-124036835D01*
X146720500Y-123843541D01*
X146720500Y-122546459D01*
X146720500Y-122546456D01*
X146682052Y-122353170D01*
X146682051Y-122353169D01*
X146682051Y-122353165D01*
X146682049Y-122353160D01*
X146606635Y-122171092D01*
X146606628Y-122171079D01*
X146497139Y-122007218D01*
X146497136Y-122007214D01*
X146357785Y-121867863D01*
X146357781Y-121867860D01*
X146193920Y-121758371D01*
X146193907Y-121758364D01*
X146011839Y-121682950D01*
X146011829Y-121682947D01*
X145818543Y-121644500D01*
X145818541Y-121644500D01*
X145621459Y-121644500D01*
X145621457Y-121644500D01*
X145428170Y-121682947D01*
X145428160Y-121682950D01*
X145246092Y-121758364D01*
X145246079Y-121758371D01*
X145082218Y-121867860D01*
X145082214Y-121867863D01*
X144942863Y-122007214D01*
X144942860Y-122007218D01*
X144833371Y-122171079D01*
X144833364Y-122171092D01*
X144757950Y-122353160D01*
X144757947Y-122353170D01*
X144719500Y-122546456D01*
X144719500Y-123063666D01*
X144699815Y-123130705D01*
X144647011Y-123176460D01*
X144577853Y-123186404D01*
X144533501Y-123171054D01*
X144512137Y-123158719D01*
X144407584Y-123130705D01*
X144365766Y-123119500D01*
X144214234Y-123119500D01*
X144067863Y-123158719D01*
X143936635Y-123234485D01*
X143936632Y-123234487D01*
X143829487Y-123341632D01*
X143829485Y-123341635D01*
X143753719Y-123472863D01*
X143714500Y-123619234D01*
X143082186Y-123619234D01*
X143065896Y-123537342D01*
X143065893Y-123537332D01*
X142998016Y-123373459D01*
X142998009Y-123373446D01*
X142899464Y-123225965D01*
X142899461Y-123225961D01*
X142774038Y-123100538D01*
X142774034Y-123100535D01*
X142626553Y-123001990D01*
X142626540Y-123001983D01*
X142462667Y-122934106D01*
X142462658Y-122934103D01*
X142288694Y-122899500D01*
X142288691Y-122899500D01*
X142111309Y-122899500D01*
X142111306Y-122899500D01*
X141937341Y-122934103D01*
X141937332Y-122934106D01*
X141773459Y-123001983D01*
X141773446Y-123001990D01*
X141625965Y-123100535D01*
X141625961Y-123100538D01*
X141500538Y-123225961D01*
X141500535Y-123225965D01*
X141401990Y-123373446D01*
X141401983Y-123373459D01*
X141334106Y-123537332D01*
X141334103Y-123537341D01*
X141299500Y-123711304D01*
X139085500Y-123711304D01*
X139085500Y-123619234D01*
X139046281Y-123472865D01*
X138970515Y-123341635D01*
X138863365Y-123234485D01*
X138780087Y-123186404D01*
X138732136Y-123158719D01*
X138627584Y-123130705D01*
X138585766Y-123119500D01*
X138434234Y-123119500D01*
X138287862Y-123158719D01*
X138266499Y-123171054D01*
X138198598Y-123187525D01*
X138132572Y-123164673D01*
X138089382Y-123109751D01*
X138080500Y-123063666D01*
X138080500Y-122546456D01*
X138042052Y-122353170D01*
X138042051Y-122353169D01*
X138042051Y-122353165D01*
X138042049Y-122353160D01*
X137966635Y-122171092D01*
X137966628Y-122171079D01*
X137857139Y-122007218D01*
X137857136Y-122007214D01*
X137717785Y-121867863D01*
X137717781Y-121867860D01*
X137553920Y-121758371D01*
X137553907Y-121758364D01*
X137371839Y-121682950D01*
X137371829Y-121682947D01*
X137178543Y-121644500D01*
X137178541Y-121644500D01*
X136981459Y-121644500D01*
X136981457Y-121644500D01*
X136788170Y-121682947D01*
X136788160Y-121682950D01*
X136606092Y-121758364D01*
X136606079Y-121758371D01*
X136442218Y-121867860D01*
X136442214Y-121867863D01*
X136302863Y-122007214D01*
X136302860Y-122007218D01*
X136193371Y-122171079D01*
X136193364Y-122171092D01*
X136117950Y-122353160D01*
X136117947Y-122353170D01*
X136079500Y-122546456D01*
X136079500Y-122546459D01*
X136079500Y-123843541D01*
X136079500Y-123843543D01*
X136079499Y-123843543D01*
X126516205Y-123843543D01*
X126488386Y-123751836D01*
X126349247Y-123415924D01*
X126227165Y-123187525D01*
X126177859Y-123095279D01*
X126177858Y-123095277D01*
X126177853Y-123095268D01*
X125975854Y-122792956D01*
X125745197Y-122511899D01*
X125745196Y-122511898D01*
X125745192Y-122511893D01*
X125488106Y-122254807D01*
X125207049Y-122024150D01*
X125207048Y-122024149D01*
X125207044Y-122024146D01*
X124904732Y-121822147D01*
X124904727Y-121822144D01*
X124904720Y-121822140D01*
X124584083Y-121650756D01*
X124584078Y-121650754D01*
X124248165Y-121511614D01*
X123900223Y-121406067D01*
X123900212Y-121406064D01*
X123543630Y-121335137D01*
X123477455Y-121328620D01*
X123357218Y-121316777D01*
X123181794Y-121299500D01*
X122818206Y-121299500D01*
X122735679Y-121307628D01*
X122456369Y-121335137D01*
X122099787Y-121406064D01*
X122099776Y-121406067D01*
X121751834Y-121511614D01*
X121415921Y-121650754D01*
X121415916Y-121650756D01*
X121095279Y-121822140D01*
X121095261Y-121822151D01*
X120792964Y-122024140D01*
X120792950Y-122024150D01*
X120511893Y-122254807D01*
X120254807Y-122511893D01*
X120024150Y-122792950D01*
X120024140Y-122792964D01*
X119822151Y-123095261D01*
X119822140Y-123095279D01*
X119650756Y-123415916D01*
X119650754Y-123415921D01*
X119511614Y-123751834D01*
X119406067Y-124099776D01*
X119406064Y-124099787D01*
X119335137Y-124456369D01*
X119299500Y-124818209D01*
X118500500Y-124818209D01*
X118500500Y-121211304D01*
X139299500Y-121211304D01*
X139299500Y-121388695D01*
X139334103Y-121562658D01*
X139334106Y-121562667D01*
X139401983Y-121726540D01*
X139401990Y-121726553D01*
X139500535Y-121874034D01*
X139500538Y-121874038D01*
X139625961Y-121999461D01*
X139625965Y-121999464D01*
X139773446Y-122098009D01*
X139773459Y-122098016D01*
X139896363Y-122148923D01*
X139937334Y-122165894D01*
X139937336Y-122165894D01*
X139937341Y-122165896D01*
X140111304Y-122200499D01*
X140111307Y-122200500D01*
X140111309Y-122200500D01*
X140288693Y-122200500D01*
X140288694Y-122200499D01*
X140346682Y-122188964D01*
X140462658Y-122165896D01*
X140462661Y-122165894D01*
X140462666Y-122165894D01*
X140626547Y-122098013D01*
X140774035Y-121999464D01*
X140899464Y-121874035D01*
X140998013Y-121726547D01*
X141065894Y-121562666D01*
X141085144Y-121465893D01*
X141098646Y-121398013D01*
X141100500Y-121388691D01*
X141100500Y-121211309D01*
X141090483Y-121160952D01*
X141096710Y-121091361D01*
X141124416Y-121049082D01*
X141199464Y-120974035D01*
X141298013Y-120826547D01*
X141363785Y-120667755D01*
X141407624Y-120613355D01*
X141473918Y-120591289D01*
X141541617Y-120608568D01*
X141589228Y-120659704D01*
X141599962Y-120691018D01*
X141634104Y-120862659D01*
X141634106Y-120862667D01*
X141701983Y-121026540D01*
X141701990Y-121026553D01*
X141800535Y-121174034D01*
X141800538Y-121174038D01*
X141925961Y-121299461D01*
X141925965Y-121299464D01*
X142073446Y-121398009D01*
X142073459Y-121398016D01*
X142196363Y-121448923D01*
X142237334Y-121465894D01*
X142237336Y-121465894D01*
X142237341Y-121465896D01*
X142411304Y-121500499D01*
X142411307Y-121500500D01*
X142411309Y-121500500D01*
X142588693Y-121500500D01*
X142588694Y-121500499D01*
X142646682Y-121488964D01*
X142762658Y-121465896D01*
X142762661Y-121465894D01*
X142762666Y-121465894D01*
X142902535Y-121407958D01*
X142926540Y-121398016D01*
X142926540Y-121398015D01*
X142926547Y-121398013D01*
X143074035Y-121299464D01*
X143199464Y-121174035D01*
X143298013Y-121026547D01*
X143365894Y-120862666D01*
X143365894Y-120862661D01*
X143365896Y-120862658D01*
X143400499Y-120688695D01*
X143400500Y-120688693D01*
X143400500Y-120511306D01*
X143400499Y-120511304D01*
X143365896Y-120337341D01*
X143365893Y-120337332D01*
X143354149Y-120308980D01*
X143339675Y-120274034D01*
X143298016Y-120173459D01*
X143298009Y-120173446D01*
X143199464Y-120025965D01*
X143199461Y-120025961D01*
X143074038Y-119900538D01*
X143074034Y-119900535D01*
X142926553Y-119801990D01*
X142926540Y-119801983D01*
X142762667Y-119734106D01*
X142762658Y-119734103D01*
X142588694Y-119699500D01*
X142588691Y-119699500D01*
X142411309Y-119699500D01*
X142411306Y-119699500D01*
X142237341Y-119734103D01*
X142237332Y-119734106D01*
X142073459Y-119801983D01*
X142073446Y-119801990D01*
X141925965Y-119900535D01*
X141925961Y-119900538D01*
X141800538Y-120025961D01*
X141800535Y-120025965D01*
X141701990Y-120173446D01*
X141701983Y-120173459D01*
X141636215Y-120332241D01*
X141592374Y-120386645D01*
X141526080Y-120408710D01*
X141458381Y-120391431D01*
X141410770Y-120340294D01*
X141400037Y-120308980D01*
X141365896Y-120137341D01*
X141365893Y-120137332D01*
X141298016Y-119973459D01*
X141298009Y-119973446D01*
X141199464Y-119825965D01*
X141199461Y-119825961D01*
X141074038Y-119700538D01*
X141074034Y-119700535D01*
X140926553Y-119601990D01*
X140926540Y-119601983D01*
X140762667Y-119534106D01*
X140762658Y-119534103D01*
X140588694Y-119499500D01*
X140588691Y-119499500D01*
X140411309Y-119499500D01*
X140411306Y-119499500D01*
X140237341Y-119534103D01*
X140237332Y-119534106D01*
X140073459Y-119601983D01*
X140073446Y-119601990D01*
X139925965Y-119700535D01*
X139925961Y-119700538D01*
X139800538Y-119825961D01*
X139800535Y-119825965D01*
X139701990Y-119973446D01*
X139701983Y-119973459D01*
X139634106Y-120137332D01*
X139634103Y-120137341D01*
X139599500Y-120311304D01*
X139599500Y-120311309D01*
X139599500Y-120488691D01*
X139599500Y-120488693D01*
X139599499Y-120488693D01*
X139609516Y-120539046D01*
X139603289Y-120608638D01*
X139575581Y-120650919D01*
X139500535Y-120725965D01*
X139401990Y-120873446D01*
X139401983Y-120873459D01*
X139334106Y-121037332D01*
X139334103Y-121037341D01*
X139299500Y-121211304D01*
X118500500Y-121211304D01*
X118500500Y-104418543D01*
X119324499Y-104418543D01*
X119362947Y-104611829D01*
X119362950Y-104611839D01*
X119438364Y-104793907D01*
X119438371Y-104793920D01*
X119547860Y-104957781D01*
X119547863Y-104957785D01*
X119687214Y-105097136D01*
X119687218Y-105097139D01*
X119851079Y-105206628D01*
X119851092Y-105206635D01*
X119986365Y-105262666D01*
X120033165Y-105282051D01*
X120033169Y-105282051D01*
X120033170Y-105282052D01*
X120226456Y-105320500D01*
X120226459Y-105320500D01*
X121023543Y-105320500D01*
X121153582Y-105294632D01*
X121216835Y-105282051D01*
X121398914Y-105206632D01*
X121562782Y-105097139D01*
X121702139Y-104957782D01*
X121811632Y-104793914D01*
X121887051Y-104611835D01*
X121904132Y-104525965D01*
X121925500Y-104418543D01*
X123254499Y-104418543D01*
X123292947Y-104611829D01*
X123292950Y-104611839D01*
X123368364Y-104793907D01*
X123368371Y-104793920D01*
X123477860Y-104957781D01*
X123477863Y-104957785D01*
X123617214Y-105097136D01*
X123617218Y-105097139D01*
X123781079Y-105206628D01*
X123781092Y-105206635D01*
X123916365Y-105262666D01*
X123963165Y-105282051D01*
X123963169Y-105282051D01*
X123963170Y-105282052D01*
X124156456Y-105320500D01*
X124156459Y-105320500D01*
X125453543Y-105320500D01*
X125583582Y-105294632D01*
X125646835Y-105282051D01*
X125828914Y-105206632D01*
X125992782Y-105097139D01*
X126132139Y-104957782D01*
X126241632Y-104793914D01*
X126317051Y-104611835D01*
X126334132Y-104525965D01*
X126355500Y-104418543D01*
X126355500Y-104221456D01*
X126317052Y-104028170D01*
X126317051Y-104028169D01*
X126317051Y-104028165D01*
X126317049Y-104028160D01*
X126241635Y-103846092D01*
X126241628Y-103846079D01*
X126132139Y-103682218D01*
X126132136Y-103682214D01*
X125992785Y-103542863D01*
X125992781Y-103542860D01*
X125828920Y-103433371D01*
X125828907Y-103433364D01*
X125646839Y-103357950D01*
X125646829Y-103357947D01*
X125453543Y-103319500D01*
X125453541Y-103319500D01*
X124936333Y-103319500D01*
X124869294Y-103299815D01*
X124823539Y-103247011D01*
X124813595Y-103177853D01*
X124828947Y-103133499D01*
X124841278Y-103112140D01*
X124841277Y-103112140D01*
X124841281Y-103112135D01*
X124880500Y-102965766D01*
X124880500Y-102814234D01*
X124841281Y-102667865D01*
X124765515Y-102536635D01*
X124658365Y-102429485D01*
X124552643Y-102368446D01*
X124527136Y-102353719D01*
X124452945Y-102333840D01*
X124380766Y-102314500D01*
X124229234Y-102314500D01*
X124082863Y-102353719D01*
X123951635Y-102429485D01*
X123951632Y-102429487D01*
X123844487Y-102536632D01*
X123844485Y-102536635D01*
X123768719Y-102667863D01*
X123729500Y-102814234D01*
X123729500Y-102965765D01*
X123768719Y-103112136D01*
X123804457Y-103174035D01*
X123844485Y-103243365D01*
X123844486Y-103243366D01*
X123848549Y-103250403D01*
X123846220Y-103251747D01*
X123866645Y-103304584D01*
X123852603Y-103373029D01*
X123803787Y-103423016D01*
X123790528Y-103429456D01*
X123781094Y-103433363D01*
X123781079Y-103433371D01*
X123617218Y-103542860D01*
X123617214Y-103542863D01*
X123477863Y-103682214D01*
X123477860Y-103682218D01*
X123368371Y-103846079D01*
X123368364Y-103846092D01*
X123292950Y-104028160D01*
X123292947Y-104028170D01*
X123254500Y-104221456D01*
X123254500Y-104221459D01*
X123254500Y-104418541D01*
X123254500Y-104418543D01*
X123254499Y-104418543D01*
X121925500Y-104418543D01*
X121925500Y-104221456D01*
X121887052Y-104028170D01*
X121887051Y-104028169D01*
X121887051Y-104028165D01*
X121887049Y-104028160D01*
X121811635Y-103846092D01*
X121811628Y-103846079D01*
X121702139Y-103682218D01*
X121702136Y-103682214D01*
X121562785Y-103542863D01*
X121562781Y-103542860D01*
X121398920Y-103433371D01*
X121398907Y-103433364D01*
X121216839Y-103357950D01*
X121216829Y-103357947D01*
X121023543Y-103319500D01*
X121023541Y-103319500D01*
X120226459Y-103319500D01*
X120226457Y-103319500D01*
X120033170Y-103357947D01*
X120033160Y-103357950D01*
X119851092Y-103433364D01*
X119851079Y-103433371D01*
X119687218Y-103542860D01*
X119687214Y-103542863D01*
X119547863Y-103682214D01*
X119547860Y-103682218D01*
X119438371Y-103846079D01*
X119438364Y-103846092D01*
X119362950Y-104028160D01*
X119362947Y-104028170D01*
X119324500Y-104221456D01*
X119324500Y-104221459D01*
X119324500Y-104418541D01*
X119324500Y-104418543D01*
X119324499Y-104418543D01*
X118500500Y-104418543D01*
X118500500Y-99436304D01*
X126499500Y-99436304D01*
X126499500Y-99613695D01*
X126534103Y-99787658D01*
X126534106Y-99787667D01*
X126601983Y-99951540D01*
X126601990Y-99951553D01*
X126700535Y-100099034D01*
X126700538Y-100099038D01*
X126825961Y-100224461D01*
X126825965Y-100224464D01*
X126973446Y-100323009D01*
X126973459Y-100323016D01*
X127068166Y-100362244D01*
X127137334Y-100390894D01*
X127137336Y-100390894D01*
X127137341Y-100390896D01*
X127311304Y-100425499D01*
X127311307Y-100425500D01*
X127394880Y-100425500D01*
X127461919Y-100445185D01*
X127507674Y-100497989D01*
X127517618Y-100567147D01*
X127488593Y-100630703D01*
X127442331Y-100664061D01*
X127439566Y-100665207D01*
X127428154Y-100669933D01*
X127428147Y-100669937D01*
X127280666Y-100768482D01*
X127280662Y-100768485D01*
X127155239Y-100893908D01*
X127155236Y-100893912D01*
X127056691Y-101041393D01*
X127056684Y-101041406D01*
X126988807Y-101205279D01*
X126988804Y-101205288D01*
X126954201Y-101379251D01*
X126954201Y-101556642D01*
X126988804Y-101730605D01*
X126988807Y-101730614D01*
X127056684Y-101894487D01*
X127056691Y-101894500D01*
X127155236Y-102041981D01*
X127155239Y-102041985D01*
X127280662Y-102167408D01*
X127280666Y-102167411D01*
X127428147Y-102265956D01*
X127428160Y-102265963D01*
X127545341Y-102314500D01*
X127592035Y-102333841D01*
X127592037Y-102333841D01*
X127592042Y-102333843D01*
X127766005Y-102368446D01*
X127766008Y-102368447D01*
X127766010Y-102368447D01*
X127943394Y-102368447D01*
X127943395Y-102368446D01*
X128017434Y-102353719D01*
X128117359Y-102333843D01*
X128117362Y-102333841D01*
X128117367Y-102333841D01*
X128281248Y-102265960D01*
X128428736Y-102167411D01*
X128554165Y-102041982D01*
X128652714Y-101894494D01*
X128720595Y-101730613D01*
X128755201Y-101556638D01*
X128755201Y-101379256D01*
X128755201Y-101379253D01*
X128755200Y-101379251D01*
X128720597Y-101205288D01*
X128720594Y-101205279D01*
X128652717Y-101041406D01*
X128652710Y-101041393D01*
X128554165Y-100893912D01*
X128554162Y-100893908D01*
X128428739Y-100768485D01*
X128428735Y-100768482D01*
X128281254Y-100669937D01*
X128281241Y-100669930D01*
X128117368Y-100602053D01*
X128117359Y-100602050D01*
X127943395Y-100567447D01*
X127943392Y-100567447D01*
X127859821Y-100567447D01*
X127792782Y-100547762D01*
X127747027Y-100494958D01*
X127737083Y-100425800D01*
X127766108Y-100362244D01*
X127812369Y-100328885D01*
X127826547Y-100323013D01*
X127974035Y-100224464D01*
X128099464Y-100099035D01*
X128198013Y-99951547D01*
X128265894Y-99787666D01*
X128300500Y-99613691D01*
X128300500Y-99436309D01*
X128300500Y-99436306D01*
X128300499Y-99436304D01*
X128265896Y-99262341D01*
X128265893Y-99262332D01*
X128198016Y-99098459D01*
X128198009Y-99098446D01*
X128099464Y-98950965D01*
X128099461Y-98950961D01*
X127974038Y-98825538D01*
X127974034Y-98825535D01*
X127826553Y-98726990D01*
X127826540Y-98726983D01*
X127662667Y-98659106D01*
X127662658Y-98659103D01*
X127488694Y-98624500D01*
X127488691Y-98624500D01*
X127311309Y-98624500D01*
X127311306Y-98624500D01*
X127137341Y-98659103D01*
X127137332Y-98659106D01*
X126973459Y-98726983D01*
X126973446Y-98726990D01*
X126825965Y-98825535D01*
X126825961Y-98825538D01*
X126700538Y-98950961D01*
X126700535Y-98950965D01*
X126601990Y-99098446D01*
X126601983Y-99098459D01*
X126534106Y-99262332D01*
X126534103Y-99262341D01*
X126499500Y-99436304D01*
X118500500Y-99436304D01*
X118500500Y-95778543D01*
X119324499Y-95778543D01*
X119362947Y-95971829D01*
X119362950Y-95971839D01*
X119438364Y-96153907D01*
X119438371Y-96153920D01*
X119547860Y-96317781D01*
X119547863Y-96317785D01*
X119687214Y-96457136D01*
X119687218Y-96457139D01*
X119851079Y-96566628D01*
X119851092Y-96566635D01*
X120033160Y-96642049D01*
X120033165Y-96642051D01*
X120033169Y-96642051D01*
X120033170Y-96642052D01*
X120226456Y-96680500D01*
X120226459Y-96680500D01*
X121023543Y-96680500D01*
X121179462Y-96649485D01*
X121216835Y-96642051D01*
X121398914Y-96566632D01*
X121562782Y-96457139D01*
X121702139Y-96317782D01*
X121811632Y-96153914D01*
X121887051Y-95971835D01*
X121925500Y-95778543D01*
X123254499Y-95778543D01*
X123292947Y-95971829D01*
X123292950Y-95971839D01*
X123368364Y-96153907D01*
X123368371Y-96153920D01*
X123477860Y-96317781D01*
X123477863Y-96317785D01*
X123617214Y-96457136D01*
X123617218Y-96457139D01*
X123781079Y-96566628D01*
X123781083Y-96566630D01*
X123781086Y-96566632D01*
X123790523Y-96570541D01*
X123844927Y-96614378D01*
X123866995Y-96680672D01*
X123849719Y-96748372D01*
X123846565Y-96753032D01*
X123768719Y-96887863D01*
X123729500Y-97034234D01*
X123729500Y-97185765D01*
X123768719Y-97332136D01*
X123806602Y-97397750D01*
X123844485Y-97463365D01*
X123951635Y-97570515D01*
X124082865Y-97646281D01*
X124229234Y-97685500D01*
X124229236Y-97685500D01*
X124380764Y-97685500D01*
X124380766Y-97685500D01*
X124527135Y-97646281D01*
X124658365Y-97570515D01*
X124765515Y-97463365D01*
X124841281Y-97332135D01*
X124880500Y-97185766D01*
X124880500Y-97034234D01*
X124841281Y-96887865D01*
X124841278Y-96887859D01*
X124828947Y-96866501D01*
X124812473Y-96798602D01*
X124835325Y-96732574D01*
X124890245Y-96689383D01*
X124936333Y-96680500D01*
X125453543Y-96680500D01*
X125609462Y-96649485D01*
X125646835Y-96642051D01*
X125828914Y-96566632D01*
X125992782Y-96457139D01*
X126132139Y-96317782D01*
X126241632Y-96153914D01*
X126317051Y-95971835D01*
X126355500Y-95778541D01*
X126355500Y-95581459D01*
X126355500Y-95581456D01*
X126317052Y-95388170D01*
X126317051Y-95388169D01*
X126317051Y-95388165D01*
X126265068Y-95262666D01*
X126241635Y-95206092D01*
X126241628Y-95206079D01*
X126132139Y-95042218D01*
X126132136Y-95042214D01*
X125992785Y-94902863D01*
X125992781Y-94902860D01*
X125828920Y-94793371D01*
X125828907Y-94793364D01*
X125646839Y-94717950D01*
X125646829Y-94717947D01*
X125453543Y-94679500D01*
X125453541Y-94679500D01*
X124156459Y-94679500D01*
X124156457Y-94679500D01*
X123963170Y-94717947D01*
X123963160Y-94717950D01*
X123781092Y-94793364D01*
X123781079Y-94793371D01*
X123617218Y-94902860D01*
X123617214Y-94902863D01*
X123477863Y-95042214D01*
X123477860Y-95042218D01*
X123368371Y-95206079D01*
X123368364Y-95206092D01*
X123292950Y-95388160D01*
X123292947Y-95388170D01*
X123254500Y-95581456D01*
X123254500Y-95581459D01*
X123254500Y-95778541D01*
X123254500Y-95778543D01*
X123254499Y-95778543D01*
X121925500Y-95778543D01*
X121925500Y-95778541D01*
X121925500Y-95581459D01*
X121925500Y-95581456D01*
X121887052Y-95388170D01*
X121887051Y-95388169D01*
X121887051Y-95388165D01*
X121835068Y-95262666D01*
X121811635Y-95206092D01*
X121811628Y-95206079D01*
X121702139Y-95042218D01*
X121702136Y-95042214D01*
X121562785Y-94902863D01*
X121562781Y-94902860D01*
X121398920Y-94793371D01*
X121398907Y-94793364D01*
X121216839Y-94717950D01*
X121216829Y-94717947D01*
X121023543Y-94679500D01*
X121023541Y-94679500D01*
X120226459Y-94679500D01*
X120226457Y-94679500D01*
X120033170Y-94717947D01*
X120033160Y-94717950D01*
X119851092Y-94793364D01*
X119851079Y-94793371D01*
X119687218Y-94902860D01*
X119687214Y-94902863D01*
X119547863Y-95042214D01*
X119547860Y-95042218D01*
X119438371Y-95206079D01*
X119438364Y-95206092D01*
X119362950Y-95388160D01*
X119362947Y-95388170D01*
X119324500Y-95581456D01*
X119324500Y-95581459D01*
X119324500Y-95778541D01*
X119324500Y-95778543D01*
X119324499Y-95778543D01*
X118500500Y-95778543D01*
X118500500Y-93711304D01*
X128699500Y-93711304D01*
X128699500Y-93888695D01*
X128734103Y-94062658D01*
X128734106Y-94062667D01*
X128801983Y-94226540D01*
X128801990Y-94226553D01*
X128900535Y-94374034D01*
X128900538Y-94374038D01*
X129025961Y-94499461D01*
X129025965Y-94499464D01*
X129173446Y-94598009D01*
X129173459Y-94598016D01*
X129296363Y-94648923D01*
X129337334Y-94665894D01*
X129337336Y-94665894D01*
X129337341Y-94665896D01*
X129511304Y-94700499D01*
X129511307Y-94700500D01*
X129511309Y-94700500D01*
X129688693Y-94700500D01*
X129688694Y-94700499D01*
X129746682Y-94688964D01*
X129862658Y-94665896D01*
X129862661Y-94665894D01*
X129862666Y-94665894D01*
X130026547Y-94598013D01*
X130174035Y-94499464D01*
X130299464Y-94374035D01*
X130398013Y-94226547D01*
X130465894Y-94062666D01*
X130474282Y-94020500D01*
X130500499Y-93888695D01*
X130500500Y-93888693D01*
X130500500Y-93711306D01*
X130500499Y-93711304D01*
X130465896Y-93537341D01*
X130465893Y-93537332D01*
X130398016Y-93373459D01*
X130398009Y-93373446D01*
X130299464Y-93225965D01*
X130299461Y-93225961D01*
X130174038Y-93100538D01*
X130174034Y-93100535D01*
X130026553Y-93001990D01*
X130026540Y-93001983D01*
X129862667Y-92934106D01*
X129862658Y-92934103D01*
X129688694Y-92899500D01*
X129688691Y-92899500D01*
X129511309Y-92899500D01*
X129511306Y-92899500D01*
X129337341Y-92934103D01*
X129337332Y-92934106D01*
X129173459Y-93001983D01*
X129173446Y-93001990D01*
X129025965Y-93100535D01*
X129025961Y-93100538D01*
X128900538Y-93225961D01*
X128900535Y-93225965D01*
X128801990Y-93373446D01*
X128801983Y-93373459D01*
X128734106Y-93537332D01*
X128734103Y-93537341D01*
X128699500Y-93711304D01*
X118500500Y-93711304D01*
X118500500Y-75002706D01*
X118500618Y-74997297D01*
X118508437Y-74818206D01*
X119299500Y-74818206D01*
X119299500Y-75181794D01*
X119308027Y-75268368D01*
X119335137Y-75543630D01*
X119406064Y-75900212D01*
X119406067Y-75900223D01*
X119511614Y-76248165D01*
X119650754Y-76584078D01*
X119650756Y-76584083D01*
X119822140Y-76904720D01*
X119822151Y-76904738D01*
X120024140Y-77207035D01*
X120024150Y-77207049D01*
X120254807Y-77488106D01*
X120511893Y-77745192D01*
X120511898Y-77745196D01*
X120511899Y-77745197D01*
X120792956Y-77975854D01*
X121095268Y-78177853D01*
X121095277Y-78177858D01*
X121095279Y-78177859D01*
X121415916Y-78349243D01*
X121415918Y-78349243D01*
X121415924Y-78349247D01*
X121751836Y-78488386D01*
X122099767Y-78593930D01*
X122099773Y-78593931D01*
X122099776Y-78593932D01*
X122099787Y-78593935D01*
X122456369Y-78664862D01*
X122818206Y-78700500D01*
X122818209Y-78700500D01*
X123181791Y-78700500D01*
X123181794Y-78700500D01*
X123543631Y-78664862D01*
X123613045Y-78651054D01*
X123900212Y-78593935D01*
X123900223Y-78593932D01*
X123900223Y-78593931D01*
X123900233Y-78593930D01*
X124248164Y-78488386D01*
X124584076Y-78349247D01*
X124904732Y-78177853D01*
X125207044Y-77975854D01*
X125488101Y-77745197D01*
X125739755Y-77493543D01*
X132079499Y-77493543D01*
X132117947Y-77686829D01*
X132117950Y-77686839D01*
X132193364Y-77868907D01*
X132193371Y-77868920D01*
X132302860Y-78032781D01*
X132302863Y-78032785D01*
X132442214Y-78172136D01*
X132442218Y-78172139D01*
X132606079Y-78281628D01*
X132606092Y-78281635D01*
X132769324Y-78349247D01*
X132788165Y-78357051D01*
X132788169Y-78357051D01*
X132788170Y-78357052D01*
X132981456Y-78395500D01*
X132981459Y-78395500D01*
X133178543Y-78395500D01*
X133308582Y-78369632D01*
X133371835Y-78357051D01*
X133553914Y-78281632D01*
X133717782Y-78172139D01*
X133857139Y-78032782D01*
X133966632Y-77868914D01*
X134042051Y-77686835D01*
X134080500Y-77493541D01*
X134080500Y-76976333D01*
X134100185Y-76909294D01*
X134152989Y-76863539D01*
X134222147Y-76853595D01*
X134266501Y-76868947D01*
X134287859Y-76881278D01*
X134287860Y-76881278D01*
X134287865Y-76881281D01*
X134434234Y-76920500D01*
X134434236Y-76920500D01*
X134585764Y-76920500D01*
X134585766Y-76920500D01*
X134732135Y-76881281D01*
X134863365Y-76805515D01*
X134970515Y-76698365D01*
X135046281Y-76567135D01*
X135085500Y-76420766D01*
X135085500Y-76269234D01*
X139714500Y-76269234D01*
X139714500Y-76420765D01*
X139753719Y-76567136D01*
X139763500Y-76584076D01*
X139829485Y-76698365D01*
X139936635Y-76805515D01*
X140019912Y-76853595D01*
X140067861Y-76881279D01*
X140067865Y-76881281D01*
X140214234Y-76920500D01*
X140214236Y-76920500D01*
X140365764Y-76920500D01*
X140365766Y-76920500D01*
X140512135Y-76881281D01*
X140522451Y-76875325D01*
X140533499Y-76868947D01*
X140601398Y-76852473D01*
X140667426Y-76875325D01*
X140710617Y-76930245D01*
X140719500Y-76976333D01*
X140719500Y-77493541D01*
X140719500Y-77493543D01*
X140719499Y-77493543D01*
X140757947Y-77686829D01*
X140757950Y-77686839D01*
X140833364Y-77868907D01*
X140833371Y-77868920D01*
X140942860Y-78032781D01*
X140942863Y-78032785D01*
X141082214Y-78172136D01*
X141082218Y-78172139D01*
X141246079Y-78281628D01*
X141246092Y-78281635D01*
X141409324Y-78349247D01*
X141428165Y-78357051D01*
X141428169Y-78357051D01*
X141428170Y-78357052D01*
X141621456Y-78395500D01*
X141621459Y-78395500D01*
X141818543Y-78395500D01*
X141948582Y-78369632D01*
X142011835Y-78357051D01*
X142193914Y-78281632D01*
X142357782Y-78172139D01*
X142497139Y-78032782D01*
X142606632Y-77868914D01*
X142682051Y-77686835D01*
X142720500Y-77493541D01*
X142720500Y-77353543D01*
X147179499Y-77353543D01*
X147217947Y-77546829D01*
X147217950Y-77546839D01*
X147293364Y-77728907D01*
X147293371Y-77728920D01*
X147402860Y-77892781D01*
X147402863Y-77892785D01*
X147542214Y-78032136D01*
X147542218Y-78032139D01*
X147706079Y-78141628D01*
X147706092Y-78141635D01*
X147793546Y-78177859D01*
X147888165Y-78217051D01*
X147888169Y-78217051D01*
X147888170Y-78217052D01*
X148081456Y-78255500D01*
X148081459Y-78255500D01*
X148278543Y-78255500D01*
X148408582Y-78229632D01*
X148471835Y-78217051D01*
X148653914Y-78141632D01*
X148817782Y-78032139D01*
X148957139Y-77892782D01*
X149066632Y-77728914D01*
X149142051Y-77546835D01*
X149180500Y-77353541D01*
X149180500Y-76836333D01*
X149200185Y-76769294D01*
X149252989Y-76723539D01*
X149322147Y-76713595D01*
X149366501Y-76728947D01*
X149387859Y-76741278D01*
X149387860Y-76741278D01*
X149387865Y-76741281D01*
X149534234Y-76780500D01*
X149534236Y-76780500D01*
X149685764Y-76780500D01*
X149685766Y-76780500D01*
X149832135Y-76741281D01*
X149963365Y-76665515D01*
X150070515Y-76558365D01*
X150146281Y-76427135D01*
X150185500Y-76280766D01*
X150185500Y-76129234D01*
X154814500Y-76129234D01*
X154814500Y-76280765D01*
X154853719Y-76427136D01*
X154891602Y-76492750D01*
X154929485Y-76558365D01*
X155036635Y-76665515D01*
X155119912Y-76713595D01*
X155167861Y-76741279D01*
X155167865Y-76741281D01*
X155314234Y-76780500D01*
X155314236Y-76780500D01*
X155465764Y-76780500D01*
X155465766Y-76780500D01*
X155612135Y-76741281D01*
X155622451Y-76735325D01*
X155633499Y-76728947D01*
X155701398Y-76712473D01*
X155767426Y-76735325D01*
X155810617Y-76790245D01*
X155819500Y-76836333D01*
X155819500Y-77353541D01*
X155819500Y-77353543D01*
X155819499Y-77353543D01*
X155857947Y-77546829D01*
X155857950Y-77546839D01*
X155933364Y-77728907D01*
X155933371Y-77728920D01*
X156042860Y-77892781D01*
X156042863Y-77892785D01*
X156182214Y-78032136D01*
X156182218Y-78032139D01*
X156346079Y-78141628D01*
X156346092Y-78141635D01*
X156433546Y-78177859D01*
X156528165Y-78217051D01*
X156528169Y-78217051D01*
X156528170Y-78217052D01*
X156721456Y-78255500D01*
X156721459Y-78255500D01*
X156918543Y-78255500D01*
X157048582Y-78229632D01*
X157111835Y-78217051D01*
X157293914Y-78141632D01*
X157457782Y-78032139D01*
X157597139Y-77892782D01*
X157706632Y-77728914D01*
X157782051Y-77546835D01*
X157820500Y-77353541D01*
X157820500Y-76056459D01*
X157820500Y-76056456D01*
X157782052Y-75863170D01*
X157782051Y-75863169D01*
X157782051Y-75863165D01*
X157774016Y-75843766D01*
X157706635Y-75681092D01*
X157706628Y-75681079D01*
X157597139Y-75517218D01*
X157597136Y-75517214D01*
X157457785Y-75377863D01*
X157457781Y-75377860D01*
X157293920Y-75268371D01*
X157293907Y-75268364D01*
X157111839Y-75192950D01*
X157111829Y-75192947D01*
X156918543Y-75154500D01*
X156918541Y-75154500D01*
X156721459Y-75154500D01*
X156721457Y-75154500D01*
X156528170Y-75192947D01*
X156528160Y-75192950D01*
X156346092Y-75268364D01*
X156346079Y-75268371D01*
X156182218Y-75377860D01*
X156182214Y-75377863D01*
X156042863Y-75517214D01*
X156042860Y-75517218D01*
X155933371Y-75681079D01*
X155933363Y-75681094D01*
X155929456Y-75690528D01*
X155885615Y-75744931D01*
X155819320Y-75766995D01*
X155751621Y-75749715D01*
X155746968Y-75746566D01*
X155743366Y-75744486D01*
X155743365Y-75744485D01*
X155649899Y-75690522D01*
X155612136Y-75668719D01*
X155538950Y-75649109D01*
X155465766Y-75629500D01*
X155314234Y-75629500D01*
X155167863Y-75668719D01*
X155036635Y-75744485D01*
X155036632Y-75744487D01*
X154929487Y-75851632D01*
X154929485Y-75851635D01*
X154853719Y-75982863D01*
X154814500Y-76129234D01*
X150185500Y-76129234D01*
X150146281Y-75982865D01*
X150070515Y-75851635D01*
X149963365Y-75744485D01*
X149892838Y-75703766D01*
X149832136Y-75668719D01*
X149758950Y-75649109D01*
X149685766Y-75629500D01*
X149534234Y-75629500D01*
X149387863Y-75668719D01*
X149296428Y-75721510D01*
X149256635Y-75744485D01*
X149256633Y-75744486D01*
X149249597Y-75748549D01*
X149248254Y-75746224D01*
X149195391Y-75766647D01*
X149126949Y-75752592D01*
X149076971Y-75703766D01*
X149070540Y-75690522D01*
X149066632Y-75681087D01*
X149066628Y-75681079D01*
X148957139Y-75517218D01*
X148957136Y-75517214D01*
X148817785Y-75377863D01*
X148817781Y-75377860D01*
X148653920Y-75268371D01*
X148653907Y-75268364D01*
X148471839Y-75192950D01*
X148471829Y-75192947D01*
X148278543Y-75154500D01*
X148278541Y-75154500D01*
X148081459Y-75154500D01*
X148081457Y-75154500D01*
X147888170Y-75192947D01*
X147888160Y-75192950D01*
X147706092Y-75268364D01*
X147706079Y-75268371D01*
X147542218Y-75377860D01*
X147542214Y-75377863D01*
X147402863Y-75517214D01*
X147402860Y-75517218D01*
X147293371Y-75681079D01*
X147293364Y-75681092D01*
X147217950Y-75863160D01*
X147217947Y-75863170D01*
X147179500Y-76056456D01*
X147179500Y-76056459D01*
X147179500Y-77353541D01*
X147179500Y-77353543D01*
X147179499Y-77353543D01*
X142720500Y-77353543D01*
X142720500Y-76196459D01*
X142720500Y-76196456D01*
X142720499Y-76196454D01*
X142696253Y-76074558D01*
X142682052Y-76003170D01*
X142682051Y-76003169D01*
X142682051Y-76003165D01*
X142673642Y-75982863D01*
X142606635Y-75821092D01*
X142606628Y-75821079D01*
X142497139Y-75657218D01*
X142497136Y-75657214D01*
X142357785Y-75517863D01*
X142357781Y-75517860D01*
X142193920Y-75408371D01*
X142193907Y-75408364D01*
X142011839Y-75332950D01*
X142011829Y-75332947D01*
X141818543Y-75294500D01*
X141818541Y-75294500D01*
X141621459Y-75294500D01*
X141621457Y-75294500D01*
X141428170Y-75332947D01*
X141428160Y-75332950D01*
X141246092Y-75408364D01*
X141246079Y-75408371D01*
X141082218Y-75517860D01*
X141082214Y-75517863D01*
X140942863Y-75657214D01*
X140942860Y-75657218D01*
X140833371Y-75821079D01*
X140833363Y-75821094D01*
X140829456Y-75830528D01*
X140785615Y-75884931D01*
X140719320Y-75906995D01*
X140651621Y-75889715D01*
X140646968Y-75886566D01*
X140643366Y-75884486D01*
X140643365Y-75884485D01*
X140549899Y-75830522D01*
X140512136Y-75808719D01*
X140438950Y-75789109D01*
X140365766Y-75769500D01*
X140214234Y-75769500D01*
X140067863Y-75808719D01*
X139936635Y-75884485D01*
X139936632Y-75884487D01*
X139829487Y-75991632D01*
X139829485Y-75991635D01*
X139753719Y-76122863D01*
X139714500Y-76269234D01*
X135085500Y-76269234D01*
X135046281Y-76122865D01*
X134970515Y-75991635D01*
X134863365Y-75884485D01*
X134792838Y-75843766D01*
X134732136Y-75808719D01*
X134658950Y-75789109D01*
X134585766Y-75769500D01*
X134434234Y-75769500D01*
X134287863Y-75808719D01*
X134196428Y-75861510D01*
X134156635Y-75884485D01*
X134156633Y-75884486D01*
X134149597Y-75888549D01*
X134148254Y-75886224D01*
X134095391Y-75906647D01*
X134026949Y-75892592D01*
X133976971Y-75843766D01*
X133970540Y-75830522D01*
X133966632Y-75821087D01*
X133966628Y-75821079D01*
X133857139Y-75657218D01*
X133857136Y-75657214D01*
X133717785Y-75517863D01*
X133717781Y-75517860D01*
X133553920Y-75408371D01*
X133553907Y-75408364D01*
X133371839Y-75332950D01*
X133371829Y-75332947D01*
X133178543Y-75294500D01*
X133178541Y-75294500D01*
X132981459Y-75294500D01*
X132981457Y-75294500D01*
X132788170Y-75332947D01*
X132788160Y-75332950D01*
X132606092Y-75408364D01*
X132606079Y-75408371D01*
X132442218Y-75517860D01*
X132442214Y-75517863D01*
X132302863Y-75657214D01*
X132302860Y-75657218D01*
X132193371Y-75821079D01*
X132193364Y-75821092D01*
X132117950Y-76003160D01*
X132117947Y-76003170D01*
X132079500Y-76196456D01*
X132079500Y-76196459D01*
X132079500Y-77493541D01*
X132079500Y-77493543D01*
X132079499Y-77493543D01*
X125739755Y-77493543D01*
X125745197Y-77488101D01*
X125975854Y-77207044D01*
X126177853Y-76904732D01*
X126349247Y-76584076D01*
X126488386Y-76248164D01*
X126593930Y-75900233D01*
X126593932Y-75900223D01*
X126593935Y-75900212D01*
X126664862Y-75543630D01*
X126678184Y-75408368D01*
X126700500Y-75181794D01*
X126700500Y-74818206D01*
X169299500Y-74818206D01*
X169299500Y-75181794D01*
X169308027Y-75268368D01*
X169335137Y-75543630D01*
X169406064Y-75900212D01*
X169406067Y-75900223D01*
X169511614Y-76248165D01*
X169650754Y-76584078D01*
X169650756Y-76584083D01*
X169822140Y-76904720D01*
X169822151Y-76904738D01*
X170024140Y-77207035D01*
X170024150Y-77207049D01*
X170254807Y-77488106D01*
X170511893Y-77745192D01*
X170511898Y-77745196D01*
X170511899Y-77745197D01*
X170792956Y-77975854D01*
X171095268Y-78177853D01*
X171095277Y-78177858D01*
X171095279Y-78177859D01*
X171415916Y-78349243D01*
X171415918Y-78349243D01*
X171415924Y-78349247D01*
X171751836Y-78488386D01*
X172099767Y-78593930D01*
X172099773Y-78593931D01*
X172099776Y-78593932D01*
X172099787Y-78593935D01*
X172456369Y-78664862D01*
X172818206Y-78700500D01*
X172818209Y-78700500D01*
X173181791Y-78700500D01*
X173181794Y-78700500D01*
X173543631Y-78664862D01*
X173613045Y-78651054D01*
X173900212Y-78593935D01*
X173900223Y-78593932D01*
X173900223Y-78593931D01*
X173900233Y-78593930D01*
X174248164Y-78488386D01*
X174584076Y-78349247D01*
X174904732Y-78177853D01*
X175207044Y-77975854D01*
X175488101Y-77745197D01*
X175745197Y-77488101D01*
X175975854Y-77207044D01*
X176177853Y-76904732D01*
X176349247Y-76584076D01*
X176488386Y-76248164D01*
X176593930Y-75900233D01*
X176593932Y-75900223D01*
X176593935Y-75900212D01*
X176664862Y-75543630D01*
X176678184Y-75408368D01*
X176700500Y-75181794D01*
X176700500Y-74818206D01*
X176664862Y-74456369D01*
X176593935Y-74099787D01*
X176593932Y-74099776D01*
X176593931Y-74099773D01*
X176593930Y-74099767D01*
X176488386Y-73751836D01*
X176349247Y-73415924D01*
X176264214Y-73256839D01*
X176177859Y-73095279D01*
X176177858Y-73095277D01*
X176177853Y-73095268D01*
X175975854Y-72792956D01*
X175745197Y-72511899D01*
X175745196Y-72511898D01*
X175745192Y-72511893D01*
X175488106Y-72254807D01*
X175207049Y-72024150D01*
X175207048Y-72024149D01*
X175207044Y-72024146D01*
X174904732Y-71822147D01*
X174904727Y-71822144D01*
X174904720Y-71822140D01*
X174584083Y-71650756D01*
X174584078Y-71650754D01*
X174248165Y-71511614D01*
X173900223Y-71406067D01*
X173900212Y-71406064D01*
X173543630Y-71335137D01*
X173271111Y-71308296D01*
X173181794Y-71299500D01*
X172818206Y-71299500D01*
X172735679Y-71307628D01*
X172456369Y-71335137D01*
X172099787Y-71406064D01*
X172099776Y-71406067D01*
X171751834Y-71511614D01*
X171415921Y-71650754D01*
X171415916Y-71650756D01*
X171095279Y-71822140D01*
X171095261Y-71822151D01*
X170792964Y-72024140D01*
X170792950Y-72024150D01*
X170511893Y-72254807D01*
X170254807Y-72511893D01*
X170024150Y-72792950D01*
X170024140Y-72792964D01*
X169822151Y-73095261D01*
X169822140Y-73095279D01*
X169650756Y-73415916D01*
X169650754Y-73415921D01*
X169511614Y-73751834D01*
X169406067Y-74099776D01*
X169406064Y-74099787D01*
X169335137Y-74456369D01*
X169319686Y-74613250D01*
X169299500Y-74818206D01*
X126700500Y-74818206D01*
X126664862Y-74456369D01*
X126593935Y-74099787D01*
X126593932Y-74099776D01*
X126593931Y-74099773D01*
X126593930Y-74099767D01*
X126488386Y-73751836D01*
X126349247Y-73415924D01*
X126264214Y-73256839D01*
X126177859Y-73095279D01*
X126177858Y-73095277D01*
X126177853Y-73095268D01*
X126156655Y-73063543D01*
X132079499Y-73063543D01*
X132117947Y-73256829D01*
X132117950Y-73256839D01*
X132193364Y-73438907D01*
X132193371Y-73438920D01*
X132302860Y-73602781D01*
X132302863Y-73602785D01*
X132442214Y-73742136D01*
X132442218Y-73742139D01*
X132606079Y-73851628D01*
X132606092Y-73851635D01*
X132788160Y-73927049D01*
X132788165Y-73927051D01*
X132788169Y-73927051D01*
X132788170Y-73927052D01*
X132981456Y-73965500D01*
X132981459Y-73965500D01*
X133178543Y-73965500D01*
X133308582Y-73939632D01*
X133371835Y-73927051D01*
X133553914Y-73851632D01*
X133717782Y-73742139D01*
X133857139Y-73602782D01*
X133966632Y-73438914D01*
X134042051Y-73256835D01*
X134072566Y-73103427D01*
X134080500Y-73063543D01*
X140719499Y-73063543D01*
X140757947Y-73256829D01*
X140757950Y-73256839D01*
X140833364Y-73438907D01*
X140833371Y-73438920D01*
X140942860Y-73602781D01*
X140942863Y-73602785D01*
X141082214Y-73742136D01*
X141082218Y-73742139D01*
X141246079Y-73851628D01*
X141246092Y-73851635D01*
X141428160Y-73927049D01*
X141428165Y-73927051D01*
X141428169Y-73927051D01*
X141428170Y-73927052D01*
X141621456Y-73965500D01*
X141621459Y-73965500D01*
X141818543Y-73965500D01*
X141948582Y-73939632D01*
X142011835Y-73927051D01*
X142193914Y-73851632D01*
X142357782Y-73742139D01*
X142497139Y-73602782D01*
X142606632Y-73438914D01*
X142682051Y-73256835D01*
X142712566Y-73103427D01*
X142720500Y-73063543D01*
X142720500Y-72923543D01*
X147179499Y-72923543D01*
X147217947Y-73116829D01*
X147217950Y-73116839D01*
X147293364Y-73298907D01*
X147293371Y-73298920D01*
X147402860Y-73462781D01*
X147402863Y-73462785D01*
X147542214Y-73602136D01*
X147542218Y-73602139D01*
X147706079Y-73711628D01*
X147706092Y-73711635D01*
X147888160Y-73787049D01*
X147888165Y-73787051D01*
X147888169Y-73787051D01*
X147888170Y-73787052D01*
X148081456Y-73825500D01*
X148081459Y-73825500D01*
X148278543Y-73825500D01*
X148408582Y-73799632D01*
X148471835Y-73787051D01*
X148653914Y-73711632D01*
X148817782Y-73602139D01*
X148957139Y-73462782D01*
X149066632Y-73298914D01*
X149142051Y-73116835D01*
X149180500Y-72923543D01*
X155819499Y-72923543D01*
X155857947Y-73116829D01*
X155857950Y-73116839D01*
X155933364Y-73298907D01*
X155933371Y-73298920D01*
X156042860Y-73462781D01*
X156042863Y-73462785D01*
X156182214Y-73602136D01*
X156182218Y-73602139D01*
X156346079Y-73711628D01*
X156346092Y-73711635D01*
X156528160Y-73787049D01*
X156528165Y-73787051D01*
X156528169Y-73787051D01*
X156528170Y-73787052D01*
X156721456Y-73825500D01*
X156721459Y-73825500D01*
X156918543Y-73825500D01*
X157048582Y-73799632D01*
X157111835Y-73787051D01*
X157293914Y-73711632D01*
X157457782Y-73602139D01*
X157597139Y-73462782D01*
X157706632Y-73298914D01*
X157782051Y-73116835D01*
X157820500Y-72923541D01*
X157820500Y-72126459D01*
X157820500Y-72126456D01*
X157782052Y-71933170D01*
X157782051Y-71933169D01*
X157782051Y-71933165D01*
X157764624Y-71891092D01*
X157706635Y-71751092D01*
X157706628Y-71751079D01*
X157597139Y-71587218D01*
X157597136Y-71587214D01*
X157457785Y-71447863D01*
X157457781Y-71447860D01*
X157293920Y-71338371D01*
X157293907Y-71338364D01*
X157111839Y-71262950D01*
X157111829Y-71262947D01*
X156918543Y-71224500D01*
X156918541Y-71224500D01*
X156721459Y-71224500D01*
X156721457Y-71224500D01*
X156528170Y-71262947D01*
X156528160Y-71262950D01*
X156346092Y-71338364D01*
X156346079Y-71338371D01*
X156182218Y-71447860D01*
X156182214Y-71447863D01*
X156042863Y-71587214D01*
X156042860Y-71587218D01*
X155933371Y-71751079D01*
X155933364Y-71751092D01*
X155857950Y-71933160D01*
X155857947Y-71933170D01*
X155819500Y-72126456D01*
X155819500Y-72126459D01*
X155819500Y-72923541D01*
X155819500Y-72923543D01*
X155819499Y-72923543D01*
X149180500Y-72923543D01*
X149180500Y-72923541D01*
X149180500Y-72126459D01*
X149180500Y-72126456D01*
X149142052Y-71933170D01*
X149142051Y-71933169D01*
X149142051Y-71933165D01*
X149124624Y-71891092D01*
X149066635Y-71751092D01*
X149066628Y-71751079D01*
X148957139Y-71587218D01*
X148957136Y-71587214D01*
X148817785Y-71447863D01*
X148817781Y-71447860D01*
X148653920Y-71338371D01*
X148653907Y-71338364D01*
X148471839Y-71262950D01*
X148471829Y-71262947D01*
X148278543Y-71224500D01*
X148278541Y-71224500D01*
X148081459Y-71224500D01*
X148081457Y-71224500D01*
X147888170Y-71262947D01*
X147888160Y-71262950D01*
X147706092Y-71338364D01*
X147706079Y-71338371D01*
X147542218Y-71447860D01*
X147542214Y-71447863D01*
X147402863Y-71587214D01*
X147402860Y-71587218D01*
X147293371Y-71751079D01*
X147293364Y-71751092D01*
X147217950Y-71933160D01*
X147217947Y-71933170D01*
X147179500Y-72126456D01*
X147179500Y-72126459D01*
X147179500Y-72923541D01*
X147179500Y-72923543D01*
X147179499Y-72923543D01*
X142720500Y-72923543D01*
X142720500Y-72266456D01*
X142720499Y-72266454D01*
X142696253Y-72144558D01*
X142682052Y-72073170D01*
X142682051Y-72073169D01*
X142682051Y-72073165D01*
X142682049Y-72073160D01*
X142606635Y-71891092D01*
X142606628Y-71891079D01*
X142497139Y-71727218D01*
X142497136Y-71727214D01*
X142357785Y-71587863D01*
X142357781Y-71587860D01*
X142193920Y-71478371D01*
X142193907Y-71478364D01*
X142011839Y-71402950D01*
X142011829Y-71402947D01*
X141818543Y-71364500D01*
X141818541Y-71364500D01*
X141621459Y-71364500D01*
X141621457Y-71364500D01*
X141428170Y-71402947D01*
X141428160Y-71402950D01*
X141246092Y-71478364D01*
X141246079Y-71478371D01*
X141082218Y-71587860D01*
X141082214Y-71587863D01*
X140942863Y-71727214D01*
X140942860Y-71727218D01*
X140833371Y-71891079D01*
X140833364Y-71891092D01*
X140757950Y-72073160D01*
X140757947Y-72073170D01*
X140719500Y-72266456D01*
X140719500Y-72266459D01*
X140719500Y-73063541D01*
X140719500Y-73063543D01*
X140719499Y-73063543D01*
X134080500Y-73063543D01*
X134080500Y-72266456D01*
X134042052Y-72073170D01*
X134042051Y-72073169D01*
X134042051Y-72073165D01*
X134042049Y-72073160D01*
X133966635Y-71891092D01*
X133966628Y-71891079D01*
X133857139Y-71727218D01*
X133857136Y-71727214D01*
X133717785Y-71587863D01*
X133717781Y-71587860D01*
X133553920Y-71478371D01*
X133553907Y-71478364D01*
X133371839Y-71402950D01*
X133371829Y-71402947D01*
X133178543Y-71364500D01*
X133178541Y-71364500D01*
X132981459Y-71364500D01*
X132981457Y-71364500D01*
X132788170Y-71402947D01*
X132788160Y-71402950D01*
X132606092Y-71478364D01*
X132606079Y-71478371D01*
X132442218Y-71587860D01*
X132442214Y-71587863D01*
X132302863Y-71727214D01*
X132302860Y-71727218D01*
X132193371Y-71891079D01*
X132193364Y-71891092D01*
X132117950Y-72073160D01*
X132117947Y-72073170D01*
X132079500Y-72266456D01*
X132079500Y-72266459D01*
X132079500Y-73063541D01*
X132079500Y-73063543D01*
X132079499Y-73063543D01*
X126156655Y-73063543D01*
X125975854Y-72792956D01*
X125745197Y-72511899D01*
X125745196Y-72511898D01*
X125745192Y-72511893D01*
X125488106Y-72254807D01*
X125207049Y-72024150D01*
X125207048Y-72024149D01*
X125207044Y-72024146D01*
X124904732Y-71822147D01*
X124904727Y-71822144D01*
X124904720Y-71822140D01*
X124584083Y-71650756D01*
X124584078Y-71650754D01*
X124248165Y-71511614D01*
X123900223Y-71406067D01*
X123900212Y-71406064D01*
X123543630Y-71335137D01*
X123271111Y-71308296D01*
X123181794Y-71299500D01*
X122818206Y-71299500D01*
X122735679Y-71307628D01*
X122456369Y-71335137D01*
X122099787Y-71406064D01*
X122099776Y-71406067D01*
X121751834Y-71511614D01*
X121415921Y-71650754D01*
X121415916Y-71650756D01*
X121095279Y-71822140D01*
X121095261Y-71822151D01*
X120792964Y-72024140D01*
X120792950Y-72024150D01*
X120511893Y-72254807D01*
X120254807Y-72511893D01*
X120024150Y-72792950D01*
X120024140Y-72792964D01*
X119822151Y-73095261D01*
X119822140Y-73095279D01*
X119650756Y-73415916D01*
X119650754Y-73415921D01*
X119511614Y-73751834D01*
X119406067Y-74099776D01*
X119406064Y-74099787D01*
X119335137Y-74456369D01*
X119319686Y-74613250D01*
X119299500Y-74818206D01*
X118508437Y-74818206D01*
X118508806Y-74809753D01*
X118508806Y-74809752D01*
X118517386Y-74613228D01*
X118518326Y-74602495D01*
X118568152Y-74224025D01*
X118570025Y-74213405D01*
X118652649Y-73840709D01*
X118655440Y-73830295D01*
X118770230Y-73466227D01*
X118773917Y-73456095D01*
X118920003Y-73103412D01*
X118924561Y-73093638D01*
X119100822Y-72755045D01*
X119106217Y-72745700D01*
X119311325Y-72423744D01*
X119317515Y-72414905D01*
X119549896Y-72112060D01*
X119556834Y-72103791D01*
X119814726Y-71822352D01*
X119822352Y-71814726D01*
X120103791Y-71556834D01*
X120112060Y-71549896D01*
X120414905Y-71317515D01*
X120423744Y-71311325D01*
X120745700Y-71106217D01*
X120755045Y-71100822D01*
X121093638Y-70924561D01*
X121103412Y-70920003D01*
X121456095Y-70773917D01*
X121466227Y-70770230D01*
X121830295Y-70655440D01*
X121840709Y-70652649D01*
X122213405Y-70570025D01*
X122224025Y-70568152D01*
X122602495Y-70518326D01*
X122613226Y-70517386D01*
X122997297Y-70500617D01*
X123002706Y-70500500D01*
X123065892Y-70500500D01*
X172934108Y-70500500D01*
X172997294Y-70500500D01*
X173002702Y-70500617D01*
G37*
%TD.AperFunction*%
%TD*%
%TA.AperFunction,Conductor*%
%TO.N,+3.3V*%
G36*
X157341920Y-90621155D02*
G01*
X157388991Y-90672789D01*
X157401522Y-90725624D01*
X157798218Y-123453009D01*
X157779347Y-123520282D01*
X157727102Y-123566674D01*
X157658069Y-123577455D01*
X157654811Y-123576982D01*
X149665917Y-122310450D01*
X149602787Y-122280512D01*
X149572418Y-122239226D01*
X146267164Y-114956463D01*
X146246669Y-114911304D01*
X146699500Y-114911304D01*
X146699500Y-115088695D01*
X146734103Y-115262658D01*
X146734106Y-115262667D01*
X146801983Y-115426540D01*
X146801990Y-115426553D01*
X146900535Y-115574034D01*
X146900538Y-115574038D01*
X147025961Y-115699461D01*
X147025965Y-115699464D01*
X147173446Y-115798009D01*
X147173459Y-115798016D01*
X147296363Y-115848923D01*
X147337334Y-115865894D01*
X147337336Y-115865894D01*
X147337341Y-115865896D01*
X147511304Y-115900499D01*
X147511307Y-115900500D01*
X147511309Y-115900500D01*
X147688693Y-115900500D01*
X147688694Y-115900499D01*
X147746682Y-115888964D01*
X147862658Y-115865896D01*
X147862661Y-115865894D01*
X147862666Y-115865894D01*
X148026547Y-115798013D01*
X148174035Y-115699464D01*
X148299464Y-115574035D01*
X148398013Y-115426547D01*
X148465894Y-115262666D01*
X148500500Y-115088691D01*
X148500500Y-114911309D01*
X148500500Y-114911306D01*
X148500499Y-114911304D01*
X148465896Y-114737341D01*
X148465893Y-114737332D01*
X148398016Y-114573459D01*
X148398009Y-114573446D01*
X148299464Y-114425965D01*
X148299461Y-114425961D01*
X148174038Y-114300538D01*
X148174034Y-114300535D01*
X148026553Y-114201990D01*
X148026540Y-114201983D01*
X147862667Y-114134106D01*
X147862658Y-114134103D01*
X147688694Y-114099500D01*
X147688691Y-114099500D01*
X147511309Y-114099500D01*
X147511306Y-114099500D01*
X147337341Y-114134103D01*
X147337332Y-114134106D01*
X147173459Y-114201983D01*
X147173446Y-114201990D01*
X147025965Y-114300535D01*
X147025961Y-114300538D01*
X146900538Y-114425961D01*
X146900535Y-114425965D01*
X146801990Y-114573446D01*
X146801983Y-114573459D01*
X146734106Y-114737332D01*
X146734103Y-114737341D01*
X146699500Y-114911304D01*
X146246669Y-114911304D01*
X145359472Y-112956463D01*
X145338977Y-112911304D01*
X146199500Y-112911304D01*
X146199500Y-113088695D01*
X146234103Y-113262658D01*
X146234106Y-113262667D01*
X146301983Y-113426540D01*
X146301990Y-113426553D01*
X146400535Y-113574034D01*
X146400538Y-113574038D01*
X146525961Y-113699461D01*
X146525965Y-113699464D01*
X146673446Y-113798009D01*
X146673459Y-113798016D01*
X146796363Y-113848923D01*
X146837334Y-113865894D01*
X146837336Y-113865894D01*
X146837341Y-113865896D01*
X147011304Y-113900499D01*
X147011307Y-113900500D01*
X147011309Y-113900500D01*
X147188693Y-113900500D01*
X147188694Y-113900499D01*
X147246682Y-113888964D01*
X147362658Y-113865896D01*
X147362661Y-113865894D01*
X147362666Y-113865894D01*
X147526547Y-113798013D01*
X147674035Y-113699464D01*
X147799464Y-113574035D01*
X147898013Y-113426547D01*
X147965894Y-113262666D01*
X148000500Y-113088691D01*
X148000500Y-112911309D01*
X148000500Y-112911306D01*
X148000499Y-112911304D01*
X147965896Y-112737341D01*
X147965893Y-112737332D01*
X147898016Y-112573459D01*
X147898009Y-112573446D01*
X147799464Y-112425965D01*
X147799461Y-112425961D01*
X147674038Y-112300538D01*
X147674034Y-112300535D01*
X147526553Y-112201990D01*
X147526540Y-112201983D01*
X147362667Y-112134106D01*
X147362658Y-112134103D01*
X147188694Y-112099500D01*
X147188691Y-112099500D01*
X147011309Y-112099500D01*
X147011306Y-112099500D01*
X146837341Y-112134103D01*
X146837332Y-112134106D01*
X146673459Y-112201983D01*
X146673446Y-112201990D01*
X146525965Y-112300535D01*
X146525961Y-112300538D01*
X146400538Y-112425961D01*
X146400535Y-112425965D01*
X146301990Y-112573446D01*
X146301983Y-112573459D01*
X146234106Y-112737332D01*
X146234103Y-112737341D01*
X146199500Y-112911304D01*
X145338977Y-112911304D01*
X143700000Y-109300001D01*
X143700000Y-109300000D01*
X143699997Y-109299998D01*
X140430425Y-107595646D01*
X140380076Y-107547202D01*
X140363911Y-107479228D01*
X140366125Y-107461504D01*
X140385785Y-107362666D01*
X140400500Y-107288693D01*
X140400500Y-107111306D01*
X140400499Y-107111304D01*
X140365896Y-106937341D01*
X140365893Y-106937332D01*
X140298016Y-106773459D01*
X140298009Y-106773446D01*
X140199464Y-106625965D01*
X140199461Y-106625961D01*
X140074038Y-106500538D01*
X140074034Y-106500535D01*
X139985636Y-106441469D01*
X139985617Y-106441457D01*
X139926547Y-106401987D01*
X139926540Y-106401983D01*
X139787573Y-106344422D01*
X144223254Y-106344422D01*
X144223254Y-106521813D01*
X144257857Y-106695776D01*
X144257860Y-106695785D01*
X144325737Y-106859658D01*
X144325744Y-106859671D01*
X144424289Y-107007152D01*
X144424292Y-107007156D01*
X144549715Y-107132579D01*
X144549719Y-107132582D01*
X144697200Y-107231127D01*
X144697213Y-107231134D01*
X144820117Y-107282041D01*
X144861088Y-107299012D01*
X144861090Y-107299012D01*
X144861095Y-107299014D01*
X145035058Y-107333617D01*
X145035061Y-107333618D01*
X145035063Y-107333618D01*
X145212447Y-107333618D01*
X145212448Y-107333617D01*
X145270436Y-107322082D01*
X145386412Y-107299014D01*
X145386415Y-107299012D01*
X145386420Y-107299012D01*
X145550301Y-107231131D01*
X145697789Y-107132582D01*
X145823218Y-107007153D01*
X145921767Y-106859665D01*
X145989648Y-106695784D01*
X146024254Y-106521809D01*
X146024254Y-106344427D01*
X146024254Y-106344424D01*
X146024253Y-106344422D01*
X145989650Y-106170459D01*
X145989647Y-106170450D01*
X145921770Y-106006577D01*
X145921763Y-106006564D01*
X145823218Y-105859083D01*
X145823215Y-105859079D01*
X145697792Y-105733656D01*
X145697788Y-105733653D01*
X145550307Y-105635108D01*
X145550294Y-105635101D01*
X145386421Y-105567224D01*
X145386412Y-105567221D01*
X145212448Y-105532618D01*
X145212445Y-105532618D01*
X145035063Y-105532618D01*
X145035060Y-105532618D01*
X144861095Y-105567221D01*
X144861086Y-105567224D01*
X144697213Y-105635101D01*
X144697200Y-105635108D01*
X144549719Y-105733653D01*
X144549715Y-105733656D01*
X144424292Y-105859079D01*
X144424289Y-105859083D01*
X144325744Y-106006564D01*
X144325737Y-106006577D01*
X144257860Y-106170450D01*
X144257857Y-106170459D01*
X144223254Y-106344422D01*
X139787573Y-106344422D01*
X139762667Y-106334106D01*
X139762658Y-106334103D01*
X139588694Y-106299500D01*
X139588691Y-106299500D01*
X139411309Y-106299500D01*
X139411306Y-106299500D01*
X139237341Y-106334103D01*
X139237332Y-106334106D01*
X139073460Y-106401983D01*
X139073446Y-106401991D01*
X139039391Y-106424745D01*
X138972713Y-106445621D01*
X138905333Y-106427135D01*
X138882822Y-106409322D01*
X138874038Y-106400538D01*
X138874034Y-106400535D01*
X138726553Y-106301990D01*
X138726540Y-106301983D01*
X138562667Y-106234106D01*
X138562658Y-106234103D01*
X138388694Y-106199500D01*
X138388691Y-106199500D01*
X138211309Y-106199500D01*
X138211306Y-106199500D01*
X138037341Y-106234103D01*
X138037333Y-106234106D01*
X137968844Y-106262474D01*
X137899375Y-106269941D01*
X137864077Y-106257870D01*
X137819161Y-106234456D01*
X137768814Y-106186015D01*
X137752648Y-106118041D01*
X137775798Y-106052118D01*
X137830914Y-106009176D01*
X137876480Y-106000500D01*
X137888693Y-106000500D01*
X137888694Y-106000499D01*
X137946682Y-105988964D01*
X138062658Y-105965896D01*
X138062661Y-105965894D01*
X138062666Y-105965894D01*
X138226547Y-105898013D01*
X138374035Y-105799464D01*
X138499464Y-105674035D01*
X138598013Y-105526547D01*
X138665894Y-105362666D01*
X138700500Y-105188691D01*
X138700500Y-105011309D01*
X138700500Y-105011306D01*
X138700499Y-105011304D01*
X138665896Y-104837341D01*
X138665893Y-104837332D01*
X138598016Y-104673459D01*
X138598009Y-104673446D01*
X138499464Y-104525965D01*
X138499461Y-104525961D01*
X138374038Y-104400538D01*
X138374034Y-104400535D01*
X138226553Y-104301990D01*
X138226540Y-104301983D01*
X138062667Y-104234106D01*
X138062658Y-104234103D01*
X137888694Y-104199500D01*
X137888691Y-104199500D01*
X137711309Y-104199500D01*
X137711306Y-104199500D01*
X137537341Y-104234103D01*
X137537332Y-104234106D01*
X137373459Y-104301983D01*
X137373446Y-104301990D01*
X137225965Y-104400535D01*
X137225961Y-104400538D01*
X137100538Y-104525961D01*
X137100535Y-104525965D01*
X137001990Y-104673446D01*
X137001983Y-104673459D01*
X136934106Y-104837332D01*
X136934103Y-104837341D01*
X136899500Y-105011304D01*
X136899500Y-105188695D01*
X136934103Y-105362658D01*
X136934106Y-105362667D01*
X137001983Y-105526540D01*
X137001990Y-105526553D01*
X137021943Y-105556414D01*
X137042821Y-105623091D01*
X137024337Y-105690471D01*
X136972358Y-105737162D01*
X136903388Y-105748338D01*
X136861523Y-105735262D01*
X134362760Y-104432715D01*
X134312411Y-104384271D01*
X134296252Y-104329325D01*
X134294802Y-104301983D01*
X134201795Y-102548148D01*
X134217902Y-102480164D01*
X134268209Y-102431677D01*
X134336744Y-102418085D01*
X134394512Y-102438483D01*
X134536175Y-102533140D01*
X134536188Y-102533147D01*
X134659092Y-102584054D01*
X134700063Y-102601025D01*
X134700065Y-102601025D01*
X134700070Y-102601027D01*
X134874033Y-102635630D01*
X134874036Y-102635631D01*
X134874038Y-102635631D01*
X135051422Y-102635631D01*
X135051423Y-102635630D01*
X135109411Y-102624095D01*
X135225387Y-102601027D01*
X135225390Y-102601025D01*
X135225395Y-102601025D01*
X135389276Y-102533144D01*
X135421962Y-102511304D01*
X153399500Y-102511304D01*
X153399500Y-102688695D01*
X153434103Y-102862658D01*
X153434106Y-102862667D01*
X153501983Y-103026540D01*
X153501990Y-103026553D01*
X153600535Y-103174034D01*
X153600538Y-103174038D01*
X153725961Y-103299461D01*
X153725965Y-103299464D01*
X153873446Y-103398009D01*
X153873459Y-103398016D01*
X153996363Y-103448923D01*
X154037334Y-103465894D01*
X154037336Y-103465894D01*
X154037341Y-103465896D01*
X154211304Y-103500499D01*
X154211307Y-103500500D01*
X154211309Y-103500500D01*
X154388693Y-103500500D01*
X154388694Y-103500499D01*
X154446682Y-103488964D01*
X154562658Y-103465896D01*
X154562661Y-103465894D01*
X154562666Y-103465894D01*
X154726547Y-103398013D01*
X154874035Y-103299464D01*
X154999464Y-103174035D01*
X155098013Y-103026547D01*
X155165894Y-102862666D01*
X155200500Y-102688691D01*
X155200500Y-102511309D01*
X155200500Y-102511306D01*
X155200499Y-102511304D01*
X155165896Y-102337341D01*
X155165893Y-102337332D01*
X155098016Y-102173459D01*
X155098009Y-102173446D01*
X154999464Y-102025965D01*
X154999461Y-102025961D01*
X154874038Y-101900538D01*
X154874034Y-101900535D01*
X154726553Y-101801990D01*
X154726540Y-101801983D01*
X154562667Y-101734106D01*
X154562658Y-101734103D01*
X154388694Y-101699500D01*
X154388691Y-101699500D01*
X154211309Y-101699500D01*
X154211306Y-101699500D01*
X154037341Y-101734103D01*
X154037332Y-101734106D01*
X153873459Y-101801983D01*
X153873446Y-101801990D01*
X153725965Y-101900535D01*
X153725961Y-101900538D01*
X153600538Y-102025961D01*
X153600535Y-102025965D01*
X153501990Y-102173446D01*
X153501983Y-102173459D01*
X153434106Y-102337332D01*
X153434103Y-102337341D01*
X153399500Y-102511304D01*
X135421962Y-102511304D01*
X135536764Y-102434595D01*
X135539682Y-102431677D01*
X135553824Y-102417536D01*
X135662190Y-102309169D01*
X135662193Y-102309166D01*
X135760742Y-102161678D01*
X135828623Y-101997797D01*
X135863229Y-101823822D01*
X135863229Y-101646440D01*
X135863229Y-101646437D01*
X135863228Y-101646435D01*
X135828625Y-101472472D01*
X135828622Y-101472463D01*
X135760745Y-101308590D01*
X135760738Y-101308577D01*
X135662193Y-101161096D01*
X135662190Y-101161092D01*
X135536767Y-101035669D01*
X135536763Y-101035666D01*
X135389282Y-100937121D01*
X135389269Y-100937114D01*
X135225396Y-100869237D01*
X135225387Y-100869234D01*
X135051423Y-100834631D01*
X135051420Y-100834631D01*
X134874038Y-100834631D01*
X134874035Y-100834631D01*
X134700070Y-100869234D01*
X134700061Y-100869237D01*
X134536188Y-100937114D01*
X134536175Y-100937121D01*
X134388694Y-101035666D01*
X134331809Y-101092551D01*
X134270485Y-101126035D01*
X134200793Y-101121050D01*
X134144860Y-101079179D01*
X134120444Y-101013714D01*
X134120311Y-101011589D01*
X133722996Y-93519363D01*
X136473647Y-93519363D01*
X136473647Y-93696754D01*
X136508250Y-93870717D01*
X136508253Y-93870726D01*
X136576130Y-94034599D01*
X136576137Y-94034612D01*
X136674682Y-94182093D01*
X136674685Y-94182097D01*
X136800108Y-94307520D01*
X136800112Y-94307523D01*
X136947593Y-94406068D01*
X136947606Y-94406075D01*
X137070510Y-94456982D01*
X137111481Y-94473953D01*
X137111483Y-94473953D01*
X137111488Y-94473955D01*
X137285451Y-94508558D01*
X137285454Y-94508559D01*
X137285456Y-94508559D01*
X137462840Y-94508559D01*
X137462841Y-94508558D01*
X137520829Y-94497023D01*
X137636805Y-94473955D01*
X137636808Y-94473953D01*
X137636813Y-94473953D01*
X137800694Y-94406072D01*
X137948182Y-94307523D01*
X138073611Y-94182094D01*
X138172160Y-94034606D01*
X138240041Y-93870725D01*
X138274647Y-93696750D01*
X138274647Y-93519368D01*
X138274647Y-93519365D01*
X138256753Y-93429409D01*
X138256753Y-93429408D01*
X138253152Y-93411304D01*
X147299500Y-93411304D01*
X147299500Y-93588695D01*
X147334103Y-93762658D01*
X147334106Y-93762667D01*
X147401983Y-93926540D01*
X147401990Y-93926553D01*
X147500535Y-94074034D01*
X147500538Y-94074038D01*
X147625961Y-94199461D01*
X147625965Y-94199464D01*
X147773446Y-94298009D01*
X147773459Y-94298016D01*
X147896363Y-94348923D01*
X147937334Y-94365894D01*
X147937336Y-94365894D01*
X147937341Y-94365896D01*
X148111304Y-94400499D01*
X148111307Y-94400500D01*
X148111309Y-94400500D01*
X148288693Y-94400500D01*
X148288694Y-94400499D01*
X148346682Y-94388964D01*
X148462658Y-94365896D01*
X148462661Y-94365894D01*
X148462666Y-94365894D01*
X148626547Y-94298013D01*
X148774035Y-94199464D01*
X148899464Y-94074035D01*
X148998013Y-93926547D01*
X149065894Y-93762666D01*
X149100500Y-93588691D01*
X149100500Y-93411309D01*
X149100500Y-93411306D01*
X149100499Y-93411304D01*
X149065896Y-93237341D01*
X149065893Y-93237332D01*
X148998016Y-93073459D01*
X148998009Y-93073446D01*
X148899464Y-92925965D01*
X148899461Y-92925961D01*
X148774038Y-92800538D01*
X148774034Y-92800535D01*
X148626553Y-92701990D01*
X148626540Y-92701983D01*
X148462667Y-92634106D01*
X148462658Y-92634103D01*
X148288694Y-92599500D01*
X148288691Y-92599500D01*
X148111309Y-92599500D01*
X148111306Y-92599500D01*
X147937341Y-92634103D01*
X147937332Y-92634106D01*
X147773459Y-92701983D01*
X147773446Y-92701990D01*
X147625965Y-92800535D01*
X147625961Y-92800538D01*
X147500538Y-92925961D01*
X147500535Y-92925965D01*
X147401990Y-93073446D01*
X147401983Y-93073459D01*
X147334106Y-93237332D01*
X147334103Y-93237341D01*
X147299500Y-93411304D01*
X138253152Y-93411304D01*
X138240043Y-93345400D01*
X138240040Y-93345391D01*
X138172163Y-93181518D01*
X138172156Y-93181505D01*
X138073611Y-93034024D01*
X138073608Y-93034020D01*
X137948185Y-92908597D01*
X137948181Y-92908594D01*
X137800700Y-92810049D01*
X137800687Y-92810042D01*
X137636814Y-92742165D01*
X137636805Y-92742162D01*
X137462841Y-92707559D01*
X137462838Y-92707559D01*
X137285456Y-92707559D01*
X137285453Y-92707559D01*
X137111488Y-92742162D01*
X137111479Y-92742165D01*
X136947606Y-92810042D01*
X136947593Y-92810049D01*
X136800112Y-92908594D01*
X136800108Y-92908597D01*
X136674685Y-93034020D01*
X136674682Y-93034024D01*
X136576137Y-93181505D01*
X136576130Y-93181518D01*
X136508253Y-93345391D01*
X136508250Y-93345400D01*
X136473647Y-93519363D01*
X133722996Y-93519363D01*
X133606751Y-91327312D01*
X133622858Y-91259326D01*
X133673165Y-91210839D01*
X133727448Y-91196787D01*
X157274406Y-90603166D01*
X157341920Y-90621155D01*
G37*
%TD.AperFunction*%
%TD*%
M02*
