%TF.GenerationSoftware,KiCad,Pcbnew,9.0.1*%
%TF.CreationDate,2025-04-07T20:17:47+02:00*%
%TF.ProjectId,PCB_COM,5043425f-434f-44d2-9e6b-696361645f70,rev?*%
%TF.SameCoordinates,Original*%
%TF.FileFunction,Copper,L2,Inr*%
%TF.FilePolarity,Positive*%
%FSLAX46Y46*%
G04 Gerber Fmt 4.6, Leading zero omitted, Abs format (unit mm)*
G04 Created by KiCad (PCBNEW 9.0.1) date 2025-04-07 20:17:48*
%MOMM*%
%LPD*%
G01*
G04 APERTURE LIST*
%TA.AperFunction,HeatsinkPad*%
%ADD10O,1.600000X1.000000*%
%TD*%
%TA.AperFunction,HeatsinkPad*%
%ADD11O,2.100000X1.000000*%
%TD*%
%TA.AperFunction,HeatsinkPad*%
%ADD12O,1.000000X1.600000*%
%TD*%
%TA.AperFunction,HeatsinkPad*%
%ADD13O,1.000000X2.100000*%
%TD*%
%TA.AperFunction,ComponentPad*%
%ADD14C,0.800000*%
%TD*%
%TA.AperFunction,ComponentPad*%
%ADD15C,6.400000*%
%TD*%
%TA.AperFunction,ViaPad*%
%ADD16C,0.800000*%
%TD*%
G04 APERTURE END LIST*
D10*
%TO.N,GND*%
%TO.C,J2*%
X120625000Y-104320000D03*
D11*
X124805000Y-104320000D03*
D10*
X120625000Y-95680000D03*
D11*
X124805000Y-95680000D03*
%TD*%
D12*
%TO.N,GND*%
%TO.C,J6*%
X145720000Y-127375000D03*
D13*
X145720000Y-123195000D03*
D12*
X137080000Y-127375000D03*
D13*
X137080000Y-123195000D03*
%TD*%
D10*
%TO.N,GND*%
%TO.C,J4*%
X175275000Y-84380000D03*
D11*
X171095000Y-84380000D03*
D10*
X175275000Y-93020000D03*
D11*
X171095000Y-93020000D03*
%TD*%
D12*
%TO.N,GND*%
%TO.C,J5*%
X133080000Y-72665000D03*
D13*
X133080000Y-76845000D03*
D12*
X141720000Y-72665000D03*
D13*
X141720000Y-76845000D03*
%TD*%
D12*
%TO.N,GND*%
%TO.C,J3*%
X148180000Y-72525000D03*
D13*
X148180000Y-76705000D03*
D12*
X156820000Y-72525000D03*
D13*
X156820000Y-76705000D03*
%TD*%
D14*
%TO.N,GND*%
%TO.C,H4*%
X175400000Y-125000000D03*
X174697056Y-126697056D03*
X174697056Y-123302944D03*
X173000000Y-127400000D03*
D15*
X173000000Y-125000000D03*
D14*
X173000000Y-122600000D03*
X171302944Y-126697056D03*
X171302944Y-123302944D03*
X170600000Y-125000000D03*
%TD*%
%TO.N,GND*%
%TO.C,H2*%
X175400000Y-75000000D03*
X174697056Y-76697056D03*
X174697056Y-73302944D03*
X173000000Y-77400000D03*
D15*
X173000000Y-75000000D03*
D14*
X173000000Y-72600000D03*
X171302944Y-76697056D03*
X171302944Y-73302944D03*
X170600000Y-75000000D03*
%TD*%
%TO.N,GND*%
%TO.C,H1*%
X125400000Y-75000000D03*
X124697056Y-76697056D03*
X124697056Y-73302944D03*
X123000000Y-77400000D03*
D15*
X123000000Y-75000000D03*
D14*
X123000000Y-72600000D03*
X121302944Y-76697056D03*
X121302944Y-73302944D03*
X120600000Y-75000000D03*
%TD*%
%TO.N,GND*%
%TO.C,H3*%
X125400000Y-125000000D03*
X124697056Y-126697056D03*
X124697056Y-123302944D03*
X123000000Y-127400000D03*
D15*
X123000000Y-125000000D03*
D14*
X123000000Y-122600000D03*
X121302944Y-126697056D03*
X121302944Y-123302944D03*
X120600000Y-125000000D03*
%TD*%
D16*
%TO.N,USART4_TX*%
X140200000Y-121300000D03*
X142200000Y-123800000D03*
%TO.N,USART3_TX*%
X135200000Y-79200000D03*
%TO.N,+5V*%
X132500000Y-79100000D03*
%TO.N,+3.3V*%
X134900000Y-95100000D03*
%TO.N,USART3_RX*%
X136900000Y-79900000D03*
X138700000Y-80500000D03*
%TO.N,USART3_TX*%
X138300000Y-81600000D03*
%TO.N,+3.3V*%
X140408677Y-91130468D03*
%TO.N,GND*%
X129600000Y-93800000D03*
X137374147Y-93608059D03*
%TO.N,USART1_TX*%
X154100000Y-79600000D03*
X150000000Y-80400000D03*
%TO.N,NRST*%
X154300000Y-102600000D03*
X147100000Y-113000000D03*
%TO.N,SWO*%
X145123754Y-106433118D03*
X147600000Y-115000000D03*
%TO.N,SWCLK*%
X139500000Y-107200000D03*
X146500000Y-117900000D03*
%TO.N,SWDIO*%
X138300000Y-107100000D03*
X146300000Y-119700000D03*
%TO.N,USART4_TX*%
X140500000Y-120400000D03*
X142500000Y-120600000D03*
%TO.N,USART2_RX*%
X148200000Y-93500000D03*
X168300000Y-90200000D03*
X168400000Y-87800000D03*
%TO.N,GND*%
X134962729Y-101735131D03*
X137800000Y-105100000D03*
%TO.N,USB_DP*%
X127854701Y-101467947D03*
X127400000Y-99525000D03*
%TO.N,+3.3V*%
X156400000Y-122000000D03*
X134700000Y-102700000D03*
X136380000Y-93500000D03*
X138500000Y-93600000D03*
X146480000Y-92000000D03*
X152000000Y-95000000D03*
X148800000Y-94800000D03*
X150500000Y-105000000D03*
X147700000Y-105100000D03*
X147200000Y-107800000D03*
%TO.N,+5V*%
X143800000Y-120500000D03*
X139000000Y-120700000D03*
X127300000Y-102300000D03*
X127200000Y-97700000D03*
X125087500Y-90800000D03*
X124887500Y-87800000D03*
X168800000Y-91100000D03*
X168800000Y-86300000D03*
X150100000Y-79100000D03*
X154900000Y-79000000D03*
X139800000Y-79300000D03*
%TD*%
%TA.AperFunction,Conductor*%
%TO.N,GND*%
G36*
X173002702Y-70500617D02*
G01*
X173386771Y-70517386D01*
X173397506Y-70518326D01*
X173775971Y-70568152D01*
X173786597Y-70570025D01*
X174159284Y-70652648D01*
X174169710Y-70655442D01*
X174533765Y-70770227D01*
X174543911Y-70773920D01*
X174896578Y-70920000D01*
X174906369Y-70924566D01*
X175244942Y-71100816D01*
X175254310Y-71106224D01*
X175576244Y-71311318D01*
X175585105Y-71317523D01*
X175887930Y-71549889D01*
X175896217Y-71556843D01*
X176177635Y-71814715D01*
X176185284Y-71822364D01*
X176443156Y-72103782D01*
X176450110Y-72112069D01*
X176682476Y-72414894D01*
X176688681Y-72423755D01*
X176893775Y-72745689D01*
X176899183Y-72755057D01*
X177075430Y-73093623D01*
X177080002Y-73103427D01*
X177226075Y-73456078D01*
X177229775Y-73466244D01*
X177344554Y-73830278D01*
X177347354Y-73840727D01*
X177429971Y-74213389D01*
X177431849Y-74224042D01*
X177481671Y-74602473D01*
X177482614Y-74613249D01*
X177499382Y-74997297D01*
X177499500Y-75002706D01*
X177499500Y-124997293D01*
X177499382Y-125002702D01*
X177482614Y-125386750D01*
X177481671Y-125397526D01*
X177431849Y-125775957D01*
X177429971Y-125786610D01*
X177347354Y-126159272D01*
X177344554Y-126169721D01*
X177229775Y-126533755D01*
X177226075Y-126543921D01*
X177080002Y-126896572D01*
X177075430Y-126906376D01*
X176899183Y-127244942D01*
X176893775Y-127254310D01*
X176688681Y-127576244D01*
X176682476Y-127585105D01*
X176450110Y-127887930D01*
X176443156Y-127896217D01*
X176185284Y-128177635D01*
X176177635Y-128185284D01*
X175896217Y-128443156D01*
X175887930Y-128450110D01*
X175585105Y-128682476D01*
X175576244Y-128688681D01*
X175254310Y-128893775D01*
X175244942Y-128899183D01*
X174906376Y-129075430D01*
X174896572Y-129080002D01*
X174543921Y-129226075D01*
X174533755Y-129229775D01*
X174169721Y-129344554D01*
X174159272Y-129347354D01*
X173786610Y-129429971D01*
X173775957Y-129431849D01*
X173397526Y-129481671D01*
X173386750Y-129482614D01*
X173002703Y-129499382D01*
X172997294Y-129499500D01*
X123002706Y-129499500D01*
X122997297Y-129499382D01*
X122613249Y-129482614D01*
X122602473Y-129481671D01*
X122224042Y-129431849D01*
X122213389Y-129429971D01*
X121840727Y-129347354D01*
X121830278Y-129344554D01*
X121466244Y-129229775D01*
X121456078Y-129226075D01*
X121103427Y-129080002D01*
X121093623Y-129075430D01*
X120755057Y-128899183D01*
X120745689Y-128893775D01*
X120423755Y-128688681D01*
X120414894Y-128682476D01*
X120112069Y-128450110D01*
X120103782Y-128443156D01*
X119822364Y-128185284D01*
X119814715Y-128177635D01*
X119556843Y-127896217D01*
X119549889Y-127887930D01*
X119493921Y-127814991D01*
X119317523Y-127585105D01*
X119311318Y-127576244D01*
X119106224Y-127254310D01*
X119100816Y-127244942D01*
X118924566Y-126906369D01*
X118919997Y-126896572D01*
X118917604Y-126890795D01*
X118773920Y-126543911D01*
X118770224Y-126533755D01*
X118655442Y-126169710D01*
X118652648Y-126159284D01*
X118570025Y-125786597D01*
X118568152Y-125775971D01*
X118518326Y-125397506D01*
X118517386Y-125386771D01*
X118500618Y-125002702D01*
X118500500Y-124997293D01*
X118500500Y-124818234D01*
X119300000Y-124818234D01*
X119300000Y-125181765D01*
X119335632Y-125543556D01*
X119406550Y-125900090D01*
X119406553Y-125900101D01*
X119512086Y-126247997D01*
X119651207Y-126583864D01*
X119651209Y-126583869D01*
X119822570Y-126904462D01*
X119822581Y-126904480D01*
X120024551Y-127206750D01*
X120211678Y-127434765D01*
X120211679Y-127434766D01*
X121705747Y-125940697D01*
X121779588Y-126042330D01*
X121957670Y-126220412D01*
X122059301Y-126294251D01*
X120565232Y-127788319D01*
X120565233Y-127788320D01*
X120793249Y-127975448D01*
X121095519Y-128177418D01*
X121095537Y-128177429D01*
X121416130Y-128348790D01*
X121416135Y-128348792D01*
X121752002Y-128487913D01*
X122099898Y-128593446D01*
X122099909Y-128593449D01*
X122456443Y-128664367D01*
X122818234Y-128700000D01*
X123181766Y-128700000D01*
X123543556Y-128664367D01*
X123900090Y-128593449D01*
X123900101Y-128593446D01*
X124247997Y-128487913D01*
X124583864Y-128348792D01*
X124583869Y-128348790D01*
X124904462Y-128177429D01*
X124904480Y-128177418D01*
X125206736Y-127975457D01*
X125206750Y-127975447D01*
X125434765Y-127788320D01*
X125434766Y-127788319D01*
X125307766Y-127661319D01*
X123940698Y-126294251D01*
X124042330Y-126220412D01*
X124220412Y-126042330D01*
X124294251Y-125940698D01*
X125788319Y-127434766D01*
X125788320Y-127434765D01*
X125975447Y-127206750D01*
X125975457Y-127206736D01*
X126129293Y-126976504D01*
X136080000Y-126976504D01*
X136080000Y-127125000D01*
X136780000Y-127125000D01*
X136780000Y-127625000D01*
X136080000Y-127625000D01*
X136080000Y-127773495D01*
X136118427Y-127966681D01*
X136118430Y-127966693D01*
X136193807Y-128148671D01*
X136193814Y-128148684D01*
X136303248Y-128312462D01*
X136303251Y-128312466D01*
X136442533Y-128451748D01*
X136442537Y-128451751D01*
X136606315Y-128561185D01*
X136606328Y-128561192D01*
X136788308Y-128636569D01*
X136830000Y-128644862D01*
X136830000Y-127841988D01*
X136839940Y-127859205D01*
X136895795Y-127915060D01*
X136964204Y-127954556D01*
X137040504Y-127975000D01*
X137119496Y-127975000D01*
X137195796Y-127954556D01*
X137264205Y-127915060D01*
X137320060Y-127859205D01*
X137330000Y-127841988D01*
X137330000Y-128644862D01*
X137371690Y-128636569D01*
X137371692Y-128636569D01*
X137553671Y-128561192D01*
X137553684Y-128561185D01*
X137717462Y-128451751D01*
X137717466Y-128451748D01*
X137856748Y-128312466D01*
X137856751Y-128312462D01*
X137966185Y-128148684D01*
X137966192Y-128148671D01*
X138041569Y-127966693D01*
X138041572Y-127966681D01*
X138079999Y-127773495D01*
X138080000Y-127773492D01*
X138080000Y-127625000D01*
X137380000Y-127625000D01*
X137380000Y-127125000D01*
X138080000Y-127125000D01*
X138080000Y-126976508D01*
X138079999Y-126976504D01*
X144720000Y-126976504D01*
X144720000Y-127125000D01*
X145420000Y-127125000D01*
X145420000Y-127625000D01*
X144720000Y-127625000D01*
X144720000Y-127773495D01*
X144758427Y-127966681D01*
X144758430Y-127966693D01*
X144833807Y-128148671D01*
X144833814Y-128148684D01*
X144943248Y-128312462D01*
X144943251Y-128312466D01*
X145082533Y-128451748D01*
X145082537Y-128451751D01*
X145246315Y-128561185D01*
X145246328Y-128561192D01*
X145428308Y-128636569D01*
X145470000Y-128644862D01*
X145470000Y-127841988D01*
X145479940Y-127859205D01*
X145535795Y-127915060D01*
X145604204Y-127954556D01*
X145680504Y-127975000D01*
X145759496Y-127975000D01*
X145835796Y-127954556D01*
X145904205Y-127915060D01*
X145960060Y-127859205D01*
X145970000Y-127841988D01*
X145970000Y-128644862D01*
X146011690Y-128636569D01*
X146011692Y-128636569D01*
X146193671Y-128561192D01*
X146193684Y-128561185D01*
X146357462Y-128451751D01*
X146357466Y-128451748D01*
X146496748Y-128312466D01*
X146496751Y-128312462D01*
X146606185Y-128148684D01*
X146606192Y-128148671D01*
X146681569Y-127966693D01*
X146681572Y-127966681D01*
X146719999Y-127773495D01*
X146720000Y-127773492D01*
X146720000Y-127625000D01*
X146020000Y-127625000D01*
X146020000Y-127125000D01*
X146720000Y-127125000D01*
X146720000Y-126976508D01*
X146719999Y-126976504D01*
X146681572Y-126783318D01*
X146681569Y-126783306D01*
X146606192Y-126601328D01*
X146606185Y-126601315D01*
X146496751Y-126437537D01*
X146496748Y-126437533D01*
X146357466Y-126298251D01*
X146357462Y-126298248D01*
X146193684Y-126188814D01*
X146193671Y-126188807D01*
X146011691Y-126113429D01*
X146011683Y-126113427D01*
X145970000Y-126105135D01*
X145970000Y-126908011D01*
X145960060Y-126890795D01*
X145904205Y-126834940D01*
X145835796Y-126795444D01*
X145759496Y-126775000D01*
X145680504Y-126775000D01*
X145604204Y-126795444D01*
X145535795Y-126834940D01*
X145479940Y-126890795D01*
X145470000Y-126908011D01*
X145470000Y-126105136D01*
X145469999Y-126105135D01*
X145428316Y-126113427D01*
X145428308Y-126113429D01*
X145246328Y-126188807D01*
X145246315Y-126188814D01*
X145082537Y-126298248D01*
X145082533Y-126298251D01*
X144943251Y-126437533D01*
X144943248Y-126437537D01*
X144833814Y-126601315D01*
X144833807Y-126601328D01*
X144758430Y-126783306D01*
X144758427Y-126783318D01*
X144720000Y-126976504D01*
X138079999Y-126976504D01*
X138041572Y-126783318D01*
X138041569Y-126783306D01*
X137966192Y-126601328D01*
X137966185Y-126601315D01*
X137856751Y-126437537D01*
X137856748Y-126437533D01*
X137717466Y-126298251D01*
X137717462Y-126298248D01*
X137553684Y-126188814D01*
X137553671Y-126188807D01*
X137371691Y-126113429D01*
X137371683Y-126113427D01*
X137330000Y-126105135D01*
X137330000Y-126908011D01*
X137320060Y-126890795D01*
X137264205Y-126834940D01*
X137195796Y-126795444D01*
X137119496Y-126775000D01*
X137040504Y-126775000D01*
X136964204Y-126795444D01*
X136895795Y-126834940D01*
X136839940Y-126890795D01*
X136830000Y-126908011D01*
X136830000Y-126105136D01*
X136829999Y-126105135D01*
X136788316Y-126113427D01*
X136788308Y-126113429D01*
X136606328Y-126188807D01*
X136606315Y-126188814D01*
X136442537Y-126298248D01*
X136442533Y-126298251D01*
X136303251Y-126437533D01*
X136303248Y-126437537D01*
X136193814Y-126601315D01*
X136193807Y-126601328D01*
X136118430Y-126783306D01*
X136118427Y-126783318D01*
X136080000Y-126976504D01*
X126129293Y-126976504D01*
X126177424Y-126904471D01*
X126348790Y-126583869D01*
X126348792Y-126583864D01*
X126487913Y-126247997D01*
X126593446Y-125900101D01*
X126593449Y-125900090D01*
X126664367Y-125543556D01*
X126700000Y-125181765D01*
X126700000Y-124818234D01*
X169300000Y-124818234D01*
X169300000Y-125181765D01*
X169335632Y-125543556D01*
X169406550Y-125900090D01*
X169406553Y-125900101D01*
X169512086Y-126247997D01*
X169651207Y-126583864D01*
X169651209Y-126583869D01*
X169822570Y-126904462D01*
X169822581Y-126904480D01*
X170024551Y-127206750D01*
X170211678Y-127434765D01*
X170211679Y-127434766D01*
X171705747Y-125940697D01*
X171779588Y-126042330D01*
X171957670Y-126220412D01*
X172059301Y-126294251D01*
X170565232Y-127788319D01*
X170565233Y-127788320D01*
X170793249Y-127975448D01*
X171095519Y-128177418D01*
X171095537Y-128177429D01*
X171416130Y-128348790D01*
X171416135Y-128348792D01*
X171752002Y-128487913D01*
X172099898Y-128593446D01*
X172099909Y-128593449D01*
X172456443Y-128664367D01*
X172818234Y-128700000D01*
X173181766Y-128700000D01*
X173543556Y-128664367D01*
X173900090Y-128593449D01*
X173900101Y-128593446D01*
X174247997Y-128487913D01*
X174583864Y-128348792D01*
X174583869Y-128348790D01*
X174904462Y-128177429D01*
X174904480Y-128177418D01*
X175206736Y-127975457D01*
X175206750Y-127975447D01*
X175434765Y-127788320D01*
X175434766Y-127788319D01*
X173940698Y-126294251D01*
X174042330Y-126220412D01*
X174220412Y-126042330D01*
X174294251Y-125940698D01*
X175788319Y-127434766D01*
X175788320Y-127434765D01*
X175975447Y-127206750D01*
X175975457Y-127206736D01*
X176177418Y-126904480D01*
X176177429Y-126904462D01*
X176348790Y-126583869D01*
X176348792Y-126583864D01*
X176487913Y-126247997D01*
X176593446Y-125900101D01*
X176593449Y-125900090D01*
X176664367Y-125543556D01*
X176700000Y-125181765D01*
X176700000Y-124818234D01*
X176664367Y-124456443D01*
X176593449Y-124099909D01*
X176593446Y-124099898D01*
X176487913Y-123752002D01*
X176348792Y-123416135D01*
X176348790Y-123416130D01*
X176177429Y-123095537D01*
X176177418Y-123095519D01*
X175975448Y-122793249D01*
X175788320Y-122565233D01*
X175788319Y-122565232D01*
X174294251Y-124059300D01*
X174220412Y-123957670D01*
X174042330Y-123779588D01*
X173940698Y-123705748D01*
X175434766Y-122211679D01*
X175434765Y-122211678D01*
X175206750Y-122024551D01*
X174904480Y-121822581D01*
X174904462Y-121822570D01*
X174583869Y-121651209D01*
X174583864Y-121651207D01*
X174247997Y-121512086D01*
X173900101Y-121406553D01*
X173900090Y-121406550D01*
X173543556Y-121335632D01*
X173181766Y-121300000D01*
X172818234Y-121300000D01*
X172456443Y-121335632D01*
X172099909Y-121406550D01*
X172099898Y-121406553D01*
X171752002Y-121512086D01*
X171416135Y-121651207D01*
X171416130Y-121651209D01*
X171095537Y-121822570D01*
X171095519Y-121822581D01*
X170793258Y-122024545D01*
X170793254Y-122024548D01*
X170565233Y-122211679D01*
X170565233Y-122211680D01*
X172059301Y-123705748D01*
X171957670Y-123779588D01*
X171779588Y-123957670D01*
X171705748Y-124059301D01*
X170211680Y-122565233D01*
X170211679Y-122565233D01*
X170024548Y-122793254D01*
X170024545Y-122793258D01*
X169822581Y-123095519D01*
X169822570Y-123095537D01*
X169651209Y-123416130D01*
X169651207Y-123416135D01*
X169512086Y-123752002D01*
X169406553Y-124099898D01*
X169406550Y-124099909D01*
X169335632Y-124456443D01*
X169300000Y-124818234D01*
X126700000Y-124818234D01*
X126664367Y-124456443D01*
X126593449Y-124099909D01*
X126593446Y-124099898D01*
X126487913Y-123752002D01*
X126359130Y-123441091D01*
X126348790Y-123416129D01*
X126177429Y-123095537D01*
X126177418Y-123095519D01*
X125975448Y-122793249D01*
X125832513Y-122619082D01*
X125832512Y-122619081D01*
X125788319Y-122565232D01*
X124294251Y-124059300D01*
X124220412Y-123957670D01*
X124042330Y-123779588D01*
X123940698Y-123705748D01*
X125099941Y-122546504D01*
X136080000Y-122546504D01*
X136080000Y-122945000D01*
X136780000Y-122945000D01*
X136780000Y-123445000D01*
X136080000Y-123445000D01*
X136080000Y-123843495D01*
X136118427Y-124036681D01*
X136118430Y-124036693D01*
X136193807Y-124218671D01*
X136193814Y-124218684D01*
X136303248Y-124382462D01*
X136303251Y-124382466D01*
X136442533Y-124521748D01*
X136442537Y-124521751D01*
X136606315Y-124631185D01*
X136606328Y-124631192D01*
X136788308Y-124706569D01*
X136830000Y-124714862D01*
X136830000Y-123911988D01*
X136839940Y-123929205D01*
X136895795Y-123985060D01*
X136964204Y-124024556D01*
X137040504Y-124045000D01*
X137119496Y-124045000D01*
X137195796Y-124024556D01*
X137264205Y-123985060D01*
X137320060Y-123929205D01*
X137330000Y-123911988D01*
X137330000Y-124714862D01*
X137371690Y-124706569D01*
X137371692Y-124706569D01*
X137553671Y-124631192D01*
X137553684Y-124631185D01*
X137717462Y-124521751D01*
X137717466Y-124521748D01*
X137856748Y-124382466D01*
X137856751Y-124382462D01*
X137966185Y-124218684D01*
X137966186Y-124218682D01*
X137970129Y-124209163D01*
X138013968Y-124154757D01*
X138080261Y-124132689D01*
X138147961Y-124149965D01*
X138153400Y-124153647D01*
X138279665Y-124226547D01*
X138287865Y-124231281D01*
X138434234Y-124270500D01*
X138434236Y-124270500D01*
X138585764Y-124270500D01*
X138585766Y-124270500D01*
X138732135Y-124231281D01*
X138863365Y-124155515D01*
X138970515Y-124048365D01*
X139046281Y-123917135D01*
X139085500Y-123770766D01*
X139085500Y-123711304D01*
X141299500Y-123711304D01*
X141299500Y-123888695D01*
X141334103Y-124062658D01*
X141334106Y-124062667D01*
X141401983Y-124226540D01*
X141401990Y-124226553D01*
X141500535Y-124374034D01*
X141500538Y-124374038D01*
X141625961Y-124499461D01*
X141625965Y-124499464D01*
X141773446Y-124598009D01*
X141773459Y-124598016D01*
X141853538Y-124631185D01*
X141937334Y-124665894D01*
X141937336Y-124665894D01*
X141937341Y-124665896D01*
X142111304Y-124700499D01*
X142111307Y-124700500D01*
X142111309Y-124700500D01*
X142288693Y-124700500D01*
X142288694Y-124700499D01*
X142346682Y-124688964D01*
X142462658Y-124665896D01*
X142462661Y-124665894D01*
X142462666Y-124665894D01*
X142626547Y-124598013D01*
X142774035Y-124499464D01*
X142899464Y-124374035D01*
X142998013Y-124226547D01*
X143065894Y-124062666D01*
X143068739Y-124048367D01*
X143100499Y-123888695D01*
X143100500Y-123888693D01*
X143100500Y-123711306D01*
X143100499Y-123711304D01*
X143085381Y-123635298D01*
X143082186Y-123619234D01*
X143714500Y-123619234D01*
X143714500Y-123770765D01*
X143753719Y-123917136D01*
X143777122Y-123957670D01*
X143829485Y-124048365D01*
X143936635Y-124155515D01*
X144050281Y-124221129D01*
X144059665Y-124226547D01*
X144067865Y-124231281D01*
X144214234Y-124270500D01*
X144214236Y-124270500D01*
X144365764Y-124270500D01*
X144365766Y-124270500D01*
X144512135Y-124231281D01*
X144643365Y-124155515D01*
X144643366Y-124155513D01*
X144650403Y-124151451D01*
X144651676Y-124153656D01*
X144704956Y-124133043D01*
X144773405Y-124147063D01*
X144823407Y-124195864D01*
X144829867Y-124209157D01*
X144833809Y-124218674D01*
X144833814Y-124218684D01*
X144943248Y-124382462D01*
X144943251Y-124382466D01*
X145082533Y-124521748D01*
X145082537Y-124521751D01*
X145246315Y-124631185D01*
X145246328Y-124631192D01*
X145428308Y-124706569D01*
X145470000Y-124714862D01*
X145470000Y-123911988D01*
X145479940Y-123929205D01*
X145535795Y-123985060D01*
X145604204Y-124024556D01*
X145680504Y-124045000D01*
X145759496Y-124045000D01*
X145835796Y-124024556D01*
X145904205Y-123985060D01*
X145960060Y-123929205D01*
X145970000Y-123911988D01*
X145970000Y-124714862D01*
X146011689Y-124706570D01*
X146026040Y-124700626D01*
X146026041Y-124700625D01*
X146193671Y-124631192D01*
X146193684Y-124631185D01*
X146357462Y-124521751D01*
X146357466Y-124521748D01*
X146496748Y-124382466D01*
X146496751Y-124382462D01*
X146606185Y-124218684D01*
X146606192Y-124218671D01*
X146681569Y-124036693D01*
X146681572Y-124036681D01*
X146719999Y-123843495D01*
X146720000Y-123843492D01*
X146720000Y-123445000D01*
X146020000Y-123445000D01*
X146020000Y-122945000D01*
X146720000Y-122945000D01*
X146720000Y-122546508D01*
X146719999Y-122546504D01*
X146681572Y-122353318D01*
X146681569Y-122353306D01*
X146606192Y-122171328D01*
X146606185Y-122171315D01*
X146496751Y-122007537D01*
X146496748Y-122007533D01*
X146400519Y-121911304D01*
X155499500Y-121911304D01*
X155499500Y-122088695D01*
X155534103Y-122262658D01*
X155534106Y-122262667D01*
X155601983Y-122426540D01*
X155601990Y-122426553D01*
X155700535Y-122574034D01*
X155700538Y-122574038D01*
X155825961Y-122699461D01*
X155825965Y-122699464D01*
X155973446Y-122798009D01*
X155973459Y-122798016D01*
X156096363Y-122848923D01*
X156137334Y-122865894D01*
X156137336Y-122865894D01*
X156137341Y-122865896D01*
X156311304Y-122900499D01*
X156311307Y-122900500D01*
X156311309Y-122900500D01*
X156488693Y-122900500D01*
X156488694Y-122900499D01*
X156546682Y-122888964D01*
X156662658Y-122865896D01*
X156662661Y-122865894D01*
X156662666Y-122865894D01*
X156826547Y-122798013D01*
X156974035Y-122699464D01*
X157099464Y-122574035D01*
X157198013Y-122426547D01*
X157265894Y-122262666D01*
X157267109Y-122256555D01*
X157271139Y-122236301D01*
X157271139Y-122236299D01*
X157298646Y-122098013D01*
X157300500Y-122088691D01*
X157300500Y-121911309D01*
X157300500Y-121911306D01*
X157300499Y-121911304D01*
X157265896Y-121737341D01*
X157265893Y-121737332D01*
X157198016Y-121573459D01*
X157198009Y-121573446D01*
X157099464Y-121425965D01*
X157099461Y-121425961D01*
X156974038Y-121300538D01*
X156974034Y-121300535D01*
X156826553Y-121201990D01*
X156826540Y-121201983D01*
X156662667Y-121134106D01*
X156662658Y-121134103D01*
X156488694Y-121099500D01*
X156488691Y-121099500D01*
X156311309Y-121099500D01*
X156311306Y-121099500D01*
X156137341Y-121134103D01*
X156137332Y-121134106D01*
X155973459Y-121201983D01*
X155973446Y-121201990D01*
X155825965Y-121300535D01*
X155825961Y-121300538D01*
X155700538Y-121425961D01*
X155700535Y-121425965D01*
X155601990Y-121573446D01*
X155601983Y-121573459D01*
X155534106Y-121737332D01*
X155534103Y-121737341D01*
X155499500Y-121911304D01*
X146400519Y-121911304D01*
X146357466Y-121868251D01*
X146357462Y-121868248D01*
X146193684Y-121758814D01*
X146193671Y-121758807D01*
X146011691Y-121683429D01*
X146011683Y-121683427D01*
X145970000Y-121675135D01*
X145970000Y-122478011D01*
X145960060Y-122460795D01*
X145904205Y-122404940D01*
X145835796Y-122365444D01*
X145759496Y-122345000D01*
X145680504Y-122345000D01*
X145604204Y-122365444D01*
X145535795Y-122404940D01*
X145479940Y-122460795D01*
X145470000Y-122478011D01*
X145470000Y-121675136D01*
X145469999Y-121675135D01*
X145428316Y-121683427D01*
X145428308Y-121683429D01*
X145246328Y-121758807D01*
X145246315Y-121758814D01*
X145082537Y-121868248D01*
X145082533Y-121868251D01*
X144943251Y-122007533D01*
X144943248Y-122007537D01*
X144833814Y-122171315D01*
X144833807Y-122171328D01*
X144758430Y-122353306D01*
X144758427Y-122353318D01*
X144720000Y-122546504D01*
X144720000Y-122945000D01*
X145420000Y-122945000D01*
X145420000Y-123445000D01*
X144881784Y-123445000D01*
X144814745Y-123425315D01*
X144774397Y-123383000D01*
X144750515Y-123341635D01*
X144643365Y-123234485D01*
X144577750Y-123196602D01*
X144512136Y-123158719D01*
X144438950Y-123139109D01*
X144365766Y-123119500D01*
X144214234Y-123119500D01*
X144067863Y-123158719D01*
X143936635Y-123234485D01*
X143936632Y-123234487D01*
X143829487Y-123341632D01*
X143829485Y-123341635D01*
X143753719Y-123472863D01*
X143714500Y-123619234D01*
X143082186Y-123619234D01*
X143065896Y-123537342D01*
X143065893Y-123537332D01*
X142998016Y-123373459D01*
X142998009Y-123373446D01*
X142899464Y-123225965D01*
X142899461Y-123225961D01*
X142774038Y-123100538D01*
X142774034Y-123100535D01*
X142626553Y-123001990D01*
X142626540Y-123001983D01*
X142462667Y-122934106D01*
X142462658Y-122934103D01*
X142288694Y-122899500D01*
X142288691Y-122899500D01*
X142111309Y-122899500D01*
X142111306Y-122899500D01*
X141937341Y-122934103D01*
X141937332Y-122934106D01*
X141773459Y-123001983D01*
X141773446Y-123001990D01*
X141625965Y-123100535D01*
X141625961Y-123100538D01*
X141500538Y-123225961D01*
X141500535Y-123225965D01*
X141401990Y-123373446D01*
X141401983Y-123373459D01*
X141334106Y-123537332D01*
X141334103Y-123537341D01*
X141299500Y-123711304D01*
X139085500Y-123711304D01*
X139085500Y-123619234D01*
X139046281Y-123472865D01*
X138970515Y-123341635D01*
X138863365Y-123234485D01*
X138797750Y-123196602D01*
X138732136Y-123158719D01*
X138658950Y-123139109D01*
X138585766Y-123119500D01*
X138434234Y-123119500D01*
X138287863Y-123158719D01*
X138156635Y-123234485D01*
X138156632Y-123234487D01*
X138049487Y-123341632D01*
X138049483Y-123341638D01*
X138025603Y-123383000D01*
X137975036Y-123431216D01*
X137918216Y-123445000D01*
X137380000Y-123445000D01*
X137380000Y-122945000D01*
X138080000Y-122945000D01*
X138080000Y-122546508D01*
X138079999Y-122546504D01*
X138041572Y-122353318D01*
X138041569Y-122353306D01*
X137966192Y-122171328D01*
X137966185Y-122171315D01*
X137856751Y-122007537D01*
X137856748Y-122007533D01*
X137717466Y-121868251D01*
X137717462Y-121868248D01*
X137553684Y-121758814D01*
X137553671Y-121758807D01*
X137371691Y-121683429D01*
X137371683Y-121683427D01*
X137330000Y-121675135D01*
X137330000Y-122478011D01*
X137320060Y-122460795D01*
X137264205Y-122404940D01*
X137195796Y-122365444D01*
X137119496Y-122345000D01*
X137040504Y-122345000D01*
X136964204Y-122365444D01*
X136895795Y-122404940D01*
X136839940Y-122460795D01*
X136830000Y-122478011D01*
X136830000Y-121675136D01*
X136829999Y-121675135D01*
X136788316Y-121683427D01*
X136788308Y-121683429D01*
X136606328Y-121758807D01*
X136606315Y-121758814D01*
X136442537Y-121868248D01*
X136442533Y-121868251D01*
X136303251Y-122007533D01*
X136303248Y-122007537D01*
X136193814Y-122171315D01*
X136193807Y-122171328D01*
X136118430Y-122353306D01*
X136118427Y-122353318D01*
X136080000Y-122546504D01*
X125099941Y-122546504D01*
X125434766Y-122211679D01*
X125434765Y-122211678D01*
X125206750Y-122024551D01*
X124904480Y-121822581D01*
X124904462Y-121822570D01*
X124583869Y-121651209D01*
X124583864Y-121651207D01*
X124247997Y-121512086D01*
X123900101Y-121406553D01*
X123900090Y-121406550D01*
X123543556Y-121335632D01*
X123181766Y-121300000D01*
X122818234Y-121300000D01*
X122456443Y-121335632D01*
X122099909Y-121406550D01*
X122099898Y-121406553D01*
X121752002Y-121512086D01*
X121416135Y-121651207D01*
X121416130Y-121651209D01*
X121095537Y-121822570D01*
X121095519Y-121822581D01*
X120793258Y-122024545D01*
X120793254Y-122024548D01*
X120565233Y-122211679D01*
X120565233Y-122211680D01*
X122059301Y-123705748D01*
X121957670Y-123779588D01*
X121779588Y-123957670D01*
X121705748Y-124059301D01*
X120211680Y-122565233D01*
X120211679Y-122565233D01*
X120024548Y-122793254D01*
X120024545Y-122793258D01*
X119822581Y-123095519D01*
X119822570Y-123095537D01*
X119651209Y-123416130D01*
X119651207Y-123416135D01*
X119512086Y-123752002D01*
X119406553Y-124099898D01*
X119406550Y-124099909D01*
X119335632Y-124456443D01*
X119300000Y-124818234D01*
X118500500Y-124818234D01*
X118500500Y-120611304D01*
X138099500Y-120611304D01*
X138099500Y-120788695D01*
X138134103Y-120962658D01*
X138134106Y-120962667D01*
X138201983Y-121126540D01*
X138201990Y-121126553D01*
X138300535Y-121274034D01*
X138300538Y-121274038D01*
X138425961Y-121399461D01*
X138425965Y-121399464D01*
X138573446Y-121498009D01*
X138573459Y-121498016D01*
X138670737Y-121538309D01*
X138737334Y-121565894D01*
X138737336Y-121565894D01*
X138737341Y-121565896D01*
X138911304Y-121600499D01*
X138911307Y-121600500D01*
X138911309Y-121600500D01*
X139088693Y-121600500D01*
X139198789Y-121578600D01*
X139230093Y-121572373D01*
X139299685Y-121578600D01*
X139354862Y-121621463D01*
X139368846Y-121646538D01*
X139401983Y-121726540D01*
X139401990Y-121726553D01*
X139500535Y-121874034D01*
X139500538Y-121874038D01*
X139625961Y-121999461D01*
X139625965Y-121999464D01*
X139773446Y-122098009D01*
X139773459Y-122098016D01*
X139896363Y-122148923D01*
X139937334Y-122165894D01*
X139937336Y-122165894D01*
X139937341Y-122165896D01*
X140111304Y-122200499D01*
X140111307Y-122200500D01*
X140111309Y-122200500D01*
X140288693Y-122200500D01*
X140288694Y-122200499D01*
X140346682Y-122188964D01*
X140462658Y-122165896D01*
X140462661Y-122165894D01*
X140462666Y-122165894D01*
X140626547Y-122098013D01*
X140774035Y-121999464D01*
X140899464Y-121874035D01*
X140998013Y-121726547D01*
X141065894Y-121562666D01*
X141078755Y-121498013D01*
X141096947Y-121406553D01*
X141100500Y-121388691D01*
X141100500Y-121211309D01*
X141098646Y-121201990D01*
X141090483Y-121160953D01*
X141096710Y-121091361D01*
X141124416Y-121049082D01*
X141199464Y-120974035D01*
X141298013Y-120826547D01*
X141363785Y-120667755D01*
X141407624Y-120613355D01*
X141473918Y-120591289D01*
X141541617Y-120608568D01*
X141589228Y-120659704D01*
X141599962Y-120691018D01*
X141634104Y-120862659D01*
X141634106Y-120862667D01*
X141701983Y-121026540D01*
X141701990Y-121026553D01*
X141800535Y-121174034D01*
X141800538Y-121174038D01*
X141925961Y-121299461D01*
X141925965Y-121299464D01*
X142073446Y-121398009D01*
X142073459Y-121398016D01*
X142196363Y-121448923D01*
X142237334Y-121465894D01*
X142237336Y-121465894D01*
X142237341Y-121465896D01*
X142411304Y-121500499D01*
X142411307Y-121500500D01*
X142411309Y-121500500D01*
X142588693Y-121500500D01*
X142588694Y-121500499D01*
X142646682Y-121488964D01*
X142762658Y-121465896D01*
X142762661Y-121465894D01*
X142762666Y-121465894D01*
X142926547Y-121398013D01*
X143074035Y-121299464D01*
X143122876Y-121250623D01*
X143184199Y-121217137D01*
X143253890Y-121222121D01*
X143279445Y-121235198D01*
X143373453Y-121298013D01*
X143373455Y-121298014D01*
X143373459Y-121298016D01*
X143464274Y-121335632D01*
X143537334Y-121365894D01*
X143537336Y-121365894D01*
X143537341Y-121365896D01*
X143711304Y-121400499D01*
X143711307Y-121400500D01*
X143711309Y-121400500D01*
X143888693Y-121400500D01*
X143888694Y-121400499D01*
X143948058Y-121388691D01*
X144062658Y-121365896D01*
X144062661Y-121365894D01*
X144062666Y-121365894D01*
X144226547Y-121298013D01*
X144374035Y-121199464D01*
X144499464Y-121074035D01*
X144598013Y-120926547D01*
X144665894Y-120762666D01*
X144700500Y-120588691D01*
X144700500Y-120411309D01*
X144700500Y-120411306D01*
X144700499Y-120411304D01*
X144665896Y-120237341D01*
X144665893Y-120237332D01*
X144598016Y-120073459D01*
X144598009Y-120073446D01*
X144499464Y-119925965D01*
X144499461Y-119925961D01*
X144374038Y-119800538D01*
X144374034Y-119800535D01*
X144236024Y-119708319D01*
X144236023Y-119708318D01*
X144226554Y-119701991D01*
X144226540Y-119701983D01*
X144062667Y-119634106D01*
X144062658Y-119634103D01*
X143948038Y-119611304D01*
X145399500Y-119611304D01*
X145399500Y-119788695D01*
X145434103Y-119962658D01*
X145434106Y-119962667D01*
X145501983Y-120126540D01*
X145501990Y-120126553D01*
X145600535Y-120274034D01*
X145600538Y-120274038D01*
X145725961Y-120399461D01*
X145725965Y-120399464D01*
X145873446Y-120498009D01*
X145873459Y-120498016D01*
X145996363Y-120548923D01*
X146037334Y-120565894D01*
X146037336Y-120565894D01*
X146037341Y-120565896D01*
X146211304Y-120600499D01*
X146211307Y-120600500D01*
X146211309Y-120600500D01*
X146388693Y-120600500D01*
X146388694Y-120600499D01*
X146448058Y-120588691D01*
X146562658Y-120565896D01*
X146562661Y-120565894D01*
X146562666Y-120565894D01*
X146726547Y-120498013D01*
X146874035Y-120399464D01*
X146999464Y-120274035D01*
X147098013Y-120126547D01*
X147165894Y-119962666D01*
X147168776Y-119948180D01*
X147193086Y-119825961D01*
X147200500Y-119788691D01*
X147200500Y-119611309D01*
X147200500Y-119611306D01*
X147200499Y-119611304D01*
X147165896Y-119437341D01*
X147165893Y-119437332D01*
X147098016Y-119273459D01*
X147098009Y-119273446D01*
X146999464Y-119125965D01*
X146999461Y-119125961D01*
X146874038Y-119000538D01*
X146874034Y-119000535D01*
X146807526Y-118956095D01*
X146762721Y-118902482D01*
X146754014Y-118833157D01*
X146784169Y-118770130D01*
X146828962Y-118738433D01*
X146926547Y-118698013D01*
X147074035Y-118599464D01*
X147199464Y-118474035D01*
X147298013Y-118326547D01*
X147365894Y-118162666D01*
X147400500Y-117988691D01*
X147400500Y-117811309D01*
X147400500Y-117811306D01*
X147400499Y-117811304D01*
X147365896Y-117637341D01*
X147365893Y-117637332D01*
X147298016Y-117473459D01*
X147298009Y-117473446D01*
X147199464Y-117325965D01*
X147199461Y-117325961D01*
X147074038Y-117200538D01*
X147074034Y-117200535D01*
X146926553Y-117101990D01*
X146926540Y-117101983D01*
X146762667Y-117034106D01*
X146762658Y-117034103D01*
X146588694Y-116999500D01*
X146588691Y-116999500D01*
X146411309Y-116999500D01*
X146411306Y-116999500D01*
X146237341Y-117034103D01*
X146237332Y-117034106D01*
X146073459Y-117101983D01*
X146073446Y-117101990D01*
X145925965Y-117200535D01*
X145925961Y-117200538D01*
X145800538Y-117325961D01*
X145800535Y-117325965D01*
X145701990Y-117473446D01*
X145701983Y-117473459D01*
X145634106Y-117637332D01*
X145634103Y-117637341D01*
X145599500Y-117811304D01*
X145599500Y-117988695D01*
X145634103Y-118162658D01*
X145634106Y-118162667D01*
X145701983Y-118326540D01*
X145701990Y-118326553D01*
X145800535Y-118474034D01*
X145800538Y-118474038D01*
X145925961Y-118599461D01*
X145925965Y-118599464D01*
X145992473Y-118643904D01*
X146037278Y-118697517D01*
X146045985Y-118766842D01*
X146015830Y-118829869D01*
X145971035Y-118861567D01*
X145873455Y-118901985D01*
X145873446Y-118901990D01*
X145725965Y-119000535D01*
X145725961Y-119000538D01*
X145600538Y-119125961D01*
X145600535Y-119125965D01*
X145501990Y-119273446D01*
X145501983Y-119273459D01*
X145434106Y-119437332D01*
X145434103Y-119437341D01*
X145399500Y-119611304D01*
X143948038Y-119611304D01*
X143888694Y-119599500D01*
X143888691Y-119599500D01*
X143711309Y-119599500D01*
X143711306Y-119599500D01*
X143537341Y-119634103D01*
X143537332Y-119634106D01*
X143373459Y-119701983D01*
X143373446Y-119701990D01*
X143225965Y-119800535D01*
X143225960Y-119800539D01*
X143177121Y-119849378D01*
X143115798Y-119882862D01*
X143046106Y-119877877D01*
X143020550Y-119864798D01*
X142926552Y-119801990D01*
X142926540Y-119801983D01*
X142762667Y-119734106D01*
X142762658Y-119734103D01*
X142588694Y-119699500D01*
X142588691Y-119699500D01*
X142411309Y-119699500D01*
X142411306Y-119699500D01*
X142237341Y-119734103D01*
X142237332Y-119734106D01*
X142073459Y-119801983D01*
X142073446Y-119801990D01*
X141925965Y-119900535D01*
X141925961Y-119900538D01*
X141800538Y-120025961D01*
X141800535Y-120025965D01*
X141701990Y-120173446D01*
X141701983Y-120173459D01*
X141636215Y-120332241D01*
X141592374Y-120386645D01*
X141526080Y-120408710D01*
X141458381Y-120391431D01*
X141410770Y-120340294D01*
X141400037Y-120308980D01*
X141365896Y-120137341D01*
X141365893Y-120137332D01*
X141298016Y-119973459D01*
X141298009Y-119973446D01*
X141199464Y-119825965D01*
X141199461Y-119825961D01*
X141074038Y-119700538D01*
X141074034Y-119700535D01*
X140926553Y-119601990D01*
X140926540Y-119601983D01*
X140762667Y-119534106D01*
X140762658Y-119534103D01*
X140588694Y-119499500D01*
X140588691Y-119499500D01*
X140411309Y-119499500D01*
X140411306Y-119499500D01*
X140237341Y-119534103D01*
X140237332Y-119534106D01*
X140073459Y-119601983D01*
X140073446Y-119601990D01*
X139925965Y-119700535D01*
X139925961Y-119700538D01*
X139800538Y-119825961D01*
X139800535Y-119825965D01*
X139718873Y-119948180D01*
X139665260Y-119992985D01*
X139595935Y-120001692D01*
X139546880Y-119982391D01*
X139426553Y-119901990D01*
X139426540Y-119901983D01*
X139262667Y-119834106D01*
X139262658Y-119834103D01*
X139088694Y-119799500D01*
X139088691Y-119799500D01*
X138911309Y-119799500D01*
X138911306Y-119799500D01*
X138737341Y-119834103D01*
X138737332Y-119834106D01*
X138573459Y-119901983D01*
X138573446Y-119901990D01*
X138425965Y-120000535D01*
X138425961Y-120000538D01*
X138300538Y-120125961D01*
X138300535Y-120125965D01*
X138201990Y-120273446D01*
X138201983Y-120273459D01*
X138134106Y-120437332D01*
X138134103Y-120437341D01*
X138099500Y-120611304D01*
X118500500Y-120611304D01*
X118500500Y-114911304D01*
X146699500Y-114911304D01*
X146699500Y-115088695D01*
X146734103Y-115262658D01*
X146734106Y-115262667D01*
X146801983Y-115426540D01*
X146801990Y-115426553D01*
X146900535Y-115574034D01*
X146900538Y-115574038D01*
X147025961Y-115699461D01*
X147025965Y-115699464D01*
X147173446Y-115798009D01*
X147173459Y-115798016D01*
X147296363Y-115848923D01*
X147337334Y-115865894D01*
X147337336Y-115865894D01*
X147337341Y-115865896D01*
X147511304Y-115900499D01*
X147511307Y-115900500D01*
X147511309Y-115900500D01*
X147688693Y-115900500D01*
X147688694Y-115900499D01*
X147746682Y-115888964D01*
X147862658Y-115865896D01*
X147862661Y-115865894D01*
X147862666Y-115865894D01*
X148026547Y-115798013D01*
X148174035Y-115699464D01*
X148299464Y-115574035D01*
X148398013Y-115426547D01*
X148465894Y-115262666D01*
X148500500Y-115088691D01*
X148500500Y-114911309D01*
X148500500Y-114911306D01*
X148500499Y-114911304D01*
X148465896Y-114737341D01*
X148465893Y-114737332D01*
X148398016Y-114573459D01*
X148398009Y-114573446D01*
X148299464Y-114425965D01*
X148299461Y-114425961D01*
X148174038Y-114300538D01*
X148174034Y-114300535D01*
X148026553Y-114201990D01*
X148026540Y-114201983D01*
X147862667Y-114134106D01*
X147862658Y-114134103D01*
X147688694Y-114099500D01*
X147688691Y-114099500D01*
X147511309Y-114099500D01*
X147511306Y-114099500D01*
X147337341Y-114134103D01*
X147337332Y-114134106D01*
X147173459Y-114201983D01*
X147173446Y-114201990D01*
X147025965Y-114300535D01*
X147025961Y-114300538D01*
X146900538Y-114425961D01*
X146900535Y-114425965D01*
X146801990Y-114573446D01*
X146801983Y-114573459D01*
X146734106Y-114737332D01*
X146734103Y-114737341D01*
X146699500Y-114911304D01*
X118500500Y-114911304D01*
X118500500Y-112911304D01*
X146199500Y-112911304D01*
X146199500Y-113088695D01*
X146234103Y-113262658D01*
X146234106Y-113262667D01*
X146301983Y-113426540D01*
X146301990Y-113426553D01*
X146400535Y-113574034D01*
X146400538Y-113574038D01*
X146525961Y-113699461D01*
X146525965Y-113699464D01*
X146673446Y-113798009D01*
X146673459Y-113798016D01*
X146796363Y-113848923D01*
X146837334Y-113865894D01*
X146837336Y-113865894D01*
X146837341Y-113865896D01*
X147011304Y-113900499D01*
X147011307Y-113900500D01*
X147011309Y-113900500D01*
X147188693Y-113900500D01*
X147188694Y-113900499D01*
X147246682Y-113888964D01*
X147362658Y-113865896D01*
X147362661Y-113865894D01*
X147362666Y-113865894D01*
X147526547Y-113798013D01*
X147674035Y-113699464D01*
X147799464Y-113574035D01*
X147898013Y-113426547D01*
X147965894Y-113262666D01*
X148000500Y-113088691D01*
X148000500Y-112911309D01*
X148000500Y-112911306D01*
X148000499Y-112911304D01*
X147965896Y-112737341D01*
X147965893Y-112737332D01*
X147898016Y-112573459D01*
X147898009Y-112573446D01*
X147799464Y-112425965D01*
X147799461Y-112425961D01*
X147674038Y-112300538D01*
X147674034Y-112300535D01*
X147526553Y-112201990D01*
X147526540Y-112201983D01*
X147362667Y-112134106D01*
X147362658Y-112134103D01*
X147188694Y-112099500D01*
X147188691Y-112099500D01*
X147011309Y-112099500D01*
X147011306Y-112099500D01*
X146837341Y-112134103D01*
X146837332Y-112134106D01*
X146673459Y-112201983D01*
X146673446Y-112201990D01*
X146525965Y-112300535D01*
X146525961Y-112300538D01*
X146400538Y-112425961D01*
X146400535Y-112425965D01*
X146301990Y-112573446D01*
X146301983Y-112573459D01*
X146234106Y-112737332D01*
X146234103Y-112737341D01*
X146199500Y-112911304D01*
X118500500Y-112911304D01*
X118500500Y-107011304D01*
X137399500Y-107011304D01*
X137399500Y-107188695D01*
X137434103Y-107362658D01*
X137434106Y-107362667D01*
X137501983Y-107526540D01*
X137501990Y-107526553D01*
X137600535Y-107674034D01*
X137600538Y-107674038D01*
X137725961Y-107799461D01*
X137725965Y-107799464D01*
X137873446Y-107898009D01*
X137873459Y-107898016D01*
X137996363Y-107948923D01*
X138037334Y-107965894D01*
X138037336Y-107965894D01*
X138037341Y-107965896D01*
X138211304Y-108000499D01*
X138211307Y-108000500D01*
X138211309Y-108000500D01*
X138388693Y-108000500D01*
X138388694Y-108000499D01*
X138446682Y-107988964D01*
X138562658Y-107965896D01*
X138562661Y-107965894D01*
X138562666Y-107965894D01*
X138726547Y-107898013D01*
X138760604Y-107875256D01*
X138827278Y-107854377D01*
X138894659Y-107872860D01*
X138917176Y-107890676D01*
X138925961Y-107899461D01*
X138925965Y-107899464D01*
X139073446Y-107998009D01*
X139073459Y-107998016D01*
X139196363Y-108048923D01*
X139237334Y-108065894D01*
X139237336Y-108065894D01*
X139237341Y-108065896D01*
X139411304Y-108100499D01*
X139411307Y-108100500D01*
X139411309Y-108100500D01*
X139588693Y-108100500D01*
X139588694Y-108100499D01*
X139646682Y-108088964D01*
X139762658Y-108065896D01*
X139762661Y-108065894D01*
X139762666Y-108065894D01*
X139926547Y-107998013D01*
X140074035Y-107899464D01*
X140199464Y-107774035D01*
X140241380Y-107711304D01*
X146299500Y-107711304D01*
X146299500Y-107888695D01*
X146334103Y-108062658D01*
X146334106Y-108062667D01*
X146401983Y-108226540D01*
X146401990Y-108226553D01*
X146500535Y-108374034D01*
X146500538Y-108374038D01*
X146625961Y-108499461D01*
X146625965Y-108499464D01*
X146773446Y-108598009D01*
X146773459Y-108598016D01*
X146896363Y-108648923D01*
X146937334Y-108665894D01*
X146937336Y-108665894D01*
X146937341Y-108665896D01*
X147111304Y-108700499D01*
X147111307Y-108700500D01*
X147111309Y-108700500D01*
X147288693Y-108700500D01*
X147288694Y-108700499D01*
X147346682Y-108688964D01*
X147462658Y-108665896D01*
X147462661Y-108665894D01*
X147462666Y-108665894D01*
X147626547Y-108598013D01*
X147774035Y-108499464D01*
X147899464Y-108374035D01*
X147998013Y-108226547D01*
X148065894Y-108062666D01*
X148078755Y-107998013D01*
X148098646Y-107898012D01*
X148100500Y-107888691D01*
X148100500Y-107711309D01*
X148100500Y-107711306D01*
X148100499Y-107711304D01*
X148065896Y-107537341D01*
X148065893Y-107537332D01*
X147998016Y-107373459D01*
X147998009Y-107373446D01*
X147899464Y-107225965D01*
X147899461Y-107225961D01*
X147774038Y-107100538D01*
X147774034Y-107100535D01*
X147626553Y-107001990D01*
X147626540Y-107001983D01*
X147462667Y-106934106D01*
X147462658Y-106934103D01*
X147288694Y-106899500D01*
X147288691Y-106899500D01*
X147111309Y-106899500D01*
X147111306Y-106899500D01*
X146937341Y-106934103D01*
X146937332Y-106934106D01*
X146773459Y-107001983D01*
X146773446Y-107001990D01*
X146625965Y-107100535D01*
X146625961Y-107100538D01*
X146500538Y-107225961D01*
X146500535Y-107225965D01*
X146401990Y-107373446D01*
X146401983Y-107373459D01*
X146334106Y-107537332D01*
X146334103Y-107537341D01*
X146299500Y-107711304D01*
X140241380Y-107711304D01*
X140298013Y-107626547D01*
X140365894Y-107462666D01*
X140383639Y-107373459D01*
X140391564Y-107333617D01*
X140400500Y-107288691D01*
X140400500Y-107111309D01*
X140400500Y-107111306D01*
X140400499Y-107111304D01*
X140365896Y-106937341D01*
X140365893Y-106937332D01*
X140298016Y-106773459D01*
X140298009Y-106773446D01*
X140199464Y-106625965D01*
X140199461Y-106625961D01*
X140074038Y-106500538D01*
X140074034Y-106500535D01*
X139985636Y-106441469D01*
X139985617Y-106441457D01*
X139926547Y-106401987D01*
X139926540Y-106401983D01*
X139787573Y-106344422D01*
X144223254Y-106344422D01*
X144223254Y-106521813D01*
X144257857Y-106695776D01*
X144257860Y-106695785D01*
X144325737Y-106859658D01*
X144325744Y-106859671D01*
X144424289Y-107007152D01*
X144424292Y-107007156D01*
X144549715Y-107132579D01*
X144549719Y-107132582D01*
X144697200Y-107231127D01*
X144697213Y-107231134D01*
X144820117Y-107282041D01*
X144861088Y-107299012D01*
X144861090Y-107299012D01*
X144861095Y-107299014D01*
X145035058Y-107333617D01*
X145035061Y-107333618D01*
X145035063Y-107333618D01*
X145212447Y-107333618D01*
X145212448Y-107333617D01*
X145270436Y-107322082D01*
X145386412Y-107299014D01*
X145386415Y-107299012D01*
X145386420Y-107299012D01*
X145550301Y-107231131D01*
X145697789Y-107132582D01*
X145823218Y-107007153D01*
X145921767Y-106859665D01*
X145989648Y-106695784D01*
X145994092Y-106673446D01*
X146024253Y-106521813D01*
X146024254Y-106521811D01*
X146024254Y-106344424D01*
X146024253Y-106344422D01*
X145989650Y-106170459D01*
X145989647Y-106170450D01*
X145921770Y-106006577D01*
X145921763Y-106006564D01*
X145823218Y-105859083D01*
X145823215Y-105859079D01*
X145697792Y-105733656D01*
X145697788Y-105733653D01*
X145550307Y-105635108D01*
X145550294Y-105635101D01*
X145386421Y-105567224D01*
X145386412Y-105567221D01*
X145212448Y-105532618D01*
X145212445Y-105532618D01*
X145035063Y-105532618D01*
X145035060Y-105532618D01*
X144861095Y-105567221D01*
X144861086Y-105567224D01*
X144697213Y-105635101D01*
X144697200Y-105635108D01*
X144549719Y-105733653D01*
X144549715Y-105733656D01*
X144424292Y-105859079D01*
X144424289Y-105859083D01*
X144325744Y-106006564D01*
X144325737Y-106006577D01*
X144257860Y-106170450D01*
X144257857Y-106170459D01*
X144223254Y-106344422D01*
X139787573Y-106344422D01*
X139762667Y-106334106D01*
X139762658Y-106334103D01*
X139588694Y-106299500D01*
X139588691Y-106299500D01*
X139411309Y-106299500D01*
X139411306Y-106299500D01*
X139237341Y-106334103D01*
X139237332Y-106334106D01*
X139073460Y-106401983D01*
X139073446Y-106401991D01*
X139039391Y-106424745D01*
X138972713Y-106445621D01*
X138905333Y-106427135D01*
X138882822Y-106409322D01*
X138874038Y-106400538D01*
X138874034Y-106400535D01*
X138726553Y-106301990D01*
X138726540Y-106301983D01*
X138562667Y-106234106D01*
X138562658Y-106234103D01*
X138388694Y-106199500D01*
X138388691Y-106199500D01*
X138211309Y-106199500D01*
X138211306Y-106199500D01*
X138037341Y-106234103D01*
X138037332Y-106234106D01*
X137873459Y-106301983D01*
X137873446Y-106301990D01*
X137725965Y-106400535D01*
X137725961Y-106400538D01*
X137600538Y-106525961D01*
X137600535Y-106525965D01*
X137501990Y-106673446D01*
X137501983Y-106673459D01*
X137434106Y-106837332D01*
X137434103Y-106837341D01*
X137399500Y-107011304D01*
X118500500Y-107011304D01*
X118500500Y-104070000D01*
X119355138Y-104070000D01*
X120158012Y-104070000D01*
X120140795Y-104079940D01*
X120084940Y-104135795D01*
X120045444Y-104204204D01*
X120025000Y-104280504D01*
X120025000Y-104359496D01*
X120045444Y-104435796D01*
X120084940Y-104504205D01*
X120140795Y-104560060D01*
X120158012Y-104570000D01*
X119355138Y-104570000D01*
X119363430Y-104611690D01*
X119363430Y-104611692D01*
X119438807Y-104793671D01*
X119438814Y-104793684D01*
X119548248Y-104957462D01*
X119548251Y-104957466D01*
X119687533Y-105096748D01*
X119687537Y-105096751D01*
X119851315Y-105206185D01*
X119851328Y-105206192D01*
X120033306Y-105281569D01*
X120033318Y-105281572D01*
X120226504Y-105319999D01*
X120226508Y-105320000D01*
X120375000Y-105320000D01*
X120375000Y-104620000D01*
X120875000Y-104620000D01*
X120875000Y-105320000D01*
X121023492Y-105320000D01*
X121023495Y-105319999D01*
X121216681Y-105281572D01*
X121216693Y-105281569D01*
X121398671Y-105206192D01*
X121398684Y-105206185D01*
X121562462Y-105096751D01*
X121562466Y-105096748D01*
X121701748Y-104957466D01*
X121701751Y-104957462D01*
X121811185Y-104793684D01*
X121811192Y-104793671D01*
X121886569Y-104611692D01*
X121886569Y-104611690D01*
X121894862Y-104570000D01*
X121091988Y-104570000D01*
X121109205Y-104560060D01*
X121165060Y-104504205D01*
X121204556Y-104435796D01*
X121225000Y-104359496D01*
X121225000Y-104280504D01*
X121204556Y-104204204D01*
X121165060Y-104135795D01*
X121109205Y-104079940D01*
X121091988Y-104070000D01*
X121894862Y-104070000D01*
X123285138Y-104070000D01*
X124088012Y-104070000D01*
X124070795Y-104079940D01*
X124014940Y-104135795D01*
X123975444Y-104204204D01*
X123955000Y-104280504D01*
X123955000Y-104359496D01*
X123975444Y-104435796D01*
X124014940Y-104504205D01*
X124070795Y-104560060D01*
X124088012Y-104570000D01*
X123285138Y-104570000D01*
X123293430Y-104611690D01*
X123293430Y-104611692D01*
X123368807Y-104793671D01*
X123368814Y-104793684D01*
X123478248Y-104957462D01*
X123478251Y-104957466D01*
X123617533Y-105096748D01*
X123617537Y-105096751D01*
X123781315Y-105206185D01*
X123781328Y-105206192D01*
X123963306Y-105281569D01*
X123963318Y-105281572D01*
X124156504Y-105319999D01*
X124156508Y-105320000D01*
X124555000Y-105320000D01*
X124555000Y-104620000D01*
X125055000Y-104620000D01*
X125055000Y-105320000D01*
X125453492Y-105320000D01*
X125453495Y-105319999D01*
X125646681Y-105281572D01*
X125646693Y-105281569D01*
X125828671Y-105206192D01*
X125828684Y-105206185D01*
X125992462Y-105096751D01*
X125992466Y-105096748D01*
X126077910Y-105011304D01*
X146799500Y-105011304D01*
X146799500Y-105188695D01*
X146834103Y-105362658D01*
X146834106Y-105362667D01*
X146901983Y-105526540D01*
X146901990Y-105526553D01*
X147000535Y-105674034D01*
X147000538Y-105674038D01*
X147125961Y-105799461D01*
X147125965Y-105799464D01*
X147273446Y-105898009D01*
X147273459Y-105898016D01*
X147396363Y-105948923D01*
X147437334Y-105965894D01*
X147437336Y-105965894D01*
X147437341Y-105965896D01*
X147611304Y-106000499D01*
X147611307Y-106000500D01*
X147611309Y-106000500D01*
X147788693Y-106000500D01*
X147788694Y-106000499D01*
X147846682Y-105988964D01*
X147962658Y-105965896D01*
X147962661Y-105965894D01*
X147962666Y-105965894D01*
X148126547Y-105898013D01*
X148274035Y-105799464D01*
X148399464Y-105674035D01*
X148498013Y-105526547D01*
X148565894Y-105362666D01*
X148600500Y-105188691D01*
X148600500Y-105011309D01*
X148600500Y-105011306D01*
X148584209Y-104929409D01*
X148584209Y-104929408D01*
X148580608Y-104911304D01*
X149599500Y-104911304D01*
X149599500Y-105088695D01*
X149634103Y-105262658D01*
X149634106Y-105262667D01*
X149701983Y-105426540D01*
X149701990Y-105426553D01*
X149800535Y-105574034D01*
X149800538Y-105574038D01*
X149925961Y-105699461D01*
X149925965Y-105699464D01*
X150073446Y-105798009D01*
X150073459Y-105798016D01*
X150196363Y-105848923D01*
X150237334Y-105865894D01*
X150237336Y-105865894D01*
X150237341Y-105865896D01*
X150411304Y-105900499D01*
X150411307Y-105900500D01*
X150411309Y-105900500D01*
X150588693Y-105900500D01*
X150588694Y-105900499D01*
X150646682Y-105888964D01*
X150762658Y-105865896D01*
X150762661Y-105865894D01*
X150762666Y-105865894D01*
X150926547Y-105798013D01*
X151074035Y-105699464D01*
X151199464Y-105574035D01*
X151298013Y-105426547D01*
X151365894Y-105262666D01*
X151377128Y-105206192D01*
X151400499Y-105088695D01*
X151400500Y-105088693D01*
X151400500Y-104911306D01*
X151400499Y-104911304D01*
X151365896Y-104737341D01*
X151365893Y-104737332D01*
X151298016Y-104573459D01*
X151298009Y-104573446D01*
X151199464Y-104425965D01*
X151199461Y-104425961D01*
X151074038Y-104300538D01*
X151074034Y-104300535D01*
X150926553Y-104201990D01*
X150926540Y-104201983D01*
X150762667Y-104134106D01*
X150762658Y-104134103D01*
X150588694Y-104099500D01*
X150588691Y-104099500D01*
X150411309Y-104099500D01*
X150411306Y-104099500D01*
X150237341Y-104134103D01*
X150237332Y-104134106D01*
X150073459Y-104201983D01*
X150073446Y-104201990D01*
X149925965Y-104300535D01*
X149925961Y-104300538D01*
X149800538Y-104425961D01*
X149800535Y-104425965D01*
X149701990Y-104573446D01*
X149701983Y-104573459D01*
X149634106Y-104737332D01*
X149634103Y-104737341D01*
X149599500Y-104911304D01*
X148580608Y-104911304D01*
X148565896Y-104837341D01*
X148565893Y-104837332D01*
X148498016Y-104673459D01*
X148498009Y-104673446D01*
X148399464Y-104525965D01*
X148399461Y-104525961D01*
X148274038Y-104400538D01*
X148274034Y-104400535D01*
X148126553Y-104301990D01*
X148126540Y-104301983D01*
X147962667Y-104234106D01*
X147962658Y-104234103D01*
X147788694Y-104199500D01*
X147788691Y-104199500D01*
X147611309Y-104199500D01*
X147611306Y-104199500D01*
X147437341Y-104234103D01*
X147437332Y-104234106D01*
X147273459Y-104301983D01*
X147273446Y-104301990D01*
X147125965Y-104400535D01*
X147125961Y-104400538D01*
X147000538Y-104525961D01*
X147000535Y-104525965D01*
X146901990Y-104673446D01*
X146901983Y-104673459D01*
X146834106Y-104837332D01*
X146834103Y-104837341D01*
X146799500Y-105011304D01*
X126077910Y-105011304D01*
X126131748Y-104957466D01*
X126145875Y-104936325D01*
X126145876Y-104936323D01*
X126241185Y-104793684D01*
X126241192Y-104793671D01*
X126316569Y-104611692D01*
X126316569Y-104611690D01*
X126324862Y-104570000D01*
X125521988Y-104570000D01*
X125539205Y-104560060D01*
X125595060Y-104504205D01*
X125634556Y-104435796D01*
X125655000Y-104359496D01*
X125655000Y-104280504D01*
X125634556Y-104204204D01*
X125595060Y-104135795D01*
X125539205Y-104079940D01*
X125521988Y-104070000D01*
X126324862Y-104070000D01*
X126316569Y-104028309D01*
X126316569Y-104028307D01*
X126241192Y-103846328D01*
X126241185Y-103846315D01*
X126131751Y-103682537D01*
X126131748Y-103682533D01*
X125992466Y-103543251D01*
X125992462Y-103543248D01*
X125828684Y-103433814D01*
X125828671Y-103433807D01*
X125646693Y-103358430D01*
X125646681Y-103358427D01*
X125453495Y-103320000D01*
X125055000Y-103320000D01*
X125055000Y-104020000D01*
X124555000Y-104020000D01*
X124555000Y-103481784D01*
X124574685Y-103414745D01*
X124617000Y-103374397D01*
X124658365Y-103350515D01*
X124765515Y-103243365D01*
X124766372Y-103241879D01*
X124786721Y-103206637D01*
X124841279Y-103112138D01*
X124841281Y-103112135D01*
X124880500Y-102965766D01*
X124880500Y-102814234D01*
X124841281Y-102667865D01*
X124765515Y-102536635D01*
X124658365Y-102429485D01*
X124587708Y-102388691D01*
X124527136Y-102353719D01*
X124453950Y-102334109D01*
X124380766Y-102314500D01*
X124229234Y-102314500D01*
X124082863Y-102353719D01*
X123951635Y-102429485D01*
X123951632Y-102429487D01*
X123844487Y-102536632D01*
X123844485Y-102536635D01*
X123768719Y-102667863D01*
X123736344Y-102788691D01*
X123729500Y-102814234D01*
X123729500Y-102965766D01*
X123738529Y-102999464D01*
X123768719Y-103112136D01*
X123777043Y-103126553D01*
X123844485Y-103243365D01*
X123844486Y-103243366D01*
X123848549Y-103250403D01*
X123846346Y-103251674D01*
X123866959Y-103304983D01*
X123852923Y-103373428D01*
X123804112Y-103423420D01*
X123790845Y-103429866D01*
X123781324Y-103433809D01*
X123781315Y-103433814D01*
X123617537Y-103543248D01*
X123617533Y-103543251D01*
X123478251Y-103682533D01*
X123478248Y-103682537D01*
X123368814Y-103846315D01*
X123368807Y-103846328D01*
X123293430Y-104028307D01*
X123293430Y-104028309D01*
X123285138Y-104070000D01*
X121894862Y-104070000D01*
X121886569Y-104028309D01*
X121886569Y-104028307D01*
X121811192Y-103846328D01*
X121811185Y-103846315D01*
X121701751Y-103682537D01*
X121701748Y-103682533D01*
X121562466Y-103543251D01*
X121562462Y-103543248D01*
X121398684Y-103433814D01*
X121398671Y-103433807D01*
X121216693Y-103358430D01*
X121216681Y-103358427D01*
X121023495Y-103320000D01*
X120875000Y-103320000D01*
X120875000Y-104020000D01*
X120375000Y-104020000D01*
X120375000Y-103320000D01*
X120226504Y-103320000D01*
X120033318Y-103358427D01*
X120033306Y-103358430D01*
X119851328Y-103433807D01*
X119851315Y-103433814D01*
X119687537Y-103543248D01*
X119687533Y-103543251D01*
X119548251Y-103682533D01*
X119548248Y-103682537D01*
X119438814Y-103846315D01*
X119438807Y-103846328D01*
X119363430Y-104028307D01*
X119363430Y-104028309D01*
X119355138Y-104070000D01*
X118500500Y-104070000D01*
X118500500Y-95430000D01*
X119355138Y-95430000D01*
X120158012Y-95430000D01*
X120140795Y-95439940D01*
X120084940Y-95495795D01*
X120045444Y-95564204D01*
X120025000Y-95640504D01*
X120025000Y-95719496D01*
X120045444Y-95795796D01*
X120084940Y-95864205D01*
X120140795Y-95920060D01*
X120158012Y-95930000D01*
X119355138Y-95930000D01*
X119363430Y-95971690D01*
X119363430Y-95971692D01*
X119438807Y-96153671D01*
X119438814Y-96153684D01*
X119548248Y-96317462D01*
X119548251Y-96317466D01*
X119687533Y-96456748D01*
X119687537Y-96456751D01*
X119851315Y-96566185D01*
X119851328Y-96566192D01*
X120033306Y-96641569D01*
X120033318Y-96641572D01*
X120226504Y-96679999D01*
X120226508Y-96680000D01*
X120375000Y-96680000D01*
X120375000Y-95980000D01*
X120875000Y-95980000D01*
X120875000Y-96680000D01*
X121023492Y-96680000D01*
X121023495Y-96679999D01*
X121216681Y-96641572D01*
X121216693Y-96641569D01*
X121398671Y-96566192D01*
X121398684Y-96566185D01*
X121562462Y-96456751D01*
X121562466Y-96456748D01*
X121701748Y-96317466D01*
X121701751Y-96317462D01*
X121811185Y-96153684D01*
X121811192Y-96153671D01*
X121886569Y-95971692D01*
X121886569Y-95971690D01*
X121894862Y-95930000D01*
X121091988Y-95930000D01*
X121109205Y-95920060D01*
X121165060Y-95864205D01*
X121204556Y-95795796D01*
X121225000Y-95719496D01*
X121225000Y-95640504D01*
X121204556Y-95564204D01*
X121165060Y-95495795D01*
X121109205Y-95439940D01*
X121091988Y-95430000D01*
X121894862Y-95430000D01*
X123285138Y-95430000D01*
X124088012Y-95430000D01*
X124070795Y-95439940D01*
X124014940Y-95495795D01*
X123975444Y-95564204D01*
X123955000Y-95640504D01*
X123955000Y-95719496D01*
X123975444Y-95795796D01*
X124014940Y-95864205D01*
X124070795Y-95920060D01*
X124088012Y-95930000D01*
X123285138Y-95930000D01*
X123293430Y-95971690D01*
X123293430Y-95971692D01*
X123368807Y-96153671D01*
X123368814Y-96153684D01*
X123478248Y-96317462D01*
X123478251Y-96317466D01*
X123617533Y-96456748D01*
X123617537Y-96456751D01*
X123781315Y-96566185D01*
X123781328Y-96566192D01*
X123790838Y-96570131D01*
X123845243Y-96613970D01*
X123867310Y-96680264D01*
X123850033Y-96747963D01*
X123846350Y-96753405D01*
X123768719Y-96887863D01*
X123729500Y-97034234D01*
X123729500Y-97185765D01*
X123768719Y-97332136D01*
X123806602Y-97397750D01*
X123844485Y-97463365D01*
X123951635Y-97570515D01*
X124082865Y-97646281D01*
X124229234Y-97685500D01*
X124229236Y-97685500D01*
X124380764Y-97685500D01*
X124380766Y-97685500D01*
X124527135Y-97646281D01*
X124587717Y-97611304D01*
X126299500Y-97611304D01*
X126299500Y-97788695D01*
X126334103Y-97962658D01*
X126334106Y-97962667D01*
X126401983Y-98126540D01*
X126401990Y-98126553D01*
X126500535Y-98274034D01*
X126500538Y-98274038D01*
X126625961Y-98399461D01*
X126625965Y-98399464D01*
X126773446Y-98498009D01*
X126773459Y-98498016D01*
X126894131Y-98547999D01*
X126948535Y-98591839D01*
X126970600Y-98658133D01*
X126953321Y-98725833D01*
X126915571Y-98765661D01*
X126825967Y-98825533D01*
X126825961Y-98825538D01*
X126700538Y-98950961D01*
X126700535Y-98950965D01*
X126601990Y-99098446D01*
X126601983Y-99098459D01*
X126534106Y-99262332D01*
X126534103Y-99262341D01*
X126499500Y-99436304D01*
X126499500Y-99613695D01*
X126534103Y-99787658D01*
X126534106Y-99787667D01*
X126601983Y-99951540D01*
X126601990Y-99951553D01*
X126700535Y-100099034D01*
X126700538Y-100099038D01*
X126825961Y-100224461D01*
X126825965Y-100224464D01*
X126973446Y-100323009D01*
X126973459Y-100323016D01*
X127068166Y-100362244D01*
X127137334Y-100390894D01*
X127137336Y-100390894D01*
X127137341Y-100390896D01*
X127311304Y-100425499D01*
X127311307Y-100425500D01*
X127394880Y-100425500D01*
X127461919Y-100445185D01*
X127507674Y-100497989D01*
X127517618Y-100567147D01*
X127488593Y-100630703D01*
X127442331Y-100664061D01*
X127439566Y-100665207D01*
X127428154Y-100669933D01*
X127428147Y-100669937D01*
X127280666Y-100768482D01*
X127280662Y-100768485D01*
X127155239Y-100893908D01*
X127155236Y-100893912D01*
X127056691Y-101041393D01*
X127056684Y-101041406D01*
X126988807Y-101205279D01*
X126988804Y-101205288D01*
X126954201Y-101379251D01*
X126954201Y-101385685D01*
X126934516Y-101452724D01*
X126881712Y-101498479D01*
X126877661Y-101500243D01*
X126873458Y-101501984D01*
X126873455Y-101501985D01*
X126725965Y-101600535D01*
X126725961Y-101600538D01*
X126600538Y-101725961D01*
X126600535Y-101725965D01*
X126501990Y-101873446D01*
X126501983Y-101873459D01*
X126434106Y-102037332D01*
X126434103Y-102037341D01*
X126399500Y-102211304D01*
X126399500Y-102388695D01*
X126434103Y-102562658D01*
X126434106Y-102562667D01*
X126501983Y-102726540D01*
X126501990Y-102726553D01*
X126600535Y-102874034D01*
X126600538Y-102874038D01*
X126725961Y-102999461D01*
X126725965Y-102999464D01*
X126873446Y-103098009D01*
X126873459Y-103098016D01*
X126942355Y-103126553D01*
X127037334Y-103165894D01*
X127037336Y-103165894D01*
X127037341Y-103165896D01*
X127211304Y-103200499D01*
X127211307Y-103200500D01*
X127211309Y-103200500D01*
X127388693Y-103200500D01*
X127388694Y-103200499D01*
X127446682Y-103188964D01*
X127562658Y-103165896D01*
X127562661Y-103165894D01*
X127562666Y-103165894D01*
X127726547Y-103098013D01*
X127874035Y-102999464D01*
X127999464Y-102874035D01*
X128098013Y-102726547D01*
X128145748Y-102611304D01*
X133799500Y-102611304D01*
X133799500Y-102788695D01*
X133834103Y-102962658D01*
X133834106Y-102962667D01*
X133901983Y-103126540D01*
X133901990Y-103126553D01*
X134000535Y-103274034D01*
X134000538Y-103274038D01*
X134125961Y-103399461D01*
X134125965Y-103399464D01*
X134273446Y-103498009D01*
X134273459Y-103498016D01*
X134382661Y-103543248D01*
X134437334Y-103565894D01*
X134437336Y-103565894D01*
X134437341Y-103565896D01*
X134611304Y-103600499D01*
X134611307Y-103600500D01*
X134611309Y-103600500D01*
X134788693Y-103600500D01*
X134788694Y-103600499D01*
X134846682Y-103588964D01*
X134962658Y-103565896D01*
X134962661Y-103565894D01*
X134962666Y-103565894D01*
X135126547Y-103498013D01*
X135274035Y-103399464D01*
X135399464Y-103274035D01*
X135498013Y-103126547D01*
X135565894Y-102962666D01*
X135600500Y-102788691D01*
X135600500Y-102611309D01*
X135600500Y-102611306D01*
X135584209Y-102529409D01*
X135584209Y-102529408D01*
X135580608Y-102511304D01*
X153399500Y-102511304D01*
X153399500Y-102688695D01*
X153434103Y-102862658D01*
X153434106Y-102862667D01*
X153501983Y-103026540D01*
X153501990Y-103026553D01*
X153600535Y-103174034D01*
X153600538Y-103174038D01*
X153725961Y-103299461D01*
X153725965Y-103299464D01*
X153873446Y-103398009D01*
X153873459Y-103398016D01*
X153959868Y-103433807D01*
X154037334Y-103465894D01*
X154037336Y-103465894D01*
X154037341Y-103465896D01*
X154211304Y-103500499D01*
X154211307Y-103500500D01*
X154211309Y-103500500D01*
X154388693Y-103500500D01*
X154388694Y-103500499D01*
X154446682Y-103488964D01*
X154562658Y-103465896D01*
X154562661Y-103465894D01*
X154562666Y-103465894D01*
X154726547Y-103398013D01*
X154874035Y-103299464D01*
X154999464Y-103174035D01*
X155098013Y-103026547D01*
X155165894Y-102862666D01*
X155175528Y-102814236D01*
X155200499Y-102688695D01*
X155200500Y-102688693D01*
X155200500Y-102511306D01*
X155200499Y-102511304D01*
X155165896Y-102337341D01*
X155165893Y-102337332D01*
X155098016Y-102173459D01*
X155098009Y-102173446D01*
X154999464Y-102025965D01*
X154999461Y-102025961D01*
X154874038Y-101900538D01*
X154874034Y-101900535D01*
X154726553Y-101801990D01*
X154726540Y-101801983D01*
X154562667Y-101734106D01*
X154562658Y-101734103D01*
X154388694Y-101699500D01*
X154388691Y-101699500D01*
X154211309Y-101699500D01*
X154211306Y-101699500D01*
X154037341Y-101734103D01*
X154037332Y-101734106D01*
X153873459Y-101801983D01*
X153873446Y-101801990D01*
X153725965Y-101900535D01*
X153725961Y-101900538D01*
X153600538Y-102025961D01*
X153600535Y-102025965D01*
X153501990Y-102173446D01*
X153501983Y-102173459D01*
X153434106Y-102337332D01*
X153434103Y-102337341D01*
X153399500Y-102511304D01*
X135580608Y-102511304D01*
X135565896Y-102437341D01*
X135565893Y-102437332D01*
X135498016Y-102273459D01*
X135498009Y-102273446D01*
X135399464Y-102125965D01*
X135399461Y-102125961D01*
X135274038Y-102000538D01*
X135274034Y-102000535D01*
X135126553Y-101901990D01*
X135126540Y-101901983D01*
X134962667Y-101834106D01*
X134962658Y-101834103D01*
X134788694Y-101799500D01*
X134788691Y-101799500D01*
X134611309Y-101799500D01*
X134611306Y-101799500D01*
X134437341Y-101834103D01*
X134437332Y-101834106D01*
X134273459Y-101901983D01*
X134273446Y-101901990D01*
X134125965Y-102000535D01*
X134125961Y-102000538D01*
X134000538Y-102125961D01*
X134000535Y-102125965D01*
X133901990Y-102273446D01*
X133901983Y-102273459D01*
X133834106Y-102437332D01*
X133834103Y-102437341D01*
X133799500Y-102611304D01*
X128145748Y-102611304D01*
X128165894Y-102562666D01*
X128200500Y-102388691D01*
X128200500Y-102370679D01*
X128202645Y-102359297D01*
X128213473Y-102338077D01*
X128220185Y-102315221D01*
X128229063Y-102307528D01*
X128234404Y-102297062D01*
X128254988Y-102285063D01*
X128272989Y-102269466D01*
X128276993Y-102267722D01*
X128281248Y-102265960D01*
X128428736Y-102167411D01*
X128554165Y-102041982D01*
X128652714Y-101894494D01*
X128720595Y-101730613D01*
X128721521Y-101725961D01*
X128755200Y-101556642D01*
X128755201Y-101556640D01*
X128755201Y-101379253D01*
X128755200Y-101379251D01*
X128720597Y-101205288D01*
X128720594Y-101205279D01*
X128652717Y-101041406D01*
X128652710Y-101041393D01*
X128554165Y-100893912D01*
X128554162Y-100893908D01*
X128428739Y-100768485D01*
X128428735Y-100768482D01*
X128281254Y-100669937D01*
X128281241Y-100669930D01*
X128117368Y-100602053D01*
X128117359Y-100602050D01*
X127943395Y-100567447D01*
X127943392Y-100567447D01*
X127859821Y-100567447D01*
X127792782Y-100547762D01*
X127747027Y-100494958D01*
X127737083Y-100425800D01*
X127766108Y-100362244D01*
X127812369Y-100328885D01*
X127826547Y-100323013D01*
X127974035Y-100224464D01*
X128099464Y-100099035D01*
X128198013Y-99951547D01*
X128265894Y-99787666D01*
X128300500Y-99613691D01*
X128300500Y-99436309D01*
X128300500Y-99436306D01*
X128300499Y-99436304D01*
X128265896Y-99262341D01*
X128265893Y-99262332D01*
X128198016Y-99098459D01*
X128198009Y-99098446D01*
X128099464Y-98950965D01*
X128099461Y-98950961D01*
X127974038Y-98825538D01*
X127974034Y-98825535D01*
X127826553Y-98726990D01*
X127826540Y-98726983D01*
X127705868Y-98677000D01*
X127651464Y-98633159D01*
X127629399Y-98566865D01*
X127646678Y-98499166D01*
X127684429Y-98459337D01*
X127774035Y-98399464D01*
X127899461Y-98274038D01*
X127899464Y-98274035D01*
X127998013Y-98126547D01*
X128065894Y-97962666D01*
X128100500Y-97788691D01*
X128100500Y-97611309D01*
X128100500Y-97611306D01*
X128100499Y-97611304D01*
X128065896Y-97437341D01*
X128065893Y-97437332D01*
X127998016Y-97273459D01*
X127998009Y-97273446D01*
X127899464Y-97125965D01*
X127899461Y-97125961D01*
X127774038Y-97000538D01*
X127774034Y-97000535D01*
X127626553Y-96901990D01*
X127626540Y-96901983D01*
X127462667Y-96834106D01*
X127462658Y-96834103D01*
X127288694Y-96799500D01*
X127288691Y-96799500D01*
X127111309Y-96799500D01*
X127111306Y-96799500D01*
X126937341Y-96834103D01*
X126937332Y-96834106D01*
X126773459Y-96901983D01*
X126773446Y-96901990D01*
X126625965Y-97000535D01*
X126625961Y-97000538D01*
X126500538Y-97125961D01*
X126500535Y-97125965D01*
X126401990Y-97273446D01*
X126401983Y-97273459D01*
X126334106Y-97437332D01*
X126334103Y-97437341D01*
X126299500Y-97611304D01*
X124587717Y-97611304D01*
X124658365Y-97570515D01*
X124765515Y-97463365D01*
X124841281Y-97332135D01*
X124880500Y-97185766D01*
X124880500Y-97034234D01*
X124841281Y-96887865D01*
X124765515Y-96756635D01*
X124658365Y-96649485D01*
X124644654Y-96641569D01*
X124616998Y-96625601D01*
X124568784Y-96575033D01*
X124555000Y-96518215D01*
X124555000Y-95980000D01*
X125055000Y-95980000D01*
X125055000Y-96680000D01*
X125453492Y-96680000D01*
X125453495Y-96679999D01*
X125646681Y-96641572D01*
X125646693Y-96641569D01*
X125828671Y-96566192D01*
X125828684Y-96566185D01*
X125992462Y-96456751D01*
X125992466Y-96456748D01*
X126131748Y-96317466D01*
X126131751Y-96317462D01*
X126241185Y-96153684D01*
X126241192Y-96153671D01*
X126316569Y-95971692D01*
X126316569Y-95971690D01*
X126324862Y-95930000D01*
X125521988Y-95930000D01*
X125539205Y-95920060D01*
X125595060Y-95864205D01*
X125634556Y-95795796D01*
X125655000Y-95719496D01*
X125655000Y-95640504D01*
X125634556Y-95564204D01*
X125595060Y-95495795D01*
X125539205Y-95439940D01*
X125521988Y-95430000D01*
X126324862Y-95430000D01*
X126316569Y-95388309D01*
X126316569Y-95388307D01*
X126241192Y-95206328D01*
X126241185Y-95206315D01*
X126152847Y-95074108D01*
X126152846Y-95074107D01*
X126131753Y-95042539D01*
X126131748Y-95042533D01*
X126100519Y-95011304D01*
X133999500Y-95011304D01*
X133999500Y-95188695D01*
X134034103Y-95362658D01*
X134034106Y-95362667D01*
X134101983Y-95526540D01*
X134101990Y-95526553D01*
X134200535Y-95674034D01*
X134200538Y-95674038D01*
X134325961Y-95799461D01*
X134325965Y-95799464D01*
X134473446Y-95898009D01*
X134473459Y-95898016D01*
X134550677Y-95930000D01*
X134637334Y-95965894D01*
X134637336Y-95965894D01*
X134637341Y-95965896D01*
X134811304Y-96000499D01*
X134811307Y-96000500D01*
X134811309Y-96000500D01*
X134988693Y-96000500D01*
X134988694Y-96000499D01*
X135046682Y-95988964D01*
X135162658Y-95965896D01*
X135162661Y-95965894D01*
X135162666Y-95965894D01*
X135326547Y-95898013D01*
X135474035Y-95799464D01*
X135599464Y-95674035D01*
X135698013Y-95526547D01*
X135765894Y-95362666D01*
X135800500Y-95188691D01*
X135800500Y-95011309D01*
X135800500Y-95011306D01*
X135800499Y-95011304D01*
X135765896Y-94837341D01*
X135765893Y-94837332D01*
X135698016Y-94673459D01*
X135698009Y-94673446D01*
X135599464Y-94525965D01*
X135599461Y-94525961D01*
X135474038Y-94400538D01*
X135474034Y-94400535D01*
X135326553Y-94301990D01*
X135326540Y-94301983D01*
X135162667Y-94234106D01*
X135162658Y-94234103D01*
X134988694Y-94199500D01*
X134988691Y-94199500D01*
X134811309Y-94199500D01*
X134811306Y-94199500D01*
X134637341Y-94234103D01*
X134637332Y-94234106D01*
X134473459Y-94301983D01*
X134473446Y-94301990D01*
X134325965Y-94400535D01*
X134325961Y-94400538D01*
X134200538Y-94525961D01*
X134200535Y-94525965D01*
X134101990Y-94673446D01*
X134101983Y-94673459D01*
X134034106Y-94837332D01*
X134034103Y-94837341D01*
X133999500Y-95011304D01*
X126100519Y-95011304D01*
X125992466Y-94903251D01*
X125992462Y-94903248D01*
X125828684Y-94793814D01*
X125828671Y-94793807D01*
X125646693Y-94718430D01*
X125646681Y-94718427D01*
X125453495Y-94680000D01*
X125055000Y-94680000D01*
X125055000Y-95380000D01*
X124555000Y-95380000D01*
X124555000Y-94680000D01*
X124156504Y-94680000D01*
X123963318Y-94718427D01*
X123963306Y-94718430D01*
X123781328Y-94793807D01*
X123781315Y-94793814D01*
X123617537Y-94903248D01*
X123617533Y-94903251D01*
X123478251Y-95042533D01*
X123478248Y-95042537D01*
X123368814Y-95206315D01*
X123368807Y-95206328D01*
X123293430Y-95388307D01*
X123293430Y-95388309D01*
X123285138Y-95430000D01*
X121894862Y-95430000D01*
X121886569Y-95388309D01*
X121886569Y-95388307D01*
X121811192Y-95206328D01*
X121811185Y-95206315D01*
X121701751Y-95042537D01*
X121701748Y-95042533D01*
X121562466Y-94903251D01*
X121562462Y-94903248D01*
X121398684Y-94793814D01*
X121398671Y-94793807D01*
X121216693Y-94718430D01*
X121216681Y-94718427D01*
X121023495Y-94680000D01*
X120875000Y-94680000D01*
X120875000Y-95380000D01*
X120375000Y-95380000D01*
X120375000Y-94680000D01*
X120226504Y-94680000D01*
X120033318Y-94718427D01*
X120033306Y-94718430D01*
X119851328Y-94793807D01*
X119851315Y-94793814D01*
X119687537Y-94903248D01*
X119687533Y-94903251D01*
X119548251Y-95042533D01*
X119548248Y-95042537D01*
X119438814Y-95206315D01*
X119438807Y-95206328D01*
X119363430Y-95388307D01*
X119363430Y-95388309D01*
X119355138Y-95430000D01*
X118500500Y-95430000D01*
X118500500Y-93411304D01*
X135479500Y-93411304D01*
X135479500Y-93588695D01*
X135514103Y-93762658D01*
X135514106Y-93762667D01*
X135581983Y-93926540D01*
X135581990Y-93926553D01*
X135680535Y-94074034D01*
X135680538Y-94074038D01*
X135805961Y-94199461D01*
X135805965Y-94199464D01*
X135953446Y-94298009D01*
X135953459Y-94298016D01*
X136060631Y-94342407D01*
X136117334Y-94365894D01*
X136117336Y-94365894D01*
X136117341Y-94365896D01*
X136291304Y-94400499D01*
X136291307Y-94400500D01*
X136291309Y-94400500D01*
X136468693Y-94400500D01*
X136468694Y-94400499D01*
X136540345Y-94386247D01*
X136642658Y-94365896D01*
X136642661Y-94365894D01*
X136642666Y-94365894D01*
X136796953Y-94301987D01*
X136806540Y-94298016D01*
X136806540Y-94298015D01*
X136806547Y-94298013D01*
X136954035Y-94199464D01*
X137079464Y-94074035D01*
X137178013Y-93926547D01*
X137245894Y-93762666D01*
X137280500Y-93588691D01*
X137280500Y-93511304D01*
X137599500Y-93511304D01*
X137599500Y-93688695D01*
X137634103Y-93862658D01*
X137634106Y-93862667D01*
X137701983Y-94026540D01*
X137701990Y-94026553D01*
X137800535Y-94174034D01*
X137800538Y-94174038D01*
X137925961Y-94299461D01*
X137925965Y-94299464D01*
X138073446Y-94398009D01*
X138073459Y-94398016D01*
X138196363Y-94448923D01*
X138237334Y-94465894D01*
X138237336Y-94465894D01*
X138237341Y-94465896D01*
X138411304Y-94500499D01*
X138411307Y-94500500D01*
X138411309Y-94500500D01*
X138588693Y-94500500D01*
X138588694Y-94500499D01*
X138646682Y-94488964D01*
X138762658Y-94465896D01*
X138762661Y-94465894D01*
X138762666Y-94465894D01*
X138926547Y-94398013D01*
X139074035Y-94299464D01*
X139199464Y-94174035D01*
X139298013Y-94026547D01*
X139365894Y-93862666D01*
X139379006Y-93796751D01*
X139400499Y-93688695D01*
X139400500Y-93688693D01*
X139400500Y-93511306D01*
X139384209Y-93429409D01*
X139384209Y-93429408D01*
X139380608Y-93411304D01*
X147299500Y-93411304D01*
X147299500Y-93588695D01*
X147334103Y-93762658D01*
X147334106Y-93762667D01*
X147401983Y-93926540D01*
X147401990Y-93926553D01*
X147500535Y-94074034D01*
X147500538Y-94074038D01*
X147625961Y-94199461D01*
X147625965Y-94199464D01*
X147773446Y-94298009D01*
X147773459Y-94298016D01*
X147880630Y-94342407D01*
X147935034Y-94386247D01*
X147957099Y-94452541D01*
X147947740Y-94504419D01*
X147934105Y-94537337D01*
X147934103Y-94537341D01*
X147899500Y-94711304D01*
X147899500Y-94888695D01*
X147934103Y-95062658D01*
X147934106Y-95062667D01*
X148001983Y-95226540D01*
X148001990Y-95226553D01*
X148100535Y-95374034D01*
X148100538Y-95374038D01*
X148225961Y-95499461D01*
X148225965Y-95499464D01*
X148373446Y-95598009D01*
X148373459Y-95598016D01*
X148476036Y-95640504D01*
X148537334Y-95665894D01*
X148537336Y-95665894D01*
X148537341Y-95665896D01*
X148711304Y-95700499D01*
X148711307Y-95700500D01*
X148711309Y-95700500D01*
X148888693Y-95700500D01*
X148888694Y-95700499D01*
X148946682Y-95688964D01*
X149062658Y-95665896D01*
X149062661Y-95665894D01*
X149062666Y-95665894D01*
X149226547Y-95598013D01*
X149374035Y-95499464D01*
X149499464Y-95374035D01*
X149598013Y-95226547D01*
X149665894Y-95062666D01*
X149696002Y-94911304D01*
X151099500Y-94911304D01*
X151099500Y-95088695D01*
X151134103Y-95262658D01*
X151134106Y-95262667D01*
X151201983Y-95426540D01*
X151201990Y-95426553D01*
X151300535Y-95574034D01*
X151300538Y-95574038D01*
X151425961Y-95699461D01*
X151425965Y-95699464D01*
X151573446Y-95798009D01*
X151573459Y-95798016D01*
X151696363Y-95848923D01*
X151737334Y-95865894D01*
X151737336Y-95865894D01*
X151737341Y-95865896D01*
X151911304Y-95900499D01*
X151911307Y-95900500D01*
X151911309Y-95900500D01*
X152088693Y-95900500D01*
X152088694Y-95900499D01*
X152146682Y-95888964D01*
X152262658Y-95865896D01*
X152262661Y-95865894D01*
X152262666Y-95865894D01*
X152426547Y-95798013D01*
X152574035Y-95699464D01*
X152699464Y-95574035D01*
X152798013Y-95426547D01*
X152865894Y-95262666D01*
X152873078Y-95226553D01*
X152900499Y-95088695D01*
X152900500Y-95088693D01*
X152900500Y-94911306D01*
X152900499Y-94911304D01*
X152865896Y-94737341D01*
X152865893Y-94737332D01*
X152858062Y-94718427D01*
X152839431Y-94673446D01*
X152798016Y-94573459D01*
X152798009Y-94573446D01*
X152699464Y-94425965D01*
X152699461Y-94425961D01*
X152574038Y-94300538D01*
X152574034Y-94300535D01*
X152426553Y-94201990D01*
X152426540Y-94201983D01*
X152262667Y-94134106D01*
X152262658Y-94134103D01*
X152088694Y-94099500D01*
X152088691Y-94099500D01*
X151911309Y-94099500D01*
X151911306Y-94099500D01*
X151737341Y-94134103D01*
X151737332Y-94134106D01*
X151573459Y-94201983D01*
X151573446Y-94201990D01*
X151425965Y-94300535D01*
X151425961Y-94300538D01*
X151300538Y-94425961D01*
X151300535Y-94425965D01*
X151201990Y-94573446D01*
X151201983Y-94573459D01*
X151134106Y-94737332D01*
X151134103Y-94737341D01*
X151099500Y-94911304D01*
X149696002Y-94911304D01*
X149700500Y-94888691D01*
X149700500Y-94711309D01*
X149700500Y-94711306D01*
X149700499Y-94711304D01*
X149665896Y-94537341D01*
X149665893Y-94537332D01*
X149598016Y-94373459D01*
X149598009Y-94373446D01*
X149499464Y-94225965D01*
X149499461Y-94225961D01*
X149374038Y-94100538D01*
X149374034Y-94100535D01*
X149226553Y-94001990D01*
X149226541Y-94001983D01*
X149119369Y-93957593D01*
X149064965Y-93913753D01*
X149042900Y-93847459D01*
X149052260Y-93795580D01*
X149065894Y-93762666D01*
X149100500Y-93588691D01*
X149100500Y-93411309D01*
X149100500Y-93411306D01*
X149070574Y-93260861D01*
X149070574Y-93260860D01*
X149065895Y-93237341D01*
X149065894Y-93237334D01*
X149023836Y-93135796D01*
X148998016Y-93073459D01*
X148998009Y-93073446D01*
X148899464Y-92925965D01*
X148899461Y-92925961D01*
X148774038Y-92800538D01*
X148774034Y-92800535D01*
X148728336Y-92770000D01*
X169575138Y-92770000D01*
X170378012Y-92770000D01*
X170360795Y-92779940D01*
X170304940Y-92835795D01*
X170265444Y-92904204D01*
X170245000Y-92980504D01*
X170245000Y-93059496D01*
X170265444Y-93135796D01*
X170304940Y-93204205D01*
X170360795Y-93260060D01*
X170378012Y-93270000D01*
X169575138Y-93270000D01*
X169583430Y-93311690D01*
X169583430Y-93311692D01*
X169658807Y-93493671D01*
X169658814Y-93493684D01*
X169768248Y-93657462D01*
X169768251Y-93657466D01*
X169907533Y-93796748D01*
X169907537Y-93796751D01*
X170071315Y-93906185D01*
X170071328Y-93906192D01*
X170253306Y-93981569D01*
X170253318Y-93981572D01*
X170446504Y-94019999D01*
X170446508Y-94020000D01*
X170845000Y-94020000D01*
X170845000Y-93320000D01*
X171345000Y-93320000D01*
X171345000Y-94020000D01*
X171743492Y-94020000D01*
X171743495Y-94019999D01*
X171936681Y-93981572D01*
X171936693Y-93981569D01*
X172118671Y-93906192D01*
X172118684Y-93906185D01*
X172282462Y-93796751D01*
X172282466Y-93796748D01*
X172421748Y-93657466D01*
X172421751Y-93657462D01*
X172531185Y-93493684D01*
X172531192Y-93493671D01*
X172606569Y-93311692D01*
X172606569Y-93311690D01*
X172614862Y-93270000D01*
X171811988Y-93270000D01*
X171829205Y-93260060D01*
X171885060Y-93204205D01*
X171924556Y-93135796D01*
X171945000Y-93059496D01*
X171945000Y-92980504D01*
X171924556Y-92904204D01*
X171885060Y-92835795D01*
X171829205Y-92779940D01*
X171811988Y-92770000D01*
X172614862Y-92770000D01*
X174005138Y-92770000D01*
X174808012Y-92770000D01*
X174790795Y-92779940D01*
X174734940Y-92835795D01*
X174695444Y-92904204D01*
X174675000Y-92980504D01*
X174675000Y-93059496D01*
X174695444Y-93135796D01*
X174734940Y-93204205D01*
X174790795Y-93260060D01*
X174808012Y-93270000D01*
X174005138Y-93270000D01*
X174013430Y-93311690D01*
X174013430Y-93311692D01*
X174088807Y-93493671D01*
X174088814Y-93493684D01*
X174198248Y-93657462D01*
X174198251Y-93657466D01*
X174337533Y-93796748D01*
X174337537Y-93796751D01*
X174501315Y-93906185D01*
X174501328Y-93906192D01*
X174683306Y-93981569D01*
X174683318Y-93981572D01*
X174876504Y-94019999D01*
X174876508Y-94020000D01*
X175025000Y-94020000D01*
X175025000Y-93320000D01*
X175525000Y-93320000D01*
X175525000Y-94020000D01*
X175673492Y-94020000D01*
X175673495Y-94019999D01*
X175866681Y-93981572D01*
X175866693Y-93981569D01*
X176048671Y-93906192D01*
X176048684Y-93906185D01*
X176212462Y-93796751D01*
X176212466Y-93796748D01*
X176351748Y-93657466D01*
X176351751Y-93657462D01*
X176461185Y-93493684D01*
X176461192Y-93493671D01*
X176536569Y-93311692D01*
X176536569Y-93311690D01*
X176544862Y-93270000D01*
X175741988Y-93270000D01*
X175759205Y-93260060D01*
X175815060Y-93204205D01*
X175854556Y-93135796D01*
X175875000Y-93059496D01*
X175875000Y-92980504D01*
X175854556Y-92904204D01*
X175815060Y-92835795D01*
X175759205Y-92779940D01*
X175741988Y-92770000D01*
X176544862Y-92770000D01*
X176536569Y-92728309D01*
X176536569Y-92728307D01*
X176461192Y-92546328D01*
X176461185Y-92546315D01*
X176351751Y-92382537D01*
X176351748Y-92382533D01*
X176212466Y-92243251D01*
X176212462Y-92243248D01*
X176048684Y-92133814D01*
X176048671Y-92133807D01*
X175866693Y-92058430D01*
X175866681Y-92058427D01*
X175673495Y-92020000D01*
X175525000Y-92020000D01*
X175525000Y-92720000D01*
X175025000Y-92720000D01*
X175025000Y-92020000D01*
X174876504Y-92020000D01*
X174683318Y-92058427D01*
X174683306Y-92058430D01*
X174501328Y-92133807D01*
X174501315Y-92133814D01*
X174337537Y-92243248D01*
X174337533Y-92243251D01*
X174198251Y-92382533D01*
X174198248Y-92382537D01*
X174088814Y-92546315D01*
X174088807Y-92546328D01*
X174013430Y-92728307D01*
X174013430Y-92728309D01*
X174005138Y-92770000D01*
X172614862Y-92770000D01*
X172606569Y-92728309D01*
X172606569Y-92728307D01*
X172531192Y-92546328D01*
X172531185Y-92546315D01*
X172421751Y-92382537D01*
X172421748Y-92382533D01*
X172282466Y-92243251D01*
X172282462Y-92243248D01*
X172118684Y-92133814D01*
X172118674Y-92133809D01*
X172109157Y-92129867D01*
X172054754Y-92086026D01*
X172032689Y-92019731D01*
X172049969Y-91952032D01*
X172053648Y-91946597D01*
X172055512Y-91943367D01*
X172055515Y-91943365D01*
X172131281Y-91812135D01*
X172170500Y-91665766D01*
X172170500Y-91514234D01*
X172131281Y-91367865D01*
X172055515Y-91236635D01*
X171948365Y-91129485D01*
X171882750Y-91091602D01*
X171817136Y-91053719D01*
X171736846Y-91032206D01*
X171670766Y-91014500D01*
X171519234Y-91014500D01*
X171372863Y-91053719D01*
X171241635Y-91129485D01*
X171241632Y-91129487D01*
X171134487Y-91236632D01*
X171134485Y-91236635D01*
X171058719Y-91367863D01*
X171051950Y-91393126D01*
X171019500Y-91514234D01*
X171019500Y-91665766D01*
X171029880Y-91704506D01*
X171058719Y-91812136D01*
X171061837Y-91817536D01*
X171134485Y-91943365D01*
X171241635Y-92050515D01*
X171283000Y-92074397D01*
X171331216Y-92124964D01*
X171345000Y-92181784D01*
X171345000Y-92720000D01*
X170845000Y-92720000D01*
X170845000Y-92020000D01*
X170446504Y-92020000D01*
X170253318Y-92058427D01*
X170253306Y-92058430D01*
X170071328Y-92133807D01*
X170071315Y-92133814D01*
X169907537Y-92243248D01*
X169907533Y-92243251D01*
X169768251Y-92382533D01*
X169768248Y-92382537D01*
X169658814Y-92546315D01*
X169658807Y-92546328D01*
X169583430Y-92728307D01*
X169583430Y-92728309D01*
X169575138Y-92770000D01*
X148728336Y-92770000D01*
X148626553Y-92701990D01*
X148626540Y-92701983D01*
X148462667Y-92634106D01*
X148462658Y-92634103D01*
X148288694Y-92599500D01*
X148288691Y-92599500D01*
X148111309Y-92599500D01*
X148111306Y-92599500D01*
X147937341Y-92634103D01*
X147937332Y-92634106D01*
X147773459Y-92701983D01*
X147773446Y-92701990D01*
X147625965Y-92800535D01*
X147625961Y-92800538D01*
X147500538Y-92925961D01*
X147500535Y-92925965D01*
X147401990Y-93073446D01*
X147401983Y-93073459D01*
X147334106Y-93237332D01*
X147334103Y-93237341D01*
X147299500Y-93411304D01*
X139380608Y-93411304D01*
X139365896Y-93337341D01*
X139365893Y-93337332D01*
X139298016Y-93173459D01*
X139298009Y-93173446D01*
X139199464Y-93025965D01*
X139199461Y-93025961D01*
X139074038Y-92900538D01*
X139074034Y-92900535D01*
X138926553Y-92801990D01*
X138926540Y-92801983D01*
X138762667Y-92734106D01*
X138762658Y-92734103D01*
X138588694Y-92699500D01*
X138588691Y-92699500D01*
X138411309Y-92699500D01*
X138411306Y-92699500D01*
X138237341Y-92734103D01*
X138237332Y-92734106D01*
X138073459Y-92801983D01*
X138073446Y-92801990D01*
X137925965Y-92900535D01*
X137925961Y-92900538D01*
X137800538Y-93025961D01*
X137800535Y-93025965D01*
X137701990Y-93173446D01*
X137701983Y-93173459D01*
X137634106Y-93337332D01*
X137634103Y-93337341D01*
X137599500Y-93511304D01*
X137280500Y-93511304D01*
X137280500Y-93411309D01*
X137280500Y-93411306D01*
X137280499Y-93411304D01*
X137245896Y-93237341D01*
X137245893Y-93237332D01*
X137178016Y-93073459D01*
X137178009Y-93073446D01*
X137079464Y-92925965D01*
X137079461Y-92925961D01*
X136954038Y-92800538D01*
X136954034Y-92800535D01*
X136806553Y-92701990D01*
X136806540Y-92701983D01*
X136642667Y-92634106D01*
X136642658Y-92634103D01*
X136468694Y-92599500D01*
X136468691Y-92599500D01*
X136291309Y-92599500D01*
X136291306Y-92599500D01*
X136117341Y-92634103D01*
X136117332Y-92634106D01*
X135953459Y-92701983D01*
X135953446Y-92701990D01*
X135805965Y-92800535D01*
X135805961Y-92800538D01*
X135680538Y-92925961D01*
X135680535Y-92925965D01*
X135581990Y-93073446D01*
X135581983Y-93073459D01*
X135514106Y-93237332D01*
X135514103Y-93237341D01*
X135479500Y-93411304D01*
X118500500Y-93411304D01*
X118500500Y-90711304D01*
X124187000Y-90711304D01*
X124187000Y-90888695D01*
X124221603Y-91062658D01*
X124221606Y-91062667D01*
X124289483Y-91226540D01*
X124289490Y-91226553D01*
X124388035Y-91374034D01*
X124388038Y-91374038D01*
X124513461Y-91499461D01*
X124513465Y-91499464D01*
X124660946Y-91598009D01*
X124660959Y-91598016D01*
X124783863Y-91648923D01*
X124824834Y-91665894D01*
X124824836Y-91665894D01*
X124824841Y-91665896D01*
X124998804Y-91700499D01*
X124998807Y-91700500D01*
X124998809Y-91700500D01*
X125176193Y-91700500D01*
X125176194Y-91700499D01*
X125234182Y-91688964D01*
X125350158Y-91665896D01*
X125350161Y-91665894D01*
X125350166Y-91665894D01*
X125514047Y-91598013D01*
X125661535Y-91499464D01*
X125786964Y-91374035D01*
X125885513Y-91226547D01*
X125953394Y-91062666D01*
X125957550Y-91041772D01*
X139508177Y-91041772D01*
X139508177Y-91219163D01*
X139542780Y-91393126D01*
X139542783Y-91393135D01*
X139610660Y-91557008D01*
X139610667Y-91557021D01*
X139709212Y-91704502D01*
X139709215Y-91704506D01*
X139834638Y-91829929D01*
X139834642Y-91829932D01*
X139982123Y-91928477D01*
X139982136Y-91928484D01*
X140105040Y-91979391D01*
X140146011Y-91996362D01*
X140146013Y-91996362D01*
X140146018Y-91996364D01*
X140319981Y-92030967D01*
X140319984Y-92030968D01*
X140319986Y-92030968D01*
X140497370Y-92030968D01*
X140497371Y-92030967D01*
X140555359Y-92019432D01*
X140671335Y-91996364D01*
X140671338Y-91996362D01*
X140671343Y-91996362D01*
X140835224Y-91928481D01*
X140860931Y-91911304D01*
X145579500Y-91911304D01*
X145579500Y-92088695D01*
X145614103Y-92262658D01*
X145614106Y-92262667D01*
X145681983Y-92426540D01*
X145681990Y-92426553D01*
X145780535Y-92574034D01*
X145780538Y-92574038D01*
X145905961Y-92699461D01*
X145905965Y-92699464D01*
X146053446Y-92798009D01*
X146053459Y-92798016D01*
X146176363Y-92848923D01*
X146217334Y-92865894D01*
X146217336Y-92865894D01*
X146217341Y-92865896D01*
X146391304Y-92900499D01*
X146391307Y-92900500D01*
X146391309Y-92900500D01*
X146568693Y-92900500D01*
X146568694Y-92900499D01*
X146626682Y-92888964D01*
X146742658Y-92865896D01*
X146742661Y-92865894D01*
X146742666Y-92865894D01*
X146896953Y-92801987D01*
X146906540Y-92798016D01*
X146906540Y-92798015D01*
X146906547Y-92798013D01*
X147054035Y-92699464D01*
X147179464Y-92574035D01*
X147278013Y-92426547D01*
X147345894Y-92262666D01*
X147380500Y-92088691D01*
X147380500Y-91911309D01*
X147380500Y-91911306D01*
X147380499Y-91911304D01*
X147345896Y-91737341D01*
X147345893Y-91737332D01*
X147278016Y-91573459D01*
X147278009Y-91573446D01*
X147179464Y-91425965D01*
X147179461Y-91425961D01*
X147054038Y-91300538D01*
X147054034Y-91300535D01*
X146906553Y-91201990D01*
X146906540Y-91201983D01*
X146742667Y-91134106D01*
X146742658Y-91134103D01*
X146568694Y-91099500D01*
X146568691Y-91099500D01*
X146391309Y-91099500D01*
X146391306Y-91099500D01*
X146217341Y-91134103D01*
X146217332Y-91134106D01*
X146053459Y-91201983D01*
X146053446Y-91201990D01*
X145905965Y-91300535D01*
X145905961Y-91300538D01*
X145780538Y-91425961D01*
X145780535Y-91425965D01*
X145681990Y-91573446D01*
X145681983Y-91573459D01*
X145614106Y-91737332D01*
X145614103Y-91737341D01*
X145579500Y-91911304D01*
X140860931Y-91911304D01*
X140982712Y-91829932D01*
X140982715Y-91829929D01*
X140995109Y-91817536D01*
X141108138Y-91704506D01*
X141108141Y-91704503D01*
X141206690Y-91557015D01*
X141274571Y-91393134D01*
X141278370Y-91374038D01*
X141309176Y-91219163D01*
X141309177Y-91219161D01*
X141309177Y-91041774D01*
X141309176Y-91041772D01*
X141274573Y-90867809D01*
X141274570Y-90867800D01*
X141206693Y-90703927D01*
X141206686Y-90703914D01*
X141108141Y-90556433D01*
X141108138Y-90556429D01*
X140982715Y-90431006D01*
X140982711Y-90431003D01*
X140835230Y-90332458D01*
X140835217Y-90332451D01*
X140671344Y-90264574D01*
X140671335Y-90264571D01*
X140497371Y-90229968D01*
X140497368Y-90229968D01*
X140319986Y-90229968D01*
X140319983Y-90229968D01*
X140146018Y-90264571D01*
X140146009Y-90264574D01*
X139982136Y-90332451D01*
X139982123Y-90332458D01*
X139834642Y-90431003D01*
X139834638Y-90431006D01*
X139709215Y-90556429D01*
X139709212Y-90556433D01*
X139610667Y-90703914D01*
X139610660Y-90703927D01*
X139542783Y-90867800D01*
X139542780Y-90867809D01*
X139508177Y-91041772D01*
X125957550Y-91041772D01*
X125985858Y-90899461D01*
X125988000Y-90888693D01*
X125988000Y-90711306D01*
X125987999Y-90711304D01*
X125953396Y-90537341D01*
X125953393Y-90537332D01*
X125885516Y-90373459D01*
X125885509Y-90373446D01*
X125786964Y-90225965D01*
X125786961Y-90225961D01*
X125672304Y-90111304D01*
X167399500Y-90111304D01*
X167399500Y-90288695D01*
X167434103Y-90462658D01*
X167434106Y-90462667D01*
X167501983Y-90626540D01*
X167501990Y-90626553D01*
X167600535Y-90774034D01*
X167600538Y-90774038D01*
X167725961Y-90899461D01*
X167725965Y-90899464D01*
X167844391Y-90978594D01*
X167889196Y-91032206D01*
X167899500Y-91081696D01*
X167899500Y-91188695D01*
X167934103Y-91362658D01*
X167934106Y-91362667D01*
X168001983Y-91526540D01*
X168001990Y-91526553D01*
X168100535Y-91674034D01*
X168100538Y-91674038D01*
X168225961Y-91799461D01*
X168225965Y-91799464D01*
X168373446Y-91898009D01*
X168373459Y-91898016D01*
X168482948Y-91943367D01*
X168537334Y-91965894D01*
X168537336Y-91965894D01*
X168537341Y-91965896D01*
X168711304Y-92000499D01*
X168711307Y-92000500D01*
X168711309Y-92000500D01*
X168888693Y-92000500D01*
X168888694Y-92000499D01*
X168946682Y-91988964D01*
X169062658Y-91965896D01*
X169062661Y-91965894D01*
X169062666Y-91965894D01*
X169226547Y-91898013D01*
X169374035Y-91799464D01*
X169499464Y-91674035D01*
X169598013Y-91526547D01*
X169665894Y-91362666D01*
X169700500Y-91188691D01*
X169700500Y-91011309D01*
X169700500Y-91011306D01*
X169700499Y-91011304D01*
X169665896Y-90837341D01*
X169665893Y-90837332D01*
X169598016Y-90673459D01*
X169598009Y-90673446D01*
X169499464Y-90525965D01*
X169499461Y-90525961D01*
X169374038Y-90400538D01*
X169374034Y-90400535D01*
X169255609Y-90321405D01*
X169210804Y-90267792D01*
X169200500Y-90218303D01*
X169200500Y-90111306D01*
X169200499Y-90111304D01*
X169165896Y-89937341D01*
X169165893Y-89937332D01*
X169098016Y-89773459D01*
X169098009Y-89773446D01*
X168999464Y-89625965D01*
X168999461Y-89625961D01*
X168874038Y-89500538D01*
X168874034Y-89500535D01*
X168726553Y-89401990D01*
X168726540Y-89401983D01*
X168562667Y-89334106D01*
X168562658Y-89334103D01*
X168388694Y-89299500D01*
X168388691Y-89299500D01*
X168211309Y-89299500D01*
X168211306Y-89299500D01*
X168037341Y-89334103D01*
X168037332Y-89334106D01*
X167873459Y-89401983D01*
X167873446Y-89401990D01*
X167725965Y-89500535D01*
X167725961Y-89500538D01*
X167600538Y-89625961D01*
X167600535Y-89625965D01*
X167501990Y-89773446D01*
X167501983Y-89773459D01*
X167434106Y-89937332D01*
X167434103Y-89937341D01*
X167399500Y-90111304D01*
X125672304Y-90111304D01*
X125661538Y-90100538D01*
X125661534Y-90100535D01*
X125514053Y-90001990D01*
X125514040Y-90001983D01*
X125350167Y-89934106D01*
X125350158Y-89934103D01*
X125176194Y-89899500D01*
X125176191Y-89899500D01*
X124998809Y-89899500D01*
X124998806Y-89899500D01*
X124824841Y-89934103D01*
X124824832Y-89934106D01*
X124660959Y-90001983D01*
X124660946Y-90001990D01*
X124513465Y-90100535D01*
X124513461Y-90100538D01*
X124388038Y-90225961D01*
X124388035Y-90225965D01*
X124289490Y-90373446D01*
X124289483Y-90373459D01*
X124221606Y-90537332D01*
X124221603Y-90537341D01*
X124187000Y-90711304D01*
X118500500Y-90711304D01*
X118500500Y-87711304D01*
X123987000Y-87711304D01*
X123987000Y-87888695D01*
X124021603Y-88062658D01*
X124021606Y-88062667D01*
X124089483Y-88226540D01*
X124089490Y-88226553D01*
X124188035Y-88374034D01*
X124188038Y-88374038D01*
X124313461Y-88499461D01*
X124313465Y-88499464D01*
X124460946Y-88598009D01*
X124460959Y-88598016D01*
X124583863Y-88648923D01*
X124624834Y-88665894D01*
X124624836Y-88665894D01*
X124624841Y-88665896D01*
X124798804Y-88700499D01*
X124798807Y-88700500D01*
X124798809Y-88700500D01*
X124976193Y-88700500D01*
X124976194Y-88700499D01*
X125034182Y-88688964D01*
X125150158Y-88665896D01*
X125150161Y-88665894D01*
X125150166Y-88665894D01*
X125314047Y-88598013D01*
X125461535Y-88499464D01*
X125586964Y-88374035D01*
X125685513Y-88226547D01*
X125753394Y-88062666D01*
X125788000Y-87888691D01*
X125788000Y-87711309D01*
X125788000Y-87711306D01*
X125787999Y-87711304D01*
X167499500Y-87711304D01*
X167499500Y-87888695D01*
X167534103Y-88062658D01*
X167534106Y-88062667D01*
X167601983Y-88226540D01*
X167601990Y-88226553D01*
X167700535Y-88374034D01*
X167700538Y-88374038D01*
X167825961Y-88499461D01*
X167825965Y-88499464D01*
X167973446Y-88598009D01*
X167973459Y-88598016D01*
X168096363Y-88648923D01*
X168137334Y-88665894D01*
X168137336Y-88665894D01*
X168137341Y-88665896D01*
X168311304Y-88700499D01*
X168311307Y-88700500D01*
X168311309Y-88700500D01*
X168488693Y-88700500D01*
X168488694Y-88700499D01*
X168546682Y-88688964D01*
X168662658Y-88665896D01*
X168662661Y-88665894D01*
X168662666Y-88665894D01*
X168826547Y-88598013D01*
X168974035Y-88499464D01*
X169099464Y-88374035D01*
X169198013Y-88226547D01*
X169265894Y-88062666D01*
X169300500Y-87888691D01*
X169300500Y-87711309D01*
X169300500Y-87711306D01*
X169300499Y-87711304D01*
X169265896Y-87537341D01*
X169265893Y-87537332D01*
X169198016Y-87373459D01*
X169198014Y-87373455D01*
X169198013Y-87373453D01*
X169143994Y-87292608D01*
X169123116Y-87225931D01*
X169141600Y-87158551D01*
X169193579Y-87111860D01*
X169199608Y-87109171D01*
X169226547Y-87098013D01*
X169374035Y-86999464D01*
X169499464Y-86874035D01*
X169598013Y-86726547D01*
X169665894Y-86562666D01*
X169700500Y-86388691D01*
X169700500Y-86211309D01*
X169700500Y-86211306D01*
X169700499Y-86211304D01*
X169665896Y-86037341D01*
X169665893Y-86037332D01*
X169663740Y-86032135D01*
X169648923Y-85996363D01*
X169598016Y-85873459D01*
X169598014Y-85873455D01*
X169598013Y-85873453D01*
X169499464Y-85725965D01*
X169499461Y-85725961D01*
X169374038Y-85600538D01*
X169374034Y-85600535D01*
X169226553Y-85501990D01*
X169226540Y-85501983D01*
X169062667Y-85434106D01*
X169062658Y-85434103D01*
X168888694Y-85399500D01*
X168888691Y-85399500D01*
X168711309Y-85399500D01*
X168711306Y-85399500D01*
X168537341Y-85434103D01*
X168537332Y-85434106D01*
X168373459Y-85501983D01*
X168373446Y-85501990D01*
X168225965Y-85600535D01*
X168225961Y-85600538D01*
X168100538Y-85725961D01*
X168100535Y-85725965D01*
X168001990Y-85873446D01*
X168001983Y-85873459D01*
X167934106Y-86037332D01*
X167934103Y-86037341D01*
X167899500Y-86211304D01*
X167899500Y-86388695D01*
X167934103Y-86562658D01*
X167934106Y-86562667D01*
X168001983Y-86726540D01*
X168001990Y-86726553D01*
X168056005Y-86807391D01*
X168076883Y-86874068D01*
X168058399Y-86941448D01*
X168006420Y-86988139D01*
X168000356Y-86990843D01*
X167973456Y-87001985D01*
X167973446Y-87001990D01*
X167825965Y-87100535D01*
X167825961Y-87100538D01*
X167700538Y-87225961D01*
X167700535Y-87225965D01*
X167601990Y-87373446D01*
X167601983Y-87373459D01*
X167534106Y-87537332D01*
X167534103Y-87537341D01*
X167499500Y-87711304D01*
X125787999Y-87711304D01*
X125753396Y-87537341D01*
X125753393Y-87537332D01*
X125685516Y-87373459D01*
X125685509Y-87373446D01*
X125586964Y-87225965D01*
X125586961Y-87225961D01*
X125461538Y-87100538D01*
X125461534Y-87100535D01*
X125314053Y-87001990D01*
X125314040Y-87001983D01*
X125150167Y-86934106D01*
X125150158Y-86934103D01*
X124976194Y-86899500D01*
X124976191Y-86899500D01*
X124798809Y-86899500D01*
X124798806Y-86899500D01*
X124624841Y-86934103D01*
X124624832Y-86934106D01*
X124460959Y-87001983D01*
X124460946Y-87001990D01*
X124313465Y-87100535D01*
X124313461Y-87100538D01*
X124188038Y-87225961D01*
X124188035Y-87225965D01*
X124089490Y-87373446D01*
X124089483Y-87373459D01*
X124021606Y-87537332D01*
X124021603Y-87537341D01*
X123987000Y-87711304D01*
X118500500Y-87711304D01*
X118500500Y-84130000D01*
X169575138Y-84130000D01*
X170378012Y-84130000D01*
X170360795Y-84139940D01*
X170304940Y-84195795D01*
X170265444Y-84264204D01*
X170245000Y-84340504D01*
X170245000Y-84419496D01*
X170265444Y-84495796D01*
X170304940Y-84564205D01*
X170360795Y-84620060D01*
X170378012Y-84630000D01*
X169575138Y-84630000D01*
X169583430Y-84671690D01*
X169583430Y-84671692D01*
X169658807Y-84853671D01*
X169658814Y-84853684D01*
X169768248Y-85017462D01*
X169768251Y-85017466D01*
X169907533Y-85156748D01*
X169907537Y-85156751D01*
X170071315Y-85266185D01*
X170071328Y-85266192D01*
X170253306Y-85341569D01*
X170253318Y-85341572D01*
X170446504Y-85379999D01*
X170446508Y-85380000D01*
X170845000Y-85380000D01*
X170845000Y-84680000D01*
X171345000Y-84680000D01*
X171345000Y-85218215D01*
X171325315Y-85285254D01*
X171283002Y-85325601D01*
X171241638Y-85349483D01*
X171241632Y-85349487D01*
X171134487Y-85456632D01*
X171134485Y-85456635D01*
X171058719Y-85587863D01*
X171019500Y-85734234D01*
X171019500Y-85885765D01*
X171058719Y-86032136D01*
X171096602Y-86097750D01*
X171134485Y-86163365D01*
X171241635Y-86270515D01*
X171372865Y-86346281D01*
X171519234Y-86385500D01*
X171519236Y-86385500D01*
X171670764Y-86385500D01*
X171670766Y-86385500D01*
X171817135Y-86346281D01*
X171948365Y-86270515D01*
X172055515Y-86163365D01*
X172131281Y-86032135D01*
X172170500Y-85885766D01*
X172170500Y-85734234D01*
X172131281Y-85587865D01*
X172055515Y-85456635D01*
X172055513Y-85456633D01*
X172051451Y-85449597D01*
X172053654Y-85448325D01*
X172033041Y-85395022D01*
X172047073Y-85326576D01*
X172095882Y-85276582D01*
X172109163Y-85270129D01*
X172118682Y-85266186D01*
X172118684Y-85266185D01*
X172282462Y-85156751D01*
X172282466Y-85156748D01*
X172421748Y-85017466D01*
X172421751Y-85017462D01*
X172531185Y-84853684D01*
X172531192Y-84853671D01*
X172606569Y-84671692D01*
X172606569Y-84671690D01*
X172614862Y-84630000D01*
X171811988Y-84630000D01*
X171829205Y-84620060D01*
X171885060Y-84564205D01*
X171924556Y-84495796D01*
X171945000Y-84419496D01*
X171945000Y-84340504D01*
X171924556Y-84264204D01*
X171885060Y-84195795D01*
X171829205Y-84139940D01*
X171811988Y-84130000D01*
X172614862Y-84130000D01*
X174005138Y-84130000D01*
X174808012Y-84130000D01*
X174790795Y-84139940D01*
X174734940Y-84195795D01*
X174695444Y-84264204D01*
X174675000Y-84340504D01*
X174675000Y-84419496D01*
X174695444Y-84495796D01*
X174734940Y-84564205D01*
X174790795Y-84620060D01*
X174808012Y-84630000D01*
X174005138Y-84630000D01*
X174013430Y-84671690D01*
X174013430Y-84671692D01*
X174088807Y-84853671D01*
X174088814Y-84853684D01*
X174198248Y-85017462D01*
X174198251Y-85017466D01*
X174337533Y-85156748D01*
X174337537Y-85156751D01*
X174501315Y-85266185D01*
X174501328Y-85266192D01*
X174683306Y-85341569D01*
X174683318Y-85341572D01*
X174876504Y-85379999D01*
X174876508Y-85380000D01*
X175025000Y-85380000D01*
X175025000Y-84680000D01*
X175525000Y-84680000D01*
X175525000Y-85380000D01*
X175673492Y-85380000D01*
X175673495Y-85379999D01*
X175866681Y-85341572D01*
X175866693Y-85341569D01*
X176048671Y-85266192D01*
X176048684Y-85266185D01*
X176212462Y-85156751D01*
X176212466Y-85156748D01*
X176351748Y-85017466D01*
X176351751Y-85017462D01*
X176461185Y-84853684D01*
X176461192Y-84853671D01*
X176536569Y-84671692D01*
X176536569Y-84671690D01*
X176544862Y-84630000D01*
X175741988Y-84630000D01*
X175759205Y-84620060D01*
X175815060Y-84564205D01*
X175854556Y-84495796D01*
X175875000Y-84419496D01*
X175875000Y-84340504D01*
X175854556Y-84264204D01*
X175815060Y-84195795D01*
X175759205Y-84139940D01*
X175741988Y-84130000D01*
X176544862Y-84130000D01*
X176536569Y-84088309D01*
X176536569Y-84088307D01*
X176461192Y-83906328D01*
X176461185Y-83906315D01*
X176351751Y-83742537D01*
X176351748Y-83742533D01*
X176212466Y-83603251D01*
X176212462Y-83603248D01*
X176048684Y-83493814D01*
X176048671Y-83493807D01*
X175866693Y-83418430D01*
X175866681Y-83418427D01*
X175673495Y-83380000D01*
X175525000Y-83380000D01*
X175525000Y-84080000D01*
X175025000Y-84080000D01*
X175025000Y-83380000D01*
X174876504Y-83380000D01*
X174683318Y-83418427D01*
X174683306Y-83418430D01*
X174501328Y-83493807D01*
X174501315Y-83493814D01*
X174337537Y-83603248D01*
X174337533Y-83603251D01*
X174198251Y-83742533D01*
X174198248Y-83742537D01*
X174088814Y-83906315D01*
X174088807Y-83906328D01*
X174013430Y-84088307D01*
X174013430Y-84088309D01*
X174005138Y-84130000D01*
X172614862Y-84130000D01*
X172606569Y-84088309D01*
X172606569Y-84088307D01*
X172531192Y-83906328D01*
X172531185Y-83906315D01*
X172421751Y-83742537D01*
X172421748Y-83742533D01*
X172282466Y-83603251D01*
X172282462Y-83603248D01*
X172118684Y-83493814D01*
X172118671Y-83493807D01*
X171936693Y-83418430D01*
X171936681Y-83418427D01*
X171743495Y-83380000D01*
X171345000Y-83380000D01*
X171345000Y-84080000D01*
X170845000Y-84080000D01*
X170845000Y-83380000D01*
X170446504Y-83380000D01*
X170253318Y-83418427D01*
X170253306Y-83418430D01*
X170071328Y-83493807D01*
X170071315Y-83493814D01*
X169907537Y-83603248D01*
X169907533Y-83603251D01*
X169768251Y-83742533D01*
X169768248Y-83742537D01*
X169658814Y-83906315D01*
X169658807Y-83906328D01*
X169583430Y-84088307D01*
X169583430Y-84088309D01*
X169575138Y-84130000D01*
X118500500Y-84130000D01*
X118500500Y-79011304D01*
X131599500Y-79011304D01*
X131599500Y-79188695D01*
X131634103Y-79362658D01*
X131634106Y-79362667D01*
X131701983Y-79526540D01*
X131701990Y-79526553D01*
X131800535Y-79674034D01*
X131800538Y-79674038D01*
X131925961Y-79799461D01*
X131925965Y-79799464D01*
X132073446Y-79898009D01*
X132073459Y-79898016D01*
X132181628Y-79942820D01*
X132237334Y-79965894D01*
X132237336Y-79965894D01*
X132237341Y-79965896D01*
X132411304Y-80000499D01*
X132411307Y-80000500D01*
X132411309Y-80000500D01*
X132588693Y-80000500D01*
X132588694Y-80000499D01*
X132648058Y-79988691D01*
X132762658Y-79965896D01*
X132762661Y-79965894D01*
X132762666Y-79965894D01*
X132926547Y-79898013D01*
X133074035Y-79799464D01*
X133199464Y-79674035D01*
X133298013Y-79526547D01*
X133365894Y-79362666D01*
X133370932Y-79337341D01*
X133396001Y-79211309D01*
X133400500Y-79188691D01*
X133400500Y-79111304D01*
X134299500Y-79111304D01*
X134299500Y-79288695D01*
X134334103Y-79462658D01*
X134334106Y-79462667D01*
X134401983Y-79626540D01*
X134401990Y-79626553D01*
X134500535Y-79774034D01*
X134500538Y-79774038D01*
X134625961Y-79899461D01*
X134625965Y-79899464D01*
X134773446Y-79998009D01*
X134773459Y-79998016D01*
X134842355Y-80026553D01*
X134937334Y-80065894D01*
X134937336Y-80065894D01*
X134937341Y-80065896D01*
X135111304Y-80100499D01*
X135111307Y-80100500D01*
X135111309Y-80100500D01*
X135288693Y-80100500D01*
X135288694Y-80100499D01*
X135346682Y-80088964D01*
X135462658Y-80065896D01*
X135462661Y-80065894D01*
X135462666Y-80065894D01*
X135626547Y-79998013D01*
X135774035Y-79899464D01*
X135777591Y-79895908D01*
X135787819Y-79885681D01*
X135849142Y-79852196D01*
X135918834Y-79857180D01*
X135974767Y-79899052D01*
X135999184Y-79964516D01*
X135999500Y-79973362D01*
X135999500Y-79988695D01*
X136034103Y-80162658D01*
X136034106Y-80162667D01*
X136101983Y-80326540D01*
X136101990Y-80326553D01*
X136200535Y-80474034D01*
X136200538Y-80474038D01*
X136325961Y-80599461D01*
X136325965Y-80599464D01*
X136473446Y-80698009D01*
X136473459Y-80698016D01*
X136581377Y-80742716D01*
X136637334Y-80765894D01*
X136637336Y-80765894D01*
X136637341Y-80765896D01*
X136811304Y-80800499D01*
X136811307Y-80800500D01*
X136811309Y-80800500D01*
X136988693Y-80800500D01*
X136988694Y-80800499D01*
X137046682Y-80788964D01*
X137162658Y-80765896D01*
X137162661Y-80765894D01*
X137162666Y-80765894D01*
X137326547Y-80698013D01*
X137474035Y-80599464D01*
X137520931Y-80552568D01*
X137587819Y-80485681D01*
X137649142Y-80452196D01*
X137718834Y-80457180D01*
X137774767Y-80499052D01*
X137797744Y-80552568D01*
X137799500Y-80562891D01*
X137799500Y-80588691D01*
X137829794Y-80740992D01*
X137830088Y-80742716D01*
X137826200Y-80775761D01*
X137823234Y-80808910D01*
X137822133Y-80810326D01*
X137821924Y-80812107D01*
X137800791Y-80837799D01*
X137780371Y-80864088D01*
X137777573Y-80866029D01*
X137777541Y-80866069D01*
X137777496Y-80866083D01*
X137776736Y-80866611D01*
X137725965Y-80900536D01*
X137725958Y-80900542D01*
X137600538Y-81025961D01*
X137600535Y-81025965D01*
X137501990Y-81173446D01*
X137501983Y-81173459D01*
X137434106Y-81337332D01*
X137434103Y-81337341D01*
X137399500Y-81511304D01*
X137399500Y-81688695D01*
X137434103Y-81862658D01*
X137434106Y-81862667D01*
X137501983Y-82026540D01*
X137501990Y-82026553D01*
X137600535Y-82174034D01*
X137600538Y-82174038D01*
X137725961Y-82299461D01*
X137725965Y-82299464D01*
X137873446Y-82398009D01*
X137873459Y-82398016D01*
X137996363Y-82448923D01*
X138037334Y-82465894D01*
X138037336Y-82465894D01*
X138037341Y-82465896D01*
X138211304Y-82500499D01*
X138211307Y-82500500D01*
X138211309Y-82500500D01*
X138388693Y-82500500D01*
X138388694Y-82500499D01*
X138446682Y-82488964D01*
X138562658Y-82465896D01*
X138562661Y-82465894D01*
X138562666Y-82465894D01*
X138726547Y-82398013D01*
X138874035Y-82299464D01*
X138999464Y-82174035D01*
X139098013Y-82026547D01*
X139165894Y-81862666D01*
X139200500Y-81688691D01*
X139200500Y-81511309D01*
X139200500Y-81511306D01*
X139170538Y-81360681D01*
X139176765Y-81291089D01*
X139219628Y-81235912D01*
X139223242Y-81233402D01*
X139274035Y-81199464D01*
X139399464Y-81074035D01*
X139498013Y-80926547D01*
X139565894Y-80762666D01*
X139569863Y-80742716D01*
X139600499Y-80588695D01*
X139600500Y-80588693D01*
X139600500Y-80411306D01*
X139588045Y-80348692D01*
X139591390Y-80311304D01*
X149099500Y-80311304D01*
X149099500Y-80488695D01*
X149134103Y-80662658D01*
X149134106Y-80662667D01*
X149201983Y-80826540D01*
X149201990Y-80826553D01*
X149300535Y-80974034D01*
X149300538Y-80974038D01*
X149425961Y-81099461D01*
X149425965Y-81099464D01*
X149573446Y-81198009D01*
X149573459Y-81198016D01*
X149658852Y-81233386D01*
X149737334Y-81265894D01*
X149737336Y-81265894D01*
X149737341Y-81265896D01*
X149911304Y-81300499D01*
X149911307Y-81300500D01*
X149911309Y-81300500D01*
X150088693Y-81300500D01*
X150088694Y-81300499D01*
X150146682Y-81288964D01*
X150262658Y-81265896D01*
X150262661Y-81265894D01*
X150262666Y-81265894D01*
X150426547Y-81198013D01*
X150574035Y-81099464D01*
X150699464Y-80974035D01*
X150798013Y-80826547D01*
X150865894Y-80662666D01*
X150878467Y-80599461D01*
X150900499Y-80488695D01*
X150900500Y-80488693D01*
X150900500Y-80311306D01*
X150900499Y-80311304D01*
X150865896Y-80137341D01*
X150865893Y-80137332D01*
X150798016Y-79973459D01*
X150798012Y-79973452D01*
X150795755Y-79970074D01*
X150735200Y-79879447D01*
X150714323Y-79812772D01*
X150732807Y-79745392D01*
X150750623Y-79722876D01*
X150799461Y-79674038D01*
X150799464Y-79674035D01*
X150898013Y-79526547D01*
X150904327Y-79511304D01*
X153199500Y-79511304D01*
X153199500Y-79688695D01*
X153234103Y-79862658D01*
X153234106Y-79862667D01*
X153301983Y-80026540D01*
X153301990Y-80026553D01*
X153400535Y-80174034D01*
X153400538Y-80174038D01*
X153525961Y-80299461D01*
X153525965Y-80299464D01*
X153673446Y-80398009D01*
X153673459Y-80398016D01*
X153796363Y-80448923D01*
X153837334Y-80465894D01*
X153837336Y-80465894D01*
X153837341Y-80465896D01*
X154011304Y-80500499D01*
X154011307Y-80500500D01*
X154011309Y-80500500D01*
X154188693Y-80500500D01*
X154188694Y-80500499D01*
X154263191Y-80485681D01*
X154362658Y-80465896D01*
X154362661Y-80465894D01*
X154362666Y-80465894D01*
X154526547Y-80398013D01*
X154674035Y-80299464D01*
X154799464Y-80174035D01*
X154898013Y-80026547D01*
X154921405Y-79970072D01*
X154965245Y-79915670D01*
X155011773Y-79895908D01*
X155094516Y-79879450D01*
X155162658Y-79865896D01*
X155162661Y-79865894D01*
X155162666Y-79865894D01*
X155326547Y-79798013D01*
X155474035Y-79699464D01*
X155599464Y-79574035D01*
X155698013Y-79426547D01*
X155765894Y-79262666D01*
X155768851Y-79247804D01*
X155796001Y-79111309D01*
X155800500Y-79088691D01*
X155800500Y-78911309D01*
X155800500Y-78911306D01*
X155800499Y-78911304D01*
X155765896Y-78737341D01*
X155765893Y-78737332D01*
X155698016Y-78573459D01*
X155698009Y-78573446D01*
X155599464Y-78425965D01*
X155599461Y-78425961D01*
X155474038Y-78300538D01*
X155474034Y-78300535D01*
X155326553Y-78201990D01*
X155326540Y-78201983D01*
X155162667Y-78134106D01*
X155162658Y-78134103D01*
X154988694Y-78099500D01*
X154988691Y-78099500D01*
X154811309Y-78099500D01*
X154811306Y-78099500D01*
X154637341Y-78134103D01*
X154637332Y-78134106D01*
X154473459Y-78201983D01*
X154473446Y-78201990D01*
X154325965Y-78300535D01*
X154325961Y-78300538D01*
X154200538Y-78425961D01*
X154200535Y-78425965D01*
X154101990Y-78573446D01*
X154101987Y-78573452D01*
X154078594Y-78629928D01*
X154034752Y-78684331D01*
X153988225Y-78704091D01*
X153837340Y-78734104D01*
X153837332Y-78734106D01*
X153673459Y-78801983D01*
X153673446Y-78801990D01*
X153525965Y-78900535D01*
X153525961Y-78900538D01*
X153400538Y-79025961D01*
X153400535Y-79025965D01*
X153301990Y-79173446D01*
X153301983Y-79173459D01*
X153234106Y-79337332D01*
X153234103Y-79337341D01*
X153199500Y-79511304D01*
X150904327Y-79511304D01*
X150965894Y-79362666D01*
X150970932Y-79337341D01*
X150996001Y-79211309D01*
X151000500Y-79188691D01*
X151000500Y-79011309D01*
X151000500Y-79011306D01*
X151000499Y-79011304D01*
X150965896Y-78837341D01*
X150965893Y-78837332D01*
X150898016Y-78673459D01*
X150898009Y-78673446D01*
X150799464Y-78525965D01*
X150799461Y-78525961D01*
X150674038Y-78400538D01*
X150674034Y-78400535D01*
X150526553Y-78301990D01*
X150526540Y-78301983D01*
X150362667Y-78234106D01*
X150362658Y-78234103D01*
X150188694Y-78199500D01*
X150188691Y-78199500D01*
X150011309Y-78199500D01*
X150011306Y-78199500D01*
X149837341Y-78234103D01*
X149837332Y-78234106D01*
X149673459Y-78301983D01*
X149673446Y-78301990D01*
X149525965Y-78400535D01*
X149525961Y-78400538D01*
X149400538Y-78525961D01*
X149400535Y-78525965D01*
X149301990Y-78673446D01*
X149301983Y-78673459D01*
X149234106Y-78837332D01*
X149234103Y-78837341D01*
X149199500Y-79011304D01*
X149199500Y-79188695D01*
X149234103Y-79362658D01*
X149234106Y-79362667D01*
X149301983Y-79526540D01*
X149301990Y-79526552D01*
X149364798Y-79620550D01*
X149385676Y-79687227D01*
X149367192Y-79754607D01*
X149349378Y-79777121D01*
X149300539Y-79825960D01*
X149300535Y-79825965D01*
X149201990Y-79973446D01*
X149201983Y-79973459D01*
X149134106Y-80137332D01*
X149134103Y-80137341D01*
X149099500Y-80311304D01*
X139591390Y-80311304D01*
X139594272Y-80279100D01*
X139637135Y-80223923D01*
X139703025Y-80200678D01*
X139709662Y-80200500D01*
X139888693Y-80200500D01*
X139888694Y-80200499D01*
X139913213Y-80195622D01*
X139973650Y-80183601D01*
X139973655Y-80183600D01*
X140023446Y-80173695D01*
X140062666Y-80165894D01*
X140226547Y-80098013D01*
X140374035Y-79999464D01*
X140499464Y-79874035D01*
X140598013Y-79726547D01*
X140665894Y-79562666D01*
X140673078Y-79526553D01*
X140700499Y-79388695D01*
X140700500Y-79388693D01*
X140700500Y-79211306D01*
X140700499Y-79211304D01*
X140665896Y-79037341D01*
X140665893Y-79037332D01*
X140598016Y-78873459D01*
X140598009Y-78873446D01*
X140499464Y-78725965D01*
X140499461Y-78725961D01*
X140374038Y-78600538D01*
X140374034Y-78600535D01*
X140226553Y-78501990D01*
X140226540Y-78501983D01*
X140062667Y-78434106D01*
X140062658Y-78434103D01*
X139888694Y-78399500D01*
X139888691Y-78399500D01*
X139711309Y-78399500D01*
X139711306Y-78399500D01*
X139537341Y-78434103D01*
X139537332Y-78434106D01*
X139373459Y-78501983D01*
X139373446Y-78501990D01*
X139225965Y-78600535D01*
X139225961Y-78600538D01*
X139100538Y-78725961D01*
X139100535Y-78725965D01*
X139001990Y-78873446D01*
X139001983Y-78873459D01*
X138934106Y-79037332D01*
X138934103Y-79037341D01*
X138899500Y-79211304D01*
X138899500Y-79211309D01*
X138899500Y-79388691D01*
X138899500Y-79388693D01*
X138899499Y-79388693D01*
X138911955Y-79451308D01*
X138905728Y-79520900D01*
X138862865Y-79576077D01*
X138796975Y-79599322D01*
X138790338Y-79599500D01*
X138611306Y-79599500D01*
X138437341Y-79634103D01*
X138437332Y-79634106D01*
X138273459Y-79701983D01*
X138273446Y-79701990D01*
X138125965Y-79800535D01*
X138125961Y-79800538D01*
X138012181Y-79914319D01*
X137950858Y-79947804D01*
X137881166Y-79942820D01*
X137825233Y-79900948D01*
X137800816Y-79835484D01*
X137800500Y-79826638D01*
X137800500Y-79811306D01*
X137800499Y-79811304D01*
X137765896Y-79637341D01*
X137765893Y-79637332D01*
X137698016Y-79473459D01*
X137698009Y-79473446D01*
X137599464Y-79325965D01*
X137599461Y-79325961D01*
X137474038Y-79200538D01*
X137474034Y-79200535D01*
X137326553Y-79101990D01*
X137326540Y-79101983D01*
X137162667Y-79034106D01*
X137162658Y-79034103D01*
X136988694Y-78999500D01*
X136988691Y-78999500D01*
X136811309Y-78999500D01*
X136811306Y-78999500D01*
X136637341Y-79034103D01*
X136637332Y-79034106D01*
X136473459Y-79101983D01*
X136473446Y-79101990D01*
X136325965Y-79200535D01*
X136325961Y-79200538D01*
X136312181Y-79214319D01*
X136250858Y-79247804D01*
X136181166Y-79242820D01*
X136125233Y-79200948D01*
X136100816Y-79135484D01*
X136100500Y-79126638D01*
X136100500Y-79111306D01*
X136100499Y-79111304D01*
X136065896Y-78937341D01*
X136065893Y-78937332D01*
X135998016Y-78773459D01*
X135998009Y-78773446D01*
X135899464Y-78625965D01*
X135899461Y-78625961D01*
X135774038Y-78500538D01*
X135774034Y-78500535D01*
X135626553Y-78401990D01*
X135626540Y-78401983D01*
X135462667Y-78334106D01*
X135462658Y-78334103D01*
X135288694Y-78299500D01*
X135288691Y-78299500D01*
X135111309Y-78299500D01*
X135111306Y-78299500D01*
X134937341Y-78334103D01*
X134937332Y-78334106D01*
X134773459Y-78401983D01*
X134773446Y-78401990D01*
X134625965Y-78500535D01*
X134625961Y-78500538D01*
X134500538Y-78625961D01*
X134500535Y-78625965D01*
X134401990Y-78773446D01*
X134401983Y-78773459D01*
X134334106Y-78937332D01*
X134334103Y-78937341D01*
X134299500Y-79111304D01*
X133400500Y-79111304D01*
X133400500Y-79011309D01*
X133400500Y-79011306D01*
X133400499Y-79011304D01*
X133365896Y-78837341D01*
X133365893Y-78837332D01*
X133298016Y-78673459D01*
X133298014Y-78673455D01*
X133298013Y-78673453D01*
X133266280Y-78625961D01*
X133222864Y-78560985D01*
X133201986Y-78494308D01*
X133220470Y-78426928D01*
X133272449Y-78380237D01*
X133301777Y-78370476D01*
X133371688Y-78356570D01*
X133371693Y-78356569D01*
X133553671Y-78281192D01*
X133553684Y-78281185D01*
X133717462Y-78171751D01*
X133717466Y-78171748D01*
X133856748Y-78032466D01*
X133856751Y-78032462D01*
X133966185Y-77868684D01*
X133966192Y-77868671D01*
X134041569Y-77686693D01*
X134041572Y-77686681D01*
X134079999Y-77493495D01*
X134080000Y-77493492D01*
X134080000Y-77095000D01*
X133380000Y-77095000D01*
X133380000Y-76595000D01*
X133918216Y-76595000D01*
X133985255Y-76614685D01*
X134025602Y-76656999D01*
X134049485Y-76698365D01*
X134156635Y-76805515D01*
X134287865Y-76881281D01*
X134434234Y-76920500D01*
X134434236Y-76920500D01*
X134585764Y-76920500D01*
X134585766Y-76920500D01*
X134732135Y-76881281D01*
X134863365Y-76805515D01*
X134970515Y-76698365D01*
X135046281Y-76567135D01*
X135085500Y-76420766D01*
X135085500Y-76269234D01*
X139714500Y-76269234D01*
X139714500Y-76420765D01*
X139753719Y-76567136D01*
X139777765Y-76608784D01*
X139829485Y-76698365D01*
X139936635Y-76805515D01*
X140067865Y-76881281D01*
X140214234Y-76920500D01*
X140214236Y-76920500D01*
X140365763Y-76920500D01*
X140365766Y-76920500D01*
X140512135Y-76881281D01*
X140643365Y-76805515D01*
X140750515Y-76698365D01*
X140774397Y-76656999D01*
X140824964Y-76608784D01*
X140881784Y-76595000D01*
X141420000Y-76595000D01*
X141420000Y-77095000D01*
X140720000Y-77095000D01*
X140720000Y-77493495D01*
X140758427Y-77686681D01*
X140758430Y-77686693D01*
X140833807Y-77868671D01*
X140833814Y-77868684D01*
X140943248Y-78032462D01*
X140943251Y-78032466D01*
X141082533Y-78171748D01*
X141082537Y-78171751D01*
X141246315Y-78281185D01*
X141246328Y-78281192D01*
X141428308Y-78356569D01*
X141470000Y-78364862D01*
X141470000Y-77561988D01*
X141479940Y-77579205D01*
X141535795Y-77635060D01*
X141604204Y-77674556D01*
X141680504Y-77695000D01*
X141759496Y-77695000D01*
X141835796Y-77674556D01*
X141904205Y-77635060D01*
X141960060Y-77579205D01*
X141970000Y-77561988D01*
X141970000Y-78364862D01*
X142011690Y-78356569D01*
X142011692Y-78356569D01*
X142193671Y-78281192D01*
X142193684Y-78281185D01*
X142357462Y-78171751D01*
X142357466Y-78171748D01*
X142496748Y-78032466D01*
X142496751Y-78032462D01*
X142606185Y-77868684D01*
X142606192Y-77868671D01*
X142681569Y-77686693D01*
X142681572Y-77686681D01*
X142719999Y-77493495D01*
X142720000Y-77493492D01*
X142720000Y-77095000D01*
X142020000Y-77095000D01*
X142020000Y-76595000D01*
X142720000Y-76595000D01*
X142720000Y-76196508D01*
X142719999Y-76196504D01*
X142695753Y-76074608D01*
X142692152Y-76056504D01*
X147180000Y-76056504D01*
X147180000Y-76455000D01*
X147880000Y-76455000D01*
X147880000Y-76955000D01*
X147180000Y-76955000D01*
X147180000Y-77353495D01*
X147218427Y-77546681D01*
X147218430Y-77546693D01*
X147293807Y-77728671D01*
X147293814Y-77728684D01*
X147403248Y-77892462D01*
X147403251Y-77892466D01*
X147542533Y-78031748D01*
X147542537Y-78031751D01*
X147706315Y-78141185D01*
X147706328Y-78141192D01*
X147888308Y-78216569D01*
X147930000Y-78224862D01*
X147930000Y-77421988D01*
X147939940Y-77439205D01*
X147995795Y-77495060D01*
X148064204Y-77534556D01*
X148140504Y-77555000D01*
X148219496Y-77555000D01*
X148295796Y-77534556D01*
X148364205Y-77495060D01*
X148420060Y-77439205D01*
X148430000Y-77421988D01*
X148430000Y-78224862D01*
X148471690Y-78216569D01*
X148471692Y-78216569D01*
X148653671Y-78141192D01*
X148653684Y-78141185D01*
X148817462Y-78031751D01*
X148817466Y-78031748D01*
X148956748Y-77892466D01*
X148956751Y-77892462D01*
X149066185Y-77728684D01*
X149066192Y-77728671D01*
X149141569Y-77546693D01*
X149141572Y-77546681D01*
X149179999Y-77353495D01*
X149180000Y-77353492D01*
X149180000Y-76955000D01*
X148480000Y-76955000D01*
X148480000Y-76455000D01*
X149018216Y-76455000D01*
X149085255Y-76474685D01*
X149125602Y-76516999D01*
X149149485Y-76558365D01*
X149256635Y-76665515D01*
X149387865Y-76741281D01*
X149534234Y-76780500D01*
X149534236Y-76780500D01*
X149685764Y-76780500D01*
X149685766Y-76780500D01*
X149832135Y-76741281D01*
X149963365Y-76665515D01*
X150070515Y-76558365D01*
X150146281Y-76427135D01*
X150185500Y-76280766D01*
X150185500Y-76129234D01*
X154814500Y-76129234D01*
X154814500Y-76280765D01*
X154853719Y-76427136D01*
X154869807Y-76455000D01*
X154929485Y-76558365D01*
X155036635Y-76665515D01*
X155167865Y-76741281D01*
X155314234Y-76780500D01*
X155314236Y-76780500D01*
X155465763Y-76780500D01*
X155465766Y-76780500D01*
X155612135Y-76741281D01*
X155743365Y-76665515D01*
X155850515Y-76558365D01*
X155874397Y-76516999D01*
X155924964Y-76468784D01*
X155981784Y-76455000D01*
X156520000Y-76455000D01*
X156520000Y-76955000D01*
X155820000Y-76955000D01*
X155820000Y-77353495D01*
X155858427Y-77546681D01*
X155858430Y-77546693D01*
X155933807Y-77728671D01*
X155933814Y-77728684D01*
X156043248Y-77892462D01*
X156043251Y-77892466D01*
X156182533Y-78031748D01*
X156182537Y-78031751D01*
X156346315Y-78141185D01*
X156346328Y-78141192D01*
X156528308Y-78216569D01*
X156570000Y-78224862D01*
X156570000Y-77421988D01*
X156579940Y-77439205D01*
X156635795Y-77495060D01*
X156704204Y-77534556D01*
X156780504Y-77555000D01*
X156859496Y-77555000D01*
X156935796Y-77534556D01*
X157004205Y-77495060D01*
X157060060Y-77439205D01*
X157070000Y-77421988D01*
X157070000Y-78224862D01*
X157111690Y-78216569D01*
X157111692Y-78216569D01*
X157293671Y-78141192D01*
X157293684Y-78141185D01*
X157457462Y-78031751D01*
X157457466Y-78031748D01*
X157596748Y-77892466D01*
X157596751Y-77892462D01*
X157706185Y-77728684D01*
X157706192Y-77728671D01*
X157721360Y-77692053D01*
X157781569Y-77546693D01*
X157781572Y-77546681D01*
X157819999Y-77353495D01*
X157820000Y-77353492D01*
X157820000Y-76955000D01*
X157120000Y-76955000D01*
X157120000Y-76455000D01*
X157820000Y-76455000D01*
X157820000Y-76056508D01*
X157819999Y-76056504D01*
X157781572Y-75863318D01*
X157781569Y-75863306D01*
X157706192Y-75681328D01*
X157706185Y-75681315D01*
X157596751Y-75517537D01*
X157596748Y-75517533D01*
X157457466Y-75378251D01*
X157457462Y-75378248D01*
X157293684Y-75268814D01*
X157293671Y-75268807D01*
X157111691Y-75193429D01*
X157111683Y-75193427D01*
X157070000Y-75185135D01*
X157070000Y-75988011D01*
X157060060Y-75970795D01*
X157004205Y-75914940D01*
X156935796Y-75875444D01*
X156859496Y-75855000D01*
X156780504Y-75855000D01*
X156704204Y-75875444D01*
X156635795Y-75914940D01*
X156579940Y-75970795D01*
X156570000Y-75988011D01*
X156570000Y-75185136D01*
X156569999Y-75185135D01*
X156528316Y-75193427D01*
X156528308Y-75193429D01*
X156346328Y-75268807D01*
X156346315Y-75268814D01*
X156182537Y-75378248D01*
X156182533Y-75378251D01*
X156043251Y-75517533D01*
X156043248Y-75517537D01*
X155933814Y-75681315D01*
X155933809Y-75681324D01*
X155929866Y-75690845D01*
X155886023Y-75745247D01*
X155819728Y-75767310D01*
X155752030Y-75750029D01*
X155746597Y-75746351D01*
X155612136Y-75668719D01*
X155538950Y-75649109D01*
X155465766Y-75629500D01*
X155314234Y-75629500D01*
X155167863Y-75668719D01*
X155036635Y-75744485D01*
X155036632Y-75744487D01*
X154929487Y-75851632D01*
X154929485Y-75851635D01*
X154853719Y-75982863D01*
X154814500Y-76129234D01*
X150185500Y-76129234D01*
X150146281Y-75982865D01*
X150070515Y-75851635D01*
X149963365Y-75744485D01*
X149893406Y-75704094D01*
X149832136Y-75668719D01*
X149758950Y-75649109D01*
X149685766Y-75629500D01*
X149534234Y-75629500D01*
X149387863Y-75668719D01*
X149296428Y-75721510D01*
X149256635Y-75744485D01*
X149256633Y-75744486D01*
X149249597Y-75748549D01*
X149248327Y-75746349D01*
X149194995Y-75766960D01*
X149126552Y-75752914D01*
X149076568Y-75704094D01*
X149070131Y-75690838D01*
X149066192Y-75681328D01*
X149066185Y-75681315D01*
X148956751Y-75517537D01*
X148956748Y-75517533D01*
X148817466Y-75378251D01*
X148817462Y-75378248D01*
X148653684Y-75268814D01*
X148653671Y-75268807D01*
X148471691Y-75193429D01*
X148471683Y-75193427D01*
X148430000Y-75185135D01*
X148430000Y-75988011D01*
X148420060Y-75970795D01*
X148364205Y-75914940D01*
X148295796Y-75875444D01*
X148219496Y-75855000D01*
X148140504Y-75855000D01*
X148064204Y-75875444D01*
X147995795Y-75914940D01*
X147939940Y-75970795D01*
X147930000Y-75988011D01*
X147930000Y-75185136D01*
X147929999Y-75185135D01*
X147888316Y-75193427D01*
X147888308Y-75193429D01*
X147706328Y-75268807D01*
X147706315Y-75268814D01*
X147542537Y-75378248D01*
X147542533Y-75378251D01*
X147403251Y-75517533D01*
X147403248Y-75517537D01*
X147293814Y-75681315D01*
X147293807Y-75681328D01*
X147218430Y-75863306D01*
X147218427Y-75863318D01*
X147180000Y-76056504D01*
X142692152Y-76056504D01*
X142681572Y-76003318D01*
X142681569Y-76003306D01*
X142606192Y-75821328D01*
X142606185Y-75821315D01*
X142496751Y-75657537D01*
X142496748Y-75657533D01*
X142357466Y-75518251D01*
X142357462Y-75518248D01*
X142193684Y-75408814D01*
X142193671Y-75408807D01*
X142011691Y-75333429D01*
X142011683Y-75333427D01*
X141970000Y-75325135D01*
X141970000Y-76128011D01*
X141960060Y-76110795D01*
X141904205Y-76054940D01*
X141835796Y-76015444D01*
X141759496Y-75995000D01*
X141680504Y-75995000D01*
X141604204Y-76015444D01*
X141535795Y-76054940D01*
X141479940Y-76110795D01*
X141470000Y-76128011D01*
X141470000Y-75325136D01*
X141469999Y-75325135D01*
X141428316Y-75333427D01*
X141428308Y-75333429D01*
X141246328Y-75408807D01*
X141246315Y-75408814D01*
X141082537Y-75518248D01*
X141082533Y-75518251D01*
X140943251Y-75657533D01*
X140943248Y-75657537D01*
X140833814Y-75821315D01*
X140833809Y-75821324D01*
X140829866Y-75830845D01*
X140786023Y-75885247D01*
X140719728Y-75907310D01*
X140652030Y-75890029D01*
X140646597Y-75886351D01*
X140512136Y-75808719D01*
X140438950Y-75789109D01*
X140365766Y-75769500D01*
X140214234Y-75769500D01*
X140067863Y-75808719D01*
X139936635Y-75884485D01*
X139936632Y-75884487D01*
X139829487Y-75991632D01*
X139829485Y-75991635D01*
X139753719Y-76122863D01*
X139714500Y-76269234D01*
X135085500Y-76269234D01*
X135046281Y-76122865D01*
X134970515Y-75991635D01*
X134863365Y-75884485D01*
X134783861Y-75838583D01*
X134732136Y-75808719D01*
X134658950Y-75789109D01*
X134585766Y-75769500D01*
X134434234Y-75769500D01*
X134287863Y-75808719D01*
X134207704Y-75855000D01*
X134156635Y-75884485D01*
X134156633Y-75884486D01*
X134149597Y-75888549D01*
X134148327Y-75886349D01*
X134094995Y-75906960D01*
X134026552Y-75892914D01*
X133976568Y-75844094D01*
X133970131Y-75830838D01*
X133966192Y-75821328D01*
X133966185Y-75821315D01*
X133856751Y-75657537D01*
X133856748Y-75657533D01*
X133717466Y-75518251D01*
X133717462Y-75518248D01*
X133553684Y-75408814D01*
X133553671Y-75408807D01*
X133371691Y-75333429D01*
X133371683Y-75333427D01*
X133330000Y-75325135D01*
X133330000Y-76128011D01*
X133320060Y-76110795D01*
X133264205Y-76054940D01*
X133195796Y-76015444D01*
X133119496Y-75995000D01*
X133040504Y-75995000D01*
X132964204Y-76015444D01*
X132895795Y-76054940D01*
X132839940Y-76110795D01*
X132830000Y-76128011D01*
X132830000Y-75325136D01*
X132829999Y-75325135D01*
X132788316Y-75333427D01*
X132788308Y-75333429D01*
X132606328Y-75408807D01*
X132606315Y-75408814D01*
X132442537Y-75518248D01*
X132442533Y-75518251D01*
X132303251Y-75657533D01*
X132303248Y-75657537D01*
X132193814Y-75821315D01*
X132193807Y-75821328D01*
X132118430Y-76003306D01*
X132118427Y-76003318D01*
X132080000Y-76196504D01*
X132080000Y-76595000D01*
X132780000Y-76595000D01*
X132780000Y-77095000D01*
X132080000Y-77095000D01*
X132080000Y-77493495D01*
X132118427Y-77686681D01*
X132118430Y-77686693D01*
X132193807Y-77868671D01*
X132193814Y-77868684D01*
X132303250Y-78032466D01*
X132305019Y-78034621D01*
X132305591Y-78035969D01*
X132306633Y-78037528D01*
X132306337Y-78037725D01*
X132332328Y-78098932D01*
X132320533Y-78167799D01*
X132273377Y-78219357D01*
X132242831Y-78231222D01*
X132243169Y-78232336D01*
X132237332Y-78234106D01*
X132073459Y-78301983D01*
X132073446Y-78301990D01*
X131925965Y-78400535D01*
X131925961Y-78400538D01*
X131800538Y-78525961D01*
X131800535Y-78525965D01*
X131701990Y-78673446D01*
X131701983Y-78673459D01*
X131634106Y-78837332D01*
X131634103Y-78837341D01*
X131599500Y-79011304D01*
X118500500Y-79011304D01*
X118500500Y-75002706D01*
X118500618Y-74997297D01*
X118508436Y-74818234D01*
X119300000Y-74818234D01*
X119300000Y-75181765D01*
X119335632Y-75543556D01*
X119406550Y-75900090D01*
X119406553Y-75900101D01*
X119512086Y-76247997D01*
X119651207Y-76583864D01*
X119651209Y-76583869D01*
X119822570Y-76904462D01*
X119822581Y-76904480D01*
X120024551Y-77206750D01*
X120211678Y-77434765D01*
X120211679Y-77434766D01*
X121705747Y-75940697D01*
X121779588Y-76042330D01*
X121957670Y-76220412D01*
X122059301Y-76294251D01*
X120565232Y-77788319D01*
X120565233Y-77788320D01*
X120793249Y-77975448D01*
X121095519Y-78177418D01*
X121095537Y-78177429D01*
X121416130Y-78348790D01*
X121416135Y-78348792D01*
X121752002Y-78487913D01*
X122099898Y-78593446D01*
X122099909Y-78593449D01*
X122456443Y-78664367D01*
X122818234Y-78700000D01*
X123181766Y-78700000D01*
X123543556Y-78664367D01*
X123900090Y-78593449D01*
X123900101Y-78593446D01*
X124247997Y-78487913D01*
X124583864Y-78348792D01*
X124583869Y-78348790D01*
X124904462Y-78177429D01*
X124904480Y-78177418D01*
X125206736Y-77975457D01*
X125206750Y-77975447D01*
X125434765Y-77788320D01*
X125434766Y-77788319D01*
X123940698Y-76294251D01*
X124042330Y-76220412D01*
X124220412Y-76042330D01*
X124294251Y-75940698D01*
X125788319Y-77434766D01*
X125788320Y-77434765D01*
X125975447Y-77206750D01*
X125975457Y-77206736D01*
X126177418Y-76904480D01*
X126177429Y-76904462D01*
X126348790Y-76583869D01*
X126348792Y-76583864D01*
X126487913Y-76247997D01*
X126516299Y-76154422D01*
X126593446Y-75900101D01*
X126593449Y-75900090D01*
X126664367Y-75543556D01*
X126700000Y-75181765D01*
X126700000Y-74818234D01*
X169300000Y-74818234D01*
X169300000Y-75181765D01*
X169335632Y-75543556D01*
X169406550Y-75900090D01*
X169406553Y-75900101D01*
X169512086Y-76247997D01*
X169651207Y-76583864D01*
X169651209Y-76583869D01*
X169822570Y-76904462D01*
X169822581Y-76904480D01*
X170024551Y-77206750D01*
X170211678Y-77434765D01*
X170211679Y-77434766D01*
X171705747Y-75940697D01*
X171779588Y-76042330D01*
X171957670Y-76220412D01*
X172059301Y-76294251D01*
X170565232Y-77788319D01*
X170565233Y-77788320D01*
X170793249Y-77975448D01*
X171095519Y-78177418D01*
X171095537Y-78177429D01*
X171416130Y-78348790D01*
X171416135Y-78348792D01*
X171752002Y-78487913D01*
X172099898Y-78593446D01*
X172099909Y-78593449D01*
X172456443Y-78664367D01*
X172818234Y-78700000D01*
X173181766Y-78700000D01*
X173543556Y-78664367D01*
X173900090Y-78593449D01*
X173900101Y-78593446D01*
X174247997Y-78487913D01*
X174583864Y-78348792D01*
X174583869Y-78348790D01*
X174904462Y-78177429D01*
X174904480Y-78177418D01*
X175206736Y-77975457D01*
X175206750Y-77975447D01*
X175434765Y-77788320D01*
X175434766Y-77788319D01*
X173940698Y-76294251D01*
X174042330Y-76220412D01*
X174220412Y-76042330D01*
X174294251Y-75940698D01*
X175788319Y-77434766D01*
X175788320Y-77434765D01*
X175975447Y-77206750D01*
X175975457Y-77206736D01*
X176177418Y-76904480D01*
X176177429Y-76904462D01*
X176348790Y-76583869D01*
X176348792Y-76583864D01*
X176487913Y-76247997D01*
X176593446Y-75900101D01*
X176593449Y-75900090D01*
X176664367Y-75543556D01*
X176700000Y-75181765D01*
X176700000Y-74818234D01*
X176664367Y-74456443D01*
X176593449Y-74099909D01*
X176593446Y-74099898D01*
X176487913Y-73752002D01*
X176348792Y-73416135D01*
X176348790Y-73416130D01*
X176177429Y-73095537D01*
X176177418Y-73095519D01*
X175975448Y-72793249D01*
X175788320Y-72565233D01*
X175788319Y-72565232D01*
X174294251Y-74059300D01*
X174220412Y-73957670D01*
X174042330Y-73779588D01*
X173940698Y-73705748D01*
X175434766Y-72211679D01*
X175434765Y-72211678D01*
X175206750Y-72024551D01*
X174904480Y-71822581D01*
X174904462Y-71822570D01*
X174583869Y-71651209D01*
X174583864Y-71651207D01*
X174247997Y-71512086D01*
X173900101Y-71406553D01*
X173900090Y-71406550D01*
X173543556Y-71335632D01*
X173181766Y-71300000D01*
X172818234Y-71300000D01*
X172456443Y-71335632D01*
X172099909Y-71406550D01*
X172099898Y-71406553D01*
X171752002Y-71512086D01*
X171416135Y-71651207D01*
X171416130Y-71651209D01*
X171095537Y-71822570D01*
X171095519Y-71822581D01*
X170793258Y-72024545D01*
X170793254Y-72024548D01*
X170565233Y-72211679D01*
X170565233Y-72211680D01*
X172059301Y-73705748D01*
X171957670Y-73779588D01*
X171779588Y-73957670D01*
X171705748Y-74059301D01*
X170211680Y-72565233D01*
X170211679Y-72565233D01*
X170024548Y-72793254D01*
X170024545Y-72793258D01*
X169822581Y-73095519D01*
X169822570Y-73095537D01*
X169651209Y-73416130D01*
X169651207Y-73416135D01*
X169512086Y-73752002D01*
X169406553Y-74099898D01*
X169406550Y-74099909D01*
X169335632Y-74456443D01*
X169300000Y-74818234D01*
X126700000Y-74818234D01*
X126664367Y-74456443D01*
X126593449Y-74099909D01*
X126593446Y-74099898D01*
X126487913Y-73752002D01*
X126348792Y-73416135D01*
X126348790Y-73416130D01*
X126177429Y-73095537D01*
X126177418Y-73095519D01*
X126068512Y-72932529D01*
X125975448Y-72793249D01*
X125788320Y-72565233D01*
X125788319Y-72565232D01*
X124294251Y-74059300D01*
X124220412Y-73957670D01*
X124042330Y-73779588D01*
X123940698Y-73705748D01*
X125379937Y-72266508D01*
X132080000Y-72266508D01*
X132080000Y-72415000D01*
X132780000Y-72415000D01*
X132780000Y-72915000D01*
X132080000Y-72915000D01*
X132080000Y-73063495D01*
X132118427Y-73256681D01*
X132118430Y-73256693D01*
X132193807Y-73438671D01*
X132193814Y-73438684D01*
X132303248Y-73602462D01*
X132303251Y-73602466D01*
X132442533Y-73741748D01*
X132442537Y-73741751D01*
X132606315Y-73851185D01*
X132606328Y-73851192D01*
X132788308Y-73926569D01*
X132830000Y-73934862D01*
X132830000Y-73131988D01*
X132839940Y-73149205D01*
X132895795Y-73205060D01*
X132964204Y-73244556D01*
X133040504Y-73265000D01*
X133119496Y-73265000D01*
X133195796Y-73244556D01*
X133264205Y-73205060D01*
X133320060Y-73149205D01*
X133330000Y-73131988D01*
X133330000Y-73934862D01*
X133371690Y-73926569D01*
X133371692Y-73926569D01*
X133553671Y-73851192D01*
X133553684Y-73851185D01*
X133717462Y-73741751D01*
X133717466Y-73741748D01*
X133856748Y-73602466D01*
X133856751Y-73602462D01*
X133966185Y-73438684D01*
X133966192Y-73438671D01*
X134041569Y-73256693D01*
X134041572Y-73256681D01*
X134079999Y-73063495D01*
X134080000Y-73063492D01*
X134080000Y-72915000D01*
X133380000Y-72915000D01*
X133380000Y-72415000D01*
X134080000Y-72415000D01*
X134080000Y-72266508D01*
X140720000Y-72266508D01*
X140720000Y-72415000D01*
X141420000Y-72415000D01*
X141420000Y-72915000D01*
X140720000Y-72915000D01*
X140720000Y-73063495D01*
X140758427Y-73256681D01*
X140758430Y-73256693D01*
X140833807Y-73438671D01*
X140833814Y-73438684D01*
X140943248Y-73602462D01*
X140943251Y-73602466D01*
X141082533Y-73741748D01*
X141082537Y-73741751D01*
X141246315Y-73851185D01*
X141246328Y-73851192D01*
X141428308Y-73926569D01*
X141470000Y-73934862D01*
X141470000Y-73131988D01*
X141479940Y-73149205D01*
X141535795Y-73205060D01*
X141604204Y-73244556D01*
X141680504Y-73265000D01*
X141759496Y-73265000D01*
X141835796Y-73244556D01*
X141904205Y-73205060D01*
X141960060Y-73149205D01*
X141970000Y-73131988D01*
X141970000Y-73934862D01*
X142011690Y-73926569D01*
X142011692Y-73926569D01*
X142193671Y-73851192D01*
X142193684Y-73851185D01*
X142357462Y-73741751D01*
X142357466Y-73741748D01*
X142496748Y-73602466D01*
X142496751Y-73602462D01*
X142606185Y-73438684D01*
X142606192Y-73438671D01*
X142681569Y-73256693D01*
X142681572Y-73256681D01*
X142719999Y-73063495D01*
X142720000Y-73063492D01*
X142720000Y-72915000D01*
X142020000Y-72915000D01*
X142020000Y-72415000D01*
X142720000Y-72415000D01*
X142720000Y-72266508D01*
X142719999Y-72266501D01*
X142695753Y-72144608D01*
X142692152Y-72126504D01*
X147180000Y-72126504D01*
X147180000Y-72275000D01*
X147880000Y-72275000D01*
X147880000Y-72775000D01*
X147180000Y-72775000D01*
X147180000Y-72923495D01*
X147218427Y-73116681D01*
X147218430Y-73116693D01*
X147293807Y-73298671D01*
X147293814Y-73298684D01*
X147403248Y-73462462D01*
X147403251Y-73462466D01*
X147542533Y-73601748D01*
X147542537Y-73601751D01*
X147706315Y-73711185D01*
X147706328Y-73711192D01*
X147888308Y-73786569D01*
X147930000Y-73794862D01*
X147930000Y-72991988D01*
X147939940Y-73009205D01*
X147995795Y-73065060D01*
X148064204Y-73104556D01*
X148140504Y-73125000D01*
X148219496Y-73125000D01*
X148295796Y-73104556D01*
X148364205Y-73065060D01*
X148420060Y-73009205D01*
X148430000Y-72991988D01*
X148430000Y-73794862D01*
X148471690Y-73786569D01*
X148471692Y-73786569D01*
X148653671Y-73711192D01*
X148653684Y-73711185D01*
X148817462Y-73601751D01*
X148817466Y-73601748D01*
X148956748Y-73462466D01*
X148956751Y-73462462D01*
X149066185Y-73298684D01*
X149066192Y-73298671D01*
X149141569Y-73116693D01*
X149141572Y-73116681D01*
X149179999Y-72923495D01*
X149180000Y-72923492D01*
X149180000Y-72775000D01*
X148480000Y-72775000D01*
X148480000Y-72275000D01*
X149180000Y-72275000D01*
X149180000Y-72126508D01*
X149179999Y-72126504D01*
X155820000Y-72126504D01*
X155820000Y-72275000D01*
X156520000Y-72275000D01*
X156520000Y-72775000D01*
X155820000Y-72775000D01*
X155820000Y-72923495D01*
X155858427Y-73116681D01*
X155858430Y-73116693D01*
X155933807Y-73298671D01*
X155933814Y-73298684D01*
X156043248Y-73462462D01*
X156043251Y-73462466D01*
X156182533Y-73601748D01*
X156182537Y-73601751D01*
X156346315Y-73711185D01*
X156346328Y-73711192D01*
X156528308Y-73786569D01*
X156570000Y-73794862D01*
X156570000Y-72991988D01*
X156579940Y-73009205D01*
X156635795Y-73065060D01*
X156704204Y-73104556D01*
X156780504Y-73125000D01*
X156859496Y-73125000D01*
X156935796Y-73104556D01*
X157004205Y-73065060D01*
X157060060Y-73009205D01*
X157070000Y-72991988D01*
X157070000Y-73794862D01*
X157111690Y-73786569D01*
X157111692Y-73786569D01*
X157293671Y-73711192D01*
X157293684Y-73711185D01*
X157457462Y-73601751D01*
X157457466Y-73601748D01*
X157596748Y-73462466D01*
X157596751Y-73462462D01*
X157706185Y-73298684D01*
X157706192Y-73298671D01*
X157781569Y-73116693D01*
X157781572Y-73116681D01*
X157819999Y-72923495D01*
X157820000Y-72923492D01*
X157820000Y-72775000D01*
X157120000Y-72775000D01*
X157120000Y-72275000D01*
X157820000Y-72275000D01*
X157820000Y-72126508D01*
X157819999Y-72126504D01*
X157781572Y-71933318D01*
X157781569Y-71933306D01*
X157706192Y-71751328D01*
X157706185Y-71751315D01*
X157596751Y-71587537D01*
X157596748Y-71587533D01*
X157457466Y-71448251D01*
X157457462Y-71448248D01*
X157293684Y-71338814D01*
X157293671Y-71338807D01*
X157111691Y-71263429D01*
X157111683Y-71263427D01*
X157070000Y-71255135D01*
X157070000Y-72058011D01*
X157060060Y-72040795D01*
X157004205Y-71984940D01*
X156935796Y-71945444D01*
X156859496Y-71925000D01*
X156780504Y-71925000D01*
X156704204Y-71945444D01*
X156635795Y-71984940D01*
X156579940Y-72040795D01*
X156570000Y-72058011D01*
X156570000Y-71255136D01*
X156569999Y-71255135D01*
X156528316Y-71263427D01*
X156528308Y-71263429D01*
X156346328Y-71338807D01*
X156346315Y-71338814D01*
X156182537Y-71448248D01*
X156182533Y-71448251D01*
X156043251Y-71587533D01*
X156043248Y-71587537D01*
X155933814Y-71751315D01*
X155933807Y-71751328D01*
X155858430Y-71933306D01*
X155858427Y-71933318D01*
X155820000Y-72126504D01*
X149179999Y-72126504D01*
X149141572Y-71933318D01*
X149141569Y-71933306D01*
X149066192Y-71751328D01*
X149066185Y-71751315D01*
X148956751Y-71587537D01*
X148956748Y-71587533D01*
X148817466Y-71448251D01*
X148817462Y-71448248D01*
X148653684Y-71338814D01*
X148653671Y-71338807D01*
X148471691Y-71263429D01*
X148471683Y-71263427D01*
X148430000Y-71255135D01*
X148430000Y-72058011D01*
X148420060Y-72040795D01*
X148364205Y-71984940D01*
X148295796Y-71945444D01*
X148219496Y-71925000D01*
X148140504Y-71925000D01*
X148064204Y-71945444D01*
X147995795Y-71984940D01*
X147939940Y-72040795D01*
X147930000Y-72058011D01*
X147930000Y-71255136D01*
X147929999Y-71255135D01*
X147888316Y-71263427D01*
X147888308Y-71263429D01*
X147706328Y-71338807D01*
X147706315Y-71338814D01*
X147542537Y-71448248D01*
X147542533Y-71448251D01*
X147403251Y-71587533D01*
X147403248Y-71587537D01*
X147293814Y-71751315D01*
X147293807Y-71751328D01*
X147218430Y-71933306D01*
X147218427Y-71933318D01*
X147180000Y-72126504D01*
X142692152Y-72126504D01*
X142681572Y-72073318D01*
X142681569Y-72073306D01*
X142606192Y-71891328D01*
X142606185Y-71891315D01*
X142496751Y-71727537D01*
X142496748Y-71727533D01*
X142357466Y-71588251D01*
X142357462Y-71588248D01*
X142193684Y-71478814D01*
X142193671Y-71478807D01*
X142011691Y-71403429D01*
X142011683Y-71403427D01*
X141970000Y-71395135D01*
X141970000Y-72198011D01*
X141960060Y-72180795D01*
X141904205Y-72124940D01*
X141835796Y-72085444D01*
X141759496Y-72065000D01*
X141680504Y-72065000D01*
X141604204Y-72085444D01*
X141535795Y-72124940D01*
X141479940Y-72180795D01*
X141470000Y-72198011D01*
X141470000Y-71395136D01*
X141469999Y-71395135D01*
X141428316Y-71403427D01*
X141428308Y-71403429D01*
X141246328Y-71478807D01*
X141246315Y-71478814D01*
X141082537Y-71588248D01*
X141082533Y-71588251D01*
X140943251Y-71727533D01*
X140943248Y-71727537D01*
X140833814Y-71891315D01*
X140833807Y-71891328D01*
X140758430Y-72073306D01*
X140758427Y-72073318D01*
X140720001Y-72266501D01*
X140720000Y-72266508D01*
X134080000Y-72266508D01*
X134079999Y-72266501D01*
X134041572Y-72073318D01*
X134041569Y-72073306D01*
X133966192Y-71891328D01*
X133966185Y-71891315D01*
X133856751Y-71727537D01*
X133856748Y-71727533D01*
X133717466Y-71588251D01*
X133717462Y-71588248D01*
X133553684Y-71478814D01*
X133553671Y-71478807D01*
X133371691Y-71403429D01*
X133371683Y-71403427D01*
X133330000Y-71395135D01*
X133330000Y-72198011D01*
X133320060Y-72180795D01*
X133264205Y-72124940D01*
X133195796Y-72085444D01*
X133119496Y-72065000D01*
X133040504Y-72065000D01*
X132964204Y-72085444D01*
X132895795Y-72124940D01*
X132839940Y-72180795D01*
X132830000Y-72198011D01*
X132830000Y-71395136D01*
X132829999Y-71395135D01*
X132788316Y-71403427D01*
X132788308Y-71403429D01*
X132606328Y-71478807D01*
X132606315Y-71478814D01*
X132442537Y-71588248D01*
X132442533Y-71588251D01*
X132303251Y-71727533D01*
X132303248Y-71727537D01*
X132193814Y-71891315D01*
X132193807Y-71891328D01*
X132118430Y-72073306D01*
X132118427Y-72073318D01*
X132080001Y-72266501D01*
X132080000Y-72266508D01*
X125379937Y-72266508D01*
X125434765Y-72211680D01*
X125434765Y-72211678D01*
X125206750Y-72024551D01*
X124904480Y-71822581D01*
X124904462Y-71822570D01*
X124583869Y-71651209D01*
X124583864Y-71651207D01*
X124247997Y-71512086D01*
X123900101Y-71406553D01*
X123900090Y-71406550D01*
X123543556Y-71335632D01*
X123181766Y-71300000D01*
X122818234Y-71300000D01*
X122456443Y-71335632D01*
X122099909Y-71406550D01*
X122099898Y-71406553D01*
X121752002Y-71512086D01*
X121416135Y-71651207D01*
X121416130Y-71651209D01*
X121095537Y-71822570D01*
X121095519Y-71822581D01*
X120793258Y-72024545D01*
X120793254Y-72024548D01*
X120565233Y-72211679D01*
X120565233Y-72211680D01*
X122059301Y-73705748D01*
X121957670Y-73779588D01*
X121779588Y-73957670D01*
X121705748Y-74059301D01*
X120211680Y-72565233D01*
X120211679Y-72565233D01*
X120024548Y-72793254D01*
X120024545Y-72793258D01*
X119822581Y-73095519D01*
X119822570Y-73095537D01*
X119651209Y-73416130D01*
X119651207Y-73416135D01*
X119512086Y-73752002D01*
X119406553Y-74099898D01*
X119406550Y-74099909D01*
X119335632Y-74456443D01*
X119300000Y-74818234D01*
X118508436Y-74818234D01*
X118508805Y-74809778D01*
X118508805Y-74809777D01*
X118510433Y-74772498D01*
X118517386Y-74613228D01*
X118518326Y-74602495D01*
X118568152Y-74224025D01*
X118570025Y-74213405D01*
X118652649Y-73840709D01*
X118655440Y-73830295D01*
X118770230Y-73466227D01*
X118773917Y-73456095D01*
X118920003Y-73103412D01*
X118924561Y-73093638D01*
X119100822Y-72755045D01*
X119106217Y-72745700D01*
X119311325Y-72423744D01*
X119317515Y-72414905D01*
X119549896Y-72112060D01*
X119556834Y-72103791D01*
X119814726Y-71822352D01*
X119822352Y-71814726D01*
X120103791Y-71556834D01*
X120112060Y-71549896D01*
X120414905Y-71317515D01*
X120423744Y-71311325D01*
X120745700Y-71106217D01*
X120755045Y-71100822D01*
X121093638Y-70924561D01*
X121103412Y-70920003D01*
X121456095Y-70773917D01*
X121466227Y-70770230D01*
X121830295Y-70655440D01*
X121840709Y-70652649D01*
X122213405Y-70570025D01*
X122224025Y-70568152D01*
X122602495Y-70518326D01*
X122613226Y-70517386D01*
X122997297Y-70500617D01*
X123002706Y-70500500D01*
X123065892Y-70500500D01*
X172934108Y-70500500D01*
X172997294Y-70500500D01*
X173002702Y-70500617D01*
G37*
%TD.AperFunction*%
%TD*%
M02*
