%TF.GenerationSoftware,KiCad,Pcbnew,9.0.1*%
%TF.CreationDate,2025-04-07T20:17:48+02:00*%
%TF.ProjectId,PCB_COM,5043425f-434f-44d2-9e6b-696361645f70,rev?*%
%TF.SameCoordinates,Original*%
%TF.FileFunction,Soldermask,Bot*%
%TF.FilePolarity,Negative*%
%FSLAX46Y46*%
G04 Gerber Fmt 4.6, Leading zero omitted, Abs format (unit mm)*
G04 Created by KiCad (PCBNEW 9.0.1) date 2025-04-07 20:17:48*
%MOMM*%
%LPD*%
G01*
G04 APERTURE LIST*
%ADD10O,1.600000X1.000000*%
%ADD11O,2.100000X1.000000*%
%ADD12C,0.650000*%
%ADD13O,1.000000X1.600000*%
%ADD14O,1.000000X2.100000*%
%ADD15C,0.800000*%
%ADD16C,6.400000*%
G04 APERTURE END LIST*
D10*
%TO.C,J2*%
X120625000Y-104320000D03*
D11*
X124805000Y-104320000D03*
D10*
X120625000Y-95680000D03*
D11*
X124805000Y-95680000D03*
D12*
X124305000Y-102890000D03*
X124305000Y-97110000D03*
%TD*%
D13*
%TO.C,J6*%
X145720000Y-127375000D03*
D14*
X145720000Y-123195000D03*
D13*
X137080000Y-127375000D03*
D14*
X137080000Y-123195000D03*
D12*
X144290000Y-123695000D03*
X138510000Y-123695000D03*
%TD*%
D10*
%TO.C,J4*%
X175275000Y-84380000D03*
D11*
X171095000Y-84380000D03*
D10*
X175275000Y-93020000D03*
D11*
X171095000Y-93020000D03*
D12*
X171595000Y-85810000D03*
X171595000Y-91590000D03*
%TD*%
D13*
%TO.C,J5*%
X133080000Y-72665000D03*
D14*
X133080000Y-76845000D03*
D13*
X141720000Y-72665000D03*
D14*
X141720000Y-76845000D03*
D12*
X134510000Y-76345000D03*
X140290000Y-76345000D03*
%TD*%
D13*
%TO.C,J3*%
X148180000Y-72525000D03*
D14*
X148180000Y-76705000D03*
D13*
X156820000Y-72525000D03*
D14*
X156820000Y-76705000D03*
D12*
X149610000Y-76205000D03*
X155390000Y-76205000D03*
%TD*%
D15*
%TO.C,H4*%
X175400000Y-125000000D03*
X174697056Y-126697056D03*
X174697056Y-123302944D03*
X173000000Y-127400000D03*
D16*
X173000000Y-125000000D03*
D15*
X173000000Y-122600000D03*
X171302944Y-126697056D03*
X171302944Y-123302944D03*
X170600000Y-125000000D03*
%TD*%
%TO.C,H2*%
X175400000Y-75000000D03*
X174697056Y-76697056D03*
X174697056Y-73302944D03*
X173000000Y-77400000D03*
D16*
X173000000Y-75000000D03*
D15*
X173000000Y-72600000D03*
X171302944Y-76697056D03*
X171302944Y-73302944D03*
X170600000Y-75000000D03*
%TD*%
%TO.C,H1*%
X125400000Y-75000000D03*
X124697056Y-76697056D03*
X124697056Y-73302944D03*
X123000000Y-77400000D03*
D16*
X123000000Y-75000000D03*
D15*
X123000000Y-72600000D03*
X121302944Y-76697056D03*
X121302944Y-73302944D03*
X120600000Y-75000000D03*
%TD*%
%TO.C,H3*%
X125400000Y-125000000D03*
X124697056Y-126697056D03*
X124697056Y-123302944D03*
X123000000Y-127400000D03*
D16*
X123000000Y-125000000D03*
D15*
X123000000Y-122600000D03*
X121302944Y-126697056D03*
X121302944Y-123302944D03*
X120600000Y-125000000D03*
%TD*%
M02*
