%TF.GenerationSoftware,KiCad,Pcbnew,9.0.1-9.0.1-0~ubuntu22.04.1*%
%TF.CreationDate,2025-04-08T13:36:12+02:00*%
%TF.ProjectId,TMC262_Stepper_Driver,544d4332-3632-45f5-9374-65707065725f,rev?*%
%TF.SameCoordinates,Original*%
%TF.FileFunction,Legend,Top*%
%TF.FilePolarity,Positive*%
%FSLAX46Y46*%
G04 Gerber Fmt 4.6, Leading zero omitted, Abs format (unit mm)*
G04 Created by KiCad (PCBNEW 9.0.1-9.0.1-0~ubuntu22.04.1) date 2025-04-08 13:36:12*
%MOMM*%
%LPD*%
G01*
G04 APERTURE LIST*
%ADD10C,0.100000*%
%ADD11C,0.150000*%
%ADD12C,0.120000*%
%ADD13C,0.152400*%
%ADD14C,0.050000*%
%ADD15C,0.125000*%
G04 APERTURE END LIST*
D10*
G36*
X91422991Y-83659147D02*
G01*
X91475575Y-83711732D01*
X91502823Y-83766230D01*
X91533333Y-83888267D01*
X91533333Y-83975959D01*
X91502823Y-84097995D01*
X91475575Y-84152493D01*
X91422991Y-84205078D01*
X91341887Y-84232113D01*
X91233333Y-84232113D01*
X91233333Y-83632113D01*
X91341887Y-83632113D01*
X91422991Y-83659147D01*
G37*
G36*
X91422991Y-82532187D02*
G01*
X91475575Y-82584772D01*
X91502823Y-82639270D01*
X91533333Y-82761307D01*
X91533333Y-82848999D01*
X91502823Y-82971035D01*
X91475575Y-83025533D01*
X91422991Y-83078118D01*
X91341887Y-83105153D01*
X91233333Y-83105153D01*
X91233333Y-82505153D01*
X91341887Y-82505153D01*
X91422991Y-82532187D01*
G37*
G36*
X92120381Y-82529578D02*
G01*
X92142241Y-82551438D01*
X92169491Y-82605937D01*
X92200000Y-82727973D01*
X92200000Y-82882332D01*
X92169491Y-83004368D01*
X92142241Y-83058867D01*
X92120381Y-83080727D01*
X92071531Y-83105153D01*
X92028470Y-83105153D01*
X91979620Y-83080728D01*
X91957758Y-83058867D01*
X91930508Y-83004368D01*
X91900000Y-82882331D01*
X91900000Y-82727974D01*
X91930508Y-82605937D01*
X91957758Y-82551438D01*
X91979620Y-82529577D01*
X92028470Y-82505153D01*
X92071531Y-82505153D01*
X92120381Y-82529578D01*
G37*
G36*
X92377778Y-84409891D02*
G01*
X89855555Y-84409891D01*
X89855555Y-83582113D01*
X89933333Y-83582113D01*
X89933333Y-84282113D01*
X89937139Y-84301247D01*
X89964199Y-84328307D01*
X89983333Y-84332113D01*
X90316667Y-84332113D01*
X90335801Y-84328307D01*
X90362861Y-84301247D01*
X90362861Y-84262979D01*
X90335801Y-84235919D01*
X90316667Y-84232113D01*
X90033333Y-84232113D01*
X90033333Y-83582113D01*
X90500000Y-83582113D01*
X90500000Y-84282113D01*
X90503806Y-84301247D01*
X90530866Y-84328307D01*
X90550000Y-84332113D01*
X90883334Y-84332113D01*
X90902468Y-84328307D01*
X90929528Y-84301247D01*
X90929528Y-84262979D01*
X90902468Y-84235919D01*
X90883334Y-84232113D01*
X90600000Y-84232113D01*
X90600000Y-83965446D01*
X90783334Y-83965446D01*
X90802468Y-83961640D01*
X90829528Y-83934580D01*
X90829528Y-83896312D01*
X90802468Y-83869252D01*
X90783334Y-83865446D01*
X90600000Y-83865446D01*
X90600000Y-83632113D01*
X90883334Y-83632113D01*
X90902468Y-83628307D01*
X90929528Y-83601247D01*
X90929528Y-83582113D01*
X91133333Y-83582113D01*
X91133333Y-84282113D01*
X91137139Y-84301247D01*
X91164199Y-84328307D01*
X91183333Y-84332113D01*
X91350000Y-84332113D01*
X91357862Y-84330549D01*
X91365811Y-84329547D01*
X91465811Y-84296214D01*
X91467986Y-84294974D01*
X91469134Y-84294974D01*
X91475794Y-84290523D01*
X91482760Y-84286553D01*
X91483273Y-84285525D01*
X91485355Y-84284135D01*
X91552022Y-84217469D01*
X91556481Y-84210794D01*
X91561388Y-84204473D01*
X91594722Y-84137806D01*
X91596168Y-84132522D01*
X91598507Y-84127573D01*
X91631840Y-83994240D01*
X91632137Y-83988122D01*
X91633333Y-83982113D01*
X91633333Y-83882113D01*
X91632137Y-83876103D01*
X91631840Y-83869986D01*
X91610758Y-83785657D01*
X91800126Y-83785657D01*
X91817240Y-83819885D01*
X91853544Y-83831987D01*
X91872360Y-83826834D01*
X91939028Y-83793501D01*
X91945356Y-83788589D01*
X91952023Y-83784135D01*
X92000000Y-83736157D01*
X92000000Y-84232113D01*
X91850000Y-84232113D01*
X91830866Y-84235919D01*
X91803806Y-84262979D01*
X91803806Y-84301247D01*
X91830866Y-84328307D01*
X91850000Y-84332113D01*
X92250000Y-84332113D01*
X92269134Y-84328307D01*
X92296194Y-84301247D01*
X92296194Y-84262979D01*
X92269134Y-84235919D01*
X92250000Y-84232113D01*
X92100000Y-84232113D01*
X92100000Y-83582113D01*
X92096194Y-83562979D01*
X92092553Y-83559338D01*
X92091544Y-83554291D01*
X92079430Y-83546215D01*
X92069134Y-83535919D01*
X92063986Y-83535919D01*
X92059703Y-83533064D01*
X92045428Y-83535919D01*
X92030866Y-83535919D01*
X92027225Y-83539559D01*
X92022178Y-83540569D01*
X92008397Y-83554378D01*
X91944476Y-83650259D01*
X91887048Y-83707687D01*
X91827640Y-83737392D01*
X91812228Y-83749353D01*
X91800126Y-83785657D01*
X91610758Y-83785657D01*
X91598507Y-83736653D01*
X91596168Y-83731703D01*
X91594722Y-83726420D01*
X91561388Y-83659753D01*
X91556481Y-83653431D01*
X91552022Y-83646757D01*
X91485355Y-83580091D01*
X91483273Y-83578700D01*
X91482760Y-83577673D01*
X91475794Y-83573702D01*
X91469134Y-83569252D01*
X91467986Y-83569252D01*
X91465811Y-83568012D01*
X91365811Y-83534679D01*
X91357862Y-83533676D01*
X91350000Y-83532113D01*
X91183333Y-83532113D01*
X91164199Y-83535919D01*
X91137139Y-83562979D01*
X91133333Y-83582113D01*
X90929528Y-83582113D01*
X90929528Y-83562979D01*
X90902468Y-83535919D01*
X90883334Y-83532113D01*
X90550000Y-83532113D01*
X90530866Y-83535919D01*
X90503806Y-83562979D01*
X90500000Y-83582113D01*
X90033333Y-83582113D01*
X90029527Y-83562979D01*
X90002467Y-83535919D01*
X89964199Y-83535919D01*
X89937139Y-83562979D01*
X89933333Y-83582113D01*
X89855555Y-83582113D01*
X89855555Y-82455153D01*
X89933333Y-82455153D01*
X89933333Y-83155153D01*
X89937139Y-83174287D01*
X89964199Y-83201347D01*
X89983333Y-83205153D01*
X90316667Y-83205153D01*
X90335801Y-83201347D01*
X90362861Y-83174287D01*
X90362861Y-83136019D01*
X90335801Y-83108959D01*
X90316667Y-83105153D01*
X90033333Y-83105153D01*
X90033333Y-82455153D01*
X90500000Y-82455153D01*
X90500000Y-83155153D01*
X90503806Y-83174287D01*
X90530866Y-83201347D01*
X90550000Y-83205153D01*
X90883334Y-83205153D01*
X90902468Y-83201347D01*
X90929528Y-83174287D01*
X90929528Y-83136019D01*
X90902468Y-83108959D01*
X90883334Y-83105153D01*
X90600000Y-83105153D01*
X90600000Y-82838486D01*
X90783334Y-82838486D01*
X90802468Y-82834680D01*
X90829528Y-82807620D01*
X90829528Y-82769352D01*
X90802468Y-82742292D01*
X90783334Y-82738486D01*
X90600000Y-82738486D01*
X90600000Y-82505153D01*
X90883334Y-82505153D01*
X90902468Y-82501347D01*
X90929528Y-82474287D01*
X90929528Y-82455153D01*
X91133333Y-82455153D01*
X91133333Y-83155153D01*
X91137139Y-83174287D01*
X91164199Y-83201347D01*
X91183333Y-83205153D01*
X91350000Y-83205153D01*
X91357862Y-83203589D01*
X91365811Y-83202587D01*
X91465811Y-83169254D01*
X91467986Y-83168014D01*
X91469134Y-83168014D01*
X91475794Y-83163563D01*
X91482760Y-83159593D01*
X91483273Y-83158565D01*
X91485355Y-83157175D01*
X91552022Y-83090509D01*
X91556481Y-83083834D01*
X91561388Y-83077513D01*
X91594722Y-83010846D01*
X91596168Y-83005562D01*
X91598507Y-83000613D01*
X91631840Y-82867280D01*
X91632137Y-82861162D01*
X91633333Y-82855153D01*
X91633333Y-82755153D01*
X91632137Y-82749143D01*
X91631840Y-82743026D01*
X91626539Y-82721820D01*
X91800000Y-82721820D01*
X91800000Y-82888486D01*
X91801195Y-82894495D01*
X91801493Y-82900613D01*
X91834826Y-83033946D01*
X91837165Y-83038897D01*
X91838612Y-83044181D01*
X91871946Y-83110847D01*
X91876857Y-83117175D01*
X91881311Y-83123841D01*
X91914644Y-83157175D01*
X91921318Y-83161634D01*
X91927640Y-83166541D01*
X91994307Y-83199875D01*
X91996722Y-83200536D01*
X91997533Y-83201347D01*
X92005393Y-83202910D01*
X92013123Y-83205027D01*
X92014210Y-83204664D01*
X92016667Y-83205153D01*
X92083333Y-83205153D01*
X92085789Y-83204664D01*
X92086877Y-83205027D01*
X92094601Y-83202911D01*
X92102467Y-83201347D01*
X92103278Y-83200535D01*
X92105693Y-83199874D01*
X92172361Y-83166541D01*
X92178689Y-83161629D01*
X92185356Y-83157175D01*
X92218689Y-83123841D01*
X92223140Y-83117178D01*
X92228054Y-83110847D01*
X92261388Y-83044181D01*
X92262834Y-83038899D01*
X92265174Y-83033947D01*
X92298507Y-82900613D01*
X92298804Y-82894495D01*
X92300000Y-82888486D01*
X92300000Y-82721820D01*
X92298804Y-82715810D01*
X92298507Y-82709693D01*
X92265174Y-82576359D01*
X92262834Y-82571406D01*
X92261388Y-82566125D01*
X92228054Y-82499459D01*
X92223140Y-82493127D01*
X92218689Y-82486465D01*
X92185356Y-82453131D01*
X92178689Y-82448676D01*
X92172361Y-82443765D01*
X92105693Y-82410432D01*
X92103278Y-82409770D01*
X92102467Y-82408959D01*
X92094601Y-82407394D01*
X92086877Y-82405279D01*
X92085789Y-82405641D01*
X92083333Y-82405153D01*
X92016667Y-82405153D01*
X92014210Y-82405641D01*
X92013123Y-82405279D01*
X92005393Y-82407395D01*
X91997533Y-82408959D01*
X91996722Y-82409769D01*
X91994307Y-82410431D01*
X91927640Y-82443765D01*
X91921318Y-82448671D01*
X91914644Y-82453131D01*
X91881311Y-82486465D01*
X91876857Y-82493130D01*
X91871946Y-82499459D01*
X91838612Y-82566125D01*
X91837165Y-82571408D01*
X91834826Y-82576360D01*
X91801493Y-82709693D01*
X91801195Y-82715810D01*
X91800000Y-82721820D01*
X91626539Y-82721820D01*
X91598507Y-82609693D01*
X91596168Y-82604743D01*
X91594722Y-82599460D01*
X91561388Y-82532793D01*
X91556481Y-82526471D01*
X91552022Y-82519797D01*
X91485355Y-82453131D01*
X91483273Y-82451740D01*
X91482760Y-82450713D01*
X91475794Y-82446742D01*
X91469134Y-82442292D01*
X91467986Y-82442292D01*
X91465811Y-82441052D01*
X91365811Y-82407719D01*
X91357862Y-82406716D01*
X91350000Y-82405153D01*
X91183333Y-82405153D01*
X91164199Y-82408959D01*
X91137139Y-82436019D01*
X91133333Y-82455153D01*
X90929528Y-82455153D01*
X90929528Y-82436019D01*
X90902468Y-82408959D01*
X90883334Y-82405153D01*
X90550000Y-82405153D01*
X90530866Y-82408959D01*
X90503806Y-82436019D01*
X90500000Y-82455153D01*
X90033333Y-82455153D01*
X90029527Y-82436019D01*
X90002467Y-82408959D01*
X89964199Y-82408959D01*
X89937139Y-82436019D01*
X89933333Y-82455153D01*
X89855555Y-82455153D01*
X89855555Y-82327375D01*
X92377778Y-82327375D01*
X92377778Y-84409891D01*
G37*
G36*
X76039658Y-92729001D02*
G01*
X76058907Y-92748250D01*
X76083333Y-92797102D01*
X76083333Y-92873497D01*
X76058907Y-92922347D01*
X76037048Y-92944207D01*
X75988198Y-92968633D01*
X75783333Y-92968633D01*
X75783333Y-92701966D01*
X75958553Y-92701966D01*
X76039658Y-92729001D01*
G37*
G36*
X76003715Y-92393058D02*
G01*
X76025574Y-92414918D01*
X76050000Y-92463769D01*
X76050000Y-92506830D01*
X76025575Y-92555679D01*
X76003714Y-92577540D01*
X75954864Y-92601966D01*
X75783333Y-92601966D01*
X75783333Y-92368633D01*
X75954864Y-92368633D01*
X76003715Y-92393058D01*
G37*
G36*
X76927778Y-93146411D02*
G01*
X75605555Y-93146411D01*
X75605555Y-92318633D01*
X75683333Y-92318633D01*
X75683333Y-93018633D01*
X75687139Y-93037767D01*
X75714199Y-93064827D01*
X75733333Y-93068633D01*
X76000000Y-93068633D01*
X76002456Y-93068144D01*
X76003544Y-93068507D01*
X76011268Y-93066391D01*
X76019134Y-93064827D01*
X76019945Y-93064015D01*
X76022360Y-93063354D01*
X76089028Y-93030021D01*
X76095356Y-93025109D01*
X76102023Y-93020655D01*
X76123178Y-92999499D01*
X76320473Y-92999499D01*
X76320473Y-93037767D01*
X76347533Y-93064827D01*
X76366667Y-93068633D01*
X76800000Y-93068633D01*
X76819134Y-93064827D01*
X76846194Y-93037767D01*
X76846194Y-92999499D01*
X76819134Y-92972439D01*
X76800000Y-92968633D01*
X76487377Y-92968633D01*
X76802022Y-92653989D01*
X76803413Y-92651906D01*
X76804440Y-92651393D01*
X76808406Y-92644434D01*
X76812861Y-92637768D01*
X76812861Y-92636619D01*
X76814101Y-92634444D01*
X76847434Y-92534444D01*
X76848436Y-92526495D01*
X76850000Y-92518633D01*
X76850000Y-92451966D01*
X76849511Y-92449509D01*
X76849874Y-92448422D01*
X76847758Y-92440696D01*
X76846194Y-92432832D01*
X76845382Y-92432020D01*
X76844721Y-92429605D01*
X76811388Y-92362939D01*
X76806476Y-92356610D01*
X76802022Y-92349944D01*
X76768688Y-92316611D01*
X76762028Y-92312160D01*
X76755694Y-92307245D01*
X76689028Y-92273912D01*
X76686612Y-92273250D01*
X76685801Y-92272439D01*
X76677939Y-92270875D01*
X76670212Y-92268759D01*
X76669123Y-92269121D01*
X76666667Y-92268633D01*
X76500000Y-92268633D01*
X76497543Y-92269121D01*
X76496456Y-92268759D01*
X76488726Y-92270875D01*
X76480866Y-92272439D01*
X76480055Y-92273249D01*
X76477640Y-92273911D01*
X76410973Y-92307245D01*
X76404651Y-92312151D01*
X76397977Y-92316611D01*
X76364644Y-92349945D01*
X76353806Y-92366166D01*
X76353806Y-92404435D01*
X76380866Y-92431494D01*
X76419135Y-92431494D01*
X76435356Y-92420655D01*
X76462953Y-92393057D01*
X76511803Y-92368633D01*
X76654864Y-92368633D01*
X76703715Y-92393058D01*
X76725574Y-92414918D01*
X76750000Y-92463769D01*
X76750000Y-92510520D01*
X76722965Y-92591623D01*
X76331312Y-92983278D01*
X76320473Y-92999499D01*
X76123178Y-92999499D01*
X76135356Y-92987321D01*
X76139807Y-92980658D01*
X76144721Y-92974327D01*
X76178054Y-92907661D01*
X76178715Y-92905245D01*
X76179527Y-92904434D01*
X76181091Y-92896569D01*
X76183207Y-92888844D01*
X76182844Y-92887756D01*
X76183333Y-92885300D01*
X76183333Y-92785300D01*
X76182844Y-92782843D01*
X76183207Y-92781756D01*
X76181090Y-92774026D01*
X76179527Y-92766166D01*
X76178716Y-92765355D01*
X76178055Y-92762940D01*
X76144721Y-92696273D01*
X76139809Y-92689944D01*
X76135355Y-92683278D01*
X76102022Y-92649945D01*
X76099940Y-92648554D01*
X76099427Y-92647527D01*
X76092461Y-92643556D01*
X76085801Y-92639106D01*
X76084653Y-92639106D01*
X76083964Y-92638713D01*
X76102022Y-92620656D01*
X76106481Y-92613981D01*
X76111388Y-92607660D01*
X76144722Y-92540993D01*
X76145383Y-92538577D01*
X76146194Y-92537767D01*
X76147757Y-92529906D01*
X76149874Y-92522177D01*
X76149511Y-92521089D01*
X76150000Y-92518633D01*
X76150000Y-92451966D01*
X76149511Y-92449509D01*
X76149874Y-92448422D01*
X76147758Y-92440696D01*
X76146194Y-92432832D01*
X76145382Y-92432020D01*
X76144721Y-92429605D01*
X76111388Y-92362939D01*
X76106476Y-92356610D01*
X76102022Y-92349944D01*
X76068688Y-92316611D01*
X76062028Y-92312160D01*
X76055694Y-92307245D01*
X75989028Y-92273912D01*
X75986612Y-92273250D01*
X75985801Y-92272439D01*
X75977939Y-92270875D01*
X75970212Y-92268759D01*
X75969123Y-92269121D01*
X75966667Y-92268633D01*
X75733333Y-92268633D01*
X75714199Y-92272439D01*
X75687139Y-92299499D01*
X75683333Y-92318633D01*
X75605555Y-92318633D01*
X75605555Y-92190855D01*
X76927778Y-92190855D01*
X76927778Y-93146411D01*
G37*
G36*
X87022991Y-62595667D02*
G01*
X87075575Y-62648252D01*
X87102823Y-62702750D01*
X87133333Y-62824787D01*
X87133333Y-62912479D01*
X87102823Y-63034515D01*
X87075575Y-63089013D01*
X87022991Y-63141598D01*
X86941887Y-63168633D01*
X86833333Y-63168633D01*
X86833333Y-62568633D01*
X86941887Y-62568633D01*
X87022991Y-62595667D01*
G37*
G36*
X89456324Y-62929001D02*
G01*
X89475573Y-62948250D01*
X89499999Y-62997102D01*
X89499999Y-63073497D01*
X89475573Y-63122347D01*
X89453714Y-63144207D01*
X89404864Y-63168633D01*
X89199999Y-63168633D01*
X89199999Y-62901966D01*
X89375219Y-62901966D01*
X89456324Y-62929001D01*
G37*
G36*
X89420381Y-62593058D02*
G01*
X89442240Y-62614918D01*
X89466666Y-62663769D01*
X89466666Y-62706830D01*
X89442241Y-62755679D01*
X89420380Y-62777540D01*
X89371530Y-62801966D01*
X89199999Y-62801966D01*
X89199999Y-62568633D01*
X89371530Y-62568633D01*
X89420381Y-62593058D01*
G37*
G36*
X88247295Y-62968633D02*
G01*
X88052704Y-62968633D01*
X88149999Y-62676745D01*
X88247295Y-62968633D01*
G37*
G36*
X93407304Y-63346411D02*
G01*
X85188889Y-63346411D01*
X85188889Y-62818633D01*
X85266667Y-62818633D01*
X85266667Y-62918633D01*
X85267862Y-62924642D01*
X85268160Y-62930760D01*
X85301493Y-63064092D01*
X85303832Y-63069043D01*
X85305279Y-63074327D01*
X85338613Y-63140994D01*
X85343524Y-63147322D01*
X85347978Y-63153988D01*
X85414645Y-63220655D01*
X85416726Y-63222045D01*
X85417240Y-63223073D01*
X85424205Y-63227043D01*
X85430866Y-63231494D01*
X85432014Y-63231494D01*
X85434189Y-63232734D01*
X85534189Y-63266067D01*
X85542137Y-63267069D01*
X85550000Y-63268633D01*
X85616667Y-63268633D01*
X85624529Y-63267069D01*
X85632478Y-63266067D01*
X85732478Y-63232734D01*
X85734653Y-63231494D01*
X85735802Y-63231494D01*
X85742468Y-63227039D01*
X85749427Y-63223073D01*
X85749940Y-63222046D01*
X85752023Y-63220655D01*
X85785356Y-63187321D01*
X85796191Y-63171102D01*
X85796194Y-63171100D01*
X85800000Y-63151966D01*
X85800000Y-62918633D01*
X85796194Y-62899499D01*
X85769134Y-62872439D01*
X85750000Y-62868633D01*
X85616667Y-62868633D01*
X85597533Y-62872439D01*
X85570473Y-62899499D01*
X85570473Y-62937767D01*
X85597533Y-62964827D01*
X85616667Y-62968633D01*
X85700000Y-62968633D01*
X85700000Y-63131255D01*
X85689656Y-63141599D01*
X85608554Y-63168633D01*
X85558113Y-63168633D01*
X85477010Y-63141599D01*
X85424425Y-63089014D01*
X85397175Y-63034514D01*
X85366667Y-62912478D01*
X85366667Y-62824787D01*
X85397175Y-62702751D01*
X85424425Y-62648251D01*
X85477010Y-62595666D01*
X85558113Y-62568633D01*
X85638198Y-62568633D01*
X85694307Y-62596688D01*
X85713123Y-62601840D01*
X85749428Y-62589738D01*
X85766541Y-62555510D01*
X85754440Y-62519206D01*
X85753702Y-62518633D01*
X86000000Y-62518633D01*
X86000000Y-63218633D01*
X86003806Y-63237767D01*
X86030866Y-63264827D01*
X86069134Y-63264827D01*
X86096194Y-63237767D01*
X86100000Y-63218633D01*
X86100000Y-62706911D01*
X86406588Y-63243440D01*
X86419386Y-63258165D01*
X86426010Y-63259971D01*
X86430866Y-63264827D01*
X86443814Y-63264827D01*
X86456306Y-63268234D01*
X86462268Y-63264827D01*
X86469134Y-63264827D01*
X86478287Y-63255673D01*
X86489532Y-63249248D01*
X86491339Y-63242621D01*
X86496194Y-63237767D01*
X86500000Y-63218633D01*
X86500000Y-62518633D01*
X86733333Y-62518633D01*
X86733333Y-63218633D01*
X86737139Y-63237767D01*
X86764199Y-63264827D01*
X86783333Y-63268633D01*
X86950000Y-63268633D01*
X86957862Y-63267069D01*
X86965811Y-63266067D01*
X87065811Y-63232734D01*
X87067986Y-63231494D01*
X87069134Y-63231494D01*
X87075794Y-63227043D01*
X87082760Y-63223073D01*
X87083207Y-63222177D01*
X87866792Y-63222177D01*
X87883906Y-63256406D01*
X87920210Y-63268507D01*
X87954439Y-63251393D01*
X87964100Y-63234444D01*
X88019370Y-63068633D01*
X88280628Y-63068633D01*
X88335899Y-63234445D01*
X88345560Y-63251393D01*
X88379789Y-63268507D01*
X88416093Y-63256406D01*
X88433207Y-63222178D01*
X88430767Y-63202822D01*
X88202704Y-62518633D01*
X89099999Y-62518633D01*
X89099999Y-63218633D01*
X89103805Y-63237767D01*
X89130865Y-63264827D01*
X89149999Y-63268633D01*
X89416666Y-63268633D01*
X89419122Y-63268144D01*
X89420210Y-63268507D01*
X89427934Y-63266391D01*
X89435800Y-63264827D01*
X89436611Y-63264015D01*
X89439026Y-63263354D01*
X89505694Y-63230021D01*
X89512022Y-63225109D01*
X89518689Y-63220655D01*
X89530414Y-63208930D01*
X90267617Y-63208930D01*
X90270472Y-63223205D01*
X90270472Y-63237767D01*
X90274112Y-63241407D01*
X90275122Y-63246455D01*
X90287235Y-63254530D01*
X90297532Y-63264827D01*
X90304869Y-63266286D01*
X90306963Y-63267682D01*
X90309417Y-63267191D01*
X90316666Y-63268633D01*
X90783332Y-63268633D01*
X90802466Y-63264827D01*
X90829526Y-63237767D01*
X90829526Y-63199499D01*
X90802466Y-63172439D01*
X90783332Y-63168633D01*
X90410092Y-63168633D01*
X90824935Y-62546368D01*
X90827755Y-62539537D01*
X90829526Y-62537767D01*
X90829526Y-62535249D01*
X90832381Y-62528336D01*
X90829732Y-62515089D01*
X91433458Y-62515089D01*
X91435898Y-62534444D01*
X91669232Y-63234444D01*
X91678893Y-63251393D01*
X91682235Y-63253063D01*
X91683906Y-63256406D01*
X91698945Y-63261419D01*
X91713122Y-63268507D01*
X91716666Y-63267325D01*
X91720210Y-63268507D01*
X91734386Y-63261419D01*
X91749426Y-63256406D01*
X91751096Y-63253063D01*
X91754439Y-63251393D01*
X91764100Y-63234444D01*
X91902703Y-62818633D01*
X92099999Y-62818633D01*
X92099999Y-62918633D01*
X92101194Y-62924642D01*
X92101492Y-62930760D01*
X92134825Y-63064092D01*
X92137164Y-63069043D01*
X92138611Y-63074327D01*
X92171945Y-63140994D01*
X92176856Y-63147322D01*
X92181310Y-63153988D01*
X92247977Y-63220655D01*
X92250058Y-63222045D01*
X92250572Y-63223073D01*
X92257537Y-63227043D01*
X92264198Y-63231494D01*
X92265346Y-63231494D01*
X92267521Y-63232734D01*
X92367521Y-63266067D01*
X92375469Y-63267069D01*
X92383332Y-63268633D01*
X92449999Y-63268633D01*
X92457861Y-63267069D01*
X92465810Y-63266067D01*
X92565810Y-63232734D01*
X92567985Y-63231494D01*
X92569134Y-63231494D01*
X92575800Y-63227039D01*
X92582759Y-63223073D01*
X92583272Y-63222046D01*
X92585355Y-63220655D01*
X92618688Y-63187321D01*
X92629526Y-63171099D01*
X92629526Y-63132831D01*
X92602466Y-63105772D01*
X92564197Y-63105772D01*
X92547976Y-63116611D01*
X92522988Y-63141599D01*
X92441886Y-63168633D01*
X92391445Y-63168633D01*
X92310342Y-63141599D01*
X92257757Y-63089014D01*
X92230507Y-63034514D01*
X92199999Y-62912478D01*
X92199999Y-62824787D01*
X92201537Y-62818633D01*
X92799999Y-62818633D01*
X92799999Y-62918633D01*
X92801194Y-62924642D01*
X92801492Y-62930760D01*
X92834825Y-63064092D01*
X92837164Y-63069043D01*
X92838611Y-63074327D01*
X92871945Y-63140994D01*
X92876856Y-63147322D01*
X92881310Y-63153988D01*
X92947977Y-63220655D01*
X92950058Y-63222045D01*
X92950572Y-63223073D01*
X92957537Y-63227043D01*
X92964198Y-63231494D01*
X92965346Y-63231494D01*
X92967521Y-63232734D01*
X93067521Y-63266067D01*
X93075469Y-63267069D01*
X93083332Y-63268633D01*
X93149999Y-63268633D01*
X93157861Y-63267069D01*
X93165810Y-63266067D01*
X93265810Y-63232734D01*
X93267985Y-63231494D01*
X93269134Y-63231494D01*
X93275800Y-63227039D01*
X93282759Y-63223073D01*
X93283272Y-63222046D01*
X93285355Y-63220655D01*
X93318688Y-63187321D01*
X93329526Y-63171099D01*
X93329526Y-63132831D01*
X93302466Y-63105772D01*
X93264197Y-63105772D01*
X93247976Y-63116611D01*
X93222988Y-63141599D01*
X93141886Y-63168633D01*
X93091445Y-63168633D01*
X93010342Y-63141599D01*
X92957757Y-63089014D01*
X92930507Y-63034514D01*
X92899999Y-62912478D01*
X92899999Y-62824787D01*
X92930507Y-62702751D01*
X92957757Y-62648251D01*
X93010342Y-62595666D01*
X93091445Y-62568633D01*
X93141886Y-62568633D01*
X93222988Y-62595666D01*
X93247976Y-62620655D01*
X93264197Y-62631494D01*
X93302466Y-62631494D01*
X93329526Y-62604435D01*
X93329526Y-62566167D01*
X93318688Y-62549945D01*
X93285355Y-62516611D01*
X93283272Y-62515219D01*
X93282759Y-62514193D01*
X93275800Y-62510226D01*
X93269134Y-62505772D01*
X93267985Y-62505772D01*
X93265810Y-62504532D01*
X93165810Y-62471199D01*
X93157861Y-62470196D01*
X93149999Y-62468633D01*
X93083332Y-62468633D01*
X93075469Y-62470196D01*
X93067521Y-62471199D01*
X92967521Y-62504532D01*
X92965346Y-62505772D01*
X92964198Y-62505772D01*
X92957537Y-62510222D01*
X92950572Y-62514193D01*
X92950058Y-62515220D01*
X92947977Y-62516611D01*
X92881310Y-62583278D01*
X92876856Y-62589943D01*
X92871945Y-62596272D01*
X92838611Y-62662939D01*
X92837164Y-62668222D01*
X92834825Y-62673174D01*
X92801492Y-62806506D01*
X92801194Y-62812623D01*
X92799999Y-62818633D01*
X92201537Y-62818633D01*
X92230507Y-62702751D01*
X92257757Y-62648251D01*
X92310342Y-62595666D01*
X92391445Y-62568633D01*
X92441886Y-62568633D01*
X92522988Y-62595666D01*
X92547976Y-62620655D01*
X92564197Y-62631494D01*
X92602466Y-62631494D01*
X92629526Y-62604435D01*
X92629526Y-62566167D01*
X92618688Y-62549945D01*
X92585355Y-62516611D01*
X92583272Y-62515219D01*
X92582759Y-62514193D01*
X92575800Y-62510226D01*
X92569134Y-62505772D01*
X92567985Y-62505772D01*
X92565810Y-62504532D01*
X92465810Y-62471199D01*
X92457861Y-62470196D01*
X92449999Y-62468633D01*
X92383332Y-62468633D01*
X92375469Y-62470196D01*
X92367521Y-62471199D01*
X92267521Y-62504532D01*
X92265346Y-62505772D01*
X92264198Y-62505772D01*
X92257537Y-62510222D01*
X92250572Y-62514193D01*
X92250058Y-62515220D01*
X92247977Y-62516611D01*
X92181310Y-62583278D01*
X92176856Y-62589943D01*
X92171945Y-62596272D01*
X92138611Y-62662939D01*
X92137164Y-62668222D01*
X92134825Y-62673174D01*
X92101492Y-62806506D01*
X92101194Y-62812623D01*
X92099999Y-62818633D01*
X91902703Y-62818633D01*
X91997433Y-62534444D01*
X91999873Y-62515088D01*
X91982759Y-62480860D01*
X91946455Y-62468759D01*
X91912226Y-62485873D01*
X91902565Y-62502821D01*
X91716665Y-63060520D01*
X91530766Y-62502822D01*
X91521105Y-62485873D01*
X91486876Y-62468759D01*
X91450572Y-62480860D01*
X91433458Y-62515089D01*
X90829732Y-62515089D01*
X90829526Y-62514061D01*
X90829526Y-62499499D01*
X90825885Y-62495858D01*
X90824876Y-62490811D01*
X90812762Y-62482735D01*
X90802466Y-62472439D01*
X90795128Y-62470979D01*
X90793035Y-62469584D01*
X90790580Y-62470074D01*
X90783332Y-62468633D01*
X90316666Y-62468633D01*
X90297532Y-62472439D01*
X90270472Y-62499499D01*
X90270472Y-62537767D01*
X90297532Y-62564827D01*
X90316666Y-62568633D01*
X90689907Y-62568633D01*
X90275063Y-63190898D01*
X90272242Y-63197728D01*
X90270472Y-63199499D01*
X90270472Y-63202016D01*
X90267617Y-63208930D01*
X89530414Y-63208930D01*
X89552022Y-63187321D01*
X89556473Y-63180658D01*
X89561387Y-63174327D01*
X89594720Y-63107661D01*
X89595381Y-63105245D01*
X89596193Y-63104434D01*
X89597757Y-63096569D01*
X89599873Y-63088844D01*
X89599510Y-63087756D01*
X89599999Y-63085300D01*
X89599999Y-62985300D01*
X89599510Y-62982843D01*
X89599873Y-62981756D01*
X89597756Y-62974026D01*
X89596193Y-62966166D01*
X89595382Y-62965355D01*
X89594721Y-62962940D01*
X89561387Y-62896273D01*
X89556475Y-62889944D01*
X89552021Y-62883278D01*
X89518688Y-62849945D01*
X89516606Y-62848554D01*
X89516093Y-62847527D01*
X89509127Y-62843556D01*
X89502467Y-62839106D01*
X89501319Y-62839106D01*
X89500630Y-62838713D01*
X89518688Y-62820656D01*
X89523147Y-62813981D01*
X89528054Y-62807660D01*
X89561388Y-62740993D01*
X89562049Y-62738577D01*
X89562860Y-62737767D01*
X89564423Y-62729906D01*
X89566540Y-62722177D01*
X89566177Y-62721089D01*
X89566666Y-62718633D01*
X89566666Y-62651966D01*
X89566177Y-62649509D01*
X89566540Y-62648422D01*
X89564424Y-62640696D01*
X89562860Y-62632832D01*
X89562048Y-62632020D01*
X89561387Y-62629605D01*
X89528054Y-62562939D01*
X89523142Y-62556610D01*
X89518688Y-62549944D01*
X89485354Y-62516611D01*
X89478694Y-62512160D01*
X89472360Y-62507245D01*
X89405694Y-62473912D01*
X89403278Y-62473250D01*
X89402467Y-62472439D01*
X89394605Y-62470875D01*
X89386878Y-62468759D01*
X89385789Y-62469121D01*
X89383333Y-62468633D01*
X89149999Y-62468633D01*
X89130865Y-62472439D01*
X89103805Y-62499499D01*
X89099999Y-62518633D01*
X88202704Y-62518633D01*
X88197434Y-62502822D01*
X88187773Y-62485873D01*
X88184430Y-62484202D01*
X88182760Y-62480860D01*
X88167720Y-62475846D01*
X88153544Y-62468759D01*
X88150000Y-62469940D01*
X88146456Y-62468759D01*
X88132279Y-62475846D01*
X88117240Y-62480860D01*
X88115569Y-62484202D01*
X88112227Y-62485873D01*
X88102566Y-62502822D01*
X87869232Y-63202822D01*
X87866792Y-63222177D01*
X87083207Y-63222177D01*
X87083273Y-63222045D01*
X87085355Y-63220655D01*
X87152022Y-63153989D01*
X87156481Y-63147314D01*
X87161388Y-63140993D01*
X87194722Y-63074326D01*
X87196168Y-63069042D01*
X87198507Y-63064093D01*
X87231840Y-62930760D01*
X87232137Y-62924642D01*
X87233333Y-62918633D01*
X87233333Y-62818633D01*
X87232137Y-62812623D01*
X87231840Y-62806506D01*
X87198507Y-62673173D01*
X87196168Y-62668223D01*
X87194722Y-62662940D01*
X87161388Y-62596273D01*
X87156481Y-62589951D01*
X87152022Y-62583277D01*
X87085355Y-62516611D01*
X87083273Y-62515220D01*
X87082760Y-62514193D01*
X87075794Y-62510222D01*
X87069134Y-62505772D01*
X87067986Y-62505772D01*
X87065811Y-62504532D01*
X86965811Y-62471199D01*
X86957862Y-62470196D01*
X86950000Y-62468633D01*
X86783333Y-62468633D01*
X86764199Y-62472439D01*
X86737139Y-62499499D01*
X86733333Y-62518633D01*
X86500000Y-62518633D01*
X86496194Y-62499499D01*
X86469134Y-62472439D01*
X86430866Y-62472439D01*
X86403806Y-62499499D01*
X86400000Y-62518633D01*
X86400000Y-63030355D01*
X86093412Y-62493826D01*
X86080615Y-62479101D01*
X86073988Y-62477293D01*
X86069134Y-62472439D01*
X86056187Y-62472439D01*
X86043694Y-62469032D01*
X86037732Y-62472439D01*
X86030866Y-62472439D01*
X86021712Y-62481592D01*
X86010468Y-62488018D01*
X86008660Y-62494644D01*
X86003806Y-62499499D01*
X86000000Y-62518633D01*
X85753702Y-62518633D01*
X85739028Y-62507245D01*
X85672360Y-62473912D01*
X85669945Y-62473250D01*
X85669134Y-62472439D01*
X85661268Y-62470874D01*
X85653544Y-62468759D01*
X85652456Y-62469121D01*
X85650000Y-62468633D01*
X85550000Y-62468633D01*
X85542137Y-62470196D01*
X85534189Y-62471199D01*
X85434189Y-62504532D01*
X85432014Y-62505772D01*
X85430866Y-62505772D01*
X85424205Y-62510222D01*
X85417240Y-62514193D01*
X85416726Y-62515220D01*
X85414645Y-62516611D01*
X85347978Y-62583278D01*
X85343524Y-62589943D01*
X85338613Y-62596272D01*
X85305279Y-62662939D01*
X85303832Y-62668222D01*
X85301493Y-62673174D01*
X85268160Y-62806506D01*
X85267862Y-62812623D01*
X85266667Y-62818633D01*
X85188889Y-62818633D01*
X85188889Y-62390855D01*
X93407304Y-62390855D01*
X93407304Y-63346411D01*
G37*
X57918633Y-56583333D02*
X57918633Y-56916666D01*
X57918633Y-56916666D02*
X58251966Y-56949999D01*
X58251966Y-56949999D02*
X58218633Y-56916666D01*
X58218633Y-56916666D02*
X58185300Y-56849999D01*
X58185300Y-56849999D02*
X58185300Y-56683333D01*
X58185300Y-56683333D02*
X58218633Y-56616666D01*
X58218633Y-56616666D02*
X58251966Y-56583333D01*
X58251966Y-56583333D02*
X58318633Y-56549999D01*
X58318633Y-56549999D02*
X58485300Y-56549999D01*
X58485300Y-56549999D02*
X58551966Y-56583333D01*
X58551966Y-56583333D02*
X58585300Y-56616666D01*
X58585300Y-56616666D02*
X58618633Y-56683333D01*
X58618633Y-56683333D02*
X58618633Y-56849999D01*
X58618633Y-56849999D02*
X58585300Y-56916666D01*
X58585300Y-56916666D02*
X58551966Y-56949999D01*
X57918633Y-56349999D02*
X58618633Y-56116666D01*
X58618633Y-56116666D02*
X57918633Y-55883332D01*
X58251966Y-55416666D02*
X58285300Y-55316666D01*
X58285300Y-55316666D02*
X58318633Y-55283332D01*
X58318633Y-55283332D02*
X58385300Y-55249999D01*
X58385300Y-55249999D02*
X58485300Y-55249999D01*
X58485300Y-55249999D02*
X58551966Y-55283332D01*
X58551966Y-55283332D02*
X58585300Y-55316666D01*
X58585300Y-55316666D02*
X58618633Y-55383332D01*
X58618633Y-55383332D02*
X58618633Y-55649999D01*
X58618633Y-55649999D02*
X57918633Y-55649999D01*
X57918633Y-55649999D02*
X57918633Y-55416666D01*
X57918633Y-55416666D02*
X57951966Y-55349999D01*
X57951966Y-55349999D02*
X57985300Y-55316666D01*
X57985300Y-55316666D02*
X58051966Y-55283332D01*
X58051966Y-55283332D02*
X58118633Y-55283332D01*
X58118633Y-55283332D02*
X58185300Y-55316666D01*
X58185300Y-55316666D02*
X58218633Y-55349999D01*
X58218633Y-55349999D02*
X58251966Y-55416666D01*
X58251966Y-55416666D02*
X58251966Y-55649999D01*
X63718633Y-56600000D02*
X63718633Y-56933333D01*
X63718633Y-56933333D02*
X64051966Y-56966666D01*
X64051966Y-56966666D02*
X64018633Y-56933333D01*
X64018633Y-56933333D02*
X63985300Y-56866666D01*
X63985300Y-56866666D02*
X63985300Y-56700000D01*
X63985300Y-56700000D02*
X64018633Y-56633333D01*
X64018633Y-56633333D02*
X64051966Y-56600000D01*
X64051966Y-56600000D02*
X64118633Y-56566666D01*
X64118633Y-56566666D02*
X64285300Y-56566666D01*
X64285300Y-56566666D02*
X64351966Y-56600000D01*
X64351966Y-56600000D02*
X64385300Y-56633333D01*
X64385300Y-56633333D02*
X64418633Y-56700000D01*
X64418633Y-56700000D02*
X64418633Y-56866666D01*
X64418633Y-56866666D02*
X64385300Y-56933333D01*
X64385300Y-56933333D02*
X64351966Y-56966666D01*
X63718633Y-56366666D02*
X64418633Y-56133333D01*
X64418633Y-56133333D02*
X63718633Y-55899999D01*
X63718633Y-55666666D02*
X64285300Y-55666666D01*
X64285300Y-55666666D02*
X64351966Y-55633333D01*
X64351966Y-55633333D02*
X64385300Y-55599999D01*
X64385300Y-55599999D02*
X64418633Y-55533333D01*
X64418633Y-55533333D02*
X64418633Y-55399999D01*
X64418633Y-55399999D02*
X64385300Y-55333333D01*
X64385300Y-55333333D02*
X64351966Y-55299999D01*
X64351966Y-55299999D02*
X64285300Y-55266666D01*
X64285300Y-55266666D02*
X63718633Y-55266666D01*
G36*
X83855682Y-52891091D02*
G01*
X83877540Y-52912949D01*
X83901966Y-52961801D01*
X83901966Y-53133332D01*
X83668633Y-53133332D01*
X83668633Y-52961801D01*
X83693058Y-52912950D01*
X83714918Y-52891090D01*
X83763769Y-52866665D01*
X83806830Y-52866665D01*
X83855682Y-52891091D01*
G37*
G36*
X84222348Y-52857757D02*
G01*
X84244207Y-52879617D01*
X84268633Y-52928468D01*
X84268633Y-53133332D01*
X84001966Y-53133332D01*
X84001966Y-52958113D01*
X84029001Y-52877008D01*
X84048253Y-52857756D01*
X84097103Y-52833332D01*
X84173497Y-52833332D01*
X84222348Y-52857757D01*
G37*
G36*
X84193071Y-52128480D02*
G01*
X84244207Y-52179617D01*
X84268633Y-52228468D01*
X84268633Y-52338196D01*
X84244207Y-52387046D01*
X84193071Y-52438183D01*
X84079145Y-52466665D01*
X83858120Y-52466665D01*
X83744195Y-52438183D01*
X83693058Y-52387047D01*
X83668633Y-52338196D01*
X83668633Y-52228468D01*
X83693058Y-52179616D01*
X83744195Y-52128480D01*
X83858120Y-52099999D01*
X84079145Y-52099999D01*
X84193071Y-52128480D01*
G37*
G36*
X84193071Y-51395147D02*
G01*
X84244207Y-51446284D01*
X84268633Y-51495135D01*
X84268633Y-51604863D01*
X84244207Y-51653713D01*
X84193071Y-51704850D01*
X84079145Y-51733332D01*
X83858120Y-51733332D01*
X83744195Y-51704850D01*
X83693058Y-51653714D01*
X83668633Y-51604863D01*
X83668633Y-51495135D01*
X83693058Y-51446283D01*
X83744195Y-51395147D01*
X83858120Y-51366666D01*
X84079145Y-51366666D01*
X84193071Y-51395147D01*
G37*
G36*
X84446411Y-53311110D02*
G01*
X83490855Y-53311110D01*
X83490855Y-52949999D01*
X83568633Y-52949999D01*
X83568633Y-53183332D01*
X83572439Y-53202466D01*
X83599499Y-53229526D01*
X83618633Y-53233332D01*
X84318633Y-53233332D01*
X84337767Y-53229526D01*
X84364827Y-53202466D01*
X84368633Y-53183332D01*
X84368633Y-52916665D01*
X84368144Y-52914208D01*
X84368507Y-52913121D01*
X84366391Y-52905395D01*
X84364827Y-52897531D01*
X84364015Y-52896719D01*
X84363354Y-52894304D01*
X84330021Y-52827638D01*
X84325109Y-52821309D01*
X84320655Y-52814643D01*
X84287321Y-52781310D01*
X84280661Y-52776859D01*
X84274327Y-52771944D01*
X84207661Y-52738611D01*
X84205245Y-52737949D01*
X84204434Y-52737138D01*
X84196572Y-52735574D01*
X84188845Y-52733458D01*
X84187756Y-52733820D01*
X84185300Y-52733332D01*
X84085300Y-52733332D01*
X84082843Y-52733820D01*
X84081756Y-52733458D01*
X84074026Y-52735574D01*
X84066166Y-52737138D01*
X84065355Y-52737948D01*
X84062940Y-52738610D01*
X83996273Y-52771944D01*
X83989951Y-52776850D01*
X83983277Y-52781310D01*
X83949944Y-52814644D01*
X83948552Y-52816726D01*
X83947527Y-52817239D01*
X83943559Y-52824199D01*
X83939106Y-52830865D01*
X83939106Y-52832012D01*
X83938713Y-52832702D01*
X83920655Y-52814644D01*
X83913995Y-52810193D01*
X83907661Y-52805278D01*
X83840994Y-52771944D01*
X83838578Y-52771282D01*
X83837767Y-52770471D01*
X83829905Y-52768907D01*
X83822178Y-52766791D01*
X83821089Y-52767153D01*
X83818633Y-52766665D01*
X83751966Y-52766665D01*
X83749509Y-52767153D01*
X83748421Y-52766791D01*
X83740693Y-52768907D01*
X83732832Y-52770471D01*
X83732020Y-52771282D01*
X83729605Y-52771944D01*
X83662939Y-52805278D01*
X83656607Y-52810191D01*
X83649945Y-52814643D01*
X83616611Y-52847976D01*
X83612156Y-52854642D01*
X83607245Y-52860971D01*
X83573912Y-52927639D01*
X83573250Y-52930053D01*
X83572439Y-52930865D01*
X83570874Y-52938730D01*
X83568759Y-52946455D01*
X83569121Y-52947542D01*
X83568633Y-52949999D01*
X83490855Y-52949999D01*
X83490855Y-52216665D01*
X83568633Y-52216665D01*
X83568633Y-52349999D01*
X83569121Y-52352455D01*
X83568759Y-52353544D01*
X83570875Y-52361271D01*
X83572439Y-52369133D01*
X83573250Y-52369944D01*
X83573912Y-52372360D01*
X83607245Y-52439026D01*
X83612160Y-52445360D01*
X83616611Y-52452020D01*
X83683277Y-52518687D01*
X83687781Y-52521697D01*
X83688867Y-52523506D01*
X83694402Y-52526120D01*
X83699498Y-52529526D01*
X83701610Y-52529526D01*
X83706506Y-52531839D01*
X83839839Y-52565172D01*
X83845956Y-52565469D01*
X83851966Y-52566665D01*
X84085300Y-52566665D01*
X84091309Y-52565469D01*
X84097427Y-52565172D01*
X84230759Y-52531839D01*
X84235655Y-52529526D01*
X84237767Y-52529526D01*
X84242861Y-52526122D01*
X84248399Y-52523506D01*
X84249485Y-52521695D01*
X84253988Y-52518687D01*
X84320655Y-52452021D01*
X84325109Y-52445354D01*
X84330021Y-52439026D01*
X84363354Y-52372360D01*
X84364015Y-52369944D01*
X84364827Y-52369133D01*
X84366391Y-52361268D01*
X84368507Y-52353543D01*
X84368144Y-52352455D01*
X84368633Y-52349999D01*
X84368633Y-52216665D01*
X84368144Y-52214208D01*
X84368507Y-52213121D01*
X84366391Y-52205395D01*
X84364827Y-52197531D01*
X84364015Y-52196719D01*
X84363354Y-52194304D01*
X84330021Y-52127638D01*
X84325109Y-52121309D01*
X84320655Y-52114643D01*
X84253988Y-52047977D01*
X84249485Y-52044968D01*
X84248399Y-52043158D01*
X84242861Y-52040541D01*
X84237767Y-52037138D01*
X84235655Y-52037138D01*
X84230759Y-52034825D01*
X84097427Y-52001492D01*
X84091309Y-52001194D01*
X84085300Y-51999999D01*
X83851966Y-51999999D01*
X83845956Y-52001194D01*
X83839839Y-52001492D01*
X83706506Y-52034825D01*
X83701610Y-52037138D01*
X83699498Y-52037138D01*
X83694402Y-52040543D01*
X83688867Y-52043158D01*
X83687781Y-52044966D01*
X83683277Y-52047977D01*
X83616611Y-52114644D01*
X83612160Y-52121303D01*
X83607245Y-52127638D01*
X83573912Y-52194304D01*
X83573250Y-52196719D01*
X83572439Y-52197531D01*
X83570875Y-52205392D01*
X83568759Y-52213120D01*
X83569121Y-52214208D01*
X83568633Y-52216665D01*
X83490855Y-52216665D01*
X83490855Y-51483332D01*
X83568633Y-51483332D01*
X83568633Y-51616666D01*
X83569121Y-51619122D01*
X83568759Y-51620211D01*
X83570875Y-51627938D01*
X83572439Y-51635800D01*
X83573250Y-51636611D01*
X83573912Y-51639027D01*
X83607245Y-51705693D01*
X83612160Y-51712027D01*
X83616611Y-51718687D01*
X83683277Y-51785354D01*
X83687781Y-51788364D01*
X83688867Y-51790173D01*
X83694402Y-51792787D01*
X83699498Y-51796193D01*
X83701610Y-51796193D01*
X83706506Y-51798506D01*
X83839839Y-51831839D01*
X83845956Y-51832136D01*
X83851966Y-51833332D01*
X84085300Y-51833332D01*
X84091309Y-51832136D01*
X84097427Y-51831839D01*
X84230759Y-51798506D01*
X84235655Y-51796193D01*
X84237767Y-51796193D01*
X84242861Y-51792789D01*
X84248399Y-51790173D01*
X84249485Y-51788362D01*
X84253988Y-51785354D01*
X84320655Y-51718688D01*
X84325109Y-51712021D01*
X84330021Y-51705693D01*
X84363354Y-51639027D01*
X84364015Y-51636611D01*
X84364827Y-51635800D01*
X84366391Y-51627935D01*
X84368507Y-51620210D01*
X84368144Y-51619122D01*
X84368633Y-51616666D01*
X84368633Y-51483332D01*
X84368144Y-51480875D01*
X84368507Y-51479788D01*
X84366391Y-51472062D01*
X84364827Y-51464198D01*
X84364015Y-51463386D01*
X84363354Y-51460971D01*
X84330021Y-51394305D01*
X84325109Y-51387976D01*
X84320655Y-51381310D01*
X84253988Y-51314644D01*
X84249485Y-51311635D01*
X84248399Y-51309825D01*
X84242861Y-51307208D01*
X84237767Y-51303805D01*
X84235655Y-51303805D01*
X84230759Y-51301492D01*
X84097427Y-51268159D01*
X84091309Y-51267861D01*
X84085300Y-51266666D01*
X83851966Y-51266666D01*
X83845956Y-51267861D01*
X83839839Y-51268159D01*
X83706506Y-51301492D01*
X83701610Y-51303805D01*
X83699498Y-51303805D01*
X83694402Y-51307210D01*
X83688867Y-51309825D01*
X83687781Y-51311633D01*
X83683277Y-51314644D01*
X83616611Y-51381311D01*
X83612160Y-51387970D01*
X83607245Y-51394305D01*
X83573912Y-51460971D01*
X83573250Y-51463386D01*
X83572439Y-51464198D01*
X83570875Y-51472059D01*
X83568759Y-51479787D01*
X83569121Y-51480875D01*
X83568633Y-51483332D01*
X83490855Y-51483332D01*
X83490855Y-50716666D01*
X83568633Y-50716666D01*
X83568633Y-51116666D01*
X83572439Y-51135800D01*
X83599499Y-51162860D01*
X83637767Y-51162860D01*
X83664827Y-51135800D01*
X83668633Y-51116666D01*
X83668633Y-50966666D01*
X84318633Y-50966666D01*
X84337767Y-50962860D01*
X84364827Y-50935800D01*
X84364827Y-50897532D01*
X84337767Y-50870472D01*
X84318633Y-50866666D01*
X83668633Y-50866666D01*
X83668633Y-50716666D01*
X83664827Y-50697532D01*
X83637767Y-50670472D01*
X83599499Y-50670472D01*
X83572439Y-50697532D01*
X83568633Y-50716666D01*
X83490855Y-50716666D01*
X83490855Y-50592694D01*
X84446411Y-50592694D01*
X84446411Y-53311110D01*
G37*
X69518633Y-56966667D02*
X69518633Y-56533333D01*
X69518633Y-56533333D02*
X69785300Y-56766667D01*
X69785300Y-56766667D02*
X69785300Y-56666667D01*
X69785300Y-56666667D02*
X69818633Y-56600000D01*
X69818633Y-56600000D02*
X69851966Y-56566667D01*
X69851966Y-56566667D02*
X69918633Y-56533333D01*
X69918633Y-56533333D02*
X70085300Y-56533333D01*
X70085300Y-56533333D02*
X70151966Y-56566667D01*
X70151966Y-56566667D02*
X70185300Y-56600000D01*
X70185300Y-56600000D02*
X70218633Y-56666667D01*
X70218633Y-56666667D02*
X70218633Y-56866667D01*
X70218633Y-56866667D02*
X70185300Y-56933333D01*
X70185300Y-56933333D02*
X70151966Y-56966667D01*
X69518633Y-56333333D02*
X70218633Y-56100000D01*
X70218633Y-56100000D02*
X69518633Y-55866666D01*
X69518633Y-55700000D02*
X69518633Y-55266666D01*
X69518633Y-55266666D02*
X69785300Y-55500000D01*
X69785300Y-55500000D02*
X69785300Y-55400000D01*
X69785300Y-55400000D02*
X69818633Y-55333333D01*
X69818633Y-55333333D02*
X69851966Y-55300000D01*
X69851966Y-55300000D02*
X69918633Y-55266666D01*
X69918633Y-55266666D02*
X70085300Y-55266666D01*
X70085300Y-55266666D02*
X70151966Y-55300000D01*
X70151966Y-55300000D02*
X70185300Y-55333333D01*
X70185300Y-55333333D02*
X70218633Y-55400000D01*
X70218633Y-55400000D02*
X70218633Y-55600000D01*
X70218633Y-55600000D02*
X70185300Y-55666666D01*
X70185300Y-55666666D02*
X70151966Y-55700000D01*
X88733333Y-71268633D02*
X89166666Y-71268633D01*
X89166666Y-71268633D02*
X88933333Y-71535300D01*
X88933333Y-71535300D02*
X89033333Y-71535300D01*
X89033333Y-71535300D02*
X89099999Y-71568633D01*
X89099999Y-71568633D02*
X89133333Y-71601966D01*
X89133333Y-71601966D02*
X89166666Y-71668633D01*
X89166666Y-71668633D02*
X89166666Y-71835300D01*
X89166666Y-71835300D02*
X89133333Y-71901966D01*
X89133333Y-71901966D02*
X89099999Y-71935300D01*
X89099999Y-71935300D02*
X89033333Y-71968633D01*
X89033333Y-71968633D02*
X88833333Y-71968633D01*
X88833333Y-71968633D02*
X88766666Y-71935300D01*
X88766666Y-71935300D02*
X88733333Y-71901966D01*
X89366666Y-71268633D02*
X89600000Y-71968633D01*
X89600000Y-71968633D02*
X89833333Y-71268633D01*
X90000000Y-71268633D02*
X90433333Y-71268633D01*
X90433333Y-71268633D02*
X90200000Y-71535300D01*
X90200000Y-71535300D02*
X90300000Y-71535300D01*
X90300000Y-71535300D02*
X90366666Y-71568633D01*
X90366666Y-71568633D02*
X90400000Y-71601966D01*
X90400000Y-71601966D02*
X90433333Y-71668633D01*
X90433333Y-71668633D02*
X90433333Y-71835300D01*
X90433333Y-71835300D02*
X90400000Y-71901966D01*
X90400000Y-71901966D02*
X90366666Y-71935300D01*
X90366666Y-71935300D02*
X90300000Y-71968633D01*
X90300000Y-71968633D02*
X90100000Y-71968633D01*
X90100000Y-71968633D02*
X90033333Y-71935300D01*
X90033333Y-71935300D02*
X90000000Y-71901966D01*
G36*
X71013962Y-92768633D02*
G01*
X70819371Y-92768633D01*
X70916666Y-92476745D01*
X71013962Y-92768633D01*
G37*
G36*
X71877778Y-93146411D02*
G01*
X70555681Y-93146411D01*
X70555681Y-93022177D01*
X70633459Y-93022177D01*
X70650573Y-93056406D01*
X70686877Y-93068507D01*
X70721106Y-93051393D01*
X70730767Y-93034444D01*
X70786037Y-92868633D01*
X71047295Y-92868633D01*
X71102566Y-93034445D01*
X71112227Y-93051393D01*
X71146456Y-93068507D01*
X71182760Y-93056406D01*
X71199874Y-93022178D01*
X71197434Y-93002822D01*
X71196326Y-92999499D01*
X71270473Y-92999499D01*
X71270473Y-93037767D01*
X71297533Y-93064827D01*
X71316667Y-93068633D01*
X71750000Y-93068633D01*
X71769134Y-93064827D01*
X71796194Y-93037767D01*
X71796194Y-92999499D01*
X71769134Y-92972439D01*
X71750000Y-92968633D01*
X71437377Y-92968633D01*
X71752022Y-92653989D01*
X71753413Y-92651906D01*
X71754440Y-92651393D01*
X71758406Y-92644434D01*
X71762861Y-92637768D01*
X71762861Y-92636619D01*
X71764101Y-92634444D01*
X71797434Y-92534444D01*
X71798436Y-92526495D01*
X71800000Y-92518633D01*
X71800000Y-92451966D01*
X71799511Y-92449509D01*
X71799874Y-92448422D01*
X71797758Y-92440696D01*
X71796194Y-92432832D01*
X71795382Y-92432020D01*
X71794721Y-92429605D01*
X71761388Y-92362939D01*
X71756476Y-92356610D01*
X71752022Y-92349944D01*
X71718688Y-92316611D01*
X71712028Y-92312160D01*
X71705694Y-92307245D01*
X71639028Y-92273912D01*
X71636612Y-92273250D01*
X71635801Y-92272439D01*
X71627939Y-92270875D01*
X71620212Y-92268759D01*
X71619123Y-92269121D01*
X71616667Y-92268633D01*
X71450000Y-92268633D01*
X71447543Y-92269121D01*
X71446456Y-92268759D01*
X71438726Y-92270875D01*
X71430866Y-92272439D01*
X71430055Y-92273249D01*
X71427640Y-92273911D01*
X71360973Y-92307245D01*
X71354651Y-92312151D01*
X71347977Y-92316611D01*
X71314644Y-92349945D01*
X71303806Y-92366166D01*
X71303806Y-92404435D01*
X71330866Y-92431494D01*
X71369135Y-92431494D01*
X71385356Y-92420655D01*
X71412953Y-92393057D01*
X71461803Y-92368633D01*
X71604864Y-92368633D01*
X71653715Y-92393058D01*
X71675574Y-92414918D01*
X71700000Y-92463769D01*
X71700000Y-92510520D01*
X71672965Y-92591623D01*
X71281312Y-92983278D01*
X71270473Y-92999499D01*
X71196326Y-92999499D01*
X70964101Y-92302822D01*
X70954440Y-92285873D01*
X70951097Y-92284202D01*
X70949427Y-92280860D01*
X70934387Y-92275846D01*
X70920211Y-92268759D01*
X70916667Y-92269940D01*
X70913123Y-92268759D01*
X70898946Y-92275846D01*
X70883907Y-92280860D01*
X70882236Y-92284202D01*
X70878894Y-92285873D01*
X70869233Y-92302822D01*
X70635899Y-93002822D01*
X70633459Y-93022177D01*
X70555681Y-93022177D01*
X70555681Y-92190855D01*
X71877778Y-92190855D01*
X71877778Y-93146411D01*
G37*
G36*
X78539658Y-92729001D02*
G01*
X78558907Y-92748250D01*
X78583333Y-92797102D01*
X78583333Y-92873497D01*
X78558907Y-92922347D01*
X78537048Y-92944207D01*
X78488198Y-92968633D01*
X78283333Y-92968633D01*
X78283333Y-92701966D01*
X78458553Y-92701966D01*
X78539658Y-92729001D01*
G37*
G36*
X78503715Y-92393058D02*
G01*
X78525574Y-92414918D01*
X78550000Y-92463769D01*
X78550000Y-92506830D01*
X78525575Y-92555679D01*
X78503714Y-92577540D01*
X78454864Y-92601966D01*
X78283333Y-92601966D01*
X78283333Y-92368633D01*
X78454864Y-92368633D01*
X78503715Y-92393058D01*
G37*
G36*
X79423972Y-93146411D02*
G01*
X78105555Y-93146411D01*
X78105555Y-92318633D01*
X78183333Y-92318633D01*
X78183333Y-93018633D01*
X78187139Y-93037767D01*
X78214199Y-93064827D01*
X78233333Y-93068633D01*
X78500000Y-93068633D01*
X78502456Y-93068144D01*
X78503544Y-93068507D01*
X78511268Y-93066391D01*
X78519134Y-93064827D01*
X78519945Y-93064015D01*
X78522360Y-93063354D01*
X78589028Y-93030021D01*
X78595356Y-93025109D01*
X78602023Y-93020655D01*
X78635356Y-92987321D01*
X78639807Y-92980658D01*
X78644721Y-92974327D01*
X78678054Y-92907661D01*
X78678715Y-92905245D01*
X78679527Y-92904434D01*
X78681091Y-92896569D01*
X78683207Y-92888844D01*
X78682844Y-92887756D01*
X78683333Y-92885300D01*
X78683333Y-92785300D01*
X78682844Y-92782843D01*
X78683207Y-92781756D01*
X78681090Y-92774026D01*
X78679527Y-92766166D01*
X78678716Y-92765355D01*
X78678055Y-92762940D01*
X78644721Y-92696273D01*
X78639809Y-92689944D01*
X78635355Y-92683278D01*
X78602022Y-92649945D01*
X78599940Y-92648554D01*
X78599427Y-92647527D01*
X78592461Y-92643556D01*
X78585801Y-92639106D01*
X78584653Y-92639106D01*
X78583964Y-92638713D01*
X78602022Y-92620656D01*
X78606481Y-92613981D01*
X78611388Y-92607660D01*
X78644722Y-92540993D01*
X78645383Y-92538577D01*
X78646194Y-92537767D01*
X78647757Y-92529906D01*
X78649874Y-92522177D01*
X78850126Y-92522177D01*
X78867240Y-92556405D01*
X78903544Y-92568507D01*
X78922360Y-92563354D01*
X78989028Y-92530021D01*
X78995356Y-92525109D01*
X79002023Y-92520655D01*
X79050000Y-92472677D01*
X79050000Y-92968633D01*
X78900000Y-92968633D01*
X78880866Y-92972439D01*
X78853806Y-92999499D01*
X78853806Y-93037767D01*
X78880866Y-93064827D01*
X78900000Y-93068633D01*
X79300000Y-93068633D01*
X79319134Y-93064827D01*
X79346194Y-93037767D01*
X79346194Y-92999499D01*
X79319134Y-92972439D01*
X79300000Y-92968633D01*
X79150000Y-92968633D01*
X79150000Y-92318633D01*
X79146194Y-92299499D01*
X79142553Y-92295858D01*
X79141544Y-92290811D01*
X79129430Y-92282735D01*
X79119134Y-92272439D01*
X79113986Y-92272439D01*
X79109703Y-92269584D01*
X79095428Y-92272439D01*
X79080866Y-92272439D01*
X79077225Y-92276079D01*
X79072178Y-92277089D01*
X79058397Y-92290898D01*
X78994476Y-92386779D01*
X78937048Y-92444207D01*
X78877640Y-92473912D01*
X78862228Y-92485873D01*
X78850126Y-92522177D01*
X78649874Y-92522177D01*
X78649511Y-92521089D01*
X78650000Y-92518633D01*
X78650000Y-92451966D01*
X78649511Y-92449509D01*
X78649874Y-92448422D01*
X78647758Y-92440696D01*
X78646194Y-92432832D01*
X78645382Y-92432020D01*
X78644721Y-92429605D01*
X78611388Y-92362939D01*
X78606476Y-92356610D01*
X78602022Y-92349944D01*
X78568688Y-92316611D01*
X78562028Y-92312160D01*
X78555694Y-92307245D01*
X78489028Y-92273912D01*
X78486612Y-92273250D01*
X78485801Y-92272439D01*
X78477939Y-92270875D01*
X78470212Y-92268759D01*
X78469123Y-92269121D01*
X78466667Y-92268633D01*
X78233333Y-92268633D01*
X78214199Y-92272439D01*
X78187139Y-92299499D01*
X78183333Y-92318633D01*
X78105555Y-92318633D01*
X78105555Y-92190855D01*
X79423972Y-92190855D01*
X79423972Y-93146411D01*
G37*
X66618633Y-56233333D02*
X66618633Y-56566666D01*
X66618633Y-56566666D02*
X66951966Y-56599999D01*
X66951966Y-56599999D02*
X66918633Y-56566666D01*
X66918633Y-56566666D02*
X66885300Y-56499999D01*
X66885300Y-56499999D02*
X66885300Y-56333333D01*
X66885300Y-56333333D02*
X66918633Y-56266666D01*
X66918633Y-56266666D02*
X66951966Y-56233333D01*
X66951966Y-56233333D02*
X67018633Y-56199999D01*
X67018633Y-56199999D02*
X67185300Y-56199999D01*
X67185300Y-56199999D02*
X67251966Y-56233333D01*
X67251966Y-56233333D02*
X67285300Y-56266666D01*
X67285300Y-56266666D02*
X67318633Y-56333333D01*
X67318633Y-56333333D02*
X67318633Y-56499999D01*
X67318633Y-56499999D02*
X67285300Y-56566666D01*
X67285300Y-56566666D02*
X67251966Y-56599999D01*
X66618633Y-55999999D02*
X67318633Y-55766666D01*
X67318633Y-55766666D02*
X66618633Y-55533332D01*
X60818633Y-56550000D02*
X60818633Y-56883333D01*
X60818633Y-56883333D02*
X61151966Y-56916666D01*
X61151966Y-56916666D02*
X61118633Y-56883333D01*
X61118633Y-56883333D02*
X61085300Y-56816666D01*
X61085300Y-56816666D02*
X61085300Y-56650000D01*
X61085300Y-56650000D02*
X61118633Y-56583333D01*
X61118633Y-56583333D02*
X61151966Y-56550000D01*
X61151966Y-56550000D02*
X61218633Y-56516666D01*
X61218633Y-56516666D02*
X61385300Y-56516666D01*
X61385300Y-56516666D02*
X61451966Y-56550000D01*
X61451966Y-56550000D02*
X61485300Y-56583333D01*
X61485300Y-56583333D02*
X61518633Y-56650000D01*
X61518633Y-56650000D02*
X61518633Y-56816666D01*
X61518633Y-56816666D02*
X61485300Y-56883333D01*
X61485300Y-56883333D02*
X61451966Y-56916666D01*
X60818633Y-56316666D02*
X61518633Y-56083333D01*
X61518633Y-56083333D02*
X60818633Y-55849999D01*
X61151966Y-55616666D02*
X61151966Y-55383333D01*
X61518633Y-55283333D02*
X61518633Y-55616666D01*
X61518633Y-55616666D02*
X60818633Y-55616666D01*
X60818633Y-55616666D02*
X60818633Y-55283333D01*
X85166667Y-71268633D02*
X84833333Y-71268633D01*
X84833333Y-71268633D02*
X84800000Y-71601966D01*
X84800000Y-71601966D02*
X84833333Y-71568633D01*
X84833333Y-71568633D02*
X84900000Y-71535300D01*
X84900000Y-71535300D02*
X85066667Y-71535300D01*
X85066667Y-71535300D02*
X85133333Y-71568633D01*
X85133333Y-71568633D02*
X85166667Y-71601966D01*
X85166667Y-71601966D02*
X85200000Y-71668633D01*
X85200000Y-71668633D02*
X85200000Y-71835300D01*
X85200000Y-71835300D02*
X85166667Y-71901966D01*
X85166667Y-71901966D02*
X85133333Y-71935300D01*
X85133333Y-71935300D02*
X85066667Y-71968633D01*
X85066667Y-71968633D02*
X84900000Y-71968633D01*
X84900000Y-71968633D02*
X84833333Y-71935300D01*
X84833333Y-71935300D02*
X84800000Y-71901966D01*
X85400000Y-71268633D02*
X85633334Y-71968633D01*
X85633334Y-71968633D02*
X85866667Y-71268633D01*
G36*
X81189658Y-54629001D02*
G01*
X81208907Y-54648250D01*
X81233333Y-54697102D01*
X81233333Y-54773497D01*
X81208907Y-54822347D01*
X81187048Y-54844207D01*
X81138198Y-54868633D01*
X80933333Y-54868633D01*
X80933333Y-54601966D01*
X81108553Y-54601966D01*
X81189658Y-54629001D01*
G37*
G36*
X81153715Y-54293058D02*
G01*
X81175574Y-54314918D01*
X81200000Y-54363769D01*
X81200000Y-54406830D01*
X81175575Y-54455679D01*
X81153714Y-54477540D01*
X81104864Y-54501966D01*
X80933333Y-54501966D01*
X80933333Y-54268633D01*
X81104864Y-54268633D01*
X81153715Y-54293058D01*
G37*
G36*
X82077778Y-55046411D02*
G01*
X80755555Y-55046411D01*
X80755555Y-54218633D01*
X80833333Y-54218633D01*
X80833333Y-54918633D01*
X80837139Y-54937767D01*
X80864199Y-54964827D01*
X80883333Y-54968633D01*
X81150000Y-54968633D01*
X81152456Y-54968144D01*
X81153544Y-54968507D01*
X81161268Y-54966391D01*
X81169134Y-54964827D01*
X81169945Y-54964015D01*
X81172360Y-54963354D01*
X81239028Y-54930021D01*
X81245356Y-54925109D01*
X81252023Y-54920655D01*
X81273178Y-54899499D01*
X81470473Y-54899499D01*
X81470473Y-54937767D01*
X81497533Y-54964827D01*
X81516667Y-54968633D01*
X81950000Y-54968633D01*
X81969134Y-54964827D01*
X81996194Y-54937767D01*
X81996194Y-54899499D01*
X81969134Y-54872439D01*
X81950000Y-54868633D01*
X81637377Y-54868633D01*
X81952022Y-54553989D01*
X81953413Y-54551906D01*
X81954440Y-54551393D01*
X81958406Y-54544434D01*
X81962861Y-54537768D01*
X81962861Y-54536619D01*
X81964101Y-54534444D01*
X81997434Y-54434444D01*
X81998436Y-54426495D01*
X82000000Y-54418633D01*
X82000000Y-54351966D01*
X81999511Y-54349509D01*
X81999874Y-54348422D01*
X81997758Y-54340696D01*
X81996194Y-54332832D01*
X81995382Y-54332020D01*
X81994721Y-54329605D01*
X81961388Y-54262939D01*
X81956476Y-54256610D01*
X81952022Y-54249944D01*
X81918688Y-54216611D01*
X81912028Y-54212160D01*
X81905694Y-54207245D01*
X81839028Y-54173912D01*
X81836612Y-54173250D01*
X81835801Y-54172439D01*
X81827939Y-54170875D01*
X81820212Y-54168759D01*
X81819123Y-54169121D01*
X81816667Y-54168633D01*
X81650000Y-54168633D01*
X81647543Y-54169121D01*
X81646456Y-54168759D01*
X81638726Y-54170875D01*
X81630866Y-54172439D01*
X81630055Y-54173249D01*
X81627640Y-54173911D01*
X81560973Y-54207245D01*
X81554651Y-54212151D01*
X81547977Y-54216611D01*
X81514644Y-54249945D01*
X81503806Y-54266166D01*
X81503806Y-54304435D01*
X81530866Y-54331494D01*
X81569135Y-54331494D01*
X81585356Y-54320655D01*
X81612953Y-54293057D01*
X81661803Y-54268633D01*
X81804864Y-54268633D01*
X81853715Y-54293058D01*
X81875574Y-54314918D01*
X81900000Y-54363769D01*
X81900000Y-54410520D01*
X81872965Y-54491623D01*
X81481312Y-54883278D01*
X81470473Y-54899499D01*
X81273178Y-54899499D01*
X81285356Y-54887321D01*
X81289807Y-54880658D01*
X81294721Y-54874327D01*
X81328054Y-54807661D01*
X81328715Y-54805245D01*
X81329527Y-54804434D01*
X81331091Y-54796569D01*
X81333207Y-54788844D01*
X81332844Y-54787756D01*
X81333333Y-54785300D01*
X81333333Y-54685300D01*
X81332844Y-54682843D01*
X81333207Y-54681756D01*
X81331090Y-54674026D01*
X81329527Y-54666166D01*
X81328716Y-54665355D01*
X81328055Y-54662940D01*
X81294721Y-54596273D01*
X81289809Y-54589944D01*
X81285355Y-54583278D01*
X81252022Y-54549945D01*
X81249940Y-54548554D01*
X81249427Y-54547527D01*
X81242461Y-54543556D01*
X81235801Y-54539106D01*
X81234653Y-54539106D01*
X81233964Y-54538713D01*
X81252022Y-54520656D01*
X81256481Y-54513981D01*
X81261388Y-54507660D01*
X81294722Y-54440993D01*
X81295383Y-54438577D01*
X81296194Y-54437767D01*
X81297757Y-54429906D01*
X81299874Y-54422177D01*
X81299511Y-54421089D01*
X81300000Y-54418633D01*
X81300000Y-54351966D01*
X81299511Y-54349509D01*
X81299874Y-54348422D01*
X81297758Y-54340696D01*
X81296194Y-54332832D01*
X81295382Y-54332020D01*
X81294721Y-54329605D01*
X81261388Y-54262939D01*
X81256476Y-54256610D01*
X81252022Y-54249944D01*
X81218688Y-54216611D01*
X81212028Y-54212160D01*
X81205694Y-54207245D01*
X81139028Y-54173912D01*
X81136612Y-54173250D01*
X81135801Y-54172439D01*
X81127939Y-54170875D01*
X81120212Y-54168759D01*
X81119123Y-54169121D01*
X81116667Y-54168633D01*
X80883333Y-54168633D01*
X80864199Y-54172439D01*
X80837139Y-54199499D01*
X80833333Y-54218633D01*
X80755555Y-54218633D01*
X80755555Y-54090855D01*
X82077778Y-54090855D01*
X82077778Y-55046411D01*
G37*
X52318633Y-59316666D02*
X53018633Y-59083333D01*
X53018633Y-59083333D02*
X52318633Y-58849999D01*
X53018633Y-58616666D02*
X52551966Y-58616666D01*
X52318633Y-58616666D02*
X52351966Y-58649999D01*
X52351966Y-58649999D02*
X52385300Y-58616666D01*
X52385300Y-58616666D02*
X52351966Y-58583333D01*
X52351966Y-58583333D02*
X52318633Y-58616666D01*
X52318633Y-58616666D02*
X52385300Y-58616666D01*
X52551966Y-58283333D02*
X53018633Y-58283333D01*
X52618633Y-58283333D02*
X52585300Y-58250000D01*
X52585300Y-58250000D02*
X52551966Y-58183333D01*
X52551966Y-58183333D02*
X52551966Y-58083333D01*
X52551966Y-58083333D02*
X52585300Y-58016666D01*
X52585300Y-58016666D02*
X52651966Y-57983333D01*
X52651966Y-57983333D02*
X53018633Y-57983333D01*
G36*
X72889658Y-54629001D02*
G01*
X72908907Y-54648250D01*
X72933333Y-54697102D01*
X72933333Y-54773497D01*
X72908907Y-54822347D01*
X72887048Y-54844207D01*
X72838198Y-54868633D01*
X72633333Y-54868633D01*
X72633333Y-54601966D01*
X72808553Y-54601966D01*
X72889658Y-54629001D01*
G37*
G36*
X72853715Y-54293058D02*
G01*
X72875574Y-54314918D01*
X72900000Y-54363769D01*
X72900000Y-54406830D01*
X72875575Y-54455679D01*
X72853714Y-54477540D01*
X72804864Y-54501966D01*
X72633333Y-54501966D01*
X72633333Y-54268633D01*
X72804864Y-54268633D01*
X72853715Y-54293058D01*
G37*
G36*
X73773972Y-55046411D02*
G01*
X72455555Y-55046411D01*
X72455555Y-54218633D01*
X72533333Y-54218633D01*
X72533333Y-54918633D01*
X72537139Y-54937767D01*
X72564199Y-54964827D01*
X72583333Y-54968633D01*
X72850000Y-54968633D01*
X72852456Y-54968144D01*
X72853544Y-54968507D01*
X72861268Y-54966391D01*
X72869134Y-54964827D01*
X72869945Y-54964015D01*
X72872360Y-54963354D01*
X72939028Y-54930021D01*
X72945356Y-54925109D01*
X72952023Y-54920655D01*
X72985356Y-54887321D01*
X72989807Y-54880658D01*
X72994721Y-54874327D01*
X73028054Y-54807661D01*
X73028715Y-54805245D01*
X73029527Y-54804434D01*
X73031091Y-54796569D01*
X73033207Y-54788844D01*
X73032844Y-54787756D01*
X73033333Y-54785300D01*
X73033333Y-54685300D01*
X73032844Y-54682843D01*
X73033207Y-54681756D01*
X73031090Y-54674026D01*
X73029527Y-54666166D01*
X73028716Y-54665355D01*
X73028055Y-54662940D01*
X72994721Y-54596273D01*
X72989809Y-54589944D01*
X72985355Y-54583278D01*
X72952022Y-54549945D01*
X72949940Y-54548554D01*
X72949427Y-54547527D01*
X72942461Y-54543556D01*
X72935801Y-54539106D01*
X72934653Y-54539106D01*
X72933964Y-54538713D01*
X72952022Y-54520656D01*
X72956481Y-54513981D01*
X72961388Y-54507660D01*
X72994722Y-54440993D01*
X72995383Y-54438577D01*
X72996194Y-54437767D01*
X72997757Y-54429906D01*
X72999874Y-54422177D01*
X73200126Y-54422177D01*
X73217240Y-54456405D01*
X73253544Y-54468507D01*
X73272360Y-54463354D01*
X73339028Y-54430021D01*
X73345356Y-54425109D01*
X73352023Y-54420655D01*
X73400000Y-54372677D01*
X73400000Y-54868633D01*
X73250000Y-54868633D01*
X73230866Y-54872439D01*
X73203806Y-54899499D01*
X73203806Y-54937767D01*
X73230866Y-54964827D01*
X73250000Y-54968633D01*
X73650000Y-54968633D01*
X73669134Y-54964827D01*
X73696194Y-54937767D01*
X73696194Y-54899499D01*
X73669134Y-54872439D01*
X73650000Y-54868633D01*
X73500000Y-54868633D01*
X73500000Y-54218633D01*
X73496194Y-54199499D01*
X73492553Y-54195858D01*
X73491544Y-54190811D01*
X73479430Y-54182735D01*
X73469134Y-54172439D01*
X73463986Y-54172439D01*
X73459703Y-54169584D01*
X73445428Y-54172439D01*
X73430866Y-54172439D01*
X73427225Y-54176079D01*
X73422178Y-54177089D01*
X73408397Y-54190898D01*
X73344476Y-54286779D01*
X73287048Y-54344207D01*
X73227640Y-54373912D01*
X73212228Y-54385873D01*
X73200126Y-54422177D01*
X72999874Y-54422177D01*
X72999511Y-54421089D01*
X73000000Y-54418633D01*
X73000000Y-54351966D01*
X72999511Y-54349509D01*
X72999874Y-54348422D01*
X72997758Y-54340696D01*
X72996194Y-54332832D01*
X72995382Y-54332020D01*
X72994721Y-54329605D01*
X72961388Y-54262939D01*
X72956476Y-54256610D01*
X72952022Y-54249944D01*
X72918688Y-54216611D01*
X72912028Y-54212160D01*
X72905694Y-54207245D01*
X72839028Y-54173912D01*
X72836612Y-54173250D01*
X72835801Y-54172439D01*
X72827939Y-54170875D01*
X72820212Y-54168759D01*
X72819123Y-54169121D01*
X72816667Y-54168633D01*
X72583333Y-54168633D01*
X72564199Y-54172439D01*
X72537139Y-54199499D01*
X72533333Y-54218633D01*
X72455555Y-54218633D01*
X72455555Y-54090855D01*
X73773972Y-54090855D01*
X73773972Y-55046411D01*
G37*
G36*
X64689658Y-54629001D02*
G01*
X64708907Y-54648250D01*
X64733333Y-54697102D01*
X64733333Y-54773497D01*
X64708907Y-54822347D01*
X64687048Y-54844207D01*
X64638198Y-54868633D01*
X64433333Y-54868633D01*
X64433333Y-54601966D01*
X64608553Y-54601966D01*
X64689658Y-54629001D01*
G37*
G36*
X64653715Y-54293058D02*
G01*
X64675574Y-54314918D01*
X64700000Y-54363769D01*
X64700000Y-54406830D01*
X64675575Y-54455679D01*
X64653714Y-54477540D01*
X64604864Y-54501966D01*
X64433333Y-54501966D01*
X64433333Y-54268633D01*
X64604864Y-54268633D01*
X64653715Y-54293058D01*
G37*
G36*
X65320381Y-54293058D02*
G01*
X65342241Y-54314918D01*
X65369491Y-54369417D01*
X65400000Y-54491453D01*
X65400000Y-54645812D01*
X65369491Y-54767848D01*
X65342241Y-54822347D01*
X65320381Y-54844207D01*
X65271531Y-54868633D01*
X65228470Y-54868633D01*
X65179620Y-54844208D01*
X65157758Y-54822347D01*
X65130508Y-54767848D01*
X65100000Y-54645811D01*
X65100000Y-54491454D01*
X65130508Y-54369417D01*
X65157758Y-54314918D01*
X65179620Y-54293057D01*
X65228470Y-54268633D01*
X65271531Y-54268633D01*
X65320381Y-54293058D01*
G37*
G36*
X65577778Y-55046411D02*
G01*
X64255555Y-55046411D01*
X64255555Y-54218633D01*
X64333333Y-54218633D01*
X64333333Y-54918633D01*
X64337139Y-54937767D01*
X64364199Y-54964827D01*
X64383333Y-54968633D01*
X64650000Y-54968633D01*
X64652456Y-54968144D01*
X64653544Y-54968507D01*
X64661268Y-54966391D01*
X64669134Y-54964827D01*
X64669945Y-54964015D01*
X64672360Y-54963354D01*
X64739028Y-54930021D01*
X64745356Y-54925109D01*
X64752023Y-54920655D01*
X64785356Y-54887321D01*
X64789807Y-54880658D01*
X64794721Y-54874327D01*
X64828054Y-54807661D01*
X64828715Y-54805245D01*
X64829527Y-54804434D01*
X64831091Y-54796569D01*
X64833207Y-54788844D01*
X64832844Y-54787756D01*
X64833333Y-54785300D01*
X64833333Y-54685300D01*
X64832844Y-54682843D01*
X64833207Y-54681756D01*
X64831090Y-54674026D01*
X64829527Y-54666166D01*
X64828716Y-54665355D01*
X64828055Y-54662940D01*
X64794721Y-54596273D01*
X64789809Y-54589944D01*
X64785355Y-54583278D01*
X64752022Y-54549945D01*
X64749940Y-54548554D01*
X64749427Y-54547527D01*
X64742461Y-54543556D01*
X64735801Y-54539106D01*
X64734653Y-54539106D01*
X64733964Y-54538713D01*
X64752022Y-54520656D01*
X64756481Y-54513981D01*
X64761388Y-54507660D01*
X64772568Y-54485300D01*
X65000000Y-54485300D01*
X65000000Y-54651966D01*
X65001195Y-54657975D01*
X65001493Y-54664093D01*
X65034826Y-54797426D01*
X65037165Y-54802377D01*
X65038612Y-54807661D01*
X65071946Y-54874327D01*
X65076857Y-54880655D01*
X65081311Y-54887321D01*
X65114644Y-54920655D01*
X65121318Y-54925114D01*
X65127640Y-54930021D01*
X65194307Y-54963355D01*
X65196722Y-54964016D01*
X65197533Y-54964827D01*
X65205393Y-54966390D01*
X65213123Y-54968507D01*
X65214210Y-54968144D01*
X65216667Y-54968633D01*
X65283333Y-54968633D01*
X65285789Y-54968144D01*
X65286877Y-54968507D01*
X65294601Y-54966391D01*
X65302467Y-54964827D01*
X65303278Y-54964015D01*
X65305693Y-54963354D01*
X65372361Y-54930021D01*
X65378689Y-54925109D01*
X65385356Y-54920655D01*
X65418689Y-54887321D01*
X65423140Y-54880658D01*
X65428054Y-54874327D01*
X65461388Y-54807661D01*
X65462834Y-54802379D01*
X65465174Y-54797427D01*
X65498507Y-54664093D01*
X65498804Y-54657975D01*
X65500000Y-54651966D01*
X65500000Y-54485300D01*
X65498804Y-54479290D01*
X65498507Y-54473173D01*
X65465174Y-54339839D01*
X65462834Y-54334886D01*
X65461388Y-54329605D01*
X65428054Y-54262939D01*
X65423140Y-54256607D01*
X65418689Y-54249945D01*
X65385356Y-54216611D01*
X65378689Y-54212156D01*
X65372361Y-54207245D01*
X65305693Y-54173912D01*
X65303278Y-54173250D01*
X65302467Y-54172439D01*
X65294601Y-54170874D01*
X65286877Y-54168759D01*
X65285789Y-54169121D01*
X65283333Y-54168633D01*
X65216667Y-54168633D01*
X65214210Y-54169121D01*
X65213123Y-54168759D01*
X65205393Y-54170875D01*
X65197533Y-54172439D01*
X65196722Y-54173249D01*
X65194307Y-54173911D01*
X65127640Y-54207245D01*
X65121318Y-54212151D01*
X65114644Y-54216611D01*
X65081311Y-54249945D01*
X65076857Y-54256610D01*
X65071946Y-54262939D01*
X65038612Y-54329605D01*
X65037165Y-54334888D01*
X65034826Y-54339840D01*
X65001493Y-54473173D01*
X65001195Y-54479290D01*
X65000000Y-54485300D01*
X64772568Y-54485300D01*
X64794722Y-54440993D01*
X64795383Y-54438577D01*
X64796194Y-54437767D01*
X64797757Y-54429906D01*
X64799874Y-54422177D01*
X64799511Y-54421089D01*
X64800000Y-54418633D01*
X64800000Y-54351966D01*
X64799511Y-54349509D01*
X64799874Y-54348422D01*
X64797758Y-54340696D01*
X64796194Y-54332832D01*
X64795382Y-54332020D01*
X64794721Y-54329605D01*
X64761388Y-54262939D01*
X64756476Y-54256610D01*
X64752022Y-54249944D01*
X64718688Y-54216611D01*
X64712028Y-54212160D01*
X64705694Y-54207245D01*
X64639028Y-54173912D01*
X64636612Y-54173250D01*
X64635801Y-54172439D01*
X64627939Y-54170875D01*
X64620212Y-54168759D01*
X64619123Y-54169121D01*
X64616667Y-54168633D01*
X64383333Y-54168633D01*
X64364199Y-54172439D01*
X64337139Y-54199499D01*
X64333333Y-54218633D01*
X64255555Y-54218633D01*
X64255555Y-54090855D01*
X65577778Y-54090855D01*
X65577778Y-55046411D01*
G37*
G36*
X73513962Y-92768633D02*
G01*
X73319371Y-92768633D01*
X73416666Y-92476745D01*
X73513962Y-92768633D01*
G37*
G36*
X74373972Y-93146411D02*
G01*
X73055681Y-93146411D01*
X73055681Y-93022177D01*
X73133459Y-93022177D01*
X73150573Y-93056406D01*
X73186877Y-93068507D01*
X73221106Y-93051393D01*
X73230767Y-93034444D01*
X73286037Y-92868633D01*
X73547295Y-92868633D01*
X73602566Y-93034445D01*
X73612227Y-93051393D01*
X73646456Y-93068507D01*
X73682760Y-93056406D01*
X73699874Y-93022178D01*
X73697434Y-93002822D01*
X73537219Y-92522177D01*
X73800126Y-92522177D01*
X73817240Y-92556405D01*
X73853544Y-92568507D01*
X73872360Y-92563354D01*
X73939028Y-92530021D01*
X73945356Y-92525109D01*
X73952023Y-92520655D01*
X74000000Y-92472677D01*
X74000000Y-92968633D01*
X73850000Y-92968633D01*
X73830866Y-92972439D01*
X73803806Y-92999499D01*
X73803806Y-93037767D01*
X73830866Y-93064827D01*
X73850000Y-93068633D01*
X74250000Y-93068633D01*
X74269134Y-93064827D01*
X74296194Y-93037767D01*
X74296194Y-92999499D01*
X74269134Y-92972439D01*
X74250000Y-92968633D01*
X74100000Y-92968633D01*
X74100000Y-92318633D01*
X74096194Y-92299499D01*
X74092553Y-92295858D01*
X74091544Y-92290811D01*
X74079430Y-92282735D01*
X74069134Y-92272439D01*
X74063986Y-92272439D01*
X74059703Y-92269584D01*
X74045428Y-92272439D01*
X74030866Y-92272439D01*
X74027225Y-92276079D01*
X74022178Y-92277089D01*
X74008397Y-92290898D01*
X73944476Y-92386779D01*
X73887048Y-92444207D01*
X73827640Y-92473912D01*
X73812228Y-92485873D01*
X73800126Y-92522177D01*
X73537219Y-92522177D01*
X73464101Y-92302822D01*
X73454440Y-92285873D01*
X73451097Y-92284202D01*
X73449427Y-92280860D01*
X73434387Y-92275846D01*
X73420211Y-92268759D01*
X73416667Y-92269940D01*
X73413123Y-92268759D01*
X73398946Y-92275846D01*
X73383907Y-92280860D01*
X73382236Y-92284202D01*
X73378894Y-92285873D01*
X73369233Y-92302822D01*
X73135899Y-93002822D01*
X73133459Y-93022177D01*
X73055681Y-93022177D01*
X73055681Y-92190981D01*
X74373972Y-92190981D01*
X74373972Y-93146411D01*
G37*
G36*
X97887048Y-65593058D02*
G01*
X97908907Y-65614918D01*
X97933333Y-65663769D01*
X97933333Y-65740163D01*
X97908907Y-65789015D01*
X97887049Y-65810873D01*
X97838197Y-65835300D01*
X97633333Y-65835300D01*
X97633333Y-65568633D01*
X97838198Y-65568633D01*
X97887048Y-65593058D01*
G37*
G36*
X99373972Y-66346411D02*
G01*
X96722222Y-66346411D01*
X96722222Y-65518633D01*
X96800000Y-65518633D01*
X96800000Y-66218633D01*
X96803806Y-66237767D01*
X96830866Y-66264827D01*
X96869134Y-66264827D01*
X96896194Y-66237767D01*
X96900000Y-66218633D01*
X96900000Y-65706911D01*
X97206588Y-66243440D01*
X97219386Y-66258165D01*
X97226010Y-66259971D01*
X97230866Y-66264827D01*
X97243814Y-66264827D01*
X97256306Y-66268234D01*
X97262268Y-66264827D01*
X97269134Y-66264827D01*
X97278287Y-66255673D01*
X97289532Y-66249248D01*
X97291339Y-66242621D01*
X97296194Y-66237767D01*
X97300000Y-66218633D01*
X97300000Y-65518633D01*
X97533333Y-65518633D01*
X97533333Y-66218633D01*
X97537139Y-66237767D01*
X97564199Y-66264827D01*
X97602467Y-66264827D01*
X97629527Y-66237767D01*
X97633333Y-66218633D01*
X97633333Y-65935300D01*
X97723967Y-65935300D01*
X97942372Y-66247306D01*
X97956462Y-66260799D01*
X97994148Y-66267449D01*
X98025499Y-66245504D01*
X98032149Y-66207818D01*
X98024295Y-66189960D01*
X97846033Y-65935300D01*
X97850000Y-65935300D01*
X97852456Y-65934811D01*
X97853545Y-65935174D01*
X97861272Y-65933057D01*
X97869134Y-65931494D01*
X97869945Y-65930682D01*
X97872361Y-65930021D01*
X97939028Y-65896687D01*
X97945362Y-65891771D01*
X97952022Y-65887321D01*
X97985355Y-65853988D01*
X97989809Y-65847321D01*
X97994721Y-65840993D01*
X98028055Y-65774326D01*
X98028716Y-65771910D01*
X98029527Y-65771100D01*
X98031090Y-65763239D01*
X98033207Y-65755510D01*
X98032844Y-65754422D01*
X98033333Y-65751966D01*
X98033333Y-65651966D01*
X98200000Y-65651966D01*
X98200000Y-65718633D01*
X98200488Y-65721089D01*
X98200126Y-65722177D01*
X98202241Y-65729901D01*
X98203806Y-65737767D01*
X98204617Y-65738578D01*
X98205279Y-65740993D01*
X98238612Y-65807661D01*
X98243523Y-65813989D01*
X98247978Y-65820656D01*
X98281312Y-65853989D01*
X98287974Y-65858440D01*
X98294306Y-65863354D01*
X98360972Y-65896687D01*
X98366252Y-65898133D01*
X98371206Y-65900473D01*
X98499215Y-65932475D01*
X98553714Y-65959725D01*
X98575575Y-65981586D01*
X98600000Y-66030435D01*
X98600000Y-66073497D01*
X98575574Y-66122347D01*
X98553715Y-66144207D01*
X98504864Y-66168633D01*
X98358113Y-66168633D01*
X98265811Y-66137866D01*
X98246456Y-66135426D01*
X98212227Y-66152540D01*
X98200126Y-66188844D01*
X98217240Y-66223073D01*
X98234189Y-66232734D01*
X98334189Y-66266067D01*
X98342137Y-66267069D01*
X98350000Y-66268633D01*
X98516667Y-66268633D01*
X98519123Y-66268144D01*
X98520212Y-66268507D01*
X98527939Y-66266390D01*
X98535801Y-66264827D01*
X98536612Y-66264015D01*
X98539028Y-66263354D01*
X98605694Y-66230021D01*
X98612028Y-66225105D01*
X98618688Y-66220655D01*
X98652022Y-66187322D01*
X98656476Y-66180655D01*
X98661388Y-66174327D01*
X98694721Y-66107661D01*
X98695382Y-66105245D01*
X98696194Y-66104434D01*
X98697758Y-66096569D01*
X98699874Y-66088844D01*
X98699511Y-66087756D01*
X98700000Y-66085300D01*
X98700000Y-66018633D01*
X98699511Y-66016176D01*
X98699874Y-66015089D01*
X98697757Y-66007359D01*
X98696194Y-65999499D01*
X98695383Y-65998688D01*
X98694722Y-65996273D01*
X98661388Y-65929606D01*
X98656481Y-65923284D01*
X98652022Y-65916610D01*
X98618688Y-65883277D01*
X98612022Y-65878823D01*
X98605694Y-65873912D01*
X98539028Y-65840579D01*
X98533746Y-65839132D01*
X98528794Y-65836793D01*
X98400784Y-65804790D01*
X98346285Y-65777540D01*
X98324425Y-65755681D01*
X98300000Y-65706830D01*
X98300000Y-65663769D01*
X98324425Y-65614917D01*
X98346285Y-65593058D01*
X98395136Y-65568633D01*
X98541887Y-65568633D01*
X98634189Y-65599400D01*
X98653544Y-65601840D01*
X98687773Y-65584726D01*
X98699874Y-65548422D01*
X98682760Y-65514193D01*
X98665811Y-65504532D01*
X98650712Y-65499499D01*
X98803806Y-65499499D01*
X98803806Y-65537767D01*
X98830866Y-65564827D01*
X98850000Y-65568633D01*
X99000000Y-65568633D01*
X99000000Y-66218633D01*
X99003806Y-66237767D01*
X99030866Y-66264827D01*
X99069134Y-66264827D01*
X99096194Y-66237767D01*
X99100000Y-66218633D01*
X99100000Y-65568633D01*
X99250000Y-65568633D01*
X99269134Y-65564827D01*
X99296194Y-65537767D01*
X99296194Y-65499499D01*
X99269134Y-65472439D01*
X99250000Y-65468633D01*
X98850000Y-65468633D01*
X98830866Y-65472439D01*
X98803806Y-65499499D01*
X98650712Y-65499499D01*
X98565811Y-65471199D01*
X98557862Y-65470196D01*
X98550000Y-65468633D01*
X98383333Y-65468633D01*
X98380876Y-65469121D01*
X98379789Y-65468759D01*
X98372063Y-65470874D01*
X98364199Y-65472439D01*
X98363387Y-65473250D01*
X98360972Y-65473912D01*
X98294306Y-65507245D01*
X98287977Y-65512156D01*
X98281311Y-65516611D01*
X98247978Y-65549945D01*
X98243527Y-65556604D01*
X98238612Y-65562939D01*
X98205279Y-65629605D01*
X98204617Y-65632020D01*
X98203806Y-65632832D01*
X98202242Y-65640693D01*
X98200126Y-65648421D01*
X98200488Y-65649509D01*
X98200000Y-65651966D01*
X98033333Y-65651966D01*
X98032844Y-65649509D01*
X98033207Y-65648422D01*
X98031091Y-65640696D01*
X98029527Y-65632832D01*
X98028715Y-65632020D01*
X98028054Y-65629605D01*
X97994721Y-65562939D01*
X97989807Y-65556607D01*
X97985356Y-65549945D01*
X97952023Y-65516611D01*
X97945356Y-65512156D01*
X97939028Y-65507245D01*
X97872360Y-65473912D01*
X97869945Y-65473250D01*
X97869134Y-65472439D01*
X97861268Y-65470874D01*
X97853544Y-65468759D01*
X97852456Y-65469121D01*
X97850000Y-65468633D01*
X97583333Y-65468633D01*
X97564199Y-65472439D01*
X97537139Y-65499499D01*
X97533333Y-65518633D01*
X97300000Y-65518633D01*
X97296194Y-65499499D01*
X97269134Y-65472439D01*
X97230866Y-65472439D01*
X97203806Y-65499499D01*
X97200000Y-65518633D01*
X97200000Y-66030355D01*
X96893412Y-65493826D01*
X96880615Y-65479101D01*
X96873988Y-65477293D01*
X96869134Y-65472439D01*
X96856187Y-65472439D01*
X96843694Y-65469032D01*
X96837732Y-65472439D01*
X96830866Y-65472439D01*
X96821712Y-65481592D01*
X96810468Y-65488018D01*
X96808660Y-65494644D01*
X96803806Y-65499499D01*
X96800000Y-65518633D01*
X96722222Y-65518633D01*
X96722222Y-65390855D01*
X99373972Y-65390855D01*
X99373972Y-66346411D01*
G37*
D11*
X95238095Y-50254819D02*
X95238095Y-49254819D01*
X95238095Y-49731009D02*
X95809523Y-49731009D01*
X95809523Y-50254819D02*
X95809523Y-49254819D01*
X96238095Y-49350057D02*
X96285714Y-49302438D01*
X96285714Y-49302438D02*
X96380952Y-49254819D01*
X96380952Y-49254819D02*
X96619047Y-49254819D01*
X96619047Y-49254819D02*
X96714285Y-49302438D01*
X96714285Y-49302438D02*
X96761904Y-49350057D01*
X96761904Y-49350057D02*
X96809523Y-49445295D01*
X96809523Y-49445295D02*
X96809523Y-49540533D01*
X96809523Y-49540533D02*
X96761904Y-49683390D01*
X96761904Y-49683390D02*
X96190476Y-50254819D01*
X96190476Y-50254819D02*
X96809523Y-50254819D01*
X54114700Y-72071428D02*
X54114700Y-70928571D01*
D12*
%TO.C,R30*%
X90217017Y-95890000D02*
X90582983Y-95890000D01*
X90217017Y-99310000D02*
X90582983Y-99310000D01*
%TO.C,C22*%
X79812164Y-84840000D02*
X80027836Y-84840000D01*
X79812164Y-85560000D02*
X80027836Y-85560000D01*
%TO.C,J5*%
X72540000Y-55240000D02*
X72540000Y-56490000D01*
X72840000Y-55540000D02*
X72840000Y-60260000D01*
X72840000Y-56850000D02*
X73450000Y-56850000D01*
X72840000Y-58150000D02*
X73450000Y-58150000D01*
X72840000Y-60260000D02*
X82960000Y-60260000D01*
X73450000Y-56150000D02*
X73450000Y-59650000D01*
X73450000Y-59650000D02*
X82350000Y-59650000D01*
X73790000Y-55240000D02*
X72540000Y-55240000D01*
X74300000Y-55340000D02*
X74300000Y-55540000D01*
X74600000Y-55340000D02*
X74300000Y-55340000D01*
X74600000Y-55440000D02*
X74300000Y-55440000D01*
X74600000Y-55540000D02*
X74600000Y-55340000D01*
X75400000Y-55540000D02*
X75400000Y-56150000D01*
X75400000Y-56150000D02*
X73450000Y-56150000D01*
X75800000Y-59150000D02*
X76000000Y-59150000D01*
X75800000Y-59650000D02*
X75800000Y-59150000D01*
X75900000Y-59650000D02*
X75900000Y-59150000D01*
X76000000Y-59150000D02*
X76000000Y-59650000D01*
X77800000Y-59150000D02*
X78000000Y-59150000D01*
X77800000Y-59650000D02*
X77800000Y-59150000D01*
X77900000Y-59650000D02*
X77900000Y-59150000D01*
X78000000Y-59150000D02*
X78000000Y-59650000D01*
X79800000Y-59150000D02*
X80000000Y-59150000D01*
X79800000Y-59650000D02*
X79800000Y-59150000D01*
X79900000Y-59650000D02*
X79900000Y-59150000D01*
X80000000Y-59150000D02*
X80000000Y-59650000D01*
X80400000Y-56150000D02*
X80400000Y-55540000D01*
X82350000Y-56150000D02*
X80400000Y-56150000D01*
X82350000Y-59650000D02*
X82350000Y-56150000D01*
X82960000Y-55540000D02*
X72840000Y-55540000D01*
X82960000Y-56850000D02*
X82350000Y-56850000D01*
X82960000Y-58150000D02*
X82350000Y-58150000D01*
X82960000Y-60260000D02*
X82960000Y-55540000D01*
%TO.C,D2*%
X92500000Y-86350000D02*
X92500000Y-91850000D01*
X92500000Y-86350000D02*
X99500000Y-86350000D01*
X92500000Y-91850000D02*
X99050000Y-91850000D01*
X93300000Y-90000000D02*
X93300000Y-88200000D01*
X98700000Y-90000000D02*
X98700000Y-88200000D01*
X99050000Y-91850000D02*
X99500000Y-91400000D01*
X99500000Y-91400000D02*
X99500000Y-86350000D01*
%TO.C,J1*%
X68400000Y-93250000D02*
X68400000Y-94500000D01*
X68690000Y-93540000D02*
X68690000Y-99510000D01*
X68690000Y-99510000D02*
X81310000Y-99510000D01*
X68700000Y-93550000D02*
X68700000Y-94300000D01*
X68700000Y-94300000D02*
X70500000Y-94300000D01*
X68700000Y-95800000D02*
X69450000Y-95800000D01*
X69450000Y-95800000D02*
X69450000Y-98750000D01*
X69450000Y-98750000D02*
X75000000Y-98750000D01*
X69650000Y-93250000D02*
X68400000Y-93250000D01*
X70500000Y-93550000D02*
X68700000Y-93550000D01*
X70500000Y-94300000D02*
X70500000Y-93550000D01*
X72000000Y-93550000D02*
X72000000Y-94300000D01*
X72000000Y-94300000D02*
X78000000Y-94300000D01*
X78000000Y-93550000D02*
X72000000Y-93550000D01*
X78000000Y-94300000D02*
X78000000Y-93550000D01*
X79500000Y-93550000D02*
X79500000Y-94300000D01*
X79500000Y-94300000D02*
X81300000Y-94300000D01*
X80550000Y-95800000D02*
X80550000Y-98750000D01*
X80550000Y-98750000D02*
X75000000Y-98750000D01*
X81300000Y-93550000D02*
X79500000Y-93550000D01*
X81300000Y-94300000D02*
X81300000Y-93550000D01*
X81300000Y-95800000D02*
X80550000Y-95800000D01*
X81310000Y-93540000D02*
X68690000Y-93540000D01*
X81310000Y-99510000D02*
X81310000Y-93540000D01*
%TO.C,R25*%
X70020000Y-74863641D02*
X70020000Y-74556359D01*
X70780000Y-74863641D02*
X70780000Y-74556359D01*
%TO.C,TP6*%
X72000000Y-56100000D02*
G75*
G02*
X70600000Y-56100000I-700000J0D01*
G01*
X70600000Y-56100000D02*
G75*
G02*
X72000000Y-56100000I700000J0D01*
G01*
%TO.C,C27*%
X59707836Y-86740000D02*
X59492164Y-86740000D01*
X59707836Y-87460000D02*
X59492164Y-87460000D01*
%TO.C,C30*%
X57240000Y-72040000D02*
X61090000Y-72040000D01*
X57240000Y-81695563D02*
X57240000Y-72040000D01*
X58304437Y-82760000D02*
X57240000Y-81695563D01*
X58304437Y-82760000D02*
X61090000Y-82760000D01*
X59215000Y-83625000D02*
X60465000Y-83625000D01*
X59840000Y-84250000D02*
X59840000Y-83000000D01*
X66895563Y-82760000D02*
X64110000Y-82760000D01*
X66895563Y-82760000D02*
X67960000Y-81695563D01*
X67960000Y-72040000D02*
X64110000Y-72040000D01*
X67960000Y-81695563D02*
X67960000Y-72040000D01*
%TO.C,U4*%
X72390000Y-84065000D02*
X72390000Y-83830000D01*
X72390000Y-88810000D02*
X72390000Y-88335000D01*
X72865000Y-83590000D02*
X72690000Y-83590000D01*
X72865000Y-88810000D02*
X72390000Y-88810000D01*
X77135000Y-83590000D02*
X77610000Y-83590000D01*
X77135000Y-88810000D02*
X77610000Y-88810000D01*
X77610000Y-83590000D02*
X77610000Y-84065000D01*
X77610000Y-88810000D02*
X77610000Y-88335000D01*
X72390000Y-83590000D02*
X72150000Y-83260000D01*
X72630000Y-83260000D01*
X72390000Y-83590000D01*
G36*
X72390000Y-83590000D02*
G01*
X72150000Y-83260000D01*
X72630000Y-83260000D01*
X72390000Y-83590000D01*
G37*
%TO.C,U1*%
X75890000Y-63250000D02*
X75890000Y-67010000D01*
X75890000Y-67010000D02*
X77150000Y-67010000D01*
X82710000Y-63250000D02*
X82710000Y-67010000D01*
X82710000Y-67010000D02*
X81450000Y-67010000D01*
X82940000Y-62210000D02*
X82610000Y-61970000D01*
X82940000Y-61730000D01*
X82940000Y-62210000D01*
G36*
X82940000Y-62210000D02*
G01*
X82610000Y-61970000D01*
X82940000Y-61730000D01*
X82940000Y-62210000D01*
G37*
%TO.C,R6*%
X55853641Y-62420000D02*
X55546359Y-62420000D01*
X55853641Y-63180000D02*
X55546359Y-63180000D01*
%TO.C,C31*%
X91612164Y-68740000D02*
X91827836Y-68740000D01*
X91612164Y-69460000D02*
X91827836Y-69460000D01*
D13*
%TO.C,SW5*%
X96120400Y-63267330D02*
X96120400Y-59732670D01*
X99879600Y-59732670D02*
X99879600Y-60128400D01*
X99879600Y-60128400D02*
X100768600Y-60128400D01*
X99879600Y-62871600D02*
X99879600Y-63267330D01*
X100768600Y-60128400D02*
X100768600Y-62871600D01*
X100768600Y-62871600D02*
X99879600Y-62871600D01*
D12*
%TO.C,C19*%
X95040000Y-61607836D02*
X95040000Y-61392164D01*
X95760000Y-61607836D02*
X95760000Y-61392164D01*
%TO.C,R16*%
X66820000Y-58463641D02*
X66820000Y-58156359D01*
X67580000Y-58463641D02*
X67580000Y-58156359D01*
%TO.C,D4*%
X70010000Y-64250000D02*
X64500000Y-64250000D01*
X70010000Y-67550000D02*
X64500000Y-67550000D01*
X70010000Y-67550000D02*
X70010000Y-64250000D01*
%TO.C,U5*%
X88700000Y-73440000D02*
X87900000Y-73440000D01*
X88700000Y-73440000D02*
X89500000Y-73440000D01*
X88700000Y-76560000D02*
X87900000Y-76560000D01*
X88700000Y-76560000D02*
X89500000Y-76560000D01*
X87400000Y-73490000D02*
X87160000Y-73160000D01*
X87640000Y-73160000D01*
X87400000Y-73490000D01*
G36*
X87400000Y-73490000D02*
G01*
X87160000Y-73160000D01*
X87640000Y-73160000D01*
X87400000Y-73490000D01*
G37*
%TO.C,R18*%
X59446359Y-85720000D02*
X59753641Y-85720000D01*
X59446359Y-86480000D02*
X59753641Y-86480000D01*
%TO.C,R29*%
X90217017Y-91890000D02*
X90582983Y-91890000D01*
X90217017Y-95310000D02*
X90582983Y-95310000D01*
%TO.C,TP3*%
X66200000Y-56100000D02*
G75*
G02*
X64800000Y-56100000I-700000J0D01*
G01*
X64800000Y-56100000D02*
G75*
G02*
X66200000Y-56100000I700000J0D01*
G01*
%TO.C,C9*%
X59607836Y-54240000D02*
X59392164Y-54240000D01*
X59607836Y-54960000D02*
X59392164Y-54960000D01*
%TO.C,R22*%
X77543641Y-89420000D02*
X77236359Y-89420000D01*
X77543641Y-90180000D02*
X77236359Y-90180000D01*
D10*
%TO.C,Q4*%
X81725000Y-93725000D02*
X81725000Y-94725000D01*
X81725000Y-93725000D02*
X82725000Y-93725000D01*
X81725000Y-99875000D02*
X81725000Y-98875000D01*
X81725000Y-99875000D02*
X82725000Y-99875000D01*
X88875000Y-93725000D02*
X87875000Y-93725000D01*
X88875000Y-93725000D02*
X88875000Y-94725000D01*
X88875000Y-99875000D02*
X87875000Y-99875000D01*
X88875000Y-99875000D02*
X88875000Y-98875000D01*
D12*
%TO.C,C4*%
X80072164Y-72140000D02*
X80287836Y-72140000D01*
X80072164Y-72860000D02*
X80287836Y-72860000D01*
%TO.C,C1*%
X70040000Y-72672164D02*
X70040000Y-72887836D01*
X70760000Y-72672164D02*
X70760000Y-72887836D01*
%TO.C,R27*%
X90553641Y-85720000D02*
X90246359Y-85720000D01*
X90553641Y-86480000D02*
X90246359Y-86480000D01*
%TO.C,D5*%
X56065000Y-57812500D02*
X56065000Y-60097500D01*
X56065000Y-60097500D02*
X57535000Y-60097500D01*
X57535000Y-60097500D02*
X57535000Y-57812500D01*
%TO.C,D9*%
X67665000Y-57812500D02*
X67665000Y-60097500D01*
X67665000Y-60097500D02*
X69135000Y-60097500D01*
X69135000Y-60097500D02*
X69135000Y-57812500D01*
%TO.C,C21*%
X72640580Y-90490000D02*
X72359420Y-90490000D01*
X72640580Y-91510000D02*
X72359420Y-91510000D01*
%TO.C,R10*%
X77746359Y-54220000D02*
X78053641Y-54220000D01*
X77746359Y-54980000D02*
X78053641Y-54980000D01*
%TO.C,C20*%
X72907836Y-89440000D02*
X72692164Y-89440000D01*
X72907836Y-90160000D02*
X72692164Y-90160000D01*
%TO.C,C24*%
X77407836Y-82240000D02*
X77192164Y-82240000D01*
X77407836Y-82960000D02*
X77192164Y-82960000D01*
%TO.C,C23*%
X74792164Y-81640000D02*
X75007836Y-81640000D01*
X74792164Y-82360000D02*
X75007836Y-82360000D01*
%TO.C,C5*%
X71907836Y-69940000D02*
X71692164Y-69940000D01*
X71907836Y-70660000D02*
X71692164Y-70660000D01*
%TO.C,C15*%
X91540000Y-81192164D02*
X91540000Y-81407836D01*
X92260000Y-81192164D02*
X92260000Y-81407836D01*
%TO.C,C28*%
X86011252Y-85390000D02*
X84588748Y-85390000D01*
X86011252Y-87210000D02*
X84588748Y-87210000D01*
%TO.C,C26*%
X63988748Y-85390000D02*
X65411252Y-85390000D01*
X63988748Y-87210000D02*
X65411252Y-87210000D01*
%TO.C,J2*%
X83895000Y-56935000D02*
X83895000Y-60465000D01*
X83960000Y-56935000D02*
X83895000Y-56935000D01*
X83960000Y-60465000D02*
X83895000Y-60465000D01*
X92840000Y-55610000D02*
X92840000Y-56935000D01*
X92905000Y-56935000D02*
X92840000Y-56935000D01*
X92905000Y-56935000D02*
X92905000Y-60465000D01*
X92905000Y-60465000D02*
X92840000Y-60465000D01*
%TO.C,R11*%
X83446359Y-53520000D02*
X83753641Y-53520000D01*
X83446359Y-54280000D02*
X83753641Y-54280000D01*
%TO.C,C2*%
X76272164Y-79240000D02*
X76487836Y-79240000D01*
X76272164Y-79960000D02*
X76487836Y-79960000D01*
%TO.C,TP5*%
X69100000Y-56100000D02*
G75*
G02*
X67700000Y-56100000I-700000J0D01*
G01*
X67700000Y-56100000D02*
G75*
G02*
X69100000Y-56100000I700000J0D01*
G01*
%TO.C,C16*%
X91540000Y-86512164D02*
X91540000Y-86727836D01*
X92260000Y-86512164D02*
X92260000Y-86727836D01*
%TO.C,R28*%
X90217017Y-87890000D02*
X90582983Y-87890000D01*
X90217017Y-91310000D02*
X90582983Y-91310000D01*
%TO.C,C7*%
X55036252Y-67740000D02*
X53613748Y-67740000D01*
X55036252Y-70460000D02*
X53613748Y-70460000D01*
%TO.C,TP1*%
X54800000Y-58600000D02*
G75*
G02*
X53400000Y-58600000I-700000J0D01*
G01*
X53400000Y-58600000D02*
G75*
G02*
X54800000Y-58600000I700000J0D01*
G01*
%TO.C,J3*%
X94200000Y-70300000D02*
X96200000Y-70300000D01*
X94200000Y-79700000D02*
X96200000Y-79700000D01*
X98100000Y-70300000D02*
X100000000Y-70300000D01*
X98100000Y-79700000D02*
X100000000Y-79700000D01*
X100000000Y-79700000D02*
X100000000Y-70300000D01*
D13*
%TO.C,SW1*%
X59532670Y-50120400D02*
X59928400Y-50120400D01*
X59928400Y-49231400D02*
X62671600Y-49231400D01*
X59928400Y-50120400D02*
X59928400Y-49231400D01*
X62671600Y-49231400D02*
X62671600Y-50120400D01*
X62671600Y-50120400D02*
X63067330Y-50120400D01*
X63067330Y-53879600D02*
X59532670Y-53879600D01*
D12*
%TO.C,U3*%
X71390000Y-71865000D02*
X71390000Y-71630000D01*
X71390000Y-78610000D02*
X71390000Y-78135000D01*
X71865000Y-71390000D02*
X71690000Y-71390000D01*
X71865000Y-78610000D02*
X71390000Y-78610000D01*
X78135000Y-71390000D02*
X78610000Y-71390000D01*
X78135000Y-78610000D02*
X78610000Y-78610000D01*
X78610000Y-71390000D02*
X78610000Y-71865000D01*
X78610000Y-78610000D02*
X78610000Y-78135000D01*
X71390000Y-71390000D02*
X71150000Y-71060000D01*
X71630000Y-71060000D01*
X71390000Y-71390000D01*
G36*
X71390000Y-71390000D02*
G01*
X71150000Y-71060000D01*
X71630000Y-71060000D01*
X71390000Y-71390000D01*
G37*
%TO.C,D8*%
X61865000Y-57800000D02*
X61865000Y-60085000D01*
X61865000Y-60085000D02*
X63335000Y-60085000D01*
X63335000Y-60085000D02*
X63335000Y-57800000D01*
%TO.C,R9*%
X79646359Y-54220000D02*
X79953641Y-54220000D01*
X79646359Y-54980000D02*
X79953641Y-54980000D01*
%TO.C,R20*%
X59782983Y-91890000D02*
X59417017Y-91890000D01*
X59782983Y-95310000D02*
X59417017Y-95310000D01*
%TO.C,R26*%
X69020000Y-74853641D02*
X69020000Y-74546359D01*
X69780000Y-74853641D02*
X69780000Y-74546359D01*
%TO.C,D11*%
X70250000Y-60690000D02*
X70250000Y-66200000D01*
X73550000Y-60690000D02*
X70250000Y-60690000D01*
X73550000Y-60690000D02*
X73550000Y-66200000D01*
%TO.C,R14*%
X63920000Y-58463641D02*
X63920000Y-58156359D01*
X64680000Y-58463641D02*
X64680000Y-58156359D01*
%TO.C,R19*%
X59782983Y-87890000D02*
X59417017Y-87890000D01*
X59782983Y-91310000D02*
X59417017Y-91310000D01*
%TO.C,C13*%
X73965000Y-65711252D02*
X73965000Y-65188748D01*
X75435000Y-65711252D02*
X75435000Y-65188748D01*
%TO.C,R21*%
X59782983Y-95890000D02*
X59417017Y-95890000D01*
X59782983Y-99310000D02*
X59417017Y-99310000D01*
D13*
%TO.C,SW2*%
X67832670Y-50120400D02*
X68228400Y-50120400D01*
X68228400Y-49231400D02*
X70971600Y-49231400D01*
X68228400Y-50120400D02*
X68228400Y-49231400D01*
X70971600Y-49231400D02*
X70971600Y-50120400D01*
X70971600Y-50120400D02*
X71367330Y-50120400D01*
X71367330Y-53879600D02*
X67832670Y-53879600D01*
D12*
%TO.C,R13*%
X58120000Y-58451141D02*
X58120000Y-58143859D01*
X58880000Y-58451141D02*
X58880000Y-58143859D01*
%TO.C,R5*%
X55546359Y-61420000D02*
X55853641Y-61420000D01*
X55546359Y-62180000D02*
X55853641Y-62180000D01*
%TO.C,D7*%
X64765000Y-57812500D02*
X64765000Y-60097500D01*
X64765000Y-60097500D02*
X66235000Y-60097500D01*
X66235000Y-60097500D02*
X66235000Y-57812500D01*
%TO.C,TP4*%
X63300000Y-56100000D02*
G75*
G02*
X61900000Y-56100000I-700000J0D01*
G01*
X61900000Y-56100000D02*
G75*
G02*
X63300000Y-56100000I700000J0D01*
G01*
%TO.C,R8*%
X79946359Y-76370000D02*
X80253641Y-76370000D01*
X79946359Y-77130000D02*
X80253641Y-77130000D01*
%TO.C,D6*%
X58965000Y-57800000D02*
X58965000Y-60085000D01*
X58965000Y-60085000D02*
X60435000Y-60085000D01*
X60435000Y-60085000D02*
X60435000Y-57800000D01*
%TO.C,C12*%
X74390000Y-62059420D02*
X74390000Y-62340580D01*
X75410000Y-62059420D02*
X75410000Y-62340580D01*
%TO.C,J4*%
X51290000Y-74490000D02*
X51290000Y-83210000D01*
X52590000Y-72790000D02*
X51290000Y-74490000D01*
X55410000Y-72790000D02*
X52590000Y-72790000D01*
X55410000Y-72790000D02*
X56710000Y-74490000D01*
X56710000Y-74490000D02*
X56710000Y-83210000D01*
X56710000Y-83210000D02*
X51290000Y-83210000D01*
%TO.C,R17*%
X69720000Y-58463641D02*
X69720000Y-58156359D01*
X70480000Y-58463641D02*
X70480000Y-58156359D01*
%TO.C,D12*%
X70010000Y-60750000D02*
X64500000Y-60750000D01*
X70010000Y-64050000D02*
X64500000Y-64050000D01*
X70010000Y-64050000D02*
X70010000Y-60750000D01*
D13*
%TO.C,SW3*%
X86632670Y-50120400D02*
X87028400Y-50120400D01*
X87028400Y-49231400D02*
X89771600Y-49231400D01*
X87028400Y-50120400D02*
X87028400Y-49231400D01*
X89771600Y-49231400D02*
X89771600Y-50120400D01*
X89771600Y-50120400D02*
X90167330Y-50120400D01*
X90167330Y-53879600D02*
X86632670Y-53879600D01*
D12*
%TO.C,C29*%
X90292164Y-86740000D02*
X90507836Y-86740000D01*
X90292164Y-87460000D02*
X90507836Y-87460000D01*
D13*
%TO.C,SW4*%
X76132670Y-50120400D02*
X76528400Y-50120400D01*
X76528400Y-49231400D02*
X79271600Y-49231400D01*
X76528400Y-50120400D02*
X76528400Y-49231400D01*
X79271600Y-49231400D02*
X79271600Y-50120400D01*
X79271600Y-50120400D02*
X79667330Y-50120400D01*
X79667330Y-53879600D02*
X76132670Y-53879600D01*
D12*
%TO.C,D10*%
X70565000Y-57812500D02*
X70565000Y-60097500D01*
X70565000Y-60097500D02*
X72035000Y-60097500D01*
X72035000Y-60097500D02*
X72035000Y-57812500D01*
%TO.C,C3*%
X78327836Y-79240000D02*
X78112164Y-79240000D01*
X78327836Y-79960000D02*
X78112164Y-79960000D01*
%TO.C,R15*%
X61020000Y-58451141D02*
X61020000Y-58143859D01*
X61780000Y-58451141D02*
X61780000Y-58143859D01*
%TO.C,R1*%
X63146359Y-54220000D02*
X63453641Y-54220000D01*
X63146359Y-54980000D02*
X63453641Y-54980000D01*
%TO.C,C14*%
X55807836Y-63440000D02*
X55592164Y-63440000D01*
X55807836Y-64160000D02*
X55592164Y-64160000D01*
%TO.C,R7*%
X55853641Y-60420000D02*
X55546359Y-60420000D01*
X55853641Y-61180000D02*
X55546359Y-61180000D01*
%TO.C,D1*%
X92500000Y-80550000D02*
X92500000Y-86050000D01*
X92500000Y-80550000D02*
X99500000Y-80550000D01*
X92500000Y-86050000D02*
X99050000Y-86050000D01*
X93300000Y-84200000D02*
X93300000Y-82400000D01*
X98700000Y-84200000D02*
X98700000Y-82400000D01*
X99050000Y-86050000D02*
X99500000Y-85600000D01*
X99500000Y-85600000D02*
X99500000Y-80550000D01*
D10*
%TO.C,Q3*%
X81725000Y-87425000D02*
X81725000Y-88425000D01*
X81725000Y-87425000D02*
X82725000Y-87425000D01*
X81725000Y-93575000D02*
X81725000Y-92575000D01*
X81725000Y-93575000D02*
X82725000Y-93575000D01*
X88875000Y-87425000D02*
X87875000Y-87425000D01*
X88875000Y-87425000D02*
X88875000Y-88425000D01*
X88875000Y-93575000D02*
X87875000Y-93575000D01*
X88875000Y-93575000D02*
X88875000Y-92575000D01*
D12*
%TO.C,R2*%
X71346359Y-54220000D02*
X71653641Y-54220000D01*
X71346359Y-54980000D02*
X71653641Y-54980000D01*
D10*
%TO.C,Q2*%
X61125000Y-87325000D02*
X61125000Y-88325000D01*
X61125000Y-87325000D02*
X62125000Y-87325000D01*
X61125000Y-93475000D02*
X61125000Y-92475000D01*
X61125000Y-93475000D02*
X62125000Y-93475000D01*
X68275000Y-87325000D02*
X67275000Y-87325000D01*
X68275000Y-87325000D02*
X68275000Y-88325000D01*
X68275000Y-93475000D02*
X67275000Y-93475000D01*
X68275000Y-93475000D02*
X68275000Y-92475000D01*
D12*
%TO.C,C8*%
X55036252Y-64540000D02*
X53613748Y-64540000D01*
X55036252Y-67260000D02*
X53613748Y-67260000D01*
%TO.C,R24*%
X89953641Y-72420000D02*
X89646359Y-72420000D01*
X89953641Y-73180000D02*
X89646359Y-73180000D01*
%TO.C,TP2*%
X60400000Y-56100000D02*
G75*
G02*
X59000000Y-56100000I-700000J0D01*
G01*
X59000000Y-56100000D02*
G75*
G02*
X60400000Y-56100000I700000J0D01*
G01*
%TO.C,JP1*%
X84950000Y-68900000D02*
X90450000Y-68900000D01*
X84950000Y-70850000D02*
X84950000Y-68900000D01*
X86000000Y-71400000D02*
X86600000Y-71400000D01*
X86300000Y-71100000D02*
X86000000Y-71400000D01*
X86600000Y-71400000D02*
X86300000Y-71100000D01*
X90450000Y-68900000D02*
X90450000Y-70850000D01*
X90450000Y-70850000D02*
X84950000Y-70850000D01*
%TO.C,C11*%
X64438748Y-67965000D02*
X64961252Y-67965000D01*
X64438748Y-69435000D02*
X64961252Y-69435000D01*
%TO.C,U2*%
D14*
X56700000Y-60500000D02*
X62900000Y-60500000D01*
X62900000Y-70700000D01*
X56700000Y-70700000D01*
X56700000Y-60500000D01*
D15*
X56462500Y-60900000D02*
G75*
G02*
X56337500Y-60900000I-62500J0D01*
G01*
X56337500Y-60900000D02*
G75*
G02*
X56462500Y-60900000I62500J0D01*
G01*
D12*
%TO.C,C25*%
X80288748Y-82590000D02*
X81711252Y-82590000D01*
X80288748Y-84410000D02*
X81711252Y-84410000D01*
%TO.C,R4*%
X69446359Y-54220000D02*
X69753641Y-54220000D01*
X69446359Y-54980000D02*
X69753641Y-54980000D01*
D10*
%TO.C,Q1*%
X61125000Y-93725000D02*
X61125000Y-94725000D01*
X61125000Y-93725000D02*
X62125000Y-93725000D01*
X61125000Y-99875000D02*
X61125000Y-98875000D01*
X61125000Y-99875000D02*
X62125000Y-99875000D01*
X68275000Y-93725000D02*
X67275000Y-93725000D01*
X68275000Y-93725000D02*
X68275000Y-94725000D01*
X68275000Y-99875000D02*
X67275000Y-99875000D01*
X68275000Y-99875000D02*
X68275000Y-98875000D01*
D12*
%TO.C,R3*%
X61246359Y-54220000D02*
X61553641Y-54220000D01*
X61246359Y-54980000D02*
X61553641Y-54980000D01*
%TO.C,D13*%
X68165000Y-76400000D02*
X68165000Y-78685000D01*
X68165000Y-78685000D02*
X69635000Y-78685000D01*
X69635000Y-78685000D02*
X69635000Y-76400000D01*
%TO.C,R12*%
X55220000Y-58463641D02*
X55220000Y-58156359D01*
X55980000Y-58463641D02*
X55980000Y-58156359D01*
%TO.C,C6*%
X71907836Y-68940000D02*
X71692164Y-68940000D01*
X71907836Y-69660000D02*
X71692164Y-69660000D01*
%TO.C,C18*%
X76127836Y-54240000D02*
X75912164Y-54240000D01*
X76127836Y-54960000D02*
X75912164Y-54960000D01*
%TO.C,R23*%
X89646359Y-76820000D02*
X89953641Y-76820000D01*
X89646359Y-77580000D02*
X89953641Y-77580000D01*
%TO.C,C10*%
X67807836Y-54240000D02*
X67592164Y-54240000D01*
X67807836Y-54960000D02*
X67592164Y-54960000D01*
%TO.C,J6*%
X83040000Y-63140000D02*
X83040000Y-64390000D01*
X83340000Y-63440000D02*
X83340000Y-68160000D01*
X83340000Y-64750000D02*
X83950000Y-64750000D01*
X83340000Y-66050000D02*
X83950000Y-66050000D01*
X83340000Y-68160000D02*
X95460000Y-68160000D01*
X83950000Y-64050000D02*
X83950000Y-67550000D01*
X83950000Y-67550000D02*
X94850000Y-67550000D01*
X84290000Y-63140000D02*
X83040000Y-63140000D01*
X84800000Y-63240000D02*
X84800000Y-63440000D01*
X85100000Y-63240000D02*
X84800000Y-63240000D01*
X85100000Y-63340000D02*
X84800000Y-63340000D01*
X85100000Y-63440000D02*
X85100000Y-63240000D01*
X85900000Y-63440000D02*
X85900000Y-64050000D01*
X85900000Y-64050000D02*
X83950000Y-64050000D01*
X86300000Y-67050000D02*
X86500000Y-67050000D01*
X86300000Y-67550000D02*
X86300000Y-67050000D01*
X86400000Y-67550000D02*
X86400000Y-67050000D01*
X86500000Y-67050000D02*
X86500000Y-67550000D01*
X88300000Y-67050000D02*
X88500000Y-67050000D01*
X88300000Y-67550000D02*
X88300000Y-67050000D01*
X88400000Y-67550000D02*
X88400000Y-67050000D01*
X88500000Y-67050000D02*
X88500000Y-67550000D01*
X90300000Y-67050000D02*
X90500000Y-67050000D01*
X90300000Y-67550000D02*
X90300000Y-67050000D01*
X90400000Y-67550000D02*
X90400000Y-67050000D01*
X90500000Y-67050000D02*
X90500000Y-67550000D01*
X92300000Y-67050000D02*
X92500000Y-67050000D01*
X92300000Y-67550000D02*
X92300000Y-67050000D01*
X92400000Y-67550000D02*
X92400000Y-67050000D01*
X92500000Y-67050000D02*
X92500000Y-67550000D01*
X92900000Y-64050000D02*
X92900000Y-63440000D01*
X94850000Y-64050000D02*
X92900000Y-64050000D01*
X94850000Y-67550000D02*
X94850000Y-64050000D01*
X95460000Y-63440000D02*
X83340000Y-63440000D01*
X95460000Y-64750000D02*
X94850000Y-64750000D01*
X95460000Y-66050000D02*
X94850000Y-66050000D01*
X95460000Y-68160000D02*
X95460000Y-63440000D01*
%TD*%
M02*
