M48
; DRILL file {KiCad 9.0.1-9.0.1-0~ubuntu22.04.1} date 2025-04-08T13:36:14+0200
; FORMAT={-:-/ absolute / metric / decimal}
; #@! TF.CreationDate,2025-04-08T13:36:14+02:00
; #@! TF.GenerationSoftware,Kicad,Pcbnew,9.0.1-9.0.1-0~ubuntu22.04.1
; #@! TF.FileFunction,Plated,1,4,PTH
FMAT,2
METRIC
; #@! TA.AperFunction,Plated,PTH,ViaDrill
T1C0.300
; #@! TA.AperFunction,Plated,PTH,ComponentDrill
T2C0.500
; #@! TA.AperFunction,Plated,PTH,ComponentDrill
T3C0.600
; #@! TA.AperFunction,Plated,PTH,ComponentDrill
T4C0.750
; #@! TA.AperFunction,Plated,PTH,ComponentDrill
T5C0.950
; #@! TA.AperFunction,Plated,PTH,ComponentDrill
T6C2.700
; #@! TA.AperFunction,Plated,PTH,ComponentDrill
T7C3.200
%
G90
G05
T1
X51.3Y-75.5
X52.0Y-65.9
X52.0Y-69.1
X52.85Y-67.4
X54.0Y-72.8
X54.5Y-60.8
X54.5Y-62.8
X54.5Y-63.8
X54.6Y-61.8
X54.8Y-58.2
X54.8Y-64.7
X55.6Y-57.3
X55.8Y-65.9
X55.8Y-65.9
X55.8Y-65.9
X55.8Y-65.9
X55.8Y-66.7
X55.8Y-67.5
X55.8Y-68.3
X55.8Y-69.1
X55.8Y-69.1
X55.8Y-69.1
X56.6Y-75.5
X56.7Y-65.7
X56.8Y-57.0
X57.1Y-66.7
X57.9Y-89.6
X57.9Y-93.6
X57.9Y-97.6
X58.05Y-60.05
X58.35Y-52.0
X58.4Y-54.6
X58.4Y-86.1
X58.4Y-87.1
X58.45Y-61.85
X58.5Y-57.2
X58.85Y-91.6
X58.85Y-95.6
X59.0Y-65.35
X59.8Y-61.35
X59.8Y-63.7
X60.4Y-57.1
X60.6Y-73.2
X61.05Y-61.85
X61.25Y-59.9
X61.35Y-89.8
X61.35Y-92.306
X61.35Y-98.7
X61.38Y-96.103
X61.4Y-57.2
X61.4Y-91.05
X61.4Y-97.45
X61.5Y-64.7
X62.3Y-86.3
X62.6Y-73.2
X62.6Y-76.15
X62.665Y-91.035
X62.665Y-97.435
X63.1Y-90.6
X63.1Y-97.0
X63.35Y-60.8
X63.45Y-55.142
X64.15Y-60.35
X64.3Y-57.2
X64.65Y-73.2
X65.7Y-70.2
X66.6Y-54.6
X66.65Y-52.0
X66.9Y-68.7
X67.1Y-86.3
X67.2Y-57.2
X68.4Y-57.01
X68.49Y-64.16
X68.573Y-87.613
X68.7Y-74.7
X68.9Y-78.8
X69.348Y-87.348
X69.7Y-73.3
X70.1Y-57.2
X70.25Y-62.4
X70.4Y-71.6
X70.6Y-88.9
X70.62Y-76.909
X70.625Y-77.709
X70.7Y-69.3
X70.7Y-70.3
X71.0Y-91.0
X71.076Y-85.87
X71.09Y-87.53
X71.1Y-84.709
X71.3Y-57.0
X71.437Y-78.913
X71.7Y-85.37
X71.7Y-89.8
X71.737Y-83.4
X71.737Y-84.088
X71.9Y-67.8
X72.2Y-55.3
X72.566Y-79.343
X72.612Y-80.142
X72.9Y-69.3
X72.9Y-70.3
X73.0Y-73.0
X73.0Y-74.0
X73.0Y-75.0
X73.0Y-76.0
X73.0Y-77.0
X73.33Y-79.58
X73.745Y-61.425
X73.98Y-81.5
X74.0Y-73.0
X74.0Y-74.0
X74.0Y-75.0
X74.0Y-76.0
X74.0Y-77.0
X74.0Y-85.2
X74.0Y-86.2
X74.0Y-87.2
X74.061Y-70.261
X74.283Y-91.1
X74.442Y-89.805
X74.491Y-79.52
X74.65Y-80.9
X74.8Y-63.7
X74.819Y-70.625
X74.9Y-54.6
X74.95Y-52.0
X75.0Y-73.0
X75.0Y-74.0
X75.0Y-75.0
X75.0Y-76.0
X75.0Y-77.0
X75.0Y-85.2
X75.0Y-86.2
X75.0Y-87.2
X75.175Y-90.128
X75.3Y-79.6
X75.67Y-89.5
X75.71Y-61.425
X75.72Y-69.91
X75.9Y-66.4
X76.0Y-73.0
X76.0Y-74.0
X76.0Y-75.0
X76.0Y-76.0
X76.0Y-77.0
X76.0Y-85.2
X76.0Y-86.2
X76.0Y-87.2
X76.04Y-82.591
X76.111Y-90.168
X76.4Y-80.915
X76.8Y-82.0
X77.0Y-73.0
X77.0Y-74.0
X77.0Y-75.0
X77.0Y-76.0
X77.0Y-77.0
X77.218Y-80.918
X78.2Y-88.4
X78.202Y-64.0
X78.3Y-82.6
X78.322Y-85.03
X78.375Y-78.815
X78.59Y-89.8
X78.7Y-83.5
X78.855Y-86.741
X78.959Y-88.653
X79.1Y-66.85
X79.25Y-60.65
X79.25Y-69.75
X79.3Y-63.45
X79.4Y-74.6
X79.4Y-75.4
X79.4Y-79.6
X79.652Y-86.804
X79.7Y-71.7
X80.0Y-88.8
X80.65Y-55.2
X80.7Y-71.7
X80.8Y-88.799
X81.0Y-75.9
X81.02Y-66.3
X81.12Y-85.2
X81.51Y-87.44
X81.6Y-60.5
X81.6Y-63.3
X81.7Y-72.1
X82.5Y-53.9
X82.7Y-74.6
X82.9Y-70.5
X82.9Y-86.3
X82.902Y-66.5
X82.902Y-69.5
X83.1Y-65.7
X83.5Y-83.5
X83.65Y-67.8
X84.1Y-54.6
X84.55Y-69.05
X84.9Y-55.0
X85.0Y-72.5
X85.1Y-74.7
X85.7Y-76.8
X85.86Y-55.1
X86.95Y-71.25
X87.05Y-89.2
X87.05Y-95.7
X87.1Y-77.0
X87.15Y-78.15
X87.365Y-89.865
X87.515Y-96.165
X87.7Y-71.65
X87.7Y-86.3
X88.4Y-55.1
X88.55Y-79.55
X88.6Y-72.8
X88.6Y-88.6
X88.65Y-89.85
X88.65Y-91.071
X88.65Y-94.894
X88.65Y-96.15
X88.65Y-97.4
X88.66Y-74.54
X88.703Y-75.602
X88.75Y-77.2
X89.67Y-55.1
X90.35Y-63.75
X90.6Y-69.9
X90.75Y-78.25
X90.8Y-71.75
X90.9Y-55.1
X90.9Y-85.5
X90.95Y-79.6
X91.15Y-91.6
X91.15Y-95.6
X91.2Y-80.8
X91.3Y-81.75
X91.9Y-85.4
X92.0Y-89.6
X92.0Y-93.6
X92.0Y-97.6
X92.2Y-87.85
X92.4Y-52.0
X93.05Y-69.1
X93.257Y-72.951
X93.263Y-77.03
X93.35Y-59.85
X93.35Y-75.95
X93.55Y-73.85
X94.6Y-85.9
X95.4Y-60.4
X96.3Y-66.0
X96.4Y-62.95
X97.2Y-86.45
X97.4Y-84.95
X97.45Y-90.75
X98.0Y-58.55
X98.45Y-83.85
X98.45Y-89.9
X99.1Y-66.75
X99.15Y-69.95
X99.15Y-79.3
T2
X51.6Y-54.0
X51.6Y-96.0
X52.303Y-52.303
X52.303Y-55.697
X52.303Y-94.303
X52.303Y-97.697
X54.0Y-51.6
X54.0Y-56.4
X54.0Y-93.6
X54.0Y-98.4
X55.697Y-52.303
X55.697Y-55.697
X55.697Y-94.303
X55.697Y-97.697
X56.4Y-54.0
X56.4Y-96.0
X93.6Y-54.0
X93.6Y-96.0
X94.303Y-52.303
X94.303Y-55.697
X94.303Y-94.303
X94.303Y-97.697
X96.0Y-51.6
X96.0Y-56.4
X96.0Y-93.6
X96.0Y-98.4
X97.697Y-52.303
X97.697Y-55.697
X97.697Y-94.303
X97.697Y-97.697
X98.4Y-54.0
X98.4Y-96.0
T4
X74.9Y-57.35
X76.9Y-57.35
X78.9Y-57.35
X80.9Y-57.35
X85.4Y-65.25
X87.4Y-65.25
X89.4Y-65.25
X91.4Y-65.25
X93.4Y-65.25
T5
X71.25Y-96.0
X73.75Y-96.0
X76.25Y-96.0
X78.75Y-96.0
T6
X54.0Y-75.5
X54.0Y-80.5
T7
X54.0Y-54.0
X54.0Y-96.0
X96.0Y-54.0
X96.0Y-96.0
T3
G00X92.42Y-70.68
M15
G01X93.52Y-70.68
M16
G05
G00X92.42Y-79.32
M15
G01X93.52Y-79.32
M16
G05
G00X96.85Y-70.68
M15
G01X97.45Y-70.68
M16
G05
G00X96.85Y-79.32
M15
G01X97.45Y-79.32
M16
G05
M30
