%TF.GenerationSoftware,KiCad,Pcbnew,9.0.1-9.0.1-0~ubuntu22.04.1*%
%TF.CreationDate,2025-04-08T13:36:12+02:00*%
%TF.ProjectId,TMC262_Stepper_Driver,544d4332-3632-45f5-9374-65707065725f,rev?*%
%TF.SameCoordinates,Original*%
%TF.FileFunction,Paste,Top*%
%TF.FilePolarity,Positive*%
%FSLAX46Y46*%
G04 Gerber Fmt 4.6, Leading zero omitted, Abs format (unit mm)*
G04 Created by KiCad (PCBNEW 9.0.1-9.0.1-0~ubuntu22.04.1) date 2025-04-08 13:36:12*
%MOMM*%
%LPD*%
G01*
G04 APERTURE LIST*
G04 Aperture macros list*
%AMRoundRect*
0 Rectangle with rounded corners*
0 $1 Rounding radius*
0 $2 $3 $4 $5 $6 $7 $8 $9 X,Y pos of 4 corners*
0 Add a 4 corners polygon primitive as box body*
4,1,4,$2,$3,$4,$5,$6,$7,$8,$9,$2,$3,0*
0 Add four circle primitives for the rounded corners*
1,1,$1+$1,$2,$3*
1,1,$1+$1,$4,$5*
1,1,$1+$1,$6,$7*
1,1,$1+$1,$8,$9*
0 Add four rect primitives between the rounded corners*
20,1,$1+$1,$2,$3,$4,$5,0*
20,1,$1+$1,$4,$5,$6,$7,0*
20,1,$1+$1,$6,$7,$8,$9,0*
20,1,$1+$1,$8,$9,$2,$3,0*%
G04 Aperture macros list end*
%ADD10RoundRect,0.250000X-0.250000X-1.450000X0.250000X-1.450000X0.250000X1.450000X-0.250000X1.450000X0*%
%ADD11RoundRect,0.140000X-0.140000X-0.170000X0.140000X-0.170000X0.140000X0.170000X-0.140000X0.170000X0*%
%ADD12RoundRect,0.090000X-0.660000X-0.360000X0.660000X-0.360000X0.660000X0.360000X-0.660000X0.360000X0*%
%ADD13RoundRect,0.135000X0.185000X-0.135000X0.185000X0.135000X-0.185000X0.135000X-0.185000X-0.135000X0*%
%ADD14RoundRect,0.140000X0.140000X0.170000X-0.140000X0.170000X-0.140000X-0.170000X0.140000X-0.170000X0*%
%ADD15RoundRect,0.250000X1.000000X-1.950000X1.000000X1.950000X-1.000000X1.950000X-1.000000X-1.950000X0*%
%ADD16RoundRect,0.232500X-0.232500X-0.232500X0.232500X-0.232500X0.232500X0.232500X-0.232500X0.232500X0*%
%ADD17RoundRect,0.062500X-0.375000X-0.062500X0.375000X-0.062500X0.375000X0.062500X-0.375000X0.062500X0*%
%ADD18RoundRect,0.062500X-0.062500X-0.375000X0.062500X-0.375000X0.062500X0.375000X-0.062500X0.375000X0*%
%ADD19RoundRect,0.375000X-0.375000X0.625000X-0.375000X-0.625000X0.375000X-0.625000X0.375000X0.625000X0*%
%ADD20RoundRect,0.500000X-1.400000X0.500000X-1.400000X-0.500000X1.400000X-0.500000X1.400000X0.500000X0*%
%ADD21RoundRect,0.135000X0.135000X0.185000X-0.135000X0.185000X-0.135000X-0.185000X0.135000X-0.185000X0*%
%ADD22R,3.708400X1.701800*%
%ADD23RoundRect,0.140000X0.170000X-0.140000X0.170000X0.140000X-0.170000X0.140000X-0.170000X-0.140000X0*%
%ADD24RoundRect,0.250000X1.000000X0.650000X-1.000000X0.650000X-1.000000X-0.650000X1.000000X-0.650000X0*%
%ADD25RoundRect,0.150000X-0.512500X-0.150000X0.512500X-0.150000X0.512500X0.150000X-0.512500X0.150000X0*%
%ADD26RoundRect,0.135000X-0.135000X-0.185000X0.135000X-0.185000X0.135000X0.185000X-0.135000X0.185000X0*%
%ADD27R,0.720000X0.410000*%
%ADD28R,0.510000X0.585000*%
%ADD29R,0.410000X0.470000*%
%ADD30R,3.990000X1.730000*%
%ADD31RoundRect,0.140000X-0.170000X0.140000X-0.170000X-0.140000X0.170000X-0.140000X0.170000X0.140000X0*%
%ADD32RoundRect,0.218750X0.256250X-0.218750X0.256250X0.218750X-0.256250X0.218750X-0.256250X-0.218750X0*%
%ADD33RoundRect,0.225000X0.225000X0.250000X-0.225000X0.250000X-0.225000X-0.250000X0.225000X-0.250000X0*%
%ADD34RoundRect,0.250000X0.325000X0.650000X-0.325000X0.650000X-0.325000X-0.650000X0.325000X-0.650000X0*%
%ADD35RoundRect,0.250000X-0.325000X-0.650000X0.325000X-0.650000X0.325000X0.650000X-0.325000X0.650000X0*%
%ADD36R,0.740000X2.400000*%
%ADD37RoundRect,0.250000X0.325000X1.100000X-0.325000X1.100000X-0.325000X-1.100000X0.325000X-1.100000X0*%
%ADD38R,1.450000X0.600000*%
%ADD39R,1.450000X0.300000*%
%ADD40R,1.701800X3.708400*%
%ADD41RoundRect,0.250000X-0.315000X-0.315000X0.315000X-0.315000X0.315000X0.315000X-0.315000X0.315000X0*%
%ADD42RoundRect,0.250000X0.250000X1.450000X-0.250000X1.450000X-0.250000X-1.450000X0.250000X-1.450000X0*%
%ADD43RoundRect,0.250000X-0.650000X1.000000X-0.650000X-1.000000X0.650000X-1.000000X0.650000X1.000000X0*%
%ADD44RoundRect,0.250000X0.475000X-0.250000X0.475000X0.250000X-0.475000X0.250000X-0.475000X-0.250000X0*%
%ADD45RoundRect,0.225000X-0.250000X0.225000X-0.250000X-0.225000X0.250000X-0.225000X0.250000X0.225000X0*%
%ADD46RoundRect,0.250000X-0.250000X-0.475000X0.250000X-0.475000X0.250000X0.475000X-0.250000X0.475000X0*%
%ADD47R,0.500000X0.400000*%
%ADD48R,1.500000X1.500000*%
G04 APERTURE END LIST*
D10*
%TO.C,R30*%
X89650000Y-97600000D03*
X91150000Y-97600000D03*
%TD*%
D11*
%TO.C,C22*%
X79440000Y-85200000D03*
X80400000Y-85200000D03*
%TD*%
D12*
%TO.C,D2*%
X93550000Y-87450000D03*
X93550000Y-90750000D03*
X98450000Y-90750000D03*
X98450000Y-87450000D03*
%TD*%
D13*
%TO.C,R25*%
X70400000Y-75220000D03*
X70400000Y-74200000D03*
%TD*%
D14*
%TO.C,C27*%
X60080000Y-87100000D03*
X59120000Y-87100000D03*
%TD*%
D15*
%TO.C,C30*%
X62600000Y-81600000D03*
X62600000Y-73200000D03*
%TD*%
D16*
%TO.C,U4*%
X73850000Y-85050000D03*
X73850000Y-86200000D03*
X73850000Y-87350000D03*
X75000000Y-85050000D03*
X75000000Y-86200000D03*
X75000000Y-87350000D03*
X76150000Y-85050000D03*
X76150000Y-86200000D03*
X76150000Y-87350000D03*
D17*
X72562500Y-84450000D03*
X72562500Y-84950000D03*
X72562500Y-85450000D03*
X72562500Y-85950000D03*
X72562500Y-86450000D03*
X72562500Y-86950000D03*
X72562500Y-87450000D03*
X72562500Y-87950000D03*
D18*
X73250000Y-88637500D03*
X73750000Y-88637500D03*
X74250000Y-88637500D03*
X74750000Y-88637500D03*
X75250000Y-88637500D03*
X75750000Y-88637500D03*
X76250000Y-88637500D03*
X76750000Y-88637500D03*
D17*
X77437500Y-87950000D03*
X77437500Y-87450000D03*
X77437500Y-86950000D03*
X77437500Y-86450000D03*
X77437500Y-85950000D03*
X77437500Y-85450000D03*
X77437500Y-84950000D03*
X77437500Y-84450000D03*
D18*
X76750000Y-83762500D03*
X76250000Y-83762500D03*
X75750000Y-83762500D03*
X75250000Y-83762500D03*
X74750000Y-83762500D03*
X74250000Y-83762500D03*
X73750000Y-83762500D03*
X73250000Y-83762500D03*
%TD*%
D19*
%TO.C,U1*%
X81600000Y-61950000D03*
X79300000Y-61950000D03*
X77000000Y-61950000D03*
D20*
X79300000Y-68250000D03*
%TD*%
D21*
%TO.C,R6*%
X56210000Y-62800000D03*
X55190000Y-62800000D03*
%TD*%
D11*
%TO.C,C31*%
X91240000Y-69100000D03*
X92200000Y-69100000D03*
%TD*%
D22*
%TO.C,SW5*%
X98000000Y-64449999D03*
X98000000Y-58550001D03*
%TD*%
D23*
%TO.C,C19*%
X95400000Y-61980000D03*
X95400000Y-61020000D03*
%TD*%
D13*
%TO.C,R16*%
X67200000Y-58820000D03*
X67200000Y-57800000D03*
%TD*%
D24*
%TO.C,D4*%
X68500000Y-65900000D03*
X64500000Y-65900000D03*
%TD*%
D25*
%TO.C,U5*%
X87562500Y-74050000D03*
X87562500Y-75000000D03*
X87562500Y-75950000D03*
X89837500Y-75950000D03*
X89837500Y-75000000D03*
X89837500Y-74050000D03*
%TD*%
D26*
%TO.C,R18*%
X59090000Y-86100000D03*
X60110000Y-86100000D03*
%TD*%
D10*
%TO.C,R29*%
X89650000Y-93600000D03*
X91150000Y-93600000D03*
%TD*%
D14*
%TO.C,C9*%
X59980000Y-54600000D03*
X59020000Y-54600000D03*
%TD*%
D21*
%TO.C,R22*%
X77900000Y-89800000D03*
X76880000Y-89800000D03*
%TD*%
D27*
%TO.C,Q4*%
X88015000Y-98705000D03*
X88015000Y-97435000D03*
X88015000Y-96165000D03*
X88015000Y-94895000D03*
D28*
X85300000Y-99072500D03*
D29*
X82430000Y-99015000D03*
D30*
X84220000Y-97915000D03*
X84220000Y-95685000D03*
D29*
X82430000Y-94585000D03*
D28*
X85300000Y-94527500D03*
%TD*%
D11*
%TO.C,C4*%
X79700000Y-72500000D03*
X80660000Y-72500000D03*
%TD*%
D31*
%TO.C,C1*%
X70400000Y-72300000D03*
X70400000Y-73260000D03*
%TD*%
D21*
%TO.C,R27*%
X90910000Y-86100000D03*
X89890000Y-86100000D03*
%TD*%
D32*
%TO.C,D5*%
X56800000Y-59400000D03*
X56800000Y-57825000D03*
%TD*%
%TO.C,D9*%
X68400000Y-59400000D03*
X68400000Y-57825000D03*
%TD*%
D33*
%TO.C,C21*%
X73275000Y-91000000D03*
X71725000Y-91000000D03*
%TD*%
D26*
%TO.C,R10*%
X77390000Y-54600000D03*
X78410000Y-54600000D03*
%TD*%
D14*
%TO.C,C20*%
X73280000Y-89800000D03*
X72320000Y-89800000D03*
%TD*%
%TO.C,C24*%
X77780000Y-82600000D03*
X76820000Y-82600000D03*
%TD*%
D11*
%TO.C,C23*%
X74420000Y-82000000D03*
X75380000Y-82000000D03*
%TD*%
D14*
%TO.C,C5*%
X72280000Y-70300000D03*
X71320000Y-70300000D03*
%TD*%
D31*
%TO.C,C15*%
X91900000Y-80820000D03*
X91900000Y-81780000D03*
%TD*%
D34*
%TO.C,C28*%
X86775000Y-86300000D03*
X83825000Y-86300000D03*
%TD*%
D35*
%TO.C,C26*%
X63225000Y-86300000D03*
X66175000Y-86300000D03*
%TD*%
D36*
%TO.C,J2*%
X92210000Y-56750000D03*
X92210000Y-60650000D03*
X90940000Y-56750000D03*
X90940000Y-60650000D03*
X89670000Y-56750000D03*
X89670000Y-60650000D03*
X88400000Y-56750000D03*
X88400000Y-60650000D03*
X87130000Y-56750000D03*
X87130000Y-60650000D03*
X85860000Y-56750000D03*
X85860000Y-60650000D03*
X84590000Y-56750000D03*
X84590000Y-60650000D03*
%TD*%
D26*
%TO.C,R11*%
X83090000Y-53900000D03*
X84110000Y-53900000D03*
%TD*%
D11*
%TO.C,C2*%
X75900000Y-79600000D03*
X76860000Y-79600000D03*
%TD*%
D31*
%TO.C,C16*%
X91900000Y-86140000D03*
X91900000Y-87100000D03*
%TD*%
D10*
%TO.C,R28*%
X89650000Y-89600000D03*
X91150000Y-89600000D03*
%TD*%
D37*
%TO.C,C7*%
X55800000Y-69100000D03*
X52850000Y-69100000D03*
%TD*%
D38*
%TO.C,J3*%
X92055000Y-78250000D03*
X92055000Y-77450000D03*
D39*
X92055000Y-76250000D03*
X92055000Y-75250000D03*
X92055000Y-74750000D03*
X92055000Y-73750000D03*
D38*
X92055000Y-72550000D03*
X92055000Y-71750000D03*
X92055000Y-71750000D03*
X92055000Y-72550000D03*
D39*
X92055000Y-73250000D03*
X92055000Y-74250000D03*
X92055000Y-75750000D03*
X92055000Y-76750000D03*
D38*
X92055000Y-77450000D03*
X92055000Y-78250000D03*
%TD*%
D40*
%TO.C,SW1*%
X64249999Y-52000000D03*
X58350001Y-52000000D03*
%TD*%
D41*
%TO.C,U3*%
X72900000Y-72900000D03*
X72900000Y-74300000D03*
X72900000Y-75700000D03*
X72900000Y-77100000D03*
X74300000Y-72900000D03*
X74300000Y-74300000D03*
X74300000Y-75700000D03*
X74300000Y-77100000D03*
X75700000Y-72900000D03*
X75700000Y-74300000D03*
X75700000Y-75700000D03*
X75700000Y-77100000D03*
X77100000Y-72900000D03*
X77100000Y-74300000D03*
X77100000Y-75700000D03*
X77100000Y-77100000D03*
D17*
X71562500Y-72250000D03*
X71562500Y-72750000D03*
X71562500Y-73250000D03*
X71562500Y-73750000D03*
X71562500Y-74250000D03*
X71562500Y-74750000D03*
X71562500Y-75250000D03*
X71562500Y-75750000D03*
X71562500Y-76250000D03*
X71562500Y-76750000D03*
X71562500Y-77250000D03*
X71562500Y-77750000D03*
D18*
X72250000Y-78437500D03*
X72750000Y-78437500D03*
X73250000Y-78437500D03*
X73750000Y-78437500D03*
X74250000Y-78437500D03*
X74750000Y-78437500D03*
X75250000Y-78437500D03*
X75750000Y-78437500D03*
X76250000Y-78437500D03*
X76750000Y-78437500D03*
X77250000Y-78437500D03*
X77750000Y-78437500D03*
D17*
X78437500Y-77750000D03*
X78437500Y-77250000D03*
X78437500Y-76750000D03*
X78437500Y-76250000D03*
X78437500Y-75750000D03*
X78437500Y-75250000D03*
X78437500Y-74750000D03*
X78437500Y-74250000D03*
X78437500Y-73750000D03*
X78437500Y-73250000D03*
X78437500Y-72750000D03*
X78437500Y-72250000D03*
D18*
X77750000Y-71562500D03*
X77250000Y-71562500D03*
X76750000Y-71562500D03*
X76250000Y-71562500D03*
X75750000Y-71562500D03*
X75250000Y-71562500D03*
X74750000Y-71562500D03*
X74250000Y-71562500D03*
X73750000Y-71562500D03*
X73250000Y-71562500D03*
X72750000Y-71562500D03*
X72250000Y-71562500D03*
%TD*%
D32*
%TO.C,D8*%
X62600000Y-59387500D03*
X62600000Y-57812500D03*
%TD*%
D26*
%TO.C,R9*%
X79290000Y-54600000D03*
X80310000Y-54600000D03*
%TD*%
D42*
%TO.C,R20*%
X60350000Y-93600000D03*
X58850000Y-93600000D03*
%TD*%
D13*
%TO.C,R26*%
X69400000Y-75210000D03*
X69400000Y-74190000D03*
%TD*%
D43*
%TO.C,D11*%
X71900000Y-62200000D03*
X71900000Y-66200000D03*
%TD*%
D13*
%TO.C,R14*%
X64300000Y-58820000D03*
X64300000Y-57800000D03*
%TD*%
D42*
%TO.C,R19*%
X60350000Y-89600000D03*
X58850000Y-89600000D03*
%TD*%
D44*
%TO.C,C13*%
X74700000Y-66400000D03*
X74700000Y-64500000D03*
%TD*%
D42*
%TO.C,R21*%
X60350000Y-97600000D03*
X58850000Y-97600000D03*
%TD*%
D40*
%TO.C,SW2*%
X72549999Y-52000000D03*
X66650001Y-52000000D03*
%TD*%
D13*
%TO.C,R13*%
X58500000Y-58807500D03*
X58500000Y-57787500D03*
%TD*%
D26*
%TO.C,R5*%
X55190000Y-61800000D03*
X56210000Y-61800000D03*
%TD*%
D32*
%TO.C,D7*%
X65500000Y-59400000D03*
X65500000Y-57825000D03*
%TD*%
D26*
%TO.C,R8*%
X79590000Y-76750000D03*
X80610000Y-76750000D03*
%TD*%
D32*
%TO.C,D6*%
X59700000Y-59387500D03*
X59700000Y-57812500D03*
%TD*%
D45*
%TO.C,C12*%
X74900000Y-61425000D03*
X74900000Y-62975000D03*
%TD*%
D13*
%TO.C,R17*%
X70100000Y-58820000D03*
X70100000Y-57800000D03*
%TD*%
D24*
%TO.C,D12*%
X68500000Y-62400000D03*
X64500000Y-62400000D03*
%TD*%
D40*
%TO.C,SW3*%
X91349999Y-52000000D03*
X85450001Y-52000000D03*
%TD*%
D11*
%TO.C,C29*%
X89920000Y-87100000D03*
X90880000Y-87100000D03*
%TD*%
D40*
%TO.C,SW4*%
X80849999Y-52000000D03*
X74950001Y-52000000D03*
%TD*%
D32*
%TO.C,D10*%
X71300000Y-59400000D03*
X71300000Y-57825000D03*
%TD*%
D14*
%TO.C,C3*%
X78700000Y-79600000D03*
X77740000Y-79600000D03*
%TD*%
D13*
%TO.C,R15*%
X61400000Y-58807500D03*
X61400000Y-57787500D03*
%TD*%
D26*
%TO.C,R1*%
X62790000Y-54600000D03*
X63810000Y-54600000D03*
%TD*%
D14*
%TO.C,C14*%
X56180000Y-63800000D03*
X55220000Y-63800000D03*
%TD*%
D21*
%TO.C,R7*%
X56210000Y-60800000D03*
X55190000Y-60800000D03*
%TD*%
D12*
%TO.C,D1*%
X93550000Y-81650000D03*
X93550000Y-84950000D03*
X98450000Y-84950000D03*
X98450000Y-81650000D03*
%TD*%
D27*
%TO.C,Q3*%
X88015000Y-92405000D03*
X88015000Y-91135000D03*
X88015000Y-89865000D03*
X88015000Y-88595000D03*
D28*
X85300000Y-92772500D03*
D29*
X82430000Y-92715000D03*
D30*
X84220000Y-91615000D03*
X84220000Y-89385000D03*
D29*
X82430000Y-88285000D03*
D28*
X85300000Y-88227500D03*
%TD*%
D26*
%TO.C,R2*%
X70990000Y-54600000D03*
X72010000Y-54600000D03*
%TD*%
D27*
%TO.C,Q2*%
X61985000Y-88495000D03*
X61985000Y-89765000D03*
X61985000Y-91035000D03*
X61985000Y-92305000D03*
D28*
X64700000Y-88127500D03*
D29*
X67570000Y-88185000D03*
D30*
X65780000Y-89285000D03*
X65780000Y-91515000D03*
D29*
X67570000Y-92615000D03*
D28*
X64700000Y-92672500D03*
%TD*%
D37*
%TO.C,C8*%
X55800000Y-65900000D03*
X52850000Y-65900000D03*
%TD*%
D21*
%TO.C,R24*%
X90310000Y-72800000D03*
X89290000Y-72800000D03*
%TD*%
D46*
%TO.C,C11*%
X63750000Y-68700000D03*
X65650000Y-68700000D03*
%TD*%
D47*
%TO.C,U2*%
X57200000Y-60950000D03*
X57200000Y-61950000D03*
X57200000Y-62950000D03*
X57200000Y-63950000D03*
X57200000Y-64950000D03*
D48*
X57700000Y-69700000D03*
X61900000Y-69700000D03*
D47*
X62400000Y-64950000D03*
X62400000Y-63950000D03*
X62400000Y-62950000D03*
X62400000Y-61950000D03*
X62400000Y-60950000D03*
D48*
X59800000Y-62550000D03*
%TD*%
D35*
%TO.C,C25*%
X79525000Y-83500000D03*
X82475000Y-83500000D03*
%TD*%
D26*
%TO.C,R4*%
X69090000Y-54600000D03*
X70110000Y-54600000D03*
%TD*%
D27*
%TO.C,Q1*%
X61985000Y-94895000D03*
X61985000Y-96165000D03*
X61985000Y-97435000D03*
X61985000Y-98705000D03*
D28*
X64700000Y-94527500D03*
D29*
X67570000Y-94585000D03*
D30*
X65780000Y-95685000D03*
X65780000Y-97915000D03*
D29*
X67570000Y-99015000D03*
D28*
X64700000Y-99072500D03*
%TD*%
D26*
%TO.C,R3*%
X60890000Y-54600000D03*
X61910000Y-54600000D03*
%TD*%
D32*
%TO.C,D13*%
X68900000Y-77987500D03*
X68900000Y-76412500D03*
%TD*%
D13*
%TO.C,R12*%
X55600000Y-58820000D03*
X55600000Y-57800000D03*
%TD*%
D14*
%TO.C,C6*%
X72280000Y-69300000D03*
X71320000Y-69300000D03*
%TD*%
%TO.C,C18*%
X76500000Y-54600000D03*
X75540000Y-54600000D03*
%TD*%
D26*
%TO.C,R23*%
X89290000Y-77200000D03*
X90310000Y-77200000D03*
%TD*%
D14*
%TO.C,C10*%
X68180000Y-54600000D03*
X67220000Y-54600000D03*
%TD*%
M02*
