%TF.GenerationSoftware,KiCad,Pcbnew,9.0.1-9.0.1-0~ubuntu22.04.1*%
%TF.CreationDate,2025-04-08T13:36:12+02:00*%
%TF.ProjectId,TMC262_Stepper_Driver,544d4332-3632-45f5-9374-65707065725f,rev?*%
%TF.SameCoordinates,Original*%
%TF.FileFunction,Copper,L2,Inr*%
%TF.FilePolarity,Positive*%
%FSLAX46Y46*%
G04 Gerber Fmt 4.6, Leading zero omitted, Abs format (unit mm)*
G04 Created by KiCad (PCBNEW 9.0.1-9.0.1-0~ubuntu22.04.1) date 2025-04-08 13:36:12*
%MOMM*%
%LPD*%
G01*
G04 APERTURE LIST*
G04 Aperture macros list*
%AMRoundRect*
0 Rectangle with rounded corners*
0 $1 Rounding radius*
0 $2 $3 $4 $5 $6 $7 $8 $9 X,Y pos of 4 corners*
0 Add a 4 corners polygon primitive as box body*
4,1,4,$2,$3,$4,$5,$6,$7,$8,$9,$2,$3,0*
0 Add four circle primitives for the rounded corners*
1,1,$1+$1,$2,$3*
1,1,$1+$1,$4,$5*
1,1,$1+$1,$6,$7*
1,1,$1+$1,$8,$9*
0 Add four rect primitives between the rounded corners*
20,1,$1+$1,$2,$3,$4,$5,0*
20,1,$1+$1,$4,$5,$6,$7,0*
20,1,$1+$1,$6,$7,$8,$9,0*
20,1,$1+$1,$8,$9,$2,$3,0*%
G04 Aperture macros list end*
%TA.AperFunction,ComponentPad*%
%ADD10RoundRect,0.250000X-0.350000X-0.625000X0.350000X-0.625000X0.350000X0.625000X-0.350000X0.625000X0*%
%TD*%
%TA.AperFunction,ComponentPad*%
%ADD11C,0.800000*%
%TD*%
%TA.AperFunction,ComponentPad*%
%ADD12C,6.400000*%
%TD*%
%TA.AperFunction,HeatsinkPad*%
%ADD13O,2.100000X1.000000*%
%TD*%
%TA.AperFunction,HeatsinkPad*%
%ADD14O,1.600000X1.000000*%
%TD*%
%TA.AperFunction,ComponentPad*%
%ADD15RoundRect,0.760000X-1.140000X1.140000X-1.140000X-1.140000X1.140000X-1.140000X1.140000X1.140000X0*%
%TD*%
%TA.AperFunction,ViaPad*%
%ADD16C,0.600000*%
%TD*%
G04 APERTURE END LIST*
D10*
%TO.N,GND*%
%TO.C,J5*%
X74900000Y-57350000D03*
%TD*%
D11*
%TO.N,GND*%
%TO.C,H1*%
X51600000Y-54000000D03*
X52302944Y-52302944D03*
X52302944Y-55697056D03*
X54000000Y-51600000D03*
D12*
X54000000Y-54000000D03*
D11*
X54000000Y-56400000D03*
X55697056Y-52302944D03*
X55697056Y-55697056D03*
X56400000Y-54000000D03*
%TD*%
%TO.N,GND*%
%TO.C,H4*%
X93600000Y-96000000D03*
X94302944Y-94302944D03*
X94302944Y-97697056D03*
X96000000Y-93600000D03*
D12*
X96000000Y-96000000D03*
D11*
X96000000Y-98400000D03*
X97697056Y-94302944D03*
X97697056Y-97697056D03*
X98400000Y-96000000D03*
%TD*%
%TO.N,GND*%
%TO.C,H2*%
X93600000Y-54000000D03*
X94302944Y-52302944D03*
X94302944Y-55697056D03*
X96000000Y-51600000D03*
D12*
X96000000Y-54000000D03*
D11*
X96000000Y-56400000D03*
X97697056Y-52302944D03*
X97697056Y-55697056D03*
X98400000Y-54000000D03*
%TD*%
D13*
%TO.N,GND*%
%TO.C,J3*%
X92970000Y-79320000D03*
D14*
X97150000Y-79320000D03*
D13*
X92970000Y-70680000D03*
D14*
X97150000Y-70680000D03*
%TD*%
D15*
%TO.N,GND*%
%TO.C,J4*%
X54000000Y-75500000D03*
%TD*%
D11*
%TO.N,GND*%
%TO.C,H3*%
X51600000Y-96000000D03*
X52302944Y-94302944D03*
X52302944Y-97697056D03*
X54000000Y-93600000D03*
D12*
X54000000Y-96000000D03*
D11*
X54000000Y-98400000D03*
X55697056Y-94302944D03*
X55697056Y-97697056D03*
X56400000Y-96000000D03*
%TD*%
D10*
%TO.N,GND*%
%TO.C,J6*%
X85400000Y-65250000D03*
%TD*%
D16*
%TO.N,GND*%
X76000000Y-77000000D03*
X74800000Y-63700000D03*
X98000000Y-58550001D03*
X74900000Y-54600000D03*
X81600000Y-63300000D03*
X70700000Y-70300000D03*
X85700000Y-76800000D03*
X57900000Y-93600000D03*
X74950001Y-52000000D03*
X76000000Y-74000000D03*
X91150000Y-95600000D03*
X81000000Y-75900000D03*
X88400000Y-55100000D03*
X79400000Y-79600000D03*
X52000000Y-69100000D03*
X60600000Y-73200000D03*
X56600000Y-75500000D03*
X73000000Y-73000000D03*
X83650000Y-67800000D03*
X74000000Y-77000000D03*
X98450000Y-83850000D03*
X75000000Y-77000000D03*
X94600000Y-85900000D03*
X97400000Y-84950000D03*
X74000000Y-75000000D03*
X76000000Y-75000000D03*
X66650001Y-52000000D03*
X75000000Y-75000000D03*
X90750000Y-78250000D03*
X88600000Y-72800000D03*
X68900000Y-78800000D03*
X62600000Y-73200000D03*
X73000000Y-74000000D03*
X80700000Y-71700000D03*
X74000000Y-74000000D03*
X99100000Y-66750000D03*
X74000000Y-85200000D03*
X58850000Y-95600000D03*
X73000000Y-76000000D03*
X93350000Y-75950000D03*
X51300000Y-75500000D03*
X75000000Y-87200000D03*
X64300000Y-57200000D03*
X88750000Y-77200000D03*
X59800000Y-63700000D03*
X57900000Y-89600000D03*
X82900000Y-70500000D03*
X61400000Y-57200000D03*
X70700000Y-69300000D03*
X77217816Y-80917816D03*
X74000000Y-87200000D03*
X97200000Y-86450000D03*
X71737001Y-84087900D03*
X77000000Y-75000000D03*
X92000000Y-93600000D03*
X52000000Y-65900000D03*
X63350000Y-60800000D03*
X85860000Y-55100000D03*
X61050000Y-61850000D03*
X74000000Y-73000000D03*
X61250000Y-59900000D03*
X76000000Y-86200000D03*
X61500000Y-64700000D03*
X96300000Y-66000000D03*
X71000000Y-91000000D03*
X96400000Y-62950000D03*
X92200000Y-87850000D03*
X87700000Y-71650000D03*
X81700000Y-72100000D03*
X77000000Y-74000000D03*
X91200000Y-80800000D03*
X74000000Y-86200000D03*
X67200000Y-57200000D03*
X87100000Y-77000000D03*
X99150000Y-69950000D03*
X65700000Y-70200000D03*
X99150000Y-79300000D03*
X88703459Y-75602309D03*
X55600000Y-57300000D03*
X58350001Y-52000000D03*
X75000000Y-74000000D03*
X73000000Y-77000000D03*
X59800000Y-61350000D03*
X91150000Y-91600000D03*
X70100000Y-57200000D03*
X76800000Y-82000000D03*
X77000000Y-73000000D03*
X93350000Y-59850000D03*
X64650000Y-73200000D03*
X54000000Y-72800000D03*
X75000000Y-76000000D03*
X67100000Y-86300000D03*
X75000000Y-86200000D03*
X74650000Y-80900000D03*
X71700000Y-89800000D03*
X92000000Y-89600000D03*
X73000000Y-75000000D03*
X88550000Y-79550000D03*
X90350000Y-63750000D03*
X76000000Y-73000000D03*
X58400000Y-54600000D03*
X66900000Y-68700000D03*
X70600000Y-88900000D03*
X84550000Y-69050000D03*
X89670000Y-55100000D03*
X54500000Y-63800000D03*
X57900000Y-97600000D03*
X75000000Y-73000000D03*
X90950000Y-79600000D03*
X85000000Y-72500000D03*
X87150000Y-78150000D03*
X54500000Y-60800000D03*
X76000000Y-76000000D03*
X97450000Y-90750000D03*
X81120000Y-85200000D03*
X98450000Y-89900000D03*
X62600000Y-76150000D03*
X81600000Y-60500000D03*
X75000000Y-85200000D03*
X58500000Y-57200000D03*
X59000000Y-65350000D03*
X93550000Y-73850000D03*
X83500000Y-83500000D03*
X54500000Y-62800000D03*
X71737001Y-83400000D03*
X82900000Y-86300000D03*
X83100000Y-65700000D03*
X66600000Y-54600000D03*
X69700000Y-73300000D03*
X95400000Y-60400000D03*
X82500000Y-53900000D03*
X52850000Y-67400000D03*
X93050000Y-69100000D03*
X90800000Y-71750000D03*
X92000000Y-97600000D03*
X58400000Y-87100000D03*
X77000000Y-76000000D03*
X58450000Y-61850000D03*
X58050000Y-60050000D03*
X78590000Y-89800000D03*
X77000000Y-77000000D03*
X58850000Y-91600000D03*
X76000000Y-85200000D03*
X74000000Y-76000000D03*
X82700000Y-74600000D03*
X76000000Y-87200000D03*
%TO.N,+24V*%
X55800000Y-65900000D03*
X55800000Y-69100000D03*
X55800000Y-65900000D03*
X55800000Y-65900000D03*
X55800000Y-69100000D03*
X55800000Y-65900000D03*
X55800000Y-69100000D03*
%TD*%
%TA.AperFunction,Conductor*%
%TO.N,GND*%
G36*
X96003032Y-50500648D02*
G01*
X96336929Y-50517052D01*
X96349037Y-50518245D01*
X96452146Y-50533539D01*
X96676699Y-50566849D01*
X96688617Y-50569219D01*
X97009951Y-50649709D01*
X97021588Y-50653240D01*
X97092806Y-50678722D01*
X97333467Y-50764832D01*
X97344688Y-50769479D01*
X97644163Y-50911120D01*
X97654871Y-50916844D01*
X97938988Y-51087137D01*
X97949106Y-51093897D01*
X98215170Y-51291224D01*
X98224576Y-51298944D01*
X98470013Y-51521395D01*
X98478604Y-51529986D01*
X98541608Y-51599500D01*
X98701055Y-51775423D01*
X98708775Y-51784829D01*
X98906102Y-52050893D01*
X98912862Y-52061011D01*
X99068381Y-52320480D01*
X99083148Y-52345116D01*
X99088885Y-52355848D01*
X99230514Y-52655297D01*
X99235170Y-52666540D01*
X99346759Y-52978411D01*
X99350292Y-52990055D01*
X99430777Y-53311369D01*
X99433151Y-53323305D01*
X99481754Y-53650962D01*
X99482947Y-53663071D01*
X99499351Y-53996966D01*
X99499500Y-54003051D01*
X99499500Y-95996948D01*
X99499351Y-96003033D01*
X99482947Y-96336928D01*
X99481754Y-96349037D01*
X99433151Y-96676694D01*
X99430777Y-96688630D01*
X99350292Y-97009944D01*
X99346759Y-97021588D01*
X99235170Y-97333459D01*
X99230514Y-97344702D01*
X99088885Y-97644151D01*
X99083148Y-97654883D01*
X98912862Y-97938988D01*
X98906102Y-97949106D01*
X98708775Y-98215170D01*
X98701055Y-98224576D01*
X98478611Y-98470006D01*
X98470006Y-98478611D01*
X98224576Y-98701055D01*
X98215170Y-98708775D01*
X97949106Y-98906102D01*
X97938988Y-98912862D01*
X97654883Y-99083148D01*
X97644151Y-99088885D01*
X97344702Y-99230514D01*
X97333459Y-99235170D01*
X97021588Y-99346759D01*
X97009944Y-99350292D01*
X96688630Y-99430777D01*
X96676694Y-99433151D01*
X96349037Y-99481754D01*
X96336928Y-99482947D01*
X96021989Y-99498419D01*
X96003031Y-99499351D01*
X95996949Y-99499500D01*
X54003051Y-99499500D01*
X53996968Y-99499351D01*
X53976900Y-99498365D01*
X53663071Y-99482947D01*
X53650962Y-99481754D01*
X53323305Y-99433151D01*
X53311369Y-99430777D01*
X52990055Y-99350292D01*
X52978411Y-99346759D01*
X52666540Y-99235170D01*
X52655301Y-99230515D01*
X52355844Y-99088883D01*
X52345121Y-99083150D01*
X52061011Y-98912862D01*
X52050893Y-98906102D01*
X51825237Y-98738744D01*
X51825237Y-98738743D01*
X51784829Y-98708774D01*
X51775423Y-98701055D01*
X51716086Y-98647275D01*
X51716084Y-98647273D01*
X60949500Y-98647273D01*
X60949500Y-98752727D01*
X60976793Y-98854587D01*
X61029520Y-98945913D01*
X61104087Y-99020480D01*
X61195413Y-99073207D01*
X61297273Y-99100500D01*
X61297275Y-99100500D01*
X61402725Y-99100500D01*
X61402727Y-99100500D01*
X61504587Y-99073207D01*
X61595913Y-99020480D01*
X61670480Y-98945913D01*
X61723207Y-98854587D01*
X61750500Y-98752727D01*
X61750500Y-98647273D01*
X61723207Y-98545413D01*
X61670480Y-98454087D01*
X61595913Y-98379520D01*
X61504587Y-98326793D01*
X61402727Y-98299500D01*
X61297273Y-98299500D01*
X61195413Y-98326793D01*
X61195410Y-98326794D01*
X61104085Y-98379521D01*
X61029521Y-98454085D01*
X60976794Y-98545410D01*
X60976793Y-98545413D01*
X60949500Y-98647273D01*
X51716084Y-98647273D01*
X51529986Y-98478604D01*
X51521395Y-98470013D01*
X51298944Y-98224576D01*
X51291224Y-98215170D01*
X51093897Y-97949106D01*
X51087137Y-97938988D01*
X50916844Y-97654871D01*
X50911120Y-97644163D01*
X50794350Y-97397273D01*
X60999500Y-97397273D01*
X60999500Y-97502727D01*
X61026793Y-97604587D01*
X61079520Y-97695913D01*
X61154087Y-97770480D01*
X61245413Y-97823207D01*
X61347273Y-97850500D01*
X61347275Y-97850500D01*
X61452725Y-97850500D01*
X61452727Y-97850500D01*
X61554587Y-97823207D01*
X61645913Y-97770480D01*
X61720480Y-97695913D01*
X61773207Y-97604587D01*
X61800500Y-97502727D01*
X61800500Y-97397273D01*
X61796481Y-97382273D01*
X62264500Y-97382273D01*
X62264500Y-97487727D01*
X62291793Y-97589587D01*
X62344520Y-97680913D01*
X62419087Y-97755480D01*
X62510413Y-97808207D01*
X62612273Y-97835500D01*
X62612275Y-97835500D01*
X62717725Y-97835500D01*
X62717727Y-97835500D01*
X62819587Y-97808207D01*
X62910913Y-97755480D01*
X62985480Y-97680913D01*
X63038207Y-97589587D01*
X63065404Y-97488083D01*
X63101767Y-97428425D01*
X63153083Y-97400404D01*
X63254587Y-97373207D01*
X63299506Y-97347273D01*
X88249500Y-97347273D01*
X88249500Y-97452727D01*
X88276793Y-97554587D01*
X88329520Y-97645913D01*
X88404087Y-97720480D01*
X88495413Y-97773207D01*
X88597273Y-97800500D01*
X88597275Y-97800500D01*
X88702725Y-97800500D01*
X88702727Y-97800500D01*
X88804587Y-97773207D01*
X88895913Y-97720480D01*
X88970480Y-97645913D01*
X89023207Y-97554587D01*
X89050500Y-97452727D01*
X89050500Y-97347273D01*
X89023207Y-97245413D01*
X88970480Y-97154087D01*
X88895913Y-97079520D01*
X88804587Y-97026793D01*
X88702727Y-96999500D01*
X88597273Y-96999500D01*
X88495413Y-97026793D01*
X88495410Y-97026794D01*
X88404085Y-97079521D01*
X88329521Y-97154085D01*
X88276794Y-97245410D01*
X88276793Y-97245413D01*
X88249500Y-97347273D01*
X63299506Y-97347273D01*
X63345913Y-97320480D01*
X63420480Y-97245913D01*
X63473207Y-97154587D01*
X63500500Y-97052727D01*
X63500500Y-96947273D01*
X63473207Y-96845413D01*
X63420480Y-96754087D01*
X63345913Y-96679520D01*
X63254587Y-96626793D01*
X63152727Y-96599500D01*
X63047273Y-96599500D01*
X62945413Y-96626793D01*
X62945410Y-96626794D01*
X62854085Y-96679521D01*
X62779521Y-96754085D01*
X62726794Y-96845410D01*
X62726793Y-96845411D01*
X62699596Y-96946915D01*
X62663231Y-97006575D01*
X62611915Y-97034596D01*
X62510411Y-97061793D01*
X62510410Y-97061794D01*
X62419085Y-97114521D01*
X62344521Y-97189085D01*
X62291794Y-97280410D01*
X62291793Y-97280413D01*
X62264500Y-97382273D01*
X61796481Y-97382273D01*
X61773207Y-97295413D01*
X61720480Y-97204087D01*
X61645913Y-97129520D01*
X61559312Y-97079521D01*
X61554589Y-97076794D01*
X61554588Y-97076793D01*
X61554587Y-97076793D01*
X61452727Y-97049500D01*
X61347273Y-97049500D01*
X61245413Y-97076793D01*
X61245410Y-97076794D01*
X61154085Y-97129521D01*
X61079521Y-97204085D01*
X61026794Y-97295410D01*
X61026793Y-97295413D01*
X60999500Y-97397273D01*
X50794350Y-97397273D01*
X50769479Y-97344688D01*
X50764829Y-97333459D01*
X50760184Y-97320478D01*
X50686492Y-97114521D01*
X50653240Y-97021588D01*
X50649707Y-97009944D01*
X50640958Y-96975015D01*
X50569219Y-96688617D01*
X50566848Y-96676694D01*
X50561839Y-96642929D01*
X50529230Y-96423091D01*
X50518245Y-96349037D01*
X50517052Y-96336927D01*
X50506404Y-96120185D01*
X50502951Y-96049884D01*
X60979500Y-96049884D01*
X60979500Y-96155338D01*
X61006793Y-96257198D01*
X61059520Y-96348524D01*
X61134087Y-96423091D01*
X61225413Y-96475818D01*
X61327273Y-96503111D01*
X61327275Y-96503111D01*
X61432725Y-96503111D01*
X61432727Y-96503111D01*
X61534587Y-96475818D01*
X61625913Y-96423091D01*
X61700480Y-96348524D01*
X61753207Y-96257198D01*
X61780500Y-96155338D01*
X61780500Y-96071457D01*
X70524499Y-96071457D01*
X70552379Y-96211614D01*
X70552381Y-96211620D01*
X70607069Y-96343650D01*
X70607074Y-96343659D01*
X70686467Y-96462478D01*
X70686470Y-96462482D01*
X70787517Y-96563529D01*
X70787521Y-96563532D01*
X70906340Y-96642925D01*
X70906346Y-96642928D01*
X70906347Y-96642929D01*
X71038380Y-96697619D01*
X71038384Y-96697619D01*
X71038385Y-96697620D01*
X71178542Y-96725500D01*
X71178545Y-96725500D01*
X71321457Y-96725500D01*
X71415751Y-96706742D01*
X71461620Y-96697619D01*
X71593653Y-96642929D01*
X71712479Y-96563532D01*
X71813532Y-96462479D01*
X71892929Y-96343653D01*
X71947619Y-96211620D01*
X71965807Y-96120185D01*
X71975500Y-96071457D01*
X73024499Y-96071457D01*
X73052379Y-96211614D01*
X73052381Y-96211620D01*
X73107069Y-96343650D01*
X73107074Y-96343659D01*
X73186467Y-96462478D01*
X73186470Y-96462482D01*
X73287517Y-96563529D01*
X73287521Y-96563532D01*
X73406340Y-96642925D01*
X73406346Y-96642928D01*
X73406347Y-96642929D01*
X73538380Y-96697619D01*
X73538384Y-96697619D01*
X73538385Y-96697620D01*
X73678542Y-96725500D01*
X73678545Y-96725500D01*
X73821457Y-96725500D01*
X73915751Y-96706742D01*
X73961620Y-96697619D01*
X74093653Y-96642929D01*
X74212479Y-96563532D01*
X74313532Y-96462479D01*
X74392929Y-96343653D01*
X74447619Y-96211620D01*
X74465807Y-96120185D01*
X74475500Y-96071457D01*
X75524499Y-96071457D01*
X75552379Y-96211614D01*
X75552381Y-96211620D01*
X75607069Y-96343650D01*
X75607074Y-96343659D01*
X75686467Y-96462478D01*
X75686470Y-96462482D01*
X75787517Y-96563529D01*
X75787521Y-96563532D01*
X75906340Y-96642925D01*
X75906346Y-96642928D01*
X75906347Y-96642929D01*
X76038380Y-96697619D01*
X76038384Y-96697619D01*
X76038385Y-96697620D01*
X76178542Y-96725500D01*
X76178545Y-96725500D01*
X76321457Y-96725500D01*
X76415751Y-96706742D01*
X76461620Y-96697619D01*
X76593653Y-96642929D01*
X76712479Y-96563532D01*
X76813532Y-96462479D01*
X76892929Y-96343653D01*
X76947619Y-96211620D01*
X76965807Y-96120185D01*
X76975500Y-96071457D01*
X78024499Y-96071457D01*
X78052379Y-96211614D01*
X78052381Y-96211620D01*
X78107069Y-96343650D01*
X78107074Y-96343659D01*
X78186467Y-96462478D01*
X78186470Y-96462482D01*
X78287517Y-96563529D01*
X78287521Y-96563532D01*
X78406340Y-96642925D01*
X78406346Y-96642928D01*
X78406347Y-96642929D01*
X78538380Y-96697619D01*
X78538384Y-96697619D01*
X78538385Y-96697620D01*
X78678542Y-96725500D01*
X78678545Y-96725500D01*
X78821457Y-96725500D01*
X78915751Y-96706742D01*
X78961620Y-96697619D01*
X79093653Y-96642929D01*
X79212479Y-96563532D01*
X79313532Y-96462479D01*
X79392929Y-96343653D01*
X79447619Y-96211620D01*
X79465807Y-96120185D01*
X79475500Y-96071457D01*
X79475500Y-95928542D01*
X79447620Y-95788385D01*
X79447619Y-95788384D01*
X79447619Y-95788380D01*
X79392929Y-95656347D01*
X79392928Y-95656346D01*
X79392925Y-95656340D01*
X79386867Y-95647273D01*
X86649500Y-95647273D01*
X86649500Y-95752727D01*
X86670077Y-95829520D01*
X86676793Y-95854586D01*
X86676794Y-95854589D01*
X86678012Y-95856698D01*
X86729520Y-95945913D01*
X86804087Y-96020480D01*
X86895413Y-96073207D01*
X86997273Y-96100500D01*
X86997281Y-96100500D01*
X87005333Y-96101561D01*
X87004915Y-96104732D01*
X87057539Y-96120185D01*
X87103294Y-96172989D01*
X87111333Y-96209944D01*
X87113439Y-96209667D01*
X87114500Y-96217725D01*
X87114500Y-96217727D01*
X87141793Y-96319587D01*
X87194520Y-96410913D01*
X87269087Y-96485480D01*
X87360413Y-96538207D01*
X87462273Y-96565500D01*
X87462275Y-96565500D01*
X87567725Y-96565500D01*
X87567727Y-96565500D01*
X87669587Y-96538207D01*
X87760913Y-96485480D01*
X87835480Y-96410913D01*
X87888207Y-96319587D01*
X87915500Y-96217727D01*
X87915500Y-96112273D01*
X87911481Y-96097273D01*
X88249500Y-96097273D01*
X88249500Y-96202727D01*
X88276793Y-96304587D01*
X88329520Y-96395913D01*
X88404087Y-96470480D01*
X88495413Y-96523207D01*
X88597273Y-96550500D01*
X88597275Y-96550500D01*
X88702725Y-96550500D01*
X88702727Y-96550500D01*
X88804587Y-96523207D01*
X88895913Y-96470480D01*
X88970480Y-96395913D01*
X89023207Y-96304587D01*
X89050500Y-96202727D01*
X89050500Y-96097273D01*
X89023207Y-95995413D01*
X88970480Y-95904087D01*
X88895913Y-95829520D01*
X88824655Y-95788379D01*
X88804589Y-95776794D01*
X88804588Y-95776793D01*
X88804587Y-95776793D01*
X88702727Y-95749500D01*
X88597273Y-95749500D01*
X88495413Y-95776793D01*
X88495410Y-95776794D01*
X88404085Y-95829521D01*
X88329521Y-95904085D01*
X88276794Y-95995410D01*
X88276793Y-95995413D01*
X88249500Y-96097273D01*
X87911481Y-96097273D01*
X87888207Y-96010413D01*
X87835480Y-95919087D01*
X87760913Y-95844520D01*
X87669587Y-95791793D01*
X87567727Y-95764500D01*
X87567726Y-95764500D01*
X87559667Y-95763439D01*
X87560084Y-95760267D01*
X87507461Y-95744815D01*
X87461706Y-95692011D01*
X87453666Y-95655055D01*
X87451561Y-95655333D01*
X87450500Y-95647280D01*
X87450500Y-95647273D01*
X87423207Y-95545413D01*
X87370480Y-95454087D01*
X87295913Y-95379520D01*
X87204587Y-95326793D01*
X87102727Y-95299500D01*
X86997273Y-95299500D01*
X86895413Y-95326793D01*
X86895410Y-95326794D01*
X86804085Y-95379521D01*
X86729521Y-95454085D01*
X86676794Y-95545410D01*
X86676793Y-95545413D01*
X86649500Y-95647273D01*
X79386867Y-95647273D01*
X79313532Y-95537521D01*
X79313529Y-95537517D01*
X79212482Y-95436470D01*
X79212478Y-95436467D01*
X79093659Y-95357074D01*
X79093650Y-95357069D01*
X78961620Y-95302381D01*
X78961614Y-95302379D01*
X78821457Y-95274500D01*
X78821455Y-95274500D01*
X78678545Y-95274500D01*
X78678543Y-95274500D01*
X78538385Y-95302379D01*
X78538379Y-95302381D01*
X78406349Y-95357069D01*
X78406340Y-95357074D01*
X78287521Y-95436467D01*
X78287517Y-95436470D01*
X78186470Y-95537517D01*
X78186467Y-95537521D01*
X78107074Y-95656340D01*
X78107069Y-95656349D01*
X78052381Y-95788379D01*
X78052379Y-95788385D01*
X78024500Y-95928542D01*
X78024500Y-95928545D01*
X78024500Y-96071455D01*
X78024500Y-96071457D01*
X78024499Y-96071457D01*
X76975500Y-96071457D01*
X76975500Y-95928542D01*
X76947620Y-95788385D01*
X76947619Y-95788384D01*
X76947619Y-95788380D01*
X76892929Y-95656347D01*
X76892928Y-95656346D01*
X76892925Y-95656340D01*
X76813532Y-95537521D01*
X76813529Y-95537517D01*
X76712482Y-95436470D01*
X76712478Y-95436467D01*
X76593659Y-95357074D01*
X76593650Y-95357069D01*
X76461620Y-95302381D01*
X76461614Y-95302379D01*
X76321457Y-95274500D01*
X76321455Y-95274500D01*
X76178545Y-95274500D01*
X76178543Y-95274500D01*
X76038385Y-95302379D01*
X76038379Y-95302381D01*
X75906349Y-95357069D01*
X75906340Y-95357074D01*
X75787521Y-95436467D01*
X75787517Y-95436470D01*
X75686470Y-95537517D01*
X75686467Y-95537521D01*
X75607074Y-95656340D01*
X75607069Y-95656349D01*
X75552381Y-95788379D01*
X75552379Y-95788385D01*
X75524500Y-95928542D01*
X75524500Y-95928545D01*
X75524500Y-96071455D01*
X75524500Y-96071457D01*
X75524499Y-96071457D01*
X74475500Y-96071457D01*
X74475500Y-95928542D01*
X74447620Y-95788385D01*
X74447619Y-95788384D01*
X74447619Y-95788380D01*
X74392929Y-95656347D01*
X74392928Y-95656346D01*
X74392925Y-95656340D01*
X74313532Y-95537521D01*
X74313529Y-95537517D01*
X74212482Y-95436470D01*
X74212478Y-95436467D01*
X74093659Y-95357074D01*
X74093650Y-95357069D01*
X73961620Y-95302381D01*
X73961614Y-95302379D01*
X73821457Y-95274500D01*
X73821455Y-95274500D01*
X73678545Y-95274500D01*
X73678543Y-95274500D01*
X73538385Y-95302379D01*
X73538379Y-95302381D01*
X73406349Y-95357069D01*
X73406340Y-95357074D01*
X73287521Y-95436467D01*
X73287517Y-95436470D01*
X73186470Y-95537517D01*
X73186467Y-95537521D01*
X73107074Y-95656340D01*
X73107069Y-95656349D01*
X73052381Y-95788379D01*
X73052379Y-95788385D01*
X73024500Y-95928542D01*
X73024500Y-95928545D01*
X73024500Y-96071455D01*
X73024500Y-96071457D01*
X73024499Y-96071457D01*
X71975500Y-96071457D01*
X71975500Y-95928542D01*
X71947620Y-95788385D01*
X71947619Y-95788384D01*
X71947619Y-95788380D01*
X71892929Y-95656347D01*
X71892928Y-95656346D01*
X71892925Y-95656340D01*
X71813532Y-95537521D01*
X71813529Y-95537517D01*
X71712482Y-95436470D01*
X71712478Y-95436467D01*
X71593659Y-95357074D01*
X71593650Y-95357069D01*
X71461620Y-95302381D01*
X71461614Y-95302379D01*
X71321457Y-95274500D01*
X71321455Y-95274500D01*
X71178545Y-95274500D01*
X71178543Y-95274500D01*
X71038385Y-95302379D01*
X71038379Y-95302381D01*
X70906349Y-95357069D01*
X70906340Y-95357074D01*
X70787521Y-95436467D01*
X70787517Y-95436470D01*
X70686470Y-95537517D01*
X70686467Y-95537521D01*
X70607074Y-95656340D01*
X70607069Y-95656349D01*
X70552381Y-95788379D01*
X70552379Y-95788385D01*
X70524500Y-95928542D01*
X70524500Y-95928545D01*
X70524500Y-96071455D01*
X70524500Y-96071457D01*
X70524499Y-96071457D01*
X61780500Y-96071457D01*
X61780500Y-96049884D01*
X61753207Y-95948024D01*
X61700480Y-95856698D01*
X61625913Y-95782131D01*
X61534587Y-95729404D01*
X61432727Y-95702111D01*
X61327273Y-95702111D01*
X61225413Y-95729404D01*
X61225410Y-95729405D01*
X61134085Y-95782132D01*
X61059521Y-95856696D01*
X61006794Y-95948021D01*
X61006793Y-95948024D01*
X60979500Y-96049884D01*
X50502951Y-96049884D01*
X50500649Y-96003031D01*
X50500500Y-95996948D01*
X50500500Y-94841012D01*
X88249500Y-94841012D01*
X88249500Y-94946466D01*
X88276793Y-95048326D01*
X88329520Y-95139652D01*
X88404087Y-95214219D01*
X88495413Y-95266946D01*
X88597273Y-95294239D01*
X88597275Y-95294239D01*
X88702725Y-95294239D01*
X88702727Y-95294239D01*
X88804587Y-95266946D01*
X88895913Y-95214219D01*
X88970480Y-95139652D01*
X89023207Y-95048326D01*
X89050500Y-94946466D01*
X89050500Y-94841012D01*
X89023207Y-94739152D01*
X88970480Y-94647826D01*
X88895913Y-94573259D01*
X88804587Y-94520532D01*
X88702727Y-94493239D01*
X88597273Y-94493239D01*
X88495413Y-94520532D01*
X88495410Y-94520533D01*
X88404085Y-94573260D01*
X88329521Y-94647824D01*
X88276794Y-94739149D01*
X88276793Y-94739152D01*
X88249500Y-94841012D01*
X50500500Y-94841012D01*
X50500500Y-92253534D01*
X60949500Y-92253534D01*
X60949500Y-92358988D01*
X60976793Y-92460848D01*
X61029520Y-92552174D01*
X61104087Y-92626741D01*
X61195413Y-92679468D01*
X61297273Y-92706761D01*
X61297275Y-92706761D01*
X61402725Y-92706761D01*
X61402727Y-92706761D01*
X61504587Y-92679468D01*
X61595913Y-92626741D01*
X61670480Y-92552174D01*
X61723207Y-92460848D01*
X61750500Y-92358988D01*
X61750500Y-92253534D01*
X61723207Y-92151674D01*
X61670480Y-92060348D01*
X61595913Y-91985781D01*
X61504587Y-91933054D01*
X61402727Y-91905761D01*
X61297273Y-91905761D01*
X61195413Y-91933054D01*
X61195410Y-91933055D01*
X61104085Y-91985782D01*
X61029521Y-92060346D01*
X60976794Y-92151671D01*
X60976793Y-92151674D01*
X60949500Y-92253534D01*
X50500500Y-92253534D01*
X50500500Y-90997273D01*
X60999500Y-90997273D01*
X60999500Y-91102727D01*
X61026793Y-91204587D01*
X61079520Y-91295913D01*
X61154087Y-91370480D01*
X61245413Y-91423207D01*
X61347273Y-91450500D01*
X61347275Y-91450500D01*
X61452725Y-91450500D01*
X61452727Y-91450500D01*
X61554587Y-91423207D01*
X61645913Y-91370480D01*
X61720480Y-91295913D01*
X61773207Y-91204587D01*
X61800500Y-91102727D01*
X61800500Y-90997273D01*
X61796481Y-90982273D01*
X62264500Y-90982273D01*
X62264500Y-91087727D01*
X62291793Y-91189587D01*
X62344520Y-91280913D01*
X62419087Y-91355480D01*
X62510413Y-91408207D01*
X62612273Y-91435500D01*
X62612275Y-91435500D01*
X62717725Y-91435500D01*
X62717727Y-91435500D01*
X62819587Y-91408207D01*
X62910913Y-91355480D01*
X62985480Y-91280913D01*
X63038207Y-91189587D01*
X63065404Y-91088083D01*
X63067824Y-91084113D01*
X63068052Y-91079464D01*
X63085841Y-91054553D01*
X63090278Y-91047273D01*
X73882581Y-91047273D01*
X73882581Y-91152727D01*
X73909874Y-91254587D01*
X73962601Y-91345913D01*
X74037168Y-91420480D01*
X74128494Y-91473207D01*
X74230354Y-91500500D01*
X74230356Y-91500500D01*
X74335806Y-91500500D01*
X74335808Y-91500500D01*
X74437668Y-91473207D01*
X74528994Y-91420480D01*
X74603561Y-91345913D01*
X74656288Y-91254587D01*
X74683581Y-91152727D01*
X74683581Y-91047273D01*
X74675752Y-91018054D01*
X88249500Y-91018054D01*
X88249500Y-91123508D01*
X88276793Y-91225368D01*
X88329520Y-91316694D01*
X88404087Y-91391261D01*
X88495413Y-91443988D01*
X88597273Y-91471281D01*
X88597275Y-91471281D01*
X88702725Y-91471281D01*
X88702727Y-91471281D01*
X88804587Y-91443988D01*
X88895913Y-91391261D01*
X88970480Y-91316694D01*
X89023207Y-91225368D01*
X89050500Y-91123508D01*
X89050500Y-91018054D01*
X89023207Y-90916194D01*
X88970480Y-90824868D01*
X88895913Y-90750301D01*
X88804587Y-90697574D01*
X88702727Y-90670281D01*
X88597273Y-90670281D01*
X88495413Y-90697574D01*
X88495410Y-90697575D01*
X88404085Y-90750302D01*
X88329521Y-90824866D01*
X88276794Y-90916191D01*
X88276793Y-90916194D01*
X88249500Y-91018054D01*
X74675752Y-91018054D01*
X74656288Y-90945413D01*
X74603561Y-90854087D01*
X74528994Y-90779520D01*
X74442393Y-90729521D01*
X74437670Y-90726794D01*
X74437669Y-90726793D01*
X74437668Y-90726793D01*
X74335808Y-90699500D01*
X74230354Y-90699500D01*
X74128494Y-90726793D01*
X74128491Y-90726794D01*
X74037166Y-90779521D01*
X73962602Y-90854085D01*
X73909875Y-90945410D01*
X73909874Y-90945413D01*
X73882581Y-91047273D01*
X63090278Y-91047273D01*
X63101767Y-91028425D01*
X63106704Y-91025338D01*
X63108657Y-91022605D01*
X63120733Y-91016570D01*
X63139246Y-91004999D01*
X63150528Y-91000500D01*
X63152727Y-91000500D01*
X63254587Y-90973207D01*
X63345913Y-90920480D01*
X63420480Y-90845913D01*
X63473207Y-90754587D01*
X63500500Y-90652727D01*
X63500500Y-90547273D01*
X63473207Y-90445413D01*
X63420480Y-90354087D01*
X63345913Y-90279520D01*
X63254587Y-90226793D01*
X63152727Y-90199500D01*
X63047273Y-90199500D01*
X62945413Y-90226793D01*
X62945410Y-90226794D01*
X62854085Y-90279521D01*
X62779521Y-90354085D01*
X62726794Y-90445410D01*
X62726793Y-90445411D01*
X62699596Y-90546915D01*
X62663231Y-90606575D01*
X62611915Y-90634596D01*
X62510411Y-90661793D01*
X62510410Y-90661794D01*
X62419085Y-90714521D01*
X62344521Y-90789085D01*
X62291794Y-90880410D01*
X62291793Y-90880413D01*
X62264500Y-90982273D01*
X61796481Y-90982273D01*
X61773207Y-90895413D01*
X61720480Y-90804087D01*
X61645913Y-90729520D01*
X61554587Y-90676793D01*
X61452727Y-90649500D01*
X61347273Y-90649500D01*
X61245413Y-90676793D01*
X61245410Y-90676794D01*
X61154085Y-90729521D01*
X61079521Y-90804085D01*
X61026794Y-90895410D01*
X61026793Y-90895413D01*
X60999500Y-90997273D01*
X50500500Y-90997273D01*
X50500500Y-89747273D01*
X60949500Y-89747273D01*
X60949500Y-89852727D01*
X60966917Y-89917726D01*
X60976793Y-89954586D01*
X60976794Y-89954589D01*
X60979922Y-89960006D01*
X61029520Y-90045913D01*
X61104087Y-90120480D01*
X61195413Y-90173207D01*
X61297273Y-90200500D01*
X61297275Y-90200500D01*
X61402725Y-90200500D01*
X61402727Y-90200500D01*
X61504587Y-90173207D01*
X61595913Y-90120480D01*
X61670480Y-90045913D01*
X61723207Y-89954587D01*
X61750500Y-89852727D01*
X61750500Y-89752690D01*
X74041980Y-89752690D01*
X74041980Y-89858144D01*
X74069273Y-89960004D01*
X74122000Y-90051330D01*
X74196567Y-90125897D01*
X74287893Y-90178624D01*
X74389753Y-90205917D01*
X74389755Y-90205917D01*
X74495205Y-90205917D01*
X74495207Y-90205917D01*
X74597067Y-90178624D01*
X74609852Y-90171242D01*
X74677749Y-90154769D01*
X74743777Y-90177620D01*
X74786969Y-90232540D01*
X74791627Y-90246535D01*
X74801312Y-90282682D01*
X74801313Y-90282683D01*
X74854039Y-90374007D01*
X74928606Y-90448574D01*
X75019932Y-90501301D01*
X75121792Y-90528594D01*
X75121794Y-90528594D01*
X75227244Y-90528594D01*
X75227246Y-90528594D01*
X75329106Y-90501301D01*
X75420432Y-90448574D01*
X75494999Y-90374007D01*
X75523780Y-90324155D01*
X75574345Y-90275942D01*
X75642952Y-90262718D01*
X75707817Y-90288686D01*
X75738552Y-90324155D01*
X75790195Y-90413603D01*
X75864762Y-90488170D01*
X75956088Y-90540897D01*
X76057948Y-90568190D01*
X76057950Y-90568190D01*
X76163400Y-90568190D01*
X76163402Y-90568190D01*
X76265262Y-90540897D01*
X76356588Y-90488170D01*
X76431155Y-90413603D01*
X76483882Y-90322277D01*
X76511175Y-90220417D01*
X76511175Y-90114963D01*
X76483882Y-90013103D01*
X76431155Y-89921777D01*
X76356588Y-89847210D01*
X76270098Y-89797275D01*
X76265264Y-89794484D01*
X76265263Y-89794483D01*
X76265262Y-89794483D01*
X76163402Y-89767190D01*
X76163398Y-89767189D01*
X76158332Y-89766522D01*
X76094438Y-89738250D01*
X76055972Y-89679922D01*
X76054754Y-89611492D01*
X76070500Y-89552727D01*
X76070500Y-89447273D01*
X76043207Y-89345413D01*
X75990480Y-89254087D01*
X75915913Y-89179520D01*
X75824587Y-89126793D01*
X75722727Y-89099500D01*
X75617273Y-89099500D01*
X75515413Y-89126793D01*
X75515410Y-89126794D01*
X75424085Y-89179521D01*
X75349521Y-89254085D01*
X75296794Y-89345410D01*
X75296793Y-89345413D01*
X75269500Y-89447273D01*
X75269500Y-89552727D01*
X75274530Y-89571502D01*
X75272868Y-89641350D01*
X75233706Y-89699213D01*
X75184227Y-89724041D01*
X75169706Y-89727594D01*
X75121792Y-89727594D01*
X75019932Y-89754887D01*
X74991815Y-89771119D01*
X74974617Y-89775328D01*
X74956683Y-89774509D01*
X74939241Y-89778740D01*
X74922509Y-89772948D01*
X74904820Y-89772141D01*
X74890177Y-89761757D01*
X74873215Y-89755886D01*
X74862269Y-89741966D01*
X74847826Y-89731724D01*
X74841121Y-89715072D01*
X74830027Y-89700963D01*
X74825371Y-89686973D01*
X74816693Y-89654587D01*
X74815687Y-89650830D01*
X74762960Y-89559504D01*
X74688393Y-89484937D01*
X74597067Y-89432210D01*
X74495207Y-89404917D01*
X74389753Y-89404917D01*
X74287893Y-89432210D01*
X74287890Y-89432211D01*
X74196565Y-89484938D01*
X74122001Y-89559502D01*
X74069274Y-89650827D01*
X74069273Y-89650830D01*
X74041980Y-89752690D01*
X61750500Y-89752690D01*
X61750500Y-89747273D01*
X61723207Y-89645413D01*
X61670480Y-89554087D01*
X61595913Y-89479520D01*
X61504587Y-89426793D01*
X61402727Y-89399500D01*
X61297273Y-89399500D01*
X61195413Y-89426793D01*
X61195410Y-89426794D01*
X61104085Y-89479521D01*
X61029521Y-89554085D01*
X60976794Y-89645410D01*
X60976793Y-89645413D01*
X60949500Y-89747273D01*
X50500500Y-89747273D01*
X50500500Y-88347273D01*
X77799500Y-88347273D01*
X77799500Y-88452727D01*
X77826793Y-88554587D01*
X77879520Y-88645913D01*
X77954087Y-88720480D01*
X78045413Y-88773207D01*
X78147273Y-88800500D01*
X78147275Y-88800500D01*
X78252725Y-88800500D01*
X78252727Y-88800500D01*
X78354587Y-88773207D01*
X78407195Y-88742833D01*
X78475090Y-88726361D01*
X78541117Y-88749212D01*
X78583753Y-88802768D01*
X78585742Y-88807569D01*
X78585742Y-88807570D01*
X78638469Y-88898896D01*
X78713036Y-88973463D01*
X78804362Y-89026190D01*
X78906222Y-89053483D01*
X78906224Y-89053483D01*
X79011674Y-89053483D01*
X79011676Y-89053483D01*
X79113536Y-89026190D01*
X79204862Y-88973463D01*
X79279429Y-88898896D01*
X79332156Y-88807570D01*
X79348312Y-88747273D01*
X79599500Y-88747273D01*
X79599500Y-88852727D01*
X79626793Y-88954587D01*
X79679520Y-89045913D01*
X79754087Y-89120480D01*
X79845413Y-89173207D01*
X79947273Y-89200500D01*
X79947275Y-89200500D01*
X80052725Y-89200500D01*
X80052727Y-89200500D01*
X80154587Y-89173207D01*
X80245913Y-89120480D01*
X80312819Y-89053574D01*
X80374142Y-89020089D01*
X80443834Y-89025073D01*
X80488181Y-89053574D01*
X80554087Y-89119480D01*
X80645413Y-89172207D01*
X80747273Y-89199500D01*
X80747275Y-89199500D01*
X80852725Y-89199500D01*
X80852727Y-89199500D01*
X80954587Y-89172207D01*
X80997774Y-89147273D01*
X86649500Y-89147273D01*
X86649500Y-89252727D01*
X86676793Y-89354587D01*
X86729520Y-89445913D01*
X86804087Y-89520480D01*
X86895413Y-89573207D01*
X86899864Y-89574399D01*
X86959524Y-89610764D01*
X86990053Y-89673611D01*
X86987545Y-89726266D01*
X86964500Y-89812273D01*
X86964500Y-89917727D01*
X86991793Y-90019587D01*
X87044520Y-90110913D01*
X87119087Y-90185480D01*
X87210413Y-90238207D01*
X87312273Y-90265500D01*
X87312275Y-90265500D01*
X87417725Y-90265500D01*
X87417727Y-90265500D01*
X87519587Y-90238207D01*
X87610913Y-90185480D01*
X87685480Y-90110913D01*
X87738207Y-90019587D01*
X87765500Y-89917727D01*
X87765500Y-89812273D01*
X87761481Y-89797273D01*
X88249500Y-89797273D01*
X88249500Y-89902727D01*
X88276793Y-90004587D01*
X88329520Y-90095913D01*
X88404087Y-90170480D01*
X88495413Y-90223207D01*
X88597273Y-90250500D01*
X88597275Y-90250500D01*
X88702725Y-90250500D01*
X88702727Y-90250500D01*
X88804587Y-90223207D01*
X88895913Y-90170480D01*
X88970480Y-90095913D01*
X89023207Y-90004587D01*
X89050500Y-89902727D01*
X89050500Y-89797273D01*
X89023207Y-89695413D01*
X88970480Y-89604087D01*
X88895913Y-89529520D01*
X88809312Y-89479521D01*
X88804589Y-89476794D01*
X88804588Y-89476793D01*
X88804587Y-89476793D01*
X88702727Y-89449500D01*
X88597273Y-89449500D01*
X88495413Y-89476793D01*
X88495410Y-89476794D01*
X88404085Y-89529521D01*
X88329521Y-89604085D01*
X88276794Y-89695410D01*
X88276793Y-89695413D01*
X88249500Y-89797273D01*
X87761481Y-89797273D01*
X87738207Y-89710413D01*
X87685480Y-89619087D01*
X87610913Y-89544520D01*
X87519587Y-89491793D01*
X87519586Y-89491792D01*
X87519582Y-89491791D01*
X87515129Y-89490598D01*
X87455471Y-89454230D01*
X87424945Y-89391382D01*
X87427453Y-89338738D01*
X87450500Y-89252727D01*
X87450500Y-89147273D01*
X87423207Y-89045413D01*
X87370480Y-88954087D01*
X87295913Y-88879520D01*
X87204587Y-88826793D01*
X87102727Y-88799500D01*
X86997273Y-88799500D01*
X86895413Y-88826793D01*
X86895410Y-88826794D01*
X86804085Y-88879521D01*
X86729521Y-88954085D01*
X86676794Y-89045410D01*
X86676793Y-89045413D01*
X86649500Y-89147273D01*
X80997774Y-89147273D01*
X81045913Y-89119480D01*
X81120480Y-89044913D01*
X81173207Y-88953587D01*
X81200500Y-88851727D01*
X81200500Y-88746273D01*
X81173207Y-88644413D01*
X81120480Y-88553087D01*
X81114666Y-88547273D01*
X88199500Y-88547273D01*
X88199500Y-88652727D01*
X88224834Y-88747273D01*
X88226793Y-88754586D01*
X88226794Y-88754589D01*
X88237542Y-88773205D01*
X88279520Y-88845913D01*
X88354087Y-88920480D01*
X88445413Y-88973207D01*
X88547273Y-89000500D01*
X88547275Y-89000500D01*
X88652725Y-89000500D01*
X88652727Y-89000500D01*
X88754587Y-88973207D01*
X88845913Y-88920480D01*
X88920480Y-88845913D01*
X88973207Y-88754587D01*
X89000500Y-88652727D01*
X89000500Y-88547273D01*
X88973207Y-88445413D01*
X88920480Y-88354087D01*
X88845913Y-88279520D01*
X88754587Y-88226793D01*
X88652727Y-88199500D01*
X88547273Y-88199500D01*
X88445413Y-88226793D01*
X88445410Y-88226794D01*
X88354085Y-88279521D01*
X88279521Y-88354085D01*
X88226794Y-88445410D01*
X88226793Y-88445413D01*
X88199500Y-88547273D01*
X81114666Y-88547273D01*
X81045913Y-88478520D01*
X80954587Y-88425793D01*
X80852727Y-88398500D01*
X80747273Y-88398500D01*
X80645413Y-88425793D01*
X80645410Y-88425794D01*
X80554085Y-88478521D01*
X80487181Y-88545426D01*
X80425858Y-88578911D01*
X80356166Y-88573927D01*
X80311819Y-88545426D01*
X80245914Y-88479521D01*
X80245913Y-88479520D01*
X80154587Y-88426793D01*
X80052727Y-88399500D01*
X79947273Y-88399500D01*
X79845413Y-88426793D01*
X79845410Y-88426794D01*
X79754085Y-88479521D01*
X79679521Y-88554085D01*
X79626794Y-88645410D01*
X79626793Y-88645413D01*
X79599500Y-88747273D01*
X79348312Y-88747273D01*
X79359449Y-88705710D01*
X79359449Y-88600256D01*
X79332156Y-88498396D01*
X79279429Y-88407070D01*
X79204862Y-88332503D01*
X79113536Y-88279776D01*
X79011676Y-88252483D01*
X78906222Y-88252483D01*
X78804362Y-88279776D01*
X78804359Y-88279777D01*
X78751756Y-88310148D01*
X78683856Y-88326621D01*
X78617829Y-88303768D01*
X78575193Y-88250209D01*
X78573208Y-88245418D01*
X78573207Y-88245413D01*
X78520480Y-88154087D01*
X78445913Y-88079520D01*
X78354587Y-88026793D01*
X78252727Y-87999500D01*
X78147273Y-87999500D01*
X78045413Y-88026793D01*
X78045410Y-88026794D01*
X77954085Y-88079521D01*
X77879521Y-88154085D01*
X77826794Y-88245410D01*
X77826793Y-88245413D01*
X77799500Y-88347273D01*
X50500500Y-88347273D01*
X50500500Y-87559941D01*
X68172692Y-87559941D01*
X68172692Y-87665395D01*
X68199985Y-87767255D01*
X68252712Y-87858581D01*
X68327279Y-87933148D01*
X68418605Y-87985875D01*
X68520465Y-88013168D01*
X68520467Y-88013168D01*
X68625917Y-88013168D01*
X68625919Y-88013168D01*
X68727779Y-87985875D01*
X68819105Y-87933148D01*
X68893672Y-87858581D01*
X68946399Y-87767255D01*
X68948333Y-87760033D01*
X68984695Y-87700376D01*
X69047541Y-87669845D01*
X69116917Y-87678137D01*
X69130091Y-87684731D01*
X69193609Y-87721403D01*
X69295469Y-87748696D01*
X69295471Y-87748696D01*
X69400921Y-87748696D01*
X69400923Y-87748696D01*
X69502783Y-87721403D01*
X69594109Y-87668676D01*
X69668676Y-87594109D01*
X69721403Y-87502783D01*
X69728238Y-87477273D01*
X70689107Y-87477273D01*
X70689107Y-87582727D01*
X70716400Y-87684587D01*
X70769127Y-87775913D01*
X70843694Y-87850480D01*
X70935020Y-87903207D01*
X71036880Y-87930500D01*
X71036882Y-87930500D01*
X71142332Y-87930500D01*
X71142334Y-87930500D01*
X71244194Y-87903207D01*
X71335520Y-87850480D01*
X71410087Y-87775913D01*
X71462814Y-87684587D01*
X71490107Y-87582727D01*
X71490107Y-87477273D01*
X71465959Y-87387151D01*
X81109622Y-87387151D01*
X81109622Y-87492605D01*
X81136915Y-87594465D01*
X81189642Y-87685791D01*
X81264209Y-87760358D01*
X81355535Y-87813085D01*
X81457395Y-87840378D01*
X81457397Y-87840378D01*
X81562847Y-87840378D01*
X81562849Y-87840378D01*
X81664709Y-87813085D01*
X81756035Y-87760358D01*
X81830602Y-87685791D01*
X81883329Y-87594465D01*
X81910622Y-87492605D01*
X81910622Y-87387151D01*
X81883329Y-87285291D01*
X81830602Y-87193965D01*
X81756035Y-87119398D01*
X81664709Y-87066671D01*
X81562849Y-87039378D01*
X81457395Y-87039378D01*
X81355535Y-87066671D01*
X81355532Y-87066672D01*
X81264207Y-87119399D01*
X81189643Y-87193963D01*
X81136916Y-87285288D01*
X81136915Y-87285291D01*
X81109622Y-87387151D01*
X71465959Y-87387151D01*
X71462814Y-87375413D01*
X71410087Y-87284087D01*
X71335520Y-87209520D01*
X71244194Y-87156793D01*
X71142334Y-87129500D01*
X71036880Y-87129500D01*
X70935020Y-87156793D01*
X70935017Y-87156794D01*
X70843692Y-87209521D01*
X70769128Y-87284085D01*
X70716401Y-87375410D01*
X70716400Y-87375413D01*
X70689107Y-87477273D01*
X69728238Y-87477273D01*
X69748696Y-87400923D01*
X69748696Y-87295469D01*
X69721403Y-87193609D01*
X69668676Y-87102283D01*
X69594109Y-87027716D01*
X69502783Y-86974989D01*
X69400923Y-86947696D01*
X69295469Y-86947696D01*
X69193609Y-86974989D01*
X69193606Y-86974990D01*
X69102281Y-87027717D01*
X69027717Y-87102281D01*
X68974990Y-87193606D01*
X68974987Y-87193614D01*
X68973052Y-87200835D01*
X68936685Y-87260494D01*
X68873836Y-87291020D01*
X68804461Y-87282722D01*
X68791283Y-87276125D01*
X68727779Y-87239461D01*
X68625919Y-87212168D01*
X68520465Y-87212168D01*
X68418605Y-87239461D01*
X68418602Y-87239462D01*
X68327277Y-87292189D01*
X68252713Y-87366753D01*
X68199986Y-87458078D01*
X68199985Y-87458081D01*
X68172692Y-87559941D01*
X50500500Y-87559941D01*
X50500500Y-86047273D01*
X57999500Y-86047273D01*
X57999500Y-86152727D01*
X58026793Y-86254587D01*
X58079520Y-86345913D01*
X58154087Y-86420480D01*
X58245413Y-86473207D01*
X58347273Y-86500500D01*
X58347275Y-86500500D01*
X58452725Y-86500500D01*
X58452727Y-86500500D01*
X58554587Y-86473207D01*
X58645913Y-86420480D01*
X58720480Y-86345913D01*
X58773207Y-86254587D01*
X58775167Y-86247273D01*
X61899500Y-86247273D01*
X61899500Y-86352727D01*
X61926793Y-86454587D01*
X61979520Y-86545913D01*
X62054087Y-86620480D01*
X62145413Y-86673207D01*
X62247273Y-86700500D01*
X62247275Y-86700500D01*
X62352725Y-86700500D01*
X62352727Y-86700500D01*
X62398363Y-86688272D01*
X78454198Y-86688272D01*
X78454198Y-86793726D01*
X78481491Y-86895586D01*
X78534218Y-86986912D01*
X78608785Y-87061479D01*
X78700111Y-87114206D01*
X78801971Y-87141499D01*
X78801973Y-87141499D01*
X78907423Y-87141499D01*
X78907425Y-87141499D01*
X79009285Y-87114206D01*
X79100611Y-87061479D01*
X79137049Y-87025040D01*
X79198369Y-86991556D01*
X79268061Y-86996540D01*
X79323995Y-87038410D01*
X79331336Y-87049537D01*
X79331725Y-87050045D01*
X79331726Y-87050046D01*
X79406293Y-87124613D01*
X79497619Y-87177340D01*
X79599479Y-87204633D01*
X79599481Y-87204633D01*
X79704931Y-87204633D01*
X79704933Y-87204633D01*
X79806793Y-87177340D01*
X79898119Y-87124613D01*
X79972686Y-87050046D01*
X80025413Y-86958720D01*
X80052706Y-86856860D01*
X80052706Y-86751406D01*
X80025413Y-86649546D01*
X79972686Y-86558220D01*
X79898119Y-86483653D01*
X79806793Y-86430926D01*
X79704933Y-86403633D01*
X79599479Y-86403633D01*
X79497619Y-86430926D01*
X79497616Y-86430927D01*
X79406291Y-86483654D01*
X79369854Y-86520091D01*
X79308531Y-86553576D01*
X79238839Y-86548590D01*
X79182906Y-86506718D01*
X79175567Y-86495593D01*
X79175178Y-86495086D01*
X79100612Y-86420520D01*
X79100611Y-86420519D01*
X79009285Y-86367792D01*
X78907425Y-86340499D01*
X78801971Y-86340499D01*
X78700111Y-86367792D01*
X78700108Y-86367793D01*
X78608783Y-86420520D01*
X78534219Y-86495084D01*
X78481492Y-86586409D01*
X78481491Y-86586412D01*
X78454198Y-86688272D01*
X62398363Y-86688272D01*
X62454587Y-86673207D01*
X62545913Y-86620480D01*
X62620480Y-86545913D01*
X62673207Y-86454587D01*
X62700500Y-86352727D01*
X62700500Y-86247273D01*
X62673207Y-86145413D01*
X62620480Y-86054087D01*
X62545913Y-85979520D01*
X62454587Y-85926793D01*
X62352727Y-85899500D01*
X62247273Y-85899500D01*
X62145413Y-85926793D01*
X62145410Y-85926794D01*
X62054085Y-85979521D01*
X61979521Y-86054085D01*
X61926794Y-86145410D01*
X61926793Y-86145413D01*
X61899500Y-86247273D01*
X58775167Y-86247273D01*
X58800500Y-86152727D01*
X58800500Y-86047273D01*
X58773207Y-85945413D01*
X58720480Y-85854087D01*
X58683666Y-85817273D01*
X70675001Y-85817273D01*
X70675001Y-85922727D01*
X70702294Y-86024587D01*
X70755021Y-86115913D01*
X70829588Y-86190480D01*
X70920914Y-86243207D01*
X71022774Y-86270500D01*
X71022776Y-86270500D01*
X71128226Y-86270500D01*
X71128228Y-86270500D01*
X71214913Y-86247273D01*
X87299500Y-86247273D01*
X87299500Y-86352727D01*
X87326793Y-86454587D01*
X87379520Y-86545913D01*
X87454087Y-86620480D01*
X87545413Y-86673207D01*
X87647273Y-86700500D01*
X87647275Y-86700500D01*
X87752725Y-86700500D01*
X87752727Y-86700500D01*
X87854587Y-86673207D01*
X87945913Y-86620480D01*
X88020480Y-86545913D01*
X88073207Y-86454587D01*
X88100500Y-86352727D01*
X88100500Y-86247273D01*
X88073207Y-86145413D01*
X88020480Y-86054087D01*
X87945913Y-85979520D01*
X87854587Y-85926793D01*
X87752727Y-85899500D01*
X87647273Y-85899500D01*
X87545413Y-85926793D01*
X87545410Y-85926794D01*
X87454085Y-85979521D01*
X87379521Y-86054085D01*
X87326794Y-86145410D01*
X87326793Y-86145413D01*
X87299500Y-86247273D01*
X71214913Y-86247273D01*
X71230088Y-86243207D01*
X71321414Y-86190480D01*
X71395981Y-86115913D01*
X71448708Y-86024587D01*
X71476001Y-85922727D01*
X71476001Y-85886207D01*
X71495686Y-85819168D01*
X71548490Y-85773413D01*
X71617648Y-85763469D01*
X71632089Y-85766431D01*
X71647273Y-85770500D01*
X71647275Y-85770500D01*
X71752725Y-85770500D01*
X71752727Y-85770500D01*
X71854587Y-85743207D01*
X71945913Y-85690480D01*
X72020480Y-85615913D01*
X72073207Y-85524587D01*
X72093923Y-85447273D01*
X90499500Y-85447273D01*
X90499500Y-85552727D01*
X90526793Y-85654587D01*
X90579520Y-85745913D01*
X90654087Y-85820480D01*
X90745413Y-85873207D01*
X90847273Y-85900500D01*
X90847275Y-85900500D01*
X90952725Y-85900500D01*
X90952727Y-85900500D01*
X91054587Y-85873207D01*
X91145913Y-85820480D01*
X91220480Y-85745913D01*
X91273207Y-85654587D01*
X91294540Y-85574969D01*
X91330902Y-85515312D01*
X91393748Y-85484782D01*
X91463124Y-85493076D01*
X91517002Y-85537560D01*
X91522463Y-85547701D01*
X91522729Y-85547548D01*
X91526793Y-85554587D01*
X91579520Y-85645913D01*
X91654087Y-85720480D01*
X91745413Y-85773207D01*
X91847273Y-85800500D01*
X91847275Y-85800500D01*
X91952725Y-85800500D01*
X91952727Y-85800500D01*
X92054587Y-85773207D01*
X92145913Y-85720480D01*
X92220480Y-85645913D01*
X92273207Y-85554587D01*
X92300500Y-85452727D01*
X92300500Y-85347273D01*
X92273207Y-85245413D01*
X92220480Y-85154087D01*
X92145913Y-85079520D01*
X92054587Y-85026793D01*
X91952727Y-84999500D01*
X91847273Y-84999500D01*
X91745413Y-85026793D01*
X91745410Y-85026794D01*
X91654085Y-85079521D01*
X91579521Y-85154085D01*
X91526794Y-85245410D01*
X91526793Y-85245413D01*
X91507539Y-85317273D01*
X91505461Y-85325027D01*
X91469096Y-85384688D01*
X91406249Y-85415217D01*
X91336874Y-85406922D01*
X91282996Y-85362437D01*
X91277537Y-85352297D01*
X91277271Y-85352452D01*
X91261437Y-85325027D01*
X91220480Y-85254087D01*
X91145913Y-85179520D01*
X91054587Y-85126793D01*
X90952727Y-85099500D01*
X90847273Y-85099500D01*
X90745413Y-85126793D01*
X90745410Y-85126794D01*
X90654085Y-85179521D01*
X90579521Y-85254085D01*
X90526794Y-85345410D01*
X90526793Y-85345413D01*
X90499500Y-85447273D01*
X72093923Y-85447273D01*
X72100500Y-85422727D01*
X72100500Y-85317273D01*
X72073207Y-85215413D01*
X72020480Y-85124087D01*
X71945913Y-85049520D01*
X71854587Y-84996793D01*
X71781737Y-84977273D01*
X77921949Y-84977273D01*
X77921949Y-85082727D01*
X77949242Y-85184587D01*
X78001969Y-85275913D01*
X78076536Y-85350480D01*
X78167862Y-85403207D01*
X78269722Y-85430500D01*
X78269724Y-85430500D01*
X78375174Y-85430500D01*
X78375176Y-85430500D01*
X78477036Y-85403207D01*
X78568362Y-85350480D01*
X78642929Y-85275913D01*
X78695656Y-85184587D01*
X78722949Y-85082727D01*
X78722949Y-84977273D01*
X78695656Y-84875413D01*
X78642929Y-84784087D01*
X78568362Y-84709520D01*
X78477036Y-84656793D01*
X78375176Y-84629500D01*
X78269722Y-84629500D01*
X78167862Y-84656793D01*
X78167859Y-84656794D01*
X78076534Y-84709521D01*
X78001970Y-84784085D01*
X77949243Y-84875410D01*
X77949242Y-84875413D01*
X77921949Y-84977273D01*
X71781737Y-84977273D01*
X71752727Y-84969500D01*
X71647273Y-84969500D01*
X71636617Y-84972355D01*
X71566767Y-84970688D01*
X71508907Y-84931522D01*
X71481406Y-84867293D01*
X71484754Y-84820490D01*
X71500500Y-84761727D01*
X71500500Y-84656273D01*
X71473207Y-84554413D01*
X71420480Y-84463087D01*
X71345913Y-84388520D01*
X71254587Y-84335793D01*
X71152727Y-84308500D01*
X71047273Y-84308500D01*
X70945413Y-84335793D01*
X70945410Y-84335794D01*
X70854085Y-84388521D01*
X70779521Y-84463085D01*
X70726794Y-84554410D01*
X70726793Y-84554413D01*
X70699500Y-84656273D01*
X70699500Y-84761727D01*
X70726793Y-84863587D01*
X70779520Y-84954913D01*
X70854087Y-85029480D01*
X70945413Y-85082207D01*
X71047273Y-85109500D01*
X71047275Y-85109500D01*
X71152725Y-85109500D01*
X71152727Y-85109500D01*
X71163374Y-85106647D01*
X71197600Y-85107461D01*
X71231913Y-85107898D01*
X71232509Y-85108291D01*
X71233224Y-85108309D01*
X71261616Y-85127524D01*
X71290207Y-85146416D01*
X71290495Y-85147069D01*
X71291087Y-85147470D01*
X71304581Y-85178982D01*
X71318421Y-85210336D01*
X71318365Y-85211171D01*
X71318592Y-85211699D01*
X71317973Y-85245627D01*
X71316951Y-85252142D01*
X71299500Y-85317273D01*
X71299500Y-85363455D01*
X71298004Y-85372998D01*
X71287044Y-85396209D01*
X71279815Y-85420831D01*
X71272376Y-85427276D01*
X71268173Y-85436179D01*
X71246404Y-85449781D01*
X71227011Y-85466586D01*
X71217269Y-85467986D01*
X71208920Y-85473204D01*
X71183255Y-85472877D01*
X71157853Y-85476530D01*
X71143413Y-85473569D01*
X71128228Y-85469500D01*
X71022774Y-85469500D01*
X70920914Y-85496793D01*
X70920911Y-85496794D01*
X70829586Y-85549521D01*
X70755022Y-85624085D01*
X70702295Y-85715410D01*
X70702294Y-85715413D01*
X70675001Y-85817273D01*
X58683666Y-85817273D01*
X58645913Y-85779520D01*
X58554587Y-85726793D01*
X58452727Y-85699500D01*
X58347273Y-85699500D01*
X58245413Y-85726793D01*
X58245410Y-85726794D01*
X58154085Y-85779521D01*
X58079521Y-85854085D01*
X58026794Y-85945410D01*
X58026793Y-85945413D01*
X57999500Y-86047273D01*
X50500500Y-86047273D01*
X50500500Y-82538347D01*
X75639500Y-82538347D01*
X75639500Y-82643801D01*
X75641892Y-82652726D01*
X75666793Y-82745660D01*
X75666794Y-82745663D01*
X75680922Y-82770133D01*
X75719520Y-82836987D01*
X75794087Y-82911554D01*
X75885413Y-82964281D01*
X75987273Y-82991574D01*
X75987275Y-82991574D01*
X76092725Y-82991574D01*
X76092727Y-82991574D01*
X76194587Y-82964281D01*
X76285913Y-82911554D01*
X76360480Y-82836987D01*
X76413207Y-82745661D01*
X76440500Y-82643801D01*
X76440500Y-82547273D01*
X77899500Y-82547273D01*
X77899500Y-82652727D01*
X77926793Y-82754587D01*
X77979520Y-82845913D01*
X78054087Y-82920480D01*
X78145413Y-82973207D01*
X78247273Y-83000500D01*
X78247275Y-83000500D01*
X78333745Y-83000500D01*
X78400784Y-83020185D01*
X78446539Y-83072989D01*
X78456483Y-83142147D01*
X78427458Y-83205703D01*
X78421426Y-83212181D01*
X78379521Y-83254085D01*
X78326794Y-83345410D01*
X78326793Y-83345413D01*
X78299500Y-83447273D01*
X78299500Y-83552727D01*
X78326793Y-83654587D01*
X78379520Y-83745913D01*
X78454087Y-83820480D01*
X78545413Y-83873207D01*
X78647273Y-83900500D01*
X78647275Y-83900500D01*
X78752725Y-83900500D01*
X78752727Y-83900500D01*
X78854587Y-83873207D01*
X78945913Y-83820480D01*
X79020480Y-83745913D01*
X79073207Y-83654587D01*
X79100500Y-83552727D01*
X79100500Y-83447273D01*
X79073207Y-83345413D01*
X79020480Y-83254087D01*
X78945913Y-83179520D01*
X78854587Y-83126793D01*
X78752727Y-83099500D01*
X78666255Y-83099500D01*
X78599216Y-83079815D01*
X78553461Y-83027011D01*
X78543517Y-82957853D01*
X78572542Y-82894297D01*
X78578574Y-82887819D01*
X78620480Y-82845913D01*
X78673207Y-82754587D01*
X78700500Y-82652727D01*
X78700500Y-82547273D01*
X78673207Y-82445413D01*
X78620480Y-82354087D01*
X78545913Y-82279520D01*
X78454587Y-82226793D01*
X78352727Y-82199500D01*
X78247273Y-82199500D01*
X78145413Y-82226793D01*
X78145410Y-82226794D01*
X78054085Y-82279521D01*
X77979521Y-82354085D01*
X77926794Y-82445410D01*
X77926793Y-82445413D01*
X77899500Y-82547273D01*
X76440500Y-82547273D01*
X76440500Y-82538347D01*
X76413207Y-82436487D01*
X76360480Y-82345161D01*
X76285913Y-82270594D01*
X76194587Y-82217867D01*
X76092727Y-82190574D01*
X75987273Y-82190574D01*
X75885413Y-82217867D01*
X75885410Y-82217868D01*
X75794085Y-82270595D01*
X75719521Y-82345159D01*
X75666794Y-82436484D01*
X75666793Y-82436487D01*
X75639500Y-82538347D01*
X50500500Y-82538347D01*
X50500500Y-80374038D01*
X52399500Y-80374038D01*
X52399500Y-80625961D01*
X52438910Y-80874785D01*
X52516760Y-81114383D01*
X52587943Y-81254085D01*
X52619432Y-81315887D01*
X52631132Y-81338848D01*
X52779201Y-81542649D01*
X52779205Y-81542654D01*
X52957345Y-81720794D01*
X52957350Y-81720798D01*
X53094549Y-81820478D01*
X53161155Y-81868870D01*
X53304184Y-81941747D01*
X53385616Y-81983239D01*
X53385618Y-81983239D01*
X53385621Y-81983241D01*
X53625215Y-82061090D01*
X53874038Y-82100500D01*
X53874039Y-82100500D01*
X54125961Y-82100500D01*
X54125962Y-82100500D01*
X54374785Y-82061090D01*
X54614379Y-81983241D01*
X54838845Y-81868870D01*
X55042656Y-81720793D01*
X55220793Y-81542656D01*
X55248815Y-81504087D01*
X55290093Y-81447273D01*
X73579500Y-81447273D01*
X73579500Y-81552727D01*
X73606793Y-81654587D01*
X73659520Y-81745913D01*
X73734087Y-81820480D01*
X73825413Y-81873207D01*
X73927273Y-81900500D01*
X73927275Y-81900500D01*
X74032725Y-81900500D01*
X74032727Y-81900500D01*
X74134587Y-81873207D01*
X74225913Y-81820480D01*
X74300480Y-81745913D01*
X74328562Y-81697273D01*
X90899500Y-81697273D01*
X90899500Y-81802727D01*
X90926793Y-81904587D01*
X90979520Y-81995913D01*
X91054087Y-82070480D01*
X91145413Y-82123207D01*
X91247273Y-82150500D01*
X91247275Y-82150500D01*
X91352725Y-82150500D01*
X91352727Y-82150500D01*
X91454587Y-82123207D01*
X91545913Y-82070480D01*
X91620480Y-81995913D01*
X91673207Y-81904587D01*
X91700500Y-81802727D01*
X91700500Y-81697273D01*
X91673207Y-81595413D01*
X91620480Y-81504087D01*
X91545913Y-81429520D01*
X91454587Y-81376793D01*
X91352727Y-81349500D01*
X91247273Y-81349500D01*
X91145413Y-81376793D01*
X91145410Y-81376794D01*
X91054085Y-81429521D01*
X90979521Y-81504085D01*
X90926794Y-81595410D01*
X90926793Y-81595413D01*
X90899500Y-81697273D01*
X74328562Y-81697273D01*
X74353207Y-81654587D01*
X74380500Y-81552727D01*
X74380500Y-81447273D01*
X74353207Y-81345413D01*
X74300480Y-81254087D01*
X74225913Y-81179520D01*
X74134587Y-81126793D01*
X74032727Y-81099500D01*
X73927273Y-81099500D01*
X73825413Y-81126793D01*
X73825410Y-81126794D01*
X73734085Y-81179521D01*
X73659521Y-81254085D01*
X73606794Y-81345410D01*
X73606793Y-81345413D01*
X73579500Y-81447273D01*
X55290093Y-81447273D01*
X55348952Y-81366261D01*
X55364100Y-81345410D01*
X55368870Y-81338845D01*
X55483241Y-81114379D01*
X55561090Y-80874785D01*
X55563010Y-80862661D01*
X75999500Y-80862661D01*
X75999500Y-80968115D01*
X76026793Y-81069975D01*
X76079520Y-81161301D01*
X76154087Y-81235868D01*
X76245413Y-81288595D01*
X76347273Y-81315888D01*
X76347275Y-81315888D01*
X76452725Y-81315888D01*
X76452727Y-81315888D01*
X76554587Y-81288595D01*
X76645913Y-81235868D01*
X76720480Y-81161301D01*
X76773207Y-81069975D01*
X76800500Y-80968115D01*
X76800500Y-80862661D01*
X76773207Y-80760801D01*
X76720480Y-80669475D01*
X76645913Y-80594908D01*
X76554587Y-80542181D01*
X76452727Y-80514888D01*
X76347273Y-80514888D01*
X76245413Y-80542181D01*
X76245410Y-80542182D01*
X76154085Y-80594909D01*
X76079521Y-80669473D01*
X76026794Y-80760798D01*
X76026793Y-80760801D01*
X75999500Y-80862661D01*
X55563010Y-80862661D01*
X55600500Y-80625962D01*
X55600500Y-80374038D01*
X55561090Y-80125215D01*
X55483241Y-79885621D01*
X55483239Y-79885618D01*
X55483239Y-79885616D01*
X55416475Y-79754586D01*
X55368870Y-79661155D01*
X55347856Y-79632231D01*
X55220798Y-79457350D01*
X55220794Y-79457345D01*
X55042654Y-79279205D01*
X55042649Y-79279201D01*
X54838848Y-79131132D01*
X54838847Y-79131131D01*
X54838845Y-79131130D01*
X54768747Y-79095413D01*
X54614383Y-79016760D01*
X54482289Y-78973840D01*
X54374785Y-78938910D01*
X54125962Y-78899500D01*
X53874038Y-78899500D01*
X53749626Y-78919205D01*
X53625214Y-78938910D01*
X53385616Y-79016760D01*
X53161151Y-79131132D01*
X52957350Y-79279201D01*
X52957345Y-79279205D01*
X52779205Y-79457345D01*
X52779201Y-79457350D01*
X52631132Y-79661151D01*
X52516760Y-79885616D01*
X52438910Y-80125214D01*
X52399500Y-80374038D01*
X50500500Y-80374038D01*
X50500500Y-78860172D01*
X71036065Y-78860172D01*
X71036065Y-78965626D01*
X71063358Y-79067486D01*
X71116085Y-79158812D01*
X71190652Y-79233379D01*
X71281978Y-79286106D01*
X71383838Y-79313399D01*
X71383840Y-79313399D01*
X71489290Y-79313399D01*
X71489292Y-79313399D01*
X71575675Y-79290253D01*
X72165262Y-79290253D01*
X72165262Y-79395707D01*
X72192555Y-79497567D01*
X72245282Y-79588893D01*
X72319849Y-79663460D01*
X72319855Y-79663463D01*
X72323032Y-79665901D01*
X72325041Y-79668652D01*
X72325596Y-79669207D01*
X72325509Y-79669293D01*
X72364240Y-79722325D01*
X72368400Y-79792071D01*
X72335236Y-79851963D01*
X72291466Y-79895733D01*
X72238739Y-79987058D01*
X72238738Y-79987061D01*
X72211445Y-80088921D01*
X72211445Y-80194375D01*
X72238738Y-80296235D01*
X72291465Y-80387561D01*
X72366032Y-80462128D01*
X72457358Y-80514855D01*
X72559218Y-80542148D01*
X72559220Y-80542148D01*
X72664670Y-80542148D01*
X72664672Y-80542148D01*
X72766532Y-80514855D01*
X72857858Y-80462128D01*
X72932425Y-80387561D01*
X72985152Y-80296235D01*
X73012445Y-80194375D01*
X73012445Y-80088921D01*
X73012444Y-80088918D01*
X73012113Y-80086404D01*
X73012445Y-80084274D01*
X73012445Y-80080794D01*
X73012987Y-80080794D01*
X73022874Y-80017368D01*
X73069251Y-79965110D01*
X73136518Y-79946220D01*
X73167061Y-79952478D01*
X73167562Y-79950609D01*
X73175411Y-79952712D01*
X73175413Y-79952713D01*
X73277273Y-79980006D01*
X73277275Y-79980006D01*
X73382725Y-79980006D01*
X73382727Y-79980006D01*
X73484587Y-79952713D01*
X73575913Y-79899986D01*
X73650480Y-79825419D01*
X73703207Y-79734093D01*
X73730500Y-79632233D01*
X73730500Y-79526779D01*
X73714659Y-79467659D01*
X74090500Y-79467659D01*
X74090500Y-79573113D01*
X74117793Y-79674973D01*
X74170520Y-79766299D01*
X74245087Y-79840866D01*
X74336413Y-79893593D01*
X74438273Y-79920886D01*
X74438275Y-79920886D01*
X74543725Y-79920886D01*
X74543727Y-79920886D01*
X74645587Y-79893593D01*
X74736913Y-79840866D01*
X74774605Y-79803173D01*
X74835926Y-79769689D01*
X74905617Y-79774673D01*
X74961551Y-79816543D01*
X74969663Y-79828841D01*
X74979520Y-79845913D01*
X75054087Y-79920480D01*
X75145413Y-79973207D01*
X75247273Y-80000500D01*
X75247275Y-80000500D01*
X75352725Y-80000500D01*
X75352727Y-80000500D01*
X75454587Y-79973207D01*
X75545913Y-79920480D01*
X75620480Y-79845913D01*
X75673207Y-79754587D01*
X75700500Y-79652727D01*
X75700500Y-79547273D01*
X75673207Y-79445413D01*
X75620480Y-79354087D01*
X75545913Y-79279520D01*
X75454587Y-79226793D01*
X75352727Y-79199500D01*
X75247273Y-79199500D01*
X75145413Y-79226793D01*
X75145410Y-79226794D01*
X75054085Y-79279521D01*
X75016394Y-79317212D01*
X74955071Y-79350697D01*
X74885379Y-79345711D01*
X74829446Y-79303839D01*
X74821336Y-79291544D01*
X74811480Y-79274473D01*
X74736913Y-79199906D01*
X74645587Y-79147179D01*
X74543727Y-79119886D01*
X74438273Y-79119886D01*
X74336413Y-79147179D01*
X74336410Y-79147180D01*
X74245085Y-79199907D01*
X74170521Y-79274471D01*
X74117794Y-79365796D01*
X74117793Y-79365799D01*
X74090500Y-79467659D01*
X73714659Y-79467659D01*
X73703207Y-79424919D01*
X73650480Y-79333593D01*
X73575913Y-79259026D01*
X73484587Y-79206299D01*
X73382727Y-79179006D01*
X73277273Y-79179006D01*
X73175413Y-79206299D01*
X73175410Y-79206300D01*
X73113038Y-79242311D01*
X73045138Y-79258784D01*
X72979111Y-79235931D01*
X72945662Y-79193914D01*
X72943033Y-79195432D01*
X72921890Y-79158812D01*
X72886242Y-79097067D01*
X72811675Y-79022500D01*
X72720349Y-78969773D01*
X72618489Y-78942480D01*
X72513035Y-78942480D01*
X72411175Y-78969773D01*
X72411172Y-78969774D01*
X72319847Y-79022501D01*
X72245283Y-79097065D01*
X72192556Y-79188390D01*
X72192555Y-79188393D01*
X72165262Y-79290253D01*
X71575675Y-79290253D01*
X71591152Y-79286106D01*
X71682478Y-79233379D01*
X71757045Y-79158812D01*
X71809772Y-79067486D01*
X71837065Y-78965626D01*
X71837065Y-78860172D01*
X71810946Y-78762692D01*
X77974500Y-78762692D01*
X77974500Y-78868146D01*
X78001793Y-78970006D01*
X78054520Y-79061332D01*
X78129087Y-79135899D01*
X78220413Y-79188626D01*
X78322273Y-79215919D01*
X78322275Y-79215919D01*
X78427725Y-79215919D01*
X78427727Y-79215919D01*
X78529587Y-79188626D01*
X78620913Y-79135899D01*
X78695480Y-79061332D01*
X78748207Y-78970006D01*
X78775500Y-78868146D01*
X78775500Y-78762692D01*
X78748207Y-78660832D01*
X78695480Y-78569506D01*
X78620913Y-78494939D01*
X78529587Y-78442212D01*
X78427727Y-78414919D01*
X78322273Y-78414919D01*
X78220413Y-78442212D01*
X78220410Y-78442213D01*
X78129085Y-78494940D01*
X78054521Y-78569504D01*
X78001794Y-78660829D01*
X78001793Y-78660832D01*
X77974500Y-78762692D01*
X71810946Y-78762692D01*
X71809772Y-78758312D01*
X71757045Y-78666986D01*
X71682478Y-78592419D01*
X71591152Y-78539692D01*
X71489292Y-78512399D01*
X71383838Y-78512399D01*
X71281978Y-78539692D01*
X71281975Y-78539693D01*
X71190650Y-78592420D01*
X71116086Y-78666984D01*
X71063359Y-78758309D01*
X71063359Y-78758310D01*
X71063358Y-78758312D01*
X71036065Y-78860172D01*
X50500500Y-78860172D01*
X50500500Y-76856033D01*
X70219081Y-76856033D01*
X70219081Y-76961487D01*
X70223434Y-76977730D01*
X70246374Y-77063346D01*
X70246375Y-77063349D01*
X70299102Y-77154674D01*
X70368207Y-77223779D01*
X70401692Y-77285102D01*
X70396708Y-77354794D01*
X70368208Y-77399141D01*
X70304520Y-77462829D01*
X70251794Y-77554152D01*
X70251793Y-77554155D01*
X70224500Y-77656015D01*
X70224500Y-77761469D01*
X70251793Y-77863329D01*
X70304520Y-77954655D01*
X70379087Y-78029222D01*
X70470413Y-78081949D01*
X70572273Y-78109242D01*
X70572275Y-78109242D01*
X70677725Y-78109242D01*
X70677727Y-78109242D01*
X70779587Y-78081949D01*
X70870913Y-78029222D01*
X70945480Y-77954655D01*
X70998207Y-77863329D01*
X71025500Y-77761469D01*
X71025500Y-77656015D01*
X70998207Y-77554155D01*
X70945480Y-77462829D01*
X70876373Y-77393722D01*
X70842888Y-77332399D01*
X70847872Y-77262707D01*
X70876369Y-77218364D01*
X70940061Y-77154673D01*
X70992788Y-77063347D01*
X71015729Y-76977728D01*
X92862183Y-76977728D01*
X92862183Y-77083182D01*
X92889474Y-77185032D01*
X92889476Y-77185041D01*
X92889477Y-77185044D01*
X92942204Y-77276369D01*
X93016770Y-77350935D01*
X93022521Y-77355348D01*
X93063724Y-77411776D01*
X93067878Y-77481522D01*
X93041982Y-77528309D01*
X93044432Y-77530189D01*
X93039485Y-77536635D01*
X92963719Y-77667863D01*
X92924500Y-77814234D01*
X92924500Y-77965765D01*
X92963719Y-78112136D01*
X93001602Y-78177750D01*
X93039485Y-78243365D01*
X93146635Y-78350515D01*
X93277865Y-78426281D01*
X93424234Y-78465500D01*
X93424236Y-78465500D01*
X93575764Y-78465500D01*
X93575766Y-78465500D01*
X93722135Y-78426281D01*
X93853365Y-78350515D01*
X93960515Y-78243365D01*
X94036281Y-78112135D01*
X94075500Y-77965766D01*
X94075500Y-77814234D01*
X94036281Y-77667865D01*
X93960515Y-77536635D01*
X93853365Y-77429485D01*
X93722135Y-77353719D01*
X93718189Y-77352661D01*
X93715237Y-77350862D01*
X93714631Y-77350611D01*
X93714670Y-77350516D01*
X93658531Y-77316295D01*
X93628003Y-77253448D01*
X93634849Y-77193177D01*
X93633786Y-77192893D01*
X93635687Y-77185795D01*
X93635730Y-77185424D01*
X93635882Y-77185054D01*
X93635890Y-77185042D01*
X93663183Y-77083182D01*
X93663183Y-76977728D01*
X93635890Y-76875868D01*
X93583163Y-76784542D01*
X93508596Y-76709975D01*
X93417270Y-76657248D01*
X93315410Y-76629955D01*
X93209956Y-76629955D01*
X93108096Y-76657248D01*
X93108093Y-76657249D01*
X93016768Y-76709976D01*
X92942204Y-76784540D01*
X92889477Y-76875865D01*
X92889476Y-76875868D01*
X92862183Y-76977728D01*
X71015729Y-76977728D01*
X71020081Y-76961487D01*
X71020081Y-76856033D01*
X70992788Y-76754173D01*
X70940061Y-76662847D01*
X70865494Y-76588280D01*
X70774168Y-76535553D01*
X70672308Y-76508260D01*
X70566854Y-76508260D01*
X70464994Y-76535553D01*
X70464991Y-76535554D01*
X70373666Y-76588281D01*
X70299102Y-76662845D01*
X70246375Y-76754170D01*
X70246374Y-76754173D01*
X70219081Y-76856033D01*
X50500500Y-76856033D01*
X50500500Y-74647273D01*
X68299500Y-74647273D01*
X68299500Y-74752727D01*
X68326793Y-74854587D01*
X68379520Y-74945913D01*
X68454087Y-75020480D01*
X68545413Y-75073207D01*
X68647273Y-75100500D01*
X68647275Y-75100500D01*
X68752725Y-75100500D01*
X68752727Y-75100500D01*
X68854587Y-75073207D01*
X68945913Y-75020480D01*
X69020480Y-74945913D01*
X69073207Y-74854587D01*
X69100500Y-74752727D01*
X69100500Y-74647273D01*
X69073705Y-74547273D01*
X78999500Y-74547273D01*
X78999500Y-74652727D01*
X79026295Y-74752726D01*
X79026793Y-74754586D01*
X79026794Y-74754589D01*
X79079521Y-74845914D01*
X79145926Y-74912319D01*
X79179411Y-74973642D01*
X79174427Y-75043334D01*
X79145926Y-75087681D01*
X79079521Y-75154085D01*
X79026794Y-75245410D01*
X79026793Y-75245413D01*
X78999500Y-75347273D01*
X78999500Y-75452727D01*
X79026793Y-75554587D01*
X79079520Y-75645913D01*
X79154087Y-75720480D01*
X79245413Y-75773207D01*
X79347273Y-75800500D01*
X79347275Y-75800500D01*
X79452725Y-75800500D01*
X79452727Y-75800500D01*
X79554587Y-75773207D01*
X79645913Y-75720480D01*
X79720480Y-75645913D01*
X79773207Y-75554587D01*
X79800500Y-75452727D01*
X79800500Y-75347273D01*
X79773207Y-75245413D01*
X79720480Y-75154087D01*
X79654074Y-75087681D01*
X79620589Y-75026358D01*
X79625573Y-74956666D01*
X79654074Y-74912319D01*
X79720480Y-74845913D01*
X79773207Y-74754587D01*
X79800500Y-74652727D01*
X79800500Y-74647273D01*
X84699500Y-74647273D01*
X84699500Y-74752727D01*
X84726793Y-74854587D01*
X84779520Y-74945913D01*
X84854087Y-75020480D01*
X84945413Y-75073207D01*
X85047273Y-75100500D01*
X85047275Y-75100500D01*
X85152725Y-75100500D01*
X85152727Y-75100500D01*
X85254587Y-75073207D01*
X85345913Y-75020480D01*
X85420480Y-74945913D01*
X85473207Y-74854587D01*
X85500500Y-74752727D01*
X85500500Y-74647273D01*
X85473207Y-74545413D01*
X85439640Y-74487273D01*
X88259500Y-74487273D01*
X88259500Y-74592727D01*
X88286793Y-74694587D01*
X88339520Y-74785913D01*
X88414087Y-74860480D01*
X88505413Y-74913207D01*
X88607273Y-74940500D01*
X88607275Y-74940500D01*
X88712725Y-74940500D01*
X88712727Y-74940500D01*
X88814587Y-74913207D01*
X88905913Y-74860480D01*
X88980480Y-74785913D01*
X89033207Y-74694587D01*
X89060500Y-74592727D01*
X89060500Y-74487273D01*
X89033207Y-74385413D01*
X88980480Y-74294087D01*
X88905913Y-74219520D01*
X88814587Y-74166793D01*
X88712727Y-74139500D01*
X88607273Y-74139500D01*
X88505413Y-74166793D01*
X88505410Y-74166794D01*
X88414085Y-74219521D01*
X88339521Y-74294085D01*
X88286794Y-74385410D01*
X88286793Y-74385413D01*
X88259500Y-74487273D01*
X85439640Y-74487273D01*
X85420480Y-74454087D01*
X85345913Y-74379520D01*
X85254587Y-74326793D01*
X85152727Y-74299500D01*
X85047273Y-74299500D01*
X84945413Y-74326793D01*
X84945410Y-74326794D01*
X84854085Y-74379521D01*
X84779521Y-74454085D01*
X84726794Y-74545410D01*
X84726794Y-74545411D01*
X84726793Y-74545413D01*
X84699500Y-74647273D01*
X79800500Y-74647273D01*
X79800500Y-74547273D01*
X79773207Y-74445413D01*
X79720480Y-74354087D01*
X79645913Y-74279520D01*
X79554587Y-74226793D01*
X79452727Y-74199500D01*
X79347273Y-74199500D01*
X79245413Y-74226793D01*
X79245410Y-74226794D01*
X79154085Y-74279521D01*
X79079521Y-74354085D01*
X79026794Y-74445410D01*
X79026793Y-74445413D01*
X78999500Y-74547273D01*
X69073705Y-74547273D01*
X69073207Y-74545413D01*
X69020480Y-74454087D01*
X68945913Y-74379520D01*
X68854587Y-74326793D01*
X68752727Y-74299500D01*
X68647273Y-74299500D01*
X68545413Y-74326793D01*
X68545410Y-74326794D01*
X68454085Y-74379521D01*
X68379521Y-74454085D01*
X68326794Y-74545410D01*
X68326794Y-74545411D01*
X68326793Y-74545413D01*
X68299500Y-74647273D01*
X50500500Y-74647273D01*
X50500500Y-72897903D01*
X92856668Y-72897903D01*
X92856668Y-73003357D01*
X92883961Y-73105217D01*
X92936688Y-73196543D01*
X93011255Y-73271110D01*
X93102581Y-73323837D01*
X93204441Y-73351130D01*
X93204443Y-73351130D01*
X93309893Y-73351130D01*
X93309895Y-73351130D01*
X93411755Y-73323837D01*
X93503081Y-73271110D01*
X93577648Y-73196543D01*
X93630375Y-73105217D01*
X93657668Y-73003357D01*
X93657668Y-72897903D01*
X93631174Y-72799025D01*
X93632837Y-72729178D01*
X93672000Y-72671315D01*
X93718853Y-72647160D01*
X93722135Y-72646281D01*
X93853365Y-72570515D01*
X93960515Y-72463365D01*
X94036281Y-72332135D01*
X94075500Y-72185766D01*
X94075500Y-72034234D01*
X94036281Y-71887865D01*
X93960515Y-71756635D01*
X93853365Y-71649485D01*
X93787750Y-71611602D01*
X93722136Y-71573719D01*
X93648950Y-71554109D01*
X93575766Y-71534500D01*
X93424234Y-71534500D01*
X93277863Y-71573719D01*
X93146635Y-71649485D01*
X93146632Y-71649487D01*
X93039487Y-71756632D01*
X93039485Y-71756635D01*
X92963719Y-71887863D01*
X92924500Y-72034234D01*
X92924500Y-72185765D01*
X92963719Y-72332136D01*
X93004007Y-72401917D01*
X93039485Y-72463365D01*
X93039486Y-72463366D01*
X93043176Y-72469757D01*
X93059649Y-72537658D01*
X93036797Y-72603685D01*
X93016902Y-72624303D01*
X93017002Y-72624403D01*
X93011448Y-72629956D01*
X93011284Y-72630127D01*
X93011258Y-72630146D01*
X92936689Y-72704715D01*
X92883962Y-72796040D01*
X92883961Y-72796043D01*
X92856668Y-72897903D01*
X50500500Y-72897903D01*
X50500500Y-71547273D01*
X69999500Y-71547273D01*
X69999500Y-71652727D01*
X70026793Y-71754587D01*
X70079520Y-71845913D01*
X70154087Y-71920480D01*
X70245413Y-71973207D01*
X70347273Y-72000500D01*
X70347275Y-72000500D01*
X70452725Y-72000500D01*
X70452727Y-72000500D01*
X70554587Y-71973207D01*
X70645913Y-71920480D01*
X70720480Y-71845913D01*
X70773207Y-71754587D01*
X70800500Y-71652727D01*
X70800500Y-71647273D01*
X79299500Y-71647273D01*
X79299500Y-71752727D01*
X79326793Y-71854587D01*
X79379520Y-71945913D01*
X79454087Y-72020480D01*
X79545413Y-72073207D01*
X79647273Y-72100500D01*
X79647275Y-72100500D01*
X79752725Y-72100500D01*
X79752727Y-72100500D01*
X79854587Y-72073207D01*
X79945913Y-72020480D01*
X80020480Y-71945913D01*
X80073207Y-71854587D01*
X80100500Y-71752727D01*
X80100500Y-71647273D01*
X80073207Y-71545413D01*
X80020480Y-71454087D01*
X79945913Y-71379520D01*
X79854587Y-71326793D01*
X79752727Y-71299500D01*
X79647273Y-71299500D01*
X79545413Y-71326793D01*
X79545410Y-71326794D01*
X79454085Y-71379521D01*
X79379521Y-71454085D01*
X79326794Y-71545410D01*
X79326793Y-71545413D01*
X79299500Y-71647273D01*
X70800500Y-71647273D01*
X70800500Y-71547273D01*
X70773207Y-71445413D01*
X70720480Y-71354087D01*
X70645913Y-71279520D01*
X70554587Y-71226793D01*
X70452727Y-71199500D01*
X70347273Y-71199500D01*
X70245413Y-71226793D01*
X70245410Y-71226794D01*
X70154085Y-71279521D01*
X70079521Y-71354085D01*
X70026794Y-71445410D01*
X70026793Y-71445413D01*
X69999500Y-71547273D01*
X50500500Y-71547273D01*
X50500500Y-71197273D01*
X86549500Y-71197273D01*
X86549500Y-71302727D01*
X86576793Y-71404587D01*
X86629520Y-71495913D01*
X86704087Y-71570480D01*
X86795413Y-71623207D01*
X86897273Y-71650500D01*
X86897275Y-71650500D01*
X87002725Y-71650500D01*
X87002727Y-71650500D01*
X87104587Y-71623207D01*
X87195913Y-71570480D01*
X87270480Y-71495913D01*
X87323207Y-71404587D01*
X87350500Y-71302727D01*
X87350500Y-71197273D01*
X87323207Y-71095413D01*
X87270480Y-71004087D01*
X87195913Y-70929520D01*
X87104587Y-70876793D01*
X87002727Y-70849500D01*
X86897273Y-70849500D01*
X86795413Y-70876793D01*
X86795410Y-70876794D01*
X86704085Y-70929521D01*
X86629521Y-71004085D01*
X86576794Y-71095410D01*
X86576793Y-71095413D01*
X86549500Y-71197273D01*
X50500500Y-71197273D01*
X50500500Y-65834108D01*
X55299500Y-65834108D01*
X55299500Y-65965891D01*
X55333608Y-66093187D01*
X55363760Y-66145410D01*
X55399500Y-66207314D01*
X55399502Y-66207316D01*
X55475215Y-66283029D01*
X55508700Y-66344352D01*
X55503716Y-66414044D01*
X55482905Y-66446437D01*
X55484469Y-66447637D01*
X55479522Y-66454083D01*
X55426794Y-66545410D01*
X55426793Y-66545413D01*
X55399500Y-66647273D01*
X55399500Y-66752727D01*
X55426793Y-66854587D01*
X55454585Y-66902725D01*
X55479521Y-66945914D01*
X55545926Y-67012319D01*
X55579411Y-67073642D01*
X55574427Y-67143334D01*
X55545926Y-67187681D01*
X55479521Y-67254085D01*
X55426794Y-67345410D01*
X55426793Y-67345413D01*
X55399500Y-67447273D01*
X55399500Y-67552727D01*
X55399865Y-67554087D01*
X55426793Y-67654586D01*
X55426794Y-67654589D01*
X55479521Y-67745914D01*
X55545926Y-67812319D01*
X55579411Y-67873642D01*
X55574427Y-67943334D01*
X55545926Y-67987681D01*
X55479521Y-68054085D01*
X55426794Y-68145410D01*
X55426793Y-68145413D01*
X55399500Y-68247273D01*
X55399500Y-68352726D01*
X55426793Y-68454586D01*
X55426794Y-68454589D01*
X55479522Y-68545916D01*
X55484469Y-68552363D01*
X55482086Y-68554191D01*
X55508700Y-68602931D01*
X55503716Y-68672623D01*
X55475216Y-68716970D01*
X55399500Y-68792686D01*
X55333608Y-68906812D01*
X55314126Y-68979521D01*
X55299500Y-69034108D01*
X55299500Y-69165892D01*
X55310529Y-69207052D01*
X55333608Y-69293187D01*
X55363758Y-69345407D01*
X55399500Y-69407314D01*
X55492686Y-69500500D01*
X55606814Y-69566392D01*
X55734108Y-69600500D01*
X55734110Y-69600500D01*
X55865890Y-69600500D01*
X55865892Y-69600500D01*
X55993186Y-69566392D01*
X56107314Y-69500500D01*
X56200500Y-69407314D01*
X56266392Y-69293186D01*
X56278694Y-69247273D01*
X72499500Y-69247273D01*
X72499500Y-69352727D01*
X72526793Y-69454587D01*
X72579520Y-69545913D01*
X72654087Y-69620480D01*
X72745413Y-69673207D01*
X72771606Y-69680225D01*
X72831267Y-69716590D01*
X72861796Y-69779437D01*
X72853501Y-69848812D01*
X72809016Y-69902690D01*
X72771607Y-69919774D01*
X72745417Y-69926792D01*
X72745413Y-69926793D01*
X72745410Y-69926794D01*
X72654085Y-69979521D01*
X72579521Y-70054085D01*
X72526794Y-70145410D01*
X72526793Y-70145413D01*
X72499500Y-70247273D01*
X72499500Y-70352727D01*
X72526793Y-70454587D01*
X72579520Y-70545913D01*
X72654087Y-70620480D01*
X72745413Y-70673207D01*
X72847273Y-70700500D01*
X72847275Y-70700500D01*
X72952725Y-70700500D01*
X72952727Y-70700500D01*
X73054587Y-70673207D01*
X73145913Y-70620480D01*
X73220480Y-70545913D01*
X73273207Y-70454587D01*
X73300500Y-70352727D01*
X73300500Y-70247273D01*
X73290077Y-70208374D01*
X73660499Y-70208374D01*
X73660499Y-70313828D01*
X73687792Y-70415688D01*
X73740519Y-70507014D01*
X73815086Y-70581581D01*
X73906412Y-70634308D01*
X74008272Y-70661601D01*
X74008274Y-70661601D01*
X74113724Y-70661601D01*
X74113726Y-70661601D01*
X74215586Y-70634308D01*
X74241037Y-70619613D01*
X74308932Y-70603140D01*
X74374960Y-70625990D01*
X74418152Y-70680910D01*
X74422811Y-70694906D01*
X74445501Y-70779588D01*
X74445502Y-70779589D01*
X74498228Y-70870913D01*
X74572795Y-70945480D01*
X74664121Y-70998207D01*
X74765981Y-71025500D01*
X74765983Y-71025500D01*
X74871433Y-71025500D01*
X74871435Y-71025500D01*
X74973295Y-70998207D01*
X75064621Y-70945480D01*
X75139188Y-70870913D01*
X75191915Y-70779587D01*
X75219208Y-70677727D01*
X75219208Y-70572273D01*
X75191915Y-70470413D01*
X75139188Y-70379087D01*
X75064621Y-70304520D01*
X74973295Y-70251793D01*
X74871435Y-70224500D01*
X74765981Y-70224500D01*
X74664121Y-70251793D01*
X74664118Y-70251794D01*
X74638670Y-70266487D01*
X74570770Y-70282960D01*
X74504743Y-70260107D01*
X74461552Y-70205186D01*
X74456895Y-70191193D01*
X74434206Y-70106514D01*
X74381479Y-70015188D01*
X74306912Y-69940621D01*
X74215586Y-69887894D01*
X74113726Y-69860601D01*
X74008272Y-69860601D01*
X73906412Y-69887894D01*
X73906409Y-69887895D01*
X73815084Y-69940622D01*
X73740520Y-70015186D01*
X73687793Y-70106511D01*
X73687792Y-70106514D01*
X73660499Y-70208374D01*
X73290077Y-70208374D01*
X73273207Y-70145413D01*
X73220480Y-70054087D01*
X73145913Y-69979520D01*
X73054587Y-69926793D01*
X73054585Y-69926792D01*
X73038979Y-69922611D01*
X73028393Y-69919774D01*
X72968733Y-69883411D01*
X72956106Y-69857417D01*
X75319687Y-69857417D01*
X75319687Y-69962871D01*
X75346980Y-70064731D01*
X75399707Y-70156057D01*
X75474274Y-70230624D01*
X75565600Y-70283351D01*
X75667460Y-70310644D01*
X75667462Y-70310644D01*
X75772912Y-70310644D01*
X75772914Y-70310644D01*
X75874774Y-70283351D01*
X75966100Y-70230624D01*
X76040667Y-70156057D01*
X76093394Y-70064731D01*
X76120687Y-69962871D01*
X76120687Y-69857417D01*
X76093394Y-69755557D01*
X76059744Y-69697273D01*
X78849500Y-69697273D01*
X78849500Y-69802727D01*
X78876793Y-69904587D01*
X78929520Y-69995913D01*
X79004087Y-70070480D01*
X79095413Y-70123207D01*
X79197273Y-70150500D01*
X79197275Y-70150500D01*
X79302725Y-70150500D01*
X79302727Y-70150500D01*
X79404587Y-70123207D01*
X79495913Y-70070480D01*
X79570480Y-69995913D01*
X79623207Y-69904587D01*
X79650500Y-69802727D01*
X79650500Y-69697273D01*
X79623207Y-69595413D01*
X79570480Y-69504087D01*
X79513663Y-69447270D01*
X82501500Y-69447270D01*
X82501500Y-69552724D01*
X82528660Y-69654085D01*
X82528793Y-69654583D01*
X82528794Y-69654586D01*
X82534363Y-69664231D01*
X82581520Y-69745910D01*
X82656087Y-69820477D01*
X82747413Y-69873204D01*
X82849273Y-69900497D01*
X82849275Y-69900497D01*
X82954725Y-69900497D01*
X82954727Y-69900497D01*
X83056587Y-69873204D01*
X83101501Y-69847273D01*
X90199500Y-69847273D01*
X90199500Y-69952727D01*
X90226793Y-70054587D01*
X90279520Y-70145913D01*
X90354087Y-70220480D01*
X90445413Y-70273207D01*
X90547273Y-70300500D01*
X90547275Y-70300500D01*
X90652725Y-70300500D01*
X90652727Y-70300500D01*
X90754587Y-70273207D01*
X90845913Y-70220480D01*
X90920480Y-70145913D01*
X90973207Y-70054587D01*
X91000500Y-69952727D01*
X91000500Y-69847273D01*
X90973207Y-69745413D01*
X90920480Y-69654087D01*
X90845913Y-69579520D01*
X90754587Y-69526793D01*
X90652727Y-69499500D01*
X90547273Y-69499500D01*
X90445413Y-69526793D01*
X90445410Y-69526794D01*
X90354085Y-69579521D01*
X90279521Y-69654085D01*
X90226794Y-69745410D01*
X90226793Y-69745413D01*
X90199500Y-69847273D01*
X83101501Y-69847273D01*
X83147913Y-69820477D01*
X83222480Y-69745910D01*
X83275207Y-69654584D01*
X83302500Y-69552724D01*
X83302500Y-69447270D01*
X83275207Y-69345410D01*
X83222480Y-69254084D01*
X83147913Y-69179517D01*
X83056587Y-69126790D01*
X82954727Y-69099497D01*
X82849273Y-69099497D01*
X82747413Y-69126790D01*
X82747410Y-69126791D01*
X82656085Y-69179518D01*
X82581521Y-69254082D01*
X82528794Y-69345407D01*
X82528793Y-69345410D01*
X82501500Y-69447270D01*
X79513663Y-69447270D01*
X79495913Y-69429520D01*
X79404587Y-69376793D01*
X79302727Y-69349500D01*
X79197273Y-69349500D01*
X79095413Y-69376793D01*
X79095410Y-69376794D01*
X79004085Y-69429521D01*
X78929521Y-69504085D01*
X78876794Y-69595410D01*
X78876793Y-69595413D01*
X78849500Y-69697273D01*
X76059744Y-69697273D01*
X76040667Y-69664231D01*
X75966100Y-69589664D01*
X75874774Y-69536937D01*
X75772914Y-69509644D01*
X75667460Y-69509644D01*
X75565600Y-69536937D01*
X75565597Y-69536938D01*
X75474272Y-69589665D01*
X75399708Y-69664229D01*
X75346981Y-69755554D01*
X75346980Y-69755557D01*
X75319687Y-69857417D01*
X72956106Y-69857417D01*
X72938203Y-69820564D01*
X72946497Y-69751188D01*
X72990982Y-69697310D01*
X73028392Y-69680225D01*
X73054587Y-69673207D01*
X73145913Y-69620480D01*
X73220480Y-69545913D01*
X73273207Y-69454587D01*
X73300500Y-69352727D01*
X73300500Y-69247273D01*
X73273207Y-69145413D01*
X73220480Y-69054087D01*
X73145913Y-68979520D01*
X73054587Y-68926793D01*
X72952727Y-68899500D01*
X72847273Y-68899500D01*
X72745413Y-68926793D01*
X72745410Y-68926794D01*
X72654085Y-68979521D01*
X72579521Y-69054085D01*
X72526794Y-69145410D01*
X72526793Y-69145413D01*
X72499500Y-69247273D01*
X56278694Y-69247273D01*
X56300500Y-69165892D01*
X56300500Y-69034108D01*
X56266392Y-68906814D01*
X56200500Y-68792686D01*
X56124784Y-68716970D01*
X56091299Y-68655647D01*
X56096283Y-68585955D01*
X56117103Y-68553569D01*
X56115531Y-68552363D01*
X56120477Y-68545916D01*
X56120480Y-68545913D01*
X56173207Y-68454587D01*
X56200500Y-68352727D01*
X56200500Y-68247273D01*
X56173207Y-68145413D01*
X56120480Y-68054087D01*
X56054074Y-67987681D01*
X56053420Y-67986484D01*
X56052237Y-67985805D01*
X56036722Y-67955904D01*
X56020589Y-67926358D01*
X56020686Y-67924997D01*
X56020058Y-67923787D01*
X56023169Y-67890267D01*
X56025573Y-67856666D01*
X56026432Y-67855131D01*
X56026517Y-67854217D01*
X56029388Y-67849851D01*
X56044083Y-67823605D01*
X56048732Y-67817660D01*
X56119120Y-67747273D01*
X71499500Y-67747273D01*
X71499500Y-67852727D01*
X71526793Y-67954587D01*
X71579520Y-68045913D01*
X71654087Y-68120480D01*
X71745413Y-68173207D01*
X71847273Y-68200500D01*
X71847275Y-68200500D01*
X71952725Y-68200500D01*
X71952727Y-68200500D01*
X72054587Y-68173207D01*
X72145913Y-68120480D01*
X72220480Y-68045913D01*
X72273207Y-67954587D01*
X72300500Y-67852727D01*
X72300500Y-67747273D01*
X72273207Y-67645413D01*
X72220480Y-67554087D01*
X72145913Y-67479520D01*
X72054587Y-67426793D01*
X71952727Y-67399500D01*
X71847273Y-67399500D01*
X71745413Y-67426793D01*
X71745410Y-67426794D01*
X71654085Y-67479521D01*
X71579521Y-67554085D01*
X71526794Y-67645410D01*
X71526793Y-67645413D01*
X71499500Y-67747273D01*
X56119120Y-67747273D01*
X56120480Y-67745913D01*
X56173207Y-67654587D01*
X56200500Y-67552727D01*
X56200500Y-67447273D01*
X56173207Y-67345413D01*
X56120480Y-67254087D01*
X56054074Y-67187681D01*
X56020589Y-67126358D01*
X56025573Y-67056666D01*
X56054074Y-67012319D01*
X56061807Y-67004586D01*
X56120480Y-66945913D01*
X56173207Y-66854587D01*
X56200500Y-66752727D01*
X56200500Y-66647273D01*
X56699500Y-66647273D01*
X56699500Y-66752727D01*
X56726793Y-66854587D01*
X56779520Y-66945913D01*
X56854087Y-67020480D01*
X56945413Y-67073207D01*
X57047273Y-67100500D01*
X57047275Y-67100500D01*
X57152725Y-67100500D01*
X57152727Y-67100500D01*
X57254587Y-67073207D01*
X57345913Y-67020480D01*
X57420480Y-66945913D01*
X57473207Y-66854587D01*
X57500500Y-66752727D01*
X57500500Y-66647273D01*
X57473207Y-66545413D01*
X57420480Y-66454087D01*
X57345913Y-66379520D01*
X57290059Y-66347273D01*
X75499500Y-66347273D01*
X75499500Y-66452727D01*
X75526793Y-66554587D01*
X75579520Y-66645913D01*
X75654087Y-66720480D01*
X75745413Y-66773207D01*
X75847273Y-66800500D01*
X75847275Y-66800500D01*
X75952725Y-66800500D01*
X75952727Y-66800500D01*
X75964770Y-66797273D01*
X78699500Y-66797273D01*
X78699500Y-66902727D01*
X78726793Y-67004587D01*
X78779520Y-67095913D01*
X78854087Y-67170480D01*
X78945413Y-67223207D01*
X79047273Y-67250500D01*
X79047275Y-67250500D01*
X79152725Y-67250500D01*
X79152727Y-67250500D01*
X79254587Y-67223207D01*
X79345913Y-67170480D01*
X79420480Y-67095913D01*
X79473207Y-67004587D01*
X79500500Y-66902727D01*
X79500500Y-66797273D01*
X79473207Y-66695413D01*
X79420480Y-66604087D01*
X79345913Y-66529520D01*
X79254587Y-66476793D01*
X79152727Y-66449500D01*
X79047273Y-66449500D01*
X78945413Y-66476793D01*
X78945410Y-66476794D01*
X78854085Y-66529521D01*
X78779521Y-66604085D01*
X78726794Y-66695410D01*
X78726793Y-66695413D01*
X78699500Y-66797273D01*
X75964770Y-66797273D01*
X76054587Y-66773207D01*
X76145913Y-66720480D01*
X76220480Y-66645913D01*
X76273207Y-66554587D01*
X76300500Y-66452727D01*
X76300500Y-66347273D01*
X76273705Y-66247273D01*
X80619500Y-66247273D01*
X80619500Y-66352727D01*
X80646793Y-66454587D01*
X80699520Y-66545913D01*
X80774087Y-66620480D01*
X80865413Y-66673207D01*
X80967273Y-66700500D01*
X80967275Y-66700500D01*
X81072725Y-66700500D01*
X81072727Y-66700500D01*
X81174587Y-66673207D01*
X81265913Y-66620480D01*
X81340480Y-66545913D01*
X81393207Y-66454587D01*
X81395167Y-66447273D01*
X82501500Y-66447273D01*
X82501500Y-66552727D01*
X82528793Y-66654587D01*
X82581520Y-66745913D01*
X82656087Y-66820480D01*
X82747413Y-66873207D01*
X82849273Y-66900500D01*
X82849275Y-66900500D01*
X82954725Y-66900500D01*
X82954727Y-66900500D01*
X83056587Y-66873207D01*
X83147913Y-66820480D01*
X83222480Y-66745913D01*
X83275207Y-66654587D01*
X83302500Y-66552727D01*
X83302500Y-66447273D01*
X83275207Y-66345413D01*
X83222480Y-66254087D01*
X83147913Y-66179520D01*
X83056587Y-66126793D01*
X82954727Y-66099500D01*
X82849273Y-66099500D01*
X82747413Y-66126793D01*
X82747410Y-66126794D01*
X82656085Y-66179521D01*
X82581521Y-66254085D01*
X82528794Y-66345410D01*
X82528793Y-66345413D01*
X82501500Y-66447273D01*
X81395167Y-66447273D01*
X81420500Y-66352727D01*
X81420500Y-66247273D01*
X81393207Y-66145413D01*
X81340480Y-66054087D01*
X81265913Y-65979520D01*
X81174587Y-65926793D01*
X81072727Y-65899500D01*
X80967273Y-65899500D01*
X80865413Y-65926793D01*
X80865410Y-65926794D01*
X80774085Y-65979521D01*
X80699521Y-66054085D01*
X80646794Y-66145410D01*
X80646793Y-66145413D01*
X80619500Y-66247273D01*
X76273705Y-66247273D01*
X76273207Y-66245413D01*
X76220480Y-66154087D01*
X76145913Y-66079520D01*
X76054587Y-66026793D01*
X75952727Y-65999500D01*
X75847273Y-65999500D01*
X75745413Y-66026793D01*
X75745410Y-66026794D01*
X75654085Y-66079521D01*
X75579521Y-66154085D01*
X75526794Y-66245410D01*
X75526794Y-66245411D01*
X75526793Y-66245413D01*
X75499500Y-66347273D01*
X57290059Y-66347273D01*
X57254587Y-66326793D01*
X57152727Y-66299500D01*
X57047273Y-66299500D01*
X56945413Y-66326793D01*
X56945410Y-66326794D01*
X56854085Y-66379521D01*
X56779521Y-66454085D01*
X56726794Y-66545410D01*
X56726793Y-66545413D01*
X56699500Y-66647273D01*
X56200500Y-66647273D01*
X56173207Y-66545413D01*
X56120480Y-66454087D01*
X56120478Y-66454085D01*
X56120477Y-66454083D01*
X56115531Y-66447637D01*
X56117913Y-66445808D01*
X56091299Y-66397068D01*
X56096283Y-66327376D01*
X56124780Y-66283033D01*
X56200500Y-66207314D01*
X56266392Y-66093186D01*
X56266583Y-66092469D01*
X56266910Y-66091933D01*
X56269500Y-66085682D01*
X56270474Y-66086085D01*
X56302943Y-66032810D01*
X56365788Y-66002277D01*
X56435164Y-66010568D01*
X56448360Y-66017172D01*
X56454083Y-66020476D01*
X56454087Y-66020480D01*
X56545413Y-66073207D01*
X56647273Y-66100500D01*
X56647275Y-66100500D01*
X56752725Y-66100500D01*
X56752727Y-66100500D01*
X56854587Y-66073207D01*
X56945913Y-66020480D01*
X57020480Y-65945913D01*
X57073207Y-65854587D01*
X57100500Y-65752727D01*
X57100500Y-65647273D01*
X57073207Y-65545413D01*
X57020480Y-65454087D01*
X56945913Y-65379520D01*
X56854587Y-65326793D01*
X56752727Y-65299500D01*
X56647273Y-65299500D01*
X56545413Y-65326793D01*
X56545410Y-65326794D01*
X56454085Y-65379521D01*
X56379522Y-65454084D01*
X56344063Y-65515501D01*
X56293495Y-65563716D01*
X56224888Y-65576938D01*
X56160023Y-65550970D01*
X56148995Y-65541181D01*
X56107316Y-65499502D01*
X56107314Y-65499500D01*
X56028653Y-65454085D01*
X55993187Y-65433608D01*
X55929539Y-65416554D01*
X55865892Y-65399500D01*
X55734108Y-65399500D01*
X55606812Y-65433608D01*
X55492686Y-65499500D01*
X55492683Y-65499502D01*
X55399502Y-65592683D01*
X55399500Y-65592686D01*
X55333608Y-65706812D01*
X55299500Y-65834108D01*
X50500500Y-65834108D01*
X50500500Y-65188389D01*
X86774500Y-65188389D01*
X86774500Y-65311610D01*
X86798535Y-65432444D01*
X86798538Y-65432454D01*
X86845687Y-65546283D01*
X86845692Y-65546292D01*
X86914141Y-65648732D01*
X86914144Y-65648736D01*
X87001263Y-65735855D01*
X87001267Y-65735858D01*
X87103707Y-65804307D01*
X87103713Y-65804310D01*
X87103714Y-65804311D01*
X87217548Y-65851463D01*
X87338389Y-65875499D01*
X87338393Y-65875500D01*
X87338394Y-65875500D01*
X87461607Y-65875500D01*
X87461608Y-65875499D01*
X87582452Y-65851463D01*
X87696286Y-65804311D01*
X87798733Y-65735858D01*
X87885858Y-65648733D01*
X87954311Y-65546286D01*
X88001463Y-65432452D01*
X88025500Y-65311606D01*
X88025500Y-65188394D01*
X88025499Y-65188389D01*
X88774500Y-65188389D01*
X88774500Y-65311610D01*
X88798535Y-65432444D01*
X88798538Y-65432454D01*
X88845687Y-65546283D01*
X88845692Y-65546292D01*
X88914141Y-65648732D01*
X88914144Y-65648736D01*
X89001263Y-65735855D01*
X89001267Y-65735858D01*
X89103707Y-65804307D01*
X89103713Y-65804310D01*
X89103714Y-65804311D01*
X89217548Y-65851463D01*
X89338389Y-65875499D01*
X89338393Y-65875500D01*
X89338394Y-65875500D01*
X89461607Y-65875500D01*
X89461608Y-65875499D01*
X89582452Y-65851463D01*
X89696286Y-65804311D01*
X89798733Y-65735858D01*
X89885858Y-65648733D01*
X89954311Y-65546286D01*
X90001463Y-65432452D01*
X90025500Y-65311606D01*
X90025500Y-65188394D01*
X90025499Y-65188389D01*
X90774500Y-65188389D01*
X90774500Y-65311610D01*
X90798535Y-65432444D01*
X90798538Y-65432454D01*
X90845687Y-65546283D01*
X90845692Y-65546292D01*
X90914141Y-65648732D01*
X90914144Y-65648736D01*
X91001263Y-65735855D01*
X91001267Y-65735858D01*
X91103707Y-65804307D01*
X91103713Y-65804310D01*
X91103714Y-65804311D01*
X91217548Y-65851463D01*
X91338389Y-65875499D01*
X91338393Y-65875500D01*
X91338394Y-65875500D01*
X91461607Y-65875500D01*
X91461608Y-65875499D01*
X91582452Y-65851463D01*
X91696286Y-65804311D01*
X91798733Y-65735858D01*
X91885858Y-65648733D01*
X91954311Y-65546286D01*
X92001463Y-65432452D01*
X92025500Y-65311606D01*
X92025500Y-65188394D01*
X92025499Y-65188389D01*
X92774500Y-65188389D01*
X92774500Y-65311610D01*
X92798535Y-65432444D01*
X92798538Y-65432454D01*
X92845687Y-65546283D01*
X92845692Y-65546292D01*
X92914141Y-65648732D01*
X92914144Y-65648736D01*
X93001263Y-65735855D01*
X93001267Y-65735858D01*
X93103707Y-65804307D01*
X93103713Y-65804310D01*
X93103714Y-65804311D01*
X93217548Y-65851463D01*
X93338389Y-65875499D01*
X93338393Y-65875500D01*
X93338394Y-65875500D01*
X93461607Y-65875500D01*
X93461608Y-65875499D01*
X93582452Y-65851463D01*
X93696286Y-65804311D01*
X93798733Y-65735858D01*
X93885858Y-65648733D01*
X93954311Y-65546286D01*
X94001463Y-65432452D01*
X94025500Y-65311606D01*
X94025500Y-65188394D01*
X94001463Y-65067548D01*
X93954311Y-64953714D01*
X93954310Y-64953713D01*
X93954307Y-64953707D01*
X93885858Y-64851267D01*
X93885855Y-64851263D01*
X93798736Y-64764144D01*
X93798732Y-64764141D01*
X93696292Y-64695692D01*
X93696283Y-64695687D01*
X93582454Y-64648538D01*
X93582455Y-64648538D01*
X93582452Y-64648537D01*
X93582448Y-64648536D01*
X93582444Y-64648535D01*
X93461610Y-64624500D01*
X93461606Y-64624500D01*
X93338394Y-64624500D01*
X93338389Y-64624500D01*
X93217555Y-64648535D01*
X93217545Y-64648538D01*
X93103716Y-64695687D01*
X93103707Y-64695692D01*
X93001267Y-64764141D01*
X93001263Y-64764144D01*
X92914144Y-64851263D01*
X92914141Y-64851267D01*
X92845692Y-64953707D01*
X92845687Y-64953716D01*
X92798538Y-65067545D01*
X92798535Y-65067555D01*
X92774500Y-65188389D01*
X92025499Y-65188389D01*
X92001463Y-65067548D01*
X91954311Y-64953714D01*
X91954310Y-64953713D01*
X91954307Y-64953707D01*
X91885858Y-64851267D01*
X91885855Y-64851263D01*
X91798736Y-64764144D01*
X91798732Y-64764141D01*
X91696292Y-64695692D01*
X91696283Y-64695687D01*
X91582454Y-64648538D01*
X91582455Y-64648538D01*
X91582452Y-64648537D01*
X91582448Y-64648536D01*
X91582444Y-64648535D01*
X91461610Y-64624500D01*
X91461606Y-64624500D01*
X91338394Y-64624500D01*
X91338389Y-64624500D01*
X91217555Y-64648535D01*
X91217545Y-64648538D01*
X91103716Y-64695687D01*
X91103707Y-64695692D01*
X91001267Y-64764141D01*
X91001263Y-64764144D01*
X90914144Y-64851263D01*
X90914141Y-64851267D01*
X90845692Y-64953707D01*
X90845687Y-64953716D01*
X90798538Y-65067545D01*
X90798535Y-65067555D01*
X90774500Y-65188389D01*
X90025499Y-65188389D01*
X90001463Y-65067548D01*
X89954311Y-64953714D01*
X89954310Y-64953713D01*
X89954307Y-64953707D01*
X89885858Y-64851267D01*
X89885855Y-64851263D01*
X89798736Y-64764144D01*
X89798732Y-64764141D01*
X89696292Y-64695692D01*
X89696283Y-64695687D01*
X89582454Y-64648538D01*
X89582455Y-64648538D01*
X89582452Y-64648537D01*
X89582448Y-64648536D01*
X89582444Y-64648535D01*
X89461610Y-64624500D01*
X89461606Y-64624500D01*
X89338394Y-64624500D01*
X89338389Y-64624500D01*
X89217555Y-64648535D01*
X89217545Y-64648538D01*
X89103716Y-64695687D01*
X89103707Y-64695692D01*
X89001267Y-64764141D01*
X89001263Y-64764144D01*
X88914144Y-64851263D01*
X88914141Y-64851267D01*
X88845692Y-64953707D01*
X88845687Y-64953716D01*
X88798538Y-65067545D01*
X88798535Y-65067555D01*
X88774500Y-65188389D01*
X88025499Y-65188389D01*
X88001463Y-65067548D01*
X87954311Y-64953714D01*
X87954310Y-64953713D01*
X87954307Y-64953707D01*
X87885858Y-64851267D01*
X87885855Y-64851263D01*
X87798736Y-64764144D01*
X87798732Y-64764141D01*
X87696292Y-64695692D01*
X87696283Y-64695687D01*
X87582454Y-64648538D01*
X87582455Y-64648538D01*
X87582452Y-64648537D01*
X87582448Y-64648536D01*
X87582444Y-64648535D01*
X87461610Y-64624500D01*
X87461606Y-64624500D01*
X87338394Y-64624500D01*
X87338389Y-64624500D01*
X87217555Y-64648535D01*
X87217545Y-64648538D01*
X87103716Y-64695687D01*
X87103707Y-64695692D01*
X87001267Y-64764141D01*
X87001263Y-64764144D01*
X86914144Y-64851263D01*
X86914141Y-64851267D01*
X86845692Y-64953707D01*
X86845687Y-64953716D01*
X86798538Y-65067545D01*
X86798535Y-65067555D01*
X86774500Y-65188389D01*
X50500500Y-65188389D01*
X50500500Y-64647273D01*
X54399500Y-64647273D01*
X54399500Y-64752727D01*
X54426793Y-64854587D01*
X54479520Y-64945913D01*
X54554087Y-65020480D01*
X54645413Y-65073207D01*
X54747273Y-65100500D01*
X54747275Y-65100500D01*
X54852725Y-65100500D01*
X54852727Y-65100500D01*
X54954587Y-65073207D01*
X55045913Y-65020480D01*
X55120480Y-64945913D01*
X55173207Y-64854587D01*
X55200500Y-64752727D01*
X55200500Y-64647273D01*
X55173207Y-64545413D01*
X55120480Y-64454087D01*
X55045913Y-64379520D01*
X54954587Y-64326793D01*
X54852727Y-64299500D01*
X54747273Y-64299500D01*
X54645413Y-64326793D01*
X54645410Y-64326794D01*
X54554085Y-64379521D01*
X54479521Y-64454085D01*
X54426794Y-64545410D01*
X54426793Y-64545413D01*
X54399500Y-64647273D01*
X50500500Y-64647273D01*
X50500500Y-64107273D01*
X68089500Y-64107273D01*
X68089500Y-64212727D01*
X68116793Y-64314587D01*
X68169520Y-64405913D01*
X68244087Y-64480480D01*
X68335413Y-64533207D01*
X68437273Y-64560500D01*
X68437275Y-64560500D01*
X68542725Y-64560500D01*
X68542727Y-64560500D01*
X68644587Y-64533207D01*
X68735913Y-64480480D01*
X68810480Y-64405913D01*
X68863207Y-64314587D01*
X68890500Y-64212727D01*
X68890500Y-64107273D01*
X68863207Y-64005413D01*
X68829640Y-63947273D01*
X77801500Y-63947273D01*
X77801500Y-64052727D01*
X77828793Y-64154587D01*
X77881520Y-64245913D01*
X77956087Y-64320480D01*
X78047413Y-64373207D01*
X78149273Y-64400500D01*
X78149275Y-64400500D01*
X78254725Y-64400500D01*
X78254727Y-64400500D01*
X78356587Y-64373207D01*
X78447913Y-64320480D01*
X78522480Y-64245913D01*
X78575207Y-64154587D01*
X78602500Y-64052727D01*
X78602500Y-63947273D01*
X78575207Y-63845413D01*
X78522480Y-63754087D01*
X78447913Y-63679520D01*
X78356587Y-63626793D01*
X78254727Y-63599500D01*
X78149273Y-63599500D01*
X78047413Y-63626793D01*
X78047410Y-63626794D01*
X77956085Y-63679521D01*
X77881521Y-63754085D01*
X77828794Y-63845410D01*
X77828793Y-63845413D01*
X77801500Y-63947273D01*
X68829640Y-63947273D01*
X68810480Y-63914087D01*
X68735913Y-63839520D01*
X68644587Y-63786793D01*
X68542727Y-63759500D01*
X68437273Y-63759500D01*
X68335413Y-63786793D01*
X68335410Y-63786794D01*
X68244085Y-63839521D01*
X68169521Y-63914085D01*
X68116794Y-64005410D01*
X68116793Y-64005413D01*
X68089500Y-64107273D01*
X50500500Y-64107273D01*
X50500500Y-63397273D01*
X78899500Y-63397273D01*
X78899500Y-63502727D01*
X78926793Y-63604587D01*
X78979520Y-63695913D01*
X79054087Y-63770480D01*
X79145413Y-63823207D01*
X79247273Y-63850500D01*
X79247275Y-63850500D01*
X79352725Y-63850500D01*
X79352727Y-63850500D01*
X79454587Y-63823207D01*
X79545913Y-63770480D01*
X79620480Y-63695913D01*
X79673207Y-63604587D01*
X79700500Y-63502727D01*
X79700500Y-63397273D01*
X79673207Y-63295413D01*
X79620480Y-63204087D01*
X79545913Y-63129520D01*
X79454587Y-63076793D01*
X79352727Y-63049500D01*
X79247273Y-63049500D01*
X79145413Y-63076793D01*
X79145410Y-63076794D01*
X79054085Y-63129521D01*
X78979521Y-63204085D01*
X78926794Y-63295410D01*
X78926793Y-63295413D01*
X78899500Y-63397273D01*
X50500500Y-63397273D01*
X50500500Y-62347273D01*
X69849500Y-62347273D01*
X69849500Y-62452727D01*
X69876793Y-62554587D01*
X69929520Y-62645913D01*
X70004087Y-62720480D01*
X70095413Y-62773207D01*
X70197273Y-62800500D01*
X70197275Y-62800500D01*
X70302725Y-62800500D01*
X70302727Y-62800500D01*
X70404587Y-62773207D01*
X70495913Y-62720480D01*
X70570480Y-62645913D01*
X70623207Y-62554587D01*
X70650500Y-62452727D01*
X70650500Y-62347273D01*
X70623207Y-62245413D01*
X70570480Y-62154087D01*
X70495913Y-62079520D01*
X70404587Y-62026793D01*
X70302727Y-61999500D01*
X70197273Y-61999500D01*
X70095413Y-62026793D01*
X70095410Y-62026794D01*
X70004085Y-62079521D01*
X69929521Y-62154085D01*
X69876794Y-62245410D01*
X69876793Y-62245413D01*
X69849500Y-62347273D01*
X50500500Y-62347273D01*
X50500500Y-61747273D01*
X54199500Y-61747273D01*
X54199500Y-61852727D01*
X54226793Y-61954587D01*
X54279520Y-62045913D01*
X54354087Y-62120480D01*
X54445413Y-62173207D01*
X54547273Y-62200500D01*
X54547275Y-62200500D01*
X54652725Y-62200500D01*
X54652727Y-62200500D01*
X54754587Y-62173207D01*
X54845913Y-62120480D01*
X54920480Y-62045913D01*
X54973207Y-61954587D01*
X55000500Y-61852727D01*
X55000500Y-61747273D01*
X54973207Y-61645413D01*
X54920480Y-61554087D01*
X54845913Y-61479520D01*
X54754587Y-61426793D01*
X54652727Y-61399500D01*
X54547273Y-61399500D01*
X54445413Y-61426793D01*
X54445410Y-61426794D01*
X54354085Y-61479521D01*
X54279521Y-61554085D01*
X54226794Y-61645410D01*
X54226793Y-61645413D01*
X54199500Y-61747273D01*
X50500500Y-61747273D01*
X50500500Y-61372273D01*
X73344500Y-61372273D01*
X73344500Y-61477727D01*
X73371793Y-61579587D01*
X73424520Y-61670913D01*
X73499087Y-61745480D01*
X73590413Y-61798207D01*
X73692273Y-61825500D01*
X73692275Y-61825500D01*
X73797725Y-61825500D01*
X73797727Y-61825500D01*
X73899587Y-61798207D01*
X73990913Y-61745480D01*
X74065480Y-61670913D01*
X74118207Y-61579587D01*
X74145500Y-61477727D01*
X74145500Y-61372273D01*
X75309500Y-61372273D01*
X75309500Y-61477727D01*
X75336793Y-61579587D01*
X75389520Y-61670913D01*
X75464087Y-61745480D01*
X75555413Y-61798207D01*
X75657273Y-61825500D01*
X75657275Y-61825500D01*
X75762725Y-61825500D01*
X75762727Y-61825500D01*
X75864587Y-61798207D01*
X75955913Y-61745480D01*
X76030480Y-61670913D01*
X76083207Y-61579587D01*
X76110500Y-61477727D01*
X76110500Y-61372273D01*
X76083207Y-61270413D01*
X76030480Y-61179087D01*
X75955913Y-61104520D01*
X75864587Y-61051793D01*
X75762727Y-61024500D01*
X75657273Y-61024500D01*
X75555413Y-61051793D01*
X75555410Y-61051794D01*
X75464085Y-61104521D01*
X75389521Y-61179085D01*
X75336794Y-61270410D01*
X75336793Y-61270413D01*
X75309500Y-61372273D01*
X74145500Y-61372273D01*
X74118207Y-61270413D01*
X74065480Y-61179087D01*
X73990913Y-61104520D01*
X73899587Y-61051793D01*
X73797727Y-61024500D01*
X73692273Y-61024500D01*
X73590413Y-61051793D01*
X73590410Y-61051794D01*
X73499085Y-61104521D01*
X73424521Y-61179085D01*
X73371794Y-61270410D01*
X73371793Y-61270413D01*
X73344500Y-61372273D01*
X50500500Y-61372273D01*
X50500500Y-60297273D01*
X63749500Y-60297273D01*
X63749500Y-60402727D01*
X63776793Y-60504587D01*
X63829520Y-60595913D01*
X63904087Y-60670480D01*
X63995413Y-60723207D01*
X64097273Y-60750500D01*
X64097275Y-60750500D01*
X64202725Y-60750500D01*
X64202727Y-60750500D01*
X64304587Y-60723207D01*
X64395913Y-60670480D01*
X64469120Y-60597273D01*
X78849500Y-60597273D01*
X78849500Y-60702727D01*
X78876793Y-60804587D01*
X78929520Y-60895913D01*
X79004087Y-60970480D01*
X79095413Y-61023207D01*
X79197273Y-61050500D01*
X79197275Y-61050500D01*
X79302725Y-61050500D01*
X79302727Y-61050500D01*
X79404587Y-61023207D01*
X79495913Y-60970480D01*
X79570480Y-60895913D01*
X79623207Y-60804587D01*
X79650500Y-60702727D01*
X79650500Y-60597273D01*
X79623207Y-60495413D01*
X79570480Y-60404087D01*
X79495913Y-60329520D01*
X79404587Y-60276793D01*
X79302727Y-60249500D01*
X79197273Y-60249500D01*
X79095413Y-60276793D01*
X79095410Y-60276794D01*
X79004085Y-60329521D01*
X78929521Y-60404085D01*
X78876794Y-60495410D01*
X78876793Y-60495413D01*
X78849500Y-60597273D01*
X64469120Y-60597273D01*
X64470480Y-60595913D01*
X64523207Y-60504587D01*
X64550500Y-60402727D01*
X64550500Y-60297273D01*
X64523207Y-60195413D01*
X64470480Y-60104087D01*
X64395913Y-60029520D01*
X64304587Y-59976793D01*
X64202727Y-59949500D01*
X64097273Y-59949500D01*
X63995413Y-59976793D01*
X63995410Y-59976794D01*
X63904085Y-60029521D01*
X63829521Y-60104085D01*
X63776794Y-60195410D01*
X63776793Y-60195413D01*
X63749500Y-60297273D01*
X50500500Y-60297273D01*
X50500500Y-58147273D01*
X54399500Y-58147273D01*
X54399500Y-58252727D01*
X54426793Y-58354587D01*
X54479520Y-58445913D01*
X54554087Y-58520480D01*
X54645413Y-58573207D01*
X54747273Y-58600500D01*
X54747275Y-58600500D01*
X54852725Y-58600500D01*
X54852727Y-58600500D01*
X54954587Y-58573207D01*
X55045913Y-58520480D01*
X55120480Y-58445913D01*
X55173207Y-58354587D01*
X55200500Y-58252727D01*
X55200500Y-58147273D01*
X55173207Y-58045413D01*
X55120480Y-57954087D01*
X55045913Y-57879520D01*
X54954587Y-57826793D01*
X54852727Y-57799500D01*
X54747273Y-57799500D01*
X54645413Y-57826793D01*
X54645410Y-57826794D01*
X54554085Y-57879521D01*
X54479521Y-57954085D01*
X54426794Y-58045410D01*
X54426793Y-58045413D01*
X54399500Y-58147273D01*
X50500500Y-58147273D01*
X50500500Y-56947273D01*
X56399500Y-56947273D01*
X56399500Y-57052727D01*
X56426793Y-57154587D01*
X56479520Y-57245913D01*
X56554087Y-57320480D01*
X56645413Y-57373207D01*
X56747273Y-57400500D01*
X56747275Y-57400500D01*
X56852725Y-57400500D01*
X56852727Y-57400500D01*
X56954587Y-57373207D01*
X57045913Y-57320480D01*
X57120480Y-57245913D01*
X57173207Y-57154587D01*
X57200500Y-57052727D01*
X57200500Y-57047273D01*
X59999500Y-57047273D01*
X59999500Y-57152727D01*
X60017607Y-57220302D01*
X60026793Y-57254586D01*
X60026794Y-57254589D01*
X60027559Y-57255914D01*
X60079520Y-57345913D01*
X60154087Y-57420480D01*
X60245413Y-57473207D01*
X60347273Y-57500500D01*
X60347275Y-57500500D01*
X60452725Y-57500500D01*
X60452727Y-57500500D01*
X60554587Y-57473207D01*
X60645913Y-57420480D01*
X60720480Y-57345913D01*
X60773207Y-57254587D01*
X60800500Y-57152727D01*
X60800500Y-57047273D01*
X60776385Y-56957273D01*
X67999500Y-56957273D01*
X67999500Y-57062727D01*
X68024114Y-57154586D01*
X68026793Y-57164586D01*
X68026794Y-57164589D01*
X68040922Y-57189059D01*
X68079520Y-57255913D01*
X68154087Y-57330480D01*
X68245413Y-57383207D01*
X68347273Y-57410500D01*
X68347275Y-57410500D01*
X68452725Y-57410500D01*
X68452727Y-57410500D01*
X68554587Y-57383207D01*
X68645913Y-57330480D01*
X68720480Y-57255913D01*
X68773207Y-57164587D01*
X68800500Y-57062727D01*
X68800500Y-56957273D01*
X68797821Y-56947273D01*
X70899500Y-56947273D01*
X70899500Y-57052727D01*
X70926793Y-57154587D01*
X70979520Y-57245913D01*
X71054087Y-57320480D01*
X71145413Y-57373207D01*
X71247273Y-57400500D01*
X71247275Y-57400500D01*
X71352725Y-57400500D01*
X71352727Y-57400500D01*
X71454587Y-57373207D01*
X71545913Y-57320480D01*
X71578004Y-57288389D01*
X76274500Y-57288389D01*
X76274500Y-57411610D01*
X76298535Y-57532444D01*
X76298538Y-57532454D01*
X76345687Y-57646283D01*
X76345692Y-57646292D01*
X76414141Y-57748732D01*
X76414144Y-57748736D01*
X76501263Y-57835855D01*
X76501267Y-57835858D01*
X76603707Y-57904307D01*
X76603713Y-57904310D01*
X76603714Y-57904311D01*
X76717548Y-57951463D01*
X76838389Y-57975499D01*
X76838393Y-57975500D01*
X76838394Y-57975500D01*
X76961607Y-57975500D01*
X76961608Y-57975499D01*
X77082452Y-57951463D01*
X77196286Y-57904311D01*
X77298733Y-57835858D01*
X77385858Y-57748733D01*
X77454311Y-57646286D01*
X77501463Y-57532452D01*
X77525500Y-57411606D01*
X77525500Y-57288394D01*
X77525499Y-57288389D01*
X78274500Y-57288389D01*
X78274500Y-57411610D01*
X78298535Y-57532444D01*
X78298538Y-57532454D01*
X78345687Y-57646283D01*
X78345692Y-57646292D01*
X78414141Y-57748732D01*
X78414144Y-57748736D01*
X78501263Y-57835855D01*
X78501267Y-57835858D01*
X78603707Y-57904307D01*
X78603713Y-57904310D01*
X78603714Y-57904311D01*
X78717548Y-57951463D01*
X78838389Y-57975499D01*
X78838393Y-57975500D01*
X78838394Y-57975500D01*
X78961607Y-57975500D01*
X78961608Y-57975499D01*
X79082452Y-57951463D01*
X79196286Y-57904311D01*
X79298733Y-57835858D01*
X79385858Y-57748733D01*
X79454311Y-57646286D01*
X79501463Y-57532452D01*
X79525500Y-57411606D01*
X79525500Y-57288394D01*
X79525499Y-57288389D01*
X80274500Y-57288389D01*
X80274500Y-57411610D01*
X80298535Y-57532444D01*
X80298538Y-57532454D01*
X80345687Y-57646283D01*
X80345692Y-57646292D01*
X80414141Y-57748732D01*
X80414144Y-57748736D01*
X80501263Y-57835855D01*
X80501267Y-57835858D01*
X80603707Y-57904307D01*
X80603713Y-57904310D01*
X80603714Y-57904311D01*
X80717548Y-57951463D01*
X80838389Y-57975499D01*
X80838393Y-57975500D01*
X80838394Y-57975500D01*
X80961607Y-57975500D01*
X80961608Y-57975499D01*
X81082452Y-57951463D01*
X81196286Y-57904311D01*
X81298733Y-57835858D01*
X81385858Y-57748733D01*
X81454311Y-57646286D01*
X81501463Y-57532452D01*
X81525500Y-57411606D01*
X81525500Y-57288394D01*
X81501463Y-57167548D01*
X81454311Y-57053714D01*
X81454310Y-57053713D01*
X81454307Y-57053707D01*
X81385858Y-56951267D01*
X81385855Y-56951263D01*
X81298736Y-56864144D01*
X81298732Y-56864141D01*
X81196292Y-56795692D01*
X81196283Y-56795687D01*
X81082454Y-56748538D01*
X81082455Y-56748538D01*
X81082452Y-56748537D01*
X81082448Y-56748536D01*
X81082444Y-56748535D01*
X80961610Y-56724500D01*
X80961606Y-56724500D01*
X80838394Y-56724500D01*
X80838389Y-56724500D01*
X80717555Y-56748535D01*
X80717545Y-56748538D01*
X80603716Y-56795687D01*
X80603707Y-56795692D01*
X80501267Y-56864141D01*
X80501263Y-56864144D01*
X80414144Y-56951263D01*
X80414141Y-56951267D01*
X80345692Y-57053707D01*
X80345687Y-57053716D01*
X80298538Y-57167545D01*
X80298535Y-57167555D01*
X80274500Y-57288389D01*
X79525499Y-57288389D01*
X79501463Y-57167548D01*
X79454311Y-57053714D01*
X79454310Y-57053713D01*
X79454307Y-57053707D01*
X79385858Y-56951267D01*
X79385855Y-56951263D01*
X79298736Y-56864144D01*
X79298732Y-56864141D01*
X79196292Y-56795692D01*
X79196283Y-56795687D01*
X79082454Y-56748538D01*
X79082455Y-56748538D01*
X79082452Y-56748537D01*
X79082448Y-56748536D01*
X79082444Y-56748535D01*
X78961610Y-56724500D01*
X78961606Y-56724500D01*
X78838394Y-56724500D01*
X78838389Y-56724500D01*
X78717555Y-56748535D01*
X78717545Y-56748538D01*
X78603716Y-56795687D01*
X78603707Y-56795692D01*
X78501267Y-56864141D01*
X78501263Y-56864144D01*
X78414144Y-56951263D01*
X78414141Y-56951267D01*
X78345692Y-57053707D01*
X78345687Y-57053716D01*
X78298538Y-57167545D01*
X78298535Y-57167555D01*
X78274500Y-57288389D01*
X77525499Y-57288389D01*
X77501463Y-57167548D01*
X77454311Y-57053714D01*
X77454310Y-57053713D01*
X77454307Y-57053707D01*
X77385858Y-56951267D01*
X77385855Y-56951263D01*
X77298736Y-56864144D01*
X77298732Y-56864141D01*
X77196292Y-56795692D01*
X77196283Y-56795687D01*
X77082454Y-56748538D01*
X77082455Y-56748538D01*
X77082452Y-56748537D01*
X77082448Y-56748536D01*
X77082444Y-56748535D01*
X76961610Y-56724500D01*
X76961606Y-56724500D01*
X76838394Y-56724500D01*
X76838389Y-56724500D01*
X76717555Y-56748535D01*
X76717545Y-56748538D01*
X76603716Y-56795687D01*
X76603707Y-56795692D01*
X76501267Y-56864141D01*
X76501263Y-56864144D01*
X76414144Y-56951263D01*
X76414141Y-56951267D01*
X76345692Y-57053707D01*
X76345687Y-57053716D01*
X76298538Y-57167545D01*
X76298535Y-57167555D01*
X76274500Y-57288389D01*
X71578004Y-57288389D01*
X71620480Y-57245913D01*
X71673207Y-57154587D01*
X71700500Y-57052727D01*
X71700500Y-56947273D01*
X71673207Y-56845413D01*
X71620480Y-56754087D01*
X71545913Y-56679520D01*
X71454587Y-56626793D01*
X71352727Y-56599500D01*
X71247273Y-56599500D01*
X71145413Y-56626793D01*
X71145410Y-56626794D01*
X71054085Y-56679521D01*
X70979521Y-56754085D01*
X70926794Y-56845410D01*
X70926793Y-56845413D01*
X70899500Y-56947273D01*
X68797821Y-56947273D01*
X68773207Y-56855413D01*
X68720480Y-56764087D01*
X68645913Y-56689520D01*
X68554587Y-56636793D01*
X68452727Y-56609500D01*
X68347273Y-56609500D01*
X68245413Y-56636793D01*
X68245410Y-56636794D01*
X68154085Y-56689521D01*
X68079521Y-56764085D01*
X68026794Y-56855410D01*
X68026793Y-56855413D01*
X67999500Y-56957273D01*
X60776385Y-56957273D01*
X60773207Y-56945413D01*
X60720480Y-56854087D01*
X60645913Y-56779520D01*
X60554587Y-56726793D01*
X60452727Y-56699500D01*
X60347273Y-56699500D01*
X60245413Y-56726793D01*
X60245410Y-56726794D01*
X60154085Y-56779521D01*
X60079521Y-56854085D01*
X60026794Y-56945410D01*
X60026793Y-56945413D01*
X59999500Y-57047273D01*
X57200500Y-57047273D01*
X57200500Y-56947273D01*
X57173207Y-56845413D01*
X57120480Y-56754087D01*
X57045913Y-56679520D01*
X56954587Y-56626793D01*
X56852727Y-56599500D01*
X56747273Y-56599500D01*
X56645413Y-56626793D01*
X56645410Y-56626794D01*
X56554085Y-56679521D01*
X56479521Y-56754085D01*
X56426794Y-56845410D01*
X56426793Y-56845413D01*
X56399500Y-56947273D01*
X50500500Y-56947273D01*
X50500500Y-55089584D01*
X63049461Y-55089584D01*
X63049461Y-55195038D01*
X63076754Y-55296898D01*
X63129481Y-55388224D01*
X63204048Y-55462791D01*
X63295374Y-55515518D01*
X63397234Y-55542811D01*
X63397236Y-55542811D01*
X63502686Y-55542811D01*
X63502688Y-55542811D01*
X63604548Y-55515518D01*
X63695874Y-55462791D01*
X63770441Y-55388224D01*
X63823168Y-55296898D01*
X63836465Y-55247273D01*
X71799500Y-55247273D01*
X71799500Y-55352727D01*
X71812301Y-55400499D01*
X71826793Y-55454586D01*
X71826794Y-55454589D01*
X71837542Y-55473205D01*
X71879520Y-55545913D01*
X71954087Y-55620480D01*
X72045413Y-55673207D01*
X72147273Y-55700500D01*
X72147275Y-55700500D01*
X72252725Y-55700500D01*
X72252727Y-55700500D01*
X72354587Y-55673207D01*
X72445913Y-55620480D01*
X72520480Y-55545913D01*
X72573207Y-55454587D01*
X72600500Y-55352727D01*
X72600500Y-55247273D01*
X72573705Y-55147273D01*
X80249500Y-55147273D01*
X80249500Y-55252727D01*
X80276793Y-55354587D01*
X80329520Y-55445913D01*
X80404087Y-55520480D01*
X80495413Y-55573207D01*
X80597273Y-55600500D01*
X80597275Y-55600500D01*
X80702725Y-55600500D01*
X80702727Y-55600500D01*
X80804587Y-55573207D01*
X80895913Y-55520480D01*
X80970480Y-55445913D01*
X81023207Y-55354587D01*
X81050500Y-55252727D01*
X81050500Y-55147273D01*
X81023207Y-55045413D01*
X80970480Y-54954087D01*
X80895913Y-54879520D01*
X80804587Y-54826793D01*
X80702727Y-54799500D01*
X80597273Y-54799500D01*
X80495413Y-54826793D01*
X80495410Y-54826794D01*
X80404085Y-54879521D01*
X80329521Y-54954085D01*
X80276794Y-55045410D01*
X80276793Y-55045413D01*
X80249500Y-55147273D01*
X72573705Y-55147273D01*
X72573207Y-55145413D01*
X72520480Y-55054087D01*
X72445913Y-54979520D01*
X72354587Y-54926793D01*
X72252727Y-54899500D01*
X72147273Y-54899500D01*
X72045413Y-54926793D01*
X72045410Y-54926794D01*
X71954085Y-54979521D01*
X71879521Y-55054085D01*
X71826794Y-55145410D01*
X71826794Y-55145411D01*
X71826793Y-55145413D01*
X71799500Y-55247273D01*
X63836465Y-55247273D01*
X63850461Y-55195038D01*
X63850461Y-55089584D01*
X63823168Y-54987724D01*
X63770441Y-54896398D01*
X63695874Y-54821831D01*
X63604548Y-54769104D01*
X63502688Y-54741811D01*
X63397234Y-54741811D01*
X63295374Y-54769104D01*
X63295371Y-54769105D01*
X63204046Y-54821832D01*
X63129482Y-54896396D01*
X63076755Y-54987721D01*
X63076754Y-54987724D01*
X63049461Y-55089584D01*
X50500500Y-55089584D01*
X50500500Y-54547273D01*
X83699500Y-54547273D01*
X83699500Y-54652727D01*
X83726793Y-54754587D01*
X83779520Y-54845913D01*
X83854087Y-54920480D01*
X83945413Y-54973207D01*
X84047273Y-55000500D01*
X84047275Y-55000500D01*
X84152725Y-55000500D01*
X84152727Y-55000500D01*
X84254587Y-54973207D01*
X84313502Y-54939192D01*
X84381399Y-54922720D01*
X84447426Y-54945572D01*
X84490617Y-55000493D01*
X84499500Y-55046580D01*
X84499500Y-55052727D01*
X84526793Y-55154587D01*
X84579520Y-55245913D01*
X84654087Y-55320480D01*
X84745413Y-55373207D01*
X84847273Y-55400500D01*
X84847275Y-55400500D01*
X84952725Y-55400500D01*
X84952727Y-55400500D01*
X85054587Y-55373207D01*
X85145913Y-55320480D01*
X85220480Y-55245913D01*
X85273207Y-55154587D01*
X85300500Y-55052727D01*
X85300500Y-55047273D01*
X90499500Y-55047273D01*
X90499500Y-55152727D01*
X90526793Y-55254587D01*
X90579520Y-55345913D01*
X90654087Y-55420480D01*
X90745413Y-55473207D01*
X90847273Y-55500500D01*
X90847275Y-55500500D01*
X90952725Y-55500500D01*
X90952727Y-55500500D01*
X91054587Y-55473207D01*
X91145913Y-55420480D01*
X91220480Y-55345913D01*
X91273207Y-55254587D01*
X91300500Y-55152727D01*
X91300500Y-55047273D01*
X91273207Y-54945413D01*
X91220480Y-54854087D01*
X91145913Y-54779520D01*
X91054587Y-54726793D01*
X90952727Y-54699500D01*
X90847273Y-54699500D01*
X90745413Y-54726793D01*
X90745410Y-54726794D01*
X90654085Y-54779521D01*
X90579521Y-54854085D01*
X90526794Y-54945410D01*
X90526793Y-54945413D01*
X90499500Y-55047273D01*
X85300500Y-55047273D01*
X85300500Y-54947273D01*
X85273207Y-54845413D01*
X85220480Y-54754087D01*
X85145913Y-54679520D01*
X85054587Y-54626793D01*
X84952727Y-54599500D01*
X84847273Y-54599500D01*
X84745413Y-54626793D01*
X84745410Y-54626794D01*
X84686500Y-54660806D01*
X84618599Y-54677279D01*
X84552572Y-54654426D01*
X84509382Y-54599505D01*
X84500500Y-54553419D01*
X84500500Y-54547275D01*
X84500500Y-54547273D01*
X84473207Y-54445413D01*
X84420480Y-54354087D01*
X84345913Y-54279520D01*
X84254587Y-54226793D01*
X84152727Y-54199500D01*
X84047273Y-54199500D01*
X83945413Y-54226793D01*
X83945410Y-54226794D01*
X83854085Y-54279521D01*
X83779521Y-54354085D01*
X83726794Y-54445410D01*
X83726793Y-54445413D01*
X83699500Y-54547273D01*
X50500500Y-54547273D01*
X50500500Y-54003051D01*
X50500649Y-53996967D01*
X50517052Y-53663072D01*
X50518245Y-53650962D01*
X50566849Y-53323296D01*
X50569218Y-53311385D01*
X50649710Y-52990043D01*
X50653240Y-52978411D01*
X50764835Y-52666525D01*
X50769476Y-52655318D01*
X50911124Y-52355828D01*
X50916840Y-52345136D01*
X51087145Y-52060998D01*
X51093888Y-52050905D01*
X51170747Y-51947273D01*
X91999500Y-51947273D01*
X91999500Y-52052727D01*
X92026793Y-52154587D01*
X92079520Y-52245913D01*
X92154087Y-52320480D01*
X92245413Y-52373207D01*
X92347273Y-52400500D01*
X92347275Y-52400500D01*
X92452725Y-52400500D01*
X92452727Y-52400500D01*
X92554587Y-52373207D01*
X92645913Y-52320480D01*
X92720480Y-52245913D01*
X92773207Y-52154587D01*
X92800500Y-52052727D01*
X92800500Y-51947273D01*
X92773207Y-51845413D01*
X92720480Y-51754087D01*
X92645913Y-51679520D01*
X92554587Y-51626793D01*
X92452727Y-51599500D01*
X92347273Y-51599500D01*
X92245413Y-51626793D01*
X92245410Y-51626794D01*
X92154085Y-51679521D01*
X92079521Y-51754085D01*
X92026794Y-51845410D01*
X92026793Y-51845413D01*
X91999500Y-51947273D01*
X51170747Y-51947273D01*
X51291232Y-51784818D01*
X51298935Y-51775433D01*
X51521405Y-51529975D01*
X51529975Y-51521405D01*
X51775433Y-51298935D01*
X51784818Y-51291232D01*
X52050905Y-51093888D01*
X52060998Y-51087145D01*
X52345136Y-50916840D01*
X52355828Y-50911124D01*
X52655318Y-50769476D01*
X52666525Y-50764835D01*
X52978412Y-50653239D01*
X52990043Y-50649710D01*
X53311385Y-50569218D01*
X53323296Y-50566849D01*
X53650962Y-50518244D01*
X53663068Y-50517052D01*
X53996967Y-50500648D01*
X54003051Y-50500500D01*
X54065892Y-50500500D01*
X95934108Y-50500500D01*
X95996949Y-50500500D01*
X96003032Y-50500648D01*
G37*
%TD.AperFunction*%
%TD*%
M02*
